<svg width="72" height="72" viewBox="0 0 72 72" fill="none" xmlns="http://www.w3.org/2000/svg">
<mask id="path-1-outside-1_25818_34337" maskUnits="userSpaceOnUse" x="1.10938" y="1.10938" width="69" height="69" fill="black">
<rect fill="white" x="1.10938" y="1.10938" width="69" height="69"/>
<path d="M67.0092 2.10938H21.7589C20.1698 2.10938 18.8761 3.40172 18.8761 4.99078V22.6477H12.2048C11.7394 22.6477 11.3611 23.0259 11.3611 23.4914V26.7019C9.68203 27.5414 8.58797 29.2669 8.58797 31.1737V34.4827C8.58797 34.6683 8.64844 34.8398 8.75109 34.9805C8.39672 35.4881 8.18859 36.1041 8.18859 36.7678C8.18859 38.4933 9.59203 39.8953 11.3161 39.8953H11.4961V40.5169C11.4961 42.5798 12.368 44.4431 13.7616 45.7594V47.8097L7.15359 50.2636C4.08937 51.4012 2.10938 54.2489 2.10938 57.5184V69.0469C2.10938 69.5123 2.48766 69.8906 2.95312 69.8906H34.4686C34.9341 69.8906 35.3123 69.5123 35.3123 69.0469V57.5269C35.3123 55.4414 34.5066 53.5289 33.1284 52.1213H69.0469C69.5123 52.1213 69.8906 51.743 69.8906 51.2775V4.99078C69.8906 3.40172 68.5983 2.10938 67.0092 2.10938ZM21.7589 3.79688H67.0092C67.6673 3.79688 68.2031 4.33266 68.2031 4.99078V9.47813H20.5636V4.99078C20.5636 4.33266 21.0994 3.79688 21.7589 3.79688ZM13.0486 24.3366H20.8547C22.3144 24.3366 23.4577 25.515 23.4577 27.0183C23.4577 27.4838 23.8359 27.862 24.3014 27.862H24.4378C25.9298 27.862 27.1434 29.0756 27.1434 30.5677V33.6417H26.1028H25.7766C25.4278 32.6545 24.487 31.9444 23.3817 31.9444H17.8819C15.2156 31.9444 13.0472 29.7759 13.0472 27.1097V24.3366H13.0486ZM27.5442 36.7678C27.5442 37.5623 26.8973 38.2078 26.1042 38.2078H25.9242V35.3264H26.1042C26.8988 35.3278 27.5442 35.9733 27.5442 36.7678ZM10.2769 31.1752C10.2769 30.1486 10.7564 29.2022 11.5327 28.5834C11.8434 29.9236 12.5677 31.1048 13.5647 31.988C12.6703 32.1581 11.9419 32.798 11.6452 33.6389H11.3189H10.2783V31.1752H10.2769ZM11.3175 38.2092C10.523 38.2092 9.8775 37.5623 9.8775 36.7692C9.8775 35.9761 10.5244 35.3292 11.3175 35.3292H11.4975V38.2106H11.3175V38.2092ZM13.185 40.5183V34.4841C13.185 34.013 13.5675 33.6305 14.0386 33.6305H23.3831C23.8542 33.6305 24.2367 34.013 24.2367 34.4841V40.5183C24.2367 43.5656 21.7575 46.0448 18.7102 46.0448C15.6628 46.0448 13.185 43.5656 13.185 40.5183ZM14.4267 49.3636L17.3981 51.9834L14.1652 53.8622L12.7294 49.9936L14.4267 49.3636ZM18.8339 53.1L20.0152 53.7863L20.6494 68.2031H16.7723L17.4009 53.9339L18.8339 53.1ZM20.2697 51.9834L23.1511 49.4423L24.9033 50.0892L23.5027 53.8622L20.2697 51.9834ZM18.7102 47.7323C19.9828 47.7323 21.1781 47.4005 22.2173 46.8197V48.0164L18.8339 51.0005L15.4505 48.0164V46.9491C16.4306 47.4483 17.5373 47.7323 18.7102 47.7323ZM3.79688 57.5184C3.79688 54.9225 5.30859 52.7498 7.74141 51.8456L11.1459 50.5814L12.9305 55.3894C13.0177 55.6228 13.2019 55.8056 13.4367 55.89C13.5295 55.9238 13.6252 55.9392 13.7222 55.9392C13.8698 55.9392 14.0161 55.9013 14.1469 55.8253L15.6684 54.9408L15.0834 68.2031H8.75812V60.6037C8.75812 60.1383 8.37984 59.76 7.91437 59.76C7.44891 59.76 7.07062 60.1383 7.07062 60.6037V68.2031H3.79688V57.5184ZM33.6248 68.2031H30.3511V60.6037C30.3511 60.1383 29.9728 59.76 29.5073 59.76C29.0419 59.76 28.6636 60.1383 28.6636 60.6037V68.2031H22.3397L21.7491 54.7945L23.5223 55.8253C23.6531 55.9013 23.7994 55.9392 23.947 55.9392C24.0427 55.9392 24.1397 55.9223 24.2325 55.89C24.4673 55.8056 24.6516 55.6228 24.7388 55.3894L26.4895 50.6742L29.6733 51.8498C32.1117 52.7512 33.6277 54.9253 33.6277 57.5255V68.2031H33.6248ZM30.6647 50.4338C30.5297 50.3761 30.3947 50.3198 30.2555 50.2678L23.9048 47.9222V45.5161C25.1536 44.2181 25.9242 42.4575 25.9242 40.5183V39.8967H26.1042C27.8297 39.8967 29.2317 38.4933 29.2317 36.7692C29.2317 36.1055 29.0236 35.4895 28.6692 34.9819C28.7719 34.8427 28.8323 34.6711 28.8323 34.4841V30.5662C28.8323 28.3612 27.1997 26.5303 25.0791 26.2195C24.7205 24.1636 22.995 22.6477 20.8561 22.6477H20.5636V11.167H68.2031V50.4338H30.6647ZM44.3841 16.6303C39.4552 16.6303 35.4459 20.6395 35.4459 25.5684C35.4459 28.118 36.5386 30.5522 38.4455 32.2481C39.022 32.7614 39.3145 33.4125 39.3145 34.1831V35.3658C39.3145 36.0028 39.7069 36.5498 40.2609 36.7805V38.3709C39.8827 38.4539 39.5986 38.7914 39.5986 39.195C39.5986 39.5986 39.8827 39.9361 40.2609 40.0191V40.853C40.2609 41.0034 40.3017 41.1511 40.3777 41.2819L41.4886 43.1662C41.767 43.6387 42.2592 43.92 42.8077 43.92H46.2698C46.8169 43.92 47.3105 43.6387 47.5889 43.1662L48.6998 41.2819C48.7758 41.1525 48.8166 41.0048 48.8166 40.853V40.0191C49.1948 39.9361 49.4789 39.5986 49.4789 39.195C49.4789 38.7914 49.1948 38.4539 48.8166 38.3709V36.6061C49.2019 36.3277 49.4536 35.8763 49.4536 35.3658V34.1831C49.4536 33.4125 49.7461 32.7614 50.3227 32.2481C52.2295 30.5522 53.3222 28.118 53.3222 25.5684C53.3208 20.6395 49.3116 16.6303 44.3841 16.6303ZM42.293 26.3897H41.5884C41.2003 26.3897 40.8839 26.0733 40.8839 25.6852C40.8839 25.297 41.2003 24.9806 41.5884 24.9806C41.9766 24.9806 42.293 25.297 42.293 25.6852V26.3897ZM47.1277 36.8958V38.3498H41.9484V36.8958H47.1277ZM46.1798 42.2311H42.8977L41.9498 40.6223V40.0387H47.1291V40.6223L46.1798 42.2311ZM49.2005 30.9867C48.2625 31.822 47.7661 32.9273 47.7661 34.1831V35.2097H46.4752V28.0786H47.1797C48.4987 28.0786 49.5717 27.0056 49.5717 25.6866C49.5717 24.3675 48.4987 23.2945 47.1797 23.2945C45.8606 23.2945 44.7877 24.3675 44.7877 25.6866V27.2348V35.2097H43.9819V27.2348V25.6866C43.9819 24.3675 42.9089 23.2945 41.5898 23.2945C40.2708 23.2945 39.1978 24.3675 39.1978 25.6866C39.1978 27.0056 40.2708 28.0786 41.5898 28.0786H42.2944V35.2097H41.0034V34.1831C41.0034 32.9273 40.507 31.822 39.5691 30.9867C38.0222 29.6114 37.1348 27.6356 37.1348 25.5684C37.1348 21.5705 40.3875 18.3178 44.3855 18.3178C48.3834 18.3178 51.6361 21.5705 51.6361 25.5684C51.6333 27.6356 50.7473 29.61 49.2005 30.9867ZM46.4738 26.3897V25.6852C46.4738 25.297 46.7902 24.9806 47.1783 24.9806C47.5664 24.9806 47.8828 25.297 47.8828 25.6852C47.8828 26.0733 47.5664 26.3897 47.1783 26.3897H46.4738ZM43.5403 15.3998V13.3383C43.5403 12.8728 43.9186 12.4945 44.3841 12.4945C44.8495 12.4945 45.2278 12.8728 45.2278 13.3383V15.3998C45.2278 15.8653 44.8495 16.2436 44.3841 16.2436C43.9186 16.2436 43.5403 15.8653 43.5403 15.3998ZM48.7364 16.3392L49.7672 14.5547C50.0006 14.1511 50.5167 14.0133 50.9203 14.2453C51.3239 14.4788 51.4617 14.9948 51.2297 15.3984L50.1989 17.183C50.0428 17.453 49.7587 17.6048 49.4677 17.6048C49.3242 17.6048 49.1794 17.5683 49.0472 17.4923C48.6422 17.2589 48.5044 16.7428 48.7364 16.3392ZM52.4588 20.9053C52.2253 20.5017 52.3645 19.9856 52.7681 19.7522L54.5527 18.7214C54.9562 18.488 55.4723 18.6272 55.7058 19.0308C55.9392 19.4344 55.8 19.9505 55.3964 20.1839L53.6119 21.2147C53.4797 21.292 53.3334 21.3272 53.1914 21.3272C52.8989 21.3272 52.6148 21.1753 52.4588 20.9053ZM54.5513 24.7233H56.6128C57.0783 24.7233 57.4566 25.1016 57.4566 25.567C57.4566 26.0325 57.0783 26.4108 56.6128 26.4108H54.5513C54.0858 26.4108 53.7075 26.0325 53.7075 25.567C53.7075 25.1016 54.0858 24.7233 54.5513 24.7233ZM54.5527 32.4127L52.7681 31.3819C52.3645 31.1484 52.2267 30.6323 52.4588 30.2288C52.6922 29.8252 53.2083 29.6873 53.6119 29.9194L55.3964 30.9502C55.8 31.1836 55.9378 31.6997 55.7058 32.1033C55.5497 32.3733 55.2656 32.5252 54.9745 32.5252C54.8311 32.5266 54.6848 32.49 54.5527 32.4127ZM37.5384 15.3984C37.305 14.9948 37.4442 14.4788 37.8478 14.2453C38.2514 14.0119 38.7675 14.1511 39.0009 14.5547L40.0317 16.3392C40.2652 16.7428 40.1259 17.2589 39.7223 17.4923C39.5902 17.5697 39.4439 17.6048 39.3019 17.6048C39.0108 17.6048 38.7267 17.453 38.5706 17.183L37.5384 15.3984ZM33.0623 19.0308C33.2958 18.6272 33.8119 18.4894 34.2155 18.7214L36 19.7522C36.4036 19.9856 36.5414 20.5017 36.3094 20.9053C36.1533 21.1753 35.8692 21.3272 35.5781 21.3272C35.4347 21.3272 35.2898 21.2906 35.1577 21.2147L33.3731 20.1839C32.9667 19.9505 32.8289 19.4344 33.0623 19.0308ZM34.2155 26.4108H32.1539C31.6884 26.4108 31.3102 26.0325 31.3102 25.567C31.3102 25.1016 31.6884 24.7233 32.1539 24.7233H34.2155C34.6809 24.7233 35.0592 25.1016 35.0592 25.567C35.0592 26.0325 34.6809 26.4108 34.2155 26.4108ZM36.308 30.2302C36.5414 30.6338 36.4022 31.1498 35.9986 31.3833L34.2141 32.4141C34.0819 32.4914 33.9356 32.5266 33.7936 32.5266C33.5025 32.5266 33.2184 32.3747 33.0623 32.1047C32.8289 31.7011 32.9681 31.185 33.3717 30.9516L35.1562 29.9208C35.5584 29.6873 36.0745 29.8266 36.308 30.2302ZM65.8561 39.0727C65.8561 39.5381 65.4778 39.9164 65.0123 39.9164H55.3739C54.9084 39.9164 54.5302 39.5381 54.5302 39.0727C54.5302 38.6072 54.9084 38.2289 55.3739 38.2289H65.0123C65.4778 38.2289 65.8561 38.6058 65.8561 39.0727ZM65.8561 43.065C65.8561 43.5305 65.4778 43.9087 65.0123 43.9087H55.3739C54.9084 43.9087 54.5302 43.5305 54.5302 43.065C54.5302 42.5995 54.9084 42.2212 55.3739 42.2212H65.0123C65.4778 42.2212 65.8561 42.5995 65.8561 43.065ZM65.8561 47.0588C65.8561 47.5242 65.4778 47.9025 65.0123 47.9025H55.3739C54.9084 47.9025 54.5302 47.5242 54.5302 47.0588C54.5302 46.5933 54.9084 46.215 55.3739 46.215H65.0123C65.4778 46.215 65.8561 46.5919 65.8561 47.0588Z"/>
</mask>
<path d="M67.0092 2.10938H21.7589C20.1698 2.10938 18.8761 3.40172 18.8761 4.99078V22.6477H12.2048C11.7394 22.6477 11.3611 23.0259 11.3611 23.4914V26.7019C9.68203 27.5414 8.58797 29.2669 8.58797 31.1737V34.4827C8.58797 34.6683 8.64844 34.8398 8.75109 34.9805C8.39672 35.4881 8.18859 36.1041 8.18859 36.7678C8.18859 38.4933 9.59203 39.8953 11.3161 39.8953H11.4961V40.5169C11.4961 42.5798 12.368 44.4431 13.7616 45.7594V47.8097L7.15359 50.2636C4.08937 51.4012 2.10938 54.2489 2.10938 57.5184V69.0469C2.10938 69.5123 2.48766 69.8906 2.95312 69.8906H34.4686C34.9341 69.8906 35.3123 69.5123 35.3123 69.0469V57.5269C35.3123 55.4414 34.5066 53.5289 33.1284 52.1213H69.0469C69.5123 52.1213 69.8906 51.743 69.8906 51.2775V4.99078C69.8906 3.40172 68.5983 2.10938 67.0092 2.10938ZM21.7589 3.79688H67.0092C67.6673 3.79688 68.2031 4.33266 68.2031 4.99078V9.47813H20.5636V4.99078C20.5636 4.33266 21.0994 3.79688 21.7589 3.79688ZM13.0486 24.3366H20.8547C22.3144 24.3366 23.4577 25.515 23.4577 27.0183C23.4577 27.4838 23.8359 27.862 24.3014 27.862H24.4378C25.9298 27.862 27.1434 29.0756 27.1434 30.5677V33.6417H26.1028H25.7766C25.4278 32.6545 24.487 31.9444 23.3817 31.9444H17.8819C15.2156 31.9444 13.0472 29.7759 13.0472 27.1097V24.3366H13.0486ZM27.5442 36.7678C27.5442 37.5623 26.8973 38.2078 26.1042 38.2078H25.9242V35.3264H26.1042C26.8988 35.3278 27.5442 35.9733 27.5442 36.7678ZM10.2769 31.1752C10.2769 30.1486 10.7564 29.2022 11.5327 28.5834C11.8434 29.9236 12.5677 31.1048 13.5647 31.988C12.6703 32.1581 11.9419 32.798 11.6452 33.6389H11.3189H10.2783V31.1752H10.2769ZM11.3175 38.2092C10.523 38.2092 9.8775 37.5623 9.8775 36.7692C9.8775 35.9761 10.5244 35.3292 11.3175 35.3292H11.4975V38.2106H11.3175V38.2092ZM13.185 40.5183V34.4841C13.185 34.013 13.5675 33.6305 14.0386 33.6305H23.3831C23.8542 33.6305 24.2367 34.013 24.2367 34.4841V40.5183C24.2367 43.5656 21.7575 46.0448 18.7102 46.0448C15.6628 46.0448 13.185 43.5656 13.185 40.5183ZM14.4267 49.3636L17.3981 51.9834L14.1652 53.8622L12.7294 49.9936L14.4267 49.3636ZM18.8339 53.1L20.0152 53.7863L20.6494 68.2031H16.7723L17.4009 53.9339L18.8339 53.1ZM20.2697 51.9834L23.1511 49.4423L24.9033 50.0892L23.5027 53.8622L20.2697 51.9834ZM18.7102 47.7323C19.9828 47.7323 21.1781 47.4005 22.2173 46.8197V48.0164L18.8339 51.0005L15.4505 48.0164V46.9491C16.4306 47.4483 17.5373 47.7323 18.7102 47.7323ZM3.79688 57.5184C3.79688 54.9225 5.30859 52.7498 7.74141 51.8456L11.1459 50.5814L12.9305 55.3894C13.0177 55.6228 13.2019 55.8056 13.4367 55.89C13.5295 55.9238 13.6252 55.9392 13.7222 55.9392C13.8698 55.9392 14.0161 55.9013 14.1469 55.8253L15.6684 54.9408L15.0834 68.2031H8.75812V60.6037C8.75812 60.1383 8.37984 59.76 7.91437 59.76C7.44891 59.76 7.07062 60.1383 7.07062 60.6037V68.2031H3.79688V57.5184ZM33.6248 68.2031H30.3511V60.6037C30.3511 60.1383 29.9728 59.76 29.5073 59.76C29.0419 59.76 28.6636 60.1383 28.6636 60.6037V68.2031H22.3397L21.7491 54.7945L23.5223 55.8253C23.6531 55.9013 23.7994 55.9392 23.947 55.9392C24.0427 55.9392 24.1397 55.9223 24.2325 55.89C24.4673 55.8056 24.6516 55.6228 24.7388 55.3894L26.4895 50.6742L29.6733 51.8498C32.1117 52.7512 33.6277 54.9253 33.6277 57.5255V68.2031H33.6248ZM30.6647 50.4338C30.5297 50.3761 30.3947 50.3198 30.2555 50.2678L23.9048 47.9222V45.5161C25.1536 44.2181 25.9242 42.4575 25.9242 40.5183V39.8967H26.1042C27.8297 39.8967 29.2317 38.4933 29.2317 36.7692C29.2317 36.1055 29.0236 35.4895 28.6692 34.9819C28.7719 34.8427 28.8323 34.6711 28.8323 34.4841V30.5662C28.8323 28.3612 27.1997 26.5303 25.0791 26.2195C24.7205 24.1636 22.995 22.6477 20.8561 22.6477H20.5636V11.167H68.2031V50.4338H30.6647ZM44.3841 16.6303C39.4552 16.6303 35.4459 20.6395 35.4459 25.5684C35.4459 28.118 36.5386 30.5522 38.4455 32.2481C39.022 32.7614 39.3145 33.4125 39.3145 34.1831V35.3658C39.3145 36.0028 39.7069 36.5498 40.2609 36.7805V38.3709C39.8827 38.4539 39.5986 38.7914 39.5986 39.195C39.5986 39.5986 39.8827 39.9361 40.2609 40.0191V40.853C40.2609 41.0034 40.3017 41.1511 40.3777 41.2819L41.4886 43.1662C41.767 43.6387 42.2592 43.92 42.8077 43.92H46.2698C46.8169 43.92 47.3105 43.6387 47.5889 43.1662L48.6998 41.2819C48.7758 41.1525 48.8166 41.0048 48.8166 40.853V40.0191C49.1948 39.9361 49.4789 39.5986 49.4789 39.195C49.4789 38.7914 49.1948 38.4539 48.8166 38.3709V36.6061C49.2019 36.3277 49.4536 35.8763 49.4536 35.3658V34.1831C49.4536 33.4125 49.7461 32.7614 50.3227 32.2481C52.2295 30.5522 53.3222 28.118 53.3222 25.5684C53.3208 20.6395 49.3116 16.6303 44.3841 16.6303ZM42.293 26.3897H41.5884C41.2003 26.3897 40.8839 26.0733 40.8839 25.6852C40.8839 25.297 41.2003 24.9806 41.5884 24.9806C41.9766 24.9806 42.293 25.297 42.293 25.6852V26.3897ZM47.1277 36.8958V38.3498H41.9484V36.8958H47.1277ZM46.1798 42.2311H42.8977L41.9498 40.6223V40.0387H47.1291V40.6223L46.1798 42.2311ZM49.2005 30.9867C48.2625 31.822 47.7661 32.9273 47.7661 34.1831V35.2097H46.4752V28.0786H47.1797C48.4987 28.0786 49.5717 27.0056 49.5717 25.6866C49.5717 24.3675 48.4987 23.2945 47.1797 23.2945C45.8606 23.2945 44.7877 24.3675 44.7877 25.6866V27.2348V35.2097H43.9819V27.2348V25.6866C43.9819 24.3675 42.9089 23.2945 41.5898 23.2945C40.2708 23.2945 39.1978 24.3675 39.1978 25.6866C39.1978 27.0056 40.2708 28.0786 41.5898 28.0786H42.2944V35.2097H41.0034V34.1831C41.0034 32.9273 40.507 31.822 39.5691 30.9867C38.0222 29.6114 37.1348 27.6356 37.1348 25.5684C37.1348 21.5705 40.3875 18.3178 44.3855 18.3178C48.3834 18.3178 51.6361 21.5705 51.6361 25.5684C51.6333 27.6356 50.7473 29.61 49.2005 30.9867ZM46.4738 26.3897V25.6852C46.4738 25.297 46.7902 24.9806 47.1783 24.9806C47.5664 24.9806 47.8828 25.297 47.8828 25.6852C47.8828 26.0733 47.5664 26.3897 47.1783 26.3897H46.4738ZM43.5403 15.3998V13.3383C43.5403 12.8728 43.9186 12.4945 44.3841 12.4945C44.8495 12.4945 45.2278 12.8728 45.2278 13.3383V15.3998C45.2278 15.8653 44.8495 16.2436 44.3841 16.2436C43.9186 16.2436 43.5403 15.8653 43.5403 15.3998ZM48.7364 16.3392L49.7672 14.5547C50.0006 14.1511 50.5167 14.0133 50.9203 14.2453C51.3239 14.4788 51.4617 14.9948 51.2297 15.3984L50.1989 17.183C50.0428 17.453 49.7587 17.6048 49.4677 17.6048C49.3242 17.6048 49.1794 17.5683 49.0472 17.4923C48.6422 17.2589 48.5044 16.7428 48.7364 16.3392ZM52.4588 20.9053C52.2253 20.5017 52.3645 19.9856 52.7681 19.7522L54.5527 18.7214C54.9562 18.488 55.4723 18.6272 55.7058 19.0308C55.9392 19.4344 55.8 19.9505 55.3964 20.1839L53.6119 21.2147C53.4797 21.292 53.3334 21.3272 53.1914 21.3272C52.8989 21.3272 52.6148 21.1753 52.4588 20.9053ZM54.5513 24.7233H56.6128C57.0783 24.7233 57.4566 25.1016 57.4566 25.567C57.4566 26.0325 57.0783 26.4108 56.6128 26.4108H54.5513C54.0858 26.4108 53.7075 26.0325 53.7075 25.567C53.7075 25.1016 54.0858 24.7233 54.5513 24.7233ZM54.5527 32.4127L52.7681 31.3819C52.3645 31.1484 52.2267 30.6323 52.4588 30.2288C52.6922 29.8252 53.2083 29.6873 53.6119 29.9194L55.3964 30.9502C55.8 31.1836 55.9378 31.6997 55.7058 32.1033C55.5497 32.3733 55.2656 32.5252 54.9745 32.5252C54.8311 32.5266 54.6848 32.49 54.5527 32.4127ZM37.5384 15.3984C37.305 14.9948 37.4442 14.4788 37.8478 14.2453C38.2514 14.0119 38.7675 14.1511 39.0009 14.5547L40.0317 16.3392C40.2652 16.7428 40.1259 17.2589 39.7223 17.4923C39.5902 17.5697 39.4439 17.6048 39.3019 17.6048C39.0108 17.6048 38.7267 17.453 38.5706 17.183L37.5384 15.3984ZM33.0623 19.0308C33.2958 18.6272 33.8119 18.4894 34.2155 18.7214L36 19.7522C36.4036 19.9856 36.5414 20.5017 36.3094 20.9053C36.1533 21.1753 35.8692 21.3272 35.5781 21.3272C35.4347 21.3272 35.2898 21.2906 35.1577 21.2147L33.3731 20.1839C32.9667 19.9505 32.8289 19.4344 33.0623 19.0308ZM34.2155 26.4108H32.1539C31.6884 26.4108 31.3102 26.0325 31.3102 25.567C31.3102 25.1016 31.6884 24.7233 32.1539 24.7233H34.2155C34.6809 24.7233 35.0592 25.1016 35.0592 25.567C35.0592 26.0325 34.6809 26.4108 34.2155 26.4108ZM36.308 30.2302C36.5414 30.6338 36.4022 31.1498 35.9986 31.3833L34.2141 32.4141C34.0819 32.4914 33.9356 32.5266 33.7936 32.5266C33.5025 32.5266 33.2184 32.3747 33.0623 32.1047C32.8289 31.7011 32.9681 31.185 33.3717 30.9516L35.1562 29.9208C35.5584 29.6873 36.0745 29.8266 36.308 30.2302ZM65.8561 39.0727C65.8561 39.5381 65.4778 39.9164 65.0123 39.9164H55.3739C54.9084 39.9164 54.5302 39.5381 54.5302 39.0727C54.5302 38.6072 54.9084 38.2289 55.3739 38.2289H65.0123C65.4778 38.2289 65.8561 38.6058 65.8561 39.0727ZM65.8561 43.065C65.8561 43.5305 65.4778 43.9087 65.0123 43.9087H55.3739C54.9084 43.9087 54.5302 43.5305 54.5302 43.065C54.5302 42.5995 54.9084 42.2212 55.3739 42.2212H65.0123C65.4778 42.2212 65.8561 42.5995 65.8561 43.065ZM65.8561 47.0588C65.8561 47.5242 65.4778 47.9025 65.0123 47.9025H55.3739C54.9084 47.9025 54.5302 47.5242 54.5302 47.0588C54.5302 46.5933 54.9084 46.215 55.3739 46.215H65.0123C65.4778 46.215 65.8561 46.5919 65.8561 47.0588Z" fill="#CFA935"/>
<path d="M67.0092 2.10938H21.7589C20.1698 2.10938 18.8761 3.40172 18.8761 4.99078V22.6477H12.2048C11.7394 22.6477 11.3611 23.0259 11.3611 23.4914V26.7019C9.68203 27.5414 8.58797 29.2669 8.58797 31.1737V34.4827C8.58797 34.6683 8.64844 34.8398 8.75109 34.9805C8.39672 35.4881 8.18859 36.1041 8.18859 36.7678C8.18859 38.4933 9.59203 39.8953 11.3161 39.8953H11.4961V40.5169C11.4961 42.5798 12.368 44.4431 13.7616 45.7594V47.8097L7.15359 50.2636C4.08937 51.4012 2.10938 54.2489 2.10938 57.5184V69.0469C2.10938 69.5123 2.48766 69.8906 2.95312 69.8906H34.4686C34.9341 69.8906 35.3123 69.5123 35.3123 69.0469V57.5269C35.3123 55.4414 34.5066 53.5289 33.1284 52.1213H69.0469C69.5123 52.1213 69.8906 51.743 69.8906 51.2775V4.99078C69.8906 3.40172 68.5983 2.10938 67.0092 2.10938ZM21.7589 3.79688H67.0092C67.6673 3.79688 68.2031 4.33266 68.2031 4.99078V9.47813H20.5636V4.99078C20.5636 4.33266 21.0994 3.79688 21.7589 3.79688ZM13.0486 24.3366H20.8547C22.3144 24.3366 23.4577 25.515 23.4577 27.0183C23.4577 27.4838 23.8359 27.862 24.3014 27.862H24.4378C25.9298 27.862 27.1434 29.0756 27.1434 30.5677V33.6417H26.1028H25.7766C25.4278 32.6545 24.487 31.9444 23.3817 31.9444H17.8819C15.2156 31.9444 13.0472 29.7759 13.0472 27.1097V24.3366H13.0486ZM27.5442 36.7678C27.5442 37.5623 26.8973 38.2078 26.1042 38.2078H25.9242V35.3264H26.1042C26.8988 35.3278 27.5442 35.9733 27.5442 36.7678ZM10.2769 31.1752C10.2769 30.1486 10.7564 29.2022 11.5327 28.5834C11.8434 29.9236 12.5677 31.1048 13.5647 31.988C12.6703 32.1581 11.9419 32.798 11.6452 33.6389H11.3189H10.2783V31.1752H10.2769ZM11.3175 38.2092C10.523 38.2092 9.8775 37.5623 9.8775 36.7692C9.8775 35.9761 10.5244 35.3292 11.3175 35.3292H11.4975V38.2106H11.3175V38.2092ZM13.185 40.5183V34.4841C13.185 34.013 13.5675 33.6305 14.0386 33.6305H23.3831C23.8542 33.6305 24.2367 34.013 24.2367 34.4841V40.5183C24.2367 43.5656 21.7575 46.0448 18.7102 46.0448C15.6628 46.0448 13.185 43.5656 13.185 40.5183ZM14.4267 49.3636L17.3981 51.9834L14.1652 53.8622L12.7294 49.9936L14.4267 49.3636ZM18.8339 53.1L20.0152 53.7863L20.6494 68.2031H16.7723L17.4009 53.9339L18.8339 53.1ZM20.2697 51.9834L23.1511 49.4423L24.9033 50.0892L23.5027 53.8622L20.2697 51.9834ZM18.7102 47.7323C19.9828 47.7323 21.1781 47.4005 22.2173 46.8197V48.0164L18.8339 51.0005L15.4505 48.0164V46.9491C16.4306 47.4483 17.5373 47.7323 18.7102 47.7323ZM3.79688 57.5184C3.79688 54.9225 5.30859 52.7498 7.74141 51.8456L11.1459 50.5814L12.9305 55.3894C13.0177 55.6228 13.2019 55.8056 13.4367 55.89C13.5295 55.9238 13.6252 55.9392 13.7222 55.9392C13.8698 55.9392 14.0161 55.9013 14.1469 55.8253L15.6684 54.9408L15.0834 68.2031H8.75812V60.6037C8.75812 60.1383 8.37984 59.76 7.91437 59.76C7.44891 59.76 7.07062 60.1383 7.07062 60.6037V68.2031H3.79688V57.5184ZM33.6248 68.2031H30.3511V60.6037C30.3511 60.1383 29.9728 59.76 29.5073 59.76C29.0419 59.76 28.6636 60.1383 28.6636 60.6037V68.2031H22.3397L21.7491 54.7945L23.5223 55.8253C23.6531 55.9013 23.7994 55.9392 23.947 55.9392C24.0427 55.9392 24.1397 55.9223 24.2325 55.89C24.4673 55.8056 24.6516 55.6228 24.7388 55.3894L26.4895 50.6742L29.6733 51.8498C32.1117 52.7512 33.6277 54.9253 33.6277 57.5255V68.2031H33.6248ZM30.6647 50.4338C30.5297 50.3761 30.3947 50.3198 30.2555 50.2678L23.9048 47.9222V45.5161C25.1536 44.2181 25.9242 42.4575 25.9242 40.5183V39.8967H26.1042C27.8297 39.8967 29.2317 38.4933 29.2317 36.7692C29.2317 36.1055 29.0236 35.4895 28.6692 34.9819C28.7719 34.8427 28.8323 34.6711 28.8323 34.4841V30.5662C28.8323 28.3612 27.1997 26.5303 25.0791 26.2195C24.7205 24.1636 22.995 22.6477 20.8561 22.6477H20.5636V11.167H68.2031V50.4338H30.6647ZM44.3841 16.6303C39.4552 16.6303 35.4459 20.6395 35.4459 25.5684C35.4459 28.118 36.5386 30.5522 38.4455 32.2481C39.022 32.7614 39.3145 33.4125 39.3145 34.1831V35.3658C39.3145 36.0028 39.7069 36.5498 40.2609 36.7805V38.3709C39.8827 38.4539 39.5986 38.7914 39.5986 39.195C39.5986 39.5986 39.8827 39.9361 40.2609 40.0191V40.853C40.2609 41.0034 40.3017 41.1511 40.3777 41.2819L41.4886 43.1662C41.767 43.6387 42.2592 43.92 42.8077 43.92H46.2698C46.8169 43.92 47.3105 43.6387 47.5889 43.1662L48.6998 41.2819C48.7758 41.1525 48.8166 41.0048 48.8166 40.853V40.0191C49.1948 39.9361 49.4789 39.5986 49.4789 39.195C49.4789 38.7914 49.1948 38.4539 48.8166 38.3709V36.6061C49.2019 36.3277 49.4536 35.8763 49.4536 35.3658V34.1831C49.4536 33.4125 49.7461 32.7614 50.3227 32.2481C52.2295 30.5522 53.3222 28.118 53.3222 25.5684C53.3208 20.6395 49.3116 16.6303 44.3841 16.6303ZM42.293 26.3897H41.5884C41.2003 26.3897 40.8839 26.0733 40.8839 25.6852C40.8839 25.297 41.2003 24.9806 41.5884 24.9806C41.9766 24.9806 42.293 25.297 42.293 25.6852V26.3897ZM47.1277 36.8958V38.3498H41.9484V36.8958H47.1277ZM46.1798 42.2311H42.8977L41.9498 40.6223V40.0387H47.1291V40.6223L46.1798 42.2311ZM49.2005 30.9867C48.2625 31.822 47.7661 32.9273 47.7661 34.1831V35.2097H46.4752V28.0786H47.1797C48.4987 28.0786 49.5717 27.0056 49.5717 25.6866C49.5717 24.3675 48.4987 23.2945 47.1797 23.2945C45.8606 23.2945 44.7877 24.3675 44.7877 25.6866V27.2348V35.2097H43.9819V27.2348V25.6866C43.9819 24.3675 42.9089 23.2945 41.5898 23.2945C40.2708 23.2945 39.1978 24.3675 39.1978 25.6866C39.1978 27.0056 40.2708 28.0786 41.5898 28.0786H42.2944V35.2097H41.0034V34.1831C41.0034 32.9273 40.507 31.822 39.5691 30.9867C38.0222 29.6114 37.1348 27.6356 37.1348 25.5684C37.1348 21.5705 40.3875 18.3178 44.3855 18.3178C48.3834 18.3178 51.6361 21.5705 51.6361 25.5684C51.6333 27.6356 50.7473 29.61 49.2005 30.9867ZM46.4738 26.3897V25.6852C46.4738 25.297 46.7902 24.9806 47.1783 24.9806C47.5664 24.9806 47.8828 25.297 47.8828 25.6852C47.8828 26.0733 47.5664 26.3897 47.1783 26.3897H46.4738ZM43.5403 15.3998V13.3383C43.5403 12.8728 43.9186 12.4945 44.3841 12.4945C44.8495 12.4945 45.2278 12.8728 45.2278 13.3383V15.3998C45.2278 15.8653 44.8495 16.2436 44.3841 16.2436C43.9186 16.2436 43.5403 15.8653 43.5403 15.3998ZM48.7364 16.3392L49.7672 14.5547C50.0006 14.1511 50.5167 14.0133 50.9203 14.2453C51.3239 14.4788 51.4617 14.9948 51.2297 15.3984L50.1989 17.183C50.0428 17.453 49.7587 17.6048 49.4677 17.6048C49.3242 17.6048 49.1794 17.5683 49.0472 17.4923C48.6422 17.2589 48.5044 16.7428 48.7364 16.3392ZM52.4588 20.9053C52.2253 20.5017 52.3645 19.9856 52.7681 19.7522L54.5527 18.7214C54.9562 18.488 55.4723 18.6272 55.7058 19.0308C55.9392 19.4344 55.8 19.9505 55.3964 20.1839L53.6119 21.2147C53.4797 21.292 53.3334 21.3272 53.1914 21.3272C52.8989 21.3272 52.6148 21.1753 52.4588 20.9053ZM54.5513 24.7233H56.6128C57.0783 24.7233 57.4566 25.1016 57.4566 25.567C57.4566 26.0325 57.0783 26.4108 56.6128 26.4108H54.5513C54.0858 26.4108 53.7075 26.0325 53.7075 25.567C53.7075 25.1016 54.0858 24.7233 54.5513 24.7233ZM54.5527 32.4127L52.7681 31.3819C52.3645 31.1484 52.2267 30.6323 52.4588 30.2288C52.6922 29.8252 53.2083 29.6873 53.6119 29.9194L55.3964 30.9502C55.8 31.1836 55.9378 31.6997 55.7058 32.1033C55.5497 32.3733 55.2656 32.5252 54.9745 32.5252C54.8311 32.5266 54.6848 32.49 54.5527 32.4127ZM37.5384 15.3984C37.305 14.9948 37.4442 14.4788 37.8478 14.2453C38.2514 14.0119 38.7675 14.1511 39.0009 14.5547L40.0317 16.3392C40.2652 16.7428 40.1259 17.2589 39.7223 17.4923C39.5902 17.5697 39.4439 17.6048 39.3019 17.6048C39.0108 17.6048 38.7267 17.453 38.5706 17.183L37.5384 15.3984ZM33.0623 19.0308C33.2958 18.6272 33.8119 18.4894 34.2155 18.7214L36 19.7522C36.4036 19.9856 36.5414 20.5017 36.3094 20.9053C36.1533 21.1753 35.8692 21.3272 35.5781 21.3272C35.4347 21.3272 35.2898 21.2906 35.1577 21.2147L33.3731 20.1839C32.9667 19.9505 32.8289 19.4344 33.0623 19.0308ZM34.2155 26.4108H32.1539C31.6884 26.4108 31.3102 26.0325 31.3102 25.567C31.3102 25.1016 31.6884 24.7233 32.1539 24.7233H34.2155C34.6809 24.7233 35.0592 25.1016 35.0592 25.567C35.0592 26.0325 34.6809 26.4108 34.2155 26.4108ZM36.308 30.2302C36.5414 30.6338 36.4022 31.1498 35.9986 31.3833L34.2141 32.4141C34.0819 32.4914 33.9356 32.5266 33.7936 32.5266C33.5025 32.5266 33.2184 32.3747 33.0623 32.1047C32.8289 31.7011 32.9681 31.185 33.3717 30.9516L35.1562 29.9208C35.5584 29.6873 36.0745 29.8266 36.308 30.2302ZM65.8561 39.0727C65.8561 39.5381 65.4778 39.9164 65.0123 39.9164H55.3739C54.9084 39.9164 54.5302 39.5381 54.5302 39.0727C54.5302 38.6072 54.9084 38.2289 55.3739 38.2289H65.0123C65.4778 38.2289 65.8561 38.6058 65.8561 39.0727ZM65.8561 43.065C65.8561 43.5305 65.4778 43.9087 65.0123 43.9087H55.3739C54.9084 43.9087 54.5302 43.5305 54.5302 43.065C54.5302 42.5995 54.9084 42.2212 55.3739 42.2212H65.0123C65.4778 42.2212 65.8561 42.5995 65.8561 43.065ZM65.8561 47.0588C65.8561 47.5242 65.4778 47.9025 65.0123 47.9025H55.3739C54.9084 47.9025 54.5302 47.5242 54.5302 47.0588C54.5302 46.5933 54.9084 46.215 55.3739 46.215H65.0123C65.4778 46.215 65.8561 46.5919 65.8561 47.0588Z" stroke="#CFA935" stroke-width="0.4" mask="url(#path-1-outside-1_25818_34337)"/>
</svg>
