<svg width="72" height="72" viewBox="0 0 72 72" fill="none" xmlns="http://www.w3.org/2000/svg">
<path d="M67.2454 37.5231H50.7487C50.5209 34.0693 49.0921 30.6817 46.4582 28.0492C43.664 25.255 39.9501 23.7165 35.9999 23.7165C32.0498 23.7165 28.3359 25.255 25.5445 28.0492C22.9823 30.6086 21.4776 33.9428 21.2441 37.5245H4.75445C4.21164 37.5245 3.77148 37.9646 3.77148 38.5075V41.0823C3.77148 42.7614 5.02727 44.0917 7.04805 44.5515L12.1063 45.7018C12.5845 47.2909 13.2243 48.8364 14.0174 50.3087L11.2541 54.699C10.1474 56.4512 10.1995 58.2793 11.3905 59.4704L15.0341 63.114C16.2238 64.3023 18.052 64.3557 19.8084 63.2504L24.2001 60.4857C25.6724 61.2775 27.2151 61.9187 28.8041 62.3968L29.9545 67.4565C30.4143 69.4773 31.7446 70.7317 33.4237 70.7317H38.5776C40.2637 70.7317 41.5926 69.4759 42.0468 67.4551L43.1971 62.3968C44.7918 61.9173 46.3373 61.2775 47.8054 60.4886L52.1957 63.249C53.9479 64.3557 55.776 64.3037 56.9671 63.1126L60.6093 59.4704C61.8032 58.2822 61.8552 56.4526 60.7471 54.699L57.9838 50.3073C58.7755 48.8378 59.4168 47.2923 59.8949 45.699L64.9532 44.5487C66.974 44.0889 68.2284 42.7586 68.2284 41.0795V38.5047C68.2284 37.9632 67.7882 37.5231 67.2454 37.5231ZM26.9352 29.4371C29.3568 27.0142 32.5757 25.6796 36.0013 25.6796C39.427 25.6796 42.6473 27.0142 45.0702 29.4371C50.068 34.435 50.068 42.5701 45.0702 47.5722C40.0682 52.5686 31.933 52.5686 26.9352 47.5722C24.5123 45.1492 23.1777 41.9289 23.1777 38.5032C23.1777 35.079 24.5109 31.8587 26.9352 29.4371ZM66.2638 41.0809C66.2638 42.1243 65.0418 42.5139 64.5173 42.6334L58.8923 43.9131C58.5393 43.9932 58.258 44.2618 58.1624 44.612C57.6618 46.4387 56.9305 48.2021 55.9884 49.8545C55.8084 50.1695 55.8168 50.5576 56.0109 50.8642L59.0849 55.7481C59.3732 56.2037 59.9624 57.3428 59.2213 58.0811L55.5777 61.7246C54.838 62.4643 53.7004 61.8765 53.2434 61.5882L48.3609 58.5184C48.0543 58.3257 47.6662 58.3173 47.3526 58.4959C45.703 59.4339 43.9396 60.1651 42.1101 60.6672C41.7599 60.7628 41.4927 61.044 41.4112 61.397L40.1315 67.0234C40.0134 67.5479 39.6266 68.7672 38.579 68.7672H33.4251C32.3816 68.7672 31.9921 67.5451 31.8726 67.0206L30.5929 61.3956C30.5127 61.0426 30.2441 60.7614 29.8954 60.6657C28.0757 60.1665 26.3137 59.4339 24.6557 58.4917C24.3407 58.3131 23.9526 58.3215 23.646 58.5142L18.7635 61.5882C18.3065 61.8751 17.1646 62.4629 16.4263 61.7246L12.7827 58.0811C12.043 57.3414 12.6323 56.2037 12.9191 55.7481L15.9932 50.8656C16.1859 50.559 16.1943 50.1709 16.0157 49.8559C15.0721 48.1979 14.3409 46.4345 13.8416 44.6134C13.746 44.2632 13.4648 43.9961 13.1118 43.9145L7.4868 42.6348C6.96227 42.5153 5.74023 42.1243 5.74023 41.0809V39.4876H21.2484C21.4818 43.0679 22.9879 46.4007 25.5487 48.9615C28.4315 51.8443 32.2171 53.2843 36.0041 53.2843C39.7912 53.2843 43.5782 51.8429 46.4624 48.9615C49.0949 46.3276 50.5237 42.94 50.7515 39.4876H66.2666V41.0809H66.2638ZM38.6549 41.6321C38.6549 41.0879 38.399 40.5662 37.9321 40.1626C37.288 39.61 36.6805 39.5537 35.9099 39.482C35.0184 39.399 33.9088 39.295 32.788 38.3345C31.881 37.554 31.3804 36.505 31.3804 35.3786C31.3804 34.2521 31.8796 33.2031 32.7866 32.4226C33.4321 31.87 34.207 31.5156 35.0198 31.3581V29.4414C35.0198 28.8986 35.4599 28.4584 36.0027 28.4584C36.5455 28.4584 36.9857 28.8986 36.9857 29.4414V31.3581C37.7971 31.5156 38.5719 31.87 39.2146 32.4226C40.1216 33.2017 40.6209 34.2507 40.6209 35.3757C40.6209 35.9186 40.1807 36.3587 39.6379 36.3587C39.0951 36.3587 38.6549 35.9186 38.6549 35.3757C38.6549 34.8329 38.399 34.3126 37.9321 33.9118C36.8859 33.0132 35.1154 33.0132 34.0663 33.9132C33.6023 34.3126 33.3449 34.8329 33.3449 35.3771C33.3449 35.9214 33.6009 36.4417 34.0677 36.8425C34.7132 37.3951 35.3207 37.4528 36.0913 37.5245C36.9829 37.6075 38.0924 37.7115 39.2132 38.672C40.1216 39.4553 40.6209 40.5071 40.6209 41.6321C40.6194 42.7571 40.1202 43.8048 39.2146 44.5839C38.5719 45.1365 37.7971 45.4909 36.9857 45.6484V47.5651C36.9857 48.1079 36.5455 48.5481 36.0027 48.5481C35.4599 48.5481 35.0198 48.1079 35.0198 47.5651V45.6484C34.2084 45.4909 33.4321 45.1365 32.788 44.5839C31.8796 43.8034 31.3804 42.7543 31.3804 41.6293C31.3804 41.0865 31.8205 40.6464 32.3634 40.6464C32.9062 40.6464 33.3463 41.0865 33.3463 41.6293C33.3463 42.1721 33.6023 42.6925 34.0691 43.0932C35.1182 43.9918 36.8887 43.9932 37.9349 43.0932C38.3976 42.6939 38.6549 42.175 38.6549 41.6321ZM11.2162 34.8554C11.6324 35.3167 12.2245 35.5796 12.8418 35.5796C13.4591 35.5796 14.0526 35.3153 14.4674 34.8554L19.537 29.2487C20.1276 28.5976 20.2738 27.6934 19.918 26.8904C19.5609 26.0846 18.793 25.5854 17.9127 25.5854H16.4235V11.4428C16.4235 9.4684 14.8162 7.86105 12.8418 7.86105C10.8674 7.86105 9.26008 9.46699 9.26008 11.4428V25.584H7.77086C6.88914 25.584 6.12133 26.0832 5.76414 26.8876C5.40836 27.692 5.55461 28.5962 6.14523 29.2459L11.2162 34.8554ZM7.56273 27.6836C7.60211 27.595 7.67242 27.5486 7.77227 27.5486H10.2445C10.7873 27.5486 11.2274 27.1084 11.2274 26.5656V11.4428C11.2274 10.5512 11.953 9.82699 12.8432 9.82699C13.7334 9.82699 14.459 10.5526 14.459 11.4428V26.567C14.459 27.1098 14.8991 27.55 15.442 27.55H17.9141C18.0126 27.55 18.0829 27.5964 18.1223 27.6864C18.1616 27.775 18.149 27.8565 18.0815 27.9296L13.0105 33.5392C12.9529 33.6025 12.8882 33.6151 12.8432 33.6151C12.7982 33.6151 12.7321 33.6025 12.6745 33.5378L7.60211 27.9282C7.53602 27.8551 7.52336 27.7721 7.56273 27.6836ZM24.9637 19.1209C25.3785 19.5807 25.9691 19.8451 26.5865 19.8451H26.5907C27.2066 19.8451 27.8001 19.5821 28.2205 19.1209L33.2915 13.5114C33.8807 12.8589 34.0241 11.9546 33.667 11.1517C33.3098 10.3487 32.5405 9.84949 31.6602 9.84949H30.171V4.85027C30.171 2.8759 28.5637 1.26855 26.5893 1.26855C24.6149 1.26855 23.0076 2.8759 23.0076 4.85027V9.8509H21.5184C20.638 9.8509 19.8702 10.3515 19.513 11.1559C19.1573 11.9603 19.3035 12.8631 19.8927 13.5128L24.9637 19.1209ZM21.3116 11.9518C21.351 11.8618 21.4213 11.8154 21.5198 11.8154H23.9905C24.5334 11.8154 24.9735 11.3753 24.9735 10.8325V4.85027C24.9735 3.95871 25.6991 3.23309 26.5893 3.23309C27.4795 3.23309 28.2051 3.95871 28.2051 4.85027V10.8339C28.2051 11.3767 28.6452 11.8168 29.188 11.8168H31.6588C31.7587 11.8168 31.829 11.8618 31.8698 11.9518C31.9091 12.0418 31.8965 12.1234 31.8318 12.1965L26.7637 17.8032C26.7032 17.8693 26.6357 17.882 26.5893 17.882C26.5443 17.882 26.4782 17.8679 26.4205 17.8046L21.3482 12.1951C21.2849 12.122 21.2723 12.0404 21.3116 11.9518ZM45.9998 23.0007C51.1227 23.0007 55.2895 18.834 55.2895 13.7111C55.2895 8.58809 51.1227 4.42137 45.9998 4.42137C40.8768 4.42137 36.7101 8.58809 36.7101 13.7111C36.7101 18.834 40.8768 23.0007 45.9998 23.0007ZM45.9998 6.3859C50.0385 6.3859 53.3249 9.6723 53.3249 13.7111C53.3249 17.7498 50.0385 21.0362 45.9998 21.0362C41.961 21.0362 38.6746 17.7498 38.6746 13.7111C38.6746 9.6723 41.961 6.3859 45.9998 6.3859ZM44.8748 13.7111V9.91277C44.8748 9.29121 45.3782 8.78918 45.9984 8.78918C46.6185 8.78918 47.122 9.29262 47.122 9.91277V12.5875H48.9712C49.5927 12.5875 50.0948 13.0909 50.0948 13.7111C50.0948 14.3312 49.5913 14.8346 48.9712 14.8346H45.997C45.3782 14.8346 44.8748 14.3326 44.8748 13.7111ZM54.6834 27.5331H53.796C53.0324 27.5331 52.3659 27.9662 52.0565 28.6623C51.7485 29.3584 51.8737 30.1403 52.3841 30.7056L56.2218 34.9496C56.5832 35.349 57.0965 35.5782 57.6309 35.5782C58.1652 35.5782 58.6799 35.349 59.0399 34.9496L62.8776 30.7042C63.3895 30.1389 63.5146 29.3556 63.2066 28.6595C62.8987 27.9634 62.2335 27.5317 61.4713 27.5317H60.5798V22.0164C60.5798 20.3893 59.2579 19.0646 57.6323 19.0646C56.0052 19.0646 54.6805 20.3893 54.6805 22.0164V27.5331H54.6834ZM55.6663 29.499C56.2091 29.499 56.6493 29.0589 56.6493 28.5161V22.0178C56.6493 21.4736 57.0923 21.0306 57.6365 21.0306C58.1779 21.0306 58.6195 21.4736 58.6195 22.0178V28.5161C58.6195 29.0589 59.0596 29.499 59.6024 29.499H61.3251L57.6365 33.5786L53.9479 29.499H55.6663Z" fill="#CFA935" stroke="#CFA935" stroke-width="0.3"/>
</svg>
