<svg width="72" height="72" viewBox="0 0 72 72" fill="none" xmlns="http://www.w3.org/2000/svg">
<g clip-path="url(#clip0_25818_34333)">
<path d="M70.5153 25.5996C70.5128 25.5934 70.5116 25.586 70.5091 25.5798C68.5788 19.6572 64.8434 14.236 59.7252 10.1991C59.7252 10.1991 59.7252 10.1978 59.724 10.1978C56.8986 7.96708 53.7021 6.22915 50.2461 4.95301C50.107 4.85991 49.9506 4.79163 49.7756 4.7606C49.7607 4.75811 49.747 4.76308 49.7321 4.76184C45.5052 3.27342 40.8923 2.48267 36 2.48267C22.3461 2.48267 13.6142 6.65122 8.172 11.793C8.14469 11.8154 8.11986 11.8377 8.09379 11.8625C4.77434 15.0218 2.69007 18.5399 1.47103 21.6831C1.37172 21.8358 1.30717 22.0058 1.28359 22.1945C0.364966 24.7245 0 26.9788 0 28.5516C0 34.0274 4.45531 38.4827 9.93103 38.4827H14.9574C15.2379 41.3366 16.4843 43.9745 18.535 46.0104C20.8688 48.3616 23.9859 49.6551 27.3103 49.6551H44.6897V51.7654C44.6897 52.257 44.8423 52.7498 45.108 53.1359L47.0135 55.9985C47.4803 56.69 48.2549 57.1034 49.0841 57.1034H49.6552V59.8145C48.2139 60.3285 47.1724 61.694 47.1724 63.3103C47.1724 65.3635 48.8433 67.0344 50.8965 67.0344C52.9498 67.0344 54.6207 65.3635 54.6207 63.3103C54.6207 61.694 53.5792 60.3285 52.1379 59.8145V57.1034H59.5862V62.2973C58.145 62.8112 57.1034 64.1767 57.1034 65.793C57.1034 67.8463 58.7743 69.5172 60.8276 69.5172C62.8808 69.5172 64.5517 67.8463 64.5517 65.793C64.5517 64.1767 63.5102 62.8112 62.069 62.2973V57.1034H62.64C63.4692 57.1034 64.2439 56.69 64.7168 55.9911L66.605 53.1521C66.8818 52.7498 67.0345 52.257 67.0345 51.7654V47.7297C67.3125 47.5423 67.5807 47.3424 67.8364 47.1264C70.6382 44.7516 72 40.706 72 34.7585C72 31.6526 71.4799 28.5653 70.5153 25.5996ZM50.8965 64.5516C50.2113 64.5516 49.6552 63.9943 49.6552 63.3103C49.6552 62.6263 50.2113 62.0689 50.8965 62.0689C51.5818 62.0689 52.1379 62.6263 52.1379 63.3103C52.1379 63.9943 51.5818 64.5516 50.8965 64.5516ZM60.8276 67.0344C60.1423 67.0344 59.5862 66.477 59.5862 65.793C59.5862 65.109 60.1423 64.5516 60.8276 64.5516C61.5128 64.5516 62.069 65.109 62.069 65.793C62.069 66.477 61.5128 67.0344 60.8276 67.0344ZM45.931 47.1723L45.9298 40.9654H50.8965V42.2068C50.8965 43.576 52.0101 44.6896 53.3793 44.6896H55.8621V47.1723H45.931ZM45.9273 20.3796L48.9265 17.3792H55.8621V19.862H53.3793C52.0101 19.862 50.8965 20.9755 50.8965 22.3447V23.5861H45.9273V20.3796ZM50.8965 26.0689V28.5516H45.9286V26.0689H50.8965ZM50.8965 33.5172H45.9298V31.0344H50.8965V33.5172ZM45.9298 35.9999H50.8965V38.4827H45.9298V35.9999ZM53.3793 42.2068V22.3447H60.8276V42.2068H53.3793ZM63.3103 27.3103H68.4472C69.1436 29.7372 69.5172 32.2423 69.5172 34.7585C69.5172 35.6436 69.4738 36.458 69.4105 37.2413H63.3103V27.3103ZM67.6068 24.8275H63.3103V22.3447C63.3103 20.9755 62.1968 19.862 60.8276 19.862H58.3448V16.1378C58.3448 15.4526 57.7899 14.8965 57.1034 14.8965H51.4068L53.8883 12.4137H58.5174C62.6437 15.7605 65.7608 20.0879 67.6068 24.8275ZM20.2903 44.2551C18.4134 42.3905 17.3793 39.9003 17.3793 37.2413C17.3793 35.188 19.0502 33.5172 21.1034 33.5172H31.0345C31.7197 33.5172 32.2759 32.961 32.2759 32.2758C32.2759 31.5905 31.7197 31.0344 31.0345 31.0344H21.1034C18.1068 31.0344 15.5992 33.1708 15.0219 35.9999H9.93103C5.82331 35.9999 2.48276 32.6594 2.48276 28.5516C2.48276 27.2941 2.74966 25.5525 3.40014 23.5861H8.68966C9.0211 23.5861 9.32648 23.7127 9.57352 23.966C9.80441 24.1907 9.93103 24.496 9.93103 24.8275C9.93103 25.5115 9.37365 26.0689 8.68966 26.0689H6.2069C5.52166 26.0689 4.96552 26.625 4.96552 27.3103C4.96552 27.9955 5.52166 28.5516 6.2069 28.5516H8.68966C10.7429 28.5516 12.4138 26.8807 12.4138 24.8275C12.4138 23.8207 12.0203 22.8847 11.3288 22.2107C10.6324 21.4969 9.69641 21.1034 8.68966 21.1034H4.392C5.35159 19.0551 6.732 16.8901 8.64621 14.8307C9.79076 16.4023 11.633 17.3792 13.6552 17.3792C14.3404 17.3792 14.8966 16.8231 14.8966 16.1378C14.8966 15.4526 14.3404 14.8965 13.6552 14.8965C12.3182 14.8965 11.119 14.1802 10.4599 13.0629C13.5993 10.2885 17.8672 7.8628 23.5862 6.40667V7.44818C23.5862 8.13342 24.1423 8.68956 24.8276 8.68956C25.5128 8.68956 26.069 8.13342 26.069 7.44818V5.85549C28.6175 5.36887 31.4292 5.0697 34.5203 4.99522C33.9989 6.42156 32.6396 7.44818 31.0345 7.44818C30.3492 7.44818 29.7931 8.00432 29.7931 8.68956C29.7931 9.3748 30.3492 9.93094 31.0345 9.93094C34.0175 9.93094 36.5127 7.81439 37.1048 5.00639C40.9444 5.10446 44.6028 5.68542 47.9855 6.77039C47.3201 8.0788 45.9534 8.68956 44.6897 8.68956C41.2672 8.68956 38.4828 11.474 38.4828 14.8965V17.3792C38.4828 18.0645 39.0377 18.6206 39.7241 18.6206C40.4106 18.6206 40.9655 18.0645 40.9655 17.3792V14.8965C40.9655 12.8432 42.6364 11.1723 44.6897 11.1723C47.2208 11.1723 49.3498 9.76336 50.3143 7.62694C51.9269 8.27618 53.4612 9.0508 54.9236 9.93094H53.8883C53.2365 9.93094 52.5997 10.1954 52.1417 10.6547L47.5374 15.2589C47.5361 15.2602 47.5361 15.2602 47.5349 15.2614L44.1708 18.6256C43.7114 19.0861 43.4483 19.7217 43.4483 20.3709V23.5861H34.5302C34.0163 22.1449 32.6508 21.1034 31.0345 21.1034C28.9812 21.1034 27.3103 22.7743 27.3103 24.8275C27.3103 26.8807 28.9812 28.5516 31.0345 28.5516C32.6508 28.5516 34.0163 27.5101 34.5302 26.0689H37.2414V34.2446L33.0033 38.4827H28.3233C27.8094 37.0414 26.4439 35.9999 24.8276 35.9999C22.7743 35.9999 21.1034 37.6708 21.1034 39.724C21.1034 41.7773 22.7743 43.4482 24.8276 43.4482C26.4439 43.4482 27.8094 42.4067 28.3233 40.9654H33.0033C33.6662 40.9654 34.2894 40.7072 34.7586 40.238L38.9967 35.9999C39.4659 35.5307 39.7241 34.9075 39.7241 34.2446V26.0689H43.4483V47.1723H40.9655V45.9309C40.9655 45.2457 40.4106 44.6896 39.7241 44.6896C39.0377 44.6896 38.4828 45.2457 38.4828 45.9309V47.1723H36V45.9309C36 45.2457 35.4439 44.6896 34.7586 44.6896C34.0734 44.6896 33.5172 45.2457 33.5172 45.9309V47.1723H31.0345V45.9309C31.0345 45.2457 30.4783 44.6896 29.7931 44.6896C29.1079 44.6896 28.5517 45.2457 28.5517 45.9309V47.1723H27.3103C24.6513 47.1723 22.1611 46.1383 20.2903 44.2551ZM32.2759 24.8275C32.2759 25.5115 31.7185 26.0689 31.0345 26.0689C30.3505 26.0689 29.7931 25.5115 29.7931 24.8275C29.7931 24.1435 30.3505 23.5861 31.0345 23.5861C31.7185 23.5861 32.2759 24.1435 32.2759 24.8275ZM26.069 39.724C26.069 40.408 25.5116 40.9654 24.8276 40.9654C24.1436 40.9654 23.5862 40.408 23.5862 39.724C23.5862 39.04 24.1436 38.4827 24.8276 38.4827C25.5116 38.4827 26.069 39.04 26.069 39.724ZM64.548 51.7605L62.64 54.6206L49.0754 54.6156L47.1724 51.7654V49.6551H59.5862C61.4719 49.6551 63.113 49.4105 64.5505 48.9289L64.548 51.7605ZM66.2363 45.2283C64.6771 46.5367 62.501 47.1723 59.5862 47.1723H58.3448V44.6896H60.8276C62.1968 44.6896 63.3103 43.576 63.3103 42.2068V39.724H69.0828C68.58 42.218 67.639 44.0403 66.2363 45.2283Z" fill="#CFA935"/>
<path d="M22.3448 23.5862C20.9756 23.5862 19.8621 22.4726 19.8621 21.1034C19.8621 19.7342 20.9756 18.6206 22.3448 18.6206H29.7931C31.8464 18.6206 33.5173 16.9497 33.5173 14.8965C33.5173 12.8433 31.8464 11.1724 29.7931 11.1724H17.3793C16.6941 11.1724 16.1379 11.7285 16.1379 12.4137C16.1379 13.099 16.6941 13.6551 17.3793 13.6551H29.7931C30.4771 13.6551 31.0345 14.2125 31.0345 14.8965C31.0345 15.5805 30.4771 16.1379 29.7931 16.1379H22.3448C19.6064 16.1379 17.3793 18.3649 17.3793 21.1034C17.3793 23.8419 19.6064 26.0689 22.3448 26.0689C23.0301 26.0689 23.5862 25.5128 23.5862 24.8275C23.5862 24.1423 23.0301 23.5862 22.3448 23.5862Z" fill="#CFA935"/>
<path d="M57.1034 24.8276C56.417 24.8276 55.8621 25.3838 55.8621 26.069V38.4828C55.8621 39.168 56.417 39.7242 57.1034 39.7242C57.7899 39.7242 58.3448 39.168 58.3448 38.4828V26.069C58.3448 25.3838 57.7899 24.8276 57.1034 24.8276Z" fill="#CFA935"/>
</g>
<defs>
<clipPath id="clip0_25818_34333">
<rect width="72" height="72" fill="white"/>
</clipPath>
</defs>
</svg>
