<svg width="73" height="72" viewBox="0 0 73 72" fill="none" xmlns="http://www.w3.org/2000/svg">
<path d="M6.43129 19.3092L6.43136 19.3093C12.5009 21.104 15.9557 22.1319 17.9318 22.7198C18.3892 22.8559 18.7673 22.9684 19.0803 23.0614C19.9123 23.3086 20.2856 23.4183 20.4631 23.4662C20.55 23.4896 20.5968 23.5001 20.6294 23.5034C20.6486 23.5053 20.6625 23.5047 20.6742 23.5038C20.6777 23.5035 20.6803 23.5033 20.6826 23.5031C20.6869 23.5028 20.6898 23.5026 20.6947 23.5026C21.049 23.5026 21.3748 23.2721 21.4806 22.9159C21.6098 22.4814 21.362 22.0249 20.9275 21.8962L6.89689 17.7365L6.89681 17.7365C6.50338 17.6202 6.49959 17.0646 6.89096 16.9416L6.89111 16.9415L36.788 7.48777L36.7883 7.48767C36.9295 7.44251 37.0786 7.44293 37.2198 7.4893L37.2201 7.4894L66.1101 16.8728L66.1101 16.8729C66.5063 17.0013 66.4936 17.5664 66.0904 17.6759L66.0903 17.6759L50.6131 21.8914L50.6394 21.9879L50.6131 21.8914C50.1763 22.0105 49.9191 22.4611 50.0376 22.8981L50.0376 22.8982C50.156 23.3336 50.6007 23.5938 51.0443 23.4738L51.0444 23.4737L66.5216 19.2583C68.4953 18.7211 68.5644 15.945 66.6162 15.3129C66.6162 15.3129 66.6162 15.3129 66.6162 15.3129L37.7262 5.9295L37.7262 5.92947C37.2591 5.7782 36.7654 5.77632 36.294 5.92353L36.294 5.92353L36.2936 5.92364L6.39677 15.3774C6.39676 15.3774 6.39676 15.3774 6.39675 15.3774C4.46127 15.989 4.48848 18.7333 6.43129 19.3092Z" fill="#CFA935" stroke="#CFA935" stroke-width="0.2"/>
<path d="M21.4755 34.4105L21.4755 34.4106C21.389 34.8557 20.9521 35.1467 20.5143 35.0596C20.0703 34.9736 19.7789 34.5435 19.8654 34.0988L21.4755 34.4105ZM21.4755 34.4105L23.0214 26.415L23.0214 26.415M21.4755 34.4105L23.0214 26.415M23.0214 26.415C23.0478 26.2785 23.1344 26.124 23.293 25.9566C23.451 25.7898 23.6752 25.6156 23.9659 25.4397C24.5472 25.0877 25.3838 24.7349 26.4581 24.4211C28.6059 23.7937 31.6907 23.3259 35.5514 23.3259C39.412 23.3259 42.4968 23.7937 44.6446 24.4212C45.7189 24.735 46.5555 25.0878 47.1368 25.4399C47.4275 25.6159 47.6517 25.7901 47.8097 25.9569C47.9683 26.1244 48.0549 26.2789 48.0813 26.4155L48.0813 26.4155M23.0214 26.415L48.0813 26.4155M48.0813 26.4155L49.6675 34.6158L49.7657 34.5968M48.0813 26.4155L49.7657 34.5968M49.7657 34.5968L49.6675 34.6158C49.7541 35.063 50.1872 35.3505 50.6285 35.265L49.7657 34.5968ZM21.4113 26.1038L19.8654 34.0987L50.6285 35.265C51.0726 35.179 51.3641 34.7488 51.2776 34.304L49.6914 26.1043C49.5465 25.3542 48.9844 24.7073 48.1443 24.1604C47.3028 23.6125 46.1692 23.156 44.8533 22.7903C42.2207 22.0589 38.8384 21.6859 35.5514 21.6859C32.2643 21.6859 28.882 22.0589 26.2494 22.7903C24.9335 23.1559 23.7999 23.6124 22.9584 24.1602C22.1183 24.7071 21.5563 25.3538 21.4113 26.1038C21.4113 26.1038 21.4113 26.1038 21.4113 26.1038Z" fill="#CFA935" stroke="#CFA935" stroke-width="0.2"/>
<path d="M61.292 32.5442V22.5059C61.292 22.0532 60.9247 21.6859 60.472 21.6859C60.0192 21.6859 59.652 22.0532 59.652 22.5059V32.5442C59.652 32.9969 60.0192 33.3642 60.472 33.3642C60.9247 33.3642 61.292 32.9969 61.292 32.5442Z" fill="#CFA935" stroke="#CFA935" stroke-width="0.2"/>
<path d="M60.9601 35.1053V35.1053C62.4241 35.1429 63.5003 36.0848 63.5146 37.3807L65.4239 48.5985C65.6365 49.8468 64.2304 50.7131 63.1483 50.0744L61.0814 48.8568L58.4927 50.2206L60.9601 35.1053ZM60.9601 35.1053L60.9593 35.1053M60.9601 35.1053L60.9593 35.1053M60.9593 35.1053L60.9562 35.1052C60.9303 35.1048 60.9041 35.1043 60.8778 35.1043C59.6005 35.1043 58.2182 35.875 58.142 37.3753L56.2773 48.7186L56.2773 48.7186M60.9593 35.1053L56.2773 48.7186M56.2773 48.7186C56.0813 49.9139 57.3951 50.8003 58.4926 50.2206L56.2773 48.7186ZM60.1292 36.9236C60.3416 36.8019 60.6285 36.745 60.9187 36.7448C60.9732 36.7463 61.2247 36.7587 61.4578 36.8547C61.5746 36.9028 61.6809 36.9695 61.7564 37.0606C61.8302 37.1498 61.8788 37.267 61.8748 37.427L61.8747 37.4275C61.8747 37.4309 61.8746 37.4324 61.8743 37.4357C61.8742 37.437 61.8741 37.4386 61.8739 37.4407C61.8732 37.4494 61.8729 37.459 61.8736 37.4726C61.8749 37.4956 61.8795 37.5309 61.8902 37.5998C61.912 37.7403 61.9622 38.0381 62.0752 38.7005C62.1191 38.9583 62.1726 39.2714 62.2376 39.652C62.5028 41.2057 62.9603 43.8852 63.7479 48.5244L61.8661 47.4154L61.8659 47.4153C61.4029 47.1436 60.8251 47.1321 60.3531 47.3812L57.951 48.6468C58.6976 44.1012 59.1389 41.4227 59.3998 39.8389C59.464 39.4495 59.5172 39.1264 59.5614 38.8578C59.6747 38.1697 59.7287 37.8403 59.7545 37.6768C59.7785 37.5244 59.7789 37.5121 59.7795 37.4855C59.7796 37.4837 59.7796 37.4818 59.7797 37.4797L59.7797 37.4794C59.7862 37.2222 59.9205 37.0431 60.1292 36.9236Z" fill="#CFA935" stroke="#CFA935" stroke-width="0.2"/>
<path d="M18.7217 55.7051L18.7217 55.705C18.1386 54.6819 18.3543 53.3743 19.2344 52.5938L21.2782 50.7816L21.2782 50.7815C21.4812 50.602 21.5807 50.3116 21.5343 49.9997L21.5343 49.9995C21.329 48.5934 21.3435 47.2611 21.5551 45.9069L21.5551 45.9068C21.6068 45.5784 21.5051 45.2706 21.2933 45.0787C21.2933 45.0786 21.2933 45.0786 21.2933 45.0786L19.2842 43.2585C18.4119 42.4683 18.2109 41.1581 18.8057 40.1418L20.3366 37.5258L20.3366 37.5257C20.9315 36.5095 22.1713 36.0433 23.2887 36.4174C23.2887 36.4174 23.2887 36.4174 23.2887 36.4174L25.88 37.2846L25.8801 37.2846C26.141 37.3723 26.4531 37.312 26.7069 37.1124C27.7625 36.2797 28.9221 35.6092 30.1509 35.1204C30.461 34.9969 30.6753 34.7528 30.7332 34.4752L30.7332 34.4751L31.2872 31.8314C31.2872 31.8314 31.2872 31.8314 31.2872 31.8314C31.5285 30.6792 32.5585 29.8436 33.7354 29.8436H36.7664C37.9433 29.8436 38.9733 30.6792 39.2146 31.8314L39.7686 34.4761L39.7686 34.4761C39.8264 34.7532 40.0398 34.9964 40.3508 35.1199L40.3508 35.1199C41.6042 35.6186 42.7865 36.3066 43.8628 37.1648L43.8629 37.1649C44.1224 37.3722 44.4403 37.4366 44.7116 37.3481L47.2953 36.5039L47.2956 36.5038C48.4165 36.1411 49.6524 36.6133 50.2396 37.6328L50.1529 37.6827L50.2396 37.6328L51.7527 40.2601C52.3398 41.2794 52.1299 42.588 51.2518 43.3729L51.2517 43.3729L49.2232 45.1835C49.2232 45.1835 49.2231 45.1835 49.2231 45.1835C49.016 45.3696 48.9136 45.6706 48.9618 45.9929C49.1643 47.345 49.1666 48.6958 48.9552 50.069C48.9052 50.3976 49.0079 50.7054 49.2205 50.897L51.2351 52.7081L51.2352 52.7082C52.1093 53.4959 52.3154 54.8055 51.7244 55.8229C51.7244 55.8229 51.7244 55.8229 51.7244 55.8229L50.2029 58.4446C49.6119 59.4628 48.3703 59.9334 47.2547 59.5632L18.7217 55.7051ZM18.7217 55.7051L20.2254 58.337C20.8086 59.3597 22.0455 59.8401 23.165 59.4772L25.7515 58.6424L25.7517 58.6423M18.7217 55.7051L25.7517 58.6423M40.3036 60.9231C41.5608 60.4286 42.745 59.7444 43.8232 58.8899L43.8234 58.8898C44.0837 58.6825 44.4015 58.619 44.6735 58.7096L44.6737 58.7096L47.2546 59.5632L39.622 61.5439L39.0586 64.1858M40.3036 60.9231L40.267 60.83L40.3038 60.923C40.3037 60.923 40.3037 60.923 40.3036 60.9231ZM40.3036 60.9231C39.9934 61.0458 39.7784 61.2883 39.7198 61.5646L39.7198 61.5648L39.1564 64.2066L39.0586 64.1858M39.0586 64.1858L39.1564 64.2067C38.9112 65.3549 37.8842 66.1856 36.7101 66.1856H36.7098L33.6704 66.1749C32.4934 66.1705 31.4673 65.3314 31.23 64.1783L30.6844 61.5299L30.6843 61.5298C30.6273 61.2518 30.4147 61.0078 30.1057 60.8834M39.0586 64.1858C38.8232 65.2878 37.837 66.0856 36.7101 66.0856L30.1057 60.8834M30.1057 60.8834C30.1057 60.8834 30.1056 60.8834 30.1056 60.8834L30.1429 60.7906L30.1057 60.8834ZM30.1057 60.8834C28.8505 60.3796 27.6719 59.6883 26.6004 58.8286M30.1057 60.8834L26.6004 58.8286M25.7517 58.6423C26.0236 58.5539 26.3405 58.6193 26.6002 58.8285L26.6004 58.8286M25.7517 58.6423L26.6004 58.8286M22.3672 52.0083L22.3671 52.0084L20.3233 53.8206L20.3233 53.8206C20.0203 54.0893 19.9454 54.5404 20.1461 54.8925L21.6498 57.524L21.6499 57.5242C21.8495 57.8753 22.2757 58.0409 22.6609 57.9163L22.661 57.9163L25.2475 57.0814L25.2476 57.0814C26.0716 56.816 26.958 57.0124 27.6274 57.5495L27.6274 57.5495C28.5724 58.3085 29.6119 58.918 30.7164 59.3619C31.5322 59.6891 32.1218 60.3752 32.2903 61.2003L22.3672 52.0083ZM22.3672 52.0083C22.9889 51.4556 23.2827 50.6148 23.1572 49.7615C22.9792 48.5394 22.9852 47.3668 23.1758 46.1611L23.1758 46.161M22.3672 52.0083L23.1758 46.161M23.1758 46.161C23.312 45.2914 23.0214 44.4317 22.3951 43.8636L22.3951 43.8636M23.1758 46.161L22.3951 43.8636M22.3951 43.8636L20.3851 42.0429C20.3851 42.0429 20.3851 42.0429 20.3851 42.0429C20.0856 41.7715 20.0165 41.3206 20.2214 40.9709L20.2214 40.9708M22.3951 43.8636L20.2214 40.9708M20.2214 40.9708L21.7524 38.3547L21.7524 38.3547M20.2214 40.9708L21.7524 38.3547M21.7524 38.3547C21.9563 38.006 22.387 37.8451 22.7677 37.9729L22.7678 37.973M21.7524 38.3547L22.7678 37.973M22.7678 37.973L25.3587 38.8396C26.152 39.1079 27.0374 38.941 27.7224 38.4005C28.6543 37.6653 29.6753 37.0744 30.7574 36.644L30.7575 36.644M22.7678 37.973L30.7575 36.644M30.7575 36.644C31.5732 36.3188 32.1667 35.6352 32.3389 34.8114L32.893 32.1677C32.9761 31.7715 33.3309 31.4836 33.7354 31.4836H36.7664C37.1709 31.4836 37.5257 31.7715 37.6088 32.1677C37.6088 32.1677 37.6088 32.1677 37.6088 32.1677L38.1629 34.8124L38.1629 34.8125M30.7575 36.644L38.1629 34.8125M38.1629 34.8125C38.3361 35.6356 38.9286 36.3193 39.7444 36.6436C40.8478 37.0823 41.8893 37.689 42.8399 38.4466C43.5277 38.9962 44.4175 39.1682 45.2216 38.907L45.2218 38.9069M38.1629 34.8125L45.2218 38.9069M45.2218 38.9069L47.8046 38.0627C48.19 37.9368 48.6171 38.1008 48.8184 38.4511L48.8185 38.4512M45.2218 38.9069L48.8185 38.4512M48.8185 38.4512L50.3316 41.0784M48.8185 38.4512L50.3316 41.0784M50.3316 41.0784C50.3316 41.0785 50.3316 41.0785 50.3316 41.0785M50.3316 41.0784L50.3316 41.0785M50.3316 41.0785C50.533 41.429 50.4607 41.8804 50.1595 42.1498L50.3316 41.0785ZM32.8359 63.8473L32.2903 61.2005L50.1594 42.1498L48.1307 43.9606L48.1306 43.9607C47.5052 44.5205 47.2106 45.3708 47.339 46.2352L47.339 46.2353C47.5198 47.4407 47.5189 48.6082 47.3344 49.8203C47.2012 50.6899 47.4937 51.5486 48.1229 52.1157L48.123 52.1158L50.1375 53.9269C50.4382 54.1982 50.5095 54.6497 50.3064 54.9997L48.785 57.6212C48.581 57.9713 48.1548 58.1332 47.7693 58.0065C47.7693 58.0065 47.7692 58.0064 47.7692 58.0064L45.1885 57.1529C44.3887 56.8876 43.4961 57.0579 42.8047 57.6044L42.8046 57.6045C41.8531 58.3588 40.8098 58.9617 39.7026 59.3973L39.7025 59.3973C38.8857 59.7192 38.2913 60.4009 38.1161 61.2231C38.1161 61.2231 38.1161 61.2231 38.1161 61.2231L37.5526 63.8645L37.5526 63.8645C37.4687 64.2593 37.114 64.5456 36.7101 64.5456C36.662 64.5456 35.8797 64.543 35.1211 64.5403L34.0964 64.5366L33.7754 64.5354L33.6939 64.535L33.6771 64.5349L33.6787 64.535C33.6804 64.5351 33.7337 64.5709 33.7519 64.6353C33.7105 64.6351 33.6844 64.635 33.6766 64.6349L33.6767 64.5349L33.6767 64.5349C33.2712 64.5336 32.9173 64.2439 32.8359 63.8474L32.8359 63.8473Z" fill="#CFA935" stroke="#CFA935" stroke-width="0.2"/>
<path d="M35.239 56.7486C40.0539 56.7486 43.9705 52.832 43.9705 48.0171C43.9705 43.2021 40.0539 39.2855 35.239 39.2855C30.4241 39.2855 26.5074 43.2021 26.5074 48.0171C26.5074 52.832 30.4241 56.7486 35.239 56.7486ZM35.239 40.9255C39.1494 40.9255 42.3305 44.1067 42.3305 48.0171C42.3305 51.9275 39.1494 55.1086 35.239 55.1086C31.3286 55.1086 28.1474 51.9275 28.1474 48.0171C28.1474 44.1067 31.3286 40.9255 35.239 40.9255Z" fill="#CFA935" stroke="#CFA935" stroke-width="0.2"/>
<path d="M32.0196 50.8119L32.0195 50.812C31.9161 51.0382 31.7451 51.1743 31.5523 51.2317C31.3619 51.2883 31.156 51.2667 30.979 51.19C30.8021 51.1132 30.6472 50.9782 30.5644 50.7994C30.4803 50.6179 30.4748 50.3998 30.5836 50.1702L30.5841 50.1692L30.5841 50.1692L32.7492 45.7239L32.0196 50.8119ZM32.0196 50.8119L32.3702 50.0424H34.8989L35.2409 50.8111L35.2408 50.8111M32.0196 50.8119L35.2408 50.8111M35.2408 50.8111L35.2415 50.8125M35.2408 50.8111L35.2415 50.8125M35.2415 50.8125C35.347 51.0398 35.5169 51.1768 35.7081 51.2342C35.8969 51.2909 36.0998 51.2681 36.2733 51.1898C36.4468 51.1116 36.5972 50.975 36.6766 50.796C36.757 50.6146 36.7608 50.3975 36.653 50.1702L36.653 50.1702M35.2415 50.8125L36.653 50.1702M36.653 50.1702L36.6525 50.1692M36.653 50.1702L36.6525 50.1692M36.6525 50.1692L34.4877 45.7243M36.6525 50.1692L34.4877 45.7243M34.4877 45.7243C34.4876 45.7242 34.4876 45.7241 34.4876 45.724M34.4877 45.7243L34.4876 45.724M34.4876 45.724C34.3239 45.3834 33.971 45.2117 33.6258 45.2079C33.2796 45.2041 32.9217 45.369 32.7492 45.7238L34.4876 45.724ZM32.9693 48.7105L33.6349 47.2259L34.3005 48.7105H32.9693Z" fill="#CFA935" stroke="#CFA935" stroke-width="0.2"/>
<path d="M37.3154 51.0986L37.3157 51.0988C37.543 51.2809 37.8901 51.3389 38.181 51.2549C38.3284 51.2124 38.4663 51.132 38.5675 51.0074C38.6694 50.8819 38.7292 50.7174 38.7292 50.5162V47.6946C38.7292 47.4486 38.6514 47.2484 38.4833 47.1127L38.483 47.1125C38.2568 46.9312 37.9097 46.8733 37.6187 46.9568C37.4712 46.9991 37.3331 47.0792 37.2316 47.2036C37.1295 47.329 37.0694 47.4934 37.0694 47.6946V50.5162C37.0694 50.7621 37.1472 50.9629 37.3154 51.0986Z" fill="#CFA935" stroke="#CFA935" stroke-width="0.2"/>
<path d="M38.5522 46.3303L38.5523 46.3302C38.7834 46.125 38.864 45.7796 38.7652 45.4861C38.663 45.1826 38.3751 44.9457 37.8989 44.9457C37.4151 44.9457 37.1296 45.1859 37.0312 45.4916C36.9364 45.7861 37.0207 46.1309 37.2466 46.3303C37.4161 46.4805 37.6624 46.5497 37.8991 46.5498C38.1358 46.5499 38.3824 46.4808 38.5522 46.3303Z" fill="#CFA935" stroke="#CFA935" stroke-width="0.2"/>
<path d="M32.3045 11.2251L32.3036 11.2254L15.1445 16.5246L15.1444 16.5246C14.712 16.6586 14.4697 17.1176 14.6031 17.5501L14.6032 17.5501C14.7351 17.9769 15.1878 18.2255 15.6286 18.0921L15.6291 18.0919L32.7882 12.7927L32.7883 12.7927C33.2207 12.6587 33.463 12.1997 33.3296 11.7672C33.1959 11.3341 32.7395 11.0953 32.3045 11.2251L32.3045 11.2251Z" fill="#CFA935" stroke="#CFA935" stroke-width="0.2"/>
</svg>
