<svg width="277" height="277" viewBox="0 0 277 277" fill="none" xmlns="http://www.w3.org/2000/svg">
<path d="M137.589 275.651C61.8244 275.149 0.811815 213.323 1.31389 137.558C1.81597 61.7931 63.6425 0.780603 139.407 1.28268C215.172 1.78476 276.185 63.6113 275.683 139.376C275.181 215.141 213.354 276.154 137.589 275.651ZM139.171 36.9506C83.105 36.5791 37.3534 81.7284 36.9818 137.794C36.6103 193.86 81.7596 239.612 137.826 239.984C193.892 240.355 239.643 195.206 240.015 139.14C240.386 83.0738 195.237 37.3222 139.171 36.9506Z" fill="#BFC0C2"/>
<path d="M1.67419 138.467C1.67419 107.734 12.0212 77.8953 31.048 53.7599C50.0749 29.6245 76.6733 12.5977 106.557 5.42316C136.442 -1.75137 167.871 1.34415 195.781 14.2109C223.692 27.0777 246.457 48.9665 260.41 76.35C274.362 103.734 278.689 135.017 272.694 165.16C266.698 195.303 250.729 222.549 227.359 242.509C203.989 262.469 174.58 273.979 143.87 275.186C113.161 276.392 82.939 267.225 58.0752 249.16L80.5937 218.166C98.4956 231.173 120.255 237.773 142.366 236.905C164.477 236.036 185.652 227.748 202.478 213.377C219.304 199.006 230.802 179.389 235.119 157.686C239.436 135.983 236.321 113.459 226.275 93.7428C216.229 74.0266 199.837 58.2667 179.742 49.0026C159.647 39.7385 137.018 37.5098 115.501 42.6754C93.9844 47.8411 74.8335 60.1004 61.1342 77.4779C47.4349 94.8554 39.985 116.339 39.985 138.467L1.67419 138.467Z" fill="url(#paint0_linear_26080_139)"/>
<g filter="url(#filter0_d_26080_139)">
<circle cx="139.365" cy="138.715" r="104.524" transform="rotate(19.4506 139.365 138.715)" fill="#F3F3F3"/>
<circle cx="139.365" cy="138.715" r="104.524" transform="rotate(19.4506 139.365 138.715)" stroke="#A2A2A2" stroke-width="0.960533"/>
</g>
<path d="M104.362 159.576C101.546 159.576 99.0823 159.16 96.9703 158.328C94.8583 157.464 93.2103 156.264 92.0263 154.728C90.8423 153.16 90.2503 151.336 90.2503 149.256C90.2503 147.176 90.8263 145.416 91.9783 143.976C93.1623 142.504 94.8103 141.4 96.9223 140.664C99.0343 139.896 101.514 139.512 104.362 139.512C107.242 139.512 109.738 139.896 111.85 140.664C113.994 141.4 115.642 142.504 116.794 143.976C117.978 145.416 118.57 147.176 118.57 149.256C118.57 151.336 117.978 153.16 116.794 154.728C115.61 156.264 113.946 157.464 111.802 158.328C109.69 159.16 107.21 159.576 104.362 159.576ZM104.362 153.864C106.314 153.864 107.85 153.432 108.97 152.568C110.122 151.704 110.698 150.52 110.698 149.016C110.698 147.512 110.122 146.344 108.97 145.512C107.85 144.648 106.314 144.216 104.362 144.216C102.442 144.216 100.922 144.648 99.8023 145.512C98.6823 146.344 98.1223 147.512 98.1223 149.016C98.1223 150.52 98.6823 151.704 99.8023 152.568C100.922 153.432 102.442 153.864 104.362 153.864ZM104.362 138.888C105.994 138.888 107.274 138.52 108.202 137.784C109.162 137.048 109.642 136.04 109.642 134.76C109.642 133.416 109.146 132.376 108.154 131.64C107.194 130.904 105.93 130.536 104.362 130.536C102.826 130.536 101.578 130.904 100.618 131.64C99.6583 132.376 99.1783 133.416 99.1783 134.76C99.1783 136.04 99.6423 137.048 100.57 137.784C101.498 138.52 102.762 138.888 104.362 138.888ZM104.362 143.448C101.77 143.448 99.4983 143.096 97.5463 142.392C95.6263 141.688 94.1223 140.664 93.0343 139.32C91.9783 137.944 91.4503 136.312 91.4503 134.424C91.4503 132.44 91.9943 130.744 93.0823 129.336C94.1703 127.896 95.6903 126.792 97.6423 126.024C99.5943 125.224 101.834 124.824 104.362 124.824C106.954 124.824 109.21 125.224 111.13 126.024C113.082 126.792 114.602 127.896 115.69 129.336C116.81 130.744 117.37 132.44 117.37 134.424C117.37 136.312 116.826 137.944 115.738 139.32C114.682 140.664 113.178 141.688 111.226 142.392C109.274 143.096 106.986 143.448 104.362 143.448ZM133.554 159.576C131.218 159.576 128.898 159.272 126.594 158.664C124.322 158.024 122.37 157.128 120.738 155.976L123.81 150.024C125.09 150.952 126.562 151.688 128.226 152.232C129.922 152.776 131.634 153.048 133.362 153.048C135.314 153.048 136.85 152.664 137.97 151.896C139.09 151.128 139.65 150.056 139.65 148.68C139.65 147.816 139.426 147.048 138.978 146.376C138.53 145.704 137.73 145.192 136.578 144.84C135.458 144.488 133.874 144.312 131.826 144.312H123.234L124.962 125.4H145.458V131.64H127.746L131.778 128.088L130.578 141.576L126.546 138.024H133.65C136.978 138.024 139.65 138.488 141.666 139.416C143.714 140.312 145.202 141.544 146.13 143.112C147.058 144.68 147.522 146.456 147.522 148.44C147.522 150.424 147.026 152.264 146.034 153.96C145.042 155.624 143.506 156.984 141.426 158.04C139.378 159.064 136.754 159.576 133.554 159.576ZM155.056 159L178 125.4H183.712L160.768 159H155.056ZM157.984 143.544C156.352 143.544 154.912 143.176 153.664 142.44C152.416 141.672 151.424 140.6 150.688 139.224C149.984 137.816 149.632 136.168 149.632 134.28C149.632 132.392 149.984 130.76 150.688 129.384C151.424 128.008 152.416 126.936 153.664 126.168C154.912 125.4 156.352 125.016 157.984 125.016C159.616 125.016 161.056 125.4 162.304 126.168C163.552 126.936 164.528 128.008 165.232 129.384C165.936 130.728 166.288 132.36 166.288 134.28C166.288 136.168 165.936 137.816 165.232 139.224C164.528 140.6 163.552 141.672 162.304 142.44C161.056 143.176 159.616 143.544 157.984 143.544ZM157.984 139.608C159.04 139.608 159.888 139.176 160.528 138.312C161.168 137.416 161.488 136.072 161.488 134.28C161.488 132.488 161.168 131.16 160.528 130.296C159.888 129.4 159.04 128.952 157.984 128.952C156.96 128.952 156.112 129.4 155.44 130.296C154.8 131.192 154.48 132.52 154.48 134.28C154.48 136.04 154.8 137.368 155.44 138.264C156.112 139.16 156.96 139.608 157.984 139.608ZM180.784 159.384C179.184 159.384 177.744 159.016 176.464 158.28C175.216 157.512 174.24 156.44 173.536 155.064C172.832 153.656 172.48 152.008 172.48 150.12C172.48 148.232 172.832 146.6 173.536 145.224C174.24 143.848 175.216 142.776 176.464 142.008C177.744 141.24 179.184 140.856 180.784 140.856C182.448 140.856 183.904 141.24 185.152 142.008C186.4 142.776 187.376 143.848 188.08 145.224C188.784 146.6 189.136 148.232 189.136 150.12C189.136 152.008 188.784 153.656 188.08 155.064C187.376 156.44 186.4 157.512 185.152 158.28C183.904 159.016 182.448 159.384 180.784 159.384ZM180.784 155.448C181.84 155.448 182.688 155 183.328 154.104C183.968 153.208 184.288 151.88 184.288 150.12C184.288 148.36 183.968 147.032 183.328 146.136C182.688 145.24 181.84 144.792 180.784 144.792C179.76 144.792 178.912 145.24 178.24 146.136C177.6 147 177.28 148.328 177.28 150.12C177.28 151.912 177.6 153.256 178.24 154.152C178.912 155.016 179.76 155.448 180.784 155.448Z" fill="black"/>
<path d="M122.657 195.192C121.772 195.192 120.956 195.053 120.209 194.776C119.473 194.488 118.828 194.083 118.273 193.56C117.729 193.037 117.303 192.424 116.993 191.72C116.695 191.016 116.545 190.243 116.545 189.4C116.545 188.557 116.695 187.784 116.993 187.08C117.303 186.376 117.735 185.763 118.289 185.24C118.844 184.717 119.495 184.317 120.241 184.04C120.988 183.752 121.809 183.608 122.705 183.608C123.697 183.608 124.588 183.773 125.377 184.104C126.177 184.435 126.849 184.915 127.393 185.544L125.729 187.08C125.324 186.653 124.881 186.339 124.401 186.136C123.921 185.923 123.399 185.816 122.833 185.816C122.289 185.816 121.793 185.901 121.345 186.072C120.897 186.243 120.508 186.488 120.177 186.808C119.857 187.128 119.607 187.507 119.425 187.944C119.255 188.381 119.169 188.867 119.169 189.4C119.169 189.923 119.255 190.403 119.425 190.84C119.607 191.277 119.857 191.661 120.177 191.992C120.508 192.312 120.892 192.557 121.329 192.728C121.777 192.899 122.268 192.984 122.801 192.984C123.313 192.984 123.809 192.904 124.289 192.744C124.78 192.573 125.255 192.291 125.713 191.896L127.185 193.768C126.577 194.227 125.868 194.579 125.057 194.824C124.257 195.069 123.457 195.192 122.657 195.192ZM127.185 193.768L124.817 193.432V189.224H127.185V193.768ZM133.513 195.128C132.596 195.128 131.78 194.936 131.065 194.552C130.361 194.168 129.801 193.645 129.385 192.984C128.98 192.312 128.777 191.549 128.777 190.696C128.777 189.832 128.98 189.069 129.385 188.408C129.801 187.736 130.361 187.213 131.065 186.84C131.78 186.456 132.596 186.264 133.513 186.264C134.42 186.264 135.23 186.456 135.945 186.84C136.66 187.213 137.22 187.731 137.625 188.392C138.03 189.053 138.233 189.821 138.233 190.696C138.233 191.549 138.03 192.312 137.625 192.984C137.22 193.645 136.66 194.168 135.945 194.552C135.23 194.936 134.42 195.128 133.513 195.128ZM133.513 193.08C133.929 193.08 134.302 192.984 134.633 192.792C134.964 192.6 135.225 192.328 135.417 191.976C135.609 191.613 135.705 191.187 135.705 190.696C135.705 190.195 135.609 189.768 135.417 189.416C135.225 189.064 134.964 188.792 134.633 188.6C134.302 188.408 133.929 188.312 133.513 188.312C133.097 188.312 132.724 188.408 132.393 188.6C132.062 188.792 131.796 189.064 131.593 189.416C131.401 189.768 131.305 190.195 131.305 190.696C131.305 191.187 131.401 191.613 131.593 191.976C131.796 192.328 132.062 192.6 132.393 192.792C132.724 192.984 133.097 193.08 133.513 193.08ZM143.998 195.128C143.08 195.128 142.264 194.936 141.55 194.552C140.846 194.168 140.286 193.645 139.87 192.984C139.464 192.312 139.262 191.549 139.262 190.696C139.262 189.832 139.464 189.069 139.87 188.408C140.286 187.736 140.846 187.213 141.55 186.84C142.264 186.456 143.08 186.264 143.998 186.264C144.904 186.264 145.715 186.456 146.43 186.84C147.144 187.213 147.704 187.731 148.11 188.392C148.515 189.053 148.718 189.821 148.718 190.696C148.718 191.549 148.515 192.312 148.11 192.984C147.704 193.645 147.144 194.168 146.43 194.552C145.715 194.936 144.904 195.128 143.998 195.128ZM143.998 193.08C144.414 193.08 144.787 192.984 145.118 192.792C145.448 192.6 145.71 192.328 145.902 191.976C146.094 191.613 146.19 191.187 146.19 190.696C146.19 190.195 146.094 189.768 145.902 189.416C145.71 189.064 145.448 188.792 145.118 188.6C144.787 188.408 144.414 188.312 143.998 188.312C143.582 188.312 143.208 188.408 142.878 188.6C142.547 188.792 142.28 189.064 142.078 189.416C141.886 189.768 141.79 190.195 141.79 190.696C141.79 191.187 141.886 191.613 142.078 191.976C142.28 192.328 142.547 192.6 142.878 192.792C143.208 192.984 143.582 193.08 143.998 193.08ZM154.082 195.128C153.271 195.128 152.541 194.947 151.89 194.584C151.239 194.211 150.722 193.693 150.338 193.032C149.965 192.371 149.778 191.592 149.778 190.696C149.778 189.789 149.965 189.005 150.338 188.344C150.722 187.683 151.239 187.171 151.89 186.808C152.541 186.445 153.271 186.264 154.082 186.264C154.807 186.264 155.442 186.424 155.986 186.744C156.53 187.064 156.951 187.549 157.25 188.2C157.549 188.851 157.698 189.683 157.698 190.696C157.698 191.699 157.554 192.531 157.266 193.192C156.978 193.843 156.562 194.328 156.018 194.648C155.485 194.968 154.839 195.128 154.082 195.128ZM154.514 193.08C154.919 193.08 155.287 192.984 155.618 192.792C155.949 192.6 156.21 192.328 156.402 191.976C156.605 191.613 156.706 191.187 156.706 190.696C156.706 190.195 156.605 189.768 156.402 189.416C156.21 189.064 155.949 188.792 155.618 188.6C155.287 188.408 154.919 188.312 154.514 188.312C154.098 188.312 153.725 188.408 153.394 188.6C153.063 188.792 152.797 189.064 152.594 189.416C152.402 189.768 152.306 190.195 152.306 190.696C152.306 191.187 152.402 191.613 152.594 191.976C152.797 192.328 153.063 192.6 153.394 192.792C153.725 192.984 154.098 193.08 154.514 193.08ZM156.77 195V193.24L156.818 190.68L156.658 188.136V183.128H159.154V195H156.77Z" fill="#B9C833"/>
<path d="M138.461 97V86.76L139.581 87.88H136.221V85.8H141.053V97H138.461ZM146.807 97.192C146.028 97.192 145.255 97.0907 144.487 96.888C143.73 96.6747 143.079 96.376 142.535 95.992L143.559 94.008C143.986 94.3173 144.476 94.5627 145.031 94.744C145.596 94.9253 146.167 95.016 146.743 95.016C147.394 95.016 147.906 94.888 148.279 94.632C148.652 94.376 148.839 94.0187 148.839 93.56C148.839 93.272 148.764 93.016 148.615 92.792C148.466 92.568 148.199 92.3973 147.815 92.28C147.442 92.1627 146.914 92.104 146.231 92.104H143.367L143.943 85.8H150.775V87.88H144.871L146.215 86.696L145.815 91.192L144.471 90.008H146.839C147.948 90.008 148.839 90.1627 149.511 90.472C150.194 90.7707 150.69 91.1813 150.999 91.704C151.308 92.2267 151.463 92.8187 151.463 93.48C151.463 94.1413 151.298 94.7547 150.967 95.32C150.636 95.8747 150.124 96.328 149.431 96.68C148.748 97.0213 147.874 97.192 146.807 97.192Z" fill="#00BA06"/>
<path d="M128.354 85.6464C128.158 85.4512 127.842 85.4512 127.646 85.6464L124.464 88.8284C124.269 89.0237 124.269 89.3403 124.464 89.5355C124.66 89.7308 124.976 89.7308 125.172 89.5355L128 86.7071L130.828 89.5355C131.024 89.7308 131.34 89.7308 131.536 89.5355C131.731 89.3403 131.731 89.0237 131.536 88.8284L128.354 85.6464ZM128.5 97L128.5 86L127.5 86L127.5 97L128.5 97Z" fill="#00BA06"/>
<defs>
<filter id="filter0_d_26080_139" x="30.4897" y="33.6819" width="217.75" height="217.75" filterUnits="userSpaceOnUse" color-interpolation-filters="sRGB">
<feFlood flood-opacity="0" result="BackgroundImageFix"/>
<feColorMatrix in="SourceAlpha" type="matrix" values="0 0 0 0 0 0 0 0 0 0 0 0 0 0 0 0 0 0 127 0" result="hardAlpha"/>
<feOffset dy="3.84213"/>
<feGaussianBlur stdDeviation="1.92107"/>
<feComposite in2="hardAlpha" operator="out"/>
<feColorMatrix type="matrix" values="0 0 0 0 0 0 0 0 0 0 0 0 0 0 0 0 0 0 0.25 0"/>
<feBlend mode="normal" in2="BackgroundImageFix" result="effect1_dropShadow_26080_139"/>
<feBlend mode="normal" in="SourceGraphic" in2="effect1_dropShadow_26080_139" result="shape"/>
</filter>
<linearGradient id="paint0_linear_26080_139" x1="1.67188" y1="102.032" x2="274.772" y2="102.032" gradientUnits="userSpaceOnUse">
<stop stop-color="#CFA935"/>
<stop offset="0.49" stop-color="#FAF59E"/>
<stop offset="1" stop-color="#CFA935"/>
</linearGradient>
</defs>
</svg>
