<svg width="52" height="51" viewBox="0 0 52 51" fill="none" xmlns="http://www.w3.org/2000/svg">
<path fill-rule="evenodd" clip-rule="evenodd" d="M1.24795 48.9381H22.2512V46.3419C22.2512 43.9447 20.3007 41.9945 17.9037 41.9945L15.2173 41.9944C12.9453 44.0188 10.5538 44.0189 8.28174 41.9945L5.59527 41.9944C3.19832 41.9944 1.24789 43.9448 1.24789 46.3419L1.24795 48.9381ZM22.8066 50.0492H0.692485C0.38571 50.0492 0.136719 49.8004 0.136719 49.4936V46.3419C0.136719 43.3325 2.58587 40.8834 5.59527 40.8834L8.49825 40.8833C8.63839 40.8833 8.77484 40.9366 8.87784 41.0327C10.8374 42.8672 12.6627 42.8672 14.6223 41.0327C14.7254 40.9365 14.8607 40.8834 15.0019 40.8834L17.9039 40.8833C20.9131 40.8833 23.3622 43.3326 23.3622 46.3419L23.3624 49.4936C23.3624 49.8003 23.1134 50.0492 22.8066 50.0492Z" fill="black"/>
<path fill-rule="evenodd" clip-rule="evenodd" d="M8.49826 41.9943C8.19045 41.9943 7.94263 41.7456 7.94263 41.4388L7.94279 38.7836C7.94279 38.4769 8.19032 38.228 8.49819 38.228C8.80507 38.228 9.05376 38.4769 9.05376 38.7836V41.4388C9.05376 41.7455 8.80494 41.9944 8.49826 41.9943Z" fill="black"/>
<path fill-rule="evenodd" clip-rule="evenodd" d="M15.0019 41.9943C14.6954 41.9943 14.4464 41.7456 14.4464 41.4388L14.4464 38.7836C14.4464 38.4769 14.6952 38.228 15.0019 38.228C15.3087 38.228 15.5575 38.4769 15.5575 38.7836L15.5576 41.4388C15.5576 41.7455 15.3086 41.9944 15.0019 41.9943Z" fill="black"/>
<path fill-rule="evenodd" clip-rule="evenodd" d="M11.7497 40.4762C8.55265 40.4762 5.95172 37.8754 5.95172 34.6785L5.95175 30.6517C5.95175 30.345 6.20061 30.0962 6.50732 30.0962C6.81406 30.0962 7.06292 30.345 7.06292 30.6517L7.06302 34.6785C7.06302 37.263 9.16487 39.3651 11.7494 39.3651C14.3342 39.365 16.436 37.2631 16.436 34.6785L16.436 30.6517C16.436 30.345 16.6848 30.0962 16.9916 30.0962C17.2996 30.0962 17.5471 30.345 17.5471 30.6517L17.5473 34.6785C17.5473 37.8754 14.9463 40.4763 11.7497 40.4762Z" fill="black"/>
<path fill-rule="evenodd" clip-rule="evenodd" d="M6.50762 35.212C5.08153 35.212 3.92169 34.0651 3.92169 32.6541C3.92186 31.2443 5.08143 30.0962 6.50742 30.0962C6.81416 30.0962 7.06302 30.345 7.06302 30.6517C7.06312 30.9585 6.81416 31.2073 6.50742 31.2073C5.69379 31.2073 5.03283 31.8567 5.03283 32.6541C5.03283 33.4515 5.69372 34.101 6.50742 34.101C6.81416 34.1009 7.06302 34.3498 7.06302 34.6566C7.06312 34.9632 6.81416 35.2121 6.50762 35.212Z" fill="black"/>
<path fill-rule="evenodd" clip-rule="evenodd" d="M16.9919 35.212C16.6851 35.212 16.436 34.9633 16.436 34.6566C16.4361 34.3498 16.6849 34.101 16.9916 34.101C17.8054 34.1009 18.4662 33.4516 18.4662 32.6541C18.4664 31.8566 17.8053 31.2073 16.9916 31.2073C16.6851 31.2073 16.436 30.9585 16.436 30.6517C16.4361 30.345 16.6849 30.0962 16.9916 30.0962C18.4177 30.0962 19.5773 31.2444 19.5773 32.6541C19.5774 34.0651 18.4176 35.2121 16.9919 35.212Z" fill="black"/>
<path fill-rule="evenodd" clip-rule="evenodd" d="M16.9929 31.2095C16.9395 31.2095 16.8862 31.2014 16.8342 31.1852L16.7267 31.1539C15.105 30.6735 13.8792 30.3102 12.7391 29.03C11.3132 30.669 8.90562 30.941 6.56985 31.2049C6.2656 31.2396 5.98998 31.0209 5.95526 30.7153C5.92055 30.4107 6.14045 30.1354 6.44484 30.1007C9.31886 29.7765 11.2749 29.4421 12.2425 27.8297C12.3388 27.67 12.5088 27.5682 12.6951 27.5612C12.8805 27.5519 13.0597 27.6388 13.1697 27.7904C14.2253 29.2533 15.2855 29.5682 17.0425 30.0891L17.1502 30.1203C17.4442 30.2083 17.612 30.5174 17.5252 30.8114C17.4536 31.0521 17.2323 31.2083 16.9929 31.2095Z" fill="black"/>
<path fill-rule="evenodd" clip-rule="evenodd" d="M17.6687 31.3229C17.3621 31.3229 17.1131 31.0741 17.1131 30.7673L17.1132 30.691C17.1132 27.7335 14.7067 25.3285 11.7494 25.3285C8.79225 25.3284 6.38695 27.7336 6.38695 30.691V30.7673C6.38695 31.074 6.13813 31.3229 5.83135 31.3229C5.52361 31.3229 5.27582 31.0741 5.27582 30.7673L5.27598 30.691C5.27598 27.1213 8.17986 24.2173 11.7494 24.2173C15.319 24.2173 18.2242 27.1214 18.2242 30.691L18.2244 30.7673C18.2244 31.074 17.9754 31.3229 17.6687 31.3229Z" fill="black"/>
<path fill-rule="evenodd" clip-rule="evenodd" d="M28.9171 48.9381H49.9203V46.3419C49.9203 43.9447 47.9697 41.9945 45.5715 41.9945L42.8864 41.9944C40.6142 44.0188 38.2228 44.0189 35.9507 41.9945L33.2644 41.9944C30.8672 41.9944 28.9169 43.9448 28.9169 46.3419L28.9171 48.9381ZM50.4758 50.0492H28.3613C28.0546 50.0492 27.8057 49.8004 27.8057 49.4936L27.8059 46.3419C27.8059 43.3325 30.2549 40.8834 33.2643 40.8834L36.1661 40.8833C36.3072 40.8833 36.4426 40.9366 36.5456 41.0327C38.5052 42.8672 40.3306 42.8672 42.2901 41.0327C42.3932 40.9365 42.5297 40.8834 42.6698 40.8834L45.5717 40.8833C48.5822 40.8833 51.0312 43.3326 51.0312 46.3419L51.0313 49.4936C51.0313 49.8003 50.7823 50.0492 50.4758 50.0492Z" fill="black"/>
<path fill-rule="evenodd" clip-rule="evenodd" d="M36.1662 41.9943C35.8594 41.9943 35.6105 41.7456 35.6105 41.4388L35.6107 38.7836C35.6107 38.4769 35.8594 38.228 36.1661 38.228C36.473 38.228 36.7217 38.4769 36.7217 38.7836L36.7219 41.4388C36.7219 41.7455 36.4728 41.9944 36.1662 41.9943Z" fill="black"/>
<path fill-rule="evenodd" clip-rule="evenodd" d="M42.6697 41.9943C42.3631 41.9943 42.1141 41.7456 42.1141 41.4388L42.1142 38.7836C42.1142 38.4769 42.3629 38.228 42.6697 38.228C42.9777 38.228 43.2252 38.4769 43.2252 38.7836L43.2254 41.4388C43.2254 41.7455 42.9775 41.9944 42.6697 41.9943Z" fill="black"/>
<path fill-rule="evenodd" clip-rule="evenodd" d="M39.4185 40.4762C36.2215 40.4762 33.6207 37.8754 33.6207 34.6785L33.6208 30.6517C33.6208 30.345 33.8684 30.0962 34.1763 30.0962C34.4831 30.0962 34.7318 30.345 34.7318 30.6517L34.7321 34.6785C34.7321 37.263 36.8337 39.3651 39.4184 39.3651C42.0029 39.365 44.1049 37.2631 44.1049 34.6785L44.1051 30.6517C44.1051 30.345 44.3538 30.0962 44.6605 30.0962C44.9674 30.0962 45.216 30.345 45.216 30.6517L45.2161 34.6785C45.2161 37.8754 42.6153 40.4763 39.4185 40.4762Z" fill="black"/>
<path fill-rule="evenodd" clip-rule="evenodd" d="M34.1763 35.212C32.7504 35.212 31.5904 34.0651 31.5904 32.6541C31.5905 31.2443 32.7502 30.0962 34.1762 30.0962C34.483 30.0962 34.7318 30.345 34.7318 30.6517C34.732 30.9585 34.4829 31.2073 34.1762 31.2073C33.3627 31.2073 32.7016 31.8567 32.7016 32.6541C32.7017 33.4515 33.3625 34.101 34.1762 34.101C34.483 34.1009 34.7318 34.3498 34.7318 34.6566C34.732 34.9632 34.4829 35.2121 34.1763 35.212Z" fill="black"/>
<path fill-rule="evenodd" clip-rule="evenodd" d="M44.6606 35.212C44.3538 35.212 44.1049 34.9633 44.1049 34.6566C44.1051 34.3498 44.3537 34.101 44.6605 34.101C45.4742 34.1009 46.135 33.4516 46.135 32.6541C46.1351 31.8566 45.4741 31.2073 44.6605 31.2073C44.3538 31.2073 44.1049 30.9585 44.1049 30.6517C44.1051 30.345 44.3537 30.0962 44.6605 30.0962C46.0864 30.0962 47.2462 31.2444 47.2462 32.6541C47.2464 34.0651 46.0864 35.2121 44.6606 35.212Z" fill="black"/>
<path fill-rule="evenodd" clip-rule="evenodd" d="M44.6605 31.2095C44.6084 31.2095 44.555 31.2014 44.503 31.1852L44.3954 31.1539C42.774 30.6735 41.548 30.3102 40.4079 29.03C38.9809 30.669 36.5744 30.941 34.2375 31.2049C33.9333 31.2396 33.6576 31.0209 33.6241 30.7153C33.5895 30.4107 33.8081 30.1354 34.1137 30.1007C36.9878 29.7765 38.9437 29.4421 39.9114 27.8297C40.0074 27.67 40.1776 27.5682 40.3639 27.5612C40.5491 27.5519 40.7285 27.6388 40.8385 27.7904C41.893 29.2533 42.9543 29.5682 44.7113 30.0891L44.8191 30.1203C45.1131 30.2083 45.2808 30.5174 45.1928 30.8114C45.1212 31.0521 44.9 31.2083 44.6605 31.2095Z" fill="black"/>
<path fill-rule="evenodd" clip-rule="evenodd" d="M45.3365 31.3229C45.03 31.3229 44.7809 31.0741 44.7809 30.7673L44.781 30.691C44.781 27.7335 42.3757 25.3285 39.4185 25.3285C36.4614 25.3284 34.0548 27.7336 34.0548 30.691V30.7673C34.0548 31.074 33.806 31.3229 33.4992 31.3229C33.1925 31.3229 32.9437 31.0741 32.9437 30.7673L32.9438 30.691C32.9438 27.1213 35.8489 24.2173 39.4185 24.2173C42.9882 24.2173 45.8921 27.1214 45.8921 30.691L45.8922 30.7673C45.8922 31.074 45.6444 31.3229 45.3365 31.3229Z" fill="black"/>
<path fill-rule="evenodd" clip-rule="evenodd" d="M22.7639 8.25505C21.7824 8.25505 20.9837 9.05376 20.9837 10.0353C20.9837 10.0584 20.9837 10.0827 20.9848 10.1059C20.9964 10.3986 20.7788 10.6511 20.4859 10.6812C19.5763 10.7736 18.8886 11.5354 18.8886 12.452C18.8888 13.4335 19.6873 14.2334 20.6699 14.2334L30.4981 14.2333C31.4807 14.2333 32.2792 13.4336 32.2792 12.452C32.2794 11.5352 31.5929 10.7738 30.6819 10.6812C30.3903 10.651 30.1727 10.3999 30.1831 10.107C30.1843 10.0839 30.1842 10.0596 30.1842 10.0353C30.1843 9.05376 29.3856 8.25515 28.4041 8.25515C28.242 8.25505 28.0812 8.27597 27.9272 8.31879C27.6482 8.39632 27.3566 8.24704 27.257 7.97501C27.0013 7.27585 26.3287 6.80599 25.5845 6.80599C24.8393 6.80586 24.1667 7.27591 23.9108 7.97501C23.8114 8.24698 23.5196 8.39632 23.2407 8.31879C23.0868 8.27587 22.9259 8.25515 22.7639 8.25505ZM30.4981 15.3445H20.6701C19.0753 15.3445 17.7775 14.047 17.7775 12.452C17.7775 11.1278 18.6606 10.0029 19.8956 9.66375C20.0787 8.24461 21.295 7.14399 22.7638 7.14399C22.8657 7.14392 22.9675 7.14861 23.0682 7.15901C23.5765 6.26771 24.5359 5.69482 25.5845 5.69482C26.632 5.69476 27.5915 6.26778 28.0996 7.15901C28.2003 7.14847 28.3022 7.14399 28.4041 7.14399C29.8731 7.14392 31.0894 8.24471 31.2723 9.66375C32.5086 10.0029 33.3904 11.1279 33.3904 12.452C33.3904 14.0469 32.0929 15.3445 30.4981 15.3445Z" fill="black"/>
<path fill-rule="evenodd" clip-rule="evenodd" d="M24.4563 10.1444C24.4331 10.1444 24.4098 10.1433 24.3866 10.1398C24.0823 10.1016 23.8669 9.82384 23.904 9.51943C23.9133 9.45336 23.9074 9.07843 22.9989 8.17792C22.7801 7.96138 22.7789 7.60962 22.9954 7.39205C23.2109 7.17321 23.5625 7.17208 23.7801 7.38852C24.6982 8.29708 25.0869 9.01825 25.007 9.65717C24.9724 9.93841 24.7327 10.1444 24.4563 10.1444Z" fill="black"/>
<path fill-rule="evenodd" clip-rule="evenodd" d="M28.7155 12.9083C28.7121 12.9083 28.7073 12.9083 28.7039 12.9083C28.3973 12.9013 28.1529 12.6479 28.1599 12.3412C28.1879 10.9904 28.5696 10.1952 30.5789 9.59569C30.8731 9.50765 31.1831 9.67555 31.27 9.96956C31.358 10.2636 31.1912 10.5726 30.8961 10.6605C29.2965 11.1374 29.2872 11.5738 29.271 12.3643C29.2642 12.6664 29.0176 12.9083 28.7155 12.9083Z" fill="black"/>
<path fill-rule="evenodd" clip-rule="evenodd" d="M21.6934 12.4474C21.5371 12.4474 21.383 12.3826 21.273 12.2553C21.0892 12.0423 21.0948 11.7309 21.2753 11.526C21.2024 11.2655 20.6457 10.7251 20.3876 10.6822C20.0811 10.6625 19.8528 10.3987 19.8725 10.0919C19.8922 9.78512 20.1561 9.55372 20.4651 9.57344C21.1228 9.61623 22.0775 10.4369 22.3251 11.1719C22.4757 11.6185 22.3772 12.0342 22.0566 12.3119C21.9514 12.4033 21.8217 12.4474 21.6934 12.4474Z" fill="black"/>
<path fill-rule="evenodd" clip-rule="evenodd" d="M25.5847 2.12812C20.3449 2.12812 16.0819 6.39113 16.0819 11.6297C16.0819 16.8695 20.3448 21.1325 25.5846 21.1325C30.8234 21.1324 35.0861 16.8696 35.0861 11.6297C35.0861 6.39106 30.8232 2.12822 25.5847 2.12812ZM25.5847 22.2435C19.7313 22.2435 14.9707 17.483 14.9707 11.6297C14.9707 5.77761 19.7313 1.01709 25.5846 1.01709C31.4367 1.01702 36.1973 5.77768 36.1973 11.6297C36.1974 17.4829 31.4366 22.2436 25.5847 22.2435Z" fill="black"/>
<path fill-rule="evenodd" clip-rule="evenodd" d="M11.7496 25.3278C11.4429 25.3278 11.1938 25.079 11.1938 24.7723L11.1939 19.0742C11.1939 18.7674 11.4427 18.5186 11.7494 18.5186L18.8205 18.5186C19.1271 18.5186 19.3759 18.7675 19.3759 19.0742C19.376 19.3808 19.1271 19.6298 18.8203 19.6298L12.3051 19.6297V24.7723C12.3051 25.079 12.0561 25.3279 11.7496 25.3278ZM39.4185 25.3278C39.1117 25.3278 38.8628 25.079 38.8628 24.7723L38.863 19.6297H32.3476C32.0408 19.6297 31.7919 19.3809 31.7919 19.0742C31.7921 18.7674 32.0407 18.5186 32.3475 18.5186L39.4185 18.5186C39.7253 18.5186 39.9739 18.7675 39.9739 19.0742L39.9739 24.7723C39.9739 25.079 39.7251 25.3279 39.4185 25.3278Z" fill="black"/>
<path fill-rule="evenodd" clip-rule="evenodd" d="M15.5264 12.1848H8.94385C8.63707 12.1848 8.38824 11.9372 8.38824 11.6293C8.38838 11.3226 8.63707 11.0737 8.94381 11.0737H15.5264C15.8332 11.0737 16.0818 11.3226 16.0818 11.6293C16.0819 11.9372 15.833 12.1849 15.5264 12.1848Z" fill="black"/>
<path fill-rule="evenodd" clip-rule="evenodd" d="M7.34668 10.5876C6.7714 10.5876 6.30486 11.0553 6.30486 11.6294C6.305 12.2046 6.7713 12.6723 7.34654 12.6723C7.92066 12.6722 8.38826 12.2047 8.38826 11.6294C8.38839 11.0552 7.92063 10.5877 7.34668 10.5876ZM7.34668 13.7833C6.15914 13.7833 5.19366 12.8169 5.19366 11.6294C5.19373 10.4429 6.15901 9.47656 7.34654 9.47656C8.53292 9.4765 9.49943 10.443 9.49943 11.6294C9.49962 12.8169 8.53292 13.7834 7.34668 13.7833Z" fill="black"/>
<path fill-rule="evenodd" clip-rule="evenodd" d="M42.2242 12.1848H35.6419C35.3351 12.1848 35.0862 11.9372 35.0862 11.6293C35.0862 11.3226 35.335 11.0737 35.6417 11.0737H42.2242C42.531 11.0737 42.7798 11.3226 42.7798 11.6293C42.78 11.9372 42.5309 12.1849 42.2242 12.1848Z" fill="black"/>
<path fill-rule="evenodd" clip-rule="evenodd" d="M43.8214 10.5876C43.2472 10.5876 42.7795 11.0553 42.7795 11.6294C42.7797 12.2046 43.2471 12.6723 43.8212 12.6723C44.3967 12.6722 44.8629 12.2047 44.8629 11.6294C44.8631 11.0552 44.3965 10.5877 43.8214 10.5876ZM43.8214 13.7833C42.6349 13.7833 41.6684 12.8169 41.6684 11.6294C41.6685 10.4429 42.6348 9.47656 43.8212 9.47656C45.009 9.4765 45.9741 10.443 45.9741 11.6294C45.9741 12.8169 45.0088 13.7834 43.8214 13.7833Z" fill="black"/>
<path fill-rule="evenodd" clip-rule="evenodd" d="M33.6487 6.1756C33.5065 6.1756 33.3651 6.12125 33.2563 6.01243C33.0388 5.79592 33.0387 5.44412 33.2563 5.22652L35.9152 2.56894C36.0193 2.46478 36.1604 2.40579 36.3073 2.40579L42.2243 2.40576C42.5311 2.40576 42.7798 2.65465 42.7798 2.96136C42.78 3.26804 42.531 3.51696 42.2243 3.51696L36.5378 3.5169L34.0424 6.01233C33.9336 6.12118 33.7911 6.17564 33.6487 6.1756Z" fill="black"/>
<path fill-rule="evenodd" clip-rule="evenodd" d="M43.8214 1.91966C43.2472 1.91966 42.7795 2.38736 42.7795 2.96144C42.7797 3.53546 43.2471 4.00315 43.8212 4.00315C44.3967 4.00305 44.8629 3.53556 44.8629 2.96144C44.8631 2.38726 44.3965 1.91973 43.8214 1.91966ZM43.8214 5.11429C42.6349 5.11429 41.6684 4.14901 41.6684 2.96144C41.6685 1.7738 42.6348 0.808594 43.8212 0.808594C45.009 0.808561 45.9741 1.7739 45.9741 2.96144C45.9741 4.14891 45.0088 5.11432 43.8214 5.11429Z" fill="black"/>
<path fill-rule="evenodd" clip-rule="evenodd" d="M17.5195 6.1756C17.377 6.1756 17.2347 6.12125 17.1259 6.01243L14.6306 3.5169H8.94385C8.63707 3.5169 8.38824 3.2681 8.38824 2.96136C8.38838 2.65462 8.63707 2.40579 8.94381 2.40579L14.8608 2.40576C15.0079 2.40576 15.1489 2.46484 15.2531 2.56901L17.9119 5.22645C18.1294 5.44406 18.1294 5.79598 17.9118 6.01243C17.8031 6.12118 17.6618 6.17564 17.5195 6.1756Z" fill="black"/>
<path fill-rule="evenodd" clip-rule="evenodd" d="M7.34668 1.91966C6.7714 1.91966 6.30486 2.38736 6.30486 2.96144C6.305 3.53546 6.7713 4.00315 7.34654 4.00315C7.92066 4.00305 8.38826 3.53556 8.38826 2.96144C8.38839 2.38726 7.92063 1.91973 7.34668 1.91966ZM7.34668 5.11429C6.15914 5.11429 5.19366 4.14901 5.19366 2.96144C5.19373 1.7738 6.15901 0.808594 7.34654 0.808594C8.53292 0.808561 9.49943 1.7739 9.49943 2.96144C9.49962 4.14891 8.53292 5.11432 7.34668 5.11429Z" fill="black"/>
</svg>
