<svg width="50" height="50" viewBox="0 0 50 50" fill="none" xmlns="http://www.w3.org/2000/svg">
<g clip-path="url(#clip0_33761_39488)">
<path d="M40.903 20.2853L42.7259 22.3987C42.97 22.6818 42.9385 23.1091 42.6554 23.3532C42.5276 23.4636 42.3703 23.5175 42.2137 23.5175C42.0237 23.5175 41.8348 23.4379 41.7009 23.2828L40.0805 21.404H32.0564C31.6827 21.404 31.3797 21.1011 31.3797 20.7273C31.3797 20.3536 31.6827 20.0506 32.0564 20.0506H40.3904C40.5872 20.0506 40.7743 20.1362 40.9029 20.2852L40.903 20.2853ZM44.4884 14.836C44.7872 13.7254 45.8024 12.9055 47.006 12.9055C48.4436 12.9055 49.6133 14.0751 49.6133 15.5127C49.6133 16.9503 48.4436 18.1199 47.006 18.1199C45.8024 18.1199 44.7873 17.2999 44.4885 16.1895H41.2855L39.665 18.0681C39.5364 18.2171 39.3494 18.3029 39.1526 18.3029H31.6434C31.2696 18.3029 30.9667 17.9999 30.9667 17.6261C30.9667 17.2524 31.2696 16.9494 31.6434 16.9494H38.8426L40.463 15.0707C40.5916 14.9217 40.7787 14.836 40.9754 14.836H44.4883H44.4884ZM45.7523 15.5127C45.7523 16.204 46.3147 16.7664 47.0059 16.7664C47.6972 16.7664 48.2597 16.2041 48.2597 15.5127C48.2597 14.8214 47.6973 14.259 47.0059 14.259C46.3146 14.259 45.7523 14.8214 45.7523 15.5127ZM29.6137 26.9301C29.6137 27.3039 29.9167 27.6069 30.2905 27.6069H37.5473C37.921 27.6069 38.224 27.3039 38.224 26.9301C38.224 26.5563 37.921 26.2533 37.5473 26.2533H30.2905C29.9167 26.2533 29.6137 26.5563 29.6137 26.9301ZM38.224 14.5248C38.224 14.1511 37.921 13.8481 37.5473 13.8481H30.2905C29.9167 13.8481 29.6137 14.1511 29.6137 14.5248C29.6137 14.8986 29.9167 15.2016 30.2905 15.2016H37.5473C37.921 15.2016 38.224 14.8986 38.224 14.5248ZM44.1278 37.8269C44.1278 39.3385 42.898 40.5682 41.3864 40.5682C39.8748 40.5682 38.6451 39.3384 38.6451 37.8269C38.6451 36.5488 39.5244 35.4723 40.7096 35.1702V30.7082H35.845L35.8941 30.7815C36.3161 31.4108 36.2367 32.2246 35.7009 32.7605L32.3243 36.137C31.7885 36.6728 30.9748 36.7524 30.3454 36.3302L28.4647 35.069L24.6528 36.6482L24.6186 36.8216V47.8731C24.6186 48.8327 23.8379 49.6134 22.8783 49.6134H17.7041C16.7446 49.6134 15.9639 48.8327 15.9639 47.8731V36.8213L15.9298 36.6482L12.1179 35.069L10.2371 36.3303C9.60769 36.7522 8.79394 36.6729 8.25824 36.1371L4.8818 32.7606C4.346 32.2248 4.26653 31.411 4.68854 30.7817L5.94982 28.9009L4.37056 25.0889L2.14915 24.651C1.40578 24.5045 0.886414 23.8729 0.886414 23.115V18.3399C0.886414 17.582 1.40578 16.9505 2.14924 16.804L4.37046 16.366L5.94972 12.554L4.68844 10.6732C4.26643 10.044 4.34581 9.23037 4.8816 8.69447L8.25814 5.31803C8.79394 4.78214 9.6076 4.70276 10.237 5.12458L12.1178 6.38586L15.9298 4.8066L16.3677 2.58519C16.5143 1.84182 17.1459 1.32255 17.9037 1.32255H22.6789C23.4367 1.32255 24.0683 1.84172 24.2147 2.58519L24.6528 4.8066L28.4648 6.38586L30.3455 5.12467C30.975 4.70267 31.7886 4.78223 32.3244 5.31803L35.7009 8.69447C36.2367 9.23027 36.3161 10.0439 35.8942 10.6733L35.845 10.7467H40.7096V6.28464C39.5244 5.98251 38.6451 4.90608 38.6451 3.62807C38.6451 2.11648 39.8748 0.886719 41.3864 0.886719C42.898 0.886719 44.1278 2.11658 44.1278 3.62807C44.1278 4.90618 43.2485 5.98251 42.0632 6.28464V11.4235C42.0632 11.7972 41.7602 12.1002 41.3864 12.1002H27.492C27.3419 12.1002 27.1961 12.0502 27.0774 11.9584C25.1198 10.4412 22.7732 9.63923 20.2914 9.63923C14.1773 9.63923 9.20309 14.6134 9.20309 20.7275C9.20309 25.2244 11.8839 29.2166 15.964 30.9398V27.4834C13.675 26.0141 12.2691 23.4611 12.2692 20.7274C12.2692 17.7682 13.8901 15.0588 16.4993 13.6568C16.709 13.5441 16.9625 13.55 17.1669 13.6721C17.3712 13.7943 17.4964 14.0149 17.4964 14.253V20.5312L20.2914 22.1446L23.0863 20.5312V14.253C23.0863 14.0149 23.2115 13.7943 23.4158 13.6721C23.6203 13.5499 23.8737 13.5442 24.0834 13.6568C26.6926 15.0588 28.3135 17.768 28.3135 20.7274C28.3135 23.5044 26.9398 26.0016 24.6186 27.484V30.9396C25.4941 30.5683 26.3182 30.085 27.0773 29.4967C27.196 29.4047 27.3417 29.3547 27.4919 29.3547H41.3862C41.76 29.3547 42.063 29.6577 42.063 30.0315V35.1702C43.2483 35.4723 44.1276 36.5489 44.1276 37.8269H44.1278ZM41.3864 5.01581C42.1517 5.01581 42.7742 4.39329 42.7742 3.62807C42.7742 2.86285 42.1517 2.24023 41.3864 2.24023C40.6211 2.24023 39.9986 2.86275 39.9986 3.62807C39.9986 4.39339 40.6211 5.01581 41.3864 5.01581ZM15.9641 35.1971V32.3959C11.0903 30.5925 7.84967 25.9647 7.84967 20.7274C7.84967 13.8669 13.431 8.28561 20.2915 8.28561C22.9979 8.28561 25.5612 9.13572 27.7201 10.7466H34.2155L34.7702 9.9194C34.8291 9.83152 34.8189 9.72624 34.7439 9.65141L31.3675 6.27506C31.2926 6.20014 31.1874 6.18989 31.0996 6.24877L28.9179 7.71192C28.7298 7.83809 28.4911 7.86167 28.282 7.77505L23.8003 5.91832C23.5911 5.83169 23.4392 5.64616 23.3954 5.42409L22.8872 2.84709C22.8668 2.74326 22.7851 2.67616 22.6793 2.67616H17.9041C17.7982 2.67616 17.7165 2.74316 17.6961 2.847L17.1881 5.42399C17.1443 5.64616 16.9923 5.83169 16.7832 5.91832L12.3015 7.77505C12.0924 7.86187 11.8537 7.83809 11.6655 7.71192L9.48375 6.24877C9.39587 6.19008 9.29059 6.20033 9.21576 6.27497L5.83931 9.65141C5.76448 9.72624 5.75414 9.83143 5.81311 9.91931L7.27636 12.1013C7.40253 12.2893 7.42621 12.528 7.33949 12.7372L5.48276 17.2187C5.39613 17.4279 5.21061 17.5798 4.98853 17.6236L2.41163 18.1318C2.3077 18.1523 2.24051 18.234 2.24051 18.3397V23.1148C2.24051 23.2208 2.30761 23.3024 2.41144 23.3228L4.98853 23.8308C5.21061 23.8746 5.39613 24.0266 5.48286 24.2358L7.33959 28.7175C7.42621 28.9266 7.40253 29.1653 7.27646 29.3534L5.81331 31.5351C5.75433 31.623 5.76468 31.7283 5.83951 31.8031L9.21595 35.1797C9.29068 35.2544 9.39597 35.2647 9.48385 35.2058L11.6657 33.7426C11.8537 33.6164 12.0924 33.5926 12.3017 33.6795L15.9645 35.197L15.9641 35.1971ZM23.2652 27.1028C23.2652 26.8603 23.3949 26.6365 23.6052 26.5158C25.7059 25.3103 26.9601 23.1463 26.9601 20.7273C26.9601 18.7059 25.9992 16.7649 24.4399 15.5105V20.9217C24.4399 21.1635 24.3109 21.387 24.1015 21.5078L20.6299 23.5121C20.4204 23.6329 20.1625 23.6329 19.9531 23.5121L16.4813 21.5078C16.2719 21.3869 16.143 21.1634 16.143 20.9217V15.5051C14.5654 16.7578 13.6228 18.67 13.6228 20.7274C13.6228 23.1104 14.9083 25.3284 16.9777 26.5159C17.188 26.6366 17.3176 26.8604 17.3176 27.1029V47.873C17.3176 48.0863 17.4911 48.2598 17.7043 48.2598H22.8785C23.0918 48.2598 23.2652 48.0863 23.2652 47.873V27.1028ZM34.7701 31.5352L34.2155 30.7081H27.7201C26.7675 31.4186 25.7269 31.9844 24.6188 32.3952V35.1972L28.2817 33.6796C28.4909 33.5929 28.7295 33.6167 28.9176 33.7427L31.0995 35.2059C31.1876 35.2648 31.2927 35.2546 31.3674 35.1798L34.7439 31.8032C34.8188 31.7283 34.8291 31.6231 34.7701 31.5351V31.5352ZM42.7743 37.8268C42.7743 37.0615 42.1518 36.4389 41.3865 36.4389C40.6212 36.4389 39.9987 37.0615 39.9987 37.8268C39.9987 38.5921 40.6212 39.2146 41.3865 39.2146C42.1518 39.2146 42.7743 38.5921 42.7743 37.8268ZM49.6133 25.9421C49.6133 27.3797 48.4436 28.5493 47.0061 28.5493C45.8025 28.5493 44.7874 27.7294 44.4886 26.6189H40.9756C40.7788 26.6189 40.5917 26.5331 40.4631 26.3841L38.8427 24.5054H31.6435C31.2697 24.5054 30.9668 24.2024 30.9668 23.8286C30.9668 23.4549 31.2697 23.1519 31.6435 23.1519H39.1527C39.3496 23.1519 39.5366 23.2376 39.6652 23.3866L41.2857 25.2654H44.4886C44.7874 24.1548 45.8025 23.3349 47.0061 23.3349C48.4437 23.3349 49.6133 24.5045 49.6133 25.9421ZM48.2598 25.9421C48.2598 25.2509 47.6974 24.6884 47.0061 24.6884C46.3148 24.6884 45.7525 25.2508 45.7525 25.9421C45.7525 26.6335 46.3148 27.1958 47.0061 27.1958C47.6974 27.1958 48.2598 26.6335 48.2598 25.9421Z" fill="black"/>
</g>
<defs>
<clipPath id="clip0_33761_39488">
<rect width="49.5" height="49.5" fill="white" transform="translate(0.5 0.5)"/>
</clipPath>
</defs>
</svg>
