<svg width="50" height="50" viewBox="0 0 50 50" fill="none" xmlns="http://www.w3.org/2000/svg">
<path d="M24.75 27.3182C26.9175 27.3182 29.0363 26.6755 30.8385 25.4713C32.6408 24.2672 34.0455 22.5557 34.8751 20.5533C35.7047 18.5508 35.9219 16.3474 35.4993 14.2215C35.0766 12.0956 34.0331 10.1428 32.5007 8.60995C30.9682 7.07711 29.0157 6.03308 26.8899 5.60987C24.7641 5.18666 22.5606 5.40329 20.558 6.23235C18.5553 7.06141 16.8434 8.46568 15.6388 10.2676C14.4342 12.0695 13.791 14.1882 13.7904 16.3556C13.793 19.2618 14.9484 22.0482 17.0031 24.1035C19.0577 26.1587 21.8439 27.3148 24.75 27.3182ZM24.75 6.40343C26.7198 6.40343 28.6453 6.98761 30.283 8.08206C31.9207 9.17652 33.197 10.7321 33.9506 12.552C34.7041 14.3719 34.901 16.3745 34.5163 18.3063C34.1316 20.2381 33.1826 22.0124 31.7893 23.4049C30.3961 24.7973 28.6212 25.7452 26.6892 26.1288C24.7571 26.5124 22.7547 26.3144 20.9352 25.5598C19.1157 24.8052 17.5609 23.5279 16.4674 21.8896C15.3739 20.2512 14.7909 18.3254 14.792 16.3556C14.7958 13.7163 15.8464 11.1863 17.7132 9.32056C19.5801 7.45482 22.1107 6.40573 24.75 6.40343Z" fill="black"/>
<path d="M39.3602 31.8975L33.5304 27.8689C33.4693 27.8273 33.3998 27.7996 33.3269 27.7875C33.2539 27.7755 33.1792 27.7795 33.108 27.7993C33.0366 27.8192 32.9706 27.8549 32.9148 27.9035C32.8589 27.9522 32.8146 28.0127 32.785 28.0806L27.3429 40.5252L26.5308 33.7277C27.098 33.3461 27.5277 32.7924 27.7565 32.1482C27.9852 31.5041 28.0011 30.8034 27.8016 30.1496C27.6021 29.4957 27.1979 28.9232 26.6485 28.5164C26.0991 28.1097 25.4336 27.8901 24.75 27.8901C24.0664 27.8901 23.4009 28.1097 22.8515 28.5164C22.3021 28.9232 21.8979 29.4957 21.6984 30.1496C21.4989 30.8034 21.5148 31.5041 21.7435 32.1482C21.9723 32.7924 22.402 33.3461 22.9692 33.7277L22.157 40.5252L16.7159 28.0806C16.6862 28.0128 16.6419 27.9523 16.5861 27.9037C16.5302 27.855 16.4643 27.8194 16.393 27.7993C16.3216 27.7796 16.2467 27.7756 16.1736 27.7876C16.1005 27.7996 16.0309 27.8274 15.9695 27.8689L10.1398 31.8975C9.74604 32.1696 9.43251 32.5423 9.23185 32.9767C9.03119 33.4112 8.95076 33.8916 8.99894 34.3677L10.0363 44.6486C10.0549 44.7765 10.1219 44.8923 10.2236 44.972C10.3252 45.0518 10.4536 45.0893 10.5822 45.0769C10.7108 45.0644 10.8297 45.003 10.9142 44.9052C10.9987 44.8075 11.0423 44.681 11.036 44.5519L9.99861 34.2671C9.96774 33.9691 10.0176 33.6682 10.143 33.3961C10.2683 33.1239 10.4646 32.8905 10.7111 32.7203L16.0392 29.0387L21.9772 42.6164C22.0217 42.7172 22.0979 42.8006 22.1944 42.8538C22.2908 42.907 22.402 42.927 22.5109 42.9109C22.6199 42.8947 22.7205 42.8433 22.7973 42.7644C22.8742 42.6855 22.923 42.5836 22.9363 42.4743L24.0056 33.5198C24.0175 33.4187 23.9984 33.3163 23.951 33.2262C23.9035 33.1361 23.8298 33.0625 23.7397 33.0151C23.3046 32.789 22.958 32.4234 22.7554 31.9768C22.5528 31.5303 22.5059 31.0287 22.6223 30.5523C22.7387 30.076 23.0116 29.6525 23.3973 29.3497C23.783 29.0469 24.2592 28.8823 24.7495 28.8823C25.2399 28.8823 25.716 29.0469 26.1017 29.3497C26.4874 29.6525 26.7603 30.076 26.8767 30.5523C26.9931 31.0287 26.9463 31.5303 26.7437 31.9768C26.5411 32.4234 26.1944 32.789 25.7593 33.0151C25.6695 33.0628 25.5961 33.1364 25.5488 33.2265C25.5015 33.3166 25.4826 33.4188 25.4944 33.5198L26.5637 42.4743C26.577 42.5836 26.6258 42.6855 26.7027 42.7644C26.7795 42.8433 26.8801 42.8947 26.9891 42.9109C27.098 42.927 27.2092 42.907 27.3056 42.8538C27.4021 42.8006 27.4783 42.7172 27.5228 42.6164L33.4608 29.0426L38.7898 32.7241C39.0361 32.8946 39.2321 33.1281 39.3573 33.4002C39.4825 33.6723 39.5322 33.9731 39.5014 34.271L38.464 44.5481C38.4508 44.6806 38.4907 44.813 38.575 44.9161C38.6593 45.0193 38.781 45.0847 38.9136 45.0982C38.9306 45.0991 38.9477 45.0991 38.9648 45.0982C39.0891 45.0981 39.209 45.0518 39.3011 44.9684C39.3933 44.885 39.4512 44.7704 39.4637 44.6467L40.5011 34.3658C40.5486 33.89 40.4678 33.4101 40.2672 32.9761C40.0666 32.542 39.7534 32.1696 39.3602 31.8975Z" fill="black"/>
<path d="M24.75 11.1346C24.816 11.1346 24.8813 11.1216 24.9423 11.0964C25.0032 11.0711 25.0586 11.034 25.1052 10.9873C25.1518 10.9406 25.1887 10.8852 25.2139 10.8242C25.2391 10.7632 25.2519 10.6979 25.2518 10.6319V8.3928C25.2461 8.26341 25.1907 8.1412 25.0972 8.05165C25.0036 7.9621 24.8791 7.91211 24.7496 7.91211C24.62 7.91211 24.4955 7.9621 24.402 8.05165C24.3084 8.1412 24.253 8.26341 24.2473 8.3928V10.6358C24.2483 10.7684 24.3018 10.8953 24.3959 10.9888C24.4901 11.0822 24.6174 11.1346 24.75 11.1346Z" fill="black"/>
<path d="M30.4077 17.0159C30.4077 17.149 30.4606 17.2766 30.5547 17.3707C30.6488 17.4648 30.7764 17.5177 30.9095 17.5177H33.1515C33.2193 17.5207 33.287 17.5099 33.3505 17.486C33.4141 17.4621 33.4721 17.4256 33.5211 17.3786C33.5702 17.3317 33.6092 17.2753 33.6359 17.2129C33.6625 17.1505 33.6763 17.0833 33.6763 17.0154C33.6763 16.9476 33.6625 16.8804 33.6359 16.818C33.6092 16.7555 33.5702 16.6992 33.5211 16.6522C33.4721 16.6053 33.4141 16.5688 33.3505 16.5449C33.287 16.521 33.2193 16.5102 33.1515 16.5132H30.9095C30.8435 16.5132 30.7782 16.5262 30.7172 16.5515C30.6563 16.5767 30.6009 16.6138 30.5543 16.6605C30.5077 16.7072 30.4708 16.7626 30.4456 16.8236C30.4205 16.8846 30.4076 16.9499 30.4077 17.0159Z" fill="black"/>
<path d="M29.1508 13.0531C29.2168 13.0531 29.2822 13.0401 29.3431 13.0147C29.404 12.9893 29.4592 12.9521 29.5056 12.9051L31.0921 11.3196C31.1814 11.2244 31.23 11.0982 31.2279 10.9677C31.2258 10.8372 31.173 10.7127 31.0807 10.6204C30.9885 10.5281 30.8639 10.4753 30.7334 10.4732C30.603 10.4711 30.4768 10.5198 30.3815 10.609L28.796 12.1984C28.726 12.2687 28.6783 12.3582 28.659 12.4555C28.6397 12.5529 28.6497 12.6537 28.6876 12.7454C28.7255 12.8371 28.7898 12.9155 28.8722 12.9708C28.9546 13.0261 29.0516 13.0557 29.1508 13.056V13.0531Z" fill="black"/>
<path d="M19.0932 17.0159C19.0932 16.8826 19.0403 16.7547 18.946 16.6604C18.8517 16.5661 18.7238 16.5132 18.5905 16.5132H16.3485C16.2807 16.5102 16.213 16.521 16.1495 16.5449C16.0859 16.5688 16.0279 16.6053 15.9789 16.6522C15.9298 16.6992 15.8908 16.7555 15.8641 16.818C15.8375 16.8804 15.8237 16.9476 15.8237 17.0154C15.8237 17.0833 15.8375 17.1505 15.8641 17.2129C15.8908 17.2753 15.9298 17.3317 15.9789 17.3786C16.0279 17.4256 16.0859 17.4621 16.1495 17.486C16.213 17.5099 16.2807 17.5207 16.3485 17.5177H18.5905C18.7237 17.5177 18.8514 17.4648 18.9457 17.3708C19.0399 17.2767 19.093 17.1491 19.0932 17.0159Z" fill="black"/>
<path d="M19.9934 12.9049C20.04 12.9515 20.0953 12.9886 20.1562 13.0138C20.2171 13.0391 20.2824 13.0521 20.3483 13.0522C20.4143 13.0522 20.4796 13.0393 20.5405 13.0141C20.6014 12.9889 20.6568 12.952 20.7035 12.9054C20.7501 12.8588 20.7872 12.8034 20.8124 12.7425C20.8377 12.6816 20.8507 12.6164 20.8508 12.5504C20.8508 12.4845 20.8379 12.4192 20.8127 12.3582C20.7875 12.2973 20.7506 12.2419 20.704 12.1953L19.1184 10.6087C19.0718 10.5621 19.0164 10.5252 18.9554 10.5C18.8945 10.4748 18.8292 10.4619 18.7633 10.4619C18.6301 10.462 18.5024 10.515 18.4083 10.6092C18.3142 10.7035 18.2614 10.8312 18.2615 10.9644C18.2616 11.0976 18.3146 11.2252 18.4088 11.3193L19.9934 12.9049Z" fill="black"/>
<path d="M21.9057 20.2412V21.3627C21.906 21.4957 21.9589 21.6232 22.053 21.7172C22.147 21.8113 22.2745 21.8642 22.4075 21.8645H27.0578C27.191 21.8645 27.3187 21.8117 27.4129 21.7176C27.5072 21.6235 27.5603 21.4959 27.5605 21.3627V20.2412C28.3145 19.6525 28.866 18.8431 29.1379 17.9259C29.4098 17.0087 29.3886 16.0296 29.0773 15.125C28.766 14.2205 28.1801 13.4356 27.4013 12.8801C26.6225 12.3245 25.6898 12.0259 24.7331 12.0259C23.7765 12.0259 22.8437 12.3245 22.065 12.8801C21.2862 13.4356 20.7003 14.2205 20.389 15.125C20.0777 16.0296 20.0565 17.0087 20.3284 17.9259C20.6003 18.8431 21.1517 19.6525 21.9057 20.2412ZM24.7327 13.0328C25.4981 13.0325 26.2435 13.2769 26.8602 13.7304C27.4768 14.1838 27.9323 14.8226 28.1601 15.5533C28.388 16.284 28.3762 17.0684 28.1266 17.792C27.877 18.5155 27.4025 19.1403 26.7726 19.5751C26.7057 19.6212 26.6511 19.6829 26.6133 19.7548C26.5756 19.8267 26.5559 19.9067 26.556 19.9879V20.8581H22.9131V19.9879C22.9132 19.9067 22.8935 19.8267 22.8558 19.7548C22.8181 19.6829 22.7634 19.6212 22.6966 19.5751C22.0667 19.1404 21.5923 18.5157 21.3427 17.7922C21.093 17.0687 21.0812 16.2844 21.3089 15.5537C21.5366 14.8231 21.992 14.1843 22.6084 13.7308C23.2249 13.2773 23.9702 13.0327 24.7356 13.0328H24.7327Z" fill="black"/>
<path d="M27.0094 23.3164H22.4568C22.3274 23.3221 22.2052 23.3775 22.1156 23.4711C22.0261 23.5646 21.9761 23.6891 21.9761 23.8187C21.9761 23.9482 22.0261 24.0727 22.1156 24.1663C22.2052 24.2598 22.3274 24.3152 22.4568 24.3209H27.0094C27.1388 24.3152 27.261 24.2598 27.3506 24.1663C27.4401 24.0727 27.4901 23.9482 27.4901 23.8187C27.4901 23.6891 27.4401 23.5646 27.3506 23.4711C27.261 23.3775 27.1388 23.3221 27.0094 23.3164Z" fill="black"/>
</svg>
