<svg width="48" height="48" viewBox="0 0 48 48" fill="none" xmlns="http://www.w3.org/2000/svg">
<path d="M23.307 10.5762H9.93604C9.10761 10.5762 8.43604 11.2477 8.43604 12.0762C8.43604 12.9046 9.10761 13.5762 9.93604 13.5762H23.307C24.1355 13.5762 24.807 12.9046 24.807 12.0762C24.807 11.2477 24.1355 10.5762 23.307 10.5762Z" fill="#A9A7B0"/>
<path d="M17.1825 17.7236H9.81445C8.98603 17.7236 8.31445 18.3952 8.31445 19.2236C8.31445 20.0521 8.98603 20.7236 9.81445 20.7236H17.1825C18.0109 20.7236 18.6825 20.0521 18.6825 19.2236C18.6825 18.3952 18.0109 17.7236 17.1825 17.7236Z" fill="#A9A7B0"/>
<path d="M29.6431 29.7236C30.4715 29.7236 31.1431 29.0521 31.1431 28.2236C31.1431 27.3952 30.4715 26.7236 29.6431 26.7236C28.8146 26.7236 28.1431 27.3952 28.1431 28.2236C28.1431 29.0521 28.8146 29.7236 29.6431 29.7236Z" fill="#A9A7B0"/>
<path d="M23.6354 46.5288C22.6274 46.5288 21.6314 46.2723 20.7269 45.7683C19.3259 44.9883 18.3134 43.7103 17.8754 42.1698C17.4359 40.6278 17.6234 39.0093 18.4034 37.6083L21.8939 31.3398L24.5159 32.7993L21.0254 39.0678C20.6354 39.7683 20.5424 40.5783 20.7599 41.3493C20.9789 42.1203 21.4859 42.7593 22.1864 43.1493C22.8869 43.5393 23.6984 43.6308 24.4679 43.4133C25.2389 43.1943 25.8764 42.6873 26.2664 41.9868L30.3704 34.9533L32.9609 36.4653L28.8719 43.4718C28.1084 44.8458 26.8304 45.8583 25.2884 46.2978C24.7439 46.4538 24.1889 46.5303 23.6354 46.5303V46.5288Z" fill="#A9A7B0"/>
<path d="M35.6549 46.5242C33.5459 46.5242 31.4984 45.4127 30.4004 43.4447L28.3484 39.9272L30.9419 38.4152L33.0089 41.9582C33.8279 43.4297 35.6579 43.9532 37.1039 43.1462C38.5484 42.3407 39.0704 40.5107 38.2634 39.0647L34.8014 32.8472L37.4234 31.3877L40.8854 37.6052C42.4934 40.4957 41.4524 44.1572 38.5619 45.7652C37.6409 46.2782 36.6404 46.5212 35.6549 46.5212V46.5242Z" fill="#A9A7B0"/>
<path d="M35.937 16.5762C33.456 16.5762 31.437 14.5572 31.437 12.0762C31.437 9.59517 33.456 7.57617 35.937 7.57617C38.418 7.57617 40.437 9.59517 40.437 12.0762C40.437 14.5572 38.418 16.5762 35.937 16.5762ZM35.937 10.5762C35.109 10.5762 34.437 11.2497 34.437 12.0762C34.437 12.9027 35.109 13.5762 35.937 13.5762C36.765 13.5762 37.437 12.9027 37.437 12.0762C37.437 11.2497 36.765 10.5762 35.937 10.5762Z" fill="#A9A7B0"/>
<path d="M15.618 34.5H9C4.8585 34.5 1.5 31.1415 1.5 27V9C1.5 4.8585 4.8585 1.5 9 1.5H39C43.1415 1.5 46.5 4.8585 46.5 9V27C46.5 29.022 45.708 30.903 44.322 32.289C43.6635 32.9475 42.564 32.8335 42.078 32.0385L41.997 31.9065C41.6415 31.326 41.778 30.6045 42.252 30.114C43.0485 29.2875 43.5015 28.1835 43.5015 26.9985V9C43.5015 6.5145 41.487 4.5 39.0015 4.5H9C6.5145 4.5 4.5 6.5145 4.5 9V27C4.5 29.4855 6.5145 31.5 9 31.5H15.618C16.404 31.5 17.04 32.1375 17.04 32.922V33.0765C17.04 33.8625 16.4025 34.5 15.618 34.5Z" fill="#A9A7B0"/>
<path d="M29.7029 37.2227C24.7394 37.2227 20.7029 33.1862 20.7029 28.2227C20.7029 23.2592 24.7394 19.2227 29.7029 19.2227C34.6664 19.2227 38.7029 23.2592 38.7029 28.2227C38.7029 33.1862 34.6664 37.2227 29.7029 37.2227ZM29.7029 22.2227C26.3939 22.2227 23.7029 24.9137 23.7029 28.2227C23.7029 31.5317 26.3939 34.2227 29.7029 34.2227C33.0119 34.2227 35.7029 31.5317 35.7029 28.2227C35.7029 24.9137 33.0119 22.2227 29.7029 22.2227Z" fill="#CFA935"/>
</svg>
