<svg width="64" height="50" viewBox="0 0 64 50" fill="none" xmlns="http://www.w3.org/2000/svg">
<g clip-path="url(#clip0_515_41)">
<path d="M27.662 7.82568L22.3794 20.2051H13.2587L5.25205 12.2208C5.58872 11.7629 5.79072 11.2013 5.79072 10.5909C5.79072 9.07706 4.55422 7.844 3.03615 7.844C1.51807 7.844 0.281578 9.07706 0.281578 10.5909C0.281578 12.1048 1.51807 13.3378 3.03615 13.3378C3.38506 13.3378 3.72173 13.2707 4.03392 13.1486L12.6282 21.719H21.7305L20.543 24.5025H5.53975C5.2092 23.3549 4.15022 22.5186 2.89536 22.5186C1.37729 22.5186 0.140789 23.7517 0.140789 25.2656C0.140789 26.7794 1.37729 28.0125 2.89536 28.0125C4.15022 28.0125 5.2092 27.1701 5.53975 26.0286H19.8941L18.7066 28.8121H12.3466L3.75234 37.3825C3.44627 37.2604 3.1096 37.1933 2.75457 37.1933C1.2365 37.1933 0 38.4263 0 39.9402C0 41.4541 1.2365 42.6871 2.75457 42.6871C4.27264 42.6871 5.50914 41.4541 5.50914 39.9402C5.50914 39.3298 5.30714 38.7682 4.97047 38.3104L12.9771 30.326H18.0577L12.7873 42.6871H20.5736L23.7505 34.9225H38.4293L41.6063 42.6871H49.5884L34.7076 7.82568H27.6681H27.662ZM26.4745 28.2017L31.0899 16.976L35.7054 28.2017H26.4806H26.4745Z" fill="#CFA935"/>
<path d="M64.2858 7.91724H56.6465V42.5406H64.2858V7.91724Z" fill="#CFA935"/>
</g>
<defs>
<clipPath id="clip0_515_41">
<rect width="64" height="50" fill="white"/>
</clipPath>
</defs>
</svg>
