<svg width="80" height="80" viewBox="0 0 80 80" fill="none" xmlns="http://www.w3.org/2000/svg">
<path d="M32.5648 13.625H35.0289V16.2906C35.0289 16.7219 35.3789 17.0719 35.8102 17.0719C36.2414 17.0719 36.5914 16.7219 36.5914 16.2906V12.8438C36.5914 12.4125 36.2414 12.0625 35.8102 12.0625H32.5648C32.4336 12.0625 32.3711 11.9844 32.343 11.9187C32.3133 11.8531 32.2977 11.7547 32.3852 11.6578L39.8195 3.36406C39.8805 3.29531 39.9523 3.28125 40.0008 3.28125C40.0492 3.28125 40.1211 3.29531 40.182 3.36406L47.6164 11.6578C47.7039 11.7547 47.6867 11.8531 47.6586 11.9187C47.6289 11.9844 47.5664 12.0625 47.4367 12.0625H44.1914C43.7602 12.0625 43.4102 12.4125 43.4102 12.8438V16.2906C43.4102 16.7219 43.7602 17.0719 44.1914 17.0719C44.6227 17.0719 44.9727 16.7219 44.9727 16.2906V13.625H47.4367C48.1602 13.625 48.7914 13.2156 49.0852 12.5562C49.3789 11.8969 49.2633 11.1531 48.7805 10.6141L41.343 2.32031C41.0008 1.9375 40.5102 1.71875 39.9992 1.71875C39.4883 1.71875 38.9977 1.9375 38.6555 2.32031L31.2211 10.6141C30.7383 11.1516 30.6211 11.8969 30.9164 12.5562C31.2102 13.2156 31.8414 13.625 32.5648 13.625ZM69.1852 52.5453C69.6805 53.5016 69.5805 54.55 68.9133 55.4187C68.2789 56.2437 67.3086 56.6969 66.1773 56.6969H63.3742V63.7797C63.3742 67.4031 60.4258 70.3516 56.8023 70.3516H54.7523C53.7039 70.3516 53.0914 71.3094 52.9508 72.2594L52.157 77.6156C52.1008 77.9984 51.7711 78.2828 51.3836 78.2828H27.1164C26.8977 78.2828 26.6883 78.1906 26.5398 78.0297C26.3914 77.8688 26.318 77.6516 26.3367 77.4344L27.3352 65.9344C27.5758 63.1672 26.4633 60.5734 24.0273 58.2266C19.443 53.8078 16.918 47.8688 16.918 41.5031C16.918 28.6953 27.3383 18.275 40.1461 18.275C52.8898 18.275 63.2695 28.5906 63.3727 41.3109L69.1852 52.5453ZM67.7977 53.2625L61.8992 41.8578C61.8414 41.7469 61.8117 41.6234 61.8117 41.4984C61.8117 29.5516 52.093 19.8328 40.1461 19.8328C28.1992 19.8328 18.4805 29.5516 18.4805 41.4984C18.4805 47.4359 20.8352 52.975 25.1117 57.0969C27.8633 59.75 29.1711 62.8516 28.8914 66.0656L27.9695 76.7188H50.7117L51.407 72.0297C51.6898 70.1219 53.0664 68.7891 54.7539 68.7891H56.8039C59.5664 68.7891 61.8133 66.5422 61.8133 63.7797V55.9156C61.8133 55.4844 62.1633 55.1344 62.5945 55.1344H66.1789C66.8133 55.1344 67.3445 54.8969 67.6758 54.4656C67.9695 54.0812 68.0117 53.6766 67.7977 53.2625ZM47.1039 41.5C47.1039 45.3359 43.9836 48.4562 40.1477 48.4562C36.3117 48.4562 33.1914 45.3359 33.1914 41.5C33.1914 37.6641 36.3117 34.5438 40.1477 34.5438C43.9836 34.5422 47.1039 37.6641 47.1039 41.5ZM45.5414 41.5C45.5414 38.525 43.1211 36.1063 40.1477 36.1063C37.1742 36.1063 34.7539 38.5266 34.7539 41.5C34.7539 44.4734 37.1742 46.8937 40.1477 46.8937C43.1211 46.8937 45.5414 44.4734 45.5414 41.5ZM55.668 39.8781C55.7805 40.9547 55.7805 42.0453 55.668 43.1219C55.5492 44.2719 54.6617 45.1484 53.5102 45.2563L51.368 45.4547C51.0023 45.4891 50.8555 45.7531 50.8102 45.8656C50.7648 45.9781 50.682 46.2688 50.9195 46.55L52.3055 48.1937C53.0508 49.0766 53.068 50.325 52.3461 51.2281C51.6445 52.1062 50.8461 52.9109 49.9742 53.6203C49.0773 54.3484 47.8289 54.3422 46.9398 53.6047L45.2852 52.2313C45.0023 51.9969 44.7117 52.0812 44.5992 52.1281C44.4867 52.175 44.2242 52.3234 44.193 52.6891L44.0102 54.8344C43.9133 55.9859 43.0414 56.8812 41.8914 57.0094C41.3117 57.0734 40.7289 57.1063 40.1461 57.1063C39.5633 57.1063 38.9805 57.0734 38.4008 57.0094C37.2508 56.8812 36.3805 55.9875 36.282 54.8344L36.1008 52.6891C36.0695 52.3234 35.8055 52.175 35.6945 52.1281C35.582 52.0812 35.2914 51.9969 35.0086 52.2313L33.3539 53.6047C32.4648 54.3422 31.2164 54.35 30.3195 53.6203C29.4461 52.9109 28.6492 52.1062 27.9477 51.2281C27.2273 50.325 27.243 49.0781 27.9883 48.1937L29.3742 46.55C29.6117 46.2688 29.5289 45.9781 29.4836 45.8656C29.4383 45.7531 29.2914 45.4891 28.9258 45.4547L26.7836 45.2563C25.6336 45.15 24.6258 43.1219 24.6258 43.1219C24.1217 41.9597 24.6258 39.8781 24.6258 39.8781C24.7461 38.7281 25.632 37.8516 26.7836 37.7438L28.9258 37.5453C29.2914 37.5109 29.4383 37.2469 29.4836 37.1344C29.5289 37.0219 29.6117 36.7313 29.3742 36.45L27.9883 34.8062C27.243 33.9234 27.2258 32.675 27.9477 31.7719C28.6492 30.8937 29.4477 30.0891 30.3195 29.3797C31.2164 28.6516 32.4648 28.6578 33.3539 29.3953L35.0086 30.7687C35.2914 31.0031 35.582 30.9203 35.6945 30.8734C35.807 30.8266 36.0695 30.6781 36.1008 30.3125L36.282 28.1672C36.3805 27.0156 37.2508 26.1203 38.4008 25.9922C39.5586 25.8625 40.7336 25.8625 41.8914 25.9922C43.0414 26.1203 43.9117 27.0141 44.0102 28.1672L44.193 30.3109C44.2242 30.6766 44.4883 30.825 44.5992 30.8719C44.7117 30.9188 45.0023 31.0031 45.2852 30.7672L46.9398 29.3937C47.8289 28.6562 49.0773 28.6484 49.9742 29.3781C50.8477 30.0875 51.6445 30.8922 52.3461 31.7703C53.0664 32.6734 53.0508 33.9203 52.3055 34.8047L50.9195 36.4484C50.682 36.7297 50.7648 37.0203 50.8102 37.1328C50.8555 37.2453 51.0023 37.5094 51.368 37.5438L53.5102 37.7422C54.6602 37.85 55.5477 38.7281 55.668 39.8781ZM54.1133 40.0391C54.0711 39.6406 53.7648 39.3359 53.3648 39.2984L51.2227 39.1C50.3914 39.0234 49.6789 38.4953 49.3633 37.725C49.0477 36.9547 49.1852 36.0797 49.7242 35.4406L51.1102 33.7969C51.368 33.4906 51.3742 33.0578 51.1242 32.7453C50.493 31.9547 49.7742 31.2297 48.9883 30.5906C48.6773 30.3375 48.2445 30.3406 47.9367 30.5969L46.282 31.9703C45.6398 32.5031 44.7633 32.6344 43.9945 32.3125C43.2258 31.9906 42.7055 31.2734 42.6352 30.4422L42.4523 28.2969C42.418 27.8969 42.1164 27.5875 41.718 27.5438C40.6742 27.4281 39.6164 27.4281 38.5742 27.5438C38.1758 27.5875 37.8742 27.8984 37.8398 28.2969L37.6586 30.4422C37.5883 31.2734 37.0664 31.9906 36.2992 32.3125C35.5305 32.6344 34.6555 32.5031 34.0117 31.9703L32.357 30.5969C32.0492 30.3406 31.6164 30.3391 31.3055 30.5906C30.5195 31.2281 29.8008 31.9531 29.1695 32.7437C28.9195 33.0562 28.9258 33.4891 29.1836 33.7953L30.5695 35.4391C31.107 36.0766 31.2461 36.9531 30.9305 37.7234C30.6148 38.4937 29.9023 39.0203 29.0711 39.0984L26.9289 39.2969C26.5305 39.3344 26.2227 39.6375 26.1805 40.0359C26.0805 41.0047 26.0805 41.9875 26.1805 42.9563C26.2227 43.3547 26.5289 43.6594 26.9289 43.6953L29.0711 43.8938C29.9023 43.9703 30.6148 44.4984 30.9305 45.2687C31.2461 46.0391 31.107 46.9141 30.5695 47.5531L29.1836 49.1969C28.9258 49.5031 28.9195 49.9359 29.1695 50.2484C29.8008 51.0391 30.5195 51.7641 31.3055 52.4031C31.6164 52.6562 32.0492 52.6531 32.357 52.3969L34.0117 51.0234C34.4211 50.6844 34.9258 50.5078 35.4367 50.5078C35.7273 50.5078 36.0195 50.5656 36.2992 50.6812C37.068 51.0031 37.5883 51.7203 37.6586 52.5516L37.8398 54.6969C37.8742 55.0969 38.1758 55.4062 38.5742 55.45C39.618 55.5656 40.6758 55.5656 41.718 55.45C42.1164 55.4062 42.418 55.0953 42.4523 54.6969L42.6352 52.5516C42.7055 51.7203 43.2273 51.0031 43.9945 50.6812C44.7633 50.3594 45.6398 50.4906 46.282 51.0234L47.9367 52.3969C48.2445 52.6531 48.6773 52.6547 48.9883 52.4031C49.7742 51.7656 50.493 51.0406 51.1242 50.25C51.3742 49.9375 51.368 49.5047 51.1102 49.1984L49.7242 47.5547C49.1852 46.9172 49.0477 46.0406 49.3633 45.2703C49.6789 44.5 50.3914 43.9734 51.2227 43.8953L53.3648 43.6969C53.7633 43.6594 54.0711 43.3562 54.1133 42.9578C54.2133 41.9906 54.2133 41.0078 54.1133 40.0391Z" fill="black"/>
<path d="M19.9639 19.7888L19.9639 19.7889C20.5258 20.4162 20.661 21.2862 20.3192 22.0533L20.3189 22.0539C19.9753 22.8211 19.2369 23.3 18.3952 23.3H16.2311V32.6719C16.2311 33.2688 15.7468 33.7531 15.1498 33.7531C14.5529 33.7531 14.0686 33.2688 14.0686 32.6719V22.2188C14.0686 21.6218 14.5529 21.1375 15.1498 21.1375H18.2689L10.9623 12.9863L3.65576 21.1375H6.77484C7.37178 21.1375 7.85609 21.6218 7.85609 22.2188V32.6719C7.85609 33.2688 7.37178 33.7531 6.77484 33.7531C6.17791 33.7531 5.69359 33.2688 5.69359 32.6719V23.3H3.52953C2.68781 23.3 1.94937 22.8211 1.60574 22.0539C1.26193 21.2862 1.39904 20.4144 1.96083 19.7888H19.9639ZM19.9639 19.7888L12.5295 11.4951L12.5293 11.4949C12.129 11.0491 11.559 10.7937 10.9623 10.7937C10.3662 10.7937 9.79428 11.0488 9.39514 11.4951C9.39507 11.4952 9.395 11.4953 9.39493 11.4954L1.96104 19.7886L19.9639 19.7888ZM10.9191 12.9381L10.9192 12.9382L10.9191 12.9381Z" fill="#CFA935" stroke="#CFA935" stroke-width="0.6"/>
<path d="M77.9639 19.7888L77.9639 19.7889C78.5258 20.4162 78.661 21.2862 78.3192 22.0533L78.3189 22.0539C77.9753 22.8211 77.2369 23.3 76.3952 23.3H74.2311V32.6719C74.2311 33.2688 73.7468 33.7531 73.1498 33.7531C72.5529 33.7531 72.0686 33.2688 72.0686 32.6719V22.2188C72.0686 21.6218 72.5529 21.1375 73.1498 21.1375H76.2689L68.9623 12.9863L61.6558 21.1375H64.7748C65.3718 21.1375 65.8561 21.6218 65.8561 22.2188V32.6719C65.8561 33.2688 65.3718 33.7531 64.7748 33.7531C64.1779 33.7531 63.6936 33.2688 63.6936 32.6719V23.3H61.5295C60.6878 23.3 59.9494 22.8211 59.6057 22.0539C59.2619 21.2862 59.399 20.4144 59.9608 19.7888H77.9639ZM77.9639 19.7888L70.5295 11.4951L70.5293 11.4949C70.129 11.0491 69.559 10.7937 68.9623 10.7937C68.3662 10.7937 67.7943 11.0488 67.3951 11.4951C67.3951 11.4952 67.395 11.4953 67.3949 11.4954L59.961 19.7886L77.9639 19.7888ZM68.9191 12.9381L68.9192 12.9382L68.9191 12.9381Z" fill="#CFA935" stroke="#CFA935" stroke-width="0.6"/>
</svg>
