<svg width="78" height="78" viewBox="0 0 78 78" fill="none" xmlns="http://www.w3.org/2000/svg">
<path d="M61.4688 50.2344C55.2663 50.2344 50.2188 55.2806 50.2188 61.4844C50.2188 67.6881 55.2663 72.7344 61.4688 72.7344C67.6712 72.7344 72.7188 67.6881 72.7188 61.4844C72.7188 55.2806 67.6725 50.2344 61.4688 50.2344ZM61.4688 70.2344C56.6438 70.2344 52.7188 66.3081 52.7188 61.4844C52.7188 56.6606 56.6438 52.7344 61.4688 52.7344C66.2938 52.7344 70.2188 56.6606 70.2188 61.4844C70.2188 66.3081 66.2938 70.2344 61.4688 70.2344Z" fill="black"/>
<path d="M58.9658 63.4639L57.3495 61.8477L55.582 63.6152L58.9658 66.9989L67.3495 58.6152L65.582 56.8477L58.9658 63.4639Z" fill="#CFA935"/>
<path d="M77.7175 61.4831C77.7175 59.3081 76.7612 57.2431 75.1263 55.8256C75.2787 53.6669 74.4962 51.5319 72.9587 49.9944C71.8637 48.8981 70.4625 48.1969 68.9688 47.9331V3.98438C68.9688 1.91687 67.2862 0.234375 65.2188 0.234375H15.2188C13.1512 0.234375 11.4688 1.91687 11.4688 3.98438V17.7331H0.21875V40.2331H11.4688V71.4831C11.4688 73.5506 13.1512 75.2331 15.2188 75.2331H55.8988C57.3125 76.8094 59.335 77.7331 61.4688 77.7331C63.645 77.7331 65.7087 76.7769 67.1262 75.1431C69.2862 75.2869 71.4212 74.5131 72.9587 72.9744C74.4962 71.4369 75.28 69.3019 75.1275 67.1431C76.7612 65.7244 77.7175 63.6606 77.7175 61.4831ZM10.2175 20.2331H15.2175V22.7331H10.2175V20.2331ZM2.7175 37.7331V20.2331H7.7175V25.2331H17.7175V20.2331H22.7175V37.7331H2.7175ZM15.2175 72.7331C14.5288 72.7331 13.9675 72.1731 13.9675 71.4831V40.2331H25.2175V17.7331H13.9675V3.98438C13.9675 3.29437 14.5288 2.73438 15.2175 2.73438H65.2175C65.9062 2.73438 66.4675 3.29437 66.4675 3.98438V47.1644C65.105 45.9394 63.3287 45.2344 61.4675 45.2344C59.2912 45.2344 57.2275 46.1919 55.81 47.8256C53.6488 47.6794 51.5137 48.4556 49.9775 49.9944C48.44 51.5319 47.6562 53.6669 47.8087 55.8256C46.1737 57.2444 45.2175 59.3081 45.2175 61.4831C45.2175 63.6594 46.1737 65.7244 47.8087 67.1419C47.6637 69.1931 48.3725 71.2156 49.7612 72.7331H15.2175ZM73.0825 65.5706L72.4337 66.0269L72.57 66.8081C72.8512 68.4169 72.335 70.0619 71.19 71.2069C70.0462 72.3531 68.405 72.8706 66.7925 72.5869L66.0112 72.4506L65.555 73.1019C64.6162 74.4369 63.0887 75.2356 61.4688 75.2356C59.8488 75.2356 58.3212 74.4369 57.3825 73.1019L56.9262 72.4506L56.145 72.5869C54.535 72.8731 52.8913 72.3531 51.7463 71.2069C50.6012 70.0619 50.085 68.4181 50.3662 66.8081L50.5025 66.0269L49.8537 65.5706C48.5175 64.6319 47.7188 63.1031 47.7188 61.4831C47.7188 59.8644 48.5175 58.3356 49.8537 57.3969L50.5025 56.9406L50.3662 56.1594C50.085 54.5506 50.6012 52.9056 51.7463 51.7606C52.89 50.6144 54.5325 50.0956 56.1437 50.3806L56.925 50.5169L57.3812 49.8656C58.32 48.5294 59.8475 47.7306 61.4675 47.7306C63.0875 47.7306 64.6137 48.5294 65.5537 49.8656L66.01 50.5169L66.7913 50.3806C68.405 50.0956 70.045 50.6144 71.19 51.7606C72.335 52.9056 72.8512 54.5494 72.57 56.1594L72.4337 56.9406L73.0825 57.3969C74.4187 58.3356 75.2175 59.8644 75.2175 61.4831C75.2175 63.1031 74.4187 64.6319 73.0825 65.5706Z" fill="black"/>
<path d="M63.9688 5.23438H16.4688V15.2344H63.9688V5.23438ZM61.4688 12.7344H18.9688V7.73438H61.4688V12.7344Z" fill="#CFA935"/>
<path d="M27.7188 17.7344H63.9687V20.2344H27.7188V17.7344Z" fill="black"/>
<path d="M61.4688 22.7344H63.9688V25.2344H61.4688V22.7344Z" fill="black"/>
<path d="M42.7188 22.7344H58.9688V25.2344H42.7188V22.7344Z" fill="black"/>
<path d="M27.7188 22.7344H40.2187V25.2344H27.7188V22.7344Z" fill="black"/>
<path d="M27.7188 27.7344H63.9687V30.2344H27.7188V27.7344Z" fill="black"/>
<path d="M45.2188 32.7344H63.9688V35.2344H45.2188V32.7344Z" fill="black"/>
<path d="M27.7188 32.7344H42.7187V35.2344H27.7188V32.7344Z" fill="black"/>
<path d="M27.7188 37.7344H63.9687V40.2344H27.7188V37.7344Z" fill="black"/>
<path d="M16.4688 55.2344H28.9688V42.7344H16.4688V55.2344ZM18.9688 45.2344H26.4688V52.7344H18.9688V45.2344Z" fill="#CFA935"/>
<path d="M40.2188 47.7344H42.7188V50.2344H40.2188V47.7344Z" fill="black"/>
<path d="M31.4688 47.7344H37.7188V50.2344H31.4688V47.7344Z" fill="black"/>
<path d="M31.4688 42.7344H42.7187V45.2344H31.4688V42.7344Z" fill="black"/>
<path d="M31.4688 52.7344H42.7187V55.2344H31.4688V52.7344Z" fill="black"/>
<path d="M16.4688 70.2344H28.9688V57.7344H16.4688V70.2344ZM18.9688 60.2344H26.4688V67.7344H18.9688V60.2344Z" fill="#CFA935"/>
<path d="M31.4688 62.7344H42.7187V65.2344H31.4688V62.7344Z" fill="black"/>
<path d="M31.4688 57.7344H42.7187V60.2344H31.4688V57.7344Z" fill="black"/>
<path d="M31.4688 67.7344H37.7188V70.2344H31.4688V67.7344Z" fill="black"/>
<path d="M40.2188 67.7344H42.7188V70.2344H40.2188V67.7344Z" fill="black"/>
</svg>
