<svg width="80" height="80" viewBox="0 0 80 80" fill="none" xmlns="http://www.w3.org/2000/svg">
<g clip-path="url(#clip0_25098_32536)">
<path d="M57.1611 60.4775L52.9336 56.25" stroke="black" stroke-width="2" stroke-miterlimit="10" stroke-linecap="round" stroke-linejoin="round"/>
<path d="M56.2227 52.9102L60.4934 57.1809" stroke="black" stroke-width="2" stroke-miterlimit="10" stroke-linecap="round" stroke-linejoin="round"/>
<path d="M35.5523 30.3906H37.1094C40.5611 30.3906 43.3594 33.1889 43.3594 36.6406V45.3906C43.3594 46.5987 42.38 47.5781 41.1719 47.5781H23.6719C22.4638 47.5781 21.4844 46.5987 21.4844 45.3906V36.6406C21.4844 33.1889 24.2827 30.3906 27.7344 30.3906H29.2914" stroke="black" stroke-width="2" stroke-miterlimit="10" stroke-linecap="round" stroke-linejoin="round"/>
<path d="M34.5793 31.1109L35.5401 38.7313C35.6159 39.3325 35.3764 39.9303 34.9064 40.3127L33.0267 41.842C32.6753 42.128 32.1715 42.128 31.8203 41.842L29.9406 40.3127C29.4706 39.9302 29.2309 39.3325 29.3068 38.7313L30.2756 31.0469" stroke="#CFA935" stroke-width="2" stroke-miterlimit="10" stroke-linecap="round" stroke-linejoin="round"/>
<path d="M27.1836 26.0986V22.5048C27.1836 19.6112 29.5292 17.2656 32.4228 17.2656C35.3164 17.2656 37.662 19.6112 37.662 22.5048V26.0789C37.662 28.978 35.3119 31.328 32.413 31.328C29.5248 31.328 27.1836 28.9867 27.1836 26.0986Z" stroke="black" stroke-width="2" stroke-miterlimit="10" stroke-linecap="round" stroke-linejoin="round"/>
<path d="M27.3945 23.0273H37.3945" stroke="black" stroke-width="2" stroke-miterlimit="10" stroke-linecap="round" stroke-linejoin="round"/>
<path d="M9.5 53.6625C4.33156 48.0875 1.17188 40.6236 1.17188 32.4219C1.17188 15.163 15.163 1.17188 32.4219 1.17188C39.4281 1.17188 45.8958 3.4775 51.1077 7.37156" stroke="black" stroke-width="2" stroke-miterlimit="10" stroke-linecap="round" stroke-linejoin="round"/>
<path d="M38.118 63.1562C36.2716 63.4963 34.3683 63.6738 32.4236 63.6738C32.3395 63.6738 32.2556 63.6734 32.1719 63.6728" stroke="black" stroke-width="2" stroke-miterlimit="10" stroke-linecap="round" stroke-linejoin="round"/>
<path d="M63.6681 32.9023C63.4698 46.1062 55.0825 57.3255 43.3594 61.7061" stroke="black" stroke-width="2" stroke-miterlimit="10" stroke-linecap="round" stroke-linejoin="round"/>
<path d="M16.3697 53.5725C9.98703 48.7166 5.85938 41.0422 5.85938 32.4219C5.85938 17.7753 17.7753 5.85938 32.4219 5.85938C38.2452 5.85938 43.6367 7.74297 48.0195 10.9328" stroke="black" stroke-width="2" stroke-miterlimit="10" stroke-linecap="round" stroke-linejoin="round"/>
<path d="M58.9822 32.8828C58.7358 47.3181 46.9166 58.9853 32.4236 58.9853C32.3395 58.9853 32.2556 58.9848 32.1719 58.9841" stroke="black" stroke-width="2" stroke-miterlimit="10" stroke-linecap="round" stroke-linejoin="round"/>
<path d="M75.9436 67.9102L78.0809 70.0475C79.0788 71.0453 79.0788 72.663 78.0809 73.6608L73.6634 78.0783C72.6656 79.0761 71.048 79.0761 70.0502 78.0783L67.9648 75.993" stroke="black" stroke-width="2" stroke-miterlimit="10" stroke-linecap="round" stroke-linejoin="round"/>
<path d="M58.7846 66.8154L56.7327 64.7635C55.7349 63.7657 55.7349 62.148 56.7327 61.1502L61.1502 56.7327C62.148 55.7349 63.7657 55.7349 64.7635 56.7327L66.7634 58.7326" stroke="black" stroke-width="2" stroke-miterlimit="10" stroke-linecap="round" stroke-linejoin="round"/>
<path d="M66.5048 75.9121L58.8026 68.2099C58.4773 67.8846 58.4773 67.3573 58.8026 67.032L67.032 58.8026C67.3573 58.4773 67.8846 58.4773 68.2099 58.8026L75.9121 66.5048C76.2374 66.8301 76.2374 67.3574 75.9121 67.6827L67.6827 75.9121C67.3574 76.2374 66.8301 76.2374 66.5048 75.9121Z" stroke="black" stroke-width="2" stroke-miterlimit="10" stroke-linecap="round" stroke-linejoin="round"/>
<path d="M65.8341 7.56641H69.9305C71.6883 7.56641 73.1134 8.99141 73.1134 10.7494V29.3834C73.1134 31.1412 71.6884 32.5664 69.9305 32.5664H51.2962C49.5384 32.5664 48.1133 31.1414 48.1133 29.3834V10.7494C48.1133 8.99156 49.5383 7.56641 51.2962 7.56641H60.157" stroke="black" stroke-width="2" stroke-miterlimit="10" stroke-linecap="round" stroke-linejoin="round"/>
<path d="M28.7195 78.8281H10.0853C8.3275 78.8281 6.90234 77.4031 6.90234 75.6452V57.0111C6.90234 55.2533 8.32734 53.8281 10.0853 53.8281H28.7195C30.4773 53.8281 31.9025 55.2531 31.9025 57.0111V75.6452C31.9025 77.4031 30.4773 78.8281 28.7195 78.8281Z" stroke="black" stroke-width="2" stroke-miterlimit="10" stroke-linecap="round" stroke-linejoin="round"/>
<path d="M55.1328 19.8684L59.612 23.3717L66.092 16.2227" stroke="#CFA935" stroke-width="2" stroke-miterlimit="10" stroke-linecap="round" stroke-linejoin="round"/>
<path d="M13.3086 61.6406H22.0656" stroke="#CFA935" stroke-width="2" stroke-miterlimit="10" stroke-linecap="round" stroke-linejoin="round"/>
<path d="M13.3086 66.3281H26.9798" stroke="#CFA935" stroke-width="2" stroke-miterlimit="10" stroke-linecap="round" stroke-linejoin="round"/>
<path d="M13.3086 71.0156H24.0447" stroke="#CFA935" stroke-width="2" stroke-miterlimit="10" stroke-linecap="round" stroke-linejoin="round"/>
</g>
<defs>
<clipPath id="clip0_25098_32536">
<rect width="80" height="80" fill="white"/>
</clipPath>
</defs>
</svg>
