<svg width="32" height="32" viewBox="0 0 32 32" fill="none" xmlns="http://www.w3.org/2000/svg">
<g clip-path="url(#clip0_32012_2305)">
<path fill-rule="evenodd" clip-rule="evenodd" d="M19.4294 26.2001C19.1261 26.2001 18.8801 25.9542 18.8801 25.6507C18.8801 25.3474 19.126 25.1015 19.4294 25.1015C20.1214 25.1015 20.6843 24.5384 20.6843 23.8465C20.6843 23.1545 20.1214 22.5916 19.4294 22.5916L14.8647 22.5996C14.8644 22.5996 14.865 22.5996 14.8647 22.5996C14.7764 22.5996 14.6886 22.5783 14.6103 22.5376L10.6267 20.4659L6.35749 20.4658C6.05409 20.4658 5.8082 20.2199 5.8082 19.9166C5.8082 19.6132 6.05409 19.3672 6.35749 19.3672L10.7611 19.3673C10.8494 19.3673 10.9363 19.3885 11.0145 19.4292L14.9976 21.5006L19.4285 21.493C20.7272 21.493 21.783 22.5486 21.783 23.8464C21.7829 25.1443 20.7271 26.2001 19.4294 26.2001Z" fill="black"/>
<path fill-rule="evenodd" clip-rule="evenodd" d="M17.8871 31.421H15.303C15.2354 31.421 15.1684 31.4085 15.1052 31.3841L8.24582 28.7376H6.41001C6.10661 28.7376 5.86072 28.4917 5.86072 28.1883C5.86072 27.8848 6.10661 27.6389 6.41001 27.6389H8.34813C8.41567 27.6389 8.48277 27.6514 8.54589 27.6758L15.4053 30.3223H17.7689C18.2921 30.0931 19.3725 29.7011 20.7139 29.2145C23.8951 28.0601 28.7026 26.3159 30.3841 25.1719C30.8772 24.8366 31.0457 24.1528 30.7599 23.6475C30.4457 23.0916 29.5282 22.7657 27.8968 23.5179C27.8818 23.5248 27.8666 23.531 27.8509 23.5366L20.4576 26.1682C20.3984 26.1892 20.3361 26.2 20.2734 26.2H13.2311C12.9277 26.2 12.6817 25.9541 12.6817 25.6506C12.6817 25.3472 12.9277 25.1013 13.2311 25.1013H20.1785L27.4596 22.5097C29.755 21.46 31.163 22.1283 31.7163 23.1067C32.2862 24.1142 31.9723 25.4205 31.0021 26.0804C29.2067 27.3016 24.5146 29.0041 21.0885 30.2472C19.7221 30.7431 18.5419 31.1713 18.1204 31.369C18.0473 31.4033 17.9677 31.421 17.8871 31.421Z" fill="black"/>
<path fill-rule="evenodd" clip-rule="evenodd" d="M6.35746 30.6114H0.549289C0.245892 30.6114 0 30.3656 0 30.0622V18.073C0 17.7696 0.245892 17.5237 0.549289 17.5237H6.35746C6.66093 17.5237 6.90682 17.7696 6.90682 18.073V30.0622C6.90682 30.3656 6.66093 30.6114 6.35746 30.6114ZM1.09865 29.5129H5.80808V18.6222H1.09865V29.5129Z" fill="black"/>
<path fill-rule="evenodd" clip-rule="evenodd" d="M18.9293 17.6045C14.2355 17.6045 10.4167 13.7858 10.4167 9.09186C10.4167 4.39791 14.2355 0.579102 18.9293 0.579102C23.6233 0.579102 27.4421 4.39791 27.4421 9.09186C27.4421 13.7858 23.6233 17.6045 18.9293 17.6045ZM18.9293 1.67776C14.8413 1.67776 11.5154 5.00369 11.5154 9.09186C11.5154 13.18 14.8413 16.5059 18.9293 16.5059C23.0174 16.5059 26.3434 13.18 26.3434 9.09186C26.3434 5.00369 23.0174 1.67776 18.9293 1.67776Z" fill="black"/>
<path fill-rule="evenodd" clip-rule="evenodd" d="M14.9842 13.5864C14.8436 13.5864 14.7031 13.5327 14.5958 13.4254C14.3812 13.2109 14.3812 12.8631 14.5958 12.6486L22.4862 4.7583C22.7007 4.54371 23.0485 4.54386 23.263 4.7583C23.4775 4.97289 23.4775 5.32066 23.263 5.53517L15.3727 13.4254C15.2654 13.5327 15.1248 13.5864 14.9842 13.5864Z" fill="black"/>
<path fill-rule="evenodd" clip-rule="evenodd" d="M16.4093 8.49662C15.9162 8.49662 15.4231 8.3089 15.0477 7.93346C14.2969 7.18257 14.2969 5.96093 15.0477 5.21012C15.4114 4.84642 15.895 4.646 16.4093 4.646C16.9237 4.646 17.4073 4.84642 17.771 5.21012C18.5218 5.96094 18.5218 7.18257 17.771 7.93346C17.3956 8.3089 16.9026 8.49662 16.4093 8.49662ZM16.4093 5.74464C16.1884 5.74464 15.9807 5.83071 15.8245 5.98691C15.502 6.30936 15.502 6.83406 15.8245 7.15658C16.147 7.47902 16.6718 7.47909 16.9942 7.15658C17.3166 6.83414 17.3166 6.30943 16.9942 5.98691C16.8379 5.83071 16.6303 5.74464 16.4093 5.74464Z" fill="black"/>
<path fill-rule="evenodd" clip-rule="evenodd" d="M21.4493 13.5368C20.9562 13.5368 20.4631 13.3491 20.0877 12.9737C19.724 12.61 19.5236 12.1264 19.5236 11.612C19.5236 11.0976 19.724 10.614 20.0877 10.2503C20.4514 9.88662 20.935 9.68628 21.4494 9.68628C21.9637 9.68628 22.4473 9.88662 22.8111 10.2503C23.5619 11.0011 23.5619 12.2229 22.8111 12.9737C22.4356 13.3491 21.9425 13.5368 21.4493 13.5368ZM21.4494 10.7849C21.2285 10.7849 21.0207 10.871 20.8645 11.0272C20.7083 11.1834 20.6223 11.3911 20.6223 11.612C20.6223 11.8329 20.7083 12.0406 20.8645 12.1968C21.187 12.5192 21.7118 12.5194 22.0342 12.1968C22.3567 11.8743 22.3567 11.3496 22.0342 11.0271C21.878 10.871 21.6703 10.7849 21.4494 10.7849Z" fill="black"/>
</g>
<defs>
<clipPath id="clip0_32012_2305">
<rect width="32" height="32" fill="white"/>
</clipPath>
</defs>
</svg>
