<svg width="32" height="32" viewBox="0 0 32 32" fill="none" xmlns="http://www.w3.org/2000/svg">
<g clip-path="url(#clip0_32012_2400)">
<path d="M15.7107 27.0494C15.5944 26.9331 15.4332 26.8662 15.2688 26.8662C15.1044 26.8662 14.9432 26.9331 14.8269 27.0494C14.7107 27.1656 14.6438 27.3268 14.6438 27.4912C14.6438 27.6563 14.7107 27.8168 14.8269 27.9331C14.9432 28.05 15.1044 28.1162 15.2688 28.1162C15.4332 28.1162 15.5944 28.05 15.7107 27.9331C15.8269 27.8168 15.8938 27.6556 15.8938 27.4912C15.8938 27.3268 15.8269 27.1656 15.7107 27.0494Z" fill="black"/>
<path d="M18.6864 21.2836V16.6848C18.6864 16.4771 18.5833 16.283 18.4112 16.1668C18.2391 16.0506 18.0206 16.0275 17.8279 16.105L7.05836 20.4423H3.58962C1.61037 20.4423 6.10352e-05 22.0526 6.10352e-05 24.032C6.10352e-05 26.0114 1.61037 27.6217 3.58974 27.6217H4.0028V31.3749C4.0028 31.7201 4.28262 31.9999 4.6278 31.9999H7.1793C7.52448 31.9999 7.8043 31.7201 7.8043 31.3749V27.9232L17.8282 31.9548C17.9034 31.9851 17.9826 32 18.0613 32C18.1843 32 18.3065 31.9637 18.4113 31.8929C18.5833 31.7767 18.6864 31.5826 18.6864 31.375V26.7762C19.9398 26.491 20.8784 25.3684 20.8784 24.0299C20.8784 22.6915 19.9398 21.5688 18.6864 21.2836ZM6.55424 30.7499H5.2528V27.6216H6.5543V30.7499H6.55424ZM6.55436 26.3716H3.58974C2.29962 26.3716 1.25006 25.3221 1.25006 24.032C1.25006 22.7419 2.29962 21.6923 3.58974 21.6923H6.55461L6.55436 26.3716ZM17.4365 30.4499H17.4364L7.80461 26.5759V21.4893L14.6438 18.735V24.9374C14.6438 25.2826 14.9236 25.5624 15.2688 25.5624C15.614 25.5624 15.8938 25.2826 15.8938 24.9374V18.2315L17.4365 17.6102V30.4499ZM18.6864 25.4664V22.5933C19.2402 22.8352 19.6284 23.3879 19.6284 24.0299C19.6284 24.6718 19.2403 25.2246 18.6864 25.4664Z" fill="black"/>
<path d="M26.8407 23.4233H23.3021C22.9569 23.4233 22.6771 23.7032 22.6771 24.0483C22.6771 24.3935 22.9569 24.6733 23.3021 24.6733H26.8407C27.1859 24.6733 27.4657 24.3935 27.4657 24.0483C27.4657 23.7032 27.1859 23.4233 26.8407 23.4233Z" fill="black"/>
<path d="M23.9387 18.8436C23.6947 18.5996 23.2989 18.5996 23.0548 18.8436L21.8342 20.0643C21.5901 20.3083 21.5901 20.7041 21.8342 20.9482C21.9563 21.0702 22.1162 21.1313 22.2762 21.1313C22.4361 21.1313 22.5961 21.0702 22.7181 20.9482L23.9387 19.7276C24.1828 19.4835 24.1828 19.0878 23.9387 18.8436Z" fill="black"/>
<path d="M23.9846 28.311L22.7232 27.0495C22.4791 26.8055 22.0834 26.8055 21.8392 27.0495C21.5952 27.2935 21.5952 27.6893 21.8392 27.9334L23.1007 29.1949C23.2228 29.3169 23.3827 29.378 23.5427 29.378C23.7026 29.378 23.8626 29.3169 23.9846 29.1949C24.2287 28.9508 24.2287 28.5551 23.9846 28.311Z" fill="black"/>
<path d="M29.5 0H17.875C16.4965 0 15.375 1.1215 15.375 2.5V2.74999H4.87506C4.04793 2.74999 3.37506 3.42293 3.37506 4.24999V14.125C3.37506 14.952 4.04793 15.625 4.87506 15.625H5.52087V17.5417C5.52087 17.7945 5.67318 18.0223 5.90668 18.1191C5.98399 18.1511 6.06518 18.1667 6.14574 18.1667C6.30837 18.1667 6.46824 18.1032 6.5878 17.9836L8.94643 15.625H21.3613C22.1884 15.625 22.8613 14.952 22.8613 14.125V12.25H29.5C30.8785 12.25 32 11.1285 32 9.74998V2.5C31.9999 1.1215 30.8785 0 29.5 0ZM21.6113 14.125C21.6113 14.2628 21.4992 14.375 21.3613 14.375H8.68755C8.5218 14.375 8.3628 14.4408 8.24561 14.558L6.77093 16.0328V15C6.77093 14.6548 6.49112 14.375 6.14593 14.375H4.87506C4.73718 14.375 4.62506 14.2628 4.62506 14.125V4.24999C4.62506 4.11212 4.73718 3.99999 4.87506 3.99999H15.375V9.74998C15.375 11.1285 16.4965 12.25 17.875 12.25H21.6113V14.125ZM30.75 9.74998C30.75 10.4392 30.1893 11 29.5 11H17.875C17.1858 11 16.625 10.4392 16.625 9.74998V2.5C16.625 1.81075 17.1858 1.25 17.875 1.25H29.5C30.1893 1.25 30.75 1.81075 30.75 2.5V9.74998Z" fill="black"/>
<path d="M26.1984 5.58366L21.921 3.11404C21.7276 3.00235 21.4893 3.00235 21.296 3.11404C21.1026 3.22566 20.9835 3.43204 20.9835 3.65529V8.59447C20.9835 8.81772 21.1026 9.02409 21.296 9.13572C21.3926 9.19159 21.5005 9.21946 21.6085 9.21946C21.7164 9.21946 21.8243 9.19159 21.921 9.13572L26.1984 6.66609C26.3918 6.55447 26.5109 6.3481 26.5109 6.12485C26.5109 5.9016 26.3919 5.69528 26.1984 5.58366ZM22.2335 7.51197V4.73785L24.636 6.12491L22.2335 7.51197Z" fill="black"/>
<path d="M13.407 6.5625H7.15698C6.81179 6.5625 6.53198 6.84237 6.53198 7.1875C6.53198 7.53262 6.81179 7.8125 7.15698 7.8125H13.407C13.7522 7.8125 14.032 7.53262 14.032 7.1875C14.032 6.84237 13.7522 6.5625 13.407 6.5625Z" fill="black"/>
<path d="M13.8488 10.2456C13.7325 10.1293 13.5713 10.0625 13.4069 10.0625C13.2425 10.0625 13.0813 10.1293 12.965 10.2456C12.8488 10.3619 12.7819 10.5231 12.7819 10.6875C12.7819 10.8519 12.8488 11.0131 12.965 11.1293C13.0813 11.2456 13.2425 11.3125 13.4069 11.3125C13.5719 11.3125 13.7325 11.2456 13.8488 11.1293C13.965 11.0131 14.0319 10.8519 14.0319 10.6875C14.0319 10.5231 13.965 10.3619 13.8488 10.2456Z" fill="black"/>
<path d="M11.0625 10.0625H7.15698C6.81179 10.0625 6.53198 10.3424 6.53198 10.6875C6.53198 11.0326 6.81179 11.3125 7.15698 11.3125H11.0625C11.4077 11.3125 11.6875 11.0326 11.6875 10.6875C11.6875 10.3424 11.4077 10.0625 11.0625 10.0625Z" fill="black"/>
</g>
<defs>
<clipPath id="clip0_32012_2400">
<rect width="32" height="32" fill="white"/>
</clipPath>
</defs>
</svg>
