<svg width="28" height="20" viewBox="0 0 28 20" fill="none" xmlns="http://www.w3.org/2000/svg">
<path d="M27.5 20H0.5C0.367392 20 0.240215 19.9473 0.146447 19.8536C0.0526785 19.7598 0 19.6326 0 19.5V12.5C0 12.3674 0.0526785 12.2402 0.146447 12.1464C0.240215 12.0527 0.367392 12 0.5 12H6V2.5C6 2.36739 6.05268 2.24022 6.14645 2.14645C6.24021 2.05268 6.36739 2 6.5 2H7.5V0.5C7.5 0.367392 7.55268 0.240215 7.64645 0.146446C7.74021 0.0526772 7.86739 0 8 0H21.5C21.6326 0 21.7598 0.0526772 21.8536 0.146446C21.9473 0.240215 22 0.367392 22 0.5V12H27.5C27.6326 12 27.7598 12.0527 27.8536 12.1464C27.9473 12.2402 28 12.3674 28 12.5V19.5C28 19.6326 27.9473 19.7598 27.8536 19.8536C27.7598 19.9473 27.6326 20 27.5 20ZM19 6.465C18.12 6.3534 17.302 5.95245 16.6748 5.32521C16.0475 4.69796 15.6466 3.88001 15.535 3H10.465C10.3534 3.88001 9.95245 4.69796 9.32521 5.32521C8.69796 5.95245 7.88001 6.3534 7 6.465V17H19V6.465ZM19 5.465V3H16.545C16.6492 3.61322 16.9414 4.17889 17.3813 4.61872C17.8211 5.05855 18.3868 5.35079 19 5.455V5.465ZM6 15H5V17H6V15ZM7 5.455C7.61322 5.35079 8.17889 5.05855 8.61872 4.61872C9.05855 4.17889 9.35079 3.61322 9.455 3H7V5.455ZM21 1H8.5V2H19.5C19.6326 2 19.7598 2.05268 19.8536 2.14645C19.9473 2.24022 20 2.36739 20 2.5V17H21V1ZM23 17V15H22V17H23ZM27 13H22V14H23.5C23.6326 14 23.7598 14.0527 23.8536 14.1464C23.9473 14.2402 24 14.3674 24 14.5V17.5C24 17.6326 23.9473 17.7598 23.8536 17.8536C23.7598 17.9473 23.6326 18 23.5 18H4.5C4.36739 18 4.24021 17.9473 4.14645 17.8536C4.05268 17.7598 4 17.6326 4 17.5V14.5C4 14.3674 4.05268 14.2402 4.14645 14.1464C4.24021 14.0527 4.36739 14 4.5 14H6V13H1V19H27V13Z" fill="black"/>
<path d="M13 8C13.7911 8 14.5645 8.23459 15.2223 8.67412C15.8801 9.11365 16.3928 9.73836 16.6955 10.4693C16.9983 11.2002 17.0775 12.0044 16.9231 12.7804C16.7688 13.5563 16.3878 14.269 15.8284 14.8284C15.269 15.3878 14.5563 15.7688 13.7804 15.9231C13.0044 16.0775 12.2002 15.9983 11.4693 15.6955C10.7384 15.3928 10.1136 14.8801 9.67412 14.2223C9.2346 13.5645 9 12.7911 9 12C9 10.9391 9.42143 9.92172 10.1716 9.17157C10.9217 8.42143 11.9391 8 13 8ZM13 15C13.5933 15 14.1734 14.8241 14.6667 14.4944C15.1601 14.1648 15.5446 13.6962 15.7716 13.148C15.9987 12.5999 16.0581 11.9967 15.9424 11.4147C15.8266 10.8328 15.5409 10.2982 15.1213 9.87868C14.7018 9.45912 14.1672 9.1734 13.5853 9.05764C13.0033 8.94189 12.4001 9.0013 11.8519 9.22836C11.3038 9.45542 10.8352 9.83994 10.5056 10.3333C10.1759 10.8266 10 11.4067 10 12C10 12.7956 10.3161 13.5587 10.8787 14.1213C11.4413 14.6839 12.2044 15 13 15Z" fill="black"/>
</svg>
