<svg width="32" height="32" viewBox="0 0 32 32" fill="none" xmlns="http://www.w3.org/2000/svg">
<path fill-rule="evenodd" clip-rule="evenodd" d="M12.9214 27.3334L11.588 30.0001H10C9.63202 30.0001 9.33335 30.2987 9.33335 30.6667C9.33335 31.0347 9.63202 31.3334 10 31.3334H22C22.368 31.3334 22.6667 31.0347 22.6667 30.6667C22.6667 30.2987 22.368 30.0001 22 30.0001H20.412L19.0787 27.3334H29.3334C30.438 27.3334 31.3334 26.4381 31.3334 25.3334C31.3334 21.5027 31.3334 10.4974 31.3334 6.66675C31.3334 5.56208 30.438 4.66675 29.3334 4.66675H2.66669C1.56202 4.66675 0.666687 5.56208 0.666687 6.66675V25.3334C0.666687 26.4381 1.56202 27.3334 2.66669 27.3334H12.9214ZM14.412 27.3334H17.588L18.9214 30.0001H13.0787L14.412 27.3334ZM30 23.3334V25.3334C30 25.7014 29.7014 26.0001 29.3334 26.0001H2.66669C2.29869 26.0001 2.00002 25.7014 2.00002 25.3334V23.3334H30ZM30 22.0001H2.00002V6.66675C2.00002 6.29875 2.29869 6.00008 2.66669 6.00008H29.3334C29.7014 6.00008 30 6.29875 30 6.66675V22.0001Z" fill="black"/>
<path fill-rule="evenodd" clip-rule="evenodd" d="M26 8.00016V20.0002C26 20.3682 26.2987 20.6668 26.6667 20.6668C27.0347 20.6668 27.3333 20.3682 27.3333 20.0002V8.00016C27.3333 7.63216 27.0347 7.3335 26.6667 7.3335C26.2987 7.3335 26 7.63216 26 8.00016Z" fill="black"/>
<path fill-rule="evenodd" clip-rule="evenodd" d="M23.3334 10.6667V20C23.3334 20.368 23.632 20.6667 24 20.6667C24.368 20.6667 24.6667 20.368 24.6667 20V10.6667C24.6667 10.2987 24.368 10 24 10C23.632 10 23.3334 10.2987 23.3334 10.6667Z" fill="black"/>
<path fill-rule="evenodd" clip-rule="evenodd" d="M20.6667 12.7406V20C20.6667 20.368 20.9654 20.6666 21.3334 20.6666C21.7014 20.6666 22 20.368 22 20V12.7406C22 12.3726 21.7014 12.074 21.3334 12.074C20.9654 12.074 20.6667 12.3726 20.6667 12.7406Z" fill="black"/>
<path fill-rule="evenodd" clip-rule="evenodd" d="M18 14.3542V20.0002C18 20.3682 18.2987 20.6668 18.6667 20.6668C19.0347 20.6668 19.3333 20.3682 19.3333 20.0002V14.3542C19.3333 13.9862 19.0347 13.6875 18.6667 13.6875C18.2987 13.6875 18 13.9862 18 14.3542Z" fill="black"/>
<path fill-rule="evenodd" clip-rule="evenodd" d="M9.33337 7.3335C6.02204 7.3335 3.33337 10.0222 3.33337 13.3335C3.33337 16.6448 6.02204 19.3335 9.33337 19.3335C12.6447 19.3335 15.3334 16.6448 15.3334 13.3335C15.3334 10.0222 12.6447 7.3335 9.33337 7.3335ZM8.66671 8.71416C6.40604 9.03816 4.66671 10.9842 4.66671 13.3335C4.66671 15.9088 6.75804 18.0002 9.33337 18.0002C11.6827 18.0002 13.6287 16.2608 13.9527 14.0002H10.6667C9.56204 14.0002 8.66671 13.1048 8.66671 12.0002V8.71416ZM10 8.71416V12.0002C10 12.3682 10.2987 12.6668 10.6667 12.6668H13.9527C13.66 10.6242 12.042 9.00683 10 8.71416Z" fill="black"/>
</svg>
