<svg width="32" height="32" viewBox="0 0 32 32" fill="none" xmlns="http://www.w3.org/2000/svg">
<path d="M29.75 16.2969V12.9763C29.75 12.6472 29.5881 12.3392 29.3169 12.1526C29.0458 11.966 28.7003 11.9247 28.3928 12.0423L20.6577 14.9999H16.25C15.2279 14.9999 14.383 15.7707 14.2647 16.7615C12.8583 16.8813 11.75 18.063 11.75 19.4999C11.75 20.937 12.8582 22.1193 14.2648 22.2392C14.3697 23.1141 15.0413 23.8168 15.9011 23.9688L18.2883 29.8282C18.5164 30.388 19.0545 30.7498 19.6591 30.7498H20.7714C21.2632 30.7498 21.7213 30.5068 21.9971 30.0996C22.2727 29.6925 22.3284 29.1768 22.1459 28.7203L20.2591 23.9999H20.6577L28.3928 26.9575C28.5085 27.0017 28.6295 27.0235 28.7499 27.0235C28.9496 27.0234 29.1478 26.9637 29.3169 26.8472C29.5881 26.6606 29.75 26.3527 29.75 26.0235V22.7035C31.0284 22.4677 32 21.3455 32 20V19C32 17.6544 31.0282 16.5329 29.75 16.2969ZM12.75 19.4999C12.75 18.6198 13.4031 17.8898 14.25 17.7682V21.231C13.4032 21.1093 12.75 20.3799 12.75 19.4999ZM15.25 21.9999V16.9999C15.25 16.4485 15.6986 15.9999 16.25 15.9999H20.25V22.9999H16.25C15.6986 22.9999 15.25 22.5513 15.25 21.9999ZM21.2173 29.0915C21.2774 29.2418 21.2598 29.405 21.169 29.539C21.0782 29.673 20.9333 29.7499 20.7714 29.7499H19.6591C19.4629 29.7499 19.2883 29.6325 19.2144 29.4508L16.9936 23.9999H19.1822L21.2173 29.0915ZM28.75 26.0234L21.25 23.1558V15.844L28.75 12.9764V26.0234ZM31 19.9999C31 20.791 30.4718 21.4593 29.75 21.6752V17.3236C30.472 17.5393 31 18.2087 31 18.9999V19.9999Z" fill="black"/>
<path d="M27.4812 10.7961C27.5858 11.0516 27.8777 11.174 28.1333 11.0695C28.3889 10.9649 28.5113 10.6729 28.4067 10.4174C27.3108 7.739 25.4645 5.45669 23.0674 3.81713C20.6121 2.13769 17.736 1.25 14.75 1.25C10.8101 1.25 7.10606 2.78425 4.32019 5.57019C1.53425 8.35606 0 12.0601 0 16C0 19.9399 1.53425 23.6439 4.32019 26.4298C7.10606 29.2158 10.8101 30.75 14.75 30.75C15.497 30.75 16.2474 30.6936 16.9804 30.5824C17.2534 30.5409 17.4411 30.286 17.3997 30.013C17.3582 29.74 17.1031 29.5522 16.8304 29.5936C16.3103 29.6726 15.7807 29.7217 15.2501 29.7407V25.25C15.2501 24.9739 15.0262 24.75 14.7501 24.75C14.4739 24.75 14.2501 24.9739 14.2501 25.25V29.7126C12.6253 29.4815 11.0923 28.1292 9.88925 25.8434C9.5395 25.1789 9.22981 24.458 8.96206 23.6916C9.75663 23.4192 10.5877 23.2013 11.4483 23.0446C11.72 22.9952 11.9002 22.7349 11.8507 22.4632C11.8013 22.1916 11.5415 22.0113 11.2692 22.0608C10.3667 22.2251 9.49387 22.4534 8.658 22.7388C8.10675 20.8446 7.79588 18.719 7.75519 16.4999H12.25C12.5261 16.4999 12.75 16.2761 12.75 15.9999C12.75 15.7238 12.5261 15.4999 12.25 15.4999H7.75513C7.79575 13.281 8.10669 11.1555 8.65788 9.26131C8.69906 9.27538 8.73981 9.28994 8.78119 9.30375C10.5129 9.88106 12.3504 10.196 14.25 10.2431V13.75C14.25 14.0261 14.4739 14.25 14.75 14.25C15.0261 14.25 15.25 14.0261 15.25 13.75V10.2431C17.1495 10.196 18.9869 9.88112 20.7186 9.30381C20.7593 9.29025 20.7993 9.27587 20.8398 9.26206C21.1683 10.3927 21.4184 11.6251 21.5725 12.9339C21.6048 13.2081 21.8526 13.4041 22.1276 13.372C22.4018 13.3397 22.5979 13.0912 22.5657 12.8169C22.4046 11.4485 22.1368 10.1328 21.7768 8.91175C23.0214 8.40419 24.1556 7.76669 25.1637 7.00825C26.1174 8.11569 26.9051 9.38812 27.4812 10.7961ZM11.2514 2.70163C10.4216 3.437 9.66206 4.441 9.00419 5.69088C8.63619 6.39006 8.31025 7.14706 8.02837 7.95062C6.93906 7.50031 5.92919 6.94025 5.03294 6.28081C6.72875 4.58531 8.86431 3.33013 11.2514 2.70163ZM9.00419 26.3091C9.66212 27.5592 10.4219 28.5631 11.2519 29.2985C8.86525 28.6702 6.73 27.4154 5.03431 25.7206C5.93138 25.0591 6.93706 24.4966 8.02675 24.0448C8.30906 24.85 8.63556 25.6086 9.00419 26.3091ZM7.71962 23.0903C6.48894 23.5934 5.35425 24.2288 4.3485 24.9832C2.36487 22.6896 1.12637 19.7354 1.01006 16.5H6.755C6.7965 18.8397 7.12887 21.0861 7.71962 23.0903ZM6.755 15.5H1.01006C1.12631 12.265 2.36456 9.31112 4.34775 7.01756C5.352 7.77125 6.48119 8.40506 7.7195 8.91025C7.12881 10.9143 6.7965 13.1606 6.755 15.5ZM8.96362 8.30356C9.231 7.53894 9.54019 6.81969 9.88919 6.15662C11.0923 3.87062 12.6251 2.51675 14.25 2.28562V9.24244C12.4089 9.1925 10.6119 8.86837 8.96362 8.30356ZM15.25 9.24238V2.28681C17.399 2.59738 19.3435 4.88994 20.5344 8.30437C18.8866 8.86887 17.0903 9.1925 15.25 9.24238ZM19.8892 4.65281C19.3812 3.87013 18.8219 3.21362 18.2271 2.69187C20.6066 3.30844 22.7611 4.54844 24.4797 6.27056C23.5793 6.935 22.564 7.49937 21.468 7.95219C21.0356 6.71669 20.5041 5.59981 19.8892 4.65281Z" fill="black"/>
</svg>
