<svg width="22" height="24" viewBox="0 0 22 24" fill="none" xmlns="http://www.w3.org/2000/svg">
<g clip-path="url(#clip0_22007_36558)">
<path d="M3.46094 0.0390625V3.61579L15.1284 11.8758L3.46094 20.1357V23.7091L20.1771 11.8758L3.46094 0.0390625Z" fill="url(#paint0_linear_22007_36558)"/>
<g style="mix-blend-mode:multiply" opacity="0.3">
<path d="M1.30469 5.20703V21.8725L13.0737 13.5381L1.30469 5.20703Z" fill="white"/>
<path d="M1.0625 5.20703V21.8759L12.8315 13.5414L1.0625 5.20703Z" fill="#F8F8F8"/>
<path d="M1.0625 5.20703V21.8759L12.8315 13.5414L1.0625 5.20703Z" fill="#F2F2F2"/>
<path d="M1.0625 5.05469V21.7235L12.8349 13.3891L1.0625 5.05469Z" fill="#EBEBEB"/>
<path d="M1.0625 5.05469V21.7235L12.8349 13.3891L1.0625 5.05469Z" fill="#E5E5E5"/>
<path d="M0.789062 4.94922V21.6147L12.5615 13.2802L0.789062 4.94922Z" fill="#DEDEDE"/>
<path d="M0.78125 4.94531V21.6141L12.5503 13.2797L0.78125 4.94531Z" fill="#D8D8D8"/>
<path d="M0.789062 4.94922V21.618L12.5581 13.2836L0.789062 4.94922Z" fill="#D1D1D1"/>
<path d="M0.507812 4.79688V21.4657L12.2802 13.1313L0.507812 4.79688Z" fill="#CACACA"/>
<path d="M0.507812 4.79688V21.4657L12.2802 13.1313L0.507812 4.79688Z" fill="#C4C4C4"/>
<path d="M0.507812 4.67578V21.3446L12.2802 13.0102L0.507812 4.67578Z" fill="#BDBDBD"/>
<path d="M0.507812 4.67578V21.3446L12.2802 13.0102L0.507812 4.67578Z" fill="#B7B7B7"/>
<path d="M0.273438 4.67578V21.3446L12.0425 13.0102L0.273438 4.67578Z" fill="#B0B0B0"/>
<path d="M0.273438 4.53906V21.2079L12.0425 12.8735L0.273438 4.53906Z" fill="#A9A9A9"/>
<path d="M0.273438 4.53906V21.2079L12.0458 12.8735L0.273438 4.53906Z" fill="#A3A3A3"/>
<path d="M-0.03125 4.39844V21.0673L11.7412 12.7329L-0.03125 4.39844Z" fill="#9C9C9C"/>
<path d="M-0.03125 4.39844V21.0673L11.7412 12.7328L-0.03125 4.39844Z" fill="#969696"/>
<path d="M-0.03125 4.39844V21.0673L11.7378 12.7328L-0.03125 4.39844Z" fill="#8F8F8F"/>
<path d="M-0.03125 4.28125V20.9501L11.7378 12.6157L-0.03125 4.28125Z" fill="#898989"/>
<path d="M-0.242188 4.28125V20.9501L11.5268 12.6157L-0.242188 4.28125Z" fill="#828282"/>
<path d="M-0.242188 4.12891V20.7977L11.5302 12.4633L-0.242188 4.12891Z" fill="#7B7B7B"/>
<path d="M-0.242188 4.12891V20.7977L11.5302 12.4633L-0.242188 4.12891Z" fill="#757575"/>
<path d="M-0.242188 4.12891V20.7977L11.5302 12.4633L-0.242188 4.12891Z" fill="#6E6E6E"/>
<path d="M-0.546875 4.02344V20.6923L11.2221 12.3578L-0.546875 4.02344Z" fill="#686868"/>
<path d="M-0.546875 4.02344V20.6923L11.2221 12.3578L-0.546875 4.02344Z" fill="#616161"/>
<path d="M-0.546875 3.87109V20.5399L11.2255 12.2055L-0.546875 3.87109Z" fill="#5A5A5A"/>
<path d="M-0.78125 3.87109V20.5399L10.9912 12.2055L-0.78125 3.87109Z" fill="white"/>
<path d="M-0.78125 3.87109V20.5399L10.9912 12.2055L-0.78125 3.87109Z" fill="#4D4D4D"/>
<path d="M-0.78125 3.75391V20.4193L10.9912 12.0883L-0.78125 3.75391Z" fill="white"/>
<path d="M-0.78125 3.75391V20.4227L10.9878 12.0883L-0.78125 3.75391Z" fill="white"/>
<path d="M-1.0625 3.61328V20.2821L10.7065 11.9477L-1.0625 3.61328Z" fill="white"/>
<path d="M-1.0625 3.61328V20.2821L10.7099 11.9477L-1.0625 3.61328Z" fill="white"/>
</g>
<path d="M-1.0625 3.59766V20.2665L10.7099 11.9321L-1.0625 3.59766Z" fill="url(#paint1_linear_22007_36558)"/>
<g style="mix-blend-mode:screen">
<path d="M3.46094 0.0390625V3.61579L15.1284 11.8758H20.1771L3.46094 0.0390625Z" fill="url(#paint2_linear_22007_36558)"/>
<path d="M-1.0625 3.59766V11.9321H10.7099L4.82201 7.76317L-1.0625 3.59766Z" fill="url(#paint3_linear_22007_36558)"/>
</g>
</g>
<defs>
<linearGradient id="paint0_linear_22007_36558" x1="11.819" y1="22.6533" x2="11.819" y2="-0.323009" gradientUnits="userSpaceOnUse">
<stop stop-color="#CFA935"/>
<stop offset="1" stop-color="#FFE185"/>
</linearGradient>
<linearGradient id="paint1_linear_22007_36558" x1="4.82201" y1="22.1411" x2="4.82201" y2="0.376235" gradientUnits="userSpaceOnUse">
<stop stop-color="#CFA935"/>
<stop offset="0.506667" stop-color="#9B7D21"/>
<stop offset="1" stop-color="#68520F"/>
</linearGradient>
<linearGradient id="paint2_linear_22007_36558" x1="11.819" y1="2.28594" x2="11.819" y2="14.5693" gradientUnits="userSpaceOnUse">
<stop/>
<stop offset="0.22" stop-color="#030303"/>
<stop offset="0.39" stop-color="#0D0D0D"/>
<stop offset="0.55" stop-color="#1E1E1E"/>
<stop offset="0.71" stop-color="#363636"/>
<stop offset="0.85" stop-color="#555555"/>
<stop offset="0.99" stop-color="#7A7A7A"/>
<stop offset="1" stop-color="#7D7D7D"/>
</linearGradient>
<linearGradient id="paint3_linear_22007_36558" x1="4.82201" y1="2.34225" x2="4.82201" y2="14.6256" gradientUnits="userSpaceOnUse">
<stop/>
<stop offset="0.22" stop-color="#030303"/>
<stop offset="0.39" stop-color="#0D0D0D"/>
<stop offset="0.55" stop-color="#1E1E1E"/>
<stop offset="0.71" stop-color="#363636"/>
<stop offset="0.85" stop-color="#555555"/>
<stop offset="0.99" stop-color="#7A7A7A"/>
<stop offset="1" stop-color="#7D7D7D"/>
</linearGradient>
<clipPath id="clip0_22007_36558">
<rect width="21.1423" height="23.67" fill="white"/>
</clipPath>
</defs>
</svg>
