<svg width="120" height="120" viewBox="0 0 120 120" fill="none" xmlns="http://www.w3.org/2000/svg">
<g id="Layer_1" clip-path="url(#clip0_30925_41350)">
<path id="Vector" d="M82.5 76.875H41.25C40.2188 76.875 39.375 76.0312 39.375 75C39.375 73.9688 40.2188 73.125 41.25 73.125H82.5C83.5312 73.125 84.375 73.9688 84.375 75C84.375 76.0312 83.5312 76.875 82.5 76.875Z" fill="white"/>
<path id="Vector_2" d="M93.75 54.375C88.575 54.375 84.375 50.175 84.375 45C84.375 39.825 88.575 35.625 93.75 35.625C98.925 35.625 103.125 39.825 103.125 45C103.125 50.175 98.925 54.375 93.75 54.375ZM93.75 39.375C90.6562 39.375 88.125 41.9062 88.125 45C88.125 48.0938 90.6562 50.625 93.75 50.625C96.8438 50.625 99.375 48.0938 99.375 45C99.375 41.9062 96.8438 39.375 93.75 39.375Z" fill="white"/>
<path id="Vector_3" d="M101.25 95.6247H86.25C85.2188 95.6247 84.3751 94.7809 84.3751 93.7497C84.3751 92.7184 85.2188 91.8747 86.25 91.8747H101.25C103.313 91.8747 105 90.1872 105 88.1247C105 72.6184 103.463 63.8809 102.169 59.2684C101.4 56.5309 98.7001 54.8247 95.8313 55.2934C93.1688 55.7434 90.9938 57.6934 90.2438 60.2809L88.0313 68.0059C87.8251 68.7372 87.2063 69.2622 86.4563 69.3559L74.7376 70.8184C73.8001 70.9309 73.0875 71.7372 73.0875 72.6747C73.0875 72.9184 73.2938 73.1059 73.5188 73.1059H90.4688L93.7876 63.1309C94.1063 62.1559 95.175 61.6122 96.15 61.9497C97.125 62.2684 97.6688 63.3372 97.3313 64.3122L93.5813 75.5622C93.3188 76.3309 92.6063 76.8372 91.8 76.8372H73.4813C71.175 76.8372 69.3 74.9622 69.3 72.6559C69.3 69.8247 71.4188 67.4247 74.2313 67.0684L84.7126 65.7559L86.5876 59.2309C87.7313 55.2559 91.0875 52.2559 95.175 51.5809C99.9 50.7934 104.438 53.6622 105.731 58.2372C107.7 65.2497 108.694 75.2997 108.694 88.1059C108.694 92.2497 105.338 95.6059 101.194 95.6059L101.25 95.6247Z" fill="white"/>
<path id="Vector_4" d="M80.625 112.5H71.25C70.6312 112.5 70.0687 112.2 69.7125 111.713C69.3562 111.225 69.2812 110.569 69.4875 110.006L77.0812 88.725C78.4125 84.9937 81.9562 82.5 85.9125 82.5H90V75C90 73.9688 90.8437 73.125 91.875 73.125C92.9062 73.125 93.75 73.9688 93.75 75V84.375C93.75 85.4062 92.9062 86.25 91.875 86.25H85.9125C83.55 86.25 81.4125 87.75 80.6062 89.9813L73.9125 108.75H79.275L84.4687 93.15C84.7875 92.175 85.8562 91.6312 86.8312 91.9687C87.8062 92.2875 88.35 93.3563 88.0125 94.3313L82.3875 111.206C82.125 111.975 81.4125 112.481 80.6062 112.481L80.625 112.5Z" fill="white"/>
<path id="Vector_5" d="M26.25 54.375C21.075 54.375 16.875 50.175 16.875 45C16.875 39.825 21.075 35.625 26.25 35.625C31.425 35.625 35.625 39.825 35.625 45C35.625 50.175 31.425 54.375 26.25 54.375ZM26.25 39.375C23.1562 39.375 20.625 41.9062 20.625 45C20.625 48.0938 23.1562 50.625 26.25 50.625C29.3438 50.625 31.875 48.0938 31.875 45C31.875 41.9062 29.3438 39.375 26.25 39.375Z" fill="white"/>
<path id="Vector_6" d="M33.75 95.6251H18.75C14.6062 95.6251 11.25 92.2689 11.25 88.1251C11.25 75.3189 12.2437 65.2876 14.2125 58.2564C15.5062 53.6626 20.0437 50.8126 24.7688 51.6001C28.8375 52.2751 32.2125 55.2751 33.3563 59.2501L35.2313 65.7939L45.7125 67.1064C48.525 67.4626 50.6437 69.8626 50.6437 72.6939C50.6437 75.0001 48.7688 76.8751 46.4625 76.8751H28.1438C27.3375 76.8751 26.625 76.3501 26.3625 75.6001L22.6125 64.3501C22.2938 63.3751 22.8187 62.3064 23.7937 61.9876C24.7875 61.6501 25.8375 62.1939 26.1562 63.1689L29.475 73.1439H46.425C46.6688 73.1439 46.8563 72.9376 46.8563 72.7126C46.8563 71.7751 46.1438 70.9689 45.2063 70.8564L33.4875 69.3939C32.7375 69.3001 32.1188 68.7751 31.9125 68.0439L29.7 60.3188C28.9688 57.7313 26.775 55.7814 24.1125 55.3314C21.2625 54.8626 18.5437 56.5689 17.775 59.3064C16.4812 63.9001 14.9437 72.6376 14.9437 88.1626C14.9437 90.2251 16.6313 91.9126 18.6938 91.9126H33.6937C34.725 91.9126 35.5687 92.7564 35.5687 93.7876C35.5687 94.8189 34.725 95.6626 33.6937 95.6626L33.75 95.6251Z" fill="white"/>
<path id="Vector_7" d="M48.75 112.5H39.375C38.5687 112.5 37.8562 111.975 37.5937 111.225L31.9687 94.3498C31.65 93.3748 32.175 92.3061 33.15 91.9873C34.1437 91.6498 35.1937 92.1936 35.5125 93.1686L40.7062 108.769H46.0687L39.375 89.9998C38.5687 87.7686 36.45 86.2686 34.0687 86.2686H28.1062C27.075 86.2686 26.2312 85.4248 26.2312 84.3936V75.0186C26.2312 73.9873 27.075 73.1436 28.1062 73.1436C29.1375 73.1436 29.9812 73.9873 29.9812 75.0186V82.5186H34.0687C38.025 82.5186 41.5687 85.0123 42.9 88.7436L50.4937 110.025C50.7 110.606 50.6062 111.244 50.2687 111.731C49.9312 112.219 49.35 112.519 48.7312 112.519L48.75 112.5Z" fill="white"/>
<path id="Vector_8" d="M33.7501 112.5H3.75006C2.73756 112.5 1.91256 111.713 1.87506 110.7L6.12498e-05 61.95C-0.0186888 61.4438 0.168811 60.9375 0.525061 60.5813C0.881311 60.225 1.36881 60 1.87506 60H5.62506C6.58131 60 7.36881 60.7125 7.48131 61.65L11.0438 91.875H33.7501C34.7813 91.875 35.6251 92.7188 35.6251 93.75V110.625C35.6251 111.656 34.7813 112.5 33.7501 112.5ZM5.55006 108.75H31.8751V95.625H9.37506C8.41881 95.625 7.63131 94.9125 7.51881 93.975L3.95631 63.75H3.82506L5.55006 108.75Z" fill="white"/>
<path id="Vector_9" d="M116.25 112.5H86.25C85.2188 112.5 84.375 111.656 84.375 110.625V93.75C84.375 92.7188 85.2188 91.875 86.25 91.875H108.956L112.519 61.65C112.631 60.7125 113.438 60 114.375 60H118.125C118.631 60 119.119 60.2063 119.475 60.5813C119.831 60.9563 120.019 61.4438 120 61.95L118.125 110.7C118.088 111.713 117.263 112.5 116.25 112.5ZM88.125 108.75H114.45L116.175 63.75H116.044L112.481 93.975C112.369 94.9125 111.563 95.625 110.625 95.625H88.125V108.75Z" fill="white"/>
<path id="Vector_10" d="M86.25 112.5C85.2188 112.5 84.375 111.656 84.375 110.625V93.75C84.375 92.7188 85.2188 91.875 86.25 91.875H106.875C107.906 91.875 108.75 92.7188 108.75 93.75C108.75 94.7812 107.906 95.625 106.875 95.625H88.125V110.625C88.125 111.656 87.2812 112.5 86.25 112.5Z" fill="white"/>
<path id="Vector_11" d="M60 112.5C58.9688 112.5 58.125 111.656 58.125 110.625V75C58.125 73.9688 58.9688 73.125 60 73.125C61.0312 73.125 61.875 73.9688 61.875 75V110.625C61.875 111.656 61.0312 112.5 60 112.5Z" fill="white"/>
<path id="Vector_12" d="M60 50.625C47.5875 50.625 37.5 40.5375 37.5 28.125C37.5 15.7125 47.5875 5.625 60 5.625C72.4125 5.625 82.5 15.7125 82.5 28.125C82.5 40.5375 72.4125 50.625 60 50.625ZM60 9.375C49.6687 9.375 41.25 17.7937 41.25 28.125C41.25 38.4562 49.6687 46.875 60 46.875C70.3312 46.875 78.75 38.4562 78.75 28.125C78.75 17.7937 70.3312 9.375 60 9.375Z" fill="#BD961D"/>
<path id="Vector_13" d="M60 30C58.9688 30 58.125 29.1562 58.125 28.125V15C58.125 13.9688 58.9688 13.125 60 13.125C61.0312 13.125 61.875 13.9688 61.875 15V28.125C61.875 29.1562 61.0312 30 60 30Z" fill="#CFA935"/>
<path id="Vector_14" d="M56.25 33.7496C55.7625 33.7496 55.2938 33.5621 54.9188 33.2059C54.1875 32.4746 54.1875 31.2934 54.9188 30.5621L58.6688 26.8121C59.4 26.0809 60.5813 26.0809 61.3125 26.8121C62.0438 27.5434 62.0438 28.7246 61.3125 29.4559L57.5625 33.2059C57.1875 33.5809 56.7188 33.7496 56.2313 33.7496H56.25Z" fill="#CFA935"/>
</g>
<defs>
<clipPath id="clip0_30925_41350">
<rect width="120" height="120" fill="white"/>
</clipPath>
</defs>
</svg>
