<svg width="120" height="120" viewBox="0 0 120 120" fill="none" xmlns="http://www.w3.org/2000/svg">
<g id="Frame">
<g id="_x30_8_Online_Workshop">
<g id="Group">
<g id="Group_2">
<path id="Vector" d="M2.71123 97.5418C2.71123 100.657 5.24716 103.193 8.36271 103.193H47.4417L42.9874 115.738H38.0137C37.2665 115.738 36.6604 116.344 36.6604 117.092C36.6604 117.839 37.2665 118.445 38.0137 118.445H81.997C82.7442 118.445 83.3503 117.839 83.3503 117.092C83.3503 116.344 82.7442 115.738 81.997 115.738H77.0233L72.569 103.193H111.648C114.764 103.193 117.298 100.657 117.298 97.5418C117.285 2.1005 117.29 35.0182 117.289 27.8972C117.289 24.7833 114.755 22.2493 111.641 22.2493H109.714C109.665 10.8321 96.9598 1.55371 81.3447 1.55371C67.6769 1.55371 53.0388 9.38207 52.983 22.2493H8.36974C5.24529 22.2493 2.70255 24.7833 2.70255 27.8972C2.70326 35.0194 2.69904 2.1005 2.71123 97.5418ZM74.1497 115.739H45.8608L50.314 103.193H69.6965L74.1497 115.739ZM114.591 97.5418C114.591 99.1648 113.271 100.486 111.648 100.486C91.2764 100.486 29.1204 100.486 8.36271 100.486C6.73966 100.486 5.41802 99.1648 5.41802 97.5418V88.7447H114.591V97.5418H114.591ZM34.8804 75.2393C37.5996 75.2393 39.8128 73.0278 39.8128 70.3085V69.8082H43.1662C49.2738 69.8082 54.2205 74.7305 54.2205 80.8625V86.0382H15.5508V80.8625C15.5508 74.7722 20.4548 69.8082 26.5929 69.8082H29.9498V70.3085C29.9498 73.0275 32.1614 75.2393 34.8804 75.2393ZM24.7247 51.6959L26.3142 44.0848C26.5797 42.814 27.873 41.9717 29.1672 42.3631C32.9297 43.5139 36.7605 43.5174 40.5229 42.3631C41.7654 41.986 43.1135 42.8159 43.3776 44.0848C43.9479 49.3496 47.4928 55.1536 42.9319 60.766C39.4811 65.0089 34.5213 64.613 34.7463 64.613C28.2443 64.5525 23.3496 58.2793 24.7247 51.6959ZM23.6639 43.5317L23.3076 45.2379C23.0505 44.0886 22.9097 42.9467 22.9097 41.854C22.9097 36.4088 26.4904 34.0845 34.8804 34.0845C43.7484 34.0845 48.4308 36.6868 46.4086 45.3518L46.0282 43.5317C45.4432 40.7335 42.5709 38.9117 39.7317 39.7763C36.484 40.7684 33.2062 40.7703 29.9585 39.7744C27.1436 38.9143 24.2519 40.7182 23.6639 43.5317ZM37.1062 67.1056V70.3085C37.1062 71.535 36.1071 72.5325 34.8806 72.5325C33.6541 72.5325 32.6566 71.535 32.6566 70.3085V67.1121C34.1637 67.3751 35.3803 67.4053 37.1062 67.1056ZM81.3447 4.26051C95.497 4.26051 107.011 12.3596 107.011 22.3144C107.011 28.4979 102.558 34.1883 95.0969 37.5364C88.5319 40.4881 80.6015 41.0307 74.1283 39.6157C73.7742 39.5365 73.3952 39.6068 73.0903 39.8096C69.2381 42.3682 64.1646 43.8802 60.5838 44.7014C60.3881 44.7366 60.2859 44.5763 60.2702 44.5428C60.1997 44.3946 60.2737 44.3014 60.3054 44.2627C62.0906 42.0387 63.3822 39.5276 64.1416 36.8014C64.2984 36.241 64.0765 35.6419 63.5937 35.3159C58.4939 31.883 55.6849 27.2661 55.6849 22.3142C55.6851 11.123 69.1101 4.26051 81.3447 4.26051ZM5.40912 27.8972C5.40912 26.2761 6.73779 24.9561 8.36974 24.9561H53.2376C54.034 29.4954 56.8319 33.7475 61.2558 36.9814C60.5772 39.0045 59.55 40.8795 58.1948 42.5677C56.4408 44.7537 58.4168 47.9731 61.1906 47.3398C64.8454 46.5029 69.9876 44.9696 74.1077 42.3757C81.0159 43.7595 89.2561 43.1297 96.206 40.0055C103.631 36.6732 108.428 31.1724 109.492 24.9561H111.641C113.263 24.9561 114.583 26.2761 114.583 27.8972V86.0382H56.9276V80.8625C56.9276 73.1921 50.7281 67.1014 43.1665 67.1014H39.813V66.3282C45.7561 63.8991 48.9773 57.6537 47.6955 51.5093L47.4771 50.4638C48.8025 47.5662 49.56 44.4924 49.56 41.8543C49.56 31.3779 38.5108 31.3779 34.8806 31.3779C31.2504 31.3779 20.2031 31.3779 20.2031 41.8543C20.2031 44.4493 20.9627 47.4561 22.2483 50.3117L22.0746 51.143C20.7499 57.4897 24.0853 63.8773 29.9501 66.3228V67.1016H26.5931C18.9846 67.1016 12.8442 73.2539 12.8442 80.8627V86.0384H5.40912V27.8972Z" fill="white"/>
<path id="Vector_2" d="M57.4529 95.9683H62.558C63.3052 95.9683 63.9113 95.3622 63.9113 94.615C63.9113 93.8678 63.3052 93.2617 62.558 93.2617H57.4529C56.7057 93.2617 56.0996 93.8678 56.0996 94.615C56.0994 95.3622 56.7057 95.9683 57.4529 95.9683Z" fill="white"/>
<path id="Vector_3" d="M78.8691 31.2265C79.5387 31.2265 80.1821 31.0116 80.73 30.6061L88.5244 24.8384C89.3332 24.2409 89.7985 23.321 89.7985 22.3148C89.8004 21.3068 89.3351 20.3852 88.5244 19.7862L80.7265 14.029C80.1802 13.6254 79.5387 13.4121 78.8691 13.4121C77.1333 13.4121 75.7217 14.8219 75.7217 16.556V28.0809C75.7217 29.8151 77.1333 31.2265 78.8691 31.2265ZM78.4285 16.556C78.4285 16.2546 78.6858 16.1189 78.8691 16.1189C78.9572 16.1189 79.0383 16.147 79.1194 16.207L86.9173 21.9642C87.0689 22.077 87.0917 22.2321 87.0917 22.3132C87.0917 22.3943 87.0687 22.5476 86.9154 22.6622L79.1194 28.4318C78.8761 28.6116 78.4287 28.527 78.4287 28.0812V16.556H78.4285Z" fill="#BD961D"/>
<path id="Vector_4" d="M80.8689 57.9888H108.365C109.112 57.9888 109.718 57.3827 109.718 56.6355C109.718 55.8883 109.112 55.2822 108.365 55.2822H80.8689C80.1217 55.2822 79.5156 55.8883 79.5156 56.6355C79.5156 57.3827 80.1217 57.9888 80.8689 57.9888Z" fill="#CFA935"/>
<path id="Vector_5" d="M80.8689 68.604H108.365C109.112 68.604 109.718 67.9979 109.718 67.2507C109.718 66.5036 109.112 65.8975 108.365 65.8975H80.8689C80.1217 65.8975 79.5156 66.5036 79.5156 67.2507C79.5156 67.9979 80.1217 68.604 80.8689 68.604Z" fill="#CFA935"/>
<path id="Vector_6" d="M80.8689 79.2202H108.365C109.112 79.2202 109.718 78.6141 109.718 77.867C109.718 77.1198 109.112 76.5137 108.365 76.5137H80.8689C80.1217 76.5137 79.5156 77.1198 79.5156 77.867C79.5156 78.6139 80.1217 79.2202 80.8689 79.2202Z" fill="#CFA935"/>
</g>
</g>
</g>
</g>
</svg>
