<svg width="120" height="120" viewBox="0 0 120 120" fill="none" xmlns="http://www.w3.org/2000/svg">
<g id="Line">
<path id="Vector" d="M85.3125 31.875H29.0625C28.0312 31.875 27.1875 32.7188 27.1875 33.75V41.25C27.1875 42.2812 28.0312 43.125 29.0625 43.125H85.3125C86.3438 43.125 87.1875 42.2812 87.1875 41.25V33.75C87.1875 32.7188 86.3438 31.875 85.3125 31.875ZM83.4375 39.375H30.9375V35.625H83.4375V39.375Z" fill="#BD961D"/>
<path id="Vector_2" d="M29.0625 58.125H36.5625C37.5938 58.125 38.4375 57.2812 38.4375 56.25V48.75C38.4375 47.7188 37.5938 46.875 36.5625 46.875H29.0625C28.0312 46.875 27.1875 47.7188 27.1875 48.75V56.25C27.1875 57.2812 28.0312 58.125 29.0625 58.125ZM30.9375 50.625H34.6875V54.375H30.9375V50.625Z" fill="#BD961D"/>
<path id="Vector_3" d="M36.5625 80.625H29.0625C28.0312 80.625 27.1875 81.4688 27.1875 82.5V90C27.1875 91.0312 28.0312 91.875 29.0625 91.875H36.5625C37.5938 91.875 38.4375 91.0312 38.4375 90V82.5C38.4375 81.4688 37.5938 80.625 36.5625 80.625ZM34.6875 88.125H30.9375V84.375H34.6875V88.125Z" fill="#BD961D"/>
<path id="Vector_4" d="M44.0625 58.125H81.5625C82.5938 58.125 83.4375 57.2812 83.4375 56.25C83.4375 55.2188 82.5938 54.375 81.5625 54.375H44.0625C43.0312 54.375 42.1875 55.2188 42.1875 56.25C42.1875 57.2812 43.0312 58.125 44.0625 58.125Z" fill="#BD961D"/>
<path id="Vector_5" d="M44.0625 50.625H81.5625C82.5938 50.625 83.4375 49.7812 83.4375 48.75C83.4375 47.7188 82.5938 46.875 81.5625 46.875H44.0625C43.0312 46.875 42.1875 47.7188 42.1875 48.75C42.1875 49.7812 43.0312 50.625 44.0625 50.625Z" fill="#BD961D"/>
<path id="Vector_6" d="M85.3125 65.625H29.0625C28.0312 65.625 27.1875 66.4688 27.1875 67.5V75C27.1875 76.0312 28.0312 76.875 29.0625 76.875H85.3125C86.3438 76.875 87.1875 76.0312 87.1875 75V67.5C87.1875 66.4688 86.3438 65.625 85.3125 65.625ZM83.4375 73.125H30.9375V69.375H83.4375V73.125Z" fill="#BD961D"/>
<path id="Vector_7" d="M81.5625 88.125H44.0625C43.0312 88.125 42.1875 88.9688 42.1875 90C42.1875 91.0312 43.0312 91.875 44.0625 91.875H81.5625C82.5938 91.875 83.4375 91.0312 83.4375 90C83.4375 88.9688 82.5938 88.125 81.5625 88.125Z" fill="#BD961D"/>
<path id="Vector_8" d="M81.5625 80.625H44.0625C43.0312 80.625 42.1875 81.4688 42.1875 82.5C42.1875 83.5312 43.0312 84.375 44.0625 84.375H81.5625C82.5938 84.375 83.4375 83.5312 83.4375 82.5C83.4375 81.4688 82.5938 80.625 81.5625 80.625Z" fill="#BD961D"/>
<path id="Vector_9" d="M81.5625 95.625H44.0625C43.0312 95.625 42.1875 96.4688 42.1875 97.5C42.1875 98.5312 43.0312 99.375 44.0625 99.375H81.5625C82.5938 99.375 83.4375 98.5312 83.4375 97.5C83.4375 96.4688 82.5938 95.625 81.5625 95.625Z" fill="#BD961D"/>
<path id="Vector_10" d="M114.769 102.731L106.444 94.4062L109.088 91.7438C109.556 91.275 109.744 90.5813 109.575 89.9438C109.406 89.3063 108.9 88.8 108.263 88.6125L98.4562 85.95V11.25C98.4562 8.15625 95.925 5.625 92.8312 5.625H21.5625C18.4688 5.625 15.9375 8.15625 15.9375 11.25V108.75C15.9375 111.844 18.4688 114.375 21.5625 114.375H92.8125C95.9062 114.375 98.4375 111.844 98.4375 108.75V102.394L98.475 102.356L106.8 110.681C107.156 111.037 107.625 111.225 108.131 111.225C108.637 111.225 109.106 111.019 109.463 110.681L114.769 105.375C115.125 105.019 115.312 104.55 115.312 104.044C115.312 103.538 115.106 103.069 114.769 102.712V102.731ZM21.5625 9.375H92.8125C93.8438 9.375 94.6875 10.2188 94.6875 11.25V16.875H19.6875V11.25C19.6875 10.2188 20.5312 9.375 21.5625 9.375ZM92.8125 110.625H21.5625C20.5312 110.625 19.6875 109.781 19.6875 108.75V20.625H94.6875V84.9375L90.0562 83.6813C89.4 83.5125 88.7063 83.6813 88.2375 84.1687C87.7688 84.6375 87.5812 85.3313 87.75 85.9875L92.6813 104.175C92.85 104.812 93.3562 105.319 94.0125 105.487C94.2375 105.544 94.4625 105.544 94.6875 105.525V108.75C94.6875 109.781 93.8438 110.625 92.8125 110.625ZM108.131 106.706L99.8063 98.3813C99.4313 98.0062 98.9625 97.8375 98.475 97.8375C97.9875 97.8375 97.5188 98.025 97.1438 98.3813L95.4563 100.069L92.2312 88.1625L104.138 91.3875L102.45 93.075C101.719 93.8063 101.719 94.9875 102.45 95.7188L110.775 104.044L108.131 106.706Z" fill="white"/>
</g>
</svg>
