<svg width="48" height="50" viewBox="0 0 48 50" fill="none" xmlns="http://www.w3.org/2000/svg">
<path d="M47.2824 31.048C44.0765 44.4409 31.052 52.5908 18.1919 49.2518C5.33766 45.9127 -2.48797 32.3472 0.718637 18.9551C3.923 5.56059 16.9467 -2.59093 29.8032 0.748118C42.6626 4.08716 50.4882 17.6543 47.2824 31.048Z" fill="#D1B456"/>
<path d="M44.954 30.4432C42.0688 42.4968 30.3468 49.8317 18.7726 46.8266C7.20379 43.8215 0.160726 31.6125 3.04668 19.5596C5.9306 7.50453 17.6519 0.168165 29.2227 3.17331C40.7962 6.17845 47.8393 18.3889 44.954 30.4432Z" fill="url(#paint0_linear_184_55)"/>
<path d="M5.86097 20.2805L5.86099 20.2804C8.36346 9.81989 18.5192 3.48592 28.5166 6.08244L28.5167 6.08245C38.5247 8.68111 44.6446 19.2558 42.1394 29.722C39.6358 40.1811 29.4796 46.514 19.479 43.9175C9.47511 41.3188 3.35524 30.7454 5.86097 20.2805Z" fill="url(#paint1_linear_184_55)" stroke="#D1B456"/>
<path d="M8.6551 21.0059L8.65513 21.0058C10.7731 12.1526 19.3659 6.79683 27.8206 8.99266L27.8207 8.99267C36.2856 11.1906 41.4664 20.1373 39.3459 28.9962C37.227 37.8482 28.6337 43.2031 20.1763 41.0073C11.715 38.8093 6.53417 29.8638 8.6551 21.0059Z" fill="url(#paint2_linear_184_55)" stroke="#D1B456"/>
<path d="M11.4488 21.7313L11.4488 21.7312C13.1822 14.4853 20.2122 10.1077 27.1241 11.9029L27.1242 11.9029C34.0459 13.7002 38.2877 21.0187 36.5519 28.2705C34.8177 35.5153 27.7873 39.8923 20.8731 38.097C13.9543 36.2997 9.71262 28.9821 11.4488 21.7313Z" fill="url(#paint3_linear_184_55)" stroke="#D1B456"/>
<path d="M32.4932 19.2202C32.1729 16.2094 29.6126 15.2574 26.3919 15.0446L26.3422 10.8589L23.849 10.9177L23.8975 14.9931C23.2429 15.0083 22.5733 15.0372 21.908 15.0664L21.8598 10.964L19.3686 11.0223L19.4173 15.2068C18.8778 15.2307 18.348 15.2533 17.8312 15.2658L17.8307 15.2528L14.393 15.3321L14.4259 18.0532C14.4259 18.0532 16.2661 17.9743 16.2359 18.0096C17.2455 17.9863 17.5818 18.5775 17.6829 19.0925L17.7396 23.8609C17.8092 23.8596 17.9002 23.8604 18.0032 23.8724L17.7406 23.8788L17.8185 30.559C17.778 30.8848 17.5974 31.407 16.892 31.4248C16.9243 31.4529 15.0802 31.4667 15.0802 31.4667L14.6212 34.5217L17.8654 34.4455C18.4691 34.4321 19.0631 34.4286 19.6455 34.419L19.6969 38.653L22.1867 38.5951L22.1377 34.4063C22.8208 34.4049 23.4825 34.395 24.1284 34.3793L24.1767 38.5486L26.6691 38.49L26.6199 34.2641C30.8073 33.9203 33.7281 32.7723 34.0434 28.7425C34.2991 25.4967 32.7921 24.0862 30.4064 23.5573C31.8422 22.7699 32.7307 21.4233 32.4932 19.2202ZM29.1126 28.3539C29.1508 31.5176 23.8481 31.2823 22.1581 31.323L22.0922 25.7141C23.782 25.6749 29.0717 25.0547 29.1126 28.3539ZM27.859 20.4678C27.8923 23.346 23.4688 23.1136 22.0611 23.1468L22.0009 18.0598C23.4086 18.0266 27.8238 17.4655 27.859 20.4678Z" fill="black"/>
<defs>
<linearGradient id="paint0_linear_184_55" x1="2.3999" y1="25" x2="45.5999" y2="25" gradientUnits="userSpaceOnUse">
<stop stop-color="#CDAF57"/>
<stop offset="0.510417" stop-color="#F0E58C"/>
<stop offset="1" stop-color="#D7BD64"/>
</linearGradient>
<linearGradient id="paint1_linear_184_55" x1="4.7998" y1="25" x2="43.1998" y2="25" gradientUnits="userSpaceOnUse">
<stop stop-color="#CDAF57"/>
<stop offset="0.510417" stop-color="#F0E58C"/>
<stop offset="1" stop-color="#D7BD64"/>
</linearGradient>
<linearGradient id="paint2_linear_184_55" x1="7.68018" y1="25" x2="40.3202" y2="25" gradientUnits="userSpaceOnUse">
<stop stop-color="#CDAF57"/>
<stop offset="0.510417" stop-color="#F0E58C"/>
<stop offset="1" stop-color="#D7BD64"/>
</linearGradient>
<linearGradient id="paint3_linear_184_55" x1="10.5601" y1="25" x2="37.4401" y2="25" gradientUnits="userSpaceOnUse">
<stop stop-color="#CDAF57"/>
<stop offset="0.510417" stop-color="#F0E58C"/>
<stop offset="1" stop-color="#D7BD64"/>
</linearGradient>
</defs>
</svg>
