<svg width="90" height="90" viewBox="0 0 90 90" fill="none" xmlns="http://www.w3.org/2000/svg">
<path d="M83.7828 55.0281H35.9281C35.1547 55.0281 34.5219 54.3953 34.5219 53.6219C34.5219 52.8484 35.1547 52.2156 35.9281 52.2156H82.3766V14.9219H16.2969V23.4297C16.2969 24.2031 15.6641 24.8359 14.8906 24.8359C14.1172 24.8359 13.4844 24.2031 13.4844 23.4297V13.5156C13.4844 12.7422 14.1172 12.1094 14.8906 12.1094H83.7828C84.5563 12.1094 85.1891 12.7422 85.1891 13.5156V53.6359C85.1891 54.4094 84.5563 55.0281 83.7828 55.0281Z" fill="#CFA935"/>
<path d="M85.1328 14.9063H13.5406C12.0781 14.9063 10.8828 13.7109 10.8828 12.2484V8.98594C10.8828 7.52344 12.0781 6.32812 13.5406 6.32812H85.1328C86.5953 6.32812 87.7906 7.52344 87.7906 8.98594V12.2625C87.7906 13.725 86.5953 14.9063 85.1328 14.9063ZM13.7094 12.0938H84.9781V9.14063H13.7094V12.0938Z" fill="#CFA935"/>
<path d="M14.8484 43.3141C8.98438 43.3141 4.20312 38.5328 4.20312 32.6687C4.20312 26.8047 8.98438 22.0234 14.8484 22.0234C20.7125 22.0234 25.4937 26.8047 25.4937 32.6687C25.4937 38.5328 20.7266 43.3141 14.8484 43.3141ZM14.8484 24.8359C10.5313 24.8359 7.01562 28.3516 7.01562 32.6687C7.01562 36.9859 10.5313 40.5016 14.8484 40.5016C19.1656 40.5016 22.6812 36.9859 22.6812 32.6687C22.6812 28.3516 19.1797 24.8359 14.8484 24.8359Z" fill="#CFA935"/>
<path d="M6.24297 78.4263C4.02109 78.4263 2.20703 76.6122 2.20703 74.3903V53.0294C2.20703 49.6825 3.68359 46.5607 6.25703 44.4232L11.1367 40.3872C11.7414 39.895 12.6273 39.9794 13.1195 40.57C13.6117 41.1747 13.5273 42.0607 12.9367 42.5528L8.05703 46.5888C6.13047 48.1778 5.03359 50.5263 5.03359 53.0294V74.3763C5.03359 75.0513 5.58203 75.5997 6.25703 75.5997C6.93203 75.5997 7.48047 75.0513 7.48047 74.3763V52.481C7.48047 51.7075 8.11328 51.0747 8.88672 51.0747C9.66016 51.0747 10.293 51.7075 10.293 52.481V74.3763C10.293 76.6122 8.47891 78.4263 6.24297 78.4263Z" fill="#CFA935"/>
<path d="M22.3438 83.6719C21.5703 83.6719 20.9375 83.0391 20.9375 82.2656V51.0469C20.9375 50.2734 21.5703 49.6406 22.3438 49.6406C23.1172 49.6406 23.75 50.2734 23.75 51.0469V82.2656C23.75 83.0391 23.1172 83.6719 22.3438 83.6719Z" fill="#CFA935"/>
<path d="M7.15625 83.6719C6.38281 83.6719 5.75 83.0391 5.75 82.2656V76.8516C5.75 76.0781 6.38281 75.4453 7.15625 75.4453C7.92969 75.4453 8.5625 76.0781 8.5625 76.8516V82.2656C8.5625 83.0391 7.92969 83.6719 7.15625 83.6719Z" fill="#CFA935"/>
<path d="M30.1914 57.769C29.1367 57.769 28.0539 57.5722 27.0274 57.1784C26.3805 56.9253 25.7758 56.6722 25.2696 56.4331L21.7539 54.83C21.0508 54.5065 20.7414 53.6768 21.0649 52.9597C21.3883 52.2565 22.218 51.9472 22.9352 52.2706L26.4508 53.8737C26.9149 54.0847 27.4633 54.3237 28.0539 54.5487C30.3321 55.4206 32.8914 54.844 34.5508 53.0722L44.2399 42.7643C44.2821 42.7081 44.9992 41.9768 44.6899 41.5268C44.5492 41.33 44.3383 41.2737 44.1977 41.2597C43.9024 41.2315 43.6071 41.33 43.3821 41.5128L33.9321 49.88C33.7352 50.0487 33.5102 50.1612 33.2571 50.2175C30.6836 50.6956 27.9836 49.9222 26.043 48.1503C24.5242 46.955 19.8414 43.5237 17.3242 42.8206C16.5789 42.6097 16.143 41.8362 16.3539 41.0909C16.5649 40.3456 17.3383 39.9097 18.0836 40.1206C21.6555 41.119 27.618 45.8159 27.8571 46.0128C29.1367 47.1659 30.7821 47.6862 32.3852 47.5034L41.5117 39.4175C42.3274 38.6862 43.4242 38.3487 44.5071 38.4753C45.5196 38.5878 46.3914 39.094 46.968 39.8956C48.3602 41.8362 47.0946 43.9175 46.2367 44.7472L36.6039 54.9987C34.8883 56.7987 32.568 57.769 30.1914 57.769Z" fill="#CFA935"/>
<path d="M22.3445 74.8711H8.88672C8.11328 74.8711 7.48047 74.2383 7.48047 73.4648C7.48047 72.6914 8.11328 72.0586 8.88672 72.0586H22.3445C23.118 72.0586 23.7508 72.6914 23.7508 73.4648C23.7508 74.2383 23.118 74.8711 22.3445 74.8711Z" fill="#CFA935"/>
<path d="M8.88672 59.7266H3.61328C2.83984 59.7266 2.20703 59.0938 2.20703 58.3203C2.20703 57.5469 2.83984 56.9141 3.61328 56.9141H8.88672C9.66016 56.9141 10.293 57.5469 10.293 58.3203C10.293 59.0938 9.66016 59.7266 8.88672 59.7266Z" fill="#CFA935"/>
<path d="M25.848 56.5744C25.7074 56.5744 25.5668 56.5462 25.4121 56.5041C24.6668 56.265 24.259 55.4775 24.498 54.7322L26.8043 47.5462C27.0434 46.815 27.8309 46.4072 28.5762 46.6322C29.3215 46.8712 29.7293 47.6587 29.4902 48.404L27.184 55.59C27.0012 56.1947 26.4387 56.5744 25.848 56.5744Z" fill="#CFA935"/>
<path d="M79.5797 21.7539H31.9219C31.1484 21.7539 30.5156 21.1211 30.5156 20.3477C30.5156 19.5742 31.1484 18.9414 31.9219 18.9414H79.5797C80.3531 18.9414 80.9859 19.5742 80.9859 20.3477C80.9859 21.1211 80.3531 21.7539 79.5797 21.7539Z" fill="#CFA935"/>
<path d="M79.5789 29.25H43.6211C42.8477 29.25 42.2148 28.6172 42.2148 27.8438C42.2148 27.0703 42.8477 26.4375 43.6211 26.4375H79.593C80.3664 26.4375 80.9992 27.0703 80.9992 27.8438C80.9992 28.6172 80.3523 29.25 79.5789 29.25Z" fill="#CFA935"/>
<path d="M79.5781 36.8164H61.1562C60.3828 36.8164 59.75 36.1836 59.75 35.4102C59.75 34.6367 60.3828 34.0039 61.1562 34.0039H79.5781C80.3516 34.0039 80.9844 34.6367 80.9844 35.4102C80.9844 36.1836 80.3516 36.8164 79.5781 36.8164Z" fill="#CFA935"/>
<path d="M44.1289 79.1563C39.1227 79.1563 35.0586 75.0922 35.0586 70.0859C35.0586 65.0797 39.1227 61.0156 44.1289 61.0156C49.1352 61.0156 53.1992 65.0797 53.1992 70.0859C53.1992 75.0922 49.1352 79.1563 44.1289 79.1563ZM44.1289 63.8281C40.6836 63.8281 37.8711 66.6406 37.8711 70.0859C37.8711 73.5453 40.6836 76.3438 44.1289 76.3438C47.5883 76.3438 50.3867 73.5313 50.3867 70.0859C50.3867 66.6266 47.5883 63.8281 44.1289 63.8281Z" fill="#CFA935"/>
<path d="M57.8802 83.6289C57.4583 83.6289 57.0365 83.4461 56.7693 83.0805C54.8568 80.5773 52.4661 79.1992 50.0615 79.1992H38.2208C35.8161 79.1992 33.4255 80.5773 31.513 83.0805C31.0349 83.6992 30.163 83.8117 29.5443 83.3477C28.9255 82.8695 28.813 81.9977 29.2771 81.3789C31.738 78.1586 34.9161 76.3867 38.2208 76.3867H50.0615C53.3661 76.3867 56.5443 78.1586 59.0052 81.3789C59.4833 81.9977 59.3568 82.8836 58.738 83.3477C58.4849 83.5305 58.1755 83.6289 57.8802 83.6289Z" fill="#CFA935"/>
<path d="M71.6211 79.1563C66.6148 79.1563 62.5508 75.0922 62.5508 70.0859C62.5508 65.0797 66.6148 61.0156 71.6211 61.0156C76.6273 61.0156 80.6914 65.0797 80.6914 70.0859C80.6914 75.0922 76.6273 79.1563 71.6211 79.1563ZM71.6211 63.8281C68.1758 63.8281 65.3633 66.6406 65.3633 70.0859C65.3633 73.5313 68.1758 76.3438 71.6211 76.3438C75.0805 76.3438 77.8789 73.5313 77.8789 70.0859C77.8789 66.6406 75.0805 63.8281 71.6211 63.8281Z" fill="#CFA935"/>
<path d="M85.3724 83.6289C84.9505 83.6289 84.5286 83.4461 84.2615 83.0805C82.349 80.5773 79.9583 79.1992 77.5536 79.1992H65.713C63.3083 79.1992 60.9177 80.5773 59.0052 83.0805C58.5271 83.6992 57.6552 83.8117 57.0365 83.3477C56.4177 82.8695 56.3052 81.9977 56.7693 81.3789C59.2302 78.1586 62.4083 76.3867 65.713 76.3867H77.5536C80.8583 76.3867 84.0365 78.1586 86.4974 81.3789C86.9755 81.9977 86.849 82.8836 86.2302 83.3477C85.9771 83.5445 85.6677 83.6289 85.3724 83.6289Z" fill="#CFA935"/>
</svg>
