<svg width="90" height="90" viewBox="0 0 90 90" fill="none" xmlns="http://www.w3.org/2000/svg">
<g clip-path="url(#clip0_10682_13448)">
<g clip-path="url(#clip1_10682_13448)">
<path d="M8.34728 58.2378C5.62815 60.2277 5.02252 64.0565 7.00145 66.7893C8.15159 68.3782 10.011 69.3265 11.9749 69.3265C13.2733 69.3265 14.5162 68.9234 15.5702 68.1599C15.5846 68.1496 15.599 68.1393 15.6134 68.1283L29.9479 57.0657C30.59 56.596 31.1269 56.0151 31.5451 55.3387L40.5546 41.9861L43.7029 44.204C43.8176 44.3599 43.8368 44.5247 43.8368 44.6174C43.8368 44.7252 43.8107 44.9339 43.6343 45.1104L34.508 54.236C33.3489 55.3951 32.7103 56.9359 32.7103 58.5756C32.7103 60.2147 33.3489 61.7555 34.508 62.9146C35.6664 64.0736 37.2079 64.7115 38.8469 64.7115C40.486 64.7115 42.0268 64.0736 43.1859 62.9146L52.766 53.3344C55.2119 50.8886 56.5591 47.6311 56.5591 44.1635C56.5591 41.0159 55.446 38.0441 53.4115 35.6923L63.3322 25.7716C63.8177 25.2861 64.2475 24.7539 64.6204 24.1847C64.6801 24.1847 64.7405 24.1881 64.8003 24.1881C67.6032 24.1881 70.4013 23.68 73.0291 22.6706C76.6842 21.2671 79.9471 18.925 82.4671 15.8989L87.5325 9.81448C88.4739 8.68287 88.9189 7.25258 88.785 5.78658C88.6511 4.32058 87.9542 2.99466 86.8232 2.05326C84.4879 0.108664 81.0059 0.42727 79.062 2.76257L75.2882 7.29584C75.2257 5.40206 74.4752 3.5275 73.0332 2.08553C70.0188 -0.929552 65.1134 -0.929552 62.0983 2.08553L60.8431 3.34073C59.3833 4.80124 58.5785 6.74308 58.5785 8.80784C58.5785 8.92389 58.582 9.03925 58.5875 9.15392C57.907 8.99599 57.2142 8.91153 56.5193 8.89917C56.4602 8.89299 56.4005 8.89024 56.3394 8.89024H47.9444C41.8977 8.89024 35.8092 10.2491 30.3366 12.8199C23.0293 16.2525 14.9034 18.0653 6.82841 18.0653C6.78309 18.066 6.73709 18.0687 6.69177 18.0653C6.18502 18.0653 5.7023 18.2843 5.36859 18.6661C5.03351 19.0486 4.88107 19.5574 4.94973 20.0614L5.55467 24.4861C6.9163 34.4467 13.0577 42.9625 22.0357 47.4059L21.7301 47.8776L8.34728 58.2378ZM28.6097 53.4044C28.5939 53.4271 28.5788 53.4505 28.5643 53.4738C28.3824 53.7732 28.1462 54.0293 27.8626 54.2353C27.8482 54.2456 27.8337 54.2566 27.8193 54.2669L13.4889 65.3261C13.0426 65.6433 12.5201 65.8109 11.9749 65.8109C11.1351 65.8109 10.3399 65.4057 9.84899 64.7266C9.00166 63.5566 9.26396 61.9148 10.4347 61.0675C10.4498 61.0565 10.4649 61.0455 10.4793 61.0338L24.1197 50.4738C24.2762 50.353 24.4108 50.206 24.5186 50.0392L33.6263 35.9731C34.2443 37.1432 35.1322 38.1663 36.2432 38.9484L37.6803 39.9612L28.6097 53.4044ZM50.2797 50.848L40.7002 60.4282C40.2051 60.9226 39.5466 61.1952 38.8469 61.1952C38.1472 61.1952 37.4887 60.9226 36.9937 60.4282C36.4993 59.9331 36.2267 59.2746 36.2267 58.5749C36.2267 57.8752 36.4993 57.2167 36.9937 56.7223L46.1199 47.5961C46.9151 46.8009 47.3525 45.7428 47.3525 44.6167C47.3525 43.4906 46.9151 42.4325 46.1199 41.638C46.0485 41.5666 45.9716 41.502 45.8892 41.4437L38.2674 36.0741C37.0644 35.2267 36.3022 33.9001 36.1759 32.4341C36.0502 30.9681 36.5741 29.531 37.6151 28.4907L39.4471 26.658L49.7029 36.9138C49.7434 36.9544 49.786 36.9921 49.8299 37.0278L50.2797 37.4783C52.0615 39.2601 53.0434 41.6346 53.0434 44.1628C53.0434 46.6917 52.0622 49.0655 50.2797 50.848ZM50.9526 33.1785L43.1859 25.4118C43.1454 25.3712 43.1028 25.3335 43.0589 25.2971L41.9328 24.1717L51.8322 14.2722C53.5001 12.6043 55.8697 12.0578 57.999 12.6284C57.6722 12.7293 57.3515 12.8611 57.0418 13.0246C55.7399 13.7119 54.7841 14.8648 54.3495 16.2717C53.9155 17.678 54.0549 19.1694 54.7422 20.4713C55.4296 21.7725 56.5824 22.729 57.9887 23.163C58.7736 23.4054 59.5701 23.6024 60.3721 23.759L50.9526 33.1785ZM76.6986 11.0965L81.764 5.01135C82.4678 4.1654 83.7285 4.05004 84.5738 4.75454C84.983 5.09512 85.235 5.57578 85.2838 6.10656C85.3325 6.63665 85.1712 7.15439 84.8306 7.56432L79.7645 13.6487C77.629 16.2147 74.8638 18.1992 71.7684 19.3884C67.7199 20.9437 63.1949 21.0907 59.0262 19.8032C58.5174 19.6459 58.0999 19.2999 57.8514 18.8288C57.6021 18.3578 57.552 17.8181 57.7092 17.3086C57.8665 16.7998 58.2126 16.3823 58.6836 16.133C58.9747 15.9792 59.292 15.9016 59.6126 15.9016C59.8104 15.9016 60.0095 15.9312 60.2038 15.9916C61.1535 16.2848 62.1148 16.4825 63.0768 16.5903C63.2313 16.6267 63.3906 16.6425 63.5506 16.6357C64.9143 16.7462 66.2752 16.6748 67.5991 16.431C67.7666 16.4029 67.9321 16.3699 68.0962 16.3315C68.1058 16.3294 68.1154 16.3274 68.1244 16.3253C68.1594 16.3171 68.1937 16.3095 68.228 16.3006C71.4745 15.5611 74.4656 13.7778 76.6986 11.0965ZM62.0942 8.80716C62.0942 7.68105 62.533 6.62223 63.3295 5.82572L64.5847 4.57052C65.4066 3.7486 66.486 3.33798 67.5661 3.33798C68.6455 3.33798 69.7249 3.7486 70.5469 4.57052C71.3434 5.36704 71.7822 6.42585 71.7822 7.55196C71.7822 8.67807 71.3434 9.73688 70.5469 10.5327L69.2917 11.7886C68.6984 12.3819 67.9699 12.7575 67.2043 12.9229C67.1521 12.9332 67.0999 12.9442 67.0477 12.9545C65.7547 13.1825 64.3773 12.8062 63.3707 11.8264C63.3576 11.8126 63.3453 11.7989 63.3315 11.7858C63.3137 11.7673 63.2945 11.7508 63.2759 11.733C62.5144 10.9433 62.0942 9.90786 62.0942 8.80716ZM9.03805 24.0096L8.70159 21.55C16.6688 21.2912 24.6243 19.3871 31.8314 16.0012C36.8399 13.6487 42.4113 12.4052 47.9444 12.4052H48.7272L38.2042 22.9281C38.2015 22.9309 38.1994 22.9336 38.1967 22.9364L35.1294 26.0043C33.7884 27.3454 32.9507 29.073 32.7124 30.9159L23.9604 44.4327C15.8318 40.56 10.2589 32.9422 9.03805 24.0096Z" fill="#CFA935"/>
<path d="M20.1001 68.6434L6.62046 82.123C5.93381 82.8097 5.93381 83.9227 6.62046 84.6094C6.96378 84.9527 7.41354 85.1244 7.8633 85.1244C8.31305 85.1244 8.76349 84.9527 9.10613 84.6094L22.5858 71.1297C23.2724 70.4431 23.2724 69.33 22.5858 68.6434C21.8998 67.9574 20.7868 67.9574 20.1001 68.6434Z" fill="#CFA935"/>
<path d="M3.16476 86.3086C2.70196 86.3086 2.24877 86.496 1.92192 86.8236C1.59439 87.1504 1.40625 87.6043 1.40625 88.0664C1.40625 88.5285 1.59439 88.9824 1.92192 89.3093C2.24877 89.6361 2.70196 89.8242 3.16476 89.8242C3.62688 89.8242 4.08007 89.6361 4.4076 89.3093C4.73445 88.9824 4.92259 88.5285 4.92259 88.0664C4.92259 87.6043 4.73445 87.1504 4.4076 86.8236C4.08007 86.4967 3.62688 86.3086 3.16476 86.3086Z" fill="#CFA935"/>
<path d="M34.9697 68.6434C34.2837 67.9574 33.1707 67.9574 32.484 68.6434L23.7533 77.3741C23.0666 78.0608 23.0666 79.1739 23.7533 79.8605C24.0966 80.2038 24.5464 80.3755 24.9961 80.3755C25.4459 80.3755 25.8956 80.2038 26.2389 79.8605L34.9697 71.1297C35.6564 70.4431 35.6564 69.33 34.9697 68.6434Z" fill="#CFA935"/>
<path d="M86.6582 37.9863L70.8185 41.6269C70.1957 41.7697 69.6993 42.2401 69.5228 42.8546C69.3463 43.4692 69.5173 44.1304 69.9691 44.5829L71.1618 45.7749L30.1283 86.8092C29.4416 87.4958 29.4416 88.6089 30.1283 89.2956C30.4709 89.6382 30.9214 89.8105 31.3711 89.8105C31.8209 89.8105 32.2713 89.6382 32.6139 89.2956L74.891 47.0185C75.5777 46.3318 75.5777 45.2188 74.891 44.5321L74.7008 44.3419L84.7101 42.0409L82.4099 52.0502L82.2197 51.86C81.533 51.1741 80.42 51.1741 79.7333 51.86L49.3373 82.2567C48.6507 82.9427 48.6507 84.0557 49.3373 84.7424C50.0233 85.429 51.1364 85.429 51.823 84.7424L80.9761 55.5892L82.1688 56.782C82.6207 57.2338 83.2819 57.4054 83.8972 57.2283C84.5117 57.0518 84.9821 56.556 85.1249 55.9326L88.7655 40.0929C88.9015 39.5031 88.7236 38.8844 88.2952 38.4559C87.8674 38.0281 87.2487 37.8503 86.6582 37.9863Z" fill="#CFA935"/>
<path d="M46.0274 86.2969C45.5632 86.2969 45.1114 86.483 44.7825 86.8098C44.4556 87.1387 44.2695 87.5905 44.2695 88.0547C44.2695 88.5168 44.4556 88.9686 44.7825 89.2975C45.1114 89.6244 45.5652 89.8125 46.0274 89.8125C46.4895 89.8125 46.9413 89.6244 47.2702 89.2975C47.597 88.9686 47.7852 88.5168 47.7852 88.0547C47.7852 87.5905 47.597 87.1387 47.2702 86.8098C46.9433 86.483 46.4895 86.2969 46.0274 86.2969Z" fill="#CFA935"/>
</g>
</g>
<defs>
<clipPath id="clip0_10682_13448">
<rect width="90" height="90" fill="white"/>
</clipPath>
<clipPath id="clip1_10682_13448">
<rect width="90" height="90" fill="white"/>
</clipPath>
</defs>
</svg>
