<svg width="90" height="90" viewBox="0 0 90 90" fill="none" xmlns="http://www.w3.org/2000/svg">
<g clip-path="url(#clip0_10682_13353)">
<path d="M34.9403 69.6147C34.4026 69.6147 33.8972 69.2844 33.6994 68.7513L32.2874 64.9468C31.3587 62.4445 29.7224 60.264 27.5561 58.6406C24.9828 56.7122 23.0375 54.1175 21.9311 51.1376L19.467 44.5012C19.0947 43.4969 17.927 42.9929 16.8593 43.3838C16.3275 43.5777 15.9068 43.959 15.6767 44.4566C15.4647 44.9155 15.4428 45.4234 15.6147 45.8861L20.088 57.9336C20.3427 58.6187 19.993 59.3806 19.308 59.6352C18.623 59.8898 17.8617 59.5402 17.6064 58.8552L13.133 46.8077C12.7143 45.6787 12.764 44.4495 13.2739 43.3464C13.8019 42.2038 14.7538 41.3333 15.9539 40.8964C18.3839 40.0104 21.0716 41.217 21.9486 43.5797L24.4128 50.2161C25.3421 52.7183 26.9778 54.8995 29.1434 56.5222C31.7174 58.4513 33.6626 61.046 34.769 64.0252L36.1811 67.8297C36.4357 68.5154 36.0861 69.2767 35.401 69.5313C35.2492 69.5875 35.0934 69.6147 34.9403 69.6147Z" fill="#CFA935"/>
<path d="M16.2847 76.4076C15.7476 76.4076 15.2416 76.0774 15.0439 75.5442L14.4441 73.9286C13.648 71.783 12.2947 69.8553 10.5311 68.354L8.60395 66.7132C5.23696 63.847 3.17541 59.6922 2.94922 55.3152L3.28915 25.6715C3.21354 24.2639 3.77966 22.7847 4.84404 21.6983C5.9459 20.5732 7.46137 19.9541 9.06731 20.0071C11.9936 20.0988 14.313 22.4137 14.3472 25.2766L15.7179 44.0219C15.7709 44.7508 15.2229 45.3848 14.4939 45.4385C13.7636 45.4895 13.131 44.9434 13.0773 44.2145L11.7034 25.3891C11.6827 23.8665 10.4897 22.7 8.98394 22.6528C8.15157 22.6283 7.32048 22.9527 6.73498 23.5511C6.17855 24.1185 5.89485 24.8527 5.93427 25.6185L5.59434 55.2622C5.78175 58.8314 7.50467 62.3012 10.3204 64.6981L12.2469 66.3383C14.3543 68.1323 15.9725 70.4382 16.9258 73.007L17.5255 74.6227C17.7801 75.3083 17.4305 76.0696 16.7455 76.3243C16.5936 76.3805 16.4378 76.4076 16.2847 76.4076Z" fill="#CFA935"/>
<path d="M17.3803 87.353C16.8432 87.353 16.3379 87.0227 16.1395 86.4896L13.5506 79.5165C13.1208 78.3591 13.1654 77.1124 13.6766 76.006C14.1723 74.9339 15.0512 74.1229 16.1511 73.7228L34.3173 67.1084C36.6173 66.2676 39.1959 67.4975 40.067 69.8434L43.032 77.4653C43.297 78.1464 42.9597 78.9135 42.2779 79.1785C41.5967 79.4441 40.8296 79.1055 40.5646 78.4243L37.5925 70.7837C37.2203 69.7794 36.1649 69.2533 35.2234 69.5952L17.0571 76.2096C16.6241 76.3673 16.2771 76.6898 16.0794 77.117C15.8661 77.5784 15.8493 78.1031 16.0322 78.5949L18.6211 85.568C18.8757 86.2537 18.5261 87.015 17.841 87.2696C17.6892 87.3258 17.5334 87.353 17.3803 87.353Z" fill="#CFA935"/>
<path d="M23.3549 81.6258C22.8328 81.6258 22.3035 81.3375 22.0676 80.8664C21.9099 80.551 21.9002 80.1381 22.0133 79.804C22.1258 79.4699 22.383 79.1474 22.6996 78.9916C23.0182 78.8359 23.437 78.8126 23.7718 78.9277C24.1059 79.0446 24.4206 79.3283 24.5725 79.6489C24.7198 79.9617 24.7431 80.3746 24.63 80.7023C24.5137 81.039 24.2313 81.353 23.9094 81.5049C23.7349 81.587 23.5456 81.6258 23.3549 81.6258Z" fill="#CFA935"/>
<path d="M55.0584 69.6164C54.9052 69.6164 54.7495 69.5892 54.5976 69.533C53.9126 69.2784 53.5629 68.5171 53.8176 67.8314L55.2296 64.0269C56.336 61.0477 58.2812 58.4529 60.8553 56.5239C63.0209 54.9011 64.6565 52.72 65.5859 50.2177L68.05 43.5813C68.9276 41.218 71.6225 40.0185 74.044 40.8974C75.2448 41.335 76.1967 42.2055 76.7247 43.348C77.2346 44.4512 77.2844 45.6804 76.8656 46.8094L72.3929 58.8569C72.1389 59.5419 71.375 59.8915 70.6913 59.6369C70.0062 59.3823 69.6566 58.621 69.9112 57.9353L74.384 45.8878C74.5559 45.4251 74.5339 44.9171 74.3219 44.4583C74.0919 43.9607 73.6711 43.5794 73.1386 43.3849C72.0736 43.0004 70.9045 43.4993 70.5316 44.5029L68.0675 51.1393C66.9611 54.1192 65.0159 56.7139 62.4425 58.6423C60.2762 60.2657 58.6399 62.4462 57.7112 64.9485L56.2992 68.753C56.1014 69.2861 55.5954 69.6164 55.0584 69.6164Z" fill="#CFA935"/>
<path d="M73.7146 76.4103C73.5615 76.4103 73.4057 76.3831 73.2538 76.3269C72.5688 76.0723 72.2192 75.311 72.4738 74.6253L73.0735 73.0097C74.028 70.4402 75.6463 68.1337 77.7531 66.3403L79.6789 64.7008C82.494 62.3038 84.2175 58.8341 84.4075 55.1808L84.0631 25.7051C84.1045 24.8553 83.8207 24.1212 83.2643 23.5537C82.6795 22.956 81.8607 22.627 81.016 22.6554C79.5102 22.7026 78.3166 23.8698 78.2991 25.3116L76.922 44.2171C76.8683 44.9454 76.2305 45.4837 75.5054 45.4411C74.7764 45.3875 74.2284 44.7535 74.2814 44.0245L75.6553 25.1991C75.6876 22.4163 78.0064 20.1014 80.9326 20.0097C82.4946 19.9696 84.0521 20.5758 85.1553 21.7009C86.2196 22.7873 86.7858 24.2666 86.7082 25.7581L87.0527 55.2338C86.8232 59.6955 84.7623 63.8497 81.3954 66.7158L79.4689 68.356C77.7052 69.8572 76.3526 71.785 75.5551 73.9312L74.9554 75.5469C74.7577 76.08 74.2517 76.4096 73.7146 76.4103Z" fill="#CFA935"/>
<path d="M72.6178 87.3561C72.4646 87.3561 72.3089 87.329 72.157 87.2727C71.472 87.0181 71.1224 86.2568 71.377 85.5712L73.9653 78.5981C74.1481 78.1063 74.1313 77.5815 73.9181 77.1201C73.7203 76.6929 73.3733 76.3704 72.9403 76.2127L54.7747 69.5983C53.8396 69.2558 52.7778 69.7806 52.412 70.7681L49.4328 78.4275C49.1685 79.1099 48.3994 79.4479 47.7196 79.1816C47.0378 78.9167 46.7004 78.1496 46.9654 77.4684L49.9375 69.8278C50.8022 67.4999 53.3833 66.2734 55.6808 67.1115L73.8463 73.726C74.9463 74.126 75.8252 74.937 76.3209 76.0092C76.832 77.1156 76.8766 78.3622 76.4469 79.5196L73.8586 86.4927C73.6609 87.0259 73.1548 87.3561 72.6178 87.3561Z" fill="#CFA935"/>
<path d="M66.6917 81.6332C66.4746 81.6332 66.2555 81.5867 66.0706 81.4962C65.7572 81.3424 65.4826 81.0316 65.3682 80.702C65.2518 80.3653 65.2796 79.9407 65.4386 79.6221C65.5924 79.3145 65.9013 79.0411 66.2264 78.9274C66.5618 78.813 66.9812 78.8356 67.2985 78.9914C67.6139 79.1465 67.8698 79.467 67.9836 79.7992C68.0973 80.1314 68.0895 80.5424 67.9344 80.8571C67.7806 81.1712 67.4685 81.4471 67.1383 81.5615C66.9993 81.6093 66.8462 81.6332 66.6917 81.6332Z" fill="#CFA935"/>
<path d="M51.3864 52.699H38.6165C37.8855 52.699 37.2929 52.1064 37.2929 51.3755V50.9922C37.2929 47.4114 35.7619 43.9216 33.0923 41.4173C28.9259 37.5094 26.9832 31.9917 27.7626 26.2788C28.8186 18.5406 35.2365 12.2978 43.0233 11.435C47.9729 10.8876 52.9349 12.46 56.6159 15.7565C60.2964 19.0518 62.407 23.7778 62.407 28.723C62.407 33.4936 60.5148 37.9437 57.0787 41.2538C54.2616 43.9675 52.71 47.4282 52.71 50.9974V51.3755C52.71 52.1064 52.1174 52.699 51.3864 52.699ZM39.9109 50.0519H50.0926C50.3421 46.0982 52.1484 42.3279 55.242 39.3474C58.1553 36.5407 59.76 32.7679 59.76 28.723C59.76 24.5294 57.9705 20.522 54.8497 17.7282C51.685 14.8938 47.5975 13.5941 43.3141 14.0666C36.7165 14.7968 31.2795 20.0838 30.3851 26.6369C29.7233 31.4889 31.37 36.173 34.9031 39.4863C37.8707 42.2704 39.6647 46.0781 39.9109 50.0519Z" fill="#CFA935"/>
<path d="M49.4654 58.4243H40.54C38.2328 58.4243 36.3555 56.547 36.3555 54.2398C36.3555 51.9321 38.2328 50.0547 40.54 50.0547H49.4654C51.7732 50.0547 53.6505 51.9321 53.6505 54.2398C53.6505 56.547 51.7732 58.4243 49.4654 58.4243ZM40.54 52.7017C39.6921 52.7017 39.0025 53.3919 39.0025 54.2398C39.0025 55.0877 39.6921 55.7773 40.54 55.7773H49.4654C50.3133 55.7773 51.0035 55.0877 51.0035 54.2398C51.0035 53.3919 50.3133 52.7017 49.4654 52.7017H40.54Z" fill="#CFA935"/>
<path d="M45.0008 66.1866C40.6515 66.1866 37.1133 62.6483 37.1133 58.299C37.1133 56.9083 38.2442 55.7773 39.635 55.7773H50.3667C51.7574 55.7773 52.8884 56.9083 52.8884 58.299C52.8884 62.6483 49.3501 66.1866 45.0008 66.1866ZM39.7616 58.4244C39.8288 61.2563 42.1534 63.5395 45.0008 63.5395C47.8482 63.5395 50.1728 61.2563 50.24 58.4244H39.7616Z" fill="#CFA935"/>
<path d="M45.0032 7.50052C44.2723 7.50052 43.6797 6.9079 43.6797 6.17699V3.97197C43.6797 3.24105 44.2723 2.64844 45.0032 2.64844C45.7341 2.64844 46.3267 3.24105 46.3267 3.97197V6.17699C46.3267 6.9079 45.7341 7.50052 45.0032 7.50052Z" fill="#CFA935"/>
<path d="M56.2796 10.5219C56.0553 10.5219 55.8278 10.465 55.6191 10.3448C54.9858 9.97904 54.7693 9.16993 55.1344 8.5366L56.2369 6.62692C56.6027 5.99359 57.4099 5.7771 58.0451 6.14223C58.6785 6.50801 58.895 7.31712 58.5298 7.95045L57.4273 9.86013C57.1818 10.2847 56.7371 10.5219 56.2796 10.5219Z" fill="#CFA935"/>
<path d="M64.5359 18.7783C64.0783 18.7783 63.6337 18.5411 63.3888 18.1165C63.023 17.4838 63.2395 16.674 63.8728 16.3089L65.7825 15.2058C66.412 14.8387 67.2249 15.0565 67.5901 15.6898C67.9559 16.3225 67.7394 17.1322 67.106 17.4974L65.1964 18.6005C64.9883 18.7214 64.7608 18.7783 64.5359 18.7783Z" fill="#CFA935"/>
<path d="M69.7629 30.0572H67.5579C66.827 30.0572 66.2344 29.4646 66.2344 28.7337C66.2344 28.0028 66.827 27.4102 67.5579 27.4102H69.7629C70.4938 27.4102 71.0865 28.0028 71.0865 28.7337C71.0865 29.4646 70.4938 30.0572 69.7629 30.0572Z" fill="#CFA935"/>
<path d="M33.7245 10.5219C33.267 10.5219 32.8223 10.2847 32.5768 9.86013L31.4743 7.95045C31.1091 7.31712 31.3256 6.50801 31.959 6.14223C32.5916 5.7771 33.4007 5.99359 33.7672 6.62692L34.8697 8.5366C35.2348 9.16993 35.0183 9.97904 34.385 10.3448C34.1763 10.465 33.9488 10.5219 33.7245 10.5219Z" fill="#CFA935"/>
<path d="M25.4664 18.7783C25.2415 18.7783 25.014 18.7214 24.8059 18.6005L22.8963 17.4974C22.2629 17.1322 22.0464 16.3225 22.4122 15.6898C22.7767 15.0565 23.5878 14.8387 24.2198 15.2058L26.1295 16.3089C26.7628 16.674 26.9793 17.4838 26.6135 18.1165C26.3686 18.5411 25.924 18.7783 25.4664 18.7783Z" fill="#CFA935"/>
<path d="M22.4465 30.0572H20.2415C19.5106 30.0572 18.918 29.4646 18.918 28.7337C18.918 28.0028 19.5106 27.4102 20.2415 27.4102H22.4465C23.1774 27.4102 23.77 28.0028 23.77 28.7337C23.77 29.4646 23.1774 30.0572 22.4465 30.0572Z" fill="#CFA935"/>
<path d="M45.0032 52.6999C44.2723 52.6999 43.6797 52.1073 43.6797 51.3763V37.0618C43.6797 36.3309 44.2723 35.7383 45.0032 35.7383C45.7341 35.7383 46.3267 36.3309 46.3267 37.0618V51.3763C46.3267 52.1073 45.7341 52.6999 45.0032 52.6999Z" fill="#CFA935"/>
<path d="M48.6649 38.3929H45.0032C44.2723 38.3929 43.6797 37.8003 43.6797 37.0694V33.4071C43.6797 30.6579 45.9157 28.4219 48.6649 28.4219C51.4141 28.4219 53.6507 30.6579 53.6507 33.4071C53.6507 36.1562 51.4141 38.3929 48.6649 38.3929ZM46.3267 35.7459H48.6649C49.9548 35.7459 51.0037 34.697 51.0037 33.4071C51.0037 32.1178 49.9548 31.0689 48.6649 31.0689C47.3756 31.0689 46.3267 32.1178 46.3267 33.4071V35.7459Z" fill="#CFA935"/>
<path d="M45.003 38.3929H41.3413C38.5922 38.3929 36.3555 36.1562 36.3555 33.4071C36.3555 30.6579 38.5922 28.4219 41.3413 28.4219C44.0905 28.4219 46.3265 30.6579 46.3265 33.4071V37.0694C46.3265 37.8003 45.7339 38.3929 45.003 38.3929ZM41.3413 31.0689C40.0514 31.0689 39.0025 32.1178 39.0025 33.4071C39.0025 34.697 40.0514 35.7459 41.3413 35.7459H43.6795V33.4071C43.6795 32.1178 42.6306 31.0689 41.3413 31.0689Z" fill="#CFA935"/>
</g>
<defs>
<clipPath id="clip0_10682_13353">
<rect width="90" height="90" fill="white"/>
</clipPath>
</defs>
</svg>
