<svg width="90" height="90" viewBox="0 0 90 90" fill="none" xmlns="http://www.w3.org/2000/svg">
<g clip-path="url(#clip0_10682_13551)">
<g clip-path="url(#clip1_10682_13551)">
<g clip-path="url(#clip2_10682_13551)">
<g clip-path="url(#clip3_10682_13551)">
<path d="M45.0503 16.5876L37.9072 23.7307C35.3247 26.3132 33.5939 29.4249 32.7148 32.7166M67.8133 50.5377L82.8051 35.5458C90.6356 27.7153 90.6356 15.0197 82.8051 7.1893C74.9746 -0.641225 62.279 -0.641225 54.4486 7.1893L49.4011 12.2369M32.8115 43.4505C33.7177 46.613 35.4163 49.5963 37.9072 52.0873C40.3543 54.5344 43.2763 56.2166 46.3767 57.1344M43.4486 32.8133C43.869 32.1019 44.385 31.4311 44.9963 30.8198L61.5377 14.2784C65.4529 10.3632 71.8007 10.3632 75.716 14.2784C79.6312 18.1936 79.6312 24.5415 75.716 28.4567L59.1747 44.9981C58.5633 45.6095 57.8927 46.1254 57.1813 46.5457" stroke="#CFA935" stroke-width="2.5" stroke-miterlimit="10" stroke-linecap="round" stroke-linejoin="round"/>
<path d="M82.8289 55.8068C86.4352 59.2828 88.6786 64.1634 88.6786 69.5678C88.6786 80.1224 80.1224 88.6786 69.5678 88.6786C59.0132 88.6786 50.457 80.1224 50.457 69.5678C50.457 59.0132 59.0132 50.457 69.5678 50.457C72.4281 50.457 75.1416 51.0854 77.578 52.2117" stroke="#CFA935" stroke-width="2.5" stroke-miterlimit="10" stroke-linecap="round" stroke-linejoin="round"/>
<path d="M69.5693 88.6786C74.0927 88.6786 77.7596 80.1224 77.7596 69.5678C77.7596 59.0132 74.0927 50.457 69.5693 50.457C65.0459 50.457 61.3789 59.0132 61.3789 69.5678C61.3789 80.1224 65.0459 88.6786 69.5693 88.6786Z" stroke="#CFA935" stroke-width="2.5" stroke-miterlimit="10" stroke-linecap="round" stroke-linejoin="round"/>
<path d="M52.3789 61.3789H86.7566" stroke="#CFA935" stroke-width="2.5" stroke-miterlimit="10" stroke-linecap="round" stroke-linejoin="round"/>
<path d="M52.418 77.7578H86.7185" stroke="#CFA935" stroke-width="2.5" stroke-miterlimit="10" stroke-linecap="round" stroke-linejoin="round"/>
<path d="M22.3589 22.3589C21.2928 23.425 19.5642 23.425 18.4979 22.3589L10.7761 14.637C9.71003 13.5709 9.71003 11.8423 10.7761 10.7761C11.8423 9.71003 13.5709 9.71003 14.637 10.7761L22.3589 18.498C23.425 19.5642 23.425 21.2928 22.3589 22.3589Z" stroke="#CFA935" stroke-width="2.5" stroke-miterlimit="10" stroke-linecap="round" stroke-linejoin="round"/>
<path d="M31.3472 17.6971C29.8394 17.6971 28.6172 16.4747 28.6172 14.967V4.04646C28.6172 2.53861 29.8396 1.31641 31.3472 1.31641C32.8551 1.31641 34.0773 2.53879 34.0773 4.04646V14.9669C34.0773 16.4747 32.8549 17.6971 31.3472 17.6971Z" stroke="#CFA935" stroke-width="2.5" stroke-miterlimit="10" stroke-linecap="round" stroke-linejoin="round"/>
<path d="M17.6971 31.3472C17.6971 29.8394 16.4747 28.6172 14.967 28.6172H4.04646C2.53861 28.6172 1.31641 29.8396 1.31641 31.3472C1.31641 32.8551 2.53879 34.0773 4.04646 34.0773H14.9669C16.4747 34.0773 17.6971 32.8549 17.6971 31.3472Z" stroke="#CFA935" stroke-width="2.5" stroke-miterlimit="10" stroke-linecap="round" stroke-linejoin="round"/>
<path d="M30.2432 73.9294L28.4567 75.7159C24.5415 79.631 18.1937 79.631 14.2784 75.7159C10.3632 71.8007 10.3632 65.4527 14.2784 61.5375L30.8197 44.9962C31.4311 44.3848 32.1017 43.8689 32.8133 43.4486C31.8105 39.9484 31.7783 36.2289 32.7166 32.7148C29.4247 33.5939 26.3131 35.3247 23.7307 37.9071L7.1893 54.4483C-0.641225 62.2788 -0.641225 74.9744 7.1893 82.8048C15.0197 90.6353 27.7155 90.6353 35.5458 82.8048L50.5377 67.8129" stroke="#CFA935" stroke-width="2.5" stroke-miterlimit="10" stroke-linecap="round" stroke-linejoin="round"/>
<path d="M57.8137 54.4985C58.5247 48.5961 56.6154 42.4381 52.0857 37.9082C49.5947 35.4172 46.6113 33.7188 43.4488 32.8125C41.1767 36.6574 41.6926 41.6935 44.9964 44.9973C48.9116 48.9125 48.9116 55.2603 44.9964 59.1756L34.7109 69.4611" stroke="#CFA935" stroke-width="2.5" stroke-miterlimit="10" stroke-linecap="round" stroke-linejoin="round"/>
</g>
</g>
</g>
</g>
<defs>
<clipPath id="clip0_10682_13551">
<rect width="90" height="90" fill="white"/>
</clipPath>
<clipPath id="clip1_10682_13551">
<rect width="90" height="90" fill="white"/>
</clipPath>
<clipPath id="clip2_10682_13551">
<rect width="90" height="90" fill="white"/>
</clipPath>
<clipPath id="clip3_10682_13551">
<rect width="90" height="90" fill="white"/>
</clipPath>
</defs>
</svg>
