<svg width="40" height="40" viewBox="0 0 40 40" fill="none" xmlns="http://www.w3.org/2000/svg">
<path d="M10.4167 37.9163H32.9167C33.375 37.9163 33.75 37.5413 33.75 37.083V30.4163V2.91634C33.75 2.45801 33.375 2.08301 32.9167 2.08301H10.4167C8.11667 2.08301 6.25 3.94967 6.25 6.24967V33.7497C6.25 36.0497 8.11667 37.9163 10.4167 37.9163ZM11.25 3.74967H32.0833V29.583H11.25V3.74967ZM7.91667 6.24967C7.91667 5.16634 8.61667 4.24967 9.58333 3.89967V29.6663C8.96667 29.7913 8.4 30.0663 7.91667 30.433V6.24967ZM10.4167 31.2497H32.0833V32.9163H23.75C23.2917 32.9163 22.9167 33.2913 22.9167 33.7497C22.9167 34.208 23.2917 34.583 23.75 34.583H32.0833V36.2497H10.4167C9.04167 36.2497 7.91667 35.1247 7.91667 33.7497C7.91667 32.3747 9.04167 31.2497 10.4167 31.2497Z" fill="#CFA935"/>
<path d="M29.5827 7.91699H13.7493C13.291 7.91699 12.916 8.29199 12.916 8.75033V16.2503C12.916 16.7087 13.291 17.0837 13.7493 17.0837H29.5827C30.041 17.0837 30.416 16.7087 30.416 16.2503V8.75033C30.416 8.29199 30.041 7.91699 29.5827 7.91699ZM28.7493 15.417H14.5827V9.58366H28.7493V15.417Z" fill="#CFA935"/>
</svg>
