<svg width="45" height="45" viewBox="0 0 45 45" fill="none" xmlns="http://www.w3.org/2000/svg">
<path d="M29.8977 39V35.3333C29.8977 33.3884 29.1251 31.5231 27.7499 30.1478C26.3746 28.7726 24.5093 28 22.5644 28H11.5644C9.61949 28 7.75423 28.7726 6.37896 30.1478C5.0037 31.5231 4.23108 33.3884 4.23108 35.3333V39M29.8977 6.23462C31.4703 6.6423 32.863 7.5606 33.8572 8.8454C34.8513 10.1302 35.3908 11.7087 35.3908 13.3333C35.3908 14.9578 34.8513 16.5364 33.8572 17.8212C32.863 19.106 31.4703 20.0243 29.8977 20.432M40.8977 39V35.3333C40.8965 33.7085 40.3557 32.13 39.3602 30.8459C38.3648 29.5617 36.971 28.6445 35.3977 28.2383" stroke="#CFA935" stroke-width="3" stroke-linecap="round" stroke-linejoin="round"/>
<path d="M17.0644 20.6667C21.1145 20.6667 24.3977 17.3834 24.3977 13.3333C24.3977 9.28324 21.1145 6 17.0644 6C13.0143 6 9.73108 9.28324 9.73108 13.3333C9.73108 17.3834 13.0143 20.6667 17.0644 20.6667Z" stroke="#CFA935" stroke-width="3" stroke-linecap="round" stroke-linejoin="round"/>
</svg>
