<svg width="45" height="44" viewBox="0 0 45 44" fill="none" xmlns="http://www.w3.org/2000/svg">
<path d="M22.7998 5.5C22.2581 5.5 21.7217 5.6067 21.2212 5.814C20.7208 6.0213 20.266 6.32514 19.883 6.70818C19.4999 7.09123 19.1961 7.54596 18.9888 8.04643C18.7815 8.5469 18.6748 9.0833 18.6748 9.625C18.6748 10.1667 18.7815 10.7031 18.9888 11.2036C19.1961 11.704 19.4999 12.1588 19.883 12.5418C20.266 12.9249 20.7208 13.2287 21.2212 13.436C21.7217 13.6433 22.2581 13.75 22.7998 13.75C23.8938 13.75 24.943 13.3154 25.7166 12.5418C26.4902 11.7682 26.9248 10.719 26.9248 9.625C26.9248 8.53098 26.4902 7.48177 25.7166 6.70818C24.943 5.9346 23.8938 5.5 22.7998 5.5ZM15.9248 9.625C15.9248 7.80164 16.6491 6.05295 17.9384 4.76364C19.2278 3.47433 20.9764 2.75 22.7998 2.75C24.6232 2.75 26.3719 3.47433 27.6612 4.76364C28.9505 6.05295 29.6748 7.80164 29.6748 9.625C29.6748 11.4484 28.9505 13.197 27.6612 14.4864C26.3719 15.7757 24.6232 16.5 22.7998 16.5C20.9764 16.5 19.2278 15.7757 17.9384 14.4864C16.6491 13.197 15.9248 11.4484 15.9248 9.625ZM11.7998 23.375C11.8016 22.8727 11.853 22.3868 11.9538 21.9175L6.6078 23.3475C6.08446 23.4879 5.5939 23.73 5.16415 24.06C4.7344 24.39 4.37388 24.8015 4.10318 25.2709C3.83248 25.7402 3.65691 26.2584 3.5865 26.7956C3.51608 27.3329 3.55221 27.8787 3.6928 28.402L4.7598 32.3868C5.04667 33.456 5.54579 34.4565 6.22743 35.3288C6.90907 36.201 7.75929 36.9272 8.72744 37.464C9.6956 38.0008 10.7619 38.3373 11.8628 38.4534C12.9637 38.5695 14.0767 38.4628 15.1356 38.1398C14.4001 37.4263 13.7679 36.6136 13.2573 35.7253C11.9618 35.8503 10.664 35.5119 9.59451 34.7702C8.52503 34.0285 7.75323 32.9316 7.4163 31.6745L6.34655 27.687C6.25252 27.3347 6.30225 26.9595 6.48481 26.6439C6.66737 26.3283 6.96781 26.0981 7.32005 26.004L11.7998 24.805V23.375ZM30.7363 38.2195L30.4613 38.1425C31.1956 37.4275 31.8308 36.6162 32.3423 35.7253C33.6378 35.8503 34.9356 35.5119 36.0051 34.7702C37.0746 34.0285 37.8464 32.9316 38.1833 31.6745L39.2503 27.687C39.3444 27.3351 39.2951 26.9602 39.1131 26.6447C38.9311 26.3292 38.6313 26.0987 38.2796 26.004L33.7998 24.805V23.375C33.798 22.8727 33.7466 22.3868 33.6458 21.9175L38.9891 23.3475C39.5126 23.4876 40.0035 23.7295 40.4336 24.0594C40.8636 24.3893 41.2244 24.8007 41.4954 25.2701C41.7664 25.7395 41.9422 26.2577 42.0128 26.7951C42.0834 27.3325 42.0474 27.8785 41.9068 28.402L40.8398 32.3868C40.2727 34.4994 38.8898 36.3004 36.9951 37.3937C35.1005 38.4869 32.8492 38.7857 30.7363 38.2195ZM6.2998 13.75C6.2998 13.0207 6.58954 12.3212 7.10526 11.8055C7.62099 11.2897 8.32046 11 9.0498 11C9.77915 11 10.4786 11.2897 10.9943 11.8055C11.5101 12.3212 11.7998 13.0207 11.7998 13.75C11.7998 14.4793 11.5101 15.1788 10.9943 15.6945C10.4786 16.2103 9.77915 16.5 9.0498 16.5C8.32046 16.5 7.62099 16.2103 7.10526 15.6945C6.58954 15.1788 6.2998 14.4793 6.2998 13.75ZM9.0498 8.25C7.59111 8.25 6.19217 8.82946 5.16072 9.86091C4.12927 10.8924 3.5498 12.2913 3.5498 13.75C3.5498 15.2087 4.12927 16.6076 5.16072 17.6391C6.19217 18.6705 7.59111 19.25 9.0498 19.25C10.5085 19.25 11.9074 18.6705 12.9389 17.6391C13.9703 16.6076 14.5498 15.2087 14.5498 13.75C14.5498 12.2913 13.9703 10.8924 12.9389 9.86091C11.9074 8.82946 10.5085 8.25 9.0498 8.25ZM36.5498 11C35.8205 11 35.121 11.2897 34.6053 11.8055C34.0895 12.3212 33.7998 13.0207 33.7998 13.75C33.7998 14.4793 34.0895 15.1788 34.6053 15.6945C35.121 16.2103 35.8205 16.5 36.5498 16.5C37.2792 16.5 37.9786 16.2103 38.4943 15.6945C39.0101 15.1788 39.2998 14.4793 39.2998 13.75C39.2998 13.0207 39.0101 12.3212 38.4943 11.8055C37.9786 11.2897 37.2792 11 36.5498 11ZM31.0498 13.75C31.0498 12.2913 31.6293 10.8924 32.6607 9.86091C33.6922 8.82946 35.0911 8.25 36.5498 8.25C38.0085 8.25 39.4074 8.82946 40.4389 9.86091C41.4703 10.8924 42.0498 12.2913 42.0498 13.75C42.0498 15.2087 41.4703 16.6076 40.4389 17.6391C39.4074 18.6705 38.0085 19.25 36.5498 19.25C35.0911 19.25 33.6922 18.6705 32.6607 17.6391C31.6293 16.6076 31.0498 15.2087 31.0498 13.75ZM18.6748 19.25C17.5808 19.25 16.5316 19.6846 15.758 20.4582C14.9844 21.2318 14.5498 22.281 14.5498 23.375V30.25C14.5498 32.438 15.419 34.5365 16.9662 36.0836C18.5133 37.6308 20.6118 38.5 22.7998 38.5C24.9878 38.5 27.0863 37.6308 28.6334 36.0836C30.1806 34.5365 31.0498 32.438 31.0498 30.25V23.375C31.0498 22.281 30.6152 21.2318 29.8416 20.4582C29.068 19.6846 28.0188 19.25 26.9248 19.25H18.6748ZM17.2998 23.375C17.2998 23.0103 17.4447 22.6606 17.7025 22.4027C17.9604 22.1449 18.3101 22 18.6748 22H26.9248C27.2895 22 27.6392 22.1449 27.8971 22.4027C28.1549 22.6606 28.2998 23.0103 28.2998 23.375V30.25C28.2998 31.7087 27.7203 33.1076 26.6889 34.1391C25.6574 35.1705 24.2585 35.75 22.7998 35.75C21.3411 35.75 19.9422 35.1705 18.9107 34.1391C17.8793 33.1076 17.2998 31.7087 17.2998 30.25V23.375Z" fill="#CFA935"/>
</svg>
