<svg width="45" height="45" viewBox="0 0 45 45" fill="none" xmlns="http://www.w3.org/2000/svg">
<path fill-rule="evenodd" clip-rule="evenodd" d="M2.85608 17C2.85608 14.2156 5.11332 11.9584 7.89775 11.9584H37.2311C40.0155 11.9584 42.2727 14.2156 42.2727 17V35.3334C42.2727 38.1178 40.0155 40.375 37.2311 40.375H27.1477C26.3884 40.375 25.7727 39.7594 25.7727 39C25.7727 38.2407 26.3884 37.625 27.1477 37.625H37.2311C38.4968 37.625 39.5227 36.5991 39.5227 35.3334V17C39.5227 15.7344 38.4968 14.7084 37.2311 14.7084H7.89775C6.63209 14.7084 5.60608 15.7344 5.60608 17V35.3334C5.60608 36.5991 6.63209 37.625 7.89775 37.625H19.8144C20.5738 37.625 21.1894 38.2407 21.1894 39C21.1894 39.7594 20.5738 40.375 19.8144 40.375H7.89775C5.11332 40.375 2.85608 38.1178 2.85608 35.3334V17Z" fill="#CFA935"/>
<path fill-rule="evenodd" clip-rule="evenodd" d="M15.6895 9.66667C15.6895 6.88224 17.9467 4.625 20.7311 4.625H24.3978C27.1823 4.625 29.4395 6.88224 29.4395 9.66667V13.3333C29.4395 14.0927 28.8238 14.7083 28.0645 14.7083H17.0645C16.3051 14.7083 15.6895 14.0927 15.6895 13.3333V9.66667ZM20.7311 7.375C19.4654 7.375 18.4395 8.40101 18.4395 9.66667V11.9583H26.6895V9.66667C26.6895 8.40101 25.6635 7.375 24.3978 7.375H20.7311Z" fill="#CFA935"/>
<path fill-rule="evenodd" clip-rule="evenodd" d="M31.7311 11.9584C32.4904 11.9584 33.1061 12.574 33.1061 13.3334V39C33.1061 39.7594 32.4904 40.375 31.7311 40.375C30.9717 40.375 30.3561 39.7594 30.3561 39V13.3334C30.3561 12.574 30.9717 11.9584 31.7311 11.9584Z" fill="#CFA935"/>
<path fill-rule="evenodd" clip-rule="evenodd" d="M13.3977 11.9584C14.1571 11.9584 14.7727 12.574 14.7727 13.3334V39C14.7727 39.7594 14.1571 40.375 13.3977 40.375C12.6383 40.375 12.0227 39.7594 12.0227 39V13.3334C12.0227 12.574 12.6383 11.9584 13.3977 11.9584Z" fill="#CFA935"/>
<path fill-rule="evenodd" clip-rule="evenodd" d="M26.6895 20.6666C26.6895 19.9073 27.3051 19.2916 28.0645 19.2916H35.3978C36.1572 19.2916 36.7728 19.9073 36.7728 20.6666C36.7728 21.426 36.1572 22.0416 35.3978 22.0416H28.0645C27.3051 22.0416 26.6895 21.426 26.6895 20.6666Z" fill="#CFA935"/>
<path fill-rule="evenodd" clip-rule="evenodd" d="M8.35608 20.6666C8.35608 19.9073 8.97169 19.2916 9.73108 19.2916H17.0644C17.8238 19.2916 18.4394 19.9073 18.4394 20.6666C18.4394 21.426 17.8238 22.0416 17.0644 22.0416H9.73108C8.97169 22.0416 8.35608 21.426 8.35608 20.6666Z" fill="#CFA935"/>
</svg>
