<svg width="45" height="45" viewBox="0 0 45 45" fill="none" xmlns="http://www.w3.org/2000/svg">
<mask id="mask0_35432_12283" style="mask-type:luminance" maskUnits="userSpaceOnUse" x="0" y="0" width="45" height="45">
<path d="M43.564 43.5V1.5H1.56396V43.5H43.564Z" fill="white" stroke="white" stroke-width="2"/>
</mask>
<g mask="url(#mask0_35432_12283)">
<path d="M15.4016 28.4536C16.2762 27.7576 16.4175 26.4752 15.7208 25.604C15.0216 24.7303 13.7379 24.5892 12.8658 25.2852L9.64786 27.8574C8.77328 28.5534 8.63208 29.8383 9.32869 30.7094C10.0254 31.5807 11.3116 31.7243 12.1837 31.0259" stroke="#CFA935" stroke-width="2" stroke-miterlimit="10" stroke-linecap="round" stroke-linejoin="round"/>
<path d="M14.722 34.1942C13.8475 34.8926 13.7063 36.1752 14.403 37.0463C15.0996 37.9199 16.3858 38.0611 17.258 37.365L20.4759 34.7929C21.3504 34.0968 21.4917 32.812 20.795 31.9408C20.0959 31.0696 18.8121 30.926 17.94 31.6244" stroke="#CFA935" stroke-width="2" stroke-miterlimit="10" stroke-linecap="round" stroke-linejoin="round"/>
<path d="M17.258 37.3651C16.3859 38.0611 16.2422 39.3461 16.9412 40.2172C17.638 41.0884 18.9217 41.232 19.7962 40.5336L21.5964 39.0929C22.4685 38.397 22.6123 37.1144 21.9155 36.2433C21.2165 35.3697 19.9327 35.2285 19.0606 35.9245" stroke="#CFA935" stroke-width="2" stroke-miterlimit="10" stroke-linecap="round" stroke-linejoin="round"/>
<path d="M30.6438 29.1884L32.9434 31.0258C33.8154 31.7242 33.9592 33.0067 33.2625 33.8779C32.5633 34.749 31.2795 34.8926 30.4075 34.1942L27.9131 32.2036" stroke="#CFA935" stroke-width="2" stroke-miterlimit="10" stroke-linecap="round" stroke-linejoin="round"/>
<path d="M27.9131 32.2036L30.4075 34.1942C31.2796 34.8926 31.4234 36.1751 30.7242 37.0464C30.0275 37.9199 28.7414 38.061 27.8692 37.3651L25.3772 35.372" stroke="#CFA935" stroke-width="2" stroke-miterlimit="10" stroke-linecap="round" stroke-linejoin="round"/>
<path d="M25.3771 35.3721L26.6219 36.3673C27.494 37.0658 27.6378 38.3483 26.941 39.2195C26.2419 40.0932 24.9582 40.2343 24.0861 39.5383L22.2737 38.0903" stroke="#CFA935" stroke-width="2" stroke-miterlimit="10" stroke-linecap="round" stroke-linejoin="round"/>
<path d="M42.0466 21.1822L43.5399 23.8201C43.8858 24.4334 43.669 25.2242 43.0527 25.565L40.7507 26.8401C40.1344 27.1809 39.3499 26.9667 39.0041 26.3559L32.3684 14.619C32.0201 14.0057 32.2369 13.2172 32.8531 12.8766L35.1576 11.6014C35.7739 11.2608 36.5558 11.4725 36.9018 12.0857L38.2489 14.4657" stroke="#CFA935" stroke-width="2" stroke-miterlimit="10" stroke-linecap="round" stroke-linejoin="round"/>
<path d="M35.3184 27.726C35.8616 26.5531 37.0455 25.6842 38.4048 25.2949" stroke="#CFA935" stroke-width="2" stroke-miterlimit="10" stroke-linecap="round" stroke-linejoin="round"/>
<path d="M32.9435 31.0257C33.8155 31.7242 35.1017 31.5806 35.7985 30.7093C36.4975 29.8383 36.3539 28.5532 35.4817 27.8573L32.6925 25.6282C31.3381 24.5477 29.8083 23.3504 28.3565 22.3089C25.7304 20.4278 24.437 19.1769 21.1459 19.8388C18.6587 20.3402 16.6466 19.5809 16.1229 17.4273C15.7867 16.0425 16.9656 15.3977 19.3019 15.1908L23.029 14.8574C23.7646 14.7917 24.203 14.7237 25.3942 15.1398L27.6427 15.9258C29.1627 16.4562 28.9581 16.5974 30.539 16.1399L32.8485 15.4707" stroke="#CFA935" stroke-width="2" stroke-miterlimit="10" stroke-linecap="round" stroke-linejoin="round"/>
<path d="M12.2739 12.8766L9.97185 11.6014C9.35559 11.2608 8.57116 11.4725 8.22526 12.0858L1.5896 23.8202C1.2412 24.4334 1.45811 25.2243 2.07428 25.565L4.37638 26.8401C4.99263 27.1809 5.77707 26.9667 6.12297 26.3559L12.7587 14.619C13.1069 14.0058 12.8902 13.2173 12.2739 12.8766Z" stroke="#CFA935" stroke-width="2" stroke-miterlimit="10" stroke-linecap="round" stroke-linejoin="round"/>
<path d="M16.1302 16.5731L12.2837 15.4586" stroke="#CFA935" stroke-width="2" stroke-miterlimit="10" stroke-linecap="round" stroke-linejoin="round"/>
<path d="M9.81102 27.726C9.26532 26.5531 8.08144 25.6842 6.72217 25.2949" stroke="#CFA935" stroke-width="2" stroke-miterlimit="10" stroke-linecap="round" stroke-linejoin="round"/>
<path d="M22.5635 8.40137V4.02354" stroke="#CFA935" stroke-width="2" stroke-miterlimit="10" stroke-linecap="round" stroke-linejoin="round"/>
<path d="M16.8292 10.2144L14.5393 6.58118" stroke="#CFA935" stroke-width="2" stroke-miterlimit="10" stroke-linecap="round" stroke-linejoin="round"/>
<path d="M28.3003 10.2144L30.5877 6.58118" stroke="#CFA935" stroke-width="2" stroke-miterlimit="10" stroke-linecap="round" stroke-linejoin="round"/>
<path d="M12.1837 31.0258L16.8194 27.3219C17.6915 26.626 18.9777 26.7695 19.6744 27.6407C20.3711 28.5119 20.2299 29.7945 19.3554 30.4929L14.722 34.1942C13.8475 34.8926 12.5638 34.749 11.867 33.8779C11.1679 33.0067 11.3117 31.7242 12.1837 31.0258Z" stroke="#CFA935" stroke-width="2" stroke-miterlimit="10" stroke-linecap="round" stroke-linejoin="round"/>
<path d="M40.1443 17.8264V17.824" stroke="#CFA935" stroke-width="2" stroke-miterlimit="10" stroke-linecap="round" stroke-linejoin="round"/>
</g>
</svg>
