<svg width="45" height="44" viewBox="0 0 45 44" fill="none" xmlns="http://www.w3.org/2000/svg">
<g clip-path="url(#clip0_38261_44946)">
<path fill-rule="evenodd" clip-rule="evenodd" d="M35.9243 2.04248C35.3114 -0.691801 31.4363 -0.676087 30.8486 2.06134L30.7826 2.3662L32.3194 2.6962L30.7794 2.3662C30.4423 3.98747 29.6296 5.47145 28.445 6.62859C27.2605 7.78572 25.7579 8.56347 24.1291 8.86248C21.3131 9.3622 21.3131 13.4291 24.1291 13.9288C25.7576 14.2268 27.2603 15.0034 28.4454 16.1593C29.6305 17.3153 30.4441 18.7982 30.7826 20.4188L30.8454 20.7236C31.4363 23.4579 35.3083 23.4799 35.9243 20.7456L36.0028 20.3905C36.3559 18.7749 37.1785 17.2996 38.3673 16.15C39.5561 15.0003 41.058 14.2276 42.6846 13.9288C45.5068 13.4291 45.5068 9.35591 42.6846 8.8562C41.0575 8.55795 39.5548 7.78545 38.3654 6.63577C37.1761 5.48609 36.353 4.01052 35.9997 2.39448L35.9243 2.04248ZM23.5791 1.6402C19.9294 -0.166375 15.7223 -0.491114 11.8386 0.733961C7.95488 1.95904 4.69559 4.63895 2.74303 8.21269C0.790461 11.7864 0.296001 15.977 1.36315 19.907C2.43031 23.8371 4.97634 27.202 8.46827 29.2973V32.7356C8.46827 33.6634 8.83681 34.5531 9.49282 35.2091C10.1488 35.8651 11.0385 36.2336 11.9663 36.2336H21.1717C21.6311 36.2336 22.0859 36.1432 22.5103 35.9674C22.9347 35.7916 23.3203 35.5339 23.6452 35.2091C23.97 34.8843 24.2276 34.4987 24.4034 34.0743C24.5792 33.6499 24.6697 33.195 24.6697 32.7356V29.3036C26.04 28.4865 27.2751 27.4682 28.3343 26.2865C28.6752 25.8975 28.849 25.3897 28.8178 24.8733C28.7866 24.357 28.553 23.8738 28.1677 23.5287C27.7824 23.1835 27.2766 23.0043 26.7599 23.0299C26.2433 23.0555 25.7576 23.2838 25.4083 23.6653C24.3998 24.7856 23.1884 25.7048 21.838 26.3745C21.5097 26.5373 21.2331 26.7881 21.0389 27.0988C20.8447 27.4095 20.7405 27.7681 20.738 28.1345V32.3082H12.3968V28.1376C12.3952 27.7722 12.2924 27.4144 12.0999 27.1037C11.9075 26.7931 11.6328 26.5418 11.3063 26.3776C8.52703 24.9616 6.41867 22.5063 5.4391 19.545C4.45953 16.5836 4.68787 13.3553 6.07452 10.5613C7.46117 7.76734 9.89415 5.63324 12.845 4.62255C15.7959 3.61185 19.0264 3.80619 21.8348 5.16334C22.3011 5.39038 22.8382 5.42382 23.3291 5.25636C23.8199 5.08891 24.2246 4.73414 24.4548 4.26946C24.6851 3.80478 24.7223 3.2679 24.5582 2.77593C24.3942 2.28395 24.0422 1.87368 23.5791 1.6402ZM10.6211 40.0711C10.1002 40.0711 9.60055 40.278 9.23217 40.6464C8.8638 41.0148 8.65685 41.5144 8.65685 42.0353C8.65685 42.5563 8.8638 43.0559 9.23217 43.4243C9.60055 43.7927 10.1002 43.9996 10.6211 43.9996H22.4068C22.9278 43.9996 23.4274 43.7927 23.7958 43.4243C24.1642 43.0559 24.3711 42.5563 24.3711 42.0353C24.3711 41.5144 24.1642 41.0148 23.7958 40.6464C23.4274 40.278 22.9278 40.0711 22.4068 40.0711H10.6211Z" fill="#CFA935"/>
</g>
<defs>
<clipPath id="clip0_38261_44946">
<rect width="44" height="44" fill="white" transform="translate(0.799805)"/>
</clipPath>
</defs>
</svg>
