<svg width="90" height="91" viewBox="0 0 90 91" fill="none" xmlns="http://www.w3.org/2000/svg">
<g clip-path="url(#clip0_134_2140)">
<path d="M40.404 55.7459L29.8438 50.4221V45.2669C31.3492 44.353 32.6447 43.1268 33.64 41.6789H34.1865C37.8585 41.6789 40.8459 38.6915 40.8459 35.0194V18.6304C40.8459 14.7369 37.6782 11.5691 33.7846 11.5691C33.6582 11.5962 31.5067 11.3004 30.0985 13.247L29.0387 14.7121C28.929 14.8641 28.7771 14.8794 28.6972 14.8805C28.6168 14.878 28.4667 14.8506 28.366 14.6928L27.5669 13.4414C26.8184 12.2691 25.5414 11.5693 24.1504 11.5693H13.117C9.22342 11.5693 6.05566 14.7371 6.05566 18.6306V27.0266C6.05566 27.7549 6.64576 28.345 7.37402 28.345C8.10229 28.345 8.69238 27.7549 8.69238 27.0266V18.6306C8.69238 16.1909 10.6773 14.206 13.117 14.206H24.1504C24.6364 14.206 25.0829 14.4507 25.3445 14.8605L26.1436 16.1118C26.6864 16.9621 27.6124 17.487 28.6207 17.5162C29.6309 17.5466 30.584 17.0748 31.1752 16.2576L32.2349 14.7924C32.7781 14.0415 33.6164 14.2347 33.7845 14.206C36.2241 14.206 38.209 16.1909 38.209 18.6306V35.0196C38.209 36.9403 36.8559 38.551 35.0529 38.9483C35.5403 37.6222 35.8065 36.1903 35.8065 34.6972V25.6318C35.8065 25.1349 35.5978 24.6553 35.2343 24.3166C34.8703 23.9768 34.377 23.8031 33.879 23.8372C31.1113 24.0334 29.0923 23.386 27.7096 21.8594C27.0585 21.1406 25.9673 21.0625 25.2253 21.6813C22.5116 23.9436 18.4525 24.6875 13.1597 23.891C12.6425 23.8135 12.1178 23.9647 11.7206 24.3064C11.3228 24.6488 11.0946 25.1463 11.0946 25.6712V34.6972C11.0946 36.1903 11.3607 37.6222 11.8482 38.9483C10.045 38.551 8.69203 36.9403 8.69203 35.0196V32.7613C8.69203 32.0331 8.10193 31.443 7.37367 31.443C6.64541 31.443 6.05531 32.0331 6.05531 32.7613V35.0196C6.05531 38.6916 9.04272 41.679 12.7148 41.679H13.2613C14.2566 43.127 15.5521 44.3532 17.0573 45.2671V50.4224L6.49758 55.7459C2.48977 57.7665 0 61.8099 0 66.2981V69.8728C0 70.601 0.590098 71.1911 1.31836 71.1911C2.04662 71.1911 2.63672 70.601 2.63672 69.8728V66.2981C2.63672 62.8113 4.57084 59.6701 7.68445 58.1004L12.2571 55.795L17.3224 59.7861C17.8276 60.1842 18.4377 60.3822 19.0471 60.3822C19.2811 60.3822 19.5151 60.3528 19.7429 60.2945L20.1182 61.7965L16.8676 88.2338H13.7317V71.8385C13.7317 71.1103 13.1416 70.5202 12.4133 70.5202C11.6851 70.5202 11.095 71.1103 11.095 71.8385V88.2338H2.63672V75.6075C2.63672 74.8792 2.04662 74.2891 1.31836 74.2891C0.590098 74.2891 0 74.8792 0 75.6075V89.5522C0 90.2805 0.590098 90.8706 1.31836 90.8706H45.5829C46.3112 90.8706 46.9013 90.2805 46.9013 89.5522V66.2981C46.9013 61.8099 44.4117 57.7665 40.404 55.7459ZM32.0465 54.4854L27.9471 57.7154C27.8912 57.7593 27.8107 57.7581 27.756 57.7115L25.4542 55.7428L28.7336 52.8153C28.8766 52.8874 31.7535 54.3378 32.0465 54.4854ZM22.0593 58.6887L23.4506 57.4987L24.8421 58.6887L24.4155 60.3962H22.4859L22.0593 58.6887ZM13.7317 34.697V26.6292C18.9895 27.2629 23.2098 26.4413 26.3041 24.1823C28.0269 25.7657 30.3253 26.545 33.1697 26.5056V34.6972C33.1697 40.0562 28.8097 44.4161 23.4506 44.4161C18.0916 44.4161 13.7317 40.0561 13.7317 34.697ZM23.4506 47.0527C24.7597 47.0527 26.022 46.8481 27.2069 46.4691V50.6435L23.4506 53.9969L19.6944 50.6435V46.4691C20.8793 46.8479 22.1416 47.0527 23.4506 47.0527ZM18.9543 57.7154L14.8551 54.4854C15.4494 54.1857 17.4727 53.1656 18.1679 52.8151L21.4472 55.7426L19.1456 57.7114C19.0909 57.7581 19.0107 57.7597 18.9543 57.7154ZM19.5242 88.2338L22.6227 63.0331H24.2787L27.3772 88.2338H19.5242ZM44.2645 88.2338H35.8065V71.8385C35.8065 71.1103 35.2164 70.5202 34.4881 70.5202C33.7598 70.5202 33.1697 71.1103 33.1697 71.8385V88.2338H30.0338L26.7834 61.7967L27.1587 60.2948C27.3865 60.3532 27.6205 60.3825 27.8545 60.3825C28.4639 60.3825 29.0739 60.1844 29.5791 59.7863L34.6446 55.7952L39.2171 58.1005C42.3306 59.6703 44.2647 62.8115 44.2647 66.2983V88.2338H44.2645Z" fill="#CFA935"/>
<path d="M48.9398 24.485C49.2771 24.485 49.6146 24.3563 49.8721 24.099L69.8316 4.13953C70.2269 3.7442 70.3299 3.14232 70.0884 2.63801C69.847 2.13352 69.3128 1.83609 68.7581 1.89639L61.0828 2.72414C60.3587 2.80219 59.8351 3.4524 59.9133 4.17627C59.9915 4.90014 60.6415 5.42186 61.3654 5.34574L65.3235 4.91877L48.0078 22.2343C47.4929 22.7493 47.4929 23.5839 48.0078 24.0988C48.265 24.3561 48.6025 24.485 48.9398 24.485Z" fill="#CFA935"/>
<path d="M49.8835 9.5095H51.5115V11.1374C51.5115 11.8657 52.1016 12.4558 52.8298 12.4558C53.5581 12.4558 54.1482 11.8657 54.1482 11.1374V9.5095H55.7761C56.5043 9.5095 57.0944 8.9194 57.0944 8.19114C57.0944 7.46288 56.5043 6.87278 55.7761 6.87278H54.1482V5.24487C54.1482 4.51661 53.5581 3.92651 52.8298 3.92651C52.1016 3.92651 51.5115 4.51661 51.5115 5.24487V6.87278H49.8835C49.1553 6.87278 48.5652 7.46288 48.5652 8.19114C48.5652 8.9194 49.1555 9.5095 49.8835 9.5095Z" fill="#CFA935"/>
<path d="M88.6816 17.7226C89.4099 17.7226 90 17.1325 90 16.4042V2.18896C90 1.4607 89.4099 0.870605 88.6816 0.870605H78.7463C78.018 0.870605 77.4279 1.4607 77.4279 2.18896V11.2122H68.8108C68.0825 11.2122 67.4924 11.8023 67.4924 12.5305V21.3157H58.8755C58.1472 21.3157 57.5571 21.9058 57.5571 22.6341V31.5657H48.9401C48.2119 31.5657 47.6218 32.1558 47.6218 32.8841V43.3341C47.6218 44.0623 48.2119 44.6524 48.9401 44.6524H88.6816C89.4099 44.6524 90 44.0623 90 43.3341V21.5021C90 20.7738 89.4099 20.1837 88.6816 20.1837C87.9534 20.1837 87.3633 20.7738 87.3633 21.5021V42.0157H50.2581V34.2022H58.8751C59.6034 34.2022 60.1935 33.6121 60.1935 32.8839V23.9524H68.8104C69.5387 23.9524 70.1288 23.3623 70.1288 22.6341V13.8489H78.7459C79.4742 13.8489 80.0643 13.2588 80.0643 12.5305V3.50732H87.3633V16.4042C87.3633 17.1325 87.9534 17.7226 88.6816 17.7226Z" fill="#CFA935"/>
</g>
<defs>
<clipPath id="clip0_134_2140">
<rect width="90" height="90" fill="white" transform="translate(0 0.870605)"/>
</clipPath>
</defs>
</svg>
