<svg width="40" height="41" viewBox="0 0 40 41" fill="none" xmlns="http://www.w3.org/2000/svg">
<g clip-path="url(#clip0_11_751)">
<path d="M28.5455 32.3788V40.3788C28.5455 40.6818 28.303 40.9848 27.9394 40.9848H22.6667C22.303 40.9848 22.0606 40.6818 22.0606 40.3788V32.3788C22.0606 32.0758 22.303 31.7727 22.6667 31.7727H27.9394C28.303 31.7727 28.5455 32.0151 28.5455 32.3788Z" fill="#CFA935"/>
<path d="M19.5758 35.0455V40.3182C19.5758 40.6212 19.3334 40.9242 18.9697 40.9242H13.697C13.3334 40.9242 13.0909 40.6212 13.0909 40.3182V35.0455C13.0909 34.6818 13.3334 34.4394 13.697 34.4394H18.9697C19.2728 34.4394 19.5758 34.7424 19.5758 35.0455Z" fill="#CFA935"/>
<path d="M10.5455 37.7121V40.3182C10.5455 40.6212 10.303 40.9242 9.9394 40.9242H4.66667C4.30303 40.9242 4.06061 40.6212 4.06061 40.3182V37.7121C4.06061 37.3485 4.30303 37.1061 4.66667 37.1061H9.9394C10.303 37.1061 10.5455 37.3485 10.5455 37.7121Z" fill="#CFA935"/>
<path d="M37.5152 28.3788V40.3182C37.5152 40.6212 37.2728 40.9242 36.9091 40.9242H31.6364C31.2728 40.9242 31.0303 40.6212 31.0303 40.3182V28.3788C31.0303 28.0151 31.2728 27.7727 31.6364 27.7727H36.9091C37.2728 27.7727 37.5152 28.0151 37.5152 28.3788Z" fill="#CFA935"/>
<path d="M37.3333 20.6212L34.5455 25.4697C34.4242 25.6515 34.1818 25.7727 34 25.7727C33.7576 25.7727 33.5758 25.5909 33.4545 25.4091L33.0909 24.5L4.84849 35.8333C4.78788 35.8333 4.72728 35.8939 4.60606 35.8939C4.54546 35.8939 4.42425 35.8939 4.36364 35.8333C4.24243 35.7727 4.12122 35.6515 4.06061 35.5303L2.66667 32.0758C2.54546 31.7727 2.66667 31.4091 3.03031 31.2879L31.2727 19.8939L30.9091 18.9848C30.8485 18.803 30.8485 18.5 31.0303 18.3788C31.1515 18.197 31.4545 18.1364 31.6364 18.197L37.0303 19.7121C37.2121 19.7727 37.3333 19.8939 37.4545 20.0758C37.4545 20.2576 37.4545 20.4394 37.3333 20.6212Z" fill="#CFA935"/>
<path d="M20.303 5.34848C20.1818 6.01515 19.7576 6.62121 19.1515 6.98485C18.7273 7.22727 18.2424 7.40909 17.7576 7.40909C17.5758 7.40909 17.394 7.40909 17.1515 7.34848C16.4849 7.16667 15.8788 6.80303 15.5152 6.19697C15.1515 5.59091 15.0303 4.92424 15.2121 4.19697C15.3333 3.5303 15.7576 2.92424 16.3636 2.56061C16.9697 2.19697 17.6364 2.07576 18.3636 2.25757C19.0303 2.37879 19.6364 2.80303 20 3.40909C20.303 3.95454 20.4243 4.68182 20.303 5.34848Z" fill="#CFA935"/>
<path d="M25.3939 12.9849V12.9243C25.2727 12.1364 24.4849 11.5303 23.6364 11.6515H22.3636C22 11.6515 21.5152 11.4697 21.2727 11.1667L19.9394 9.71213C19.3333 9.10607 18.6061 8.62122 17.7576 8.43941L15.697 7.95456C15.0303 7.83334 14.3636 7.83334 13.697 7.95456L11.3939 8.56062C10.7879 8.74244 10.2424 9.10607 9.9394 9.71213L8.60606 12.0758C8.54546 12.0758 8.42424 12.0758 8.36364 12.0758C8.12121 12.1364 7.87879 12.3182 7.75758 12.5606L7.21212 13.4697L6.78788 13.2273C5.9394 12.7424 4.84849 12.9849 4.36364 13.8333L3.87879 14.4394L2.72728 16.3788C2.24243 17.2273 2.48485 18.3182 3.33334 18.803L7.81818 21.4697C8.12121 21.6515 8.42424 21.7121 8.72727 21.7121C9.33334 21.7121 9.9394 21.4091 10.2424 20.8636L11.8182 18.2576C12.303 17.4091 12.0606 16.3182 11.2121 15.8333L10.8485 15.6515L11.3939 14.803C11.5758 14.4394 11.5758 14.0152 11.3939 13.7121C11.4545 13.6515 11.5152 13.5303 11.5152 13.4697L12.1818 12.1364C12.303 11.8333 12.6061 11.5909 12.9091 11.5303L13.4545 11.4091L12.4849 16.197C12.4242 16.4394 12.4849 16.7424 12.5455 16.9849L12.9091 20.803L10.303 24.6818C10.0606 25.0455 10 25.4697 10.0606 25.894C10.1212 26.3182 10.4242 26.6818 10.7879 26.9243C10.9697 27.0455 11.2121 27.1061 11.4545 27.1667H11.6364C12.1818 27.1667 12.6667 26.9243 12.9697 26.4394L15.8182 22.1364C16.0606 21.7727 16.1212 21.4091 16.1212 20.9849L15.9394 19.1061L17.2121 19.5909L16.6667 22.7424C16.4242 23.5303 16.8485 24.3182 17.6364 24.6212C17.8182 24.6818 18 24.7424 18.1818 24.7424C18.7273 24.7424 19.2727 24.4394 19.5152 23.9546C19.5758 23.894 19.5758 23.8333 19.5758 23.7727L20.3636 19.3485C20.5455 18.4394 20.1212 17.5303 19.3333 17.0455L17.8182 16.197L18.4849 13.0455L19.2121 13.7121C20.1818 14.5606 21.3939 14.9849 22.6667 14.9243L24.0606 14.8636C24.4849 14.803 24.8485 14.6212 25.0909 14.2576C25.3939 13.8333 25.4545 13.4091 25.3939 12.9849ZM8.60606 13.4091C8.78788 13.7121 9.03031 14.0152 9.39394 14.197C9.63637 14.3182 9.9394 14.3788 10.1818 14.3182L9.81818 15.0455L8.24243 14.0758L8.60606 13.4091ZM10.7879 17.7121L10.7273 17.8333L5.27273 14.5606L5.33334 14.4394C5.51515 14.1364 5.81818 14.0758 6.12122 14.2576L10.6061 16.9243C10.8485 17.0455 10.9091 17.4091 10.7879 17.7121Z" fill="#CFA935"/>
</g>
<defs>
<clipPath id="clip0_11_751">
<rect width="40" height="40" fill="white" transform="translate(0 0.5)"/>
</clipPath>
</defs>
</svg>
