<svg width="48" height="48" viewBox="0 0 48 48" fill="none" xmlns="http://www.w3.org/2000/svg">
<g clip-path="url(#clip0_8196_4222)">
<path d="M28.571 44.446H3.70997C1.66446 44.446 0 42.763 0 40.694V6.0742C0 4.00563 1.66446 2.32227 3.70997 2.32227H22.8102C23.0053 2.32227 23.1936 2.39598 23.3368 2.52905L32.0334 10.5863C32.1914 10.7326 32.281 10.9383 32.281 11.1538V21.1851C32.281 21.6131 31.9343 21.9593 31.5068 21.9593C31.0796 21.9593 30.7326 21.6131 30.7326 21.1851V11.4921L22.5067 3.87067H3.70997C2.51843 3.87067 1.5484 4.85884 1.5484 6.0742V40.694C1.5484 41.909 2.51843 42.8983 3.70997 42.8983H28.5703C29.7626 42.8983 30.7318 41.9098 30.7318 40.694V36.1619C30.7318 35.7339 31.0789 35.3877 31.506 35.3877C31.9336 35.3877 32.2802 35.7339 32.2802 36.1619V40.694C32.281 42.763 30.6165 44.446 28.571 44.446Z" fill="#A9A7B0"/>
<path d="M31.4968 11.928H24.6186C23.1949 11.928 22.0366 10.7572 22.0366 9.31957V3.09647C22.0366 2.66854 22.3837 2.32227 22.8108 2.32227C23.2384 2.32227 23.585 2.66854 23.585 3.09647V9.31957C23.585 9.90401 24.0489 10.3796 24.6186 10.3796H31.4968C31.924 10.3796 32.271 10.7255 32.271 11.1538C32.271 11.5817 31.924 11.928 31.4968 11.928Z" fill="#A9A7B0"/>
<path d="M18.8652 27.832H23.7993V29.3804H18.8652V27.832Z" fill="#A9A7B0"/>
<path d="M18.8652 33.0664H26.2024V34.6148H18.8652V33.0664Z" fill="#A9A7B0"/>
<path d="M5.27832 37.9277H27.0025V39.4761H5.27832V37.9277Z" fill="#A9A7B0"/>
<path d="M18.8604 22.9688H25.401V24.5172H18.8604V22.9688Z" fill="#A9A7B0"/>
<path d="M15.2797 34.6134H5.2786C4.85142 34.6134 4.50439 34.2675 4.50439 33.8392V23.0476C4.50439 22.6197 4.85142 22.2734 5.2786 22.2734H15.2797C15.7073 22.2734 16.0539 22.6197 16.0539 23.0476V33.8392C16.0539 34.2675 15.708 34.6134 15.2797 34.6134ZM6.0528 33.065H14.5055V23.8218H6.0528V33.065Z" fill="#A9A7B0"/>
<path d="M31.1629 36.9525C26.6549 36.9525 22.9873 33.238 22.9873 28.6725C22.9873 24.1071 26.6549 20.3926 31.1629 20.3926C35.6713 20.3926 39.3386 24.1071 39.3386 28.6725C39.3386 33.238 35.6713 36.9525 31.1629 36.9525ZM31.1629 21.941C27.5089 21.941 24.5357 24.9603 24.5357 28.6725C24.5357 32.3848 27.5089 35.4041 31.1629 35.4041C34.8173 35.4041 37.7901 32.3848 37.7901 28.6725C37.7901 24.9603 34.8173 21.941 31.1629 21.941Z" fill="#A9A7B0"/>
<path d="M39.7281 38.0437C39.5285 38.0437 39.3285 37.9662 39.1769 37.8131L35.8941 34.4838C35.594 34.1787 35.5977 33.6896 35.9021 33.389C36.2064 33.0881 36.6963 33.0927 36.9968 33.397L40.2792 36.7259C40.5798 37.031 40.576 37.5205 40.2717 37.8207C40.1205 37.9692 39.9239 38.0437 39.7281 38.0437Z" fill="#A9A7B0"/>
<path d="M45.8117 45.6773C45.2258 45.6773 44.6724 45.4429 44.2501 45.0161L39.1539 39.8469C38.7471 39.4511 38.5181 38.9132 38.5105 38.3295C38.5018 37.7296 38.7339 37.1448 39.1467 36.7252C39.561 36.3056 40.1107 36.0742 40.6944 36.0742C41.2743 36.0742 41.8409 36.312 42.2488 36.7252L47.3518 41.9008C47.7567 42.2894 47.9918 42.833 47.9998 43.4174C48.0081 44.0158 47.7775 44.5844 47.3526 45.0161C46.9662 45.4297 46.4241 45.6697 45.8412 45.6773C45.8314 45.6773 45.8219 45.6773 45.8117 45.6773ZM40.6944 37.6226C40.5768 37.6226 40.404 37.6559 40.2498 37.8124C40.1254 37.9375 40.0562 38.119 40.0589 38.3076C40.0597 38.407 40.085 38.5942 40.2347 38.7382C40.24 38.7435 40.2445 38.7484 40.2498 38.7537L45.3536 43.93C45.4836 44.0616 45.6454 44.1213 45.8212 44.1304C45.9792 44.1281 46.127 44.0623 46.2363 43.9455C46.3833 43.7962 46.4551 43.6212 46.4529 43.4401C46.4506 43.2726 46.3841 43.118 46.2654 43.0042L41.1472 37.8147C41.0259 37.6899 40.8656 37.6226 40.6944 37.6226Z" fill="#A9A7B0"/>
<path d="M14.7032 12.0805C14.9538 11.8847 15.0816 11.6061 15.0816 11.2515C15.0816 11.0734 15.0551 10.9169 15.0033 10.7876C14.9516 10.6561 14.8741 10.54 14.7743 10.4417H14.7735C14.6767 10.3472 14.5584 10.266 14.4227 10.2002C14.2979 10.1389 14.1558 10.0785 13.9861 10.0142C13.901 9.98471 13.8228 9.95144 13.7524 9.91893C13.6874 9.88793 13.63 9.85391 13.5804 9.81686C13.5419 9.78738 13.5116 9.75487 13.492 9.71933C13.475 9.68909 13.4667 9.65204 13.4667 9.60328C13.4667 9.52805 13.4897 9.47777 13.5426 9.43921C13.6678 9.34395 13.9668 9.35226 14.1997 9.41048C14.3168 9.43997 14.425 9.48231 14.5202 9.5375L14.6722 9.62331L14.9671 8.84041L14.857 8.77615C14.7542 8.71453 14.614 8.65783 14.4405 8.60755C14.2662 8.55651 14.0658 8.53005 13.8436 8.53005C13.4512 8.53005 13.1321 8.62985 12.8977 8.82605C12.6539 9.02943 12.5307 9.31144 12.5307 9.66263C12.5307 9.83085 12.5609 9.98017 12.6203 10.1049C12.6785 10.2248 12.756 10.331 12.852 10.4191C12.9431 10.5026 13.0508 10.5741 13.1733 10.6323C13.2924 10.6878 13.4092 10.7366 13.5215 10.7759C13.6292 10.8133 13.7283 10.8511 13.816 10.8908C13.8972 10.9271 13.9638 10.9664 14.0163 11.0061C14.0613 11.0394 14.0961 11.078 14.1191 11.1177C14.1396 11.1524 14.1494 11.1974 14.1494 11.2507C14.1494 11.3388 14.1225 11.3985 14.0605 11.445C14.0118 11.4821 13.9048 11.5271 13.675 11.5271C13.4844 11.5271 13.3204 11.5048 13.1881 11.4613C13.0448 11.4133 12.9386 11.3698 12.8626 11.3267L12.7087 11.2405L12.4664 11.9236C12.3617 11.6246 12.2604 11.3403 12.1651 11.0851C12.0491 10.7737 11.9368 10.4811 11.8324 10.2149C11.7224 9.93443 11.6139 9.67057 11.5111 9.43052C11.4064 9.18669 11.2964 8.93984 11.1819 8.69336L11.141 8.60755H10.3744L10.3343 8.69412C10.219 8.94135 10.109 9.1882 10.0051 9.43052C9.89921 9.67813 9.79147 9.94237 9.68449 10.2149C9.57637 10.4898 9.46561 10.7823 9.35409 11.0851C9.2558 11.3528 9.15109 11.6488 9.04373 11.9584L8.8154 11.2575L8.65889 11.3388L8.65814 11.3396C8.5916 11.3747 8.49407 11.4133 8.36857 11.4533C8.25176 11.4923 8.09072 11.5116 7.8915 11.5116C7.73348 11.5116 7.59966 11.4859 7.49381 11.4356C7.38758 11.3853 7.2995 11.3157 7.23259 11.2273C7.16152 11.1347 7.10822 11.0224 7.0742 10.8939C7.03753 10.7574 7.01901 10.6058 7.01901 10.4417C7.01901 10.258 7.04244 10.0955 7.08781 9.95862C7.13204 9.82707 7.19328 9.71706 7.27002 9.63276C7.34487 9.5496 7.43559 9.48722 7.53917 9.44526C7.77166 9.34773 8.07257 9.36701 8.30657 9.43921C8.43737 9.47928 8.53641 9.52124 8.59992 9.56131L8.75869 9.66111L9.04221 8.85932L8.9307 8.79656C8.90801 8.78409 8.86794 8.76254 8.812 8.7323C8.75189 8.69979 8.67591 8.66955 8.58064 8.6393C8.49407 8.61133 8.39238 8.58676 8.27028 8.56332C8.15007 8.54102 8.01473 8.5293 7.86844 8.5293C7.62234 8.5293 7.3891 8.57277 7.17475 8.65783C6.95701 8.74213 6.76422 8.8699 6.60242 9.03586C6.44062 9.20219 6.31209 9.40557 6.22099 9.64032C6.12951 9.87583 6.08301 10.1465 6.08301 10.447C6.08301 10.7453 6.12346 11.0145 6.20133 11.2477C6.28109 11.4836 6.39904 11.6873 6.55063 11.8544C6.7026 12.0211 6.89123 12.1504 7.11125 12.2362C7.32559 12.3205 7.57093 12.364 7.83819 12.364C7.96899 12.364 8.09677 12.3561 8.21849 12.3406C8.33681 12.3243 8.44531 12.3043 8.54019 12.279C8.63961 12.2517 8.72165 12.2253 8.78894 12.1977C8.86643 12.1674 8.92729 12.1364 8.97455 12.1039L8.99799 12.0877L8.92654 12.2903H9.87577L9.91244 12.1882C9.95629 12.0589 10.002 11.9289 10.0493 11.7974C10.0841 11.6976 10.1188 11.5981 10.1529 11.4961H11.3437C11.3784 11.5981 11.4143 11.6983 11.4506 11.7974C11.4979 11.9259 11.5444 12.0559 11.5882 12.1867L11.6234 12.2903H12.5987L12.5276 12.0884V12.0877L12.5409 12.0952C12.5855 12.1217 12.6429 12.1497 12.711 12.1788C12.779 12.2083 12.8588 12.2362 12.9563 12.265C13.0546 12.2937 13.1631 12.3175 13.2784 12.336C13.4016 12.3546 13.5362 12.364 13.678 12.364C14.1184 12.3648 14.4647 12.2688 14.7032 12.0805ZM11.0805 10.6946H10.4148C10.4904 10.4848 10.5649 10.2852 10.636 10.0977C10.6757 9.99416 10.712 9.89965 10.7475 9.81157C10.7823 9.89889 10.8189 9.9934 10.8575 10.0932C10.9297 10.283 11.0046 10.4841 11.0805 10.6946Z" fill="#A9A7B0"/>
<path d="M17.8681 11.4654H16.2199V10.7819H17.5846V9.96499H16.2199V9.43612H17.7528V8.60938H15.313V12.2921H17.8681V11.4654Z" fill="#A9A7B0"/>
<path d="M6.86022 17.1078C6.76345 17.0133 6.64512 16.9313 6.5079 16.8655C6.37408 16.8005 6.23156 16.7392 6.07317 16.6806C5.98773 16.6504 5.90948 16.6187 5.83841 16.5846C5.77112 16.5529 5.71366 16.5189 5.66716 16.4822C5.6286 16.4535 5.59836 16.4209 5.57908 16.3869C5.56131 16.3552 5.55338 16.3174 5.55338 16.2694C5.55338 16.1941 5.57681 16.1438 5.62936 16.1053C5.75562 16.0115 6.0467 16.0183 6.28751 16.0766C6.40205 16.1053 6.51054 16.1488 6.60808 16.2036L6.75967 16.2894L7.05453 15.5069L6.9449 15.4426C6.8417 15.3806 6.70069 15.3239 6.52831 15.2736C6.35555 15.2226 6.1552 15.1973 5.9314 15.1973C5.53863 15.1973 5.21996 15.2963 4.98444 15.4921C4.74061 15.6966 4.61738 15.9783 4.61738 16.3291C4.61738 16.4984 4.64762 16.647 4.70735 16.771C4.76443 16.8905 4.84268 16.9963 4.9387 17.0855C5.0317 17.1706 5.14019 17.2424 5.25927 17.2983C5.36852 17.3501 5.48533 17.3989 5.60932 17.4431C5.71668 17.4794 5.81535 17.518 5.90267 17.5569C5.98168 17.5925 6.04897 17.6321 6.10303 17.6722C6.14802 17.7055 6.18279 17.744 6.20623 17.7837C6.22627 17.8193 6.23647 17.8635 6.23647 17.9176C6.23647 18.006 6.20926 18.0654 6.14802 18.1111C6.10001 18.1485 5.9934 18.1924 5.76394 18.1924C5.57379 18.1924 5.40935 18.1701 5.27704 18.1266C5.14019 18.0816 5.03094 18.037 4.95345 17.9935L4.79883 17.9043L4.51758 18.6967L4.62683 18.7609C4.67181 18.787 4.7289 18.815 4.79694 18.8445C4.86536 18.8728 4.94513 18.9016 5.04266 18.9311C5.13679 18.959 5.24528 18.9821 5.36398 19.0006C5.48231 19.0203 5.61688 19.0293 5.76394 19.0293C6.20774 19.0293 6.55288 18.9348 6.79142 18.747C7.04243 18.55 7.16907 18.2714 7.16907 17.9176C7.16907 17.738 7.14299 17.5822 7.0912 17.453C7.03827 17.3222 6.96115 17.2054 6.86022 17.1078Z" fill="#A9A7B0"/>
<path d="M7.06445 16.1111H8.08778V18.9573H8.9992V16.1111H10.0225V15.2734H7.06445V16.1111Z" fill="#A9A7B0"/>
<path d="M12.1773 17.4785C12.1773 17.6138 12.1625 17.7302 12.1338 17.8251C12.1069 17.9113 12.0695 17.9816 12.0223 18.0334C11.9777 18.0829 11.9217 18.1204 11.8567 18.1442C11.7191 18.1952 11.5221 18.1952 11.3868 18.1442C11.3248 18.1211 11.27 18.0841 11.2242 18.0334C11.177 17.9816 11.1399 17.9121 11.1127 17.8251C11.0832 17.731 11.0693 17.6138 11.0693 17.4785V15.2734H10.1582V17.5367C10.1582 17.7465 10.1869 17.9423 10.2425 18.1196C10.3007 18.303 10.3918 18.4632 10.512 18.5986C10.6341 18.7366 10.7899 18.8443 10.974 18.9184C11.1547 18.9921 11.3713 19.0292 11.6159 19.0292C11.8605 19.0292 12.0782 18.9921 12.2616 18.9184C12.4491 18.8443 12.6071 18.7366 12.7299 18.5986C12.8509 18.4625 12.942 18.3014 13.0017 18.1204C13.06 17.9438 13.0883 17.7465 13.0883 17.5367V15.2734H12.1773V17.4785Z" fill="#A9A7B0"/>
<path d="M16.118 15.6886C15.9385 15.5336 15.7196 15.4183 15.4686 15.3465C15.2263 15.2758 14.9544 15.2402 14.6634 15.2402C14.5303 15.2402 14.3761 15.2448 14.1935 15.2557C14.0109 15.2667 13.8374 15.2905 13.6794 15.3279L13.561 15.354V18.8776L13.6786 18.906C13.8366 18.9426 14.0075 18.9672 14.1874 18.9804C14.3575 18.9914 14.5148 18.9975 14.6543 18.9975C14.9492 18.9975 15.224 18.9604 15.4686 18.8867C15.7203 18.8111 15.9392 18.6924 16.1195 18.5344C16.3017 18.3752 16.4443 18.1745 16.5425 17.9367C16.6393 17.7031 16.6888 17.4252 16.6888 17.1145C16.6888 16.7966 16.6393 16.5161 16.5425 16.2825C16.4416 16.0432 16.2995 15.8443 16.118 15.6886ZM15.7528 17.1137C15.7528 17.4475 15.6659 17.7084 15.495 17.8872C15.3253 18.0645 15.055 18.1552 14.6929 18.1552C14.5999 18.1552 14.525 18.1545 14.4683 18.1529V16.0817C14.5318 16.0795 14.6101 16.0779 14.7023 16.0779C15.0682 16.0779 15.337 16.1656 15.5018 16.338C15.6682 16.5115 15.7528 16.7731 15.7528 17.1137Z" fill="#A9A7B0"/>
<path d="M18.8476 15.2734L18.8072 15.3642C18.6979 15.6103 18.5743 15.8613 18.4386 16.1074C18.3441 16.2786 18.2458 16.451 18.146 16.6253C18.0477 16.4567 17.9502 16.2839 17.8564 16.1089C17.7256 15.8651 17.6024 15.614 17.4916 15.3642L17.4515 15.2734H16.3931L16.5103 15.498C16.6849 15.8341 16.8754 16.1818 17.0754 16.5315C17.2603 16.8559 17.464 17.1927 17.6791 17.5333V18.9573H18.5856V17.5242C18.7985 17.1904 19.0007 16.8559 19.1882 16.5292C19.3825 16.1894 19.5712 15.842 19.7511 15.4987L19.8671 15.2742H18.8476V15.2734Z" fill="#A9A7B0"/>
</g>
<defs>
<clipPath id="clip0_8196_4222">
<rect width="48" height="48" fill="white"/>
</clipPath>
</defs>
</svg>
