<svg width="265" height="54" viewBox="0 0 265 54" fill="none" xmlns="http://www.w3.org/2000/svg">
<path d="M262.009 53C263.39 52.995 264.505 51.8716 264.5 50.4909L264.418 27.991C264.413 26.6103 263.29 25.4951 261.909 25.5002C260.528 25.5052 259.413 26.6286 259.418 28.0093L259.491 48.0091L239.491 48.082C238.11 48.087 236.995 49.2103 237 50.591C237.005 51.9717 238.129 53.0869 239.509 53.0819L262.009 53ZM2 50.5C4.00842 51.9887 4.00828 51.9889 4.00814 51.9891C4.0081 51.9891 4.00797 51.9893 4.00789 51.9894C4.00772 51.9896 4.00758 51.9898 4.00744 51.99C4.00718 51.9904 4.00697 51.9907 4.00683 51.9908C4.00655 51.9912 4.00652 51.9913 4.00673 51.991C4.00716 51.9904 4.00859 51.9885 4.01101 51.9853C4.01585 51.9788 4.02468 51.9671 4.03752 51.9502C4.0632 51.9165 4.10491 51.8622 4.16281 51.7881C4.2786 51.64 4.45914 51.4131 4.70568 51.1147C5.19879 50.5179 5.95579 49.6352 6.98682 48.5249L3.32291 45.1226C2.22323 46.3068 1.40279 47.2623 0.851147 47.93C0.575312 48.2638 0.36664 48.5258 0.223826 48.7084C0.152417 48.7998 0.0974674 48.8713 0.0588148 48.9221C0.0394884 48.9474 0.0242355 48.9677 0.0130359 48.9826C0.00743605 48.99 0.00284945 48.9962 -0.000726452 49.001C-0.00251441 49.0033 -0.0040497 49.0054 -0.00533265 49.0071C-0.00597412 49.008 -0.00655251 49.0088 -0.00706785 49.0095C-0.00732552 49.0098 -0.00756743 49.0101 -0.00779359 49.0104C-0.00790665 49.0106 -0.00806449 49.0108 -0.008121 49.0109C-0.00827486 49.0111 -0.00842479 49.0113 2 50.5ZM13.8244 41.9112C15.9415 40.0496 18.4152 38.0194 21.2594 35.8999L18.2717 31.8907C15.3147 34.0943 12.7365 36.2098 10.5228 38.1563L13.8244 41.9112ZM29.1543 30.4581C31.6978 28.8365 34.4465 27.2024 37.4058 25.5871L35.0102 21.1983C31.949 22.8693 29.1029 24.5611 26.4664 26.242L29.1543 30.4581ZM45.9776 21.2632C48.7722 19.9637 51.7176 18.6968 54.8169 17.4807L52.9906 12.8262C49.7947 14.0801 46.7554 15.3874 43.8693 16.7294L45.9776 21.2632ZM63.8808 14.2297C66.8297 13.2677 69.8976 12.3569 73.0869 11.5095L71.8028 6.67716C68.5234 7.5486 65.3665 8.48568 62.3301 9.47623L63.8808 14.2297ZM82.4768 9.28199C85.5295 8.6423 88.6806 8.06201 91.9317 7.5497L91.1534 2.61065C87.8195 3.13601 84.586 3.73142 81.4513 4.38828L82.4768 9.28199ZM101.507 6.27695C104.626 5.93732 107.83 5.66019 111.117 5.45196L110.801 0.461955C107.439 0.67493 104.16 0.958506 100.966 1.30632L101.507 6.27695ZM120.748 5.04988C122.352 5.01684 123.973 5 125.614 5V0C123.939 0 122.283 0.017194 120.645 0.0509448L120.748 5.04988ZM125.614 5C127.379 5 129.128 5.0195 130.861 5.0577L130.971 0.0589122C129.202 0.0199044 127.416 0 125.614 0V5ZM141.267 5.51872C144.813 5.75558 148.286 6.06987 151.682 6.45395L152.244 1.4856C148.772 1.09301 145.224 0.771833 141.6 0.52983L141.267 5.51872ZM162.014 7.86644C165.523 8.43028 168.944 9.06666 172.275 9.76589L173.302 4.87254C169.894 4.15724 166.396 3.50635 162.807 2.92976L162.014 7.86644ZM182.421 12.1524C185.875 13.0537 189.221 14.0186 192.455 15.0344L193.953 10.2641C190.642 9.22428 187.218 8.23665 183.683 7.31436L182.421 12.1524ZM202.316 18.4011C205.681 19.6445 208.907 20.9348 211.99 22.2539L213.957 17.6569C210.798 16.3057 207.495 14.9842 204.048 13.7109L202.316 18.4011ZM221.463 26.5966C224.747 28.2057 227.83 29.8278 230.709 31.4325L233.144 27.0652C230.19 25.419 227.029 23.7559 223.663 22.1066L221.463 26.5966ZM239.667 36.7529C242.921 38.8106 245.798 40.775 248.292 42.5725L251.216 38.5161C248.644 36.6626 245.683 34.6413 242.34 32.5272L239.667 36.7529ZM256.48 48.9232C257.748 49.9904 258.699 50.8392 259.327 51.4156C259.641 51.7039 259.875 51.924 260.027 52.0694C260.103 52.142 260.159 52.196 260.194 52.2304C260.212 52.2476 260.224 52.2599 260.232 52.2673C260.235 52.2709 260.238 52.2734 260.239 52.2745C260.24 52.2751 260.24 52.2754 260.24 52.2753C260.24 52.2753 260.24 52.2752 260.239 52.275C260.239 52.2749 260.239 52.2748 260.239 52.2746C260.239 52.2746 260.239 52.2745 260.239 52.2744C260.239 52.2743 260.239 52.2742 262 50.5C263.761 48.7258 263.761 48.7257 263.761 48.7255C263.761 48.7255 263.761 48.7253 263.761 48.7252C263.761 48.725 263.76 48.7248 263.76 48.7245C263.76 48.724 263.759 48.7234 263.758 48.7228C263.757 48.7215 263.755 48.7198 263.753 48.7179C263.749 48.7139 263.744 48.7087 263.738 48.7023C263.724 48.6894 263.706 48.6715 263.683 48.6487C263.636 48.6032 263.569 48.538 263.481 48.454C263.305 48.286 263.047 48.043 262.708 47.7316C262.029 47.1089 261.024 46.2127 259.699 45.0972L256.48 48.9232ZM262.009 53C263.39 52.995 264.505 51.8716 264.5 50.4909L264.418 27.991C264.413 26.6103 263.29 25.4951 261.909 25.5002C260.528 25.5052 259.413 26.6286 259.418 28.0093L259.491 48.0091L239.491 48.082C238.11 48.087 236.995 49.2103 237 50.591C237.005 51.9717 238.129 53.0869 239.509 53.0819L262.009 53ZM2 50.5C4.00842 51.9887 4.00828 51.9889 4.00814 51.9891C4.0081 51.9891 4.00797 51.9893 4.00789 51.9894C4.00772 51.9896 4.00758 51.9898 4.00744 51.99C4.00718 51.9904 4.00697 51.9907 4.00683 51.9908C4.00655 51.9912 4.00652 51.9913 4.00673 51.991C4.00716 51.9904 4.00859 51.9885 4.01101 51.9853C4.01585 51.9788 4.02468 51.9671 4.03752 51.9502C4.0632 51.9165 4.10491 51.8622 4.16281 51.7881C4.2786 51.64 4.45914 51.4131 4.70568 51.1147C5.19879 50.5179 5.95579 49.6352 6.98682 48.5249L3.32291 45.1226C2.22323 46.3068 1.40279 47.2623 0.851147 47.93C0.575312 48.2638 0.36664 48.5258 0.223826 48.7084C0.152417 48.7998 0.0974674 48.8713 0.0588148 48.9221C0.0394884 48.9474 0.0242355 48.9677 0.0130359 48.9826C0.00743605 48.99 0.00284945 48.9962 -0.000726452 49.001C-0.00251441 49.0033 -0.0040497 49.0054 -0.00533265 49.0071C-0.00597412 49.008 -0.00655251 49.0088 -0.00706785 49.0095C-0.00732552 49.0098 -0.00756743 49.0101 -0.00779359 49.0104C-0.00790665 49.0106 -0.00806449 49.0108 -0.008121 49.0109C-0.00827486 49.0111 -0.00842479 49.0113 2 50.5ZM13.8244 41.9112C15.9415 40.0496 18.4152 38.0194 21.2594 35.8999L18.2717 31.8907C15.3147 34.0943 12.7365 36.2098 10.5228 38.1563L13.8244 41.9112ZM29.1543 30.4581C31.6978 28.8365 34.4465 27.2024 37.4058 25.5871L35.0102 21.1983C31.949 22.8693 29.1029 24.5611 26.4664 26.242L29.1543 30.4581ZM45.9776 21.2632C48.7722 19.9637 51.7176 18.6968 54.8169 17.4807L52.9906 12.8262C49.7947 14.0801 46.7554 15.3874 43.8693 16.7294L45.9776 21.2632ZM63.8808 14.2297C66.8297 13.2677 69.8976 12.3569 73.0869 11.5095L71.8028 6.67716C68.5234 7.5486 65.3665 8.48568 62.3301 9.47623L63.8808 14.2297ZM82.4768 9.28199C85.5295 8.6423 88.6806 8.06201 91.9317 7.5497L91.1534 2.61065C87.8195 3.13601 84.586 3.73142 81.4513 4.38828L82.4768 9.28199ZM101.507 6.27695C104.626 5.93732 107.83 5.66019 111.117 5.45196L110.801 0.461955C107.439 0.67493 104.16 0.958506 100.966 1.30632L101.507 6.27695ZM120.748 5.04988C122.352 5.01684 123.973 5 125.614 5V0C123.939 0 122.283 0.017194 120.645 0.0509448L120.748 5.04988ZM125.614 5C127.379 5 129.128 5.0195 130.861 5.0577L130.971 0.0589122C129.202 0.0199044 127.416 0 125.614 0V5ZM141.267 5.51872C144.813 5.75558 148.286 6.06987 151.682 6.45395L152.244 1.4856C148.772 1.09301 145.224 0.771833 141.6 0.52983L141.267 5.51872ZM162.014 7.86644C165.523 8.43028 168.944 9.06666 172.275 9.76589L173.302 4.87254C169.894 4.15724 166.396 3.50635 162.807 2.92976L162.014 7.86644ZM182.421 12.1524C185.875 13.0537 189.221 14.0186 192.455 15.0344L193.953 10.2641C190.642 9.22428 187.218 8.23665 183.683 7.31436L182.421 12.1524ZM202.316 18.4011C205.681 19.6445 208.907 20.9348 211.99 22.2539L213.957 17.6569C210.798 16.3057 207.495 14.9842 204.048 13.7109L202.316 18.4011ZM221.463 26.5966C224.747 28.2057 227.83 29.8278 230.709 31.4325L233.144 27.0652C230.19 25.419 227.029 23.7559 223.663 22.1066L221.463 26.5966ZM239.667 36.7529C242.921 38.8106 245.798 40.775 248.292 42.5725L251.216 38.5161C248.644 36.6626 245.683 34.6413 242.34 32.5272L239.667 36.7529ZM256.48 48.9232C257.748 49.9904 258.699 50.8392 259.327 51.4156C259.641 51.7039 259.875 51.924 260.027 52.0694C260.103 52.142 260.159 52.196 260.194 52.2304C260.212 52.2476 260.224 52.2599 260.232 52.2673C260.235 52.2709 260.238 52.2734 260.239 52.2745C260.24 52.2751 260.24 52.2754 260.24 52.2753C260.24 52.2753 260.24 52.2752 260.239 52.275C260.239 52.2749 260.239 52.2748 260.239 52.2746C260.239 52.2746 260.239 52.2745 260.239 52.2744C260.239 52.2743 260.239 52.2742 262 50.5C263.761 48.7258 263.761 48.7257 263.761 48.7255C263.761 48.7255 263.761 48.7253 263.761 48.7252C263.761 48.725 263.76 48.7248 263.76 48.7245C263.76 48.724 263.759 48.7234 263.758 48.7228C263.757 48.7215 263.755 48.7198 263.753 48.7179C263.749 48.7139 263.744 48.7087 263.738 48.7023C263.724 48.6894 263.706 48.6715 263.683 48.6487C263.636 48.6032 263.569 48.538 263.481 48.454C263.305 48.286 263.047 48.043 262.708 47.7316C262.029 47.1089 261.024 46.2127 259.699 45.0972L256.48 48.9232Z" fill="#CFA935"/>
</svg>
