<svg width="60" height="60" viewBox="0 0 60 60" fill="none" xmlns="http://www.w3.org/2000/svg">
<g id="Frame" clip-path="url(#clip0_28887_41553)">
<g id="Page-1">
<g id="056---Listen-To-Podcast">
<path id="Shape" d="M55.85 27V27.15H56H57C58.574 27.15 59.85 28.426 59.85 30V42C59.85 43.574 58.574 44.85 57 44.85H56H55.85V45V46C55.85 47.0217 55.0217 47.85 54 47.85H49C47.426 47.85 46.15 46.574 46.15 45V27C46.1498 25.4443 47.3971 24.1759 48.9525 24.15L49.1078 24.1474L49.0998 23.9923C48.5774 13.8247 40.181 5.8487 30 5.8487C19.819 5.8487 11.4226 13.8247 10.9002 23.9923L10.8922 24.1474L11.0475 24.15C12.6029 24.1759 13.8502 25.4443 13.85 27V45C13.85 46.574 12.574 47.85 11 47.85H6C4.97827 47.85 4.15 47.0217 4.15 46V45V44.85H4H3C1.42599 44.85 0.15 43.574 0.15 42V30C0.15 28.426 1.42599 27.15 3 27.15H4H4.15V27V26.0004C4.15377 25.336 4.51355 24.7246 5.09257 24.3987L5.16654 24.3571L5.16894 24.2722C5.54927 10.8319 16.5543 0.133887 30 0.133887C43.4457 0.133887 54.4507 10.8319 54.8311 24.2722L54.8335 24.3571L54.9074 24.3987C55.4864 24.7246 55.8461 25.3358 55.85 26.0001C55.85 26.0003 55.85 26.0006 55.85 26.0008L55.85 27ZM4.15 29V28.85H4H3C2.36487 28.85 1.85 29.3649 1.85 30V42C1.85 42.6351 2.36487 43.15 3 43.15H4H4.15V43V29ZM5.85 46V46.15H6H11C11.6351 46.15 12.15 45.6351 12.15 45V27C12.15 26.3649 11.6351 25.85 11 25.85H6H5.85V26V46ZM9.051 24.15H9.19397L9.20083 24.0072C9.73423 12.9029 18.883 4.16853 30 4.14998C41.117 4.16853 50.2658 12.9029 50.7992 24.0072L50.806 24.15H50.949H52.975H53.1322L53.1248 23.993C52.5484 11.6406 42.3658 1.92207 30 1.92207C17.6342 1.92207 7.45157 11.6406 6.87516 23.993L6.86784 24.15H7.025H9.051ZM54 46.15H54.15V46V26V25.85H54H49C48.3649 25.85 47.85 26.3649 47.85 27V45C47.85 45.6351 48.3649 46.15 49 46.15H54ZM55.85 43V43.15H56H57C57.6351 43.15 58.15 42.6351 58.15 42V30C58.15 29.3649 57.6351 28.85 57 28.85H56H55.85V29V43Z" fill="white" stroke="black" stroke-width="0.3"/>
<path id="Shape_2" d="M43.0518 17.1301C43.4395 17.1295 43.792 16.9049 43.9563 16.5537C44.1205 16.2025 44.0669 15.788 43.8188 15.4901C40.4076 11.3788 35.3429 9 30.0008 9C24.6587 9 19.5939 11.3788 16.1828 15.4901C15.8293 15.9145 15.8869 16.5451 16.3113 16.8986C16.7357 17.252 17.3663 17.1945 17.7198 16.7701C20.751 13.1152 25.2525 11.0003 30.0008 11.0003C34.7491 11.0003 39.2506 13.1152 42.2818 16.7701C42.4722 16.9986 42.7544 17.1305 43.0518 17.1301Z" fill="white"/>
<path id="Shape_3" d="M40.9003 19.8629C41.3369 19.5266 41.4192 18.9005 41.0843 18.4629C38.4388 15.0199 34.3433 13.002 30.0013 13.002C25.6593 13.002 21.5639 15.0199 18.9183 18.4629C18.6239 18.9007 18.7202 19.4919 19.1384 19.8136C19.5565 20.1352 20.1527 20.0767 20.5003 19.6799C22.7671 16.7293 26.2765 14.9999 29.9973 14.9999C33.7181 14.9999 37.2276 16.7293 39.4943 19.6799C39.8309 20.1162 40.4569 20.198 40.8943 19.8629H40.9003Z" fill="white"/>
<path id="Shape_4" d="M27.15 50.539V50.4291L27.0452 50.396C22.9452 49.1006 20.1559 45.2996 20.15 40.9999V27C20.15 21.56 24.56 17.15 30 17.15C35.44 17.15 39.85 21.56 39.85 27V40.9998C39.8442 45.2996 37.0548 49.1006 32.9548 50.396L32.85 50.4291V50.539V54V54.15H33H37C38.574 54.15 39.85 55.426 39.85 57V59C39.85 59.4694 39.4694 59.85 39 59.85H21C20.5306 59.85 20.15 59.4694 20.15 59V57C20.15 55.426 21.426 54.15 23 54.15H27H27.15V54V50.539ZM38 27.15H38.1502L38.15 26.9998C38.1449 22.5009 34.4991 18.8551 30.0002 18.85L29.9998 18.85C25.5009 18.8551 21.8551 22.5009 21.85 26.9998L21.8498 27.15H22H27C27.4694 27.15 27.85 27.5306 27.85 28C27.85 28.4694 27.4694 28.85 27 28.85H22H21.85V29V31V31.15H22H27C27.4694 31.15 27.85 31.5306 27.85 32C27.85 32.4694 27.4694 32.85 27 32.85H22H21.85V33V35V35.15H22H27C27.4694 35.15 27.85 35.5306 27.85 36C27.85 36.4694 27.4694 36.85 27 36.85H22H21.85V37V39V39.15H22H38H38.15V39V37V36.85H38H33C32.5306 36.85 32.15 36.4694 32.15 36C32.15 35.5306 32.5306 35.15 33 35.15H38H38.15V35V33V32.85H38H33C32.5306 32.85 32.15 32.4694 32.15 32C32.15 31.5306 32.5306 31.15 33 31.15H38H38.15V31V29V28.85H38H33C32.5306 28.85 32.15 28.4694 32.15 28C32.15 27.5306 32.5306 27.15 33 27.15H38ZM22 40.85H21.85V41C21.85 45.5011 25.4989 49.15 30 49.15C34.5011 49.15 38.15 45.5011 38.15 41V40.85H38H22ZM38 58.15H38.15V58V57C38.15 56.3649 37.6351 55.85 37 55.85H23C22.3649 55.85 21.85 56.3649 21.85 57V58V58.15H22H38ZM31 54.15H31.15V54V50.949V50.7829L30.9847 50.7998C30.33 50.8667 29.67 50.8667 29.0153 50.7998L28.85 50.7829V50.949V54V54.15H29H31Z" fill="white" stroke="black" stroke-width="0.3"/>
</g>
</g>
</g>
<defs>
<clipPath id="clip0_28887_41553">
<rect width="60" height="60" fill="white"/>
</clipPath>
</defs>
</svg>
