<svg width="60" height="60" viewBox="0 0 60 60" fill="none" xmlns="http://www.w3.org/2000/svg">
<g id="Layer_1">
<g id="Group">
<g id="Group_2">
<g id="Group_3">
<path id="Vector" d="M27.5753 41.7011C27.0582 41.7011 26.6387 41.2816 26.6387 40.7645V36.795C26.6387 36.2779 27.0582 35.8584 27.5753 35.8584C28.0923 35.8584 28.5118 36.2779 28.5118 36.795V40.7645C28.5118 41.2816 28.0936 41.7011 27.5753 41.7011Z" fill="white"/>
</g>
<g id="Group_4">
<path id="Vector_2" d="M27.5741 41.7011C27.4619 41.7011 27.3497 41.6803 27.2424 41.6401C23.1668 40.0986 15.679 39.2962 11.451 40.6084C11.1668 40.6962 10.8571 40.645 10.618 40.4682C10.379 40.2913 10.2363 40.0121 10.2363 39.7145V22.0425C10.2363 21.5255 10.6558 21.106 11.1729 21.106H15.24C15.7571 21.106 16.1766 21.5255 16.1766 22.0425C16.1766 22.5596 15.7571 22.9791 15.24 22.9791H12.1107V38.5084C16.7046 37.5438 23.44 38.2999 27.5644 39.7633C29.2217 39.1389 31.3083 38.6621 33.6278 38.3791C34.1424 38.3157 34.6083 38.6816 34.6705 39.195C34.7327 39.7084 34.368 40.1755 33.8546 40.2377C31.5668 40.5169 29.4619 41.0121 27.9254 41.6328C27.8132 41.6779 27.6936 41.7011 27.5741 41.7011ZM43.9741 26.3401C43.4571 26.3401 43.0375 25.9206 43.0375 25.4035V22.9791H39.9071C39.39 22.9791 38.9705 22.5596 38.9705 22.0425C38.9705 21.5255 39.39 21.106 39.9071 21.106H43.9741C44.4912 21.106 44.9107 21.5255 44.9107 22.0425V25.4035C44.9107 25.9206 44.4924 26.3401 43.9741 26.3401Z" fill="white"/>
</g>
<g id="Group_5">
<path id="Vector_3" d="M27.5754 37.7316C27.4608 37.7316 27.3462 37.7109 27.2364 37.6682C24.7242 36.6938 18.1242 36.178 15.5254 37.0048C15.2401 37.0962 14.9303 37.045 14.6888 36.8682C14.4474 36.6914 14.3047 36.4109 14.3047 36.1121V20.7255C14.3047 20.4109 14.462 20.1182 14.7242 19.9438C16.1535 18.9987 18.5791 18.4682 21.3742 18.4792C24.0827 18.4926 26.5815 19.0328 28.0583 19.9231C28.3388 20.0926 28.5108 20.3975 28.5108 20.7255V36.795C28.5108 37.1036 28.3583 37.3926 28.1035 37.5682C27.9474 37.6767 27.762 37.7316 27.5754 37.7316ZM19.3815 34.7243C21.8888 34.7243 24.6827 35.0365 26.6388 35.528V21.2877C24.0059 20.0645 18.6266 20.0548 16.1791 21.267V34.9414C17.1083 34.7926 18.2144 34.7243 19.3815 34.7243Z" fill="white"/>
</g>
<g id="Group_6">
<path id="Vector_4" d="M27.5759 37.7318C27.2076 37.7318 26.8588 37.5135 26.71 37.1525C26.5124 36.6745 26.7393 36.1269 27.2173 35.9293C28.9271 35.222 31.5393 34.9415 32.9454 34.8379C33.4637 34.8013 33.91 35.1867 33.949 35.7025C33.9881 36.2184 33.6002 36.6672 33.0844 36.7062C30.8844 36.8696 29.0063 37.2172 27.9344 37.6611C27.8161 37.7098 27.6941 37.7318 27.5759 37.7318ZM39.9088 26.8403C39.3917 26.8403 38.9722 26.4208 38.9722 25.9037V21.2672C36.3734 19.9806 30.4722 20.072 28.0588 21.5269C27.6161 21.794 27.0405 21.6513 26.7734 21.2086C26.5063 20.7659 26.649 20.1903 27.0917 19.9232C28.5673 19.033 31.0661 18.4928 33.7759 18.4793C36.571 18.4635 38.9966 18.9989 40.4259 19.944C40.6881 20.1172 40.8454 20.4111 40.8454 20.7257V25.9037C40.8454 26.4208 40.4259 26.8403 39.9088 26.8403Z" fill="white"/>
</g>
<g id="Group_7">
<path id="Vector_5" d="M44.6908 58.8316H10.4603C7.89933 58.8316 5.81641 56.7486 5.81641 54.1877V5.99254C5.81641 3.43156 7.89933 1.34863 10.4603 1.34863H44.6896C47.2506 1.34863 49.3335 3.43156 49.3335 5.99254V26.8242C49.3335 27.3413 48.914 27.7608 48.3969 27.7608C47.8798 27.7608 47.4603 27.3413 47.4603 26.8242V5.99254C47.4603 4.46449 46.2176 3.2218 44.6896 3.2218H10.4603C8.93226 3.2218 7.68958 4.46449 7.68958 5.99254V54.1864C7.68958 55.7145 8.93226 56.9572 10.4603 56.9572H44.6896C46.2176 56.9572 47.4603 55.7145 47.4603 54.1864V44.2169C47.4603 43.6999 47.8798 43.2803 48.3969 43.2803C48.914 43.2803 49.3335 43.6999 49.3335 44.2169V54.1864C49.3347 56.7486 47.2518 58.8316 44.6908 58.8316Z" fill="white"/>
</g>
<g id="Group_8">
<path id="Vector_6" d="M48.3981 10.4401H6.75299C6.23592 10.4401 5.81641 10.0206 5.81641 9.50348C5.81641 8.98641 6.23592 8.56689 6.75299 8.56689H48.3981C48.9152 8.56689 49.3347 8.98641 49.3347 9.50348C49.3347 10.0206 48.9152 10.4401 48.3981 10.4401Z" fill="white"/>
</g>
<g id="Group_9">
<path id="Vector_7" d="M48.3981 51.6134H6.75299C6.23592 51.6134 5.81641 51.1939 5.81641 50.6768C5.81641 50.1597 6.23592 49.7402 6.75299 49.7402H48.3981C48.9152 49.7402 49.3347 50.1597 49.3347 50.6768C49.3347 51.1939 48.9152 51.6134 48.3981 51.6134Z" fill="white"/>
</g>
<g id="Group_10">
<path id="Vector_8" d="M29.8574 55.2218H25.294C24.7769 55.2218 24.3574 54.8023 24.3574 54.2852C24.3574 53.7681 24.7769 53.3486 25.294 53.3486H29.8574C30.3745 53.3486 30.794 53.7681 30.794 54.2852C30.794 54.8023 30.3745 55.2218 29.8574 55.2218Z" fill="white"/>
</g>
<g id="Group_11">
<path id="Vector_9" d="M29.8574 6.83167H25.294C24.7769 6.83167 24.3574 6.41215 24.3574 5.89508C24.3574 5.37801 24.7769 4.9585 25.294 4.9585H29.8574C30.3745 4.9585 30.794 5.37801 30.794 5.89508C30.794 6.41215 30.3745 6.83167 29.8574 6.83167Z" fill="white"/>
</g>
<g id="Group_12">
<path id="Vector_10" d="M43.162 42.7827C42.8669 42.7827 42.5889 42.6437 42.412 42.4071L37.6828 36.0827C37.4706 35.7985 37.4364 35.4193 37.595 35.1022C37.7535 34.7851 38.0779 34.5851 38.4328 34.5851H40.1681V29.1973C40.1681 28.6803 40.5877 28.2607 41.1047 28.2607H45.2181C45.7352 28.2607 46.1547 28.6803 46.1547 29.1973V34.5851H47.8901C48.245 34.5851 48.5681 34.7851 48.7279 35.1022C48.8864 35.4193 48.8523 35.7985 48.6401 36.0827L43.9108 42.4071C43.7352 42.6437 43.4572 42.7827 43.162 42.7827ZM40.3023 36.4583L43.162 40.2827L46.0218 36.4583H45.2194C44.7023 36.4583 44.2828 36.0388 44.2828 35.5217V30.1339H42.0413V35.5217C42.0413 36.0388 41.6218 36.4583 41.1047 36.4583H40.3023Z" fill="white"/>
</g>
</g>
<g id="Group_13">
<path id="Vector_11" d="M43.1608 46.6082C37.0474 46.6082 32.0742 41.6351 32.0742 35.5216C32.0742 29.4082 37.0474 24.4351 43.1608 24.4351C49.2742 24.4351 54.2474 29.4082 54.2474 35.5216C54.2474 41.6351 49.2742 46.6082 43.1608 46.6082ZM43.1608 26.3082C38.0803 26.3082 33.9474 30.4412 33.9474 35.5216C33.9474 40.6021 38.0803 44.7351 43.1608 44.7351C48.2413 44.7351 52.3742 40.6021 52.3742 35.5216C52.3742 30.4412 48.2413 26.3082 43.1608 26.3082Z" fill="white"/>
</g>
</g>
</g>
</svg>
