<svg width="17" height="18" viewBox="0 0 17 18" fill="none" xmlns="http://www.w3.org/2000/svg">
<path d="M14.5485 9.96563C14.3651 9.96563 14.1735 9.9073 13.9901 9.86563C13.6189 9.78382 13.254 9.6752 12.8985 9.54063C12.5119 9.39999 12.0869 9.40729 11.7054 9.56114C11.3239 9.71498 11.0127 10.0045 10.8318 10.374L10.6485 10.749C9.83681 10.2974 9.09096 9.73666 8.43181 9.0823C7.77745 8.42314 7.21666 7.67729 6.76514 6.86563L7.11514 6.6323C7.48461 6.45139 7.77412 6.14024 7.92797 5.75871C8.08181 5.37717 8.08912 4.95222 7.94847 4.56563C7.81616 4.20931 7.70759 3.84463 7.62347 3.47396C7.58181 3.29063 7.54847 3.09896 7.52347 2.9073C7.42228 2.32031 7.11483 1.78875 6.65649 1.40833C6.19815 1.02791 5.61905 0.823636 5.02347 0.832296H2.52347C2.16433 0.828924 1.80868 0.902974 1.48073 1.0494C1.15278 1.19584 0.860231 1.41121 0.622998 1.68086C0.385765 1.95052 0.209418 2.26812 0.105963 2.61206C0.00250724 2.95599 -0.0256279 3.31818 0.0234727 3.67396C0.467421 7.16511 2.06183 10.4089 4.55485 12.8928C7.04787 15.3768 10.2974 16.9594 13.7901 17.3906H14.1068C14.7213 17.3915 15.3146 17.1661 15.7735 16.7573C16.0371 16.5215 16.2477 16.2324 16.3914 15.9092C16.535 15.586 16.6084 15.236 16.6068 14.8823V12.3823C16.5966 11.8035 16.3858 11.2461 16.0104 10.8054C15.635 10.3646 15.1183 10.0678 14.5485 9.96563ZM14.9651 14.9656C14.965 15.084 14.9396 15.2009 14.8908 15.3086C14.8419 15.4164 14.7707 15.5125 14.6818 15.5906C14.5887 15.671 14.4798 15.7311 14.3621 15.767C14.2445 15.8028 14.1206 15.8137 13.9985 15.799C10.8776 15.3988 7.97867 13.971 5.75907 11.7409C3.53947 9.51071 2.12548 6.60508 1.74014 3.4823C1.72688 3.36023 1.7385 3.23674 1.77431 3.11929C1.81012 3.00184 1.86936 2.89287 1.94847 2.79896C2.02656 2.71007 2.12269 2.63883 2.23045 2.58998C2.33822 2.54112 2.45515 2.51578 2.57347 2.51563H5.07347C5.26726 2.51132 5.45649 2.5747 5.60859 2.69485C5.76069 2.81501 5.86615 2.98444 5.90681 3.17396C5.94014 3.40174 5.98181 3.62674 6.03181 3.84896C6.12807 4.28825 6.25619 4.71995 6.41514 5.14063L5.24847 5.6823C5.14872 5.72806 5.05899 5.79308 4.98444 5.87363C4.90988 5.95417 4.85197 6.04864 4.81403 6.15162C4.77609 6.25461 4.75887 6.36407 4.76335 6.47373C4.76783 6.58339 4.79392 6.69108 4.84014 6.79063C6.03947 9.35959 8.10451 11.4246 10.6735 12.624C10.8764 12.7073 11.1039 12.7073 11.3068 12.624C11.4107 12.5868 11.5062 12.5293 11.5878 12.455C11.6693 12.3806 11.7353 12.2907 11.7818 12.1906L12.2985 11.024C12.7293 11.178 13.169 11.306 13.6151 11.4073C13.8374 11.4573 14.0624 11.499 14.2901 11.5323C14.4797 11.573 14.6491 11.6784 14.7692 11.8305C14.8894 11.9826 14.9528 12.1718 14.9485 12.3656L14.9651 14.9656Z" fill="#CFA935"/>
</svg>
