<svg width="17" height="18" viewBox="0 0 17 18" fill="none" xmlns="http://www.w3.org/2000/svg">
<path d="M14.5485 9.96758C14.3651 9.96758 14.1735 9.90925 13.9901 9.86758C13.6189 9.78577 13.254 9.67715 12.8985 9.54258C12.5119 9.40194 12.0869 9.40924 11.7054 9.56309C11.3239 9.71693 11.0127 10.0064 10.8318 10.3759L10.6485 10.7509C9.83681 10.2994 9.09096 9.73861 8.43181 9.08425C7.77745 8.4251 7.21666 7.67925 6.76514 6.86758L7.11514 6.63425C7.48461 6.45335 7.77412 6.14219 7.92797 5.76066C8.08181 5.37913 8.08912 4.95418 7.94847 4.56758C7.81616 4.21127 7.70759 3.84658 7.62347 3.47592C7.58181 3.29258 7.54847 3.10092 7.52347 2.90925C7.42228 2.32227 7.11483 1.7907 6.65649 1.41028C6.19815 1.02986 5.61905 0.82559 5.02347 0.834249H2.52347C2.16433 0.830877 1.80868 0.904927 1.48073 1.05136C1.15278 1.19779 0.860231 1.41316 0.622998 1.68282C0.385765 1.95247 0.209418 2.27008 0.105963 2.61401C0.00250724 2.95794 -0.0256279 3.32013 0.0234727 3.67592C0.467421 7.16707 2.06183 10.4108 4.55485 12.8948C7.04787 15.3787 10.2974 16.9613 13.7901 17.3926H14.1068C14.7213 17.3935 15.3146 17.168 15.7735 16.7592C16.0371 16.5235 16.2477 16.2344 16.3914 15.9112C16.535 15.588 16.6084 15.2379 16.6068 14.8842V12.3842C16.5966 11.8054 16.3858 11.248 16.0104 10.8073C15.635 10.3666 15.1183 10.0698 14.5485 9.96758ZM14.9651 14.9676C14.965 15.0859 14.9396 15.2028 14.8908 15.3106C14.8419 15.4184 14.7707 15.5145 14.6818 15.5926C14.5887 15.673 14.4798 15.733 14.3621 15.7689C14.2445 15.8048 14.1206 15.8157 13.9985 15.8009C10.8776 15.4008 7.97867 13.973 5.75907 11.7428C3.53947 9.51266 2.12548 6.60703 1.74014 3.48425C1.72688 3.36218 1.7385 3.23869 1.77431 3.12124C1.81012 3.00379 1.86936 2.89482 1.94847 2.80092C2.02656 2.71203 2.12269 2.64078 2.23045 2.59193C2.33822 2.54308 2.45515 2.51773 2.57347 2.51758H5.07347C5.26726 2.51327 5.45649 2.57665 5.60859 2.69681C5.76069 2.81697 5.86615 2.98639 5.90681 3.17592C5.94014 3.40369 5.98181 3.62869 6.03181 3.85092C6.12807 4.2902 6.25619 4.7219 6.41514 5.14258L5.24847 5.68425C5.14872 5.73002 5.05899 5.79504 4.98444 5.87558C4.90988 5.95612 4.85197 6.05059 4.81403 6.15358C4.77609 6.25656 4.75887 6.36602 4.76335 6.47568C4.76783 6.58534 4.79392 6.69304 4.84014 6.79258C6.03947 9.36154 8.10451 11.4266 10.6735 12.6259C10.8764 12.7093 11.1039 12.7093 11.3068 12.6259C11.4107 12.5887 11.5062 12.5313 11.5878 12.4569C11.6693 12.3825 11.7353 12.2927 11.7818 12.1926L12.2985 11.0259C12.7293 11.18 13.169 11.308 13.6151 11.4092C13.8374 11.4592 14.0624 11.5009 14.2901 11.5342C14.4797 11.5749 14.6491 11.6804 14.7692 11.8325C14.8894 11.9846 14.9528 12.1738 14.9485 12.3676L14.9651 14.9676Z" fill="white"/>
</svg>
