<svg width="103" height="100" viewBox="0 0 103 100" fill="none" xmlns="http://www.w3.org/2000/svg">
<g filter="url(#filter0_i_25098_32572)">
<path d="M100.5 50C100.5 22.3858 78.1142 0 50.5 0C22.8858 0 0.5 22.3858 0.5 50C0.5 77.6142 22.8858 100 50.5 100C78.1142 100 100.5 77.6142 100.5 50ZM15.5 50C15.5 30.67 31.17 15 50.5 15C69.83 15 85.5 30.67 85.5 50C85.5 69.33 69.83 85 50.5 85C31.17 85 15.5 69.33 15.5 50Z" fill="white"/>
</g>
<g filter="url(#filter1_d_25098_32572)">
<path d="M100.5 50C100.5 43.4339 99.2067 36.9321 96.694 30.8658C94.1812 24.7995 90.4983 19.2876 85.8553 14.6447C81.2124 10.0017 75.7004 6.31876 69.6342 3.80602C63.5679 1.29329 57.0661 0 50.5 0L50.5 15C55.0963 15 59.6475 15.9053 63.8939 17.6642C68.1403 19.4231 71.9987 22.0012 75.2487 25.2513C78.4988 28.5013 81.0769 32.3597 82.8358 36.6061C84.5947 40.8525 85.5 45.4037 85.5 50H100.5Z" fill="#CFA935"/>
</g>
<path d="M27.1408 58.5V56.412L33.8128 50.076C34.3728 49.548 34.7888 49.084 35.0608 48.684C35.3328 48.284 35.5088 47.916 35.5888 47.58C35.6848 47.228 35.7328 46.9 35.7328 46.596C35.7328 45.828 35.4688 45.236 34.9408 44.82C34.4128 44.388 33.6368 44.172 32.6128 44.172C31.7968 44.172 31.0528 44.316 30.3808 44.604C29.7248 44.892 29.1568 45.332 28.6768 45.924L26.4928 44.244C27.1488 43.364 28.0288 42.684 29.1328 42.204C30.2528 41.708 31.5008 41.46 32.8768 41.46C34.0928 41.46 35.1488 41.66 36.0448 42.06C36.9568 42.444 37.6528 42.996 38.1328 43.716C38.6288 44.436 38.8768 45.292 38.8768 46.284C38.8768 46.828 38.8048 47.372 38.6608 47.916C38.5168 48.444 38.2448 49.004 37.8448 49.596C37.4448 50.188 36.8608 50.852 36.0928 51.588L30.3568 57.036L29.7088 55.86H39.5248V58.5H27.1408ZM46.8935 58.74C45.7095 58.74 44.5495 58.572 43.4135 58.236C42.2935 57.884 41.3495 57.404 40.5815 56.796L41.9015 54.372C42.5095 54.868 43.2455 55.268 44.1095 55.572C44.9895 55.876 45.9015 56.028 46.8455 56.028C47.9495 56.028 48.8135 55.796 49.4375 55.332C50.0775 54.868 50.3975 54.244 50.3975 53.46C50.3975 52.932 50.2615 52.468 49.9895 52.068C49.7335 51.668 49.2695 51.364 48.5975 51.156C47.9415 50.948 47.0375 50.844 45.8855 50.844H41.8295L42.6935 41.7H52.5575V44.316H43.8455L45.4775 42.828L44.8295 49.668L43.1975 48.204H46.5815C48.2455 48.204 49.5815 48.428 50.5895 48.876C51.6135 49.308 52.3575 49.916 52.8215 50.7C53.3015 51.468 53.5415 52.348 53.5415 53.34C53.5415 54.316 53.3015 55.212 52.8215 56.028C52.3415 56.844 51.6055 57.5 50.6135 57.996C49.6375 58.492 48.3975 58.74 46.8935 58.74ZM57.4588 58.5L68.9308 41.7H71.2828L59.8108 58.5H57.4588ZM58.8508 50.748C58.0668 50.748 57.3708 50.556 56.7628 50.172C56.1548 49.788 55.6828 49.252 55.3468 48.564C55.0108 47.876 54.8428 47.068 54.8428 46.14C54.8428 45.212 55.0108 44.404 55.3468 43.716C55.6828 43.028 56.1548 42.492 56.7628 42.108C57.3708 41.724 58.0668 41.532 58.8508 41.532C59.6668 41.532 60.3708 41.724 60.9628 42.108C61.5708 42.492 62.0428 43.028 62.3788 43.716C62.7148 44.388 62.8828 45.196 62.8828 46.14C62.8828 47.068 62.7148 47.876 62.3788 48.564C62.0428 49.252 61.5708 49.788 60.9628 50.172C60.3708 50.556 59.6668 50.748 58.8508 50.748ZM58.8508 49.068C59.5068 49.068 60.0108 48.82 60.3628 48.324C60.7308 47.812 60.9148 47.084 60.9148 46.14C60.9148 45.196 60.7308 44.476 60.3628 43.98C60.0108 43.468 59.5068 43.212 58.8508 43.212C58.2268 43.212 57.7228 43.468 57.3388 43.98C56.9708 44.492 56.7868 45.212 56.7868 46.14C56.7868 47.068 56.9708 47.788 57.3388 48.3C57.7228 48.812 58.2268 49.068 58.8508 49.068ZM69.8668 58.668C69.0828 58.668 68.3868 58.476 67.7788 58.092C67.1708 57.708 66.6988 57.172 66.3628 56.484C66.0268 55.796 65.8588 54.988 65.8588 54.06C65.8588 53.132 66.0268 52.324 66.3628 51.636C66.6988 50.948 67.1708 50.412 67.7788 50.028C68.3868 49.644 69.0828 49.452 69.8668 49.452C70.6828 49.452 71.3868 49.644 71.9788 50.028C72.5868 50.412 73.0588 50.948 73.3948 51.636C73.7308 52.324 73.8988 53.132 73.8988 54.06C73.8988 54.988 73.7308 55.796 73.3948 56.484C73.0588 57.172 72.5868 57.708 71.9788 58.092C71.3868 58.476 70.6828 58.668 69.8668 58.668ZM69.8668 56.988C70.5068 56.988 71.0108 56.732 71.3788 56.22C71.7468 55.708 71.9308 54.988 71.9308 54.06C71.9308 53.132 71.7468 52.412 71.3788 51.9C71.0108 51.388 70.5068 51.132 69.8668 51.132C69.2428 51.132 68.7388 51.388 68.3548 51.9C67.9868 52.396 67.8028 53.116 67.8028 54.06C67.8028 55.004 67.9868 55.732 68.3548 56.244C68.7388 56.74 69.2428 56.988 69.8668 56.988Z" fill="#CFA935"/>
<defs>
<filter id="filter0_i_25098_32572" x="0.5" y="0" width="100" height="100" filterUnits="userSpaceOnUse" color-interpolation-filters="sRGB">
<feFlood flood-opacity="0" result="BackgroundImageFix"/>
<feBlend mode="normal" in="SourceGraphic" in2="BackgroundImageFix" result="shape"/>
<feColorMatrix in="SourceAlpha" type="matrix" values="0 0 0 0 0 0 0 0 0 0 0 0 0 0 0 0 0 0 127 0" result="hardAlpha"/>
<feOffset/>
<feGaussianBlur stdDeviation="1.765"/>
<feComposite in2="hardAlpha" operator="arithmetic" k2="-1" k3="1"/>
<feColorMatrix type="matrix" values="0 0 0 0 0 0 0 0 0 0 0 0 0 0 0 0 0 0 0.25 0"/>
<feBlend mode="normal" in2="shape" result="effect1_innerShadow_25098_32572"/>
</filter>
<filter id="filter1_d_25098_32572" x="48.4899" y="0" width="54.0201" height="54.0201" filterUnits="userSpaceOnUse" color-interpolation-filters="sRGB">
<feFlood flood-opacity="0" result="BackgroundImageFix"/>
<feColorMatrix in="SourceAlpha" type="matrix" values="0 0 0 0 0 0 0 0 0 0 0 0 0 0 0 0 0 0 127 0" result="hardAlpha"/>
<feOffset dy="2.01005"/>
<feGaussianBlur stdDeviation="1.00503"/>
<feComposite in2="hardAlpha" operator="out"/>
<feColorMatrix type="matrix" values="0 0 0 0 0 0 0 0 0 0 0 0 0 0 0 0 0 0 0.25 0"/>
<feBlend mode="normal" in2="BackgroundImageFix" result="effect1_dropShadow_25098_32572"/>
<feBlend mode="normal" in="SourceGraphic" in2="effect1_dropShadow_25098_32572" result="shape"/>
</filter>
</defs>
</svg>
