<svg width="147" height="169" viewBox="0 0 147 169" fill="none" xmlns="http://www.w3.org/2000/svg">
<g opacity="0.6" clip-path="url(#clip0_196_3692)">
<g opacity="0.3">
<g style="mix-blend-mode:screen">
<path d="M35.0258 11.4003L82.8909 29.7519L111.972 14.2557L147.55 27.8966L187.771 6.48114L187.653 6.14078L147.561 27.4998L111.982 13.8588L82.9085 29.3367L35.1668 11.0324L35.0258 11.4003Z" fill="url(#paint0_radial_196_3692)"/>
<path d="M35.6804 9.8789C35.0321 9.63034 34.2591 10.0302 33.97 10.7843C33.6808 11.5385 33.9729 12.3467 34.6367 12.6011C35.3004 12.8556 36.0579 12.4498 36.347 11.6957C36.6362 10.9416 36.3441 10.1334 35.6804 9.8789Z" fill="url(#paint1_radial_196_3692)"/>
<path d="M115.903 242.876L148.225 255.268L148.366 254.9L116.168 242.555L106.227 215.242L70.6482 201.601L59.381 170.635L10.4509 151.875L0.385517 124.239L0.0552493 124.408L10.1863 152.195L59.1011 170.949L70.3683 201.915L105.947 215.556L115.903 242.876Z" fill="url(#paint2_radial_196_3692)"/>
<path d="M1.46026 123.744C1.20171 123.033 0.445385 122.743 -0.206754 123.105C-0.874328 123.461 -1.20578 124.325 -0.947229 125.036C-0.688679 125.747 0.0676439 126.037 0.719782 125.675C1.38736 125.319 1.71881 124.455 1.46026 123.744Z" fill="url(#paint3_radial_196_3692)"/>
<path d="M9.95495 32.9698L33.4479 20.4577L89.4629 41.9341L113.616 29.0846L136.137 37.7189L141.174 51.5489L209.383 77.7005L209.524 77.3326L141.438 51.2284L136.401 37.3984L113.634 28.6693L89.4805 41.5189L33.45 20.0366L9.82214 32.6235L9.95495 32.9698Z" fill="url(#paint4_radial_196_3692)"/>
<path d="M9.48097 31.4802C8.8134 31.8361 8.48195 32.7006 8.7405 33.4115C8.99905 34.1225 9.75539 34.4125 10.4075 34.0507C11.0751 33.6948 11.4066 32.8303 11.148 32.1194C10.8895 31.4084 10.1331 31.1184 9.48097 31.4802Z" fill="url(#paint5_radial_196_3692)"/>
<path d="M16.6341 148.908L35.5734 156.169L55.7664 145.43L83.1951 155.946L102.885 145.457L143.82 161.152L143.954 160.802L102.88 145.054L83.2126 155.531L55.7685 145.009L35.5909 155.754L16.9141 148.593L6.15694 119.068L5.8421 119.242L16.6341 148.908Z" fill="url(#paint6_radial_196_3692)"/>
<path d="M7.22442 118.591C6.96587 117.88 6.20954 117.59 5.55741 117.952C4.88983 118.308 4.55838 119.172 4.81693 119.883C5.07548 120.594 5.8318 120.884 6.48394 120.522C7.15152 120.166 7.48297 119.302 7.22442 118.591Z" fill="url(#paint7_radial_196_3692)"/>
<path d="M144.35 159.583C144.998 159.831 145.306 160.646 145.016 161.4C144.727 162.154 143.97 162.56 143.306 162.305C142.642 162.051 142.35 161.242 142.639 160.488C142.929 159.734 143.686 159.328 144.35 159.583Z" fill="url(#paint8_radial_196_3692)"/>
<path d="M8.61454 42.5615L31.5453 30.3613L84.89 50.8138L110.611 37.1094L126.926 43.3647L134.231 63.4232L185.584 83.1123L185.718 82.7628L134.504 63.1269L127.19 43.0442L110.628 36.6942L84.9076 50.3986L31.5629 29.9461L8.49717 42.2211L8.61454 42.5615Z" fill="url(#paint9_radial_196_3692)"/>
<path d="M9.08258 43.6483C8.415 44.0041 7.65866 43.7142 7.41555 43.0091C7.157 42.2982 7.48845 41.4337 8.15602 41.0778C8.82359 40.7219 9.57994 41.0119 9.82305 41.7169C10.0816 42.4279 9.75015 43.2924 9.08258 43.6483Z" fill="url(#paint10_radial_196_3692)"/>
<path d="M25.9249 131.879L49.1088 140.768L87.821 120.145L143.219 141.385L150.675 161.881L151.005 161.712L143.476 141.083L87.8316 119.749L49.1264 140.353L26.2048 131.564L18.834 111.354L-4.92111 102.246L-5.05509 102.596L18.5765 111.656L25.9249 131.879Z" fill="url(#paint11_radial_196_3692)"/>
<path d="M18.3896 136.247L31.1392 141.136L31.2803 140.768L18.6541 135.927L10.5482 113.663L10.2334 113.837L18.3896 136.247Z" fill="url(#paint12_radial_196_3692)"/>
<path d="M11.6165 113.186C11.358 112.475 10.6016 112.185 9.9495 112.547C9.28192 112.903 8.95047 113.767 9.20902 114.478C9.46757 115.189 10.2239 115.479 10.876 115.117C11.5436 114.762 11.8751 113.897 11.6165 113.186Z" fill="url(#paint13_radial_196_3692)"/>
<path d="M31.6699 139.567C32.3182 139.816 32.6257 140.63 32.3365 141.384C32.0474 142.138 31.2899 142.544 30.6262 142.289C29.9624 142.035 29.6704 141.227 29.9595 140.472C30.2486 139.718 31.0061 139.312 31.6699 139.567Z" fill="url(#paint14_radial_196_3692)"/>
<path d="M4.4326 53.4689L29.0358 40.3698L77.1325 58.8102L100.363 46.4295L127.097 56.6794L134.878 78.0809L192.715 100.256L217.348 87.1257L217.23 86.7853L192.717 99.8344L135.158 77.7663L127.37 56.3832L100.373 46.0327L77.1501 58.395L29.0379 39.9487L4.31522 53.1285L4.4326 53.4689Z" fill="url(#paint15_radial_196_3692)"/>
<path d="M3.95877 51.9793C3.2912 52.3352 2.95975 53.1997 3.2183 53.9106C3.47685 54.6216 4.23317 54.9116 4.88531 54.5498C5.55288 54.1939 5.88433 53.3294 5.62578 52.6184C5.36723 51.9075 4.61091 51.6175 3.95877 51.9793Z" fill="url(#paint16_radial_196_3692)"/>
<path d="M10.1276 60.0406L30.1252 49.3953L73.2363 65.9242L97.4868 53.0064L123.511 62.9841L135.352 95.4993L135.667 95.3246L123.768 62.6819L97.4818 52.6036L73.2384 65.5031L30.1274 48.9742L10.0102 59.7003L10.1276 60.0406Z" fill="url(#paint17_radial_196_3692)"/>
<path d="M9.66971 58.557C9.00214 58.9129 8.67069 59.7774 8.92924 60.4883C9.18779 61.1993 9.94411 61.4893 10.5962 61.1275C11.2638 60.7716 11.5953 59.9071 11.3367 59.1961C11.0782 58.4852 10.3218 58.1952 9.66971 58.557Z" fill="url(#paint18_radial_196_3692)"/>
<path d="M136.7 94.7081C136.959 95.419 136.627 96.2835 135.96 96.6394C135.292 96.9953 134.536 96.7053 134.293 96.0002C134.034 95.2893 134.366 94.4248 135.033 94.0689C135.701 93.7131 136.457 94.003 136.7 94.7081Z" fill="url(#paint19_radial_196_3692)"/>
<path d="M38.5775 126.076L54.7229 132.266L99.0385 108.665L180.692 139.972L180.833 139.604L99.0561 108.25L54.7179 131.863L38.8349 125.774L32.4047 108.097L1.19438 96.131L-6.33577 75.4589L-6.66604 75.6276L0.929837 96.4516L32.1402 108.418L38.5775 126.076Z" fill="url(#paint20_radial_196_3692)"/>
<path d="M70.1758 89.5612L81.1503 93.7689L81.2843 93.4194L70.4487 89.265L64.8695 73.9401L27.5622 59.6364L27.4212 60.0042L64.605 74.2606L70.1758 89.5612Z" fill="url(#paint21_radial_196_3692)"/>
<path d="M28.0751 58.4828C27.4268 58.2343 26.6539 58.6341 26.3648 59.3883C26.0756 60.1424 26.3677 60.9506 27.0314 61.2051C27.6951 61.4595 28.4527 61.0538 28.7418 60.2996C29.0309 59.5455 28.7389 58.7373 28.0751 58.4828Z" fill="url(#paint22_radial_196_3692)"/>
<path d="M81.6809 92.2002C82.3291 92.4487 82.6367 93.2628 82.3475 94.017C82.0584 94.7711 81.3009 95.1769 80.6371 94.9224C79.9734 94.6679 79.6813 93.8597 79.9705 93.1056C80.2596 92.3515 81.0171 91.9457 81.6809 92.2002Z" fill="url(#paint23_radial_196_3692)"/>
<path d="M75.217 78.5825L97.2245 66.8511L119.328 75.3257L119.469 74.9578L97.242 66.4359L75.0842 78.2362L75.217 78.5825Z" fill="url(#paint24_radial_196_3692)"/>
<path d="M74.7432 77.0929C74.0756 77.4488 73.7442 78.3133 74.0027 79.0243C74.2613 79.7352 75.0176 80.0252 75.6697 79.6634C76.3373 79.3075 76.6688 78.443 76.4102 77.7321C76.1517 77.0211 75.3953 76.7311 74.7432 77.0929Z" fill="url(#paint25_radial_196_3692)"/>
<path d="M119.859 73.757C120.507 74.0055 120.814 74.8196 120.525 75.5738C120.236 76.3279 119.479 76.7337 118.815 76.4792C118.151 76.2247 117.859 75.4165 118.148 74.6624C118.437 73.9083 119.195 73.5025 119.859 73.757Z" fill="url(#paint26_radial_196_3692)"/>
<path d="M84.7738 84.2719L100.151 76.0743L119.692 83.5665L119.833 83.1986L100.168 75.6591L84.641 83.9256L84.7738 84.2719Z" fill="url(#paint27_radial_196_3692)"/>
<path d="M84.3001 82.7823C83.6325 83.1382 83.301 84.0027 83.5596 84.7137C83.8181 85.4246 84.5745 85.7146 85.2266 85.3528C85.8942 84.9969 86.2256 84.1324 85.9671 83.4215C85.7085 82.7105 84.9522 82.4206 84.3001 82.7823Z" fill="url(#paint28_radial_196_3692)"/>
<path d="M120.222 81.9978C120.871 82.2463 121.178 83.0604 120.889 83.8146C120.6 84.5687 119.842 84.9745 119.179 84.72C118.515 84.4655 118.223 83.6573 118.512 82.9032C118.801 82.1491 119.559 81.7433 120.222 81.9978Z" fill="url(#paint29_radial_196_3692)"/>
<path d="M71.7307 140.918L91.533 130.366L135.632 147.274L135.773 146.906L91.5506 129.951L71.6133 140.577L71.7307 140.918Z" fill="url(#paint30_radial_196_3692)"/>
<path d="M71.2569 139.428C70.5893 139.784 70.2578 140.648 70.5164 141.359C70.7749 142.07 71.5313 142.36 72.1834 141.999C72.851 141.643 73.1824 140.778 72.9239 140.067C72.6653 139.356 71.909 139.066 71.2569 139.428Z" fill="url(#paint31_radial_196_3692)"/>
<path d="M136.163 145.705C136.811 145.954 137.118 146.768 136.829 147.522C136.54 148.276 135.783 148.682 135.119 148.427C134.455 148.173 134.163 147.365 134.452 146.611C134.741 145.856 135.499 145.451 136.163 145.705Z" fill="url(#paint32_radial_196_3692)"/>
<path d="M119.319 233.552L149.217 245.015L149.358 244.648L119.599 233.238L106.858 198.31L80.7723 188.309L72.4749 165.528L44.3825 154.758L44.2415 155.125L72.2104 165.849L80.4994 188.605L106.601 198.612L119.319 233.552Z" fill="url(#paint33_radial_196_3692)"/>
<path d="M44.8798 153.598C44.2315 153.35 43.4586 153.749 43.1695 154.504C42.8803 155.258 43.1724 156.066 43.8361 156.32C44.4998 156.575 45.2574 156.169 45.5465 155.415C45.8356 154.661 45.5436 153.853 44.8798 153.598Z" fill="url(#paint34_radial_196_3692)"/>
<path d="M165.855 205.36L166.17 205.185L156.289 178.084L103.454 157.827L88.7065 165.675L56.6472 153.384L56.5061 153.752L88.7044 166.097L103.458 158.23L156.031 178.387L165.855 205.36Z" fill="url(#paint35_radial_196_3692)"/>
<path d="M57.145 152.224C56.4967 151.976 55.7237 152.376 55.4346 153.13C55.1455 153.884 55.4375 154.692 56.1013 154.947C56.765 155.201 57.5225 154.795 57.8116 154.041C58.1008 153.287 57.8087 152.479 57.145 152.224Z" fill="url(#paint36_radial_196_3692)"/>
<path d="M179.066 180.045L179.396 179.876L166.67 144.912L106.827 121.968L106.686 122.336L166.39 145.227L179.066 180.045Z" fill="url(#paint37_radial_196_3692)"/>
<path d="M107.34 120.815C106.692 120.566 105.919 120.966 105.63 121.72C105.341 122.474 105.633 123.282 106.297 123.537C106.96 123.791 107.718 123.386 108.007 122.631C108.296 121.877 108.004 121.069 107.34 120.815Z" fill="url(#paint38_radial_196_3692)"/>
<path d="M52.1341 117.961L61.7195 121.636L102.097 100.133L189.045 133.469L189.179 133.12L102.108 99.7366L61.7371 121.221L52.3987 117.641L46.2451 100.766L16.0689 89.1967L11.0991 75.5611L10.7843 75.7358L15.7889 89.5113L45.9806 101.087L52.1341 117.961Z" fill="url(#paint39_radial_196_3692)"/>
<path d="M12.1675 75.0845C11.909 74.3736 11.1526 74.0836 10.5005 74.4454C9.83293 74.8013 9.50148 75.6658 9.76003 76.3767C10.0186 77.0877 10.7749 77.3776 11.4271 77.0158C12.0946 76.66 12.4261 75.7955 12.1675 75.0845Z" fill="url(#paint40_radial_196_3692)"/>
<path d="M56.8095 108.445L67.0432 112.369L106.041 91.603L197.017 126.484L197.158 126.116L106.043 91.1819L67.0453 111.948L57.0741 108.125L52.7206 96.1603L20.7385 83.8983L16.202 71.4415L15.8872 71.6161L20.4586 84.2129L52.4407 96.4749L56.8095 108.445Z" fill="url(#paint41_radial_196_3692)"/>
<path d="M17.2767 70.9464C17.0181 70.2355 16.2618 69.9455 15.6097 70.3073C14.9421 70.6632 14.6106 71.5277 14.8692 72.2386C15.1277 72.9496 15.8841 73.2395 16.5362 72.8777C17.2038 72.5219 17.5352 71.6574 17.2767 70.9464Z" fill="url(#paint42_radial_196_3692)"/>
<path d="M62.1962 96.0589L62.5264 95.8902L56.6482 79.7755L23.9406 67.2353L23.8066 67.5848L56.3907 80.0776L62.1962 96.0589Z" fill="url(#paint43_radial_196_3692)"/>
<path d="M24.4606 66.0634C23.8123 65.8148 23.0394 66.2147 22.7503 66.9688C22.4611 67.723 22.7532 68.5312 23.4169 68.7856C24.0806 69.0401 24.8382 68.6343 25.1273 67.8802C25.4164 67.1261 25.1244 66.3179 24.4606 66.0634Z" fill="url(#paint44_radial_196_3692)"/>
<path d="M63.5435 95.2677C63.8021 95.9786 63.4706 96.8431 62.803 97.199C62.1355 97.5549 61.3791 97.2649 61.136 96.5599C60.8775 95.8489 61.2089 94.9844 61.8765 94.6285C62.5441 94.2727 63.3004 94.5626 63.5435 95.2677Z" fill="url(#paint45_radial_196_3692)"/>
<path d="M120.083 26.163L152.282 38.5079L187.716 19.646L187.584 19.2997L152.299 38.0927L120.225 25.7952L120.083 26.163Z" fill="url(#paint46_radial_196_3692)"/>
<path d="M120.737 24.6416C120.088 24.3931 119.316 24.7929 119.026 25.5471C118.737 26.3012 119.029 27.1094 119.693 27.3639C120.357 27.6184 121.114 27.2126 121.403 26.4584C121.693 25.7043 121.4 24.8961 120.737 24.6416Z" fill="url(#paint47_radial_196_3692)"/>
</g>
</g>
</g>
<defs>
<radialGradient id="paint0_radial_196_3692" cx="0" cy="0" r="1" gradientUnits="userSpaceOnUse" gradientTransform="translate(124.358 118.662) rotate(-159.023) scale(123.759 147.478)">
<stop offset="0.4" stop-color="#CFA935"/>
<stop offset="0.6" stop-color="#CFA935"/>
<stop offset="0.7" stop-color="#9C8028"/>
<stop offset="0.8" stop-color="#392F0E"/>
<stop offset="0.9" stop-color="#1A1506"/>
<stop offset="1"/>
</radialGradient>
<radialGradient id="paint1_radial_196_3692" cx="0" cy="0" r="1" gradientUnits="userSpaceOnUse" gradientTransform="translate(124.358 118.662) rotate(-159.023) scale(123.759 147.478)">
<stop offset="0.4" stop-color="#CFA935"/>
<stop offset="0.6" stop-color="#CFA935"/>
<stop offset="0.7" stop-color="#9C8028"/>
<stop offset="0.8" stop-color="#392F0E"/>
<stop offset="0.9" stop-color="#1A1506"/>
<stop offset="1"/>
</radialGradient>
<radialGradient id="paint2_radial_196_3692" cx="0" cy="0" r="1" gradientUnits="userSpaceOnUse" gradientTransform="translate(124.358 118.662) rotate(-159.023) scale(123.759 147.477)">
<stop offset="0.4" stop-color="#CFA935"/>
<stop offset="0.6" stop-color="#CFA935"/>
<stop offset="0.7" stop-color="#9C8028"/>
<stop offset="0.8" stop-color="#392F0E"/>
<stop offset="0.9" stop-color="#1A1506"/>
<stop offset="1"/>
</radialGradient>
<radialGradient id="paint3_radial_196_3692" cx="0" cy="0" r="1" gradientUnits="userSpaceOnUse" gradientTransform="translate(124.357 118.662) rotate(-159.023) scale(123.759 147.477)">
<stop offset="0.4" stop-color="#CFA935"/>
<stop offset="0.6" stop-color="#CFA935"/>
<stop offset="0.7" stop-color="#9C8028"/>
<stop offset="0.8" stop-color="#392F0E"/>
<stop offset="0.9" stop-color="#1A1506"/>
<stop offset="1"/>
</radialGradient>
<radialGradient id="paint4_radial_196_3692" cx="0" cy="0" r="1" gradientUnits="userSpaceOnUse" gradientTransform="translate(124.358 118.662) rotate(-159.023) scale(123.759 147.477)">
<stop offset="0.4" stop-color="#CFA935"/>
<stop offset="0.6" stop-color="#CFA935"/>
<stop offset="0.7" stop-color="#9C8028"/>
<stop offset="0.8" stop-color="#392F0E"/>
<stop offset="0.9" stop-color="#1A1506"/>
<stop offset="1"/>
</radialGradient>
<radialGradient id="paint5_radial_196_3692" cx="0" cy="0" r="1" gradientUnits="userSpaceOnUse" gradientTransform="translate(124.358 118.662) rotate(-159.023) scale(123.76 147.477)">
<stop offset="0.4" stop-color="#CFA935"/>
<stop offset="0.6" stop-color="#CFA935"/>
<stop offset="0.7" stop-color="#9C8028"/>
<stop offset="0.8" stop-color="#392F0E"/>
<stop offset="0.9" stop-color="#1A1506"/>
<stop offset="1"/>
</radialGradient>
<radialGradient id="paint6_radial_196_3692" cx="0" cy="0" r="1" gradientUnits="userSpaceOnUse" gradientTransform="translate(124.358 118.662) rotate(-159.023) scale(123.759 147.477)">
<stop offset="0.4" stop-color="#CFA935"/>
<stop offset="0.6" stop-color="#CFA935"/>
<stop offset="0.7" stop-color="#9C8028"/>
<stop offset="0.8" stop-color="#392F0E"/>
<stop offset="0.9" stop-color="#1A1506"/>
<stop offset="1"/>
</radialGradient>
<radialGradient id="paint7_radial_196_3692" cx="0" cy="0" r="1" gradientUnits="userSpaceOnUse" gradientTransform="translate(124.357 118.662) rotate(-159.023) scale(123.77 147.491)">
<stop offset="0.4" stop-color="#CFA935"/>
<stop offset="0.6" stop-color="#CFA935"/>
<stop offset="0.7" stop-color="#9C8028"/>
<stop offset="0.8" stop-color="#392F0E"/>
<stop offset="0.9" stop-color="#1A1506"/>
<stop offset="1"/>
</radialGradient>
<radialGradient id="paint8_radial_196_3692" cx="0" cy="0" r="1" gradientUnits="userSpaceOnUse" gradientTransform="translate(124.358 118.662) rotate(-159.023) scale(123.759 147.477)">
<stop offset="0.4" stop-color="#CFA935"/>
<stop offset="0.6" stop-color="#CFA935"/>
<stop offset="0.7" stop-color="#9C8028"/>
<stop offset="0.8" stop-color="#392F0E"/>
<stop offset="0.9" stop-color="#1A1506"/>
<stop offset="1"/>
</radialGradient>
<radialGradient id="paint9_radial_196_3692" cx="0" cy="0" r="1" gradientUnits="userSpaceOnUse" gradientTransform="translate(124.358 118.662) rotate(-159.023) scale(123.759 147.477)">
<stop offset="0.4" stop-color="#CFA935"/>
<stop offset="0.6" stop-color="#CFA935"/>
<stop offset="0.7" stop-color="#9C8028"/>
<stop offset="0.8" stop-color="#392F0E"/>
<stop offset="0.9" stop-color="#1A1506"/>
<stop offset="1"/>
</radialGradient>
<radialGradient id="paint10_radial_196_3692" cx="0" cy="0" r="1" gradientUnits="userSpaceOnUse" gradientTransform="translate(124.358 118.662) rotate(-159.023) scale(123.76 147.477)">
<stop offset="0.4" stop-color="#CFA935"/>
<stop offset="0.6" stop-color="#CFA935"/>
<stop offset="0.7" stop-color="#9C8028"/>
<stop offset="0.8" stop-color="#392F0E"/>
<stop offset="0.9" stop-color="#1A1506"/>
<stop offset="1"/>
</radialGradient>
<radialGradient id="paint11_radial_196_3692" cx="0" cy="0" r="1" gradientUnits="userSpaceOnUse" gradientTransform="translate(124.358 118.662) rotate(-159.023) scale(123.759 147.477)">
<stop offset="0.4" stop-color="#CFA935"/>
<stop offset="0.6" stop-color="#CFA935"/>
<stop offset="0.7" stop-color="#9C8028"/>
<stop offset="0.8" stop-color="#392F0E"/>
<stop offset="0.9" stop-color="#1A1506"/>
<stop offset="1"/>
</radialGradient>
<radialGradient id="paint12_radial_196_3692" cx="0" cy="0" r="1" gradientUnits="userSpaceOnUse" gradientTransform="translate(124.358 118.662) rotate(-159.023) scale(123.759 147.477)">
<stop offset="0.4" stop-color="#CFA935"/>
<stop offset="0.6" stop-color="#CFA935"/>
<stop offset="0.7" stop-color="#9C8028"/>
<stop offset="0.8" stop-color="#392F0E"/>
<stop offset="0.9" stop-color="#1A1506"/>
<stop offset="1"/>
</radialGradient>
<radialGradient id="paint13_radial_196_3692" cx="0" cy="0" r="1" gradientUnits="userSpaceOnUse" gradientTransform="translate(124.358 118.662) rotate(-159.023) scale(123.759 147.477)">
<stop offset="0.4" stop-color="#CFA935"/>
<stop offset="0.6" stop-color="#CFA935"/>
<stop offset="0.7" stop-color="#9C8028"/>
<stop offset="0.8" stop-color="#392F0E"/>
<stop offset="0.9" stop-color="#1A1506"/>
<stop offset="1"/>
</radialGradient>
<radialGradient id="paint14_radial_196_3692" cx="0" cy="0" r="1" gradientUnits="userSpaceOnUse" gradientTransform="translate(124.358 118.662) rotate(-159.023) scale(123.759 147.477)">
<stop offset="0.4" stop-color="#CFA935"/>
<stop offset="0.6" stop-color="#CFA935"/>
<stop offset="0.7" stop-color="#9C8028"/>
<stop offset="0.8" stop-color="#392F0E"/>
<stop offset="0.9" stop-color="#1A1506"/>
<stop offset="1"/>
</radialGradient>
<radialGradient id="paint15_radial_196_3692" cx="0" cy="0" r="1" gradientUnits="userSpaceOnUse" gradientTransform="translate(124.358 118.662) rotate(-159.023) scale(123.759 147.478)">
<stop offset="0.4" stop-color="#CFA935"/>
<stop offset="0.6" stop-color="#CFA935"/>
<stop offset="0.7" stop-color="#9C8028"/>
<stop offset="0.8" stop-color="#392F0E"/>
<stop offset="0.9" stop-color="#1A1506"/>
<stop offset="1"/>
</radialGradient>
<radialGradient id="paint16_radial_196_3692" cx="0" cy="0" r="1" gradientUnits="userSpaceOnUse" gradientTransform="translate(124.357 118.662) rotate(-159.023) scale(123.759 147.477)">
<stop offset="0.4" stop-color="#CFA935"/>
<stop offset="0.6" stop-color="#CFA935"/>
<stop offset="0.7" stop-color="#9C8028"/>
<stop offset="0.8" stop-color="#392F0E"/>
<stop offset="0.9" stop-color="#1A1506"/>
<stop offset="1"/>
</radialGradient>
<radialGradient id="paint17_radial_196_3692" cx="0" cy="0" r="1" gradientUnits="userSpaceOnUse" gradientTransform="translate(124.358 118.662) rotate(-159.023) scale(123.759 147.477)">
<stop offset="0.4" stop-color="#CFA935"/>
<stop offset="0.6" stop-color="#CFA935"/>
<stop offset="0.7" stop-color="#9C8028"/>
<stop offset="0.8" stop-color="#392F0E"/>
<stop offset="0.9" stop-color="#1A1506"/>
<stop offset="1"/>
</radialGradient>
<radialGradient id="paint18_radial_196_3692" cx="0" cy="0" r="1" gradientUnits="userSpaceOnUse" gradientTransform="translate(124.358 118.662) rotate(-159.023) scale(123.759 147.477)">
<stop offset="0.4" stop-color="#CFA935"/>
<stop offset="0.6" stop-color="#CFA935"/>
<stop offset="0.7" stop-color="#9C8028"/>
<stop offset="0.8" stop-color="#392F0E"/>
<stop offset="0.9" stop-color="#1A1506"/>
<stop offset="1"/>
</radialGradient>
<radialGradient id="paint19_radial_196_3692" cx="0" cy="0" r="1" gradientUnits="userSpaceOnUse" gradientTransform="translate(124.358 118.662) rotate(-159.023) scale(123.759 147.477)">
<stop offset="0.4" stop-color="#CFA935"/>
<stop offset="0.6" stop-color="#CFA935"/>
<stop offset="0.7" stop-color="#9C8028"/>
<stop offset="0.8" stop-color="#392F0E"/>
<stop offset="0.9" stop-color="#1A1506"/>
<stop offset="1"/>
</radialGradient>
<radialGradient id="paint20_radial_196_3692" cx="0" cy="0" r="1" gradientUnits="userSpaceOnUse" gradientTransform="translate(124.358 118.662) rotate(-159.023) scale(123.759 147.477)">
<stop offset="0.4" stop-color="#CFA935"/>
<stop offset="0.6" stop-color="#CFA935"/>
<stop offset="0.7" stop-color="#9C8028"/>
<stop offset="0.8" stop-color="#392F0E"/>
<stop offset="0.9" stop-color="#1A1506"/>
<stop offset="1"/>
</radialGradient>
<radialGradient id="paint21_radial_196_3692" cx="0" cy="0" r="1" gradientUnits="userSpaceOnUse" gradientTransform="translate(124.358 118.662) rotate(-159.023) scale(123.759 147.477)">
<stop offset="0.4" stop-color="#CFA935"/>
<stop offset="0.6" stop-color="#CFA935"/>
<stop offset="0.7" stop-color="#9C8028"/>
<stop offset="0.8" stop-color="#392F0E"/>
<stop offset="0.9" stop-color="#1A1506"/>
<stop offset="1"/>
</radialGradient>
<radialGradient id="paint22_radial_196_3692" cx="0" cy="0" r="1" gradientUnits="userSpaceOnUse" gradientTransform="translate(124.358 118.662) rotate(-159.023) scale(123.759 147.477)">
<stop offset="0.4" stop-color="#CFA935"/>
<stop offset="0.6" stop-color="#CFA935"/>
<stop offset="0.7" stop-color="#9C8028"/>
<stop offset="0.8" stop-color="#392F0E"/>
<stop offset="0.9" stop-color="#1A1506"/>
<stop offset="1"/>
</radialGradient>
<radialGradient id="paint23_radial_196_3692" cx="0" cy="0" r="1" gradientUnits="userSpaceOnUse" gradientTransform="translate(124.358 118.662) rotate(-159.023) scale(123.759 147.477)">
<stop offset="0.4" stop-color="#CFA935"/>
<stop offset="0.6" stop-color="#CFA935"/>
<stop offset="0.7" stop-color="#9C8028"/>
<stop offset="0.8" stop-color="#392F0E"/>
<stop offset="0.9" stop-color="#1A1506"/>
<stop offset="1"/>
</radialGradient>
<radialGradient id="paint24_radial_196_3692" cx="0" cy="0" r="1" gradientUnits="userSpaceOnUse" gradientTransform="translate(124.358 118.662) rotate(-159.023) scale(123.759 147.477)">
<stop offset="0.4" stop-color="#CFA935"/>
<stop offset="0.6" stop-color="#CFA935"/>
<stop offset="0.7" stop-color="#9C8028"/>
<stop offset="0.8" stop-color="#392F0E"/>
<stop offset="0.9" stop-color="#1A1506"/>
<stop offset="1"/>
</radialGradient>
<radialGradient id="paint25_radial_196_3692" cx="0" cy="0" r="1" gradientUnits="userSpaceOnUse" gradientTransform="translate(124.358 118.662) rotate(-159.023) scale(123.76 147.477)">
<stop offset="0.4" stop-color="#CFA935"/>
<stop offset="0.6" stop-color="#CFA935"/>
<stop offset="0.7" stop-color="#9C8028"/>
<stop offset="0.8" stop-color="#392F0E"/>
<stop offset="0.9" stop-color="#1A1506"/>
<stop offset="1"/>
</radialGradient>
<radialGradient id="paint26_radial_196_3692" cx="0" cy="0" r="1" gradientUnits="userSpaceOnUse" gradientTransform="translate(124.358 118.662) rotate(-159.023) scale(123.759 147.477)">
<stop offset="0.4" stop-color="#CFA935"/>
<stop offset="0.6" stop-color="#CFA935"/>
<stop offset="0.7" stop-color="#9C8028"/>
<stop offset="0.8" stop-color="#392F0E"/>
<stop offset="0.9" stop-color="#1A1506"/>
<stop offset="1"/>
</radialGradient>
<radialGradient id="paint27_radial_196_3692" cx="0" cy="0" r="1" gradientUnits="userSpaceOnUse" gradientTransform="translate(124.358 118.662) rotate(-159.023) scale(123.759 147.477)">
<stop offset="0.4" stop-color="#CFA935"/>
<stop offset="0.6" stop-color="#CFA935"/>
<stop offset="0.7" stop-color="#9C8028"/>
<stop offset="0.8" stop-color="#392F0E"/>
<stop offset="0.9" stop-color="#1A1506"/>
<stop offset="1"/>
</radialGradient>
<radialGradient id="paint28_radial_196_3692" cx="0" cy="0" r="1" gradientUnits="userSpaceOnUse" gradientTransform="translate(124.358 118.662) rotate(-159.023) scale(123.759 147.477)">
<stop offset="0.4" stop-color="#CFA935"/>
<stop offset="0.6" stop-color="#CFA935"/>
<stop offset="0.7" stop-color="#9C8028"/>
<stop offset="0.8" stop-color="#392F0E"/>
<stop offset="0.9" stop-color="#1A1506"/>
<stop offset="1"/>
</radialGradient>
<radialGradient id="paint29_radial_196_3692" cx="0" cy="0" r="1" gradientUnits="userSpaceOnUse" gradientTransform="translate(124.358 118.662) rotate(-159.023) scale(123.759 147.477)">
<stop offset="0.4" stop-color="#CFA935"/>
<stop offset="0.6" stop-color="#CFA935"/>
<stop offset="0.7" stop-color="#9C8028"/>
<stop offset="0.8" stop-color="#392F0E"/>
<stop offset="0.9" stop-color="#1A1506"/>
<stop offset="1"/>
</radialGradient>
<radialGradient id="paint30_radial_196_3692" cx="0" cy="0" r="1" gradientUnits="userSpaceOnUse" gradientTransform="translate(124.358 118.662) rotate(-159.023) scale(123.759 147.477)">
<stop offset="0.4" stop-color="#CFA935"/>
<stop offset="0.6" stop-color="#CFA935"/>
<stop offset="0.7" stop-color="#9C8028"/>
<stop offset="0.8" stop-color="#392F0E"/>
<stop offset="0.9" stop-color="#1A1506"/>
<stop offset="1"/>
</radialGradient>
<radialGradient id="paint31_radial_196_3692" cx="0" cy="0" r="1" gradientUnits="userSpaceOnUse" gradientTransform="translate(124.358 118.662) rotate(-159.023) scale(123.759 147.477)">
<stop offset="0.4" stop-color="#CFA935"/>
<stop offset="0.6" stop-color="#CFA935"/>
<stop offset="0.7" stop-color="#9C8028"/>
<stop offset="0.8" stop-color="#392F0E"/>
<stop offset="0.9" stop-color="#1A1506"/>
<stop offset="1"/>
</radialGradient>
<radialGradient id="paint32_radial_196_3692" cx="0" cy="0" r="1" gradientUnits="userSpaceOnUse" gradientTransform="translate(124.358 118.662) rotate(-159.023) scale(123.759 147.477)">
<stop offset="0.4" stop-color="#CFA935"/>
<stop offset="0.6" stop-color="#CFA935"/>
<stop offset="0.7" stop-color="#9C8028"/>
<stop offset="0.8" stop-color="#392F0E"/>
<stop offset="0.9" stop-color="#1A1506"/>
<stop offset="1"/>
</radialGradient>
<radialGradient id="paint33_radial_196_3692" cx="0" cy="0" r="1" gradientUnits="userSpaceOnUse" gradientTransform="translate(124.358 118.662) rotate(-159.023) scale(123.759 147.477)">
<stop offset="0.4" stop-color="#CFA935"/>
<stop offset="0.6" stop-color="#CFA935"/>
<stop offset="0.7" stop-color="#9C8028"/>
<stop offset="0.8" stop-color="#392F0E"/>
<stop offset="0.9" stop-color="#1A1506"/>
<stop offset="1"/>
</radialGradient>
<radialGradient id="paint34_radial_196_3692" cx="0" cy="0" r="1" gradientUnits="userSpaceOnUse" gradientTransform="translate(124.358 118.662) rotate(-159.023) scale(123.759 147.477)">
<stop offset="0.4" stop-color="#CFA935"/>
<stop offset="0.6" stop-color="#CFA935"/>
<stop offset="0.7" stop-color="#9C8028"/>
<stop offset="0.8" stop-color="#392F0E"/>
<stop offset="0.9" stop-color="#1A1506"/>
<stop offset="1"/>
</radialGradient>
<radialGradient id="paint35_radial_196_3692" cx="0" cy="0" r="1" gradientUnits="userSpaceOnUse" gradientTransform="translate(124.358 118.662) rotate(-159.023) scale(123.759 147.477)">
<stop offset="0.4" stop-color="#CFA935"/>
<stop offset="0.6" stop-color="#CFA935"/>
<stop offset="0.7" stop-color="#9C8028"/>
<stop offset="0.8" stop-color="#392F0E"/>
<stop offset="0.9" stop-color="#1A1506"/>
<stop offset="1"/>
</radialGradient>
<radialGradient id="paint36_radial_196_3692" cx="0" cy="0" r="1" gradientUnits="userSpaceOnUse" gradientTransform="translate(124.358 118.662) rotate(-159.023) scale(123.759 147.477)">
<stop offset="0.4" stop-color="#CFA935"/>
<stop offset="0.6" stop-color="#CFA935"/>
<stop offset="0.7" stop-color="#9C8028"/>
<stop offset="0.8" stop-color="#392F0E"/>
<stop offset="0.9" stop-color="#1A1506"/>
<stop offset="1"/>
</radialGradient>
<radialGradient id="paint37_radial_196_3692" cx="0" cy="0" r="1" gradientUnits="userSpaceOnUse" gradientTransform="translate(124.358 118.662) rotate(-159.023) scale(123.759 147.477)">
<stop offset="0.4" stop-color="#CFA935"/>
<stop offset="0.6" stop-color="#CFA935"/>
<stop offset="0.7" stop-color="#9C8028"/>
<stop offset="0.8" stop-color="#392F0E"/>
<stop offset="0.9" stop-color="#1A1506"/>
<stop offset="1"/>
</radialGradient>
<radialGradient id="paint38_radial_196_3692" cx="0" cy="0" r="1" gradientUnits="userSpaceOnUse" gradientTransform="translate(124.358 118.662) rotate(-159.023) scale(123.759 147.477)">
<stop offset="0.4" stop-color="#CFA935"/>
<stop offset="0.6" stop-color="#CFA935"/>
<stop offset="0.7" stop-color="#9C8028"/>
<stop offset="0.8" stop-color="#392F0E"/>
<stop offset="0.9" stop-color="#1A1506"/>
<stop offset="1"/>
</radialGradient>
<radialGradient id="paint39_radial_196_3692" cx="0" cy="0" r="1" gradientUnits="userSpaceOnUse" gradientTransform="translate(124.358 118.662) rotate(-159.023) scale(123.759 147.477)">
<stop offset="0.4" stop-color="#CFA935"/>
<stop offset="0.6" stop-color="#CFA935"/>
<stop offset="0.7" stop-color="#9C8028"/>
<stop offset="0.8" stop-color="#392F0E"/>
<stop offset="0.9" stop-color="#1A1506"/>
<stop offset="1"/>
</radialGradient>
<radialGradient id="paint40_radial_196_3692" cx="0" cy="0" r="1" gradientUnits="userSpaceOnUse" gradientTransform="translate(124.359 118.662) rotate(-159.023) scale(123.76 147.477)">
<stop offset="0.4" stop-color="#CFA935"/>
<stop offset="0.6" stop-color="#CFA935"/>
<stop offset="0.7" stop-color="#9C8028"/>
<stop offset="0.8" stop-color="#392F0E"/>
<stop offset="0.9" stop-color="#1A1506"/>
<stop offset="1"/>
</radialGradient>
<radialGradient id="paint41_radial_196_3692" cx="0" cy="0" r="1" gradientUnits="userSpaceOnUse" gradientTransform="translate(124.358 118.662) rotate(-159.023) scale(123.759 147.477)">
<stop offset="0.4" stop-color="#CFA935"/>
<stop offset="0.6" stop-color="#CFA935"/>
<stop offset="0.7" stop-color="#9C8028"/>
<stop offset="0.8" stop-color="#392F0E"/>
<stop offset="0.9" stop-color="#1A1506"/>
<stop offset="1"/>
</radialGradient>
<radialGradient id="paint42_radial_196_3692" cx="0" cy="0" r="1" gradientUnits="userSpaceOnUse" gradientTransform="translate(124.357 118.662) rotate(-159.023) scale(123.759 147.477)">
<stop offset="0.4" stop-color="#CFA935"/>
<stop offset="0.6" stop-color="#CFA935"/>
<stop offset="0.7" stop-color="#9C8028"/>
<stop offset="0.8" stop-color="#392F0E"/>
<stop offset="0.9" stop-color="#1A1506"/>
<stop offset="1"/>
</radialGradient>
<radialGradient id="paint43_radial_196_3692" cx="0" cy="0" r="1" gradientUnits="userSpaceOnUse" gradientTransform="translate(124.358 118.662) rotate(-159.023) scale(123.759 147.477)">
<stop offset="0.4" stop-color="#CFA935"/>
<stop offset="0.6" stop-color="#CFA935"/>
<stop offset="0.7" stop-color="#9C8028"/>
<stop offset="0.8" stop-color="#392F0E"/>
<stop offset="0.9" stop-color="#1A1506"/>
<stop offset="1"/>
</radialGradient>
<radialGradient id="paint44_radial_196_3692" cx="0" cy="0" r="1" gradientUnits="userSpaceOnUse" gradientTransform="translate(124.358 118.662) rotate(-159.023) scale(123.759 147.477)">
<stop offset="0.4" stop-color="#CFA935"/>
<stop offset="0.6" stop-color="#CFA935"/>
<stop offset="0.7" stop-color="#9C8028"/>
<stop offset="0.8" stop-color="#392F0E"/>
<stop offset="0.9" stop-color="#1A1506"/>
<stop offset="1"/>
</radialGradient>
<radialGradient id="paint45_radial_196_3692" cx="0" cy="0" r="1" gradientUnits="userSpaceOnUse" gradientTransform="translate(124.358 118.662) rotate(-159.023) scale(123.759 147.477)">
<stop offset="0.4" stop-color="#CFA935"/>
<stop offset="0.6" stop-color="#CFA935"/>
<stop offset="0.7" stop-color="#9C8028"/>
<stop offset="0.8" stop-color="#392F0E"/>
<stop offset="0.9" stop-color="#1A1506"/>
<stop offset="1"/>
</radialGradient>
<radialGradient id="paint46_radial_196_3692" cx="0" cy="0" r="1" gradientUnits="userSpaceOnUse" gradientTransform="translate(124.358 118.662) rotate(-159.023) scale(123.759 147.477)">
<stop offset="0.4" stop-color="#CFA935"/>
<stop offset="0.6" stop-color="#CFA935"/>
<stop offset="0.7" stop-color="#9C8028"/>
<stop offset="0.8" stop-color="#392F0E"/>
<stop offset="0.9" stop-color="#1A1506"/>
<stop offset="1"/>
</radialGradient>
<radialGradient id="paint47_radial_196_3692" cx="0" cy="0" r="1" gradientUnits="userSpaceOnUse" gradientTransform="translate(124.358 118.662) rotate(-159.023) scale(123.759 147.478)">
<stop offset="0.4" stop-color="#CFA935"/>
<stop offset="0.6" stop-color="#CFA935"/>
<stop offset="0.7" stop-color="#9C8028"/>
<stop offset="0.8" stop-color="#392F0E"/>
<stop offset="0.9" stop-color="#1A1506"/>
<stop offset="1"/>
</radialGradient>
<clipPath id="clip0_196_3692">
<rect width="143.753" height="166.27" fill="white" transform="matrix(-0.933724 -0.357993 -0.357993 0.933724 193.749 51.5651)"/>
</clipPath>
</defs>
</svg>
