<svg width="20" height="20" viewBox="0 0 20 20" fill="none" xmlns="http://www.w3.org/2000/svg">
<path d="M10 18.125C5.5125 18.125 1.875 14.4875 1.875 10C1.875 5.5125 5.5125 1.875 10 1.875C14.4875 1.875 18.125 5.5125 18.125 10C18.125 14.4875 14.4875 18.125 10 18.125ZM10 3.75C6.54875 3.75 3.75 6.54875 3.75 10C3.75 13.4512 6.54875 16.25 10 16.25C13.4519 16.25 16.25 13.4512 16.25 10C16.25 6.54875 13.4519 3.75 10 3.75ZM12.8356 12.2094L12.2019 12.8431C12.0856 12.9594 11.8969 12.9594 11.78 12.8431L9.98625 11.0494L8.1925 12.8431C8.07562 12.9594 7.8875 12.9594 7.77062 12.8431L7.13687 12.2094C7.02062 12.0931 7.02062 11.9044 7.13687 11.7875L8.93125 9.99438L7.13687 8.20063C7.02062 8.08375 7.02062 7.895 7.13687 7.77812L7.77062 7.145C7.8875 7.02813 8.07562 7.02813 8.1925 7.145L9.98625 8.93875L11.78 7.145C11.8969 7.02813 12.0856 7.02813 12.2019 7.145L12.8356 7.77812C12.9519 7.895 12.9519 8.08375 12.8356 8.20063L11.0413 9.99438L12.8356 11.7875C12.9519 11.9044 12.9519 12.0937 12.8356 12.2094Z" fill="#CFA935"/>
</svg>
