<svg width="145" height="235" viewBox="0 0 145 235" fill="none" xmlns="http://www.w3.org/2000/svg">
<g opacity="0.1" clip-path="url(#clip0_7839_4258)">
<path fill-rule="evenodd" clip-rule="evenodd" d="M117.581 191.198C76.924 191.198 43.6934 158.185 43.6934 117.473C43.6934 77.0324 76.7614 44.0186 117.419 44.0186C157.859 44.0186 190.873 77.0324 190.873 117.473C191.09 158.185 158.076 191.198 117.581 191.198ZM117.581 50.6864C80.5561 50.6864 50.578 80.6645 50.578 117.473C50.578 154.553 80.5561 184.476 117.581 184.476C154.444 184.476 184.422 154.553 184.422 117.473C184.422 80.6645 154.444 50.6864 117.581 50.6864Z" fill="white"/>
<path fill-rule="evenodd" clip-rule="evenodd" d="M60.8776 120.942C58.9803 120.942 57.4624 119.424 57.4624 117.473C57.4624 84.4589 84.3505 57.7334 117.581 57.7334C119.479 57.7334 121.051 59.2513 121.051 61.2028C121.051 63.1002 119.479 64.6181 117.581 64.6181C88.1994 64.6181 64.3471 88.4704 64.3471 117.69C64.1302 119.424 62.8292 120.942 60.8776 120.942Z" fill="white"/>
<path fill-rule="evenodd" clip-rule="evenodd" d="M117.581 50.6867C115.684 50.6867 114.166 49.1688 114.166 47.4341V23.7443C114.166 21.847 115.684 20.3291 117.581 20.3291C119.479 20.3291 121.051 21.847 121.051 23.7443V47.2714C120.834 49.1688 119.316 50.6867 117.581 50.6867Z" fill="white"/>
<path fill-rule="evenodd" clip-rule="evenodd" d="M117.581 27.2134C110.155 27.2134 104.029 21.0876 104.029 13.6609C104.029 6.17991 110.155 0.108398 117.581 0.108398C125.062 0.108398 131.134 6.17991 131.134 13.6609C130.971 21.0876 125.062 27.2134 117.581 27.2134ZM117.581 6.77622C113.787 6.77622 110.697 9.81197 110.697 13.6609C110.697 17.4556 113.787 20.5455 117.581 20.5455C121.43 20.5455 124.466 17.4556 124.466 13.6609C124.249 9.81197 121.213 6.77622 117.581 6.77622Z" fill="white"/>
<path fill-rule="evenodd" clip-rule="evenodd" d="M117.581 214.671C115.684 214.671 114.166 213.154 114.166 211.256V187.946C114.166 186.049 115.684 184.477 117.581 184.477C119.479 184.477 121.051 186.049 121.051 187.946V211.256C120.834 213.154 119.316 214.671 117.581 214.671Z" fill="white"/>
<path fill-rule="evenodd" clip-rule="evenodd" d="M117.581 234.891C110.155 234.891 104.029 228.765 104.029 221.339C104.029 213.912 110.155 207.786 117.581 207.786C125.062 207.786 131.134 213.912 131.134 221.339C130.971 228.765 125.062 234.891 117.581 234.891ZM117.581 214.671C113.787 214.671 110.697 217.707 110.697 221.555C110.697 225.35 113.787 228.386 117.581 228.386C121.43 228.386 124.466 225.35 124.466 221.555C124.249 217.707 121.213 214.671 117.581 214.671Z" fill="white"/>
<path fill-rule="evenodd" clip-rule="evenodd" d="M51.174 187.187C50.4151 187.187 49.4393 186.807 48.843 186.211C47.5419 184.91 47.5419 182.796 48.843 181.441L65.4854 164.852C66.8407 163.497 68.9006 163.497 70.2559 164.852C71.6111 166.153 71.6111 168.268 70.2559 169.623L53.6676 186.211C52.8545 186.97 51.9329 187.187 51.174 187.187Z" fill="white"/>
<path fill-rule="evenodd" clip-rule="evenodd" d="M44.0725 204.534C40.4946 204.534 37.0252 203.233 34.5316 200.522C31.8753 197.866 30.52 194.451 30.52 190.819C30.52 187.186 32.0921 183.934 34.5316 181.44C37.0252 178.947 40.6573 177.429 44.0725 177.429C47.7046 177.429 50.9572 178.947 53.4508 181.44C55.9445 183.717 57.2455 187.186 57.4624 190.819C57.4624 194.451 56.1071 197.866 53.4508 200.522C51.174 203.016 47.7046 204.534 44.0725 204.534ZM39.1394 195.752C40.4946 197.107 42.1752 197.649 44.0725 197.866C45.8072 197.866 47.5419 197.107 48.6803 195.969C50.0356 194.613 50.7945 192.879 50.7945 190.981C50.7945 189.301 50.0356 187.566 48.843 186.428C47.5419 185.072 46.0241 184.313 44.0725 184.313C42.1752 184.313 40.4946 185.072 39.1394 186.428C37.7841 187.729 37.2421 189.301 37.0252 190.981C37.2421 192.716 37.7841 194.613 39.1394 195.752Z" fill="white"/>
<path fill-rule="evenodd" clip-rule="evenodd" d="M47.1625 120.942H23.8522C21.9549 120.942 20.437 119.424 20.437 117.473C20.437 115.575 21.9549 114.058 23.8522 114.058H47.1625C49.0599 114.058 50.5777 115.575 50.5777 117.473C50.5777 119.424 49.0599 120.942 47.1625 120.942Z" fill="white"/>
<path fill-rule="evenodd" clip-rule="evenodd" d="M13.5525 131.025C6.12572 131.025 0 124.953 0 117.472C0 110.046 6.12572 103.92 13.5525 103.92C20.9792 103.92 27.105 110.046 27.105 117.472C27.105 124.953 20.9792 131.025 13.5525 131.025ZM13.5525 110.642C9.75779 110.642 6.66782 113.678 6.66782 117.472C6.66782 121.321 9.75779 124.357 13.5525 124.357C17.3472 124.357 20.4371 121.321 20.4371 117.472C20.4371 113.895 17.3472 110.642 13.5525 110.642Z" fill="white"/>
<path fill-rule="evenodd" clip-rule="evenodd" d="M67.7622 71.2859C67.0033 71.2859 66.0275 70.9064 65.4854 70.3643L48.843 53.7218C47.5419 52.4208 47.5419 50.3066 48.843 48.9514C50.1982 47.6503 52.3124 47.6503 53.6676 48.9514L70.2559 65.5938C71.6111 66.8948 71.6111 69.009 70.2559 70.3643C69.4969 70.9064 68.5212 71.2859 67.7622 71.2859Z" fill="white"/>
<path fill-rule="evenodd" clip-rule="evenodd" d="M44.0727 57.5711C40.4949 57.5711 37.0254 56.2159 34.5318 53.5596C29.2192 48.1928 29.2192 39.6276 34.5318 34.4777C39.8986 29.3277 48.3011 29.3277 53.4511 34.4777C58.8178 39.7903 58.8178 48.4096 53.4511 53.5596C51.1742 56.2159 47.7048 57.5711 44.0727 57.5711ZM39.1396 39.2482C36.4833 41.9044 36.4833 46.2955 39.1396 48.9517C40.4949 50.307 42.1754 51.0659 44.0727 51.0659C45.8075 51.0659 47.5422 50.307 48.6806 49.1686C51.3369 46.4581 51.3369 42.0671 48.6806 39.4108C46.1869 36.7545 41.7959 36.7545 39.1396 39.2482Z" fill="white"/>
<path fill-rule="evenodd" clip-rule="evenodd" d="M124.249 152.221C122.948 152.221 121.592 151.299 121.05 149.944L99.8543 87.3317C99.258 85.597 100.234 83.6996 101.914 83.1575C103.649 82.5612 105.546 83.537 106.143 85.2175L127.339 147.83C127.881 149.565 126.959 151.462 125.225 152.058C125.062 152.221 124.682 152.221 124.249 152.221Z" fill="white"/>
<path fill-rule="evenodd" clip-rule="evenodd" d="M81.6942 152.221C81.3147 152.221 80.9353 152.221 80.5558 152.058C78.8211 151.462 77.8995 149.565 78.4416 147.83L99.8545 85.2175C100.397 83.537 102.348 82.5612 104.029 83.1575C105.763 83.6996 106.739 85.597 106.143 87.3317L84.9468 149.944C84.3505 151.299 83.2121 152.221 81.6942 152.221Z" fill="white"/>
<path fill-rule="evenodd" clip-rule="evenodd" d="M115.467 126.254H90.6931C88.7415 126.254 87.2236 124.736 87.2236 122.839C87.2236 120.942 88.7415 119.424 90.6931 119.424H115.467C117.419 119.424 118.936 120.942 118.936 122.839C118.936 124.736 117.202 126.254 115.467 126.254Z" fill="white"/>
<path fill-rule="evenodd" clip-rule="evenodd" d="M144.687 152.222C142.789 152.222 141.271 150.704 141.271 148.806V86.5734C141.271 84.6761 142.789 83.1582 144.687 83.1582C146.584 83.1582 148.156 84.6761 148.156 86.5734V148.969C148.156 150.704 146.584 152.222 144.687 152.222Z" fill="white"/>
<path fill-rule="evenodd" clip-rule="evenodd" d="M153.089 89.8261H136.121C134.224 89.8261 132.652 88.3082 132.652 86.3566C132.652 84.4593 134.224 82.9414 136.121 82.9414H153.089C154.986 82.9414 156.558 84.4593 156.558 86.3566C156.558 88.3082 154.986 89.8261 153.089 89.8261Z" fill="white"/>
<path fill-rule="evenodd" clip-rule="evenodd" d="M153.089 152.222H136.121C134.224 152.222 132.652 150.704 132.652 148.807C132.652 146.909 134.224 145.392 136.121 145.392H153.089C154.986 145.392 156.558 146.909 156.558 148.807C156.558 150.704 154.986 152.222 153.089 152.222Z" fill="white"/>
</g>
<defs>
<clipPath id="clip0_7839_4258">
<rect width="235" height="235" fill="white"/>
</clipPath>
</defs>
</svg>
