<svg width="48" height="32" viewBox="0 0 48 32" fill="none" xmlns="http://www.w3.org/2000/svg">
<path d="M20.8906 25.1375L27.3914 30.7201C27.9758 31.2209 28.7271 31.4192 29.3741 31.2523C29.6871 31.1583 30.3028 30.9809 30.2297 29.687L23.6454 24.1879C23.1967 23.8227 23.1341 23.1653 23.5097 22.7271C23.8749 22.2784 24.5323 22.2158 24.981 22.5914L33.2454 29.4888C33.861 30.0001 34.7584 29.927 35.2906 29.3322C35.8228 28.7375 35.7706 27.8088 35.1758 27.2662L27.0679 19.9409C26.6401 19.5548 26.6088 18.8871 26.9949 18.4592C27.381 18.0314 28.0384 18.0001 28.4662 18.3861L36.5741 25.7218C36.8036 25.9305 36.9914 26.1705 37.1584 26.4314C37.4715 26.5357 38.0037 26.5462 38.3062 26.2227C38.6506 25.8575 39.3602 24.8974 38.588 23.6766C38.0349 22.8105 29.9062 13.9096 24.4592 8.02439L20.2332 11.5931C18.501 13.054 15.9131 12.9183 14.3375 11.2905C12.741 9.63139 12.7097 7.0227 14.2749 5.34264C15.0262 4.52876 15.9236 3.57916 16.821 2.65051H6.30273V18.501L19.6593 30.3653C20.6819 31.2836 21.9966 31.7531 23.2384 31.6488C23.9897 31.5862 24.3966 31.3566 24.6471 31.1062L19.534 26.7235C19.0958 26.3479 19.0436 25.6905 19.4193 25.2523C19.7949 24.814 20.4523 24.7619 20.8906 25.1375Z" fill="white"/>
<path d="M15.8294 9.83993C16.6537 10.6748 17.9894 10.7478 18.8867 9.99648L23.8745 5.78084C24.3024 5.42603 24.9389 5.46775 25.3145 5.87472C27.2554 7.97213 35.5198 16.9252 38.9216 20.8278C39.2763 20.5356 39.6311 20.0974 39.965 19.6799C40.4868 19.033 41.0189 18.3756 41.6972 17.9895V2.70257C39.7563 2.74428 35.6867 2.61907 32.358 1.10601C28.4763 -0.667917 22.7267 -0.135732 20.9215 1.53387C20.7754 1.66953 20.6084 1.81557 20.452 1.97212C20.3476 2.26426 20.118 2.48341 19.8155 2.5878C18.5007 3.8817 16.9772 5.49908 15.798 6.76172C14.9945 7.62776 15.005 8.98427 15.8294 9.83993Z" fill="white"/>
<path d="M0.960047 0C0.427862 0 0 0.427862 0 0.959983V18.8244C0 19.3565 0.427862 19.7844 0.960047 19.7844H3.25565C3.78784 19.7844 4.2157 19.3565 4.2157 18.8244V0.959983C4.2157 0.427862 3.78784 0 3.25565 0H0.960047Z" fill="white"/>
<path d="M43.7842 0.959983V18.8244C43.7842 19.3565 44.212 19.7844 44.7442 19.7844H47.0398C47.572 19.7844 47.9998 19.3565 47.9998 18.8244V0.959983C47.9998 0.427862 47.572 0 47.0398 0H44.7442C44.212 0 43.7842 0.427862 43.7842 0.959983Z" fill="white"/>
</svg>
