<svg width="48" height="48" viewBox="0 0 48 48" fill="none" xmlns="http://www.w3.org/2000/svg">
<path d="M25.5026 12.2001C24.2531 12.935 23.0772 14.8459 22.3423 17.4917C23.3712 17.5652 24.4001 17.6387 25.5026 17.7122V12.2001Z" fill="white"/>
<path d="M27.7075 12.2001V17.7122C28.8099 17.7122 29.8389 17.6387 30.8678 17.4917C30.0593 14.8459 28.8834 12.935 27.7075 12.2001Z" fill="white"/>
<path d="M19.5495 21.0194C19.1085 21.7544 18.4471 22.4158 17.7856 22.9303H19.4025C19.4025 22.2688 19.476 21.6809 19.5495 21.0194Z" fill="white"/>
<path d="M25.5024 19.9171C24.253 19.9171 23.0771 19.8436 21.9012 19.6967C21.7542 20.7256 21.6072 21.828 21.5337 23.0039H25.5024V19.9171Z" fill="white"/>
<path d="M19.4025 25.1351H13.5229C13.6699 26.8255 14.1109 28.4424 14.8459 29.9123H14.9193C16.3157 29.3978 18.0061 29.0303 19.6965 28.7364C19.5495 27.5605 19.476 26.311 19.4025 25.1351Z" fill="white"/>
<path d="M31.3088 19.6967C30.1328 19.8436 28.8834 19.9171 27.7075 19.9171V22.9304H31.6762C31.6027 21.7545 31.4557 20.6521 31.3088 19.6967Z" fill="white"/>
<path d="M33.8074 25.1351C33.7339 26.3845 33.6604 27.5605 33.4399 28.7364C35.2038 29.0303 36.8207 29.3978 38.2171 29.9123H38.2906C39.0255 28.4424 39.54 26.752 39.6135 25.1351H33.8074Z" fill="white"/>
<path d="M25.5024 25.1351H21.5337C21.6072 26.311 21.6807 27.4135 21.9012 28.4424C23.0771 28.2954 24.253 28.2219 25.5024 28.2219V25.1351Z" fill="white"/>
<path d="M25.5026 35.8654V30.3533C24.4001 30.3533 23.3712 30.4268 22.3423 30.5738C23.1507 33.2196 24.3266 35.1304 25.5026 35.8654Z" fill="white"/>
<path d="M21.3134 14.258C21.8279 13.0821 22.4894 12.1267 23.2243 11.3917C21.9014 11.7592 20.5785 12.3472 19.4761 13.0821C20.064 13.964 20.505 14.993 20.652 16.0954C20.799 15.4339 21.0195 14.7725 21.3134 14.258Z" fill="white"/>
<path d="M30.0591 36.7474C32.9254 36.0124 35.4242 34.2486 37.1881 31.8232C35.9387 31.3823 34.5423 31.0883 32.9989 30.7943C32.7049 31.8967 32.3374 32.9257 31.8964 33.8076C31.382 35.057 30.7205 36.0124 30.0591 36.7474Z" fill="white"/>
<path d="M31.8964 14.258C32.3374 15.14 32.7049 16.1689 32.9989 17.2713C34.5423 17.0508 35.9387 16.6833 37.1881 16.2424C35.4242 13.8171 32.9254 12.1267 30.0591 11.3182C30.7205 12.0532 31.382 13.0821 31.8964 14.258Z" fill="white"/>
<path d="M20.2107 30.7943C18.6673 31.0148 17.2709 31.3823 16.0215 31.8232C17.7854 34.2486 20.2842 35.9389 23.1505 36.7474C22.4155 36.0124 21.8276 35.057 21.2396 33.8811C20.8721 32.9257 20.5047 31.8967 20.2107 30.7943Z" fill="white"/>
<path d="M30.8678 30.5003C29.8389 30.4268 28.8099 30.3533 27.7075 30.2798V35.7919C28.8834 35.1304 30.0593 33.2196 30.8678 30.5003Z" fill="white"/>
<path d="M31.6027 25.1351H27.7075V28.1484C28.9569 28.1484 30.1328 28.2219 31.3088 28.3689C31.4557 27.4135 31.6027 26.311 31.6027 25.1351Z" fill="white"/>
<path d="M33.4399 19.4026C33.6604 20.5785 33.7339 21.7544 33.8074 23.0038H39.687C39.54 21.3135 39.099 19.6966 38.3641 18.2267H38.2906C36.8207 18.6677 35.2038 19.1086 33.4399 19.4026Z" fill="white"/>
<path d="M13.3759 11.0242C9.99518 11.0242 7.27588 13.7435 7.27588 17.1242C7.27588 20.505 9.99518 23.2243 13.3759 23.2243C16.7567 23.2243 19.476 20.505 19.476 17.1242C19.476 13.7435 16.7567 11.0242 13.3759 11.0242ZM15.5808 16.9772L13.6699 18.8881C13.4494 19.1086 13.1555 19.1821 12.935 19.1821C12.641 19.1821 12.347 19.1086 12.2 18.8881L11.2446 17.9327C10.8036 17.4917 10.8036 16.8302 11.2446 16.3893C11.6856 15.9483 12.347 15.9483 12.788 16.3893L13.0085 16.6098L14.1844 15.4338C14.6253 14.9929 15.2868 14.9929 15.7278 15.4338C16.0217 15.8748 16.0217 16.5363 15.5808 16.9772Z" fill="white"/>
<path d="M21.0194 2.49873C21.0928 2.49873 21.0928 2.49873 21.1663 2.49873C21.8278 2.42524 22.2688 1.83728 22.1953 1.17583C22.1218 0.514374 21.5338 0.0734063 20.8724 0.146901C20.2109 0.220396 19.7699 0.808352 19.8434 1.4698C19.9169 2.05776 20.4314 2.49873 21.0194 2.49873Z" fill="white"/>
<path d="M46.7425 20.799C46.081 20.8725 45.6401 21.387 45.7136 22.0484C45.787 22.6364 46.3015 23.0773 46.8895 23.0773H46.963C47.6244 23.0039 48.0654 22.4894 47.9919 21.8279C47.9919 21.24 47.4039 20.7255 46.7425 20.799Z" fill="white"/>
<path d="M45.0524 18.2267C45.1994 18.7411 45.6403 19.1086 46.1548 19.1086C46.2283 19.1086 46.3753 19.1086 46.4488 19.0351C47.0367 18.8881 47.4042 18.2267 47.2572 17.6387C47.1102 17.0507 46.4488 16.6833 45.8608 16.8303C45.1994 16.9773 44.8319 17.6387 45.0524 18.2267Z" fill="white"/>
<path d="M25.0616 2.27833C25.723 2.27833 26.2375 1.76387 26.2375 1.17591C26.2375 0.514463 25.7965 0 25.1351 0C24.4736 0 23.9592 0.440968 23.9592 1.10242C23.8857 1.76387 24.4001 2.27833 25.0616 2.27833Z" fill="white"/>
<path d="M16.9776 3.38073C17.1246 3.38073 17.1981 3.38073 17.3451 3.30724C17.9331 3.08675 18.3005 2.4253 18.0801 1.83734C17.8596 1.24938 17.1981 0.881911 16.6102 1.1024C16.0222 1.32288 15.6547 1.98433 15.8752 2.57229C16.0222 3.08675 16.5367 3.38073 16.9776 3.38073Z" fill="white"/>
<path d="M43.6558 14.5519C43.8763 14.9929 44.2438 15.2134 44.6848 15.2134C44.8318 15.2134 45.0523 15.1399 45.1992 15.0664C45.7872 14.7724 46.0077 14.111 45.7137 13.523C45.4197 12.9351 44.7583 12.7146 44.1703 13.0086C43.6559 13.3025 43.3619 14.0375 43.6558 14.5519Z" fill="white"/>
<path d="M32.6316 4.04225C32.7786 4.11574 32.9256 4.11574 33.0726 4.11574C33.5136 4.11574 33.9545 3.82176 34.1015 3.3808C34.322 2.79284 34.1015 2.13139 33.5136 1.83741C32.9256 1.61692 32.2642 1.83741 31.9702 2.42537C31.7497 3.08682 32.0437 3.74827 32.6316 4.04225Z" fill="white"/>
<path d="M28.8834 2.86629C28.9569 2.86629 29.0304 2.86629 29.1039 2.86629C29.6183 2.86629 30.1328 2.49882 30.2063 1.98436C30.3533 1.3964 29.9858 0.734947 29.3243 0.587958C28.7364 0.440969 28.0749 0.808441 27.9279 1.46989C27.8544 2.05785 28.2954 2.7193 28.8834 2.86629Z" fill="white"/>
<path d="M46.963 24.9147C46.3015 24.8412 45.7871 25.3557 45.7136 25.9437C45.6401 26.6051 46.1545 27.1196 46.7425 27.1931H46.816C47.4039 27.1931 47.9184 26.7521 47.9919 26.1641C48.0654 25.5027 47.6244 24.9882 46.963 24.9147Z" fill="white"/>
<path d="M32.6315 44.0234C32.0436 44.2439 31.7496 44.9788 32.0436 45.5668C32.264 46.0077 32.6315 46.3017 33.0725 46.3017C33.2195 46.3017 33.3665 46.3017 33.5134 46.2282C34.1014 46.0077 34.3954 45.2728 34.1014 44.6848C33.9544 44.0234 33.2195 43.7294 32.6315 44.0234Z" fill="white"/>
<path d="M28.9568 45.1991C28.3689 45.3461 27.9279 45.9341 28.0749 46.5955C28.2219 47.11 28.6628 47.4775 29.1773 47.4775C29.2508 47.4775 29.3243 47.4775 29.4713 47.4775C30.0592 47.3305 30.5002 46.7425 30.3532 46.0811C30.2062 45.4931 29.5448 45.0522 28.9568 45.1991Z" fill="white"/>
<path d="M13.8172 43.2149C13.2292 42.9209 12.5677 43.1414 12.2738 43.6559C11.9798 44.2438 12.2003 44.9053 12.7147 45.1993C12.8617 45.2728 13.0822 45.3463 13.2292 45.3463C13.6702 45.3463 14.0376 45.1258 14.2581 44.7583C14.5521 44.1704 14.4051 43.5089 13.8172 43.2149Z" fill="white"/>
<path d="M17.4179 44.7583C16.8299 44.5378 16.1685 44.9053 15.948 45.4932C15.7275 46.0812 16.095 46.7426 16.6829 46.9631C16.8299 47.0366 16.9034 47.0366 17.0504 47.0366C17.5649 47.0366 18.0058 46.7426 18.1528 46.2282C18.3733 45.5667 18.0058 44.9053 17.4179 44.7583Z" fill="white"/>
<path d="M21.1663 45.5667C20.5049 45.4932 19.9169 45.9342 19.8434 46.5956C19.7699 47.2571 20.2109 47.845 20.8724 47.9185C20.9459 47.9185 20.9459 47.9185 21.0194 47.9185C21.6073 47.9185 22.1218 47.4776 22.1953 46.8896C22.2688 46.2281 21.8278 45.6402 21.1663 45.5667Z" fill="white"/>
<path d="M25.0619 45.7136C24.4004 45.7136 23.9595 46.3016 23.9595 46.8895C23.9595 47.4775 24.4739 47.992 25.1354 47.992C25.1354 47.992 25.1354 47.992 25.2089 47.992C25.8703 47.992 26.3113 47.404 26.3113 46.816C26.2378 46.2281 25.7233 45.7136 25.0619 45.7136Z" fill="white"/>
<path d="M46.4488 28.957C45.8609 28.81 45.1994 29.1775 45.0524 29.7654C44.9054 30.3534 45.2729 31.0148 45.8609 31.1618C45.9344 31.1618 46.0814 31.2353 46.1549 31.2353C46.6693 31.2353 47.1103 30.8678 47.2573 30.3534C47.4778 29.7654 47.1103 29.1775 46.4488 28.957Z" fill="white"/>
<path d="M36.086 42.1859C35.5715 42.5534 35.4245 43.2884 35.792 43.8028C36.0125 44.1703 36.38 44.3173 36.7475 44.3173C36.9679 44.3173 37.1884 44.2438 37.4089 44.0968C37.9234 43.7293 38.0704 42.9944 37.7029 42.4799C37.3354 41.9655 36.6005 41.8185 36.086 42.1859Z" fill="white"/>
<path d="M45.1992 32.9256C44.6113 32.6316 43.9498 32.9256 43.6558 33.4401C43.3619 34.028 43.6559 34.6895 44.1703 34.9835C44.3173 35.057 44.5378 35.1305 44.6848 35.1305C45.1257 35.1305 45.5667 34.91 45.7137 34.469C46.0812 33.8811 45.7872 33.1461 45.1992 32.9256Z" fill="white"/>
<path d="M39.0993 39.7605C38.6583 40.2015 38.6583 40.9365 39.0993 41.3774C39.3198 41.5979 39.6137 41.7449 39.9077 41.7449C40.2017 41.7449 40.4957 41.6714 40.7162 41.4509C41.1571 41.01 41.1571 40.275 40.7162 39.834C40.3487 39.3196 39.6137 39.3196 39.0993 39.7605Z" fill="white"/>
<path d="M43.2884 36.5268C42.774 36.1593 42.039 36.2328 41.6716 36.7473C41.3041 37.2617 41.3776 37.9967 41.8921 38.3642C42.1125 38.5111 42.333 38.5846 42.5535 38.5846C42.921 38.5846 43.2884 38.4376 43.5089 38.0702C43.9499 37.6292 43.8029 36.8943 43.2884 36.5268Z" fill="white"/>
<path d="M9.77494 7.27598C9.99542 7.27598 10.2894 7.20248 10.5099 7.05549C11.0243 6.68802 11.0978 5.95308 10.6569 5.43861C10.2894 4.92415 9.55445 4.85065 9.03999 5.29162C8.59902 5.6591 8.52553 6.39404 8.893 6.83501C9.11348 7.12899 9.48096 7.27598 9.77494 7.27598Z" fill="white"/>
<path d="M2.20475 17.0507C2.35174 17.1242 2.49873 17.1242 2.64572 17.1242C3.08669 17.1242 3.52766 16.8303 3.74814 16.3893C3.96862 15.8013 3.67464 15.1399 3.08669 14.9194C2.49873 14.6989 1.83728 14.9929 1.61679 15.5808C1.32282 16.1688 1.61679 16.8303 2.20475 17.0507Z" fill="white"/>
<path d="M13.2291 4.99764C13.4496 4.99764 13.5966 4.92415 13.7435 4.85065C14.3315 4.55668 14.552 3.82173 14.1845 3.30727C13.8905 2.71931 13.1556 2.49883 12.6411 2.8663C12.0532 3.16028 11.8327 3.89522 12.2002 4.40969C12.4206 4.77716 12.7881 4.99764 13.2291 4.99764Z" fill="white"/>
<path d="M1.32282 21.093C1.39631 21.093 1.46981 21.093 1.5433 21.093C2.05777 21.093 2.57223 20.7256 2.64572 20.1376C2.79271 19.4762 2.35175 18.8882 1.69029 18.8147C1.02884 18.6677 0.440883 19.1087 0.367389 19.7701C0.293894 20.3581 0.734863 20.946 1.32282 21.093Z" fill="white"/>
<path d="M6.09985 9.84834C6.32033 10.0688 6.61431 10.1423 6.8348 10.1423C7.12877 10.1423 7.49625 9.99533 7.71673 9.77484C8.1577 9.26038 8.08421 8.52543 7.64324 8.15796C7.12877 7.71699 6.39383 7.79049 6.02635 8.23145C5.51189 8.67242 5.58539 9.40737 6.09985 9.84834Z" fill="white"/>
<path d="M3.82192 13.3025C4.04241 13.4495 4.1894 13.4495 4.40988 13.4495C4.77735 13.4495 5.21832 13.229 5.43881 12.8616C5.73279 12.3471 5.5858 11.6122 5.07133 11.2447C4.55687 10.9507 3.82192 11.0977 3.45445 11.6122C3.08698 12.2736 3.30746 12.9351 3.82192 13.3025Z" fill="white"/>
<path d="M5.07133 36.8209C5.5858 36.5269 5.80628 35.792 5.43881 35.204C5.14483 34.6895 4.40988 34.4691 3.82192 34.8365C3.30746 35.1305 3.08698 35.8655 3.45445 36.4534C3.67493 36.8209 4.04241 37.0414 4.48338 37.0414C4.63036 36.9679 4.85085 36.8944 5.07133 36.8209Z" fill="white"/>
<path d="M3.74849 31.7497C3.52801 31.1617 2.86656 30.8677 2.2786 31.0882C1.69064 31.3087 1.39667 31.9702 1.61715 32.5581C1.76414 32.9991 2.20511 33.2931 2.71957 33.2931C2.86656 33.2931 3.01355 33.2931 3.16054 33.2196C3.675 32.9991 3.96898 32.3376 3.74849 31.7497Z" fill="white"/>
<path d="M1.76382 29.3244C2.42527 29.1774 2.79274 28.5894 2.71925 28.0014C2.57226 27.34 1.9843 26.9725 1.39635 27.046C0.734894 27.193 0.36742 27.781 0.440914 28.3689C0.514409 28.9569 1.02887 29.3244 1.54333 29.3244C1.61683 29.3244 1.69032 29.3244 1.76382 29.3244Z" fill="white"/>
<path d="M1.17591 25.2086C1.83737 25.2086 2.35183 24.6942 2.35183 24.0327C2.35183 23.3713 1.83737 22.8568 1.17591 22.8568C0.514463 22.8568 0 23.3713 0 24.0327C0 24.6942 0.514463 25.2086 1.17591 25.2086Z" fill="white"/>
<path d="M40.2751 11.8326C41.3775 11.8326 42.4065 11.3916 43.1414 10.6567C44.7583 9.03978 44.7583 6.46747 43.1414 4.92408C42.4065 4.18914 41.3775 3.74817 40.2751 3.74817C39.1727 3.74817 38.1438 4.18914 37.4088 4.92408C36.6739 5.65903 36.2329 6.68796 36.2329 7.79038C36.2329 8.8928 36.6739 9.92172 37.4088 10.6567C38.2173 11.3916 39.2462 11.8326 40.2751 11.8326Z" fill="white"/>
<path d="M11.0976 37.5558C10.3626 36.8208 9.33372 36.3799 8.2313 36.3799C7.12888 36.3799 6.09995 36.8208 5.36501 37.5558C3.74812 39.1727 3.74812 41.745 5.36501 43.2884C6.09995 44.0233 7.12888 44.4643 8.2313 44.4643C9.33372 44.4643 10.3626 44.0233 11.0976 43.2884C12.641 41.745 12.641 39.1727 11.0976 37.5558Z" fill="white"/>
</svg>
