<svg width="48" height="48" viewBox="0 0 48 48" fill="none" xmlns="http://www.w3.org/2000/svg">
<g clip-path="url(#clip0_250_247)">
<path d="M20.8578 37.4951C19.0233 39.2243 16.4859 39.6116 14.2353 38.5063C13.4217 38.1066 12.7351 37.5548 12.1976 36.8939L9.1332 43.8074C8.99377 44.1219 9.14947 44.359 9.22281 44.4463C9.29616 44.5335 9.50213 44.7265 9.82805 44.6341L12.0589 44.0007C12.3132 43.9286 12.5701 43.8938 12.8235 43.8938C13.8926 43.8938 14.8987 44.511 15.3832 45.5337L16.3907 47.6604C16.5379 47.9712 16.8139 48.0022 16.9288 47.9999C17.0415 47.9984 17.3187 47.9611 17.458 47.6465L22.3324 36.6493C21.7968 36.8065 21.2896 37.088 20.8578 37.4951Z" fill="white"/>
<path d="M37.9254 43.8074L34.861 36.8939C34.3235 37.5549 33.6369 38.1067 32.8233 38.5063C30.5727 39.6116 28.0354 39.2243 26.2008 37.4951C25.769 37.088 25.2618 36.8065 24.7261 36.6493L29.6004 47.6465C29.7399 47.9612 30.0171 47.9984 30.1297 47.9999C30.2445 48.0022 30.5206 47.9712 30.6677 47.6604L31.6752 45.5337C32.1596 44.511 33.1659 43.8938 34.2349 43.8938C34.4883 43.8938 34.7454 43.9286 34.9995 44.0007L37.2304 44.6341C37.5563 44.7266 37.7624 44.5336 37.8356 44.4463C37.9092 44.3589 38.0649 44.1218 37.9254 43.8074Z" fill="white"/>
<path d="M40.3326 19.4804C37.7876 17.7029 36.9979 14.1737 38.5348 11.4458C39.4586 9.80606 38.9778 8.18569 38.2199 7.21603C37.4618 6.24666 36.0199 5.40806 34.2471 5.96166C31.2983 6.88294 28.1004 5.31244 26.9676 2.38594C26.2868 0.626813 24.7449 0 23.5292 0C22.3135 0 20.7717 0.626813 20.0908 2.38603C18.9581 5.31262 15.7605 6.88294 12.8113 5.96175C11.0384 5.40825 9.59678 6.24666 8.8386 7.21612C8.08061 8.18578 7.59982 9.80597 8.52362 11.4459C10.0606 14.1737 9.27086 17.703 6.72583 19.4805C5.19586 20.5492 4.93989 22.2217 5.21029 23.4307C5.4807 24.6397 6.42298 26.0333 8.25598 26.319C11.3051 26.7941 13.5177 29.6242 13.2936 32.7622C13.1586 34.6485 14.2812 35.8956 15.3765 36.4337C16.4719 36.9717 18.1276 37.0895 19.4893 35.8057C20.6219 34.7382 22.0758 34.2042 23.5291 34.2042C24.983 34.2042 26.4361 34.7379 27.5688 35.8057C28.9308 37.0896 30.5866 36.9718 31.6819 36.4337C32.7772 35.8957 33.8996 34.6486 33.7648 32.7622C33.5406 29.6243 35.7533 26.7942 38.8024 26.319C40.6354 26.0333 41.5775 24.6397 41.8481 23.4307C42.1186 22.2216 41.8624 20.549 40.3326 19.4804ZM23.5292 31.4928C16.8587 31.4928 11.4319 25.9574 11.4319 19.1535C11.4319 12.3496 16.8586 6.81412 23.5292 6.81412C30.1998 6.81412 35.6266 12.3495 35.6266 19.1534C35.6265 25.9573 30.1997 31.4928 23.5292 31.4928Z" fill="white"/>
<path d="M23.5293 9.11487C18.1025 9.11487 13.6875 13.6182 13.6875 19.1535C13.6875 24.6888 18.1024 29.1922 23.5293 29.1922C28.9562 29.1922 33.3711 24.6888 33.3711 19.1535C33.3711 13.6182 28.9562 9.11487 23.5293 9.11487ZM28.573 18.1802L22.4478 22.7435C22.2534 22.8883 22.0201 22.9649 21.7826 22.9649C21.7214 22.9649 21.6599 22.9599 21.5987 22.9496C21.3001 22.8992 21.0337 22.7285 20.8597 22.4757L19.0275 19.8149C18.6695 19.2949 18.7926 18.5774 19.3022 18.2123C19.8119 17.8471 20.5153 17.9726 20.8733 18.4925L22.0452 20.1944L27.2426 16.3224C27.7457 15.9478 28.4513 16.0596 28.8186 16.5728C29.1859 17.0858 29.0759 17.8054 28.573 18.1802Z" fill="white"/>
</g>
<defs>
<clipPath id="clip0_250_247">
<rect width="47.0588" height="48" fill="white"/>
</clipPath>
</defs>
</svg>
