<svg width="51" height="48" viewBox="0 0 51 48" fill="none" xmlns="http://www.w3.org/2000/svg">
<path d="M25.3616 8.06275C25.1119 8.06275 24.8726 7.96359 24.6961 7.78708C24.5195 7.61058 24.4204 7.37118 24.4204 7.12157V0.941177C24.4204 0.691561 24.5195 0.452169 24.6961 0.275664C24.8726 0.0991593 25.1119 0 25.3616 0C25.6112 0 25.8506 0.0991593 26.0271 0.275664C26.2036 0.452169 26.3027 0.691561 26.3027 0.941177V7.12157C26.3027 7.37118 26.2036 7.61058 26.0271 7.78708C25.8506 7.96359 25.6112 8.06275 25.3616 8.06275ZM50.7231 25.3616C50.7231 25.112 50.624 24.8726 50.4475 24.6961C50.271 24.5196 50.0316 24.4204 49.782 24.4204H43.6016C43.3519 24.4204 43.1126 24.5196 42.9361 24.6961C42.7595 24.8726 42.6604 25.112 42.6604 25.3616C42.6604 25.6112 42.7595 25.8506 42.9361 26.0271C43.1126 26.2036 43.3519 26.3027 43.6016 26.3027H49.782C50.0316 26.3027 50.271 26.2036 50.4475 26.0271C50.624 25.8506 50.7231 25.6112 50.7231 25.3616ZM8.05647 25.3616C8.05647 25.112 7.95731 24.8726 7.78081 24.6961C7.6043 24.5196 7.36491 24.4204 7.11529 24.4204H0.941176C0.691561 24.4204 0.452169 24.5196 0.275664 24.6961C0.0991593 24.8726 0 25.112 0 25.3616C0 25.6112 0.0991593 25.8506 0.275664 26.0271C0.452169 26.2036 0.691561 26.3027 0.941176 26.3027H7.12157C7.37118 26.3027 7.61058 26.2036 7.78708 26.0271C7.96358 25.8506 8.06275 25.6112 8.06275 25.3616H8.05647ZM13.12 13.1263C13.208 13.0393 13.2779 12.9358 13.3256 12.8216C13.3733 12.7074 13.3979 12.5849 13.3979 12.4612C13.3979 12.3374 13.3733 12.2149 13.3256 12.1008C13.2779 11.9866 13.208 11.883 13.12 11.7961L8.72784 7.40392C8.64168 7.31145 8.53777 7.23728 8.42232 7.18584C8.30687 7.1344 8.18224 7.10674 8.05587 7.10451C7.9295 7.10228 7.80397 7.12553 7.68678 7.17287C7.56959 7.2202 7.46313 7.29066 7.37375 7.38003C7.28438 7.4694 7.21393 7.57586 7.16659 7.69305C7.11925 7.81025 7.09601 7.93577 7.09824 8.06215C7.10047 8.18852 7.12813 8.31315 7.17957 8.4286C7.23101 8.54405 7.30518 8.64795 7.39765 8.73412L11.7898 13.1263C11.8765 13.2145 11.98 13.2845 12.0943 13.3319C12.2086 13.3793 12.3312 13.4033 12.4549 13.4024C12.5798 13.4049 12.7038 13.3817 12.8193 13.3342C12.9348 13.2867 13.0393 13.2159 13.1263 13.1263H13.12ZM43.2941 43.2941C43.3821 43.2072 43.452 43.1036 43.4997 42.9894C43.5474 42.8753 43.572 42.7528 43.572 42.629C43.572 42.5053 43.5474 42.3828 43.4997 42.2686C43.452 42.1544 43.3821 42.0509 43.2941 41.9639L38.902 37.5718C38.7235 37.4055 38.4876 37.315 38.2437 37.3193C37.9999 37.3236 37.7673 37.4224 37.5948 37.5948C37.4224 37.7673 37.3236 37.9999 37.3193 38.2437C37.315 38.4876 37.4055 38.7235 37.5718 38.902L41.9639 43.2941C42.0508 43.3821 42.1544 43.4518 42.2686 43.4993C42.3828 43.5467 42.5054 43.5708 42.629 43.5702C42.7528 43.5719 42.8757 43.5482 42.99 43.5008C43.1044 43.4533 43.2079 43.383 43.2941 43.2941ZM38.902 13.1263L43.2941 8.73412C43.3866 8.64795 43.4608 8.54405 43.5122 8.4286C43.5636 8.31315 43.5913 8.18852 43.5935 8.06215C43.5958 7.93577 43.5725 7.81025 43.5252 7.69305C43.4778 7.57586 43.4074 7.4694 43.318 7.38003C43.2286 7.29066 43.1222 7.2202 43.005 7.17287C42.8878 7.12553 42.7623 7.10228 42.6359 7.10451C42.5095 7.10674 42.3849 7.1344 42.2694 7.18584C42.154 7.23728 42.0501 7.31145 41.9639 7.40392L37.5718 11.7961C37.4837 11.883 37.4138 11.9866 37.3661 12.1008C37.3184 12.2149 37.2939 12.3374 37.2939 12.4612C37.2939 12.5849 37.3184 12.7074 37.3661 12.8216C37.4138 12.9358 37.4837 13.0393 37.5718 13.1263C37.658 13.2151 37.7615 13.2854 37.8758 13.3329C37.9902 13.3804 38.113 13.404 38.2369 13.4024C38.3648 13.4067 38.4922 13.3845 38.611 13.3369C38.7298 13.2894 38.8375 13.2177 38.9271 13.1263H38.902ZM8.75922 43.2941L13.1514 38.902C13.3176 38.7235 13.4081 38.4876 13.4038 38.2437C13.3995 37.9999 13.3007 37.7673 13.1283 37.5948C12.9559 37.4224 12.7232 37.3236 12.4794 37.3193C12.2356 37.315 11.9996 37.4055 11.8212 37.5718L7.42902 41.9639C7.34099 42.0509 7.27111 42.1544 7.22341 42.2686C7.17571 42.3828 7.15115 42.5053 7.15115 42.629C7.15115 42.7528 7.17571 42.8753 7.22341 42.9894C7.27111 43.1036 7.34099 43.2072 7.42902 43.2941C7.51526 43.383 7.61873 43.4533 7.73309 43.5008C7.84745 43.5482 7.9703 43.5719 8.09412 43.5702C8.21778 43.5708 8.34031 43.5467 8.45452 43.4993C8.56873 43.4518 8.67232 43.3821 8.75922 43.2941ZM19.8337 45.7349V47.0588C19.8337 47.3084 19.9329 47.5478 20.1094 47.7243C20.2859 47.9008 20.5253 48 20.7749 48H29.9482C30.1979 48 30.4372 47.9008 30.6137 47.7243C30.7902 47.5478 30.8894 47.3084 30.8894 47.0588V45.7349H19.8337ZM39.0902 25.3302C39.0869 27.6736 38.4852 29.9773 37.3421 32.023C36.1991 34.0687 34.5525 35.7886 32.5584 37.0196V42.9114C32.5584 43.161 32.4593 43.4004 32.2828 43.5769C32.1063 43.7534 31.8669 43.8526 31.6173 43.8526H19.0871C18.8374 43.8526 18.598 43.7534 18.4215 43.5769C18.245 43.4004 18.1459 43.161 18.1459 42.9114V40.4016H28.7184C28.968 40.4016 29.2074 40.3024 29.3839 40.1259C29.5604 39.9494 29.6596 39.71 29.6596 39.4604C29.6596 39.2108 29.5604 38.9714 29.3839 38.7949C29.2074 38.6184 28.968 38.5192 28.7184 38.5192H18.1647V37.0133C16.1262 35.7584 14.4512 33.9924 13.306 31.8903C12.1608 29.7882 11.5851 27.4232 11.6361 25.0299C11.687 22.6367 12.3629 20.2984 13.5966 18.2469C14.8303 16.1955 16.5789 14.5024 18.669 13.3354C20.7591 12.1685 23.118 11.5683 25.5117 11.5945C27.9054 11.6207 30.2506 12.2723 32.3147 13.4847C34.3787 14.697 36.0899 16.428 37.2785 18.5059C38.467 20.5838 39.0916 22.9364 39.0902 25.3302ZM28.4235 21.2706C28.3291 21.1909 28.2197 21.1306 28.1018 21.0935C27.9839 21.0563 27.8598 21.0428 27.7367 21.0539C27.6136 21.065 27.4939 21.1004 27.3845 21.158C27.2752 21.2157 27.1783 21.2945 27.0996 21.3898L25.531 23.3098L23.9373 21.3898C23.7775 21.1976 23.5479 21.0767 23.2991 21.0538C23.0502 21.0308 22.8024 21.1077 22.6102 21.2675C22.418 21.4272 22.2971 21.6568 22.2742 21.9056C22.2512 22.1545 22.3281 22.4023 22.4878 22.5945L24.5898 25.1043V36.0157C24.5898 36.2653 24.689 36.5047 24.8655 36.6812C25.042 36.8577 25.2814 36.9569 25.531 36.9569C25.7806 36.9569 26.02 36.8577 26.1965 36.6812C26.373 36.5047 26.4722 36.2653 26.4722 36.0157V25.1231L28.5741 22.6133C28.6564 22.518 28.7187 22.407 28.757 22.2871C28.7954 22.1671 28.8092 22.0406 28.7974 21.9152C28.7857 21.7898 28.7488 21.6681 28.6888 21.5573C28.6289 21.4465 28.5472 21.349 28.4486 21.2706H28.4235Z" fill="white"/>
</svg>
