<svg width="39" height="48" viewBox="0 0 39 48" fill="none" xmlns="http://www.w3.org/2000/svg">
<path d="M37.0358 7.78105H36.9347C30.4674 7.78105 24.2021 5.05263 19.8063 0.303158C19.4021 -0.101053 18.6442 -0.101053 18.2905 0.303158C13.8947 5.05263 7.62947 7.78105 1.16211 7.78105H1.06105C0.505263 7.78105 0 8.23579 0 8.8421V20.3116C0 29.76 4.69895 38.5516 12.5305 43.8063L18.4421 47.7979C18.5937 47.8989 18.7958 48 19.0484 48C19.3011 48 19.4526 47.9495 19.6547 47.7979L25.5663 43.8063C33.3979 38.5516 38.0968 29.76 38.0968 20.3116V8.79158C38.0463 8.23579 37.5916 7.78105 37.0358 7.78105ZM19.0484 34.459C13.0358 34.459 8.13474 29.5579 8.13474 23.5453C8.13474 17.5326 13.0358 12.6316 19.0484 12.6316C25.0611 12.6316 29.9621 17.5326 29.9621 23.5453C29.9621 29.5579 25.0611 34.459 19.0484 34.459Z" fill="white"/>
<path d="M22.2316 18.8969L17.5327 24.0506L15.8653 22.2316C15.1579 21.4737 13.9453 21.4232 13.1874 22.1306C12.4295 22.8379 12.379 24.0506 13.0864 24.8085L16.1685 28.1432C16.5221 28.5474 17.0274 28.7495 17.5832 28.7495C18.139 28.7495 18.6442 28.5474 18.9979 28.1432L25.1116 21.4737C25.819 20.7158 25.7685 19.5032 25.0106 18.7958C24.1516 18.0885 22.9895 18.139 22.2316 18.8969Z" fill="white"/>
</svg>
