<svg width="42" height="48" viewBox="0 0 42 48" fill="none" xmlns="http://www.w3.org/2000/svg">
<path d="M22.0121 24.4355C23.9811 24.0821 25.3947 23.4762 26.4044 22.8199C24.7889 20.9014 22.4665 19.6393 19.8917 19.3868C18.2256 20.2451 16.3576 20.75 14.3886 20.75C12.4197 20.75 10.5517 20.2956 8.88562 19.3868C3.93794 19.9422 0 24.1831 0 29.3327V35.2901C0 35.7949 0.403892 36.1988 0.908756 36.1988H18.1246C18.0742 35.7949 18.0742 35.391 18.0742 34.9872V28.9288C18.1246 26.7074 19.7402 24.7889 22.0121 24.4355Z" fill="white"/>
<path d="M14.439 17.3673C19.2349 17.3673 23.1227 13.4795 23.1227 8.68367C23.1227 3.88781 19.2349 0 14.439 0C9.64318 0 5.75537 3.88781 5.75537 8.68367C5.75537 13.4795 9.64318 17.3673 14.439 17.3673Z" fill="white"/>
<path d="M40.4395 27.6666C36.0471 26.9598 33.6238 24.9908 32.4626 23.6277C31.9577 23.0723 31.049 23.0723 30.5441 23.6277C29.3324 24.9908 26.9596 26.9598 22.5672 27.6666C21.9109 27.7676 21.4565 28.3229 21.4565 28.9793V35.0376C21.4565 41.7523 28.6256 46.4981 30.8975 47.8107C31.3014 48.0631 31.8063 48.0631 32.2102 47.8107C34.4316 46.4981 41.6511 41.7523 41.6511 35.0376V28.9793C41.6006 28.3229 41.0958 27.7676 40.4395 27.6666ZM36.6025 33.826L31.4529 38.9756C31.1499 39.2785 30.7461 39.4804 30.2917 39.4804C29.8373 39.4804 29.4334 39.329 29.1305 38.9756L26.4547 36.2998C25.7984 35.6435 25.7984 34.5833 26.4547 33.9774C27.111 33.3211 28.1712 33.3211 28.7771 33.9774L30.2917 35.492L34.2801 31.5036C34.9364 30.8473 35.9966 30.8473 36.6025 31.5036C37.2083 32.1094 37.2083 33.1696 36.6025 33.826Z" fill="white"/>
</svg>
