<svg width="48" height="37" viewBox="0 0 48 37" fill="none" xmlns="http://www.w3.org/2000/svg">
<path d="M32.7113 1.93584C32.4631 1.78693 32.1156 1.78693 31.8674 1.88621L31.8178 1.93584C31.6689 2.03512 31.5696 2.13439 31.4703 2.28331L29.4352 5.65868C29.3359 5.85723 29.2862 6.10542 29.3359 6.35361C29.3855 6.6018 29.5344 6.80035 29.733 6.89963C30.0308 7.04854 30.3783 7.04854 30.6265 6.89963C30.7754 6.80035 30.8747 6.70108 30.9739 6.55216L33.0091 3.17679C33.1084 2.97824 33.158 2.73005 33.1084 2.48186C33.0587 2.28331 32.9098 2.08476 32.7113 1.93584Z" fill="white"/>
<path d="M14.296 1.93584C14.5442 1.78693 14.8916 1.78693 15.1398 1.88621L15.1895 1.93584C15.3384 2.03512 15.4376 2.13439 15.5369 2.28331L17.5721 5.65868C17.6713 5.85723 17.721 6.10542 17.6713 6.35361C17.6217 6.6018 17.4728 6.80035 17.2742 6.89963C16.9764 7.04854 16.6289 7.04854 16.3808 6.89963C16.2318 6.80035 16.1326 6.70108 16.0333 6.55216L13.9981 3.17679C13.8989 2.97824 13.8492 2.73005 13.8989 2.48186C13.9485 2.28331 14.0974 2.08476 14.296 1.93584Z" fill="white"/>
<path d="M10.0767 11.0692C10.176 11.0692 10.2256 11.0692 10.3249 11.0195C10.5731 10.9699 10.7717 10.821 10.8709 10.6224C11.1191 10.1757 10.9702 9.62969 10.5235 9.3815L7.09847 7.39598C6.94955 7.29671 6.80064 7.24707 6.65172 7.24707H6.60209C6.30426 7.24707 6.05607 7.44562 5.85752 7.69381C5.75824 7.89236 5.7086 8.14055 5.75824 8.38874C5.80788 8.63693 5.95679 8.83548 6.15535 8.93476L9.58036 10.9203C9.77891 11.0195 9.92782 11.0692 10.0767 11.0692Z" fill="white"/>
<path d="M41.4481 7.74349C41.2991 7.4953 41.0509 7.29675 40.7035 7.29675H40.6538C40.5049 7.29675 40.356 7.34639 40.2071 7.44567L36.7821 9.43118C36.5835 9.53046 36.4346 9.72901 36.3354 9.9772C36.2857 10.2254 36.2857 10.4736 36.4346 10.6721C36.5835 10.97 36.8814 11.1189 37.2288 11.1189C37.3777 11.1189 37.5267 11.0692 37.6756 11.0196L41.1006 9.03408C41.2991 8.9348 41.4481 8.73625 41.4977 8.48806C41.597 8.19023 41.597 7.94204 41.4481 7.74349Z" fill="white"/>
<path d="M23.6277 0C23.3299 0 23.032 0.148914 22.8831 0.397103L22.8335 0.446741C22.7342 0.595654 22.7342 0.744568 22.7342 0.893481L22.6846 4.86451C22.6846 5.1127 22.7838 5.31125 22.9328 5.5098C23.0817 5.70835 23.3299 5.80763 23.5781 5.80763C23.9255 5.80763 24.2233 5.65872 24.3723 5.36089C24.4715 5.21198 24.5212 5.06306 24.5212 4.91415L24.5708 0.943119C24.5708 0.69493 24.4715 0.496378 24.3226 0.297827C24.0744 0.0992754 23.8759 0 23.6277 0Z" fill="white"/>
<path d="M12.5088 31.6689V36.8313H35.4415V31.6689C35.4415 28.5418 33.0092 26.1095 29.882 26.1095H18.1179C15.09 26.1095 12.5088 28.5914 12.5088 31.6689Z" fill="white"/>
<path d="M23.9751 23.8261C27.4993 23.8261 30.3783 20.9471 30.3783 17.4228C30.3783 13.8985 27.4993 11.0195 23.9751 11.0195C20.4508 11.0195 17.5718 13.8985 17.5718 17.4228C17.6214 20.9471 20.4508 23.8261 23.9751 23.8261Z" fill="white"/>
<path d="M9.03425 24.7692C11.814 24.7692 14.0477 22.4859 14.0477 19.7558C14.0477 17.0257 11.814 14.6927 9.03425 14.6927C6.25453 14.6927 3.97119 16.9761 3.97119 19.7558C3.97119 22.5355 6.25453 24.7692 9.03425 24.7692Z" fill="white"/>
<path d="M38.9661 24.7693C41.7458 24.7693 43.9795 22.4859 43.9795 19.7559C43.9795 17.0258 41.6961 14.7424 38.9661 14.7424C36.1863 14.7424 33.9526 17.0258 33.9526 19.7559C33.9526 22.4859 36.1863 24.7693 38.9661 24.7693Z" fill="white"/>
<path d="M4.36813 26.6058C1.98551 26.6058 0 28.5417 0 30.974V35.0443H10.7218V31.7185C10.7218 29.6337 11.6649 27.7971 13.1044 26.6058H4.36813Z" fill="white"/>
<path d="M43.5823 26.6058H34.9453C36.3848 27.8468 37.2783 29.6834 37.2783 31.7185V35.0443H48.0001V30.974C48.0001 28.5417 46.0642 26.6058 43.5823 26.6058Z" fill="white"/>
</svg>
