<svg width="65" height="65" viewBox="0 0 65 65" fill="none" xmlns="http://www.w3.org/2000/svg">
<path d="M22.791 42.1687C19.6357 44.6469 17.6045 48.4927 17.6045 52.8125V56.875H9.47949C7.23158 56.875 5.41699 55.0604 5.41699 52.8125V50.1042C5.41699 44.8635 9.65553 40.625 14.8962 40.625H17.6045C19.5274 40.625 21.3014 41.1937 22.791 42.1687Z" fill="white"/>
<path d="M48.75 40.625C52.1155 40.625 54.8438 37.8967 54.8438 34.5312C54.8438 31.1658 52.1155 28.4375 48.75 28.4375C45.3845 28.4375 42.6562 31.1658 42.6562 34.5312C42.6562 37.8967 45.3845 40.625 48.75 40.625Z" fill="white"/>
<path d="M16.25 40.625C19.6155 40.625 22.3438 37.8967 22.3438 34.5312C22.3438 31.1658 19.6155 28.4375 16.25 28.4375C12.8845 28.4375 10.1562 31.1658 10.1562 34.5312C10.1562 37.8967 12.8845 40.625 16.25 40.625Z" fill="white"/>
<path d="M59.5829 50.1042V52.8125C59.5829 55.0604 57.7684 56.875 55.5204 56.875H47.3954V52.8125C47.3954 48.4927 45.3642 44.6469 42.209 42.1687C43.6986 41.1937 45.4725 40.625 47.3954 40.625H50.1038C55.3444 40.625 59.5829 44.8635 59.5829 50.1042Z" fill="white"/>
<path d="M32.4997 41.9791C36.613 41.9791 39.9476 38.6445 39.9476 34.5312C39.9476 30.4178 36.613 27.0833 32.4997 27.0833C28.3863 27.0833 25.0518 30.4178 25.0518 34.5312C25.0518 38.6445 28.3863 41.9791 32.4997 41.9791Z" fill="white"/>
<path d="M33.8542 41.9792H31.1458C25.1726 41.9792 20.3125 46.8394 20.3125 52.8126V56.8751C20.3125 59.1149 22.1352 60.9376 24.375 60.9376H40.625C42.8648 60.9376 44.6875 59.1149 44.6875 56.8751V52.8126C44.6875 46.8394 39.8274 41.9792 33.8542 41.9792Z" fill="white"/>
<path d="M52.1354 22.5929L48.8678 23.7548C47.9402 24.0838 46.972 23.381 46.9991 22.3965L47.0938 18.9299L44.9786 16.1809C44.3787 15.4009 44.7484 14.262 45.6923 13.9831L49.0195 13.0027L50.9803 10.1413C51.5369 9.33017 52.734 9.33017 53.2905 10.1413L55.2513 13.0027L58.5785 13.9831C59.5224 14.2607 59.8921 15.4009 59.2922 16.1809L57.177 18.9299L57.2718 22.3965C57.2988 23.3797 56.3293 24.0838 55.403 23.7548L52.1354 22.5929Z" fill="white"/>
<path d="M12.8641 22.5929L9.59653 23.7548C8.66893 24.0838 7.7007 23.381 7.72778 22.3965L7.82258 18.9299L5.70737 16.1809C5.10747 15.4009 5.47716 14.262 6.42101 13.9831L9.7482 13.0027L11.709 10.1413C12.2656 9.33017 13.4627 9.33017 14.0192 10.1413L15.9801 13.0027L19.3073 13.9831C20.2511 14.2607 20.6208 15.4009 20.0209 16.1809L17.9057 18.9299L18.0005 22.3965C18.0276 23.3797 17.058 24.0838 16.1317 23.7548L12.8641 22.5929Z" fill="white"/>
<path d="M32.5003 19.546L28.626 20.9232C27.5264 21.3146 26.3781 20.479 26.4106 19.3131L26.523 15.2032L24.015 11.9437C23.3041 11.0188 23.7429 9.66873 24.8614 9.33832L28.8061 8.17509L31.1312 4.7829C31.7907 3.82009 33.2112 3.82009 33.8707 4.7829L36.1958 8.17509L40.1405 9.33832C41.259 9.66873 41.6978 11.0188 40.9868 11.9437L38.4789 15.2032L38.5913 19.3131C38.6238 20.479 37.4741 21.3146 36.3759 20.9232L32.5003 19.546Z" fill="white"/>
</svg>
