<svg width="849" height="90" viewBox="0 0 849 90" fill="none" xmlns="http://www.w3.org/2000/svg">
<path d="M847 81.5H848.5V83H847V81.5ZM16.5 81.5C16.5 85.9183 12.9183 89.5 8.5 89.5C4.08173 89.5 0.5 85.9183 0.5 81.5C0.5 77.0817 4.08173 73.5 8.5 73.5C12.9183 73.5 16.5 77.0817 16.5 81.5ZM848.5 0V6.79167H845.5V0H848.5ZM848.5 20.375V33.9583H845.5V20.375H848.5ZM848.5 47.5417V61.125H845.5V47.5417H848.5ZM848.5 74.7083V81.5H845.5V74.7083H848.5ZM847 83H841.011V80H847V83ZM829.032 83H817.054V80H829.032V83ZM805.075 83H793.096V80H805.075V83ZM781.118 83H769.139V80H781.118V83ZM757.161 83H745.182V80H757.161V83ZM733.204 83H721.225V80H733.204V83ZM709.246 83H697.268V80H709.246V83ZM685.289 83H673.311V80H685.289V83ZM661.332 83H649.354V80H661.332V83ZM637.375 83H625.396V80H637.375V83ZM613.418 83H601.439V80H613.418V83ZM589.461 83H577.482V80H589.461V83ZM565.504 83H553.525V80H565.504V83ZM541.546 83H529.568V80H541.546V83ZM517.589 83H505.611V80H517.589V83ZM493.632 83H481.653V80H493.632V83ZM469.675 83H457.696V80H469.675V83ZM445.718 83H433.739V80H445.718V83ZM421.761 83H409.782V80H421.761V83ZM397.803 83H385.825V80H397.803V83ZM373.846 83H361.868V80H373.846V83ZM349.889 83H337.911V80H349.889V83ZM325.932 83H313.953V80H325.932V83ZM301.975 83H289.996V80H301.975V83ZM278.018 83H266.039V80H278.018V83ZM254.061 83H242.082V80H254.061V83ZM230.103 83H218.125V80H230.103V83ZM206.146 83H194.168V80H206.146V83ZM182.189 83H170.211V80H182.189V83ZM158.232 83H146.253V80H158.232V83ZM134.275 83H122.296V80H134.275V83ZM110.318 83H98.3391V80H110.318V83ZM86.3605 83H74.3819V80H86.3605V83ZM62.4033 83H50.4247V80H62.4033V83ZM38.4462 83H26.4676V80H38.4462V83ZM14.489 83H8.5V80H14.489V83Z" fill="#CFA935"/>
</svg>
