<svg width="848" height="90" viewBox="0 0 848 90" fill="none" xmlns="http://www.w3.org/2000/svg">
<path d="M1.5 81.5H0V83H1.5V81.5ZM832 81.5C832 85.9183 835.582 89.5 840 89.5C844.418 89.5 848 85.9183 848 81.5C848 77.0817 844.418 73.5 840 73.5C835.582 73.5 832 77.0817 832 81.5ZM0 0V6.79167H3V0H0ZM0 20.375V33.9583H3V20.375H0ZM0 47.5417V61.125H3V47.5417H0ZM0 74.7083V81.5H3V74.7083H0ZM1.5 83H7.48929V80H1.5V83ZM19.4679 83H31.4464V80H19.4679V83ZM43.425 83H55.4036V80H43.425V83ZM67.3821 83H79.3607V80H67.3821V83ZM91.3393 83H103.318V80H91.3393V83ZM115.296 83H127.275V80H115.296V83ZM139.254 83H151.232V80H139.254V83ZM163.211 83H175.189V80H163.211V83ZM187.168 83H199.146V80H187.168V83ZM211.125 83H223.104V80H211.125V83ZM235.082 83H247.061V80H235.082V83ZM259.039 83H271.018V80H259.039V83ZM282.996 83H294.975V80H282.996V83ZM306.954 83H318.932V80H306.954V83ZM330.911 83H342.889V80H330.911V83ZM354.868 83H366.847V80H354.868V83ZM378.825 83H390.804V80H378.825V83ZM402.782 83H414.761V80H402.782V83ZM426.739 83H438.718V80H426.739V83ZM450.697 83H462.675V80H450.697V83ZM474.654 83H486.632V80H474.654V83ZM498.611 83H510.589V80H498.611V83ZM522.568 83H534.547V80H522.568V83ZM546.525 83H558.504V80H546.525V83ZM570.482 83H582.461V80H570.482V83ZM594.439 83H606.418V80H594.439V83ZM618.397 83H630.375V80H618.397V83ZM642.354 83H654.332V80H642.354V83ZM666.311 83H678.289V80H666.311V83ZM690.268 83H702.247V80H690.268V83ZM714.225 83H726.204V80H714.225V83ZM738.182 83H750.161V80H738.182V83ZM762.14 83H774.118V80H762.14V83ZM786.097 83H798.075V80H786.097V83ZM810.054 83H822.032V80H810.054V83ZM834.011 83H840V80H834.011V83Z" fill="#CFA935"/>
</svg>
