<svg width="40" height="41" viewBox="0 0 40 41" fill="none" xmlns="http://www.w3.org/2000/svg">
<path fill-rule="evenodd" clip-rule="evenodd" d="M22.2327 36.1168C22.2076 36.4492 22.1141 36.7798 21.9502 37.0863L21.3182 38.2681C21.5486 38.4005 21.7836 38.5393 22.0136 38.6655C22.5623 38.9673 23.2574 38.7374 23.5551 38.1951C23.863 37.6352 23.6529 36.9309 23.0978 36.6198C22.811 36.459 22.5221 36.2806 22.2327 36.1168ZM14.3778 24.1124C16.0993 25.9595 18.0905 25.1538 19.9827 24.3878C21.7112 23.688 23.3712 23.0161 24.9526 23.9175L31.1062 27.4248C31.3257 27.5499 31.5183 27.7034 31.6815 27.8776C31.7126 27.9109 31.7429 27.945 31.772 27.9798L32.6873 27.5979L29.549 19.5025C28.1513 20.2505 27.1365 19.8208 25.7626 19.2591C24.2625 18.6459 22.5049 17.9276 20.1128 19.5686C18.8063 20.4613 17.7576 21.732 16.4376 22.723C15.7834 23.2142 15.0952 23.6768 14.3778 24.1124ZM14.6665 30.4078C14.1659 30.1405 13.5924 30.0565 13.0365 30.1664C12.9382 29.3753 12.4654 28.6771 11.7587 28.2999C10.7957 27.7859 9.60373 27.9743 8.84397 28.7516C8.6924 27.9675 8.48217 27.2039 7.59623 26.86C7.54326 26.8395 7.4549 26.8024 7.33928 26.7527L10.8716 18.7609L11.2783 18.9484C12.5146 19.6349 13.6609 19.3664 14.9064 19.0745C16.0265 18.812 17.244 18.5267 18.6226 19.1348C17.6165 19.9727 16.7435 20.9363 15.6905 21.727C14.9687 22.269 14.1771 22.7878 13.3262 23.2844C12.8907 23.5388 12.778 24.123 13.0873 24.5214C15.4549 27.5678 18.0207 26.5291 20.4515 25.5451C21.895 24.9607 23.2812 24.3995 24.3374 25.0016L30.4909 28.5089C31.0388 28.8212 31.2626 29.5156 30.9551 30.0795C30.6385 30.6273 29.9671 30.8549 29.4009 30.5473C27.9922 29.7413 26.5679 28.9595 25.1584 28.1527C24.8591 27.9814 24.4776 28.0852 24.3064 28.3846C24.1351 28.6839 24.239 29.0655 24.5383 29.2366C25.9467 30.0429 27.3626 30.8362 28.7785 31.6292C29.3322 31.9409 29.5466 32.6402 29.2382 33.2009C28.9401 33.7428 28.2189 33.9717 27.6738 33.6583L22.1 30.5219C21.7993 30.3534 21.4189 30.4605 21.2504 30.7612C21.0819 31.0619 21.189 31.4423 21.4897 31.6108C23.0062 32.4641 24.5194 33.3313 26.0357 34.1818C26.5947 34.4964 26.8038 35.1968 26.4922 35.7612C26.1828 36.314 25.4807 36.5157 24.9258 36.209L21.686 34.3752C21.4807 34.1234 21.2287 33.9174 20.9422 33.7644C20.3462 33.4459 19.6526 33.3877 19.013 33.5998C18.8338 32.9495 18.4015 32.4048 17.8044 32.0861C17.2084 31.768 16.5147 31.7097 15.8753 31.9216C15.6962 31.2714 15.2635 30.7263 14.6665 30.4078ZM17.5141 37.7415C17.4244 38.2515 17.6744 38.7744 18.1325 39.0194C18.7169 39.332 19.4539 39.1087 19.7665 38.5242L20.8497 36.4986C21.1625 35.9138 20.9343 35.1744 20.3547 34.8648C19.8683 34.6048 19.2548 34.7144 18.8865 35.1234L17.5141 37.7415ZM17.8162 34.5515C17.9518 34.0175 17.7049 33.447 17.2172 33.1867C16.7306 32.927 16.1171 33.036 15.7487 33.4452L14.2167 36.3835C14.1419 36.8859 14.3905 37.3898 14.8401 37.6302C15.3704 37.9139 16.0406 37.7572 16.3908 37.2689L17.8162 34.5515ZM14.6784 32.8732C14.814 32.3393 14.567 31.7687 14.0794 31.5084C13.6275 31.2673 13.0673 31.3411 12.6909 31.686L10.914 34.8656C10.6015 35.45 10.8249 36.187 11.4093 36.4995C12.0006 36.8158 12.7322 36.5853 13.0475 35.9964L14.6784 32.8732ZM11.7 30.9659C11.9617 30.3921 11.7286 29.6979 11.1715 29.4006C10.5869 29.0885 9.84998 29.3107 9.53717 29.8955L8.40732 32.0078C8.09482 32.5922 8.31818 33.3292 8.90256 33.6417C9.35193 33.882 9.90873 33.8095 10.2851 33.4689L11.7 30.9659ZM20 1.83922L28.2141 5.35953V12.0015C28.2141 14.3353 27.4138 16.414 26.0615 18.0377C25.5571 17.8323 25.0273 17.6248 24.4606 17.48C24.5983 17.3381 24.7304 17.1912 24.8568 17.0395C25.985 15.6855 26.6516 13.9567 26.6516 12.0015V6.80195C26.6516 6.52836 26.4758 6.29578 26.2309 6.21117L20.2441 3.64539C20.0817 3.57633 19.9064 3.58141 19.7558 3.64539L13.7292 6.2282C13.4921 6.32906 13.3498 6.55953 13.3497 6.80195L13.3483 12.0015C13.3483 13.9566 14.015 15.6855 15.1432 17.0395C15.3147 17.2453 15.4968 17.4422 15.6887 17.6298C15.324 17.6946 14.9697 17.7776 14.6232 17.8587C14.384 17.9148 14.1494 17.9698 13.9196 18.0148C12.5788 16.3945 11.7858 14.3244 11.7858 12.0015V5.35953L20 1.83922ZM20 4.8975L14.5983 7.21242V12.0014C14.5983 13.6554 15.1562 15.1105 16.1002 16.2436C16.5147 16.741 17.0045 17.1779 17.5551 17.5438C18.2411 17.6231 18.9696 17.8473 19.7534 18.3134C20.8868 17.6055 21.8917 17.3259 22.8014 17.2905C23.2086 16.9815 23.577 16.6309 23.8997 16.2435C24.8438 15.1105 25.4016 13.6554 25.4016 12.0013V7.21242L20 4.8975ZM23.821 10.3377C22.4875 11.6835 21.163 13.0382 19.8233 14.378C19.4317 14.7696 18.7964 14.7696 18.4047 14.378L16.1821 12.1554C15.7904 11.7637 15.7904 11.1284 16.1821 10.7368C16.5737 10.3452 17.2091 10.3452 17.6007 10.7368L19.1118 12.2479L22.4003 8.92664C22.7895 8.53351 23.4246 8.53234 23.8166 8.92227C24.2086 9.31195 24.2098 9.94523 23.821 10.3377ZM38.6767 26.9656L34.1988 15.415C33.9823 14.8565 33.3482 14.5767 32.7897 14.7932L30.5662 15.6552C30.0077 15.8717 29.7279 16.5059 29.9444 17.0643L34.4222 28.6149C34.6387 29.1734 35.2729 29.4532 35.8314 29.2367L38.0549 28.3747C38.6133 28.1583 38.8932 27.5241 38.6767 26.9656ZM32.4911 18.0629C32.0819 18.0629 31.7501 17.7312 31.7501 17.3219C31.7501 16.9126 32.0819 16.5809 32.4911 16.5809C32.9003 16.5809 33.2321 16.9126 33.2321 17.3219C33.2321 17.7311 32.9003 18.0629 32.4911 18.0629ZM9.96818 15.0187L7.78693 14.0547C7.23904 13.8125 6.59264 14.0627 6.35053 14.6105L1.34248 25.9414C1.10029 26.4893 1.35045 27.1356 1.89834 27.3778L4.07959 28.3419C4.6274 28.5841 5.27381 28.3339 5.51592 27.786L10.524 16.4552C10.7662 15.9073 10.5161 15.2609 9.96818 15.0187ZM7.93381 17.3346C7.52506 17.3156 7.20896 16.9689 7.22795 16.5601C7.24693 16.1512 7.59365 15.8352 8.00248 15.8542C8.41131 15.8731 8.72732 16.2199 8.70834 16.6287C8.68936 17.0375 8.34256 17.3536 7.93381 17.3346Z" fill="#CFA935"/>
</svg>
