<svg width="13" height="14" viewBox="0 0 13 14" fill="none" xmlns="http://www.w3.org/2000/svg">
<g clip-path="url(#clip0_150_584)">
<path d="M0 4.21101C0 3.78377 0.16972 3.37403 0.471824 3.07192C0.773928 2.76982 1.18367 2.6001 1.61091 2.6001H11.2764C11.7036 2.6001 12.1133 2.76982 12.4154 3.07192C12.7176 3.37403 12.8873 3.78377 12.8873 4.21101V10.6546C12.8873 11.0819 12.7176 11.4916 12.4154 11.7937C12.1133 12.0958 11.7036 12.2656 11.2764 12.2656H1.61091C1.18367 12.2656 0.773928 12.0958 0.471824 11.7937C0.16972 11.4916 0 11.0819 0 10.6546V4.21101ZM1.61091 3.40555C1.39729 3.40555 1.19242 3.49041 1.04137 3.64146C0.890315 3.79252 0.805454 3.99739 0.805454 4.21101V4.38579L6.44364 7.7687L12.0818 4.38579V4.21101C12.0818 3.99739 11.997 3.79252 11.8459 3.64146C11.6949 3.49041 11.49 3.40555 11.2764 3.40555H1.61091ZM12.0818 5.32495L8.28974 7.60036L12.0818 9.93376V5.32495ZM12.0544 10.8633L7.51167 8.06752L6.44364 8.70786L5.3756 8.06752L0.83284 10.8625C0.87861 11.0338 0.979688 11.1853 1.12038 11.2934C1.26107 11.4015 1.4335 11.4601 1.61091 11.4601H11.2764C11.4537 11.4601 11.626 11.4016 11.7667 11.2937C11.9074 11.1858 12.0085 11.0345 12.0544 10.8633ZM0.805454 9.93376L4.59753 7.60036L0.805454 5.32495V9.93376Z" fill="#5B5A5F"/>
</g>
<defs>
<clipPath id="clip0_150_584">
<rect width="12.8873" height="12.8873" fill="white" transform="translate(0 0.989258)"/>
</clipPath>
</defs>
</svg>
