<svg width="20" height="20" viewBox="0 0 20 20" fill="none" xmlns="http://www.w3.org/2000/svg">
<g id="Zone 1" clip-path="url(#clip0_28956_32623)">
<g id="Group">
<g id="Page-1_11_">
<g id="_x30_12---Target-Location">
<path id="Shape_75_" d="M7.83395 5.35708H8.92859C9.12582 5.35708 9.28574 5.1972 9.28574 4.99993V0.757782C9.27707 0.398446 9.52609 0.0840711 9.87789 0.010282C10.0855 -0.0251086 10.2982 0.0326648 10.4593 0.16829C10.6205 0.303915 10.7137 0.503602 10.7143 0.714188V4.99989C10.7143 5.19712 10.8742 5.35704 11.0715 5.35704H12.1697C12.2878 5.35704 12.3982 5.4154 12.4647 5.51294C12.5312 5.61048 12.5453 5.73462 12.5022 5.84454L10 12.2356L7.5 5.84278C7.45758 5.73282 7.47211 5.60899 7.53891 5.51188C7.60566 5.41477 7.71605 5.35684 7.83395 5.35708ZM6.7857 13.5713C6.7857 14.5106 8.40355 14.9999 10 14.9999C11.5964 14.9999 13.2143 14.5106 13.2143 13.5713C13.2143 12.7642 12.0393 12.3106 10.7857 12.1856L11.0607 11.4856C13.2893 11.7213 15 12.6892 15 13.7499C15 15.0071 12.7107 16.0714 10 16.0714C7.2893 16.0714 5 15.0071 5 13.7499C5 12.6892 6.7107 11.7214 8.9393 11.4856L9.2143 12.1856C7.9607 12.3106 6.7857 12.7642 6.7857 13.5713ZM9.6893 12.8714C9.8832 12.9761 10.1168 12.9761 10.3107 12.8714C11.7536 12.9249 12.5 13.3821 12.5 13.5714C12.5 13.7785 11.625 14.2857 10 14.2857C8.37504 14.2857 7.50004 13.7785 7.50004 13.5714C7.5 13.3821 8.24645 12.9249 9.6893 12.8714ZM4.2857 13.7499C4.2857 15.4535 6.79641 16.7856 10 16.7856C13.2036 16.7856 15.7143 15.4535 15.7143 13.7499C15.7143 12.3178 13.8964 11.1142 11.3286 10.7964L11.6036 10.0964C14.9821 10.4892 17.5 12.1071 17.5 13.9285C17.5 16.057 14.0643 17.857 10 17.857C5.9357 17.857 2.5 16.0571 2.5 13.9285C2.5 12.107 5.01785 10.4892 8.39645 10.0963L8.67144 10.7963C6.10355 11.1142 4.2857 12.3178 4.2857 13.7499ZM10 19.9999C4.4857 19.9999 0 17.4356 0 14.2856C0 11.5999 3.2893 9.28208 7.85355 8.71063L8.12856 9.41063C4.42855 9.88919 1.7857 11.7428 1.7857 13.9285C1.7857 16.532 5.39285 18.5713 10 18.5713C14.6071 18.5713 18.2143 16.532 18.2143 13.9285C18.2143 11.7428 15.5714 9.88919 11.8714 9.41063L12.1464 8.71063C16.7107 9.28208 20 11.5999 20 14.2856C20 17.4356 15.5143 19.9999 10 19.9999Z" fill="#CFA935"/>
</g>
</g>
</g>
</g>
<defs>
<clipPath id="clip0_28956_32623">
<rect width="20" height="20" fill="white"/>
</clipPath>
</defs>
</svg>
