<svg width="84" height="84" viewBox="0 0 84 84" fill="none" xmlns="http://www.w3.org/2000/svg">
<g clip-path="url(#clip0_11333_14038)">
<mask id="path-1-outside-1_11333_14038" maskUnits="userSpaceOnUse" x="18.2812" y="11.1003" width="65" height="80" fill="black">
<rect fill="white" x="18.2812" y="11.1003" width="65" height="80"/>
<path fill-rule="evenodd" clip-rule="evenodd" d="M71.3866 79.0882C69.836 81.1581 67.6986 79.813 66.2611 80.5062L68.6986 86.4936L69.5691 83.4801C69.6067 83.351 69.6729 83.2321 69.7629 83.1323C69.8529 83.0325 69.9643 82.9544 70.0887 82.9037C70.2132 82.8531 70.3476 82.8313 70.4817 82.8399C70.6158 82.8486 70.7462 82.8875 70.8631 82.9538L73.5897 84.5012L71.3866 79.0882ZM68.0535 61.7998C67.038 60.7843 65.7441 60.0927 64.3355 59.8125C62.9269 59.5323 61.4669 59.6761 60.14 60.2257C58.8131 60.7753 57.6791 61.706 56.8811 62.9001C56.0832 64.0943 55.6574 65.4982 55.6574 66.9344C55.6574 68.3706 56.0832 69.7745 56.8811 70.9687C57.6791 72.1628 58.8131 73.0936 60.14 73.6432C61.4669 74.1928 62.9269 74.3366 64.3355 74.0564C65.7441 73.7762 67.038 73.0846 68.0535 72.069C69.4152 70.7072 70.1802 68.8602 70.1802 66.9344C70.1802 65.0086 69.4152 63.1616 68.0535 61.7998ZM62.9185 57.8868C64.708 57.8868 66.4573 58.4174 67.9452 59.4116C69.4331 60.4057 70.5928 61.8188 71.2776 63.472C71.9624 65.1253 72.1416 66.9445 71.7925 68.6996C71.4434 70.4547 70.5817 72.0668 69.3163 73.3322C68.051 74.5975 66.4388 75.4592 64.6838 75.8083C62.9287 76.1574 61.1095 75.9782 59.4562 75.2934C57.803 74.6086 56.3899 73.4489 55.3957 71.961C54.4016 70.4731 53.871 68.7238 53.871 66.9343C53.8711 64.5348 54.8244 62.2336 56.5211 60.5369C58.2178 58.8402 60.519 57.887 62.9185 57.8868ZM63.3657 65.9845C63.4282 66.1385 63.5327 66.2719 63.6671 66.3695C63.8016 66.4672 63.9608 66.5252 64.1265 66.537V66.5398L65.2975 66.6264C63.821 67.8754 63.9325 67.5578 64.3911 69.4259C62.7485 68.4085 63.0846 68.4113 61.4463 69.4259L61.7282 68.2763C61.767 68.1157 61.7604 67.9476 61.7092 67.7906C61.6579 67.6336 61.564 67.4939 61.438 67.3872L60.5392 66.627C62.4768 66.4839 62.1908 66.6711 62.918 64.8914L63.3657 65.9845ZM63.7419 62.2054L64.8024 64.8005L67.6016 65.0076C67.7814 65.0204 67.9531 65.0874 68.094 65.1998C68.235 65.3121 68.3386 65.4645 68.3913 65.6369C68.444 65.8093 68.4432 65.9936 68.3891 66.1655C68.335 66.3374 68.23 66.4889 68.0881 66.6001L65.9708 68.3903L66.6394 71.1185C66.681 71.2921 66.6695 71.4741 66.6065 71.641C66.5434 71.8079 66.4317 71.952 66.2858 72.0547C66.1398 72.1574 65.9664 72.2139 65.788 72.2169C65.6096 72.2199 65.4344 72.1692 65.2852 72.0714L62.9188 70.6059L60.5309 72.0846C60.3808 72.1768 60.2067 72.2224 60.0306 72.2156C59.8546 72.2088 59.6845 72.15 59.5419 72.0466C59.3993 71.9432 59.2905 71.7998 59.2294 71.6346C59.1682 71.4694 59.1575 71.2897 59.1984 71.1184L59.8671 68.3902L57.7232 66.5767C57.5885 66.4619 57.4909 66.3097 57.4429 66.1394C57.3948 65.9691 57.3986 65.7883 57.4535 65.6201C57.5085 65.4519 57.6123 65.3038 57.7516 65.1947C57.8909 65.0856 58.0596 65.0204 58.2361 65.0074L61.0351 64.8004L62.0956 62.2053C62.1629 62.0422 62.277 61.9028 62.4236 61.8047C62.5702 61.7066 62.7426 61.6542 62.919 61.6542C63.0954 61.6542 63.2678 61.7066 63.4144 61.8047C63.561 61.9028 63.6747 62.0424 63.7419 62.2054ZM69.1915 34.1625C69.6949 33.647 70.3177 33.2636 71.0048 33.0464C71.6918 32.8291 72.4218 32.7848 73.1301 32.9171C73.8383 33.0495 74.503 33.3546 75.0652 33.8053C75.6274 34.256 76.0697 34.8385 76.3529 35.501C76.6361 36.1636 76.7515 36.8857 76.6889 37.6036C76.6263 38.3214 76.3875 39.0126 75.9938 39.6161C75.6001 40.2196 75.0636 40.7166 74.4318 41.0631C73.8001 41.4097 73.0926 41.595 72.3721 41.6027V41.5993C71.2107 41.6096 70.0926 41.159 69.2629 40.3462C68.4332 39.5334 67.9596 38.4249 67.9459 37.2635H67.9494C67.9428 36.6903 68.0491 36.1214 68.2624 35.5893C68.4757 35.0573 68.7908 34.5724 69.1915 34.1625ZM72.2952 34.6199C71.953 34.6247 71.6151 34.6969 71.3008 34.8323C70.9865 34.9678 70.7019 35.1639 70.4635 35.4094C70.225 35.655 70.0373 35.9451 69.9111 36.2632C69.7848 36.5813 69.7225 36.9212 69.7278 37.2635H69.7312C69.7427 37.9526 70.0273 38.6089 70.5225 39.0883C71.0177 39.5676 71.683 39.8307 72.3721 39.8197V39.8165C74.601 39.8165 75.8334 37.0077 74.1445 35.3606C73.9003 35.1215 73.6113 34.933 73.2941 34.8058C72.9768 34.6787 72.637 34.6156 72.2952 34.6199ZM56.7991 15.1505V23.3444H64.9928L56.7991 15.1505ZM26.2668 29.4328C26.0354 29.4245 25.8163 29.3268 25.6555 29.1602C25.4948 28.9936 25.4049 28.7711 25.4049 28.5396C25.4049 28.3081 25.4948 28.0856 25.6555 27.919C25.8163 27.7524 26.0354 27.6546 26.2668 27.6464H47.8762C48.1076 27.6546 48.3267 27.7524 48.4875 27.919C48.6482 28.0856 48.7381 28.3081 48.7381 28.5396C48.7381 28.7711 48.6482 28.9936 48.4875 29.1602C48.3267 29.3268 48.1076 29.4245 47.8762 29.4328H26.2668ZM26.2668 24.9182C26.0354 24.9099 25.8163 24.8122 25.6555 24.6456C25.4948 24.479 25.4049 24.2565 25.4049 24.025C25.4049 23.7935 25.4948 23.571 25.6555 23.4044C25.8163 23.2378 26.0354 23.1401 26.2668 23.1318H47.8762C48.1076 23.1401 48.3267 23.2378 48.4875 23.4044C48.6482 23.571 48.7381 23.7935 48.7381 24.025C48.7381 24.2565 48.6482 24.479 48.4875 24.6456C48.3267 24.8122 48.1076 24.9099 47.8762 24.9182H26.2668ZM26.2668 20.4036C26.0354 20.3953 25.8163 20.2976 25.6555 20.131C25.4948 19.9644 25.4049 19.7419 25.4049 19.5104C25.4049 19.2789 25.4948 19.0564 25.6555 18.8898C25.8163 18.7232 26.0354 18.6255 26.2668 18.6172H39.5796C39.8124 18.6235 40.0335 18.7204 40.196 18.8873C40.3584 19.0541 40.4493 19.2778 40.4493 19.5107C40.4493 19.7435 40.3584 19.9672 40.196 20.1341C40.0335 20.3009 39.8124 20.3978 39.5796 20.4041L26.2668 20.4036ZM26.2473 74.7309V78.3059H52.8433L53.3271 77.1166C52.9904 76.6011 52.6046 76.4256 51.9584 76.0967C51.2647 75.7438 50.5692 75.3899 50.095 74.7303L26.2473 74.7309ZM54.2867 79.4922C54.2765 79.5212 54.2649 79.5496 54.2519 79.5775L52.2473 84.5012L54.9739 82.9538C55.0908 82.8875 55.2213 82.8486 55.3554 82.8399C55.4895 82.8312 55.6239 82.853 55.7484 82.9036C55.8729 82.9543 55.9843 83.0324 56.0743 83.1323C56.1643 83.2321 56.2305 83.351 56.268 83.4801L57.1384 86.4935L59.5759 80.506C58.1384 79.8133 56.0009 81.1581 54.4506 79.088L54.2867 79.4922ZM71.4351 54.8469V47.5091L70.6157 47.5193C70.41 47.5217 70.2098 47.4528 70.0492 47.3242C69.8886 47.1957 69.7775 47.0155 69.7347 46.8142L69.4021 45.2794L68.7536 45.0137L68.0421 45.4983V53.5635C69.4533 53.5126 70.5417 53.6027 71.4351 54.8469ZM71.4351 26.9535L70.5398 26.9645C70.3259 26.956 70.1162 27.0246 69.9488 27.158C69.7814 27.2913 69.6676 27.4804 69.6281 27.6908L69.3456 29.1796L68.6977 29.4518L68.0421 29.0293V24.2375C68.0423 24.1202 68.0192 24.004 67.9743 23.8956C67.9294 23.7873 67.8636 23.6888 67.7805 23.606L63.4232 19.2489H71.4345L71.4351 26.9535ZM72.4191 28.7208L71.2434 28.7353L71.0071 29.9802C70.8906 30.692 70.3063 30.7032 69.7092 30.9526C69.1346 31.1928 68.7136 31.5826 68.1619 31.2276L67.0216 30.4919L65.5624 31.9881L66.2915 33.0589C66.6875 33.6292 66.2792 34.0664 66.0437 34.6391C65.8082 35.2117 65.7891 35.7912 65.1394 35.9302L63.8175 36.2152L63.8436 38.3048L65.0885 38.5412C65.8001 38.6576 65.8113 39.2416 66.0609 39.8386C66.3011 40.4132 66.6909 40.8342 66.336 41.3859L65.6001 42.5265L67.0962 43.9858L68.1669 43.2568C68.7372 42.8606 69.1744 43.2691 69.7472 43.5046C70.3201 43.7401 70.8994 43.7592 71.0383 44.4087L71.3233 45.7307L73.4129 45.7045L73.6492 44.4596C73.7657 43.7479 74.3497 43.7366 74.9469 43.4872C75.5214 43.247 75.9424 42.8572 76.4941 43.2121L77.6345 43.9481L79.0939 42.4519L78.3648 41.3812C77.9688 40.811 78.3771 40.3737 78.6126 39.8011C78.8489 39.2261 78.8674 38.6486 79.5169 38.5098L80.8387 38.2248L80.8127 36.1352L79.5676 35.899C78.856 35.7824 78.8445 35.1978 78.5952 34.6014C78.3552 34.0268 77.9652 33.6059 78.3203 33.0542L79.0562 31.9135L77.5601 30.4542L76.4892 31.1832C75.9192 31.5792 75.4817 31.171 74.9091 30.9356C74.3392 30.7012 73.7574 30.6827 73.618 30.0312L73.333 28.7095L72.4191 28.7208ZM61.6369 17.4628H72.3282C72.5653 17.4628 72.7926 17.557 72.9602 17.7246C73.1278 17.8922 73.222 18.1196 73.222 18.3566V26.932L74.0415 26.9218C74.2472 26.9194 74.4474 26.9884 74.608 27.1169C74.7686 27.2454 74.8798 27.4257 74.9226 27.6269L75.255 29.1614L75.9036 29.4274L77.1587 28.5728C77.3335 28.4535 77.5451 28.4003 77.7556 28.4227C77.966 28.4452 78.1616 28.5417 78.3074 28.6952L80.8216 31.1476C80.9688 31.2908 81.062 31.4805 81.0854 31.6845C81.1089 31.8885 81.0612 32.0944 80.9503 32.2672L80.0965 33.5905L80.3684 34.238L81.8576 34.5208C82.0679 34.5602 82.2571 34.674 82.3904 34.8414C82.5238 35.0088 82.5924 35.2186 82.5838 35.4324L82.6275 38.9333C82.6299 39.139 82.5609 39.3392 82.4324 39.4999C82.3039 39.6605 82.1236 39.7716 81.9224 39.8144L80.3876 40.147L80.1219 40.7954L80.9765 42.0506C81.0958 42.2254 81.1489 42.437 81.1265 42.6475C81.104 42.858 81.0074 43.0536 80.854 43.1994L78.4017 45.7135C78.2585 45.8607 78.0688 45.954 77.8648 45.9774C77.6608 46.0009 77.4549 45.9531 77.2821 45.8422L75.9588 44.9884L75.3111 45.2604L75.0285 46.7494C74.9891 46.9598 74.8753 47.149 74.708 47.2823C74.5406 47.4157 74.3307 47.4844 74.1169 47.4758L73.2215 47.4868V57.418C74.1465 57.9752 75.2578 58.2861 75.8836 59.3545C76.6473 60.6578 76.0826 62.2586 76.3511 63.2342C76.6168 64.2003 77.9381 65.3578 77.9381 66.9347C77.9381 68.5116 76.6168 69.669 76.3511 70.6353C76.0828 71.6103 76.647 73.2117 75.8836 74.5148C75.1182 75.8216 73.4565 76.1006 72.7709 76.7864C72.6731 76.8876 72.586 76.9987 72.5109 77.1177L76.2126 86.2091C76.2813 86.3804 76.2937 86.5689 76.2508 86.7484C76.2078 86.928 76.1102 87.0898 75.9714 87.2115C75.8326 87.3332 75.6594 87.4088 75.4758 87.4278C75.2922 87.4469 75.1072 87.4086 74.9463 87.318L70.9663 85.0593L69.7141 89.3944C69.6741 89.581 69.5753 89.7499 69.4322 89.8762C69.2892 90.0025 69.1094 90.0797 68.9193 90.0963C68.7292 90.1129 68.5387 90.0682 68.3759 89.9686C68.2131 89.869 68.0865 89.7199 68.0147 89.5431L64.7091 81.4249C63.4276 82.1317 62.4107 82.1317 61.1292 81.4249L57.8236 89.5433C57.7518 89.72 57.6252 89.8691 57.4624 89.9686C57.2996 90.0681 57.1092 90.1128 56.9191 90.0962C56.7291 90.0796 56.5493 90.0024 56.4063 89.8762C56.2633 89.7499 56.1645 89.5811 56.1244 89.3946L54.872 85.0594L50.8922 87.3182C50.7313 87.4087 50.5463 87.447 50.3627 87.4279C50.1791 87.4088 50.006 87.3332 49.8671 87.2115C49.7283 87.0899 49.6307 86.9281 49.5877 86.7486C49.5447 86.5691 49.5585 86.3806 49.6271 86.2093L52.1163 80.0924H25.3542C25.1172 80.0924 24.8898 79.9983 24.7222 79.8307C24.5546 79.6631 24.4604 79.4357 24.4604 79.1987V74.7299H20.175C19.938 74.7299 19.7106 74.6358 19.543 74.4682C19.3754 74.3006 19.2812 74.0732 19.2812 73.8362V12.9941C19.2812 12.7571 19.3754 12.5297 19.543 12.3621C19.7106 12.1945 19.938 12.1003 20.175 12.1003H55.906C56.0252 12.1002 56.1432 12.124 56.2531 12.1703C56.3629 12.2167 56.4623 12.2846 56.5454 12.3701L61.6369 17.4628ZM51.3168 61.1508C51.3011 60.8424 51.3603 60.5349 51.4896 60.2545C51.882 59.5843 53.4202 59.2557 54.3302 58.3457C55.2402 57.4357 55.5688 55.8975 56.239 55.5051C56.914 55.1095 58.4213 55.567 59.6859 55.2191C60.9654 54.8671 62.03 53.7016 62.9197 53.7016C64.0084 53.7016 65.1994 55.3606 67.1495 55.3606C69.4824 55.3606 69.5802 54.9916 70.4918 56.7834C71.2492 58.2721 71.5817 58.6048 73.0705 59.3622C74.4992 60.089 74.5673 60.2072 74.5083 61.8201C74.4474 63.4888 74.5733 63.9471 75.4616 65.361C76.38 66.8219 76.38 67.047 75.4616 68.5077C74.5727 69.9214 74.4472 70.38 74.5083 72.0484C74.5675 73.6623 74.4992 73.7796 73.0704 74.5065C71.5817 75.2639 71.2491 75.5967 70.4917 77.0854C69.7648 78.5141 69.6467 78.5822 68.0337 78.5232C66.3401 78.4614 65.8874 78.6005 64.493 79.4764C63.0305 80.395 62.808 80.395 61.3462 79.4764C59.9519 78.6005 59.499 78.4613 57.8055 78.5232C56.1917 78.5822 56.0742 78.5139 55.3473 77.0854C54.5899 75.5966 54.2574 75.2641 52.7684 74.5065C51.3197 73.7694 51.2723 73.6417 51.3306 72.0485C51.3917 70.3798 51.2664 69.9217 50.3776 68.5078C49.436 67.0105 49.4895 66.7733 50.3776 65.361C51.2656 63.9487 51.3919 63.4885 51.3306 61.8201L51.3168 61.1508ZM32.3864 60.3654V45.72H28.8676V60.3654H32.3864ZM41.0764 60.3654V42.2509H37.5576V60.3654H41.0764ZM49.7664 59.7422V48.5696H46.2476V60.3654H49.5969C49.6317 60.1524 49.6885 59.9436 49.7664 59.7422ZM58.4564 53.5804V40.0341H54.9376V54.2558C56.0101 53.3385 57.2309 53.5833 58.4564 53.5804ZM53.1513 56.9911C52.8139 57.3894 52.0864 57.6972 51.5526 57.9811V47.6763C51.5526 47.4393 51.4585 47.2119 51.2908 47.0443C51.1232 46.8767 50.8959 46.7826 50.6589 46.7826H45.3544C45.1173 46.7826 44.89 46.8767 44.7224 47.0443C44.5548 47.2119 44.4606 47.4393 44.4606 47.6763V60.3654H42.8621V41.3578C42.8621 41.1208 42.7679 40.8934 42.6003 40.7258C42.4327 40.5582 42.2054 40.4641 41.9684 40.4641H36.6645C36.4275 40.4641 36.2002 40.5582 36.0325 40.7258C35.8649 40.8934 35.7708 41.1208 35.7708 41.3578V60.3654H34.1721V44.8267C34.1721 44.5897 34.0779 44.3623 33.9103 44.1947C33.7427 44.0271 33.5154 43.933 33.2784 43.933H27.9745C27.7375 43.933 27.5101 44.0271 27.3425 44.1947C27.1749 44.3623 27.0808 44.5897 27.0808 44.8267V60.3654H26.2661C26.0348 60.3737 25.8156 60.4714 25.6549 60.638C25.4941 60.8046 25.4043 61.0271 25.4043 61.2586C25.4043 61.4901 25.4941 61.7126 25.6549 61.8792C25.8156 62.0458 26.0348 62.1435 26.2661 62.1518H49.5599C49.5857 62.5141 49.5612 62.8783 49.4871 63.2339C49.3408 63.7656 48.7025 64.6285 48.3796 65.2349H26.2668C26.0358 65.2437 25.8173 65.3417 25.657 65.5082C25.4967 65.6747 25.4071 65.8969 25.4071 66.128C25.4071 66.3591 25.4967 66.5813 25.657 66.7478C25.8173 66.9143 26.0358 67.0123 26.2668 67.0211H47.9012C47.9464 68.5486 49.2271 69.6894 49.4871 70.6349C49.6405 71.1926 49.5108 72.2409 49.541 72.9446H21.0681V13.8878H55.0129V24.2375C55.0129 24.4745 55.107 24.7018 55.2747 24.8694C55.4423 25.0371 55.6696 25.1312 55.9066 25.1312H66.2564V28.727L63.8027 31.2422C63.6492 31.388 63.5527 31.5836 63.5303 31.794C63.5078 32.0045 63.561 32.2161 63.6803 32.3909L64.5349 33.6461L64.2694 34.2944L62.7344 34.6254V34.6272C62.5332 34.67 62.353 34.7811 62.2244 34.9417C62.0959 35.1023 62.0269 35.3024 62.0293 35.5081L62.0729 39.0092C62.0643 39.2231 62.133 39.4329 62.2663 39.6002C62.3997 39.7676 62.5889 39.8814 62.7992 39.9208L64.2882 40.2034L64.5602 40.8511L63.7065 42.1744C63.5956 42.3473 63.5479 42.5531 63.5714 42.7571C63.5948 42.9611 63.688 43.1508 63.8352 43.294L66.2555 45.6548V53.3605C65.2317 52.8644 64.3055 51.9159 62.9187 51.9159C61.8722 51.9159 61.0634 52.4702 60.2423 52.9823V39.1403C60.2423 38.9033 60.1481 38.676 59.9805 38.5084C59.8129 38.3408 59.5856 38.2466 59.3485 38.2466H54.0444C53.8074 38.2466 53.58 38.3408 53.4124 38.5084C53.2448 38.676 53.1506 38.9033 53.1506 39.1403L53.1513 56.9911Z"/>
</mask>
<path fill-rule="evenodd" clip-rule="evenodd" d="M71.3866 79.0882C69.836 81.1581 67.6986 79.813 66.2611 80.5062L68.6986 86.4936L69.5691 83.4801C69.6067 83.351 69.6729 83.2321 69.7629 83.1323C69.8529 83.0325 69.9643 82.9544 70.0887 82.9037C70.2132 82.8531 70.3476 82.8313 70.4817 82.8399C70.6158 82.8486 70.7462 82.8875 70.8631 82.9538L73.5897 84.5012L71.3866 79.0882ZM68.0535 61.7998C67.038 60.7843 65.7441 60.0927 64.3355 59.8125C62.9269 59.5323 61.4669 59.6761 60.14 60.2257C58.8131 60.7753 57.6791 61.706 56.8811 62.9001C56.0832 64.0943 55.6574 65.4982 55.6574 66.9344C55.6574 68.3706 56.0832 69.7745 56.8811 70.9687C57.6791 72.1628 58.8131 73.0936 60.14 73.6432C61.4669 74.1928 62.9269 74.3366 64.3355 74.0564C65.7441 73.7762 67.038 73.0846 68.0535 72.069C69.4152 70.7072 70.1802 68.8602 70.1802 66.9344C70.1802 65.0086 69.4152 63.1616 68.0535 61.7998ZM62.9185 57.8868C64.708 57.8868 66.4573 58.4174 67.9452 59.4116C69.4331 60.4057 70.5928 61.8188 71.2776 63.472C71.9624 65.1253 72.1416 66.9445 71.7925 68.6996C71.4434 70.4547 70.5817 72.0668 69.3163 73.3322C68.051 74.5975 66.4388 75.4592 64.6838 75.8083C62.9287 76.1574 61.1095 75.9782 59.4562 75.2934C57.803 74.6086 56.3899 73.4489 55.3957 71.961C54.4016 70.4731 53.871 68.7238 53.871 66.9343C53.8711 64.5348 54.8244 62.2336 56.5211 60.5369C58.2178 58.8402 60.519 57.887 62.9185 57.8868ZM63.3657 65.9845C63.4282 66.1385 63.5327 66.2719 63.6671 66.3695C63.8016 66.4672 63.9608 66.5252 64.1265 66.537V66.5398L65.2975 66.6264C63.821 67.8754 63.9325 67.5578 64.3911 69.4259C62.7485 68.4085 63.0846 68.4113 61.4463 69.4259L61.7282 68.2763C61.767 68.1157 61.7604 67.9476 61.7092 67.7906C61.6579 67.6336 61.564 67.4939 61.438 67.3872L60.5392 66.627C62.4768 66.4839 62.1908 66.6711 62.918 64.8914L63.3657 65.9845ZM63.7419 62.2054L64.8024 64.8005L67.6016 65.0076C67.7814 65.0204 67.9531 65.0874 68.094 65.1998C68.235 65.3121 68.3386 65.4645 68.3913 65.6369C68.444 65.8093 68.4432 65.9936 68.3891 66.1655C68.335 66.3374 68.23 66.4889 68.0881 66.6001L65.9708 68.3903L66.6394 71.1185C66.681 71.2921 66.6695 71.4741 66.6065 71.641C66.5434 71.8079 66.4317 71.952 66.2858 72.0547C66.1398 72.1574 65.9664 72.2139 65.788 72.2169C65.6096 72.2199 65.4344 72.1692 65.2852 72.0714L62.9188 70.6059L60.5309 72.0846C60.3808 72.1768 60.2067 72.2224 60.0306 72.2156C59.8546 72.2088 59.6845 72.15 59.5419 72.0466C59.3993 71.9432 59.2905 71.7998 59.2294 71.6346C59.1682 71.4694 59.1575 71.2897 59.1984 71.1184L59.8671 68.3902L57.7232 66.5767C57.5885 66.4619 57.4909 66.3097 57.4429 66.1394C57.3948 65.9691 57.3986 65.7883 57.4535 65.6201C57.5085 65.4519 57.6123 65.3038 57.7516 65.1947C57.8909 65.0856 58.0596 65.0204 58.2361 65.0074L61.0351 64.8004L62.0956 62.2053C62.1629 62.0422 62.277 61.9028 62.4236 61.8047C62.5702 61.7066 62.7426 61.6542 62.919 61.6542C63.0954 61.6542 63.2678 61.7066 63.4144 61.8047C63.561 61.9028 63.6747 62.0424 63.7419 62.2054ZM69.1915 34.1625C69.6949 33.647 70.3177 33.2636 71.0048 33.0464C71.6918 32.8291 72.4218 32.7848 73.1301 32.9171C73.8383 33.0495 74.503 33.3546 75.0652 33.8053C75.6274 34.256 76.0697 34.8385 76.3529 35.501C76.6361 36.1636 76.7515 36.8857 76.6889 37.6036C76.6263 38.3214 76.3875 39.0126 75.9938 39.6161C75.6001 40.2196 75.0636 40.7166 74.4318 41.0631C73.8001 41.4097 73.0926 41.595 72.3721 41.6027V41.5993C71.2107 41.6096 70.0926 41.159 69.2629 40.3462C68.4332 39.5334 67.9596 38.4249 67.9459 37.2635H67.9494C67.9428 36.6903 68.0491 36.1214 68.2624 35.5893C68.4757 35.0573 68.7908 34.5724 69.1915 34.1625ZM72.2952 34.6199C71.953 34.6247 71.6151 34.6969 71.3008 34.8323C70.9865 34.9678 70.7019 35.1639 70.4635 35.4094C70.225 35.655 70.0373 35.9451 69.9111 36.2632C69.7848 36.5813 69.7225 36.9212 69.7278 37.2635H69.7312C69.7427 37.9526 70.0273 38.6089 70.5225 39.0883C71.0177 39.5676 71.683 39.8307 72.3721 39.8197V39.8165C74.601 39.8165 75.8334 37.0077 74.1445 35.3606C73.9003 35.1215 73.6113 34.933 73.2941 34.8058C72.9768 34.6787 72.637 34.6156 72.2952 34.6199ZM56.7991 15.1505V23.3444H64.9928L56.7991 15.1505ZM26.2668 29.4328C26.0354 29.4245 25.8163 29.3268 25.6555 29.1602C25.4948 28.9936 25.4049 28.7711 25.4049 28.5396C25.4049 28.3081 25.4948 28.0856 25.6555 27.919C25.8163 27.7524 26.0354 27.6546 26.2668 27.6464H47.8762C48.1076 27.6546 48.3267 27.7524 48.4875 27.919C48.6482 28.0856 48.7381 28.3081 48.7381 28.5396C48.7381 28.7711 48.6482 28.9936 48.4875 29.1602C48.3267 29.3268 48.1076 29.4245 47.8762 29.4328H26.2668ZM26.2668 24.9182C26.0354 24.9099 25.8163 24.8122 25.6555 24.6456C25.4948 24.479 25.4049 24.2565 25.4049 24.025C25.4049 23.7935 25.4948 23.571 25.6555 23.4044C25.8163 23.2378 26.0354 23.1401 26.2668 23.1318H47.8762C48.1076 23.1401 48.3267 23.2378 48.4875 23.4044C48.6482 23.571 48.7381 23.7935 48.7381 24.025C48.7381 24.2565 48.6482 24.479 48.4875 24.6456C48.3267 24.8122 48.1076 24.9099 47.8762 24.9182H26.2668ZM26.2668 20.4036C26.0354 20.3953 25.8163 20.2976 25.6555 20.131C25.4948 19.9644 25.4049 19.7419 25.4049 19.5104C25.4049 19.2789 25.4948 19.0564 25.6555 18.8898C25.8163 18.7232 26.0354 18.6255 26.2668 18.6172H39.5796C39.8124 18.6235 40.0335 18.7204 40.196 18.8873C40.3584 19.0541 40.4493 19.2778 40.4493 19.5107C40.4493 19.7435 40.3584 19.9672 40.196 20.1341C40.0335 20.3009 39.8124 20.3978 39.5796 20.4041L26.2668 20.4036ZM26.2473 74.7309V78.3059H52.8433L53.3271 77.1166C52.9904 76.6011 52.6046 76.4256 51.9584 76.0967C51.2647 75.7438 50.5692 75.3899 50.095 74.7303L26.2473 74.7309ZM54.2867 79.4922C54.2765 79.5212 54.2649 79.5496 54.2519 79.5775L52.2473 84.5012L54.9739 82.9538C55.0908 82.8875 55.2213 82.8486 55.3554 82.8399C55.4895 82.8312 55.6239 82.853 55.7484 82.9036C55.8729 82.9543 55.9843 83.0324 56.0743 83.1323C56.1643 83.2321 56.2305 83.351 56.268 83.4801L57.1384 86.4935L59.5759 80.506C58.1384 79.8133 56.0009 81.1581 54.4506 79.088L54.2867 79.4922ZM71.4351 54.8469V47.5091L70.6157 47.5193C70.41 47.5217 70.2098 47.4528 70.0492 47.3242C69.8886 47.1957 69.7775 47.0155 69.7347 46.8142L69.4021 45.2794L68.7536 45.0137L68.0421 45.4983V53.5635C69.4533 53.5126 70.5417 53.6027 71.4351 54.8469ZM71.4351 26.9535L70.5398 26.9645C70.3259 26.956 70.1162 27.0246 69.9488 27.158C69.7814 27.2913 69.6676 27.4804 69.6281 27.6908L69.3456 29.1796L68.6977 29.4518L68.0421 29.0293V24.2375C68.0423 24.1202 68.0192 24.004 67.9743 23.8956C67.9294 23.7873 67.8636 23.6888 67.7805 23.606L63.4232 19.2489H71.4345L71.4351 26.9535ZM72.4191 28.7208L71.2434 28.7353L71.0071 29.9802C70.8906 30.692 70.3063 30.7032 69.7092 30.9526C69.1346 31.1928 68.7136 31.5826 68.1619 31.2276L67.0216 30.4919L65.5624 31.9881L66.2915 33.0589C66.6875 33.6292 66.2792 34.0664 66.0437 34.6391C65.8082 35.2117 65.7891 35.7912 65.1394 35.9302L63.8175 36.2152L63.8436 38.3048L65.0885 38.5412C65.8001 38.6576 65.8113 39.2416 66.0609 39.8386C66.3011 40.4132 66.6909 40.8342 66.336 41.3859L65.6001 42.5265L67.0962 43.9858L68.1669 43.2568C68.7372 42.8606 69.1744 43.2691 69.7472 43.5046C70.3201 43.7401 70.8994 43.7592 71.0383 44.4087L71.3233 45.7307L73.4129 45.7045L73.6492 44.4596C73.7657 43.7479 74.3497 43.7366 74.9469 43.4872C75.5214 43.247 75.9424 42.8572 76.4941 43.2121L77.6345 43.9481L79.0939 42.4519L78.3648 41.3812C77.9688 40.811 78.3771 40.3737 78.6126 39.8011C78.8489 39.2261 78.8674 38.6486 79.5169 38.5098L80.8387 38.2248L80.8127 36.1352L79.5676 35.899C78.856 35.7824 78.8445 35.1978 78.5952 34.6014C78.3552 34.0268 77.9652 33.6059 78.3203 33.0542L79.0562 31.9135L77.5601 30.4542L76.4892 31.1832C75.9192 31.5792 75.4817 31.171 74.9091 30.9356C74.3392 30.7012 73.7574 30.6827 73.618 30.0312L73.333 28.7095L72.4191 28.7208ZM61.6369 17.4628H72.3282C72.5653 17.4628 72.7926 17.557 72.9602 17.7246C73.1278 17.8922 73.222 18.1196 73.222 18.3566V26.932L74.0415 26.9218C74.2472 26.9194 74.4474 26.9884 74.608 27.1169C74.7686 27.2454 74.8798 27.4257 74.9226 27.6269L75.255 29.1614L75.9036 29.4274L77.1587 28.5728C77.3335 28.4535 77.5451 28.4003 77.7556 28.4227C77.966 28.4452 78.1616 28.5417 78.3074 28.6952L80.8216 31.1476C80.9688 31.2908 81.062 31.4805 81.0854 31.6845C81.1089 31.8885 81.0612 32.0944 80.9503 32.2672L80.0965 33.5905L80.3684 34.238L81.8576 34.5208C82.0679 34.5602 82.2571 34.674 82.3904 34.8414C82.5238 35.0088 82.5924 35.2186 82.5838 35.4324L82.6275 38.9333C82.6299 39.139 82.5609 39.3392 82.4324 39.4999C82.3039 39.6605 82.1236 39.7716 81.9224 39.8144L80.3876 40.147L80.1219 40.7954L80.9765 42.0506C81.0958 42.2254 81.1489 42.437 81.1265 42.6475C81.104 42.858 81.0074 43.0536 80.854 43.1994L78.4017 45.7135C78.2585 45.8607 78.0688 45.954 77.8648 45.9774C77.6608 46.0009 77.4549 45.9531 77.2821 45.8422L75.9588 44.9884L75.3111 45.2604L75.0285 46.7494C74.9891 46.9598 74.8753 47.149 74.708 47.2823C74.5406 47.4157 74.3307 47.4844 74.1169 47.4758L73.2215 47.4868V57.418C74.1465 57.9752 75.2578 58.2861 75.8836 59.3545C76.6473 60.6578 76.0826 62.2586 76.3511 63.2342C76.6168 64.2003 77.9381 65.3578 77.9381 66.9347C77.9381 68.5116 76.6168 69.669 76.3511 70.6353C76.0828 71.6103 76.647 73.2117 75.8836 74.5148C75.1182 75.8216 73.4565 76.1006 72.7709 76.7864C72.6731 76.8876 72.586 76.9987 72.5109 77.1177L76.2126 86.2091C76.2813 86.3804 76.2937 86.5689 76.2508 86.7484C76.2078 86.928 76.1102 87.0898 75.9714 87.2115C75.8326 87.3332 75.6594 87.4088 75.4758 87.4278C75.2922 87.4469 75.1072 87.4086 74.9463 87.318L70.9663 85.0593L69.7141 89.3944C69.6741 89.581 69.5753 89.7499 69.4322 89.8762C69.2892 90.0025 69.1094 90.0797 68.9193 90.0963C68.7292 90.1129 68.5387 90.0682 68.3759 89.9686C68.2131 89.869 68.0865 89.7199 68.0147 89.5431L64.7091 81.4249C63.4276 82.1317 62.4107 82.1317 61.1292 81.4249L57.8236 89.5433C57.7518 89.72 57.6252 89.8691 57.4624 89.9686C57.2996 90.0681 57.1092 90.1128 56.9191 90.0962C56.7291 90.0796 56.5493 90.0024 56.4063 89.8762C56.2633 89.7499 56.1645 89.5811 56.1244 89.3946L54.872 85.0594L50.8922 87.3182C50.7313 87.4087 50.5463 87.447 50.3627 87.4279C50.1791 87.4088 50.006 87.3332 49.8671 87.2115C49.7283 87.0899 49.6307 86.9281 49.5877 86.7486C49.5447 86.5691 49.5585 86.3806 49.6271 86.2093L52.1163 80.0924H25.3542C25.1172 80.0924 24.8898 79.9983 24.7222 79.8307C24.5546 79.6631 24.4604 79.4357 24.4604 79.1987V74.7299H20.175C19.938 74.7299 19.7106 74.6358 19.543 74.4682C19.3754 74.3006 19.2812 74.0732 19.2812 73.8362V12.9941C19.2812 12.7571 19.3754 12.5297 19.543 12.3621C19.7106 12.1945 19.938 12.1003 20.175 12.1003H55.906C56.0252 12.1002 56.1432 12.124 56.2531 12.1703C56.3629 12.2167 56.4623 12.2846 56.5454 12.3701L61.6369 17.4628ZM51.3168 61.1508C51.3011 60.8424 51.3603 60.5349 51.4896 60.2545C51.882 59.5843 53.4202 59.2557 54.3302 58.3457C55.2402 57.4357 55.5688 55.8975 56.239 55.5051C56.914 55.1095 58.4213 55.567 59.6859 55.2191C60.9654 54.8671 62.03 53.7016 62.9197 53.7016C64.0084 53.7016 65.1994 55.3606 67.1495 55.3606C69.4824 55.3606 69.5802 54.9916 70.4918 56.7834C71.2492 58.2721 71.5817 58.6048 73.0705 59.3622C74.4992 60.089 74.5673 60.2072 74.5083 61.8201C74.4474 63.4888 74.5733 63.9471 75.4616 65.361C76.38 66.8219 76.38 67.047 75.4616 68.5077C74.5727 69.9214 74.4472 70.38 74.5083 72.0484C74.5675 73.6623 74.4992 73.7796 73.0704 74.5065C71.5817 75.2639 71.2491 75.5967 70.4917 77.0854C69.7648 78.5141 69.6467 78.5822 68.0337 78.5232C66.3401 78.4614 65.8874 78.6005 64.493 79.4764C63.0305 80.395 62.808 80.395 61.3462 79.4764C59.9519 78.6005 59.499 78.4613 57.8055 78.5232C56.1917 78.5822 56.0742 78.5139 55.3473 77.0854C54.5899 75.5966 54.2574 75.2641 52.7684 74.5065C51.3197 73.7694 51.2723 73.6417 51.3306 72.0485C51.3917 70.3798 51.2664 69.9217 50.3776 68.5078C49.436 67.0105 49.4895 66.7733 50.3776 65.361C51.2656 63.9487 51.3919 63.4885 51.3306 61.8201L51.3168 61.1508ZM32.3864 60.3654V45.72H28.8676V60.3654H32.3864ZM41.0764 60.3654V42.2509H37.5576V60.3654H41.0764ZM49.7664 59.7422V48.5696H46.2476V60.3654H49.5969C49.6317 60.1524 49.6885 59.9436 49.7664 59.7422ZM58.4564 53.5804V40.0341H54.9376V54.2558C56.0101 53.3385 57.2309 53.5833 58.4564 53.5804ZM53.1513 56.9911C52.8139 57.3894 52.0864 57.6972 51.5526 57.9811V47.6763C51.5526 47.4393 51.4585 47.2119 51.2908 47.0443C51.1232 46.8767 50.8959 46.7826 50.6589 46.7826H45.3544C45.1173 46.7826 44.89 46.8767 44.7224 47.0443C44.5548 47.2119 44.4606 47.4393 44.4606 47.6763V60.3654H42.8621V41.3578C42.8621 41.1208 42.7679 40.8934 42.6003 40.7258C42.4327 40.5582 42.2054 40.4641 41.9684 40.4641H36.6645C36.4275 40.4641 36.2002 40.5582 36.0325 40.7258C35.8649 40.8934 35.7708 41.1208 35.7708 41.3578V60.3654H34.1721V44.8267C34.1721 44.5897 34.0779 44.3623 33.9103 44.1947C33.7427 44.0271 33.5154 43.933 33.2784 43.933H27.9745C27.7375 43.933 27.5101 44.0271 27.3425 44.1947C27.1749 44.3623 27.0808 44.5897 27.0808 44.8267V60.3654H26.2661C26.0348 60.3737 25.8156 60.4714 25.6549 60.638C25.4941 60.8046 25.4043 61.0271 25.4043 61.2586C25.4043 61.4901 25.4941 61.7126 25.6549 61.8792C25.8156 62.0458 26.0348 62.1435 26.2661 62.1518H49.5599C49.5857 62.5141 49.5612 62.8783 49.4871 63.2339C49.3408 63.7656 48.7025 64.6285 48.3796 65.2349H26.2668C26.0358 65.2437 25.8173 65.3417 25.657 65.5082C25.4967 65.6747 25.4071 65.8969 25.4071 66.128C25.4071 66.3591 25.4967 66.5813 25.657 66.7478C25.8173 66.9143 26.0358 67.0123 26.2668 67.0211H47.9012C47.9464 68.5486 49.2271 69.6894 49.4871 70.6349C49.6405 71.1926 49.5108 72.2409 49.541 72.9446H21.0681V13.8878H55.0129V24.2375C55.0129 24.4745 55.107 24.7018 55.2747 24.8694C55.4423 25.0371 55.6696 25.1312 55.9066 25.1312H66.2564V28.727L63.8027 31.2422C63.6492 31.388 63.5527 31.5836 63.5303 31.794C63.5078 32.0045 63.561 32.2161 63.6803 32.3909L64.5349 33.6461L64.2694 34.2944L62.7344 34.6254V34.6272C62.5332 34.67 62.353 34.7811 62.2244 34.9417C62.0959 35.1023 62.0269 35.3024 62.0293 35.5081L62.0729 39.0092C62.0643 39.2231 62.133 39.4329 62.2663 39.6002C62.3997 39.7676 62.5889 39.8814 62.7992 39.9208L64.2882 40.2034L64.5602 40.8511L63.7065 42.1744C63.5956 42.3473 63.5479 42.5531 63.5714 42.7571C63.5948 42.9611 63.688 43.1508 63.8352 43.294L66.2555 45.6548V53.3605C65.2317 52.8644 64.3055 51.9159 62.9187 51.9159C61.8722 51.9159 61.0634 52.4702 60.2423 52.9823V39.1403C60.2423 38.9033 60.1481 38.676 59.9805 38.5084C59.8129 38.3408 59.5856 38.2466 59.3485 38.2466H54.0444C53.8074 38.2466 53.58 38.3408 53.4124 38.5084C53.2448 38.676 53.1506 38.9033 53.1506 39.1403L53.1513 56.9911Z" fill="white"/>
<path fill-rule="evenodd" clip-rule="evenodd" d="M71.3866 79.0882C69.836 81.1581 67.6986 79.813 66.2611 80.5062L68.6986 86.4936L69.5691 83.4801C69.6067 83.351 69.6729 83.2321 69.7629 83.1323C69.8529 83.0325 69.9643 82.9544 70.0887 82.9037C70.2132 82.8531 70.3476 82.8313 70.4817 82.8399C70.6158 82.8486 70.7462 82.8875 70.8631 82.9538L73.5897 84.5012L71.3866 79.0882ZM68.0535 61.7998C67.038 60.7843 65.7441 60.0927 64.3355 59.8125C62.9269 59.5323 61.4669 59.6761 60.14 60.2257C58.8131 60.7753 57.6791 61.706 56.8811 62.9001C56.0832 64.0943 55.6574 65.4982 55.6574 66.9344C55.6574 68.3706 56.0832 69.7745 56.8811 70.9687C57.6791 72.1628 58.8131 73.0936 60.14 73.6432C61.4669 74.1928 62.9269 74.3366 64.3355 74.0564C65.7441 73.7762 67.038 73.0846 68.0535 72.069C69.4152 70.7072 70.1802 68.8602 70.1802 66.9344C70.1802 65.0086 69.4152 63.1616 68.0535 61.7998ZM62.9185 57.8868C64.708 57.8868 66.4573 58.4174 67.9452 59.4116C69.4331 60.4057 70.5928 61.8188 71.2776 63.472C71.9624 65.1253 72.1416 66.9445 71.7925 68.6996C71.4434 70.4547 70.5817 72.0668 69.3163 73.3322C68.051 74.5975 66.4388 75.4592 64.6838 75.8083C62.9287 76.1574 61.1095 75.9782 59.4562 75.2934C57.803 74.6086 56.3899 73.4489 55.3957 71.961C54.4016 70.4731 53.871 68.7238 53.871 66.9343C53.8711 64.5348 54.8244 62.2336 56.5211 60.5369C58.2178 58.8402 60.519 57.887 62.9185 57.8868ZM63.3657 65.9845C63.4282 66.1385 63.5327 66.2719 63.6671 66.3695C63.8016 66.4672 63.9608 66.5252 64.1265 66.537V66.5398L65.2975 66.6264C63.821 67.8754 63.9325 67.5578 64.3911 69.4259C62.7485 68.4085 63.0846 68.4113 61.4463 69.4259L61.7282 68.2763C61.767 68.1157 61.7604 67.9476 61.7092 67.7906C61.6579 67.6336 61.564 67.4939 61.438 67.3872L60.5392 66.627C62.4768 66.4839 62.1908 66.6711 62.918 64.8914L63.3657 65.9845ZM63.7419 62.2054L64.8024 64.8005L67.6016 65.0076C67.7814 65.0204 67.9531 65.0874 68.094 65.1998C68.235 65.3121 68.3386 65.4645 68.3913 65.6369C68.444 65.8093 68.4432 65.9936 68.3891 66.1655C68.335 66.3374 68.23 66.4889 68.0881 66.6001L65.9708 68.3903L66.6394 71.1185C66.681 71.2921 66.6695 71.4741 66.6065 71.641C66.5434 71.8079 66.4317 71.952 66.2858 72.0547C66.1398 72.1574 65.9664 72.2139 65.788 72.2169C65.6096 72.2199 65.4344 72.1692 65.2852 72.0714L62.9188 70.6059L60.5309 72.0846C60.3808 72.1768 60.2067 72.2224 60.0306 72.2156C59.8546 72.2088 59.6845 72.15 59.5419 72.0466C59.3993 71.9432 59.2905 71.7998 59.2294 71.6346C59.1682 71.4694 59.1575 71.2897 59.1984 71.1184L59.8671 68.3902L57.7232 66.5767C57.5885 66.4619 57.4909 66.3097 57.4429 66.1394C57.3948 65.9691 57.3986 65.7883 57.4535 65.6201C57.5085 65.4519 57.6123 65.3038 57.7516 65.1947C57.8909 65.0856 58.0596 65.0204 58.2361 65.0074L61.0351 64.8004L62.0956 62.2053C62.1629 62.0422 62.277 61.9028 62.4236 61.8047C62.5702 61.7066 62.7426 61.6542 62.919 61.6542C63.0954 61.6542 63.2678 61.7066 63.4144 61.8047C63.561 61.9028 63.6747 62.0424 63.7419 62.2054ZM69.1915 34.1625C69.6949 33.647 70.3177 33.2636 71.0048 33.0464C71.6918 32.8291 72.4218 32.7848 73.1301 32.9171C73.8383 33.0495 74.503 33.3546 75.0652 33.8053C75.6274 34.256 76.0697 34.8385 76.3529 35.501C76.6361 36.1636 76.7515 36.8857 76.6889 37.6036C76.6263 38.3214 76.3875 39.0126 75.9938 39.6161C75.6001 40.2196 75.0636 40.7166 74.4318 41.0631C73.8001 41.4097 73.0926 41.595 72.3721 41.6027V41.5993C71.2107 41.6096 70.0926 41.159 69.2629 40.3462C68.4332 39.5334 67.9596 38.4249 67.9459 37.2635H67.9494C67.9428 36.6903 68.0491 36.1214 68.2624 35.5893C68.4757 35.0573 68.7908 34.5724 69.1915 34.1625ZM72.2952 34.6199C71.953 34.6247 71.6151 34.6969 71.3008 34.8323C70.9865 34.9678 70.7019 35.1639 70.4635 35.4094C70.225 35.655 70.0373 35.9451 69.9111 36.2632C69.7848 36.5813 69.7225 36.9212 69.7278 37.2635H69.7312C69.7427 37.9526 70.0273 38.6089 70.5225 39.0883C71.0177 39.5676 71.683 39.8307 72.3721 39.8197V39.8165C74.601 39.8165 75.8334 37.0077 74.1445 35.3606C73.9003 35.1215 73.6113 34.933 73.2941 34.8058C72.9768 34.6787 72.637 34.6156 72.2952 34.6199ZM56.7991 15.1505V23.3444H64.9928L56.7991 15.1505ZM26.2668 29.4328C26.0354 29.4245 25.8163 29.3268 25.6555 29.1602C25.4948 28.9936 25.4049 28.7711 25.4049 28.5396C25.4049 28.3081 25.4948 28.0856 25.6555 27.919C25.8163 27.7524 26.0354 27.6546 26.2668 27.6464H47.8762C48.1076 27.6546 48.3267 27.7524 48.4875 27.919C48.6482 28.0856 48.7381 28.3081 48.7381 28.5396C48.7381 28.7711 48.6482 28.9936 48.4875 29.1602C48.3267 29.3268 48.1076 29.4245 47.8762 29.4328H26.2668ZM26.2668 24.9182C26.0354 24.9099 25.8163 24.8122 25.6555 24.6456C25.4948 24.479 25.4049 24.2565 25.4049 24.025C25.4049 23.7935 25.4948 23.571 25.6555 23.4044C25.8163 23.2378 26.0354 23.1401 26.2668 23.1318H47.8762C48.1076 23.1401 48.3267 23.2378 48.4875 23.4044C48.6482 23.571 48.7381 23.7935 48.7381 24.025C48.7381 24.2565 48.6482 24.479 48.4875 24.6456C48.3267 24.8122 48.1076 24.9099 47.8762 24.9182H26.2668ZM26.2668 20.4036C26.0354 20.3953 25.8163 20.2976 25.6555 20.131C25.4948 19.9644 25.4049 19.7419 25.4049 19.5104C25.4049 19.2789 25.4948 19.0564 25.6555 18.8898C25.8163 18.7232 26.0354 18.6255 26.2668 18.6172H39.5796C39.8124 18.6235 40.0335 18.7204 40.196 18.8873C40.3584 19.0541 40.4493 19.2778 40.4493 19.5107C40.4493 19.7435 40.3584 19.9672 40.196 20.1341C40.0335 20.3009 39.8124 20.3978 39.5796 20.4041L26.2668 20.4036ZM26.2473 74.7309V78.3059H52.8433L53.3271 77.1166C52.9904 76.6011 52.6046 76.4256 51.9584 76.0967C51.2647 75.7438 50.5692 75.3899 50.095 74.7303L26.2473 74.7309ZM54.2867 79.4922C54.2765 79.5212 54.2649 79.5496 54.2519 79.5775L52.2473 84.5012L54.9739 82.9538C55.0908 82.8875 55.2213 82.8486 55.3554 82.8399C55.4895 82.8312 55.6239 82.853 55.7484 82.9036C55.8729 82.9543 55.9843 83.0324 56.0743 83.1323C56.1643 83.2321 56.2305 83.351 56.268 83.4801L57.1384 86.4935L59.5759 80.506C58.1384 79.8133 56.0009 81.1581 54.4506 79.088L54.2867 79.4922ZM71.4351 54.8469V47.5091L70.6157 47.5193C70.41 47.5217 70.2098 47.4528 70.0492 47.3242C69.8886 47.1957 69.7775 47.0155 69.7347 46.8142L69.4021 45.2794L68.7536 45.0137L68.0421 45.4983V53.5635C69.4533 53.5126 70.5417 53.6027 71.4351 54.8469ZM71.4351 26.9535L70.5398 26.9645C70.3259 26.956 70.1162 27.0246 69.9488 27.158C69.7814 27.2913 69.6676 27.4804 69.6281 27.6908L69.3456 29.1796L68.6977 29.4518L68.0421 29.0293V24.2375C68.0423 24.1202 68.0192 24.004 67.9743 23.8956C67.9294 23.7873 67.8636 23.6888 67.7805 23.606L63.4232 19.2489H71.4345L71.4351 26.9535ZM72.4191 28.7208L71.2434 28.7353L71.0071 29.9802C70.8906 30.692 70.3063 30.7032 69.7092 30.9526C69.1346 31.1928 68.7136 31.5826 68.1619 31.2276L67.0216 30.4919L65.5624 31.9881L66.2915 33.0589C66.6875 33.6292 66.2792 34.0664 66.0437 34.6391C65.8082 35.2117 65.7891 35.7912 65.1394 35.9302L63.8175 36.2152L63.8436 38.3048L65.0885 38.5412C65.8001 38.6576 65.8113 39.2416 66.0609 39.8386C66.3011 40.4132 66.6909 40.8342 66.336 41.3859L65.6001 42.5265L67.0962 43.9858L68.1669 43.2568C68.7372 42.8606 69.1744 43.2691 69.7472 43.5046C70.3201 43.7401 70.8994 43.7592 71.0383 44.4087L71.3233 45.7307L73.4129 45.7045L73.6492 44.4596C73.7657 43.7479 74.3497 43.7366 74.9469 43.4872C75.5214 43.247 75.9424 42.8572 76.4941 43.2121L77.6345 43.9481L79.0939 42.4519L78.3648 41.3812C77.9688 40.811 78.3771 40.3737 78.6126 39.8011C78.8489 39.2261 78.8674 38.6486 79.5169 38.5098L80.8387 38.2248L80.8127 36.1352L79.5676 35.899C78.856 35.7824 78.8445 35.1978 78.5952 34.6014C78.3552 34.0268 77.9652 33.6059 78.3203 33.0542L79.0562 31.9135L77.5601 30.4542L76.4892 31.1832C75.9192 31.5792 75.4817 31.171 74.9091 30.9356C74.3392 30.7012 73.7574 30.6827 73.618 30.0312L73.333 28.7095L72.4191 28.7208ZM61.6369 17.4628H72.3282C72.5653 17.4628 72.7926 17.557 72.9602 17.7246C73.1278 17.8922 73.222 18.1196 73.222 18.3566V26.932L74.0415 26.9218C74.2472 26.9194 74.4474 26.9884 74.608 27.1169C74.7686 27.2454 74.8798 27.4257 74.9226 27.6269L75.255 29.1614L75.9036 29.4274L77.1587 28.5728C77.3335 28.4535 77.5451 28.4003 77.7556 28.4227C77.966 28.4452 78.1616 28.5417 78.3074 28.6952L80.8216 31.1476C80.9688 31.2908 81.062 31.4805 81.0854 31.6845C81.1089 31.8885 81.0612 32.0944 80.9503 32.2672L80.0965 33.5905L80.3684 34.238L81.8576 34.5208C82.0679 34.5602 82.2571 34.674 82.3904 34.8414C82.5238 35.0088 82.5924 35.2186 82.5838 35.4324L82.6275 38.9333C82.6299 39.139 82.5609 39.3392 82.4324 39.4999C82.3039 39.6605 82.1236 39.7716 81.9224 39.8144L80.3876 40.147L80.1219 40.7954L80.9765 42.0506C81.0958 42.2254 81.1489 42.437 81.1265 42.6475C81.104 42.858 81.0074 43.0536 80.854 43.1994L78.4017 45.7135C78.2585 45.8607 78.0688 45.954 77.8648 45.9774C77.6608 46.0009 77.4549 45.9531 77.2821 45.8422L75.9588 44.9884L75.3111 45.2604L75.0285 46.7494C74.9891 46.9598 74.8753 47.149 74.708 47.2823C74.5406 47.4157 74.3307 47.4844 74.1169 47.4758L73.2215 47.4868V57.418C74.1465 57.9752 75.2578 58.2861 75.8836 59.3545C76.6473 60.6578 76.0826 62.2586 76.3511 63.2342C76.6168 64.2003 77.9381 65.3578 77.9381 66.9347C77.9381 68.5116 76.6168 69.669 76.3511 70.6353C76.0828 71.6103 76.647 73.2117 75.8836 74.5148C75.1182 75.8216 73.4565 76.1006 72.7709 76.7864C72.6731 76.8876 72.586 76.9987 72.5109 77.1177L76.2126 86.2091C76.2813 86.3804 76.2937 86.5689 76.2508 86.7484C76.2078 86.928 76.1102 87.0898 75.9714 87.2115C75.8326 87.3332 75.6594 87.4088 75.4758 87.4278C75.2922 87.4469 75.1072 87.4086 74.9463 87.318L70.9663 85.0593L69.7141 89.3944C69.6741 89.581 69.5753 89.7499 69.4322 89.8762C69.2892 90.0025 69.1094 90.0797 68.9193 90.0963C68.7292 90.1129 68.5387 90.0682 68.3759 89.9686C68.2131 89.869 68.0865 89.7199 68.0147 89.5431L64.7091 81.4249C63.4276 82.1317 62.4107 82.1317 61.1292 81.4249L57.8236 89.5433C57.7518 89.72 57.6252 89.8691 57.4624 89.9686C57.2996 90.0681 57.1092 90.1128 56.9191 90.0962C56.7291 90.0796 56.5493 90.0024 56.4063 89.8762C56.2633 89.7499 56.1645 89.5811 56.1244 89.3946L54.872 85.0594L50.8922 87.3182C50.7313 87.4087 50.5463 87.447 50.3627 87.4279C50.1791 87.4088 50.006 87.3332 49.8671 87.2115C49.7283 87.0899 49.6307 86.9281 49.5877 86.7486C49.5447 86.5691 49.5585 86.3806 49.6271 86.2093L52.1163 80.0924H25.3542C25.1172 80.0924 24.8898 79.9983 24.7222 79.8307C24.5546 79.6631 24.4604 79.4357 24.4604 79.1987V74.7299H20.175C19.938 74.7299 19.7106 74.6358 19.543 74.4682C19.3754 74.3006 19.2812 74.0732 19.2812 73.8362V12.9941C19.2812 12.7571 19.3754 12.5297 19.543 12.3621C19.7106 12.1945 19.938 12.1003 20.175 12.1003H55.906C56.0252 12.1002 56.1432 12.124 56.2531 12.1703C56.3629 12.2167 56.4623 12.2846 56.5454 12.3701L61.6369 17.4628ZM51.3168 61.1508C51.3011 60.8424 51.3603 60.5349 51.4896 60.2545C51.882 59.5843 53.4202 59.2557 54.3302 58.3457C55.2402 57.4357 55.5688 55.8975 56.239 55.5051C56.914 55.1095 58.4213 55.567 59.6859 55.2191C60.9654 54.8671 62.03 53.7016 62.9197 53.7016C64.0084 53.7016 65.1994 55.3606 67.1495 55.3606C69.4824 55.3606 69.5802 54.9916 70.4918 56.7834C71.2492 58.2721 71.5817 58.6048 73.0705 59.3622C74.4992 60.089 74.5673 60.2072 74.5083 61.8201C74.4474 63.4888 74.5733 63.9471 75.4616 65.361C76.38 66.8219 76.38 67.047 75.4616 68.5077C74.5727 69.9214 74.4472 70.38 74.5083 72.0484C74.5675 73.6623 74.4992 73.7796 73.0704 74.5065C71.5817 75.2639 71.2491 75.5967 70.4917 77.0854C69.7648 78.5141 69.6467 78.5822 68.0337 78.5232C66.3401 78.4614 65.8874 78.6005 64.493 79.4764C63.0305 80.395 62.808 80.395 61.3462 79.4764C59.9519 78.6005 59.499 78.4613 57.8055 78.5232C56.1917 78.5822 56.0742 78.5139 55.3473 77.0854C54.5899 75.5966 54.2574 75.2641 52.7684 74.5065C51.3197 73.7694 51.2723 73.6417 51.3306 72.0485C51.3917 70.3798 51.2664 69.9217 50.3776 68.5078C49.436 67.0105 49.4895 66.7733 50.3776 65.361C51.2656 63.9487 51.3919 63.4885 51.3306 61.8201L51.3168 61.1508ZM32.3864 60.3654V45.72H28.8676V60.3654H32.3864ZM41.0764 60.3654V42.2509H37.5576V60.3654H41.0764ZM49.7664 59.7422V48.5696H46.2476V60.3654H49.5969C49.6317 60.1524 49.6885 59.9436 49.7664 59.7422ZM58.4564 53.5804V40.0341H54.9376V54.2558C56.0101 53.3385 57.2309 53.5833 58.4564 53.5804ZM53.1513 56.9911C52.8139 57.3894 52.0864 57.6972 51.5526 57.9811V47.6763C51.5526 47.4393 51.4585 47.2119 51.2908 47.0443C51.1232 46.8767 50.8959 46.7826 50.6589 46.7826H45.3544C45.1173 46.7826 44.89 46.8767 44.7224 47.0443C44.5548 47.2119 44.4606 47.4393 44.4606 47.6763V60.3654H42.8621V41.3578C42.8621 41.1208 42.7679 40.8934 42.6003 40.7258C42.4327 40.5582 42.2054 40.4641 41.9684 40.4641H36.6645C36.4275 40.4641 36.2002 40.5582 36.0325 40.7258C35.8649 40.8934 35.7708 41.1208 35.7708 41.3578V60.3654H34.1721V44.8267C34.1721 44.5897 34.0779 44.3623 33.9103 44.1947C33.7427 44.0271 33.5154 43.933 33.2784 43.933H27.9745C27.7375 43.933 27.5101 44.0271 27.3425 44.1947C27.1749 44.3623 27.0808 44.5897 27.0808 44.8267V60.3654H26.2661C26.0348 60.3737 25.8156 60.4714 25.6549 60.638C25.4941 60.8046 25.4043 61.0271 25.4043 61.2586C25.4043 61.4901 25.4941 61.7126 25.6549 61.8792C25.8156 62.0458 26.0348 62.1435 26.2661 62.1518H49.5599C49.5857 62.5141 49.5612 62.8783 49.4871 63.2339C49.3408 63.7656 48.7025 64.6285 48.3796 65.2349H26.2668C26.0358 65.2437 25.8173 65.3417 25.657 65.5082C25.4967 65.6747 25.4071 65.8969 25.4071 66.128C25.4071 66.3591 25.4967 66.5813 25.657 66.7478C25.8173 66.9143 26.0358 67.0123 26.2668 67.0211H47.9012C47.9464 68.5486 49.2271 69.6894 49.4871 70.6349C49.6405 71.1926 49.5108 72.2409 49.541 72.9446H21.0681V13.8878H55.0129V24.2375C55.0129 24.4745 55.107 24.7018 55.2747 24.8694C55.4423 25.0371 55.6696 25.1312 55.9066 25.1312H66.2564V28.727L63.8027 31.2422C63.6492 31.388 63.5527 31.5836 63.5303 31.794C63.5078 32.0045 63.561 32.2161 63.6803 32.3909L64.5349 33.6461L64.2694 34.2944L62.7344 34.6254V34.6272C62.5332 34.67 62.353 34.7811 62.2244 34.9417C62.0959 35.1023 62.0269 35.3024 62.0293 35.5081L62.0729 39.0092C62.0643 39.2231 62.133 39.4329 62.2663 39.6002C62.3997 39.7676 62.5889 39.8814 62.7992 39.9208L64.2882 40.2034L64.5602 40.8511L63.7065 42.1744C63.5956 42.3473 63.5479 42.5531 63.5714 42.7571C63.5948 42.9611 63.688 43.1508 63.8352 43.294L66.2555 45.6548V53.3605C65.2317 52.8644 64.3055 51.9159 62.9187 51.9159C61.8722 51.9159 61.0634 52.4702 60.2423 52.9823V39.1403C60.2423 38.9033 60.1481 38.676 59.9805 38.5084C59.8129 38.3408 59.5856 38.2466 59.3485 38.2466H54.0444C53.8074 38.2466 53.58 38.3408 53.4124 38.5084C53.2448 38.676 53.1506 38.9033 53.1506 39.1403L53.1513 56.9911Z" stroke="white" stroke-width="0.78" mask="url(#path-1-outside-1_11333_14038)"/>
</g>
<defs>
<clipPath id="clip0_11333_14038">
<rect width="83.2" height="83.2" fill="white" transform="translate(0.25 0.400146)"/>
</clipPath>
</defs>
</svg>
