<svg width="70" height="73" viewBox="0 0 70 73" fill="none" xmlns="http://www.w3.org/2000/svg">
<path d="M57.2672 1.71729H8.76562V15.1235H7.64844C4.56835 15.1235 2.0625 17.6294 2.0625 20.7095V40.8188C2.0625 43.8989 4.56835 46.4048 7.64844 46.4048H8.76562V70.9829H71.3281V15.7782L57.2672 1.71729ZM57.9219 5.53136L67.514 15.1235H57.9219V5.53136ZM15.4688 24.061V3.95166H17.7031V24.061H15.4688ZM13.2344 3.95166V24.061H11V3.95166H13.2344ZM7.64844 17.3579H8.76562V24.061H7.64844C5.80061 24.061 4.29688 22.5573 4.29688 20.7095C4.29688 18.8616 5.80061 17.3579 7.64844 17.3579ZM4.29688 40.8188V25.176C5.23084 25.8776 6.3916 26.2954 7.64844 26.2954H43.3984C45.2463 26.2954 46.75 27.7991 46.75 29.647V40.8188C46.75 42.6667 45.2463 44.1704 43.3984 44.1704H7.64844C5.80061 44.1704 4.29688 42.6667 4.29688 40.8188ZM17.7031 68.7485H15.4688V46.4048H17.7031V68.7485ZM11 46.4048H13.2344V68.7485H11V46.4048ZM19.9375 68.7485V57.5767H29.5297L36.2328 64.2798H43.604C44.0665 65.5768 45.2954 66.5142 46.75 66.5142C48.5978 66.5142 50.1016 65.0104 50.1016 63.1626C50.1016 61.3148 48.5978 59.811 46.75 59.811C45.2954 59.811 44.0665 60.7484 43.604 62.0454H37.1578L32.6891 57.5767H56.8047V61.6186L67.123 56.4595L56.8047 51.3003V55.3423H37.1578L41.6266 50.8735H45.8384C46.3009 52.1706 47.5298 53.1079 48.9844 53.1079C50.8322 53.1079 52.3359 51.6042 52.3359 49.7563C52.3359 47.9085 50.8322 46.4048 48.9844 46.4048C47.5298 46.4048 46.3009 47.3421 45.8384 48.6392H40.7015L33.9984 55.3423H19.9375V46.4048H43.3984C46.4785 46.4048 48.9844 43.8989 48.9844 40.8188V29.647C48.9844 26.5669 46.4785 24.061 43.3984 24.061H19.9375V3.95166H55.6875V17.3579H69.0938V68.7485H19.9375ZM45.6328 63.1626C45.6328 62.5459 46.1333 62.0454 46.75 62.0454C47.3667 62.0454 47.8672 62.5459 47.8672 63.1626C47.8672 63.7793 47.3667 64.2798 46.75 64.2798C46.1333 64.2798 45.6328 63.7793 45.6328 63.1626ZM59.0391 58.0034V54.9155L62.127 56.4595L59.0391 58.0034ZM47.8672 49.7563C47.8672 49.1397 48.3677 48.6392 48.9844 48.6392C49.6011 48.6392 50.1016 49.1397 50.1016 49.7563C50.1016 50.373 49.6011 50.8735 48.9844 50.8735C48.3677 50.8735 47.8672 50.373 47.8672 49.7563Z" fill="white"/>
<path d="M26.6406 30.7642H31.1094V39.7017H26.6406V41.936H37.8125V39.7017H33.3438V30.7642H37.8125V28.5298H26.6406V30.7642Z" fill="white"/>
<path d="M18.8203 28.5298C15.7402 28.5298 13.2344 31.0356 13.2344 34.1157V41.936H15.4688V37.4673H22.1719V41.936H24.4062V34.1157C24.4062 31.0356 21.9004 28.5298 18.8203 28.5298ZM15.4688 35.2329V34.1157C15.4688 32.2679 16.9725 30.7642 18.8203 30.7642C20.6681 30.7642 22.1719 32.2679 22.1719 34.1157V35.2329H15.4688Z" fill="white"/>
<path d="M28.875 6.18604H22.1719V12.8892H28.875V6.18604ZM26.6406 10.6548H24.4062V8.42041H26.6406V10.6548Z" fill="white"/>
<path d="M37.8125 6.18604H31.1094V12.8892H37.8125V6.18604ZM35.5781 10.6548H33.3438V8.42041H35.5781V10.6548Z" fill="white"/>
<path d="M46.75 6.18604H40.0469V12.8892H46.75V6.18604ZM44.5156 10.6548H42.2812V8.42041H44.5156V10.6548Z" fill="white"/>
<path d="M22.1719 15.1235H53.4531V17.3579H22.1719V15.1235Z" fill="white"/>
<path d="M22.1719 19.5923H53.4531V21.8267H22.1719V19.5923Z" fill="white"/>
<path d="M64.625 19.5923H66.8594V21.8267H64.625V19.5923Z" fill="white"/>
<path d="M60.1562 19.5923H62.3906V21.8267H60.1562V19.5923Z" fill="white"/>
<path d="M55.6875 19.5923H57.9219V21.8267H55.6875V19.5923Z" fill="white"/>
<path d="M51.2188 44.1704H66.8594V24.061H51.2188V44.1704ZM53.4531 26.2954H64.625V41.936H53.4531V26.2954Z" fill="white"/>
</svg>
