<svg width="20" height="20" viewBox="0 0 20 20" fill="none" xmlns="http://www.w3.org/2000/svg">
<g id="Booth 1">
<g id="_x31_0">
<path id="Vector" d="M16.25 14.375H3.75V6.875H2.5V18.125C2.5 18.4702 2.77954 18.75 3.125 18.75H16.875C17.2205 18.75 17.5 18.4702 17.5 18.125V6.875H16.25V14.375Z" fill="#CFA935"/>
<path id="Vector_2" d="M6.875 13.75H13.125C13.125 12.3715 12.0038 11.25 10.625 11.25H10H9.375C7.99622 11.25 6.875 12.3715 6.875 13.75Z" fill="#CFA935"/>
<path id="Vector_3" d="M10 11.25C11.0355 11.25 11.875 10.4105 11.875 9.375C11.875 8.33947 11.0355 7.5 10 7.5C8.96447 7.5 8.125 8.33947 8.125 9.375C8.125 10.4105 8.96447 11.25 10 11.25Z" fill="#CFA935"/>
<path id="Vector_4" d="M18.125 1.25H1.875C1.52985 1.25 1.25 1.52985 1.25 1.875V5.625C1.25 5.97015 1.52985 6.25 1.875 6.25H3.125V3.4375C3.125 3.26477 3.26477 3.125 3.4375 3.125C3.61023 3.125 3.75 3.26477 3.75 3.4375V6.25H5.625V3.4375C5.625 3.26477 5.76477 3.125 5.9375 3.125C6.11023 3.125 6.25 3.26477 6.25 3.4375V6.25H8.125V3.4375C8.125 3.26477 8.26477 3.125 8.4375 3.125C8.61023 3.125 8.75 3.26477 8.75 3.4375V6.25H11.25V3.4375C11.25 3.26477 11.3898 3.125 11.5625 3.125C11.7352 3.125 11.875 3.26477 11.875 3.4375V6.25H13.75V3.4375C13.75 3.26477 13.8898 3.125 14.0625 3.125C14.2352 3.125 14.375 3.26477 14.375 3.4375V6.25H16.25V3.4375C16.25 3.26477 16.3898 3.125 16.5625 3.125C16.7352 3.125 16.875 3.26477 16.875 3.4375V6.25H18.125C18.4702 6.25 18.75 5.97015 18.75 5.625V1.875C18.75 1.52985 18.4702 1.25 18.125 1.25Z" fill="#CFA935"/>
</g>
</g>
</svg>
