<svg width="48" height="44" viewBox="0 0 48 44" fill="none" xmlns="http://www.w3.org/2000/svg">
<path d="M1.40636 37.4687H8.4376V41.6874C8.4376 42.464 9.06722 43.0937 9.84385 43.0937H46.5938C47.3704 43.0937 48 42.464 48 41.6874V5.12499C48 4.34837 47.3704 3.71874 46.5938 3.71874H39.5625V2.3125C39.5625 1.53587 38.9329 0.90625 38.1563 0.90625C37.3797 0.90625 36.75 1.53587 36.75 2.3125V3.71874H29.6251V2.3125C29.6251 1.53587 28.9954 0.90625 28.2188 0.90625C27.4422 0.90625 26.8126 1.53587 26.8126 2.3125V3.71874H19.7813V2.3125C19.7813 1.53587 19.1517 0.90625 18.3751 0.90625C17.5985 0.90625 16.9688 1.53587 16.9688 2.3125V3.71874H9.84385C9.06722 3.71874 8.4376 4.34837 8.4376 5.12499V13.5625C8.4376 23.9265 4.13027 31.8996 0.506085 34.9822C0.0512109 35.3612 -0.117445 35.9844 0.0840234 36.5412C0.285679 37.0979 0.814241 37.4687 1.40636 37.4687ZM45.1875 40.2812H11.2501V37.4687H38.1563C38.4853 37.4687 38.8038 37.3534 39.0566 37.1427C40.7471 35.7347 43.3656 32.3824 45.1875 28.0888V40.2812ZM11.2501 6.53124H16.9688V7.93749C16.9688 8.71411 17.5985 9.34373 18.3751 9.34373C19.1517 9.34373 19.7813 8.71411 19.7813 7.93749V6.53124H26.8126V7.93749C26.8126 8.71411 27.4422 9.34373 28.2188 9.34373C28.9954 9.34373 29.6251 8.71411 29.6251 7.93749V6.53124H36.75V7.93749C36.75 8.71411 37.3797 9.34373 38.1563 9.34373C38.9329 9.34373 39.5625 8.71411 39.5625 7.93749V6.53124H45.1875V12.1562H11.2501V6.53124ZM11.226 14.9678H45.1626C44.8457 23.8885 41.4219 30.9074 37.6049 34.6562H4.60501C8.92997 29.1455 10.994 21.9701 11.226 14.9678Z" fill="white" fill-opacity="0.2"/>
</svg>
