<svg width="84" height="84" viewBox="0 0 84 84" fill="none" xmlns="http://www.w3.org/2000/svg">
<g clip-path="url(#clip0_11333_13954)">
<path d="M28.5328 70.2056V67.4934C28.5328 67.4593 28.5311 67.4254 28.5282 67.3914C28.2188 63.957 26.645 60.7762 24.0967 58.4346C22.6683 57.122 21.0017 56.1392 19.2035 55.5248C21.0433 54.1525 22.237 51.9596 22.237 49.493C22.237 45.3458 18.863 41.9718 14.7159 41.9718C10.5687 41.9718 7.19473 45.3458 7.19473 49.493C7.19473 51.9596 8.38845 54.1524 10.2281 55.5247C8.42989 56.1391 6.76313 57.1219 5.33475 58.4344C2.78643 60.776 1.21262 63.9568 0.903218 67.3912C0.90013 67.4252 0.898668 67.4592 0.898668 67.4933V70.2054C0.898668 70.8336 1.40794 71.3429 2.03617 71.3429H27.3953C28.0235 71.3429 28.5328 70.8336 28.5328 70.2054V70.2056ZM14.7157 44.2468C17.6085 44.2468 19.9619 46.6002 19.9619 49.493C19.9619 52.3858 17.6085 54.7391 14.7157 54.7391C11.8229 54.7391 9.46957 52.3858 9.46957 49.493C9.46957 46.6002 11.8229 44.2468 14.7157 44.2468ZM26.2578 69.0681H3.17334V67.5458C3.73738 61.5615 8.6907 57.0553 14.7156 57.0553C20.7404 57.0553 25.6937 61.5612 26.2578 67.5458V69.0681ZM82.7938 67.3914C82.4844 63.957 80.9106 60.7762 78.3621 58.4346C76.9337 57.122 75.2671 56.1392 73.4689 55.5248C75.3087 54.1525 76.5024 51.9596 76.5024 49.493C76.5024 45.3458 73.1284 41.9718 68.9813 41.9718C64.8341 41.9718 61.4601 45.3458 61.4601 49.493C61.4601 51.9596 62.6539 54.1524 64.4935 55.5248C62.6953 56.1391 61.0287 57.122 59.6003 58.4346C57.0518 60.7762 55.478 63.957 55.1686 67.3914C55.1655 67.4254 55.1641 67.4593 55.1641 67.4934V70.2056C55.1641 70.8338 55.6733 71.3431 56.3016 71.3431H81.661C82.2892 71.3431 82.7985 70.8338 82.7985 70.2056V67.4934C82.7985 67.4593 82.7969 67.4254 82.7939 67.3914H82.7938ZM68.9813 44.2468C71.8741 44.2468 74.2274 46.6002 74.2274 49.493C74.2274 52.3858 71.8741 54.7391 68.9813 54.7391C66.0885 54.7391 63.7351 52.3858 63.7351 49.493C63.7351 46.6002 66.0885 44.2468 68.9813 44.2468ZM80.5235 69.0681H57.4391V67.5458C58.0031 61.5615 62.9564 57.0553 68.9813 57.0553C75.0061 57.0553 79.9595 61.5614 80.5235 67.5458V69.0681ZM51.2293 70.2413C49.8011 68.929 48.1343 67.946 46.3363 67.3318C48.1759 65.9593 49.3697 63.7667 49.3697 61.3001C49.3697 57.1529 45.9957 53.7788 41.8485 53.7788C37.7013 53.7788 34.3274 57.1529 34.3274 61.3001C34.3274 63.7665 35.5209 65.9593 37.3606 67.3318C35.5624 67.9462 33.8958 68.929 32.4675 70.2415C29.9191 72.5831 28.3452 75.764 28.0358 79.1985C28.0328 79.2324 28.0313 79.2664 28.0313 79.3005V82.0126C28.0313 82.6409 28.5406 83.1502 29.1688 83.1502H54.5282C55.1564 83.1502 55.6657 82.6409 55.6657 82.0126V79.3005C55.6657 79.2664 55.6641 79.2324 55.6612 79.1985C55.3518 75.764 53.778 72.5831 51.2295 70.2415L51.2293 70.2413ZM41.8483 56.0536C44.7412 56.0536 47.0945 58.4071 47.0945 61.2999C47.0945 64.1927 44.7412 66.5461 41.8483 66.5461C38.9555 66.5461 36.6022 64.1927 36.6022 61.2999C36.6022 58.4071 38.9555 56.0536 41.8483 56.0536ZM53.3905 80.875H30.306V79.3527C30.87 73.3683 35.8233 68.862 41.8482 68.862C47.873 68.862 52.8264 73.3681 53.3904 79.3527L53.3905 80.875ZM1.60522 26.8663L12.0018 34.6615C12.526 35.0547 13.2199 35.1254 13.8137 34.8465C14.4065 34.5675 14.7945 33.9877 14.8261 33.3333L14.9486 30.7953C18.6859 31.1849 22.6324 33.0098 26.2116 36.0104L26.3291 36.681C26.3922 37.0414 26.5046 37.3827 26.6578 37.6996V49.3066C26.6578 51.2722 28.2568 52.8712 30.2223 52.8712H53.4742C55.4397 52.8712 57.0387 51.2722 57.0387 49.3066V37.6994C57.1919 37.3825 57.3044 37.0414 57.3674 36.681L57.4847 36.0107C61.0641 33.01 65.0106 31.1849 68.7481 30.7953L68.8706 33.3332C68.9021 33.9877 69.2902 34.5677 69.8835 34.8469C70.4766 35.1256 71.1705 35.0547 71.6949 34.6615L82.0915 26.8662C82.5648 26.5111 82.8217 25.9687 82.7965 25.3775C82.7714 24.7863 82.4689 24.2676 81.9671 23.9543L70.8599 17.0201C70.3005 16.6711 69.5996 16.6613 69.031 16.9949C68.4621 17.3286 68.1283 17.9449 68.16 18.604L68.2993 21.4886C62.7978 22.2684 58.3869 25.0314 55.1662 29.7133H48.6252V28.7016C48.6252 27.2773 47.4908 26.1157 46.0784 26.0657L46.7688 17.428H50.5829C51.3154 17.428 51.9789 17.0244 52.3143 16.3744C52.6497 15.7244 52.5945 14.9494 52.1698 14.3522L43.4352 2.06916C43.0651 1.54868 42.4866 1.25 41.8475 1.25C41.2094 1.25049 40.6312 1.54884 40.2612 2.069L31.5268 14.3524C31.1024 14.9494 31.047 15.724 31.3824 16.3742C31.7178 17.0244 32.3813 17.4282 33.1138 17.4282H36.9277L37.6181 26.0659C36.2059 26.1159 35.0714 27.2775 35.0714 28.7018V29.7135H28.5307C25.3097 25.0314 20.8988 22.2686 15.3972 21.4887L15.5365 18.6042C15.5684 17.9452 15.2346 17.3287 14.666 16.9954C14.0972 16.6617 13.3961 16.6711 12.8364 17.0205L1.72969 23.9542C1.22773 24.2676 0.925318 24.7863 0.90013 25.3775C0.874943 25.9685 1.13186 26.5111 1.60522 26.8663ZM55.6761 32.1596C55.7782 32.2812 55.8087 32.3944 55.7812 32.5507L55.1267 36.2882C54.9884 37.078 54.2388 37.6737 53.3831 37.6737H46.1362C46.0579 36.7567 45.2876 36.0343 44.3507 36.0343H39.3463C38.4094 36.0343 37.6391 36.7567 37.5608 37.6737H30.3139C29.4582 37.6737 28.7086 37.078 28.5703 36.2881L27.9158 32.5507C27.8885 32.3944 27.9188 32.2812 28.0209 32.1596C28.1231 32.0379 28.2295 31.9883 28.3883 31.9883H55.309C55.4678 31.9883 55.5742 32.0379 55.6764 32.1596H55.6761ZM43.8689 38.3094V39.3135H39.8278V38.3094H43.8689ZM53.4744 50.5959H30.2223C29.5113 50.5959 28.9328 50.0174 28.9328 49.3063V39.7136C29.3651 39.8655 29.83 39.9487 30.3136 39.9487H37.5605C37.6388 40.8657 38.409 41.5883 39.346 41.5883H44.3503C45.2873 41.5883 46.0574 40.8657 46.1359 39.9487H53.3827C53.8663 39.9487 54.3314 39.8654 54.7637 39.7134V49.3063C54.7637 50.0174 54.1852 50.5959 53.4742 50.5959H53.4744ZM69.5916 23.6272C70.1976 23.571 70.6521 23.0479 70.6229 22.4397L70.4792 19.4641L80.1333 25.4911L71.097 32.2662L70.9649 29.5292C70.935 28.9111 70.416 28.4242 69.7975 28.4471C65.9295 28.5534 61.841 30.0486 58.0511 32.7061C58.1175 31.9744 57.8988 31.2681 57.4181 30.696C57.389 30.6614 57.3568 30.6308 57.3265 30.5978C60.3366 26.4469 64.4573 24.1029 69.5918 23.6271L69.5916 23.6272ZM33.749 15.1532L41.8482 3.7629L49.9477 15.1532H45.7186C45.1256 15.1532 44.632 15.609 44.5847 16.2L43.7964 26.0611H39.9L39.1117 16.2C39.0644 15.6088 38.5709 15.1532 37.9778 15.1532H33.7487H33.749ZM37.3468 28.7018C37.3468 28.5035 37.5141 28.3361 37.7124 28.3361H45.9845C46.1827 28.3361 46.3501 28.5035 46.3501 28.7018V29.7135H37.3466V28.7018H37.3468ZM13.2176 19.4643L13.074 22.4398C13.0446 23.0479 13.4991 23.5712 14.1052 23.6274C19.2397 24.1033 23.3604 26.4472 26.3707 30.598C26.3403 30.631 26.308 30.6615 26.2789 30.6961C25.7982 31.2683 25.5795 31.9745 25.646 32.7061C21.856 30.0487 17.7676 28.5536 13.8996 28.4473C13.2755 28.4258 12.7621 28.9111 12.7322 29.5294L12.6001 32.2664L3.56383 25.4913L13.218 19.4643H13.2176Z" fill="white"/>
</g>
<defs>
<clipPath id="clip0_11333_13954">
<rect width="83.2" height="83.2" fill="white" transform="translate(0.25 0.599854)"/>
</clipPath>
</defs>
</svg>
