<svg width="20" height="20" viewBox="0 0 20 20" fill="none" xmlns="http://www.w3.org/2000/svg">
<g id="calendar 6" clip-path="url(#clip0_28956_32633)">
<g id="calendar">
<path id="Vector" d="M18.75 4.33126V6.87501H1.25V4.33126C1.25639 3.83997 1.45738 3.37128 1.80888 3.02798C2.16038 2.68468 2.6337 2.49481 3.125 2.50001H4.375V3.75001C4.375 4.24729 4.57254 4.72421 4.92417 5.07584C5.27581 5.42747 5.75272 5.62501 6.25 5.62501C6.74728 5.62501 7.22419 5.42747 7.57583 5.07584C7.92746 4.72421 8.125 4.24729 8.125 3.75001V2.50001H11.875V3.75001C11.875 4.24729 12.0725 4.72421 12.4242 5.07584C12.7758 5.42747 13.2527 5.62501 13.75 5.62501C14.2473 5.62501 14.7242 5.42747 15.0758 5.07584C15.4275 4.72421 15.625 4.24729 15.625 3.75001V2.50001H16.875C17.3663 2.49481 17.8396 2.68468 18.1911 3.02798C18.5426 3.37128 18.7436 3.83997 18.75 4.33126Z" fill="#CFA935"/>
<path id="Vector_2" d="M1.25 8.125V18.1687C1.25639 18.66 1.45738 19.1287 1.80888 19.472C2.16038 19.8153 2.6337 20.0052 3.125 20H16.875C17.3663 20.0052 17.8396 19.8153 18.1911 19.472C18.5426 19.1287 18.7436 18.66 18.75 18.1687V8.125H1.25ZM6.875 16.875C6.87452 17.0406 6.80852 17.1993 6.69141 17.3164C6.57431 17.4335 6.41561 17.4995 6.25 17.5H5C4.83439 17.4995 4.67569 17.4335 4.55859 17.3164C4.44148 17.1993 4.37548 17.0406 4.375 16.875V15.625C4.37548 15.4594 4.44148 15.3007 4.55859 15.1836C4.67569 15.0665 4.83439 15.0005 5 15H6.25C6.41561 15.0005 6.57431 15.0665 6.69141 15.1836C6.80852 15.3007 6.87452 15.4594 6.875 15.625V16.875ZM6.875 12.5C6.87452 12.6656 6.80852 12.8243 6.69141 12.9414C6.57431 13.0585 6.41561 13.1245 6.25 13.125H5C4.83439 13.1245 4.67569 13.0585 4.55859 12.9414C4.44148 12.8243 4.37548 12.6656 4.375 12.5V11.25C4.37548 11.0844 4.44148 10.9257 4.55859 10.8086C4.67569 10.6915 4.83439 10.6255 5 10.625H6.25C6.41561 10.6255 6.57431 10.6915 6.69141 10.8086C6.80852 10.9257 6.87452 11.0844 6.875 11.25V12.5ZM11.25 16.875C11.2495 17.0406 11.1835 17.1993 11.0664 17.3164C10.9493 17.4335 10.7906 17.4995 10.625 17.5H9.375C9.20939 17.4995 9.05069 17.4335 8.93359 17.3164C8.81648 17.1993 8.75048 17.0406 8.75 16.875V15.625C8.75048 15.4594 8.81648 15.3007 8.93359 15.1836C9.05069 15.0665 9.20939 15.0005 9.375 15H10.625C10.7906 15.0005 10.9493 15.0665 11.0664 15.1836C11.1835 15.3007 11.2495 15.4594 11.25 15.625V16.875ZM11.25 12.5C11.2495 12.6656 11.1835 12.8243 11.0664 12.9414C10.9493 13.0585 10.7906 13.1245 10.625 13.125H9.375C9.20939 13.1245 9.05069 13.0585 8.93359 12.9414C8.81648 12.8243 8.75048 12.6656 8.75 12.5V11.25C8.75048 11.0844 8.81648 10.9257 8.93359 10.8086C9.05069 10.6915 9.20939 10.6255 9.375 10.625H10.625C10.7906 10.6255 10.9493 10.6915 11.0664 10.8086C11.1835 10.9257 11.2495 11.0844 11.25 11.25V12.5ZM15.625 12.5C15.6245 12.6656 15.5585 12.8243 15.4414 12.9414C15.3243 13.0585 15.1656 13.1245 15 13.125H13.75C13.5844 13.1245 13.4257 13.0585 13.3086 12.9414C13.1915 12.8243 13.1255 12.6656 13.125 12.5V11.25C13.1255 11.0844 13.1915 10.9257 13.3086 10.8086C13.4257 10.6915 13.5844 10.6255 13.75 10.625H15C15.1656 10.6255 15.3243 10.6915 15.4414 10.8086C15.5585 10.9257 15.6245 11.0844 15.625 11.25V12.5Z" fill="#CFA935"/>
<path id="Vector_3" d="M6.875 2.5V3.75C6.875 3.91576 6.80915 4.07473 6.69194 4.19194C6.57473 4.30915 6.41576 4.375 6.25 4.375C6.08424 4.375 5.92527 4.30915 5.80806 4.19194C5.69085 4.07473 5.625 3.91576 5.625 3.75V2.5C5.625 2.33424 5.69085 2.17527 5.80806 2.05806C5.92527 1.94085 6.08424 1.875 6.25 1.875C6.41576 1.875 6.57473 1.94085 6.69194 2.05806C6.80915 2.17527 6.875 2.33424 6.875 2.5Z" fill="#CFA935"/>
<path id="Vector_4" d="M14.375 2.5V3.75C14.375 3.91576 14.3092 4.07473 14.1919 4.19194C14.0747 4.30915 13.9158 4.375 13.75 4.375C13.5842 4.375 13.4253 4.30915 13.3081 4.19194C13.1908 4.07473 13.125 3.91576 13.125 3.75V2.5C13.125 2.33424 13.1908 2.17527 13.3081 2.05806C13.4253 1.94085 13.5842 1.875 13.75 1.875C13.9158 1.875 14.0747 1.94085 14.1919 2.05806C14.3092 2.17527 14.375 2.33424 14.375 2.5Z" fill="#CFA935"/>
</g>
</g>
<defs>
<clipPath id="clip0_28956_32633">
<rect width="20" height="20" fill="white"/>
</clipPath>
</defs>
</svg>
