<svg width="84" height="87" viewBox="0 0 84 87" fill="none" xmlns="http://www.w3.org/2000/svg">
<g clip-path="url(#clip0_11333_14103)">
<path d="M27.33 17.9859H26.785C28.4544 16.0034 29.3255 13.1543 29.3255 10.4005C29.3255 5.99597 25.744 2.41235 21.3419 2.41235C16.9398 2.41235 13.3539 5.99597 13.3539 10.4005C13.3539 13.1543 14.2257 16.0034 15.8959 17.9859H15.3494C10.0735 17.9859 5.78125 22.0136 5.78125 26.9643V35.2232C5.78125 35.9411 6.36333 36.5232 7.08125 36.5232C7.79918 36.5232 8.38125 35.9411 8.38125 35.2232V26.9643C8.38125 23.4472 11.5071 20.5859 15.3494 20.5859H27.33C31.1724 20.5859 34.2982 23.4472 34.2982 26.9643V35.2232C34.2982 35.9411 34.8803 36.5232 35.5982 36.5232C36.3161 36.5232 36.8982 35.9411 36.8982 35.2232V26.9643C36.8982 22.0136 32.6059 17.9859 27.33 17.9859ZM15.9539 10.4005C15.9539 7.42954 18.3709 5.01235 21.3419 5.01235C24.3129 5.01235 26.7255 7.42954 26.7255 10.4005C26.7255 13.3332 25.264 17.9859 21.3419 17.9859C17.4198 17.9859 15.9539 13.3332 15.9539 10.4005ZM12.7837 36.5232C12.0658 36.5232 11.4837 35.9411 11.4837 35.2232V27.8395C11.4837 27.1216 12.0658 26.5395 12.7837 26.5395C13.5016 26.5395 14.0837 27.1216 14.0837 27.8395V35.2232C14.0837 35.9411 13.5016 36.5232 12.7837 36.5232ZM29.8958 36.5232C29.1778 36.5232 28.5958 35.9411 28.5958 35.2232V27.8395C28.5958 27.1216 29.1778 26.5395 29.8958 26.5395C30.6137 26.5395 31.1958 27.1216 31.1958 27.8395V35.2232C31.1958 35.9411 30.6137 36.5232 29.8958 36.5232ZM69.3568 17.9859H68.8117C70.4811 16.0034 71.3523 13.1543 71.3523 10.4005C71.3523 5.99597 67.7708 2.41235 63.3686 2.41235C58.9665 2.41235 55.3806 5.99597 55.3806 10.4005C55.3806 13.1543 56.2524 16.0034 57.9226 17.9859H57.376C52.1001 17.9859 47.808 22.0136 47.808 26.9643V35.2232C47.808 35.9411 48.39 36.5232 49.108 36.5232C49.8259 36.5232 50.408 35.9411 50.408 35.2232V26.9643C50.408 23.4472 53.5338 20.5859 57.376 20.5859H69.3568C73.1991 20.5859 76.3249 23.4472 76.3249 26.9643V35.2232C76.3249 35.9411 76.907 36.5232 77.6249 36.5232C78.3429 36.5232 78.9249 35.9411 78.9249 35.2232V26.9643C78.9249 22.0136 74.6327 17.9859 69.3568 17.9859ZM57.9806 10.4005C57.9806 7.42954 60.3977 5.01235 63.3686 5.01235C66.3396 5.01235 68.7523 7.42954 68.7523 10.4005C68.7523 13.3332 67.2907 17.9859 63.3686 17.9859C59.4465 17.9859 57.9806 13.3332 57.9806 10.4005ZM54.8104 36.5232C54.0925 36.5232 53.5104 35.9411 53.5104 35.2232V27.8395C53.5104 27.1216 54.0925 26.5395 54.8104 26.5395C55.5283 26.5395 56.1104 27.1216 56.1104 27.8395V35.2232C56.1104 35.9411 55.5283 36.5232 54.8104 36.5232ZM71.9223 36.5232C71.2044 36.5232 70.6223 35.9411 70.6223 35.2232V27.8395C70.6223 27.1216 71.2044 26.5395 71.9223 26.5395C72.6402 26.5395 73.2223 27.1216 73.2223 27.8395V35.2232C73.2223 35.9411 72.6402 36.5232 71.9223 36.5232ZM27.33 62.8547H26.785C28.4544 60.8722 29.3255 58.0231 29.3255 55.2694C29.3255 50.8648 25.744 47.2812 21.3419 47.2812C16.9398 47.2812 13.3539 50.8647 13.3539 55.2694C13.3539 58.0231 14.2257 60.8722 15.8959 62.8547H15.3494C10.0735 62.8547 5.78125 66.8803 5.78125 71.8286V80.0875C5.78125 80.8054 6.36333 81.3875 7.08125 81.3875C7.79918 81.3875 8.38125 80.8054 8.38125 80.0875V71.8286C8.38125 68.3141 11.5071 65.4547 15.3494 65.4547H27.33C31.1724 65.4547 34.2982 68.3141 34.2982 71.8286V80.0875C34.2982 80.8054 34.8803 81.3875 35.5982 81.3875C36.3161 81.3875 36.8982 80.8054 36.8982 80.0875V71.8286C36.8982 66.8805 32.6059 62.8547 27.33 62.8547ZM15.9539 55.2694C15.9539 52.2984 18.3709 49.8812 21.3419 49.8812C24.3129 49.8812 26.7255 52.2984 26.7255 55.2694C26.7255 58.4191 25.0554 62.8547 21.3419 62.8547C17.4167 62.8547 15.9539 58.202 15.9539 55.2694ZM14.0837 72.7084V80.0875C14.0837 80.8054 13.5016 81.3875 12.7837 81.3875C12.0658 81.3875 11.4837 80.8054 11.4837 80.0875V72.7084C11.4837 71.9905 12.0658 71.4084 12.7837 71.4084C13.5016 71.4084 14.0837 71.9905 14.0837 72.7084ZM31.1958 72.7084V80.0875C31.1958 80.8054 30.6137 81.3875 29.8958 81.3875C29.1778 81.3875 28.5958 80.8054 28.5958 80.0875V72.7084C28.5958 71.9905 29.1778 71.4084 29.8958 71.4084C30.6137 71.4084 31.1958 71.9905 31.1958 72.7084ZM69.3568 62.8547H68.8117C70.4811 60.8722 71.3523 58.0231 71.3523 55.2694C71.3523 50.8648 67.7708 47.2812 63.3686 47.2812C58.9665 47.2812 55.3806 50.8647 55.3806 55.2694C55.3806 58.0231 56.2524 60.8722 57.9226 62.8547H57.376C52.1001 62.8547 47.808 66.8803 47.808 71.8286V80.0875C47.808 80.8054 48.39 81.3875 49.108 81.3875C49.8259 81.3875 50.408 80.8054 50.408 80.0875V71.8286C50.408 68.3141 53.5338 65.4547 57.376 65.4547H69.3568C73.1991 65.4547 76.3249 68.3141 76.3249 71.8286V80.0875C76.3249 80.8054 76.907 81.3875 77.6249 81.3875C78.3429 81.3875 78.9249 80.8054 78.9249 80.0875V71.8286C78.9249 66.8805 74.6327 62.8547 69.3568 62.8547ZM57.9806 55.2694C57.9806 52.2984 60.3977 49.8812 63.3686 49.8812C66.3396 49.8812 68.7523 52.2984 68.7523 55.2694C68.7523 58.4191 67.0821 62.8547 63.3686 62.8547C59.4435 62.8547 57.9806 58.202 57.9806 55.2694ZM73.2223 72.7084V80.0875C73.2223 80.8054 72.6402 81.3875 71.9223 81.3875C71.2044 81.3875 70.6223 80.8054 70.6223 80.0875V72.7084C70.6223 71.9905 71.2044 71.4084 71.9223 71.4084C72.6402 71.4084 73.2223 71.9905 73.2223 72.7084ZM56.1104 72.7084V80.0875C56.1104 80.8054 55.5283 81.3875 54.8104 81.3875C54.0925 81.3875 53.5104 80.8054 53.5104 80.0875V72.7084C53.5104 71.9905 54.0925 71.4084 54.8104 71.4084C55.5283 71.4084 56.1104 71.9905 56.1104 72.7084ZM47.6213 56.3656C47.6213 56.7393 47.4605 57.0949 47.1797 57.3417L44.0061 60.1332C43.7591 60.3503 43.4531 60.457 43.1481 60.457C42.7874 60.457 42.4284 60.3078 42.1715 60.0157C41.6973 59.4765 41.7498 58.6551 42.2891 58.1809L42.875 57.6656H38.3896C37.6717 57.6656 37.0896 57.0835 37.0896 56.3656C37.0896 55.6477 37.6717 55.0656 38.3896 55.0656H42.875L42.2893 54.5505C41.7503 54.0763 41.6975 53.2549 42.1717 52.7157C42.6458 52.1765 43.4674 52.124 44.0063 52.598L47.1799 55.3893C47.4607 55.6361 47.6214 55.9917 47.6214 56.3654L47.6213 56.3656ZM22.6419 36.3934V40.8824L23.1579 40.2968C23.6325 39.7579 24.454 39.7061 24.9926 40.1804C25.5313 40.6551 25.5835 41.4765 25.1088 42.0152L22.3174 45.1843C22.0707 45.4645 21.7157 45.6248 21.3424 45.625H21.3419C20.9688 45.625 20.6139 45.4648 20.3671 45.1851L17.5713 42.016C17.0963 41.4777 17.1478 40.6562 17.686 40.1811C18.2245 39.7063 19.046 39.7575 19.5209 40.296L20.0419 40.8865V36.3934C20.0419 35.6755 20.624 35.0934 21.3419 35.0934C22.0598 35.0934 22.6419 35.6755 22.6419 36.3934ZM37.0895 11.5016C37.0895 11.1284 37.25 10.773 37.5302 10.5261L40.6991 7.73472C41.2376 7.26022 42.0592 7.31205 42.5339 7.85107C43.0085 8.38975 42.9565 9.21119 42.4177 9.68585L41.832 10.2016H46.3165C47.0345 10.2016 47.6166 10.7837 47.6166 11.5016C47.6166 12.2196 47.0345 12.8016 46.3165 12.8016H41.832L42.4177 13.3174C42.9564 13.7919 43.0085 14.6135 42.5339 15.1522C42.277 15.4439 41.9183 15.5929 41.5579 15.5929C41.2526 15.5929 40.9461 15.486 40.6991 15.2684L37.5302 12.4771C37.25 12.2303 37.0895 11.8749 37.0895 11.5016ZM62.0686 44.3252V39.8319L61.5475 40.4226C61.0724 40.9609 60.2509 41.0121 59.7126 40.5375C59.1744 40.0625 59.1228 39.2409 59.5978 38.7025L62.3938 35.5334C62.6406 35.2538 62.9957 35.0935 63.3686 35.0935H63.3691C63.7424 35.0935 64.0975 35.2541 64.3441 35.5342L67.1356 38.7033C67.6102 39.242 67.5582 40.0636 67.0194 40.5381C66.7722 40.7557 66.4657 40.8626 66.1606 40.8626C65.8001 40.8626 65.4415 40.7136 65.1846 40.4219L64.6686 39.8363V44.3253C64.6686 45.0433 64.0866 45.6253 63.3686 45.6253C62.6507 45.6253 62.0686 45.0433 62.0686 44.3253V44.3252Z" fill="white"/>
</g>
<defs>
<clipPath id="clip0_11333_14103">
<rect width="83.2" height="85.8" fill="white" transform="translate(0.75 0.300049)"/>
</clipPath>
</defs>
</svg>
