<svg width="51" height="51" viewBox="0 0 51 51" fill="none" xmlns="http://www.w3.org/2000/svg">
<g clip-path="url(#clip0_9210_8494)">
<path d="M44.2496 25.581C44.2496 24.5727 43.5721 23.6556 42.3908 23.0651L37.5773 20.6582L42.3908 18.251C43.5721 17.6605 44.2496 16.7437 44.2499 15.7354C44.2499 14.7271 43.5724 13.8101 42.3908 13.2192L28.5709 6.30945C27.6307 5.83917 26.402 5.58008 25.1111 5.58008C23.8206 5.58008 22.5919 5.83917 21.6517 6.30945L7.83148 13.2192C6.65015 13.8101 5.97266 14.7271 5.97266 15.7354C5.97266 16.7437 6.65015 17.6605 7.83148 18.2513L12.6453 20.6582L7.83148 23.0651C6.65015 23.6556 5.97266 24.5727 5.97266 25.581C5.97266 26.5893 6.65015 27.506 7.83148 28.0969L12.645 30.5038L7.83118 32.9104C6.65015 33.5012 5.97266 34.4183 5.97266 35.4266C5.97266 36.4349 6.65015 37.3519 7.83148 37.9424L21.6517 44.8528C22.6218 45.3378 23.8663 45.5801 25.1111 45.5801C26.356 45.5801 27.6008 45.3378 28.5709 44.8528L42.3908 37.9424C43.5721 37.3519 44.2496 36.4349 44.2496 35.4266C44.2496 34.4183 43.5721 33.5012 42.3908 32.9104L37.5773 30.5038L42.3908 28.0969C43.5721 27.506 44.2496 26.5893 44.2496 25.581ZM8.32587 15.7354C8.3692 15.6625 8.52087 15.4952 8.87976 15.3158L22.7 8.4057C23.3121 8.09961 24.191 7.92383 25.1111 7.92383C26.0316 7.92383 26.9105 8.09961 27.5226 8.4057L41.3425 15.3158C41.7014 15.4952 41.8531 15.6625 41.8964 15.7354C41.8531 15.808 41.7014 15.9753 41.3425 16.1547L27.5226 23.0651C26.9105 23.3712 26.0316 23.5467 25.1111 23.5467C24.191 23.5467 23.3121 23.3712 22.7 23.0651L8.87946 16.1547C8.52087 15.9753 8.3692 15.808 8.32587 15.7354ZM41.3428 35.007C41.7017 35.1864 41.8534 35.3536 41.8967 35.4266C41.8531 35.4992 41.7017 35.6664 41.3425 35.8459L27.5226 42.7563C26.2382 43.3984 23.9844 43.3984 22.7 42.7563L8.87946 35.8459C8.52057 35.6664 8.3692 35.4992 8.32587 35.4266C8.3692 35.3536 8.52057 35.1864 8.87946 35.007L15.2656 31.8139L21.6517 35.007C22.6218 35.4922 23.8663 35.7348 25.1111 35.7345C26.356 35.7345 27.6011 35.4919 28.5709 35.007L34.9567 31.8139L41.3428 35.007ZM41.3428 26.0003L27.5226 32.9104C26.2382 33.5531 23.9844 33.5528 22.7 32.9104L8.87946 26.0003C8.52087 25.8209 8.3692 25.6536 8.32587 25.581C8.3692 25.5081 8.52057 25.3408 8.87946 25.1617L15.2656 21.9683L21.6517 25.1617C22.5919 25.6317 23.8206 25.8907 25.1111 25.8907C26.4017 25.8907 27.6304 25.6317 28.5709 25.1617L34.9567 21.9683L41.3428 25.1617C41.7014 25.3408 41.8531 25.5081 41.8964 25.581C41.8531 25.6536 41.7017 25.8209 41.3428 26.0003Z" fill="white"/>
</g>
<defs>
<clipPath id="clip0_9210_8494">
<rect width="40" height="40" fill="white" transform="translate(5.11328 5.58008)"/>
</clipPath>
</defs>
</svg>
