<svg width="51" height="51" viewBox="0 0 51 51" fill="none" xmlns="http://www.w3.org/2000/svg">
<g clip-path="url(#clip0_9210_1209)">
<path d="M43.6905 34.7663V23.3902L44.0147 23.2012C44.7029 22.8012 45.1133 22.0876 45.1133 21.2917C45.1133 20.4959 44.7029 19.7809 44.0147 19.3809L27.3835 9.70748C25.984 8.89109 24.2425 8.89246 22.843 9.70748L6.21045 19.3822C5.52369 19.7822 5.11328 20.4959 5.11328 21.2917C5.11328 22.0876 5.52369 22.8012 6.21045 23.2026L11.253 26.1366V32.9568C11.253 34.5402 12.1039 36.0128 13.472 36.8031L20.4134 40.8097C21.8621 41.6453 23.4874 42.0645 25.1126 42.0645C26.7378 42.0645 28.3617 41.6467 29.8118 40.8097L36.7518 36.8031C38.1212 36.0141 38.9722 34.5402 38.9722 32.9568V26.1353L41.2281 24.823V34.7663C40.6494 35.1608 40.2691 35.8251 40.2691 36.5798C40.2691 37.7907 41.2499 38.7729 42.4593 38.7729C43.6686 38.7729 44.6495 37.7907 44.6495 36.5798C44.6495 35.8265 44.2692 35.1621 43.6905 34.7663ZM36.5111 32.9554H36.5097C36.5097 33.6595 36.1335 34.3142 35.5233 34.6649L28.5833 38.6715C26.4437 39.9057 23.7829 39.9057 21.6446 38.6715L14.7032 34.6649C14.0944 34.3142 13.7169 33.6595 13.7169 32.9554V27.5681L22.843 32.8773C23.5435 33.2842 24.3287 33.4883 25.114 33.4883C25.8992 33.4883 26.6845 33.2855 27.3849 32.8773L36.5111 27.5681V32.9554ZM26.1468 30.746C25.5093 31.1172 24.7172 31.1172 24.0797 30.746L7.82883 21.2917L24.0784 11.8375C24.7159 11.4663 25.508 11.4663 26.1455 11.8375L42.3964 21.2904L26.1468 30.746Z" fill="white"/>
</g>
<defs>
<clipPath id="clip0_9210_1209">
<rect width="40" height="40" fill="white" transform="translate(5.11328 5.58008)"/>
</clipPath>
</defs>
</svg>
