<svg width="51" height="51" viewBox="0 0 51 51" fill="none" xmlns="http://www.w3.org/2000/svg">
<g clip-path="url(#clip0_9210_749)">
<path d="M16.1488 23.3926H7.82773C6.33094 23.3926 5.11328 22.1749 5.11328 20.6781V12.357C5.11328 10.8602 6.33094 9.64258 7.82773 9.64258H16.1488C17.6456 9.64258 18.8633 10.8602 18.8633 12.357V20.6781C18.8633 22.1749 17.6456 23.3926 16.1488 23.3926ZM7.82773 12.1426C7.70945 12.1426 7.61328 12.2388 7.61328 12.357V20.6781C7.61328 20.7964 7.70945 20.8926 7.82773 20.8926H16.1488C16.2671 20.8926 16.3633 20.7964 16.3633 20.6781V12.357C16.3633 12.2388 16.2671 12.1426 16.1488 12.1426H7.82773Z" fill="white"/>
<path d="M16.1488 41.5176H7.82773C6.33094 41.5176 5.11328 40.2999 5.11328 38.8031V30.482C5.11328 28.9852 6.33094 27.7676 7.82773 27.7676H16.1488C17.6456 27.7676 18.8633 28.9852 18.8633 30.482V38.8031C18.8633 40.2999 17.6456 41.5176 16.1488 41.5176ZM7.82773 30.2676C7.70945 30.2676 7.61328 30.3637 7.61328 30.482V38.8031C7.61328 38.9214 7.70945 39.0176 7.82773 39.0176H16.1488C16.2671 39.0176 16.3633 38.9214 16.3633 38.8031V30.482C16.3633 30.3637 16.2671 30.2676 16.1488 30.2676H7.82773Z" fill="white"/>
<path d="M43.8633 15.8926H23.8633C23.173 15.8926 22.6133 15.3329 22.6133 14.6426C22.6133 13.9523 23.173 13.3926 23.8633 13.3926H43.8633C44.5536 13.3926 45.1133 13.9523 45.1133 14.6426C45.1133 15.3329 44.5536 15.8926 43.8633 15.8926Z" fill="white"/>
<path d="M36.9883 20.5801H23.8633C23.173 20.5801 22.6133 20.0204 22.6133 19.3301C22.6133 18.6398 23.173 18.0801 23.8633 18.0801H36.9883C37.6786 18.0801 38.2383 18.6398 38.2383 19.3301C38.2383 20.0204 37.6786 20.5801 36.9883 20.5801Z" fill="white"/>
<path d="M43.8633 33.7051H23.8633C23.173 33.7051 22.6133 33.1454 22.6133 32.4551C22.6133 31.7648 23.173 31.2051 23.8633 31.2051H43.8633C44.5536 31.2051 45.1133 31.7648 45.1133 32.4551C45.1133 33.1454 44.5536 33.7051 43.8633 33.7051Z" fill="white"/>
<path d="M36.9883 38.7051H23.8633C23.173 38.7051 22.6133 38.1454 22.6133 37.4551C22.6133 36.7648 23.173 36.2051 23.8633 36.2051H36.9883C37.6786 36.2051 38.2383 36.7648 38.2383 37.4551C38.2383 38.1454 37.6786 38.7051 36.9883 38.7051Z" fill="white"/>
</g>
<defs>
<clipPath id="clip0_9210_749">
<rect width="40" height="40" fill="white" transform="translate(5.11328 5.58008)"/>
</clipPath>
</defs>
</svg>
