<svg width="50" height="50" viewBox="0 0 50 50" fill="none" xmlns="http://www.w3.org/2000/svg">
<g clip-path="url(#clip0_9210_7655)">
<path d="M15.1749 20.3496C14.5077 20.3496 13.9668 20.8905 13.9668 21.5577C13.9668 22.2248 14.5077 22.7657 15.1749 22.7657H28.1279C28.795 22.7657 29.3359 22.2248 29.3359 21.5577C29.3359 20.8905 28.795 20.3496 28.1279 20.3496H15.1749Z" fill="white"/>
<path d="M20.999 27.207H15.1749C14.5077 27.207 13.9668 27.748 13.9668 28.4151C13.9668 29.0822 14.5077 29.6231 15.1749 29.6231H20.999C21.6661 29.6231 22.2071 29.0822 22.2071 28.4151C22.2071 27.748 21.6661 27.207 20.999 27.207Z" fill="white"/>
<path d="M20.821 42.5839H11.6263C9.64916 42.5839 8.04245 40.9705 8.04245 38.9866V14.5168C8.04245 12.5329 9.64916 10.9195 11.6263 10.9195H14.1216V11.2228C14.1216 12.9852 15.5552 14.4175 17.3176 14.4175H28.8612C30.6237 14.4175 32.0572 12.9852 32.0572 11.2228V10.9195H34.5404C36.5498 10.9195 38.123 12.4993 38.123 14.5168V21.4027C38.123 22.0698 38.6639 22.6107 39.331 22.6107C39.9982 22.6107 40.5391 22.0698 40.5391 21.4027V14.5168C40.5391 11.2013 37.8478 8.50336 34.5391 8.50336H32.0559V8.19463C32.0559 6.43221 30.6223 5 28.8599 5H17.3163C15.5539 5 14.1203 6.43221 14.1203 8.19463V8.50336H11.6263C8.31762 8.50336 5.625 11.2013 5.625 14.5168V38.9866C5.625 42.302 8.31762 45 11.6263 45H20.821C21.4881 45 22.029 44.4591 22.029 43.7919C22.029 43.1248 21.4881 42.5839 20.821 42.5839ZM16.5391 8.19463C16.5391 7.7651 16.8881 7.41611 17.3176 7.41611H28.8612C29.2908 7.41611 29.6398 7.7651 29.6398 8.19463V11.2215C29.6398 11.651 29.2908 12 28.8612 12H17.3176C16.8881 12 16.5391 11.651 16.5391 11.2215V8.19463Z" fill="white"/>
<path d="M43.0689 26.8219C41.4152 25.1668 38.5279 25.1655 36.8729 26.8219L26.1628 37.5319C25.8179 37.8769 25.5924 38.3145 25.5105 38.7964L24.9226 42.2715C24.7977 43.0165 25.0434 43.7816 25.5776 44.3145C26.0192 44.7561 26.6165 44.9977 27.23 44.9977C27.3602 44.9977 27.489 44.987 27.6179 44.9655L31.0917 44.3789C31.5736 44.297 32.0112 44.0715 32.3561 43.7266L43.0662 33.0165C44.7749 31.3091 44.7749 28.5306 43.0689 26.8219ZM30.6904 41.9977L27.3065 42.6729L27.8729 39.2406L35.5494 31.5641L38.3293 34.344L30.6904 41.9977ZM41.3588 31.3078L40.0353 32.6339L37.2568 29.8554L38.5816 28.5306C38.9521 28.1601 39.4461 27.9547 39.9696 27.9547C40.4957 27.9547 40.9883 28.1588 41.3588 28.5306C42.1253 29.297 42.1253 30.5413 41.3588 31.3078Z" fill="white"/>
</g>
<defs>
<clipPath id="clip0_9210_7655">
<rect width="40" height="40" fill="white" transform="translate(5 5)"/>
</clipPath>
</defs>
</svg>
