<svg width="48" height="48" viewBox="0 0 48 48" fill="none" xmlns="http://www.w3.org/2000/svg">
<path d="M41.8679 46.5003H6.20991C4.46691 46.5003 2.91441 45.5268 2.15691 43.9578C1.39941 42.3888 1.60191 40.5678 2.68491 39.2028L9.17241 31.0293L11.5214 32.8953L5.03391 41.0688C4.66791 41.5308 4.60191 42.1218 4.85841 42.6528C5.11341 43.1838 5.61891 43.5003 6.20841 43.5003H41.8679C42.4544 43.5003 42.9584 43.1853 43.2149 42.6588C43.4729 42.1308 43.4114 41.5413 43.0529 41.0793L36.6779 32.8818L39.0449 31.0383L45.4199 39.2358C46.4834 40.6038 46.6709 42.4188 45.9104 43.9758C45.1484 45.5313 43.6004 46.5003 41.8679 46.5003Z" fill="#A9A7B0"/>
<path d="M37.299 46.4995H10.701L8.24996 29.3485C8.00246 27.6265 8.51546 25.8835 9.65546 24.568C10.7955 23.2525 12.4485 22.498 14.1885 22.498H33.8115C35.5515 22.498 37.203 23.251 38.343 24.5665C39.4845 25.882 39.999 27.6235 39.7515 29.3485L37.299 46.4995ZM13.302 43.4995H34.698L36.7815 28.924C36.9045 28.063 36.648 27.1915 36.0765 26.533C35.5065 25.876 34.6815 25.4995 33.8115 25.4995H14.1885C13.3185 25.4995 12.492 25.876 11.922 26.533C11.352 27.19 11.0955 28.063 11.2185 28.924L13.302 43.4995Z" fill="#A9A7B0"/>
<path d="M6.75146 7.96191C7.57989 7.96191 8.25146 7.29034 8.25146 6.46191C8.25146 5.63349 7.57989 4.96191 6.75146 4.96191C5.92304 4.96191 5.25146 5.63349 5.25146 6.46191C5.25146 7.29034 5.92304 7.96191 6.75146 7.96191Z" fill="#CFA935"/>
<path d="M6.75146 15.5576C7.57989 15.5576 8.25146 14.886 8.25146 14.0576C8.25146 13.2292 7.57989 12.5576 6.75146 12.5576C5.92304 12.5576 5.25146 13.2292 5.25146 14.0576C5.25146 14.886 5.92304 15.5576 6.75146 15.5576Z" fill="#CFA935"/>
<path d="M42.8267 5.68652C42.8267 4.8581 42.1551 4.18652 41.3267 4.18652C40.4982 4.18652 39.8267 4.8581 39.8267 5.68652V14.688C39.8267 15.5165 40.4982 16.188 41.3267 16.188C42.1551 16.188 42.8267 15.5165 42.8267 14.688V5.68652Z" fill="#A9A7B0"/>
<path d="M24 39C21.519 39 19.5 36.981 19.5 34.5C19.5 32.019 21.519 30 24 30C26.481 30 28.5 32.019 28.5 34.5C28.5 36.981 26.481 39 24 39ZM24 33C23.1735 33 22.5 33.672 22.5 34.5C22.5 35.328 23.1735 36 24 36C24.8265 36 25.5 35.328 25.5 34.5C25.5 33.672 24.828 33 24 33Z" fill="#CFA935"/>
<path d="M24.0391 20.6104C19.0756 20.6104 15.0391 16.5739 15.0391 11.6104C15.0391 6.64685 19.0756 2.61035 24.0391 2.61035C29.0026 2.61035 33.0391 6.64685 33.0391 11.6104C33.0391 16.5739 29.0026 20.6104 24.0391 20.6104ZM24.0391 5.61035C20.7301 5.61035 18.0391 8.30135 18.0391 11.6104C18.0391 14.9194 20.7301 17.6104 24.0391 17.6104C27.3481 17.6104 30.0391 14.9194 30.0391 11.6104C30.0391 8.30135 27.3466 5.61035 24.0391 5.61035Z" fill="#A9A7B0"/>
</svg>
