<svg width="72" height="73" viewBox="0 0 72 73" fill="none" xmlns="http://www.w3.org/2000/svg">
<g clip-path="url(#clip0_27139_241)">
<path d="M27.6 43.7002C20.9724 43.7002 15.6 49.0727 15.6 55.7002C15.6 62.3277 20.9724 67.7002 27.6 67.7002C34.2275 67.7002 39.6 62.3277 39.6 55.7002C39.5929 49.0756 34.2246 43.7072 27.6 43.7002ZM27.6 65.3002C22.2978 65.3002 18 61.0023 18 55.7002C18 50.398 22.2978 46.1002 27.6 46.1002C32.9021 46.1002 37.2 50.398 37.2 55.7002C37.1941 60.9994 32.8992 65.2943 27.6 65.3002Z" fill="#CFA935"/>
<path d="M27.6 52.1C29.0655 52.1 30 52.8102 30 53.3H32.4C32.4 51.5949 30.8895 50.2139 28.8 49.8201V48.5H26.4V49.8201C24.3106 50.2109 22.8 51.5926 22.8 53.3C22.8 55.3197 24.9083 56.9 27.6 56.9C29.0655 56.9 30 57.6102 30 58.1C30 58.5898 29.0655 59.3 27.6 59.3C26.1346 59.3 25.2 58.5898 25.2 58.1H22.8C22.8 59.8051 24.3106 61.1861 26.4 61.5799V62.9H28.8V61.5799C30.8895 61.1891 32.4 59.8074 32.4 58.1C32.4 56.0803 30.2918 54.5 27.6 54.5C26.1346 54.5 25.2 53.7898 25.2 53.3C25.2 52.8102 26.1346 52.1 27.6 52.1Z" fill="white"/>
<path d="M61.2 70.1H10.8V41.3H30C31.9881 41.3 33.6 39.6881 33.6 37.7V7.7H46.8V22.1H61.2V38.9H63.6V20.4031L48.4969 5.3H33.6V4.1C33.6 2.11191 31.9881 0.5 30 0.5H3.6C1.61191 0.5 0 2.11191 0 4.1V37.7C0 39.6881 1.61191 41.3 3.6 41.3H8.4V72.5H63.6V55.7H61.2V70.1ZM49.2 9.39688L59.5031 19.7H49.2V9.39688ZM2.4 37.7V4.1C2.4 3.4373 2.9373 2.9 3.6 2.9H30C30.6627 2.9 31.2 3.4373 31.2 4.1V37.7C31.2 38.3627 30.6627 38.9 30 38.9H3.6C2.9373 38.9 2.4 38.3627 2.4 37.7Z" fill="#CFA935"/>
<path d="M38.4 30.5H40.8V32.9H38.4V30.5Z" fill="#CFA935"/>
<path d="M43.2 30.5H57.6V32.9H43.2V30.5Z" fill="#CFA935"/>
<path d="M38.4 25.7002H40.8V28.1002H38.4V25.7002Z" fill="#CFA935"/>
<path d="M43.2 25.7002H57.6V28.1002H43.2V25.7002Z" fill="#CFA935"/>
<path d="M38.4 35.2998H40.8V37.6998H38.4V35.2998Z" fill="#CFA935"/>
<path d="M43.2 35.2998H57.6V37.6998H43.2V35.2998Z" fill="#CFA935"/>
<path d="M38.4 40.1001H40.8V42.5001H38.4V40.1001Z" fill="#CFA935"/>
<path d="M43.2 40.1001H57.6V42.5001H43.2V40.1001Z" fill="#CFA935"/>
<path d="M30 4.1001H3.59998V12.5001H30V4.1001ZM27.6 10.1001H5.99998V6.5001H27.6V10.1001Z" fill="#CFA935"/>
<path d="M9.60005 13.7002H7.20005C5.87466 13.7002 4.80005 14.7748 4.80005 16.1002V18.5002C4.80005 19.8256 5.87466 20.9002 7.20005 20.9002H9.60005C10.9254 20.9002 12 19.8256 12 18.5002V16.1002C12 14.7748 10.9254 13.7002 9.60005 13.7002ZM7.20005 18.5002V16.1002H9.60005V18.5002H7.20005Z" fill="white"/>
<path d="M18 13.7002H15.6C14.2746 13.7002 13.2 14.7748 13.2 16.1002V18.5002C13.2 19.8256 14.2746 20.9002 15.6 20.9002H18C19.3253 20.9002 20.4 19.8256 20.4 18.5002V16.1002C20.4 14.7748 19.3253 13.7002 18 13.7002ZM15.6 18.5002V16.1002H18V18.5002H15.6Z" fill="white"/>
<path d="M26.4 13.7002H24C22.6746 13.7002 21.6 14.7748 21.6 16.1002V18.5002C21.6 19.8256 22.6746 20.9002 24 20.9002H26.4C27.7254 20.9002 28.8 19.8256 28.8 18.5002V16.1002C28.8 14.7748 27.7254 13.7002 26.4 13.7002ZM24 18.5002V16.1002H26.4V18.5002H24Z" fill="white"/>
<path d="M9.60005 22.1001H7.20005C5.87466 22.1001 4.80005 23.1747 4.80005 24.5001V26.9001C4.80005 28.2255 5.87466 29.3001 7.20005 29.3001H9.60005C10.9254 29.3001 12 28.2255 12 26.9001V24.5001C12 23.1747 10.9254 22.1001 9.60005 22.1001ZM7.20005 26.9001V24.5001H9.60005V26.9001H7.20005Z" fill="white"/>
<path d="M18 22.1001H15.6C14.2746 22.1001 13.2 23.1747 13.2 24.5001V26.9001C13.2 28.2255 14.2746 29.3001 15.6 29.3001H18C19.3253 29.3001 20.4 28.2255 20.4 26.9001V24.5001C20.4 23.1747 19.3253 22.1001 18 22.1001ZM15.6 26.9001V24.5001H18V26.9001H15.6Z" fill="white"/>
<path d="M26.4 22.1001H24C22.6746 22.1001 21.6 23.1747 21.6 24.5001V26.9001C21.6 28.2255 22.6746 29.3001 24 29.3001H26.4C27.7254 29.3001 28.8 28.2255 28.8 26.9001V24.5001C28.8 23.1747 27.7254 22.1001 26.4 22.1001ZM24 26.9001V24.5001H26.4V26.9001H24Z" fill="white"/>
<path d="M9.60005 30.5H7.20005C5.87466 30.5 4.80005 31.5746 4.80005 32.9V35.3C4.80005 36.6254 5.87466 37.7 7.20005 37.7H9.60005C10.9254 37.7 12 36.6254 12 35.3V32.9C12 31.5746 10.9254 30.5 9.60005 30.5ZM7.20005 35.3V32.9H9.60005V35.3H7.20005Z" fill="white"/>
<path d="M18 30.5H15.6C14.2746 30.5 13.2 31.5746 13.2 32.9V35.3C13.2 36.6254 14.2746 37.7 15.6 37.7H18C19.3253 37.7 20.4 36.6254 20.4 35.3V32.9C20.4 31.5746 19.3253 30.5 18 30.5ZM15.6 35.3V32.9H18V35.3H15.6Z" fill="white"/>
<path d="M26.4 30.5H24C22.6746 30.5 21.6 31.5746 21.6 32.9V35.3C21.6 36.6254 22.6746 37.7 24 37.7H26.4C27.7254 37.7 28.8 36.6254 28.8 35.3V32.9C28.8 31.5746 27.7254 30.5 26.4 30.5ZM24 35.3V32.9H26.4V35.3H24Z" fill="white"/>
<path d="M70.9102 38.79C69.4858 37.43 67.2446 37.43 65.8201 38.79L45.2485 59.3611C45.1488 59.4619 45.0674 59.5791 45.0082 59.708L42.1113 65.9986C41.9022 66.4544 41.9988 66.9929 42.3539 67.3474C42.7084 67.7025 43.2469 67.7992 43.7028 67.59L49.9934 64.6931C50.1223 64.6339 50.2395 64.5531 50.3403 64.4529L70.9102 43.8812C72.3164 42.4755 72.3164 40.1957 70.9102 38.79ZM48.7934 62.6025L45.6492 64.0509L47.0977 60.9068L62.4358 45.5675L64.1326 47.2644L48.7934 62.6025ZM65.833 45.5623L64.1362 43.866L64.9764 43.0257L66.6733 44.7226L65.833 45.5623ZM69.2174 42.1785L68.369 43.0269L66.6721 41.33L67.5217 40.4816C67.9957 40.0281 68.7428 40.0281 69.2174 40.4816C69.6856 40.9503 69.6856 41.7097 69.2174 42.1785Z" fill="#CFA935"/>
</g>
<defs>
<clipPath id="clip0_27139_241">
<rect width="72" height="72" fill="white" transform="translate(0 0.5)"/>
</clipPath>
</defs>
</svg>
