<svg width="48" height="48" viewBox="0 0 48 48" fill="none" xmlns="http://www.w3.org/2000/svg">
<path d="M38.829 46.5H9.171C4.941 46.5 1.5 43.059 1.5 38.829V15.171C1.5 10.941 4.941 7.5 9.171 7.5H38.829C43.059 7.5 46.5 10.941 46.5 15.171V38.8275C46.5 43.0575 43.059 46.5 38.829 46.5ZM9.171 10.5C6.5955 10.5 4.5 12.5955 4.5 15.171V38.8275C4.5 41.403 6.5955 43.4985 9.171 43.4985H38.829C41.4045 43.4985 43.5 41.403 43.5 38.8275V15.171C43.5 12.5955 41.4045 10.5 38.829 10.5H9.171Z" fill="#A9A7B0"/>
<path d="M16.4985 4.5C16.4985 3.67157 15.827 3 14.9985 3C14.1701 3 13.4985 3.67157 13.4985 4.5V13.5C13.4985 14.3284 14.1701 15 14.9985 15C15.827 15 16.4985 14.3284 16.4985 13.5V4.5Z" fill="#A9A7B0"/>
<path d="M34.5015 4.5C34.5015 3.67157 33.8299 3 33.0015 3C32.173 3 31.5015 3.67157 31.5015 4.5V13.5C31.5015 14.3284 32.173 15 33.0015 15C33.8299 15 34.5015 14.3284 34.5015 13.5V4.5Z" fill="#A9A7B0"/>
<path d="M13.2437 23.4902C14.0721 23.4902 14.7437 22.8187 14.7437 21.9902C14.7437 21.1618 14.0721 20.4902 13.2437 20.4902C12.4152 20.4902 11.7437 21.1618 11.7437 21.9902C11.7437 22.8187 12.4152 23.4902 13.2437 23.4902Z" fill="#A9A7B0"/>
<path d="M24.0737 23.4902C24.9022 23.4902 25.5737 22.8187 25.5737 21.9902C25.5737 21.1618 24.9022 20.4902 24.0737 20.4902C23.2453 20.4902 22.5737 21.1618 22.5737 21.9902C22.5737 22.8187 23.2453 23.4902 24.0737 23.4902Z" fill="#A9A7B0"/>
<path d="M34.5 23.4902C35.3284 23.4902 36 22.8187 36 21.9902C36 21.1618 35.3284 20.4902 34.5 20.4902C33.6716 20.4902 33 21.1618 33 21.9902C33 22.8187 33.6716 23.4902 34.5 23.4902Z" fill="#A9A7B0"/>
<path d="M13.2437 35.0039C14.0721 35.0039 14.7437 34.3323 14.7437 33.5039C14.7437 32.6755 14.0721 32.0039 13.2437 32.0039C12.4152 32.0039 11.7437 32.6755 11.7437 33.5039C11.7437 34.3323 12.4152 35.0039 13.2437 35.0039Z" fill="#A9A7B0"/>
<path d="M24.0737 35.0039C24.9022 35.0039 25.5737 34.3323 25.5737 33.5039C25.5737 32.6755 24.9022 32.0039 24.0737 32.0039C23.2453 32.0039 22.5737 32.6755 22.5737 33.5039C22.5737 34.3323 23.2453 35.0039 24.0737 35.0039Z" fill="#CFA935"/>
<path d="M34.5 38.7539C31.605 38.7539 29.25 36.3989 29.25 33.5039C29.25 30.6089 31.605 28.2539 34.5 28.2539C37.395 28.2539 39.75 30.6089 39.75 33.5039C39.75 36.3989 37.395 38.7539 34.5 38.7539ZM34.5 31.2539C33.2595 31.2539 32.25 32.2634 32.25 33.5039C32.25 34.7444 33.2595 35.7539 34.5 35.7539C35.7405 35.7539 36.75 34.7444 36.75 33.5039C36.75 32.2634 35.7405 31.2539 34.5 31.2539Z" fill="#CFA935"/>
</svg>
