<svg width="91" height="91" viewBox="0 0 91 91" fill="none" xmlns="http://www.w3.org/2000/svg">
<g clip-path="url(#clip0_81_1650)">
<path d="M85.1675 12.3813L81.3216 8.99476L85.1675 5.60892C85.7656 5.08158 85.9702 4.25967 85.6894 3.51397C85.4072 2.76759 84.7102 2.28556 83.913 2.28556H67.998V1.60167C67.998 0.873137 67.4075 0.282623 66.679 0.282623C65.9504 0.282623 65.3599 0.873137 65.3599 1.60167V19.3912L54.5267 25.2737C54.467 24.7972 54.3242 24.3289 54.0983 23.8881L52.5719 20.908C51.524 18.8618 49.0068 18.0509 46.962 19.098L45.7816 19.7023C44.7901 20.2104 44.0561 21.0728 43.7141 22.133C43.3722 23.1925 43.4635 24.322 43.9716 25.3129L45.498 28.2936C45.8544 28.9892 46.3811 29.5398 47.0004 29.9257C46.1902 31.0168 45.8057 32.3585 45.4102 33.7524L45.1259 34.759C44.9274 35.4601 45.3353 36.1893 46.0364 36.3871C46.1559 36.4214 46.2767 36.4372 46.3955 36.4372C46.9709 36.4372 47.4996 36.0582 47.6644 35.4766L47.9487 34.472C48.5268 32.4334 48.8818 31.3416 50.012 30.7277L52.0383 29.627L52.2883 29.4993C52.3714 29.4568 52.4489 29.4087 52.5279 29.3613L66.9694 21.5192C66.8781 23.3243 65.9065 25.03 64.3066 26.0016L54.9154 31.7076C54.9044 31.7138 54.8934 31.7199 54.8831 31.7268L51.9601 33.5025C51.338 33.8808 51.1395 34.6924 51.5179 35.3152C51.8742 35.9023 52.6158 36.111 53.2207 35.8165L51.0029 42.5208L49.3817 43.1855L44.9734 44.9921L46.2437 40.5014C46.4415 39.8004 46.0343 39.0711 45.3333 38.8727C44.6315 38.6736 43.903 39.0821 43.7045 39.7832L41.6975 46.881C41.6714 46.9724 41.6542 47.0726 41.6501 47.1681L41.1248 56.8168C41.109 57.1848 41.1873 57.8804 41.017 58.2395L35.1833 70.5126H30.9439C28.4603 70.5126 26.4402 72.5327 26.4402 75.0156V78.823C25.8717 78.5628 25.2407 78.4172 24.5753 78.4172H13.8094C11.3265 78.4172 9.3064 80.4367 9.3064 82.9202V87.6444H6.1396C5.41107 87.6444 4.82056 88.2349 4.82056 88.9634C4.82056 89.6919 5.41107 90.2824 6.1396 90.2824H83.9117C84.6402 90.2824 85.2307 89.6919 85.2307 88.9634C85.2307 88.2349 84.6402 87.6444 83.9117 87.6444H80.4812V53.6452C80.4812 51.1623 78.4611 49.1422 75.9782 49.1422H67.998V26.1307C69.4606 24.1483 70.0023 21.5501 69.3232 19.0809C69.2168 18.6929 68.9387 18.3743 68.5679 18.2171C68.386 18.1395 68.191 18.1052 67.998 18.1127V15.7046H83.9124C84.7102 15.7046 85.4072 15.2226 85.6887 14.4769C85.9702 13.7312 85.7656 12.9086 85.1675 12.3813ZM46.2252 22.9433C46.3509 22.5539 46.62 22.2367 46.9839 22.0506L48.1643 21.4464C48.3868 21.3324 48.6243 21.2781 48.8592 21.2781C49.4154 21.2781 49.953 21.5823 50.2235 22.1104L51.7506 25.0911C52.107 25.7873 51.8763 26.6312 51.2425 27.0576L50.8127 27.2904L49.9056 27.7553C49.1551 28.1398 48.2309 27.8418 47.8464 27.0906L46.3193 24.1105C46.1332 23.7466 46.0995 23.3319 46.2252 22.9433ZM43.5748 70.9184C43.1264 70.7138 42.6389 70.5799 42.1266 70.5325L43.5748 68.6092V70.9184ZM49.8376 60.2898C50.4721 59.5297 50.6472 58.6419 50.7886 57.9264C50.8243 57.7561 51.4753 54.2007 51.4753 54.2007C51.4753 54.2007 52.0912 54.5845 52.1558 54.612C52.2004 54.6319 52.232 54.6758 52.2368 54.7273L52.9543 62.0215H48.5337L49.8376 60.2898ZM57.6379 53.0093L56.5242 62.0154H55.6048L54.8625 54.4691C54.7677 53.5023 54.1759 52.6585 53.3086 52.2389L51.982 51.3978L52.8657 46.5C52.8657 46.5 56.5887 50.9226 56.6752 51.0352C57.4457 52.037 57.7093 52.438 57.6379 53.0093ZM43.39 59.3931C43.6565 58.5911 43.7801 57.7746 43.7595 56.9445L44.2387 48.1445L50.3396 45.6444L49.2306 51.7871C49.2272 51.8036 49.2238 51.8208 49.2217 51.8372L48.3044 56.9163C48.1849 57.4423 48.0805 58.2402 47.7523 58.6735L38.839 70.5126H38.1043L43.39 59.3931ZM11.9445 82.9196C11.9445 81.8916 12.7808 81.0553 13.8094 81.0553H24.5753C25.6039 81.0553 26.4409 81.8916 26.4409 82.9196V87.6444H11.9445V82.9196ZM29.0783 82.9196V75.0156C29.0783 73.987 29.9153 73.1507 30.9439 73.1507H41.7098C42.7384 73.1507 43.5748 73.987 43.5748 75.0156V87.6444H29.079V82.9196H29.0783ZM77.8431 53.6452V87.6444H63.3474V79.7356C63.3474 79.0071 62.7569 78.4165 62.0283 78.4165C61.2991 78.4165 60.7086 79.0071 60.7086 79.7356V87.6444H46.2128V66.5239C46.2128 65.496 47.0492 64.6596 48.0778 64.6596H58.8437C59.8723 64.6596 60.7086 65.496 60.7086 66.5239V73.1363C60.7086 73.8648 61.2991 74.4553 62.0276 74.4553C62.7569 74.4553 63.3467 73.8648 63.3467 73.1363V53.6452C63.3467 52.6166 64.1837 51.7802 65.2123 51.7802H66.6652C66.6693 51.7802 66.6742 51.7809 66.679 51.7809C66.6831 51.7809 66.6879 51.7802 66.692 51.7802H75.9775C77.0061 51.7802 77.8431 52.6173 77.8431 53.6452ZM65.2123 49.1422C62.7294 49.1422 60.7093 51.1623 60.7093 53.6452V62.4273C60.2369 62.2117 59.7219 62.0751 59.1801 62.0353L60.2561 53.3341C60.4676 51.6381 59.6024 50.5141 58.7661 49.4264C58.6775 49.3111 53.5503 43.2233 53.5503 43.2233L56.6958 33.7133L65.3599 28.4495V49.1422H65.2123ZM67.998 13.0659V4.92434H81.9527L78.9472 7.57066C78.538 7.93115 78.3032 8.45026 78.3032 8.99545C78.3032 9.54065 78.538 10.0597 78.9472 10.4202L81.9527 13.0666H67.998V13.0659Z" fill="#CFA935"/>
</g>
<defs>
<clipPath id="clip0_81_1650">
<rect width="90" height="90" fill="white" transform="translate(0.25 0.282593)"/>
</clipPath>
</defs>
</svg>
