<svg width="72" height="72" viewBox="0 0 72 72" fill="none" xmlns="http://www.w3.org/2000/svg">
<path d="M66.375 39.3888H61.875C61.1773 39.3897 60.497 39.6064 59.9274 40.0093C59.3578 40.4121 58.9268 40.9813 58.6935 41.6388H55.5214C55.3903 41.6389 55.2601 41.616 55.1369 41.571L47.5411 38.8089C46.368 38.3835 45.121 38.1996 43.875 38.2685V38.2638H30.7402C30.3774 38.2637 30.017 38.3222 29.6728 38.4371L20.2424 41.5805C20.1275 41.6202 20.0065 41.6398 19.8848 41.6382L13.3024 41.6267C13.0673 40.9721 12.6361 40.406 12.0674 40.0055C11.4988 39.605 10.8205 39.3897 10.125 39.3888H5.625C4.7302 39.3898 3.87234 39.7457 3.23962 40.3784C2.6069 41.0112 2.251 41.869 2.25 42.7638V58.5138C2.251 59.4086 2.6069 60.2665 3.23962 60.8992C3.87234 61.5319 4.7302 61.8878 5.625 61.8888H10.125C11.0198 61.8878 11.8777 61.5319 12.5104 60.8992C13.1431 60.2665 13.499 59.4086 13.5 58.5138V58.5035L16.4288 58.5125C16.496 58.5929 16.5666 58.6713 16.642 58.7468C17.2675 59.3731 18.1072 59.7389 18.9917 59.7705C19.0245 60.6553 19.3905 61.495 20.0165 62.1213C20.6424 62.7475 21.482 63.1139 22.3667 63.1471C22.388 63.6957 22.5374 64.2317 22.8032 64.7122C23.069 65.1926 23.4436 65.6041 23.8971 65.9137C24.3505 66.2232 24.8702 66.4222 25.4145 66.4946C25.9587 66.567 26.5124 66.511 27.031 66.3308C27.1849 66.8122 27.4408 67.2547 27.7813 67.6281C28.1218 68.0015 28.5389 68.297 29.0041 68.4945C29.4693 68.6919 29.9716 68.7867 30.4767 68.7722C30.9819 68.7578 31.4779 68.6345 31.9311 68.4109L32.392 68.8718C32.795 69.2753 33.2903 69.5744 33.835 69.7434C34.3796 69.9124 34.9573 69.9461 35.5179 69.8417C36.0785 69.7372 36.6052 69.4977 37.0525 69.1439C37.4997 68.7901 37.854 68.3326 38.0847 67.8111C38.5162 68.2201 39.0444 68.5128 39.6199 68.6619C40.1954 68.811 40.7994 68.8116 41.3752 68.6636C41.951 68.5156 42.4798 68.2239 42.912 67.8157C43.3443 67.4076 43.6659 66.8964 43.8467 66.33C44.47 66.5458 45.1414 66.5821 45.7843 66.4348C46.4272 66.2874 47.0158 65.9624 47.483 65.4968C47.8799 65.1004 48.1755 64.6142 48.3445 64.0793C48.9657 64.296 49.6354 64.3337 50.277 64.1882C50.9187 64.0427 51.5065 63.7198 51.9735 63.2562C52.4405 62.7927 52.7678 62.2073 52.9181 61.5668C53.0684 60.9262 53.0356 60.2563 52.8236 59.6335L54.8962 59.6284C56.0022 59.6267 57.083 59.298 58.0027 58.6837L58.5 58.3521V58.5138C58.501 59.4086 58.8569 60.2665 59.4896 60.8992C60.1223 61.5319 60.9802 61.8878 61.875 61.8888H66.375C67.2698 61.8878 68.1277 61.5319 68.7604 60.8992C69.3931 60.2665 69.749 59.4086 69.75 58.5138V42.7638C69.749 41.869 69.3931 41.0112 68.7604 40.3784C68.1277 39.7457 67.2698 39.3898 66.375 39.3888ZM11.25 58.5138C11.2497 58.8121 11.131 59.098 10.9201 59.3089C10.7092 59.5198 10.4233 59.6385 10.125 59.6388H5.625C5.32674 59.6385 5.04079 59.5198 4.82988 59.3089C4.61898 59.098 4.50034 58.8121 4.5 58.5138V42.7638C4.50034 42.4656 4.61898 42.1796 4.82988 41.9687C5.04079 41.7578 5.32674 41.6392 5.625 41.6388H10.125C10.4233 41.6392 10.7092 41.7578 10.9201 41.9687C11.131 42.1796 11.2497 42.4656 11.25 42.7638V58.5138ZM19.125 57.5253C18.8755 57.5253 18.6316 57.4513 18.4241 57.3127C18.2167 57.1741 18.055 56.9771 17.9595 56.7466C17.864 56.5161 17.8391 56.2624 17.8877 56.0177C17.9364 55.773 18.0566 55.5482 18.233 55.3718L20.483 53.1218C20.7196 52.8855 21.0404 52.7528 21.3748 52.7529C21.7092 52.753 22.0299 52.8859 22.2664 53.1224C22.5029 53.3589 22.6358 53.6796 22.6359 54.014C22.636 54.3484 22.5033 54.6692 22.267 54.9058L20.017 57.1558C19.9002 57.2733 19.7611 57.3665 19.608 57.4299C19.4549 57.4934 19.2907 57.5258 19.125 57.5253ZM22.5 60.9003C22.2505 60.9003 22.0066 60.8263 21.7991 60.6877C21.5917 60.5491 21.43 60.3521 21.3345 60.1216C21.239 59.8911 21.2141 59.6374 21.2627 59.3927C21.3114 59.148 21.4316 58.9232 21.608 58.7468L23.858 56.4968L24.983 55.3718C25.2196 55.1355 25.5404 55.0028 25.8748 55.0029C26.2092 55.003 26.5299 55.1359 26.7664 55.3724C27.0029 55.6089 27.1358 55.9296 27.1359 56.264C27.136 56.5984 27.0033 56.9192 26.767 57.1558L23.392 60.5308C23.2752 60.6483 23.1361 60.7415 22.983 60.8049C22.8299 60.8684 22.6657 60.9008 22.5 60.9003ZM26.767 63.9058C26.5304 64.1422 26.2096 64.2748 25.8752 64.2747C25.5408 64.2746 25.2201 64.1417 24.9836 63.9052C24.7471 63.6688 24.6142 63.3481 24.6141 63.0136C24.614 62.6792 24.7467 62.3584 24.983 62.1218L28.358 58.7468C28.5946 58.5105 28.9154 58.3778 29.2498 58.3779C29.5842 58.378 29.9049 58.5109 30.1414 58.7474C30.3779 58.9839 30.5108 59.3046 30.5109 59.639C30.511 59.9734 30.3783 60.2942 30.142 60.5308L27.892 62.7808L26.767 63.9058ZM31.267 66.1558C31.0304 66.3922 30.7096 66.5248 30.3752 66.5247C30.0408 66.5246 29.7201 66.3917 29.4836 66.1552C29.2471 65.9188 29.1142 65.5981 29.1141 65.2636C29.114 64.9292 29.2467 64.6084 29.483 64.3718L31.733 62.1218C31.9696 61.8855 32.2904 61.7528 32.6248 61.7529C32.9592 61.753 33.2799 61.8859 33.5164 62.1224C33.7529 62.3589 33.8858 62.6796 33.8859 63.014C33.886 63.3484 33.7533 63.6692 33.517 63.9058L31.267 66.1558ZM35.767 67.2808C35.5302 67.517 35.2094 67.6497 34.875 67.6497C34.5406 67.6497 34.2198 67.517 33.983 67.2808L33.6535 66.9513L35.108 65.4968C35.218 65.3864 35.3206 65.2688 35.415 65.1448L35.767 65.4968C36.0032 65.7336 36.1359 66.0544 36.1359 66.3888C36.1359 66.7233 36.0032 67.0441 35.767 67.2808ZM50.392 61.6558C50.1552 61.892 49.8344 62.0247 49.5 62.0247C49.1656 62.0247 48.8448 61.892 48.608 61.6558L47.483 60.5308L40.1705 53.2183L38.5795 54.8093L45.892 62.1218C46.0093 62.2389 46.1023 62.378 46.1658 62.5311C46.2294 62.6842 46.2621 62.8483 46.2621 63.014C46.2622 63.1797 46.2296 63.3439 46.1662 63.497C46.1028 63.6501 46.0098 63.7893 45.8926 63.9065C45.7754 64.0237 45.6363 64.1166 45.4832 64.18C45.33 64.2434 45.1659 64.276 45.0002 64.2759C44.8344 64.2759 44.6703 64.2432 44.5173 64.1797C44.3642 64.1162 44.2251 64.0231 44.108 63.9058L42.983 62.7808L37.9205 57.7183L36.3295 59.3093L41.392 64.3718C41.6283 64.6084 41.761 64.9292 41.7609 65.2636C41.7608 65.5981 41.6279 65.9188 41.3914 66.1552C41.1549 66.3917 40.8342 66.5246 40.4998 66.5247C40.1654 66.5248 39.8446 66.3922 39.608 66.1558L37.358 63.9058L36.1174 62.6653C36.0344 61.8215 35.6483 61.0365 35.0306 60.4558C34.4129 59.875 33.6056 59.538 32.7583 59.5071C32.7255 58.6223 32.3595 57.7826 31.7335 57.1564C31.1076 56.5302 30.2681 56.1637 29.3833 56.1306C29.362 55.5819 29.2126 55.0459 28.9468 54.5655C28.681 54.085 28.3064 53.6735 27.8529 53.364C27.3995 53.0545 26.8798 52.8555 26.3355 52.783C25.7913 52.7106 25.2376 52.7667 24.719 52.9468C24.5364 52.3727 24.209 51.8553 23.7685 51.4443C23.3279 51.0334 22.789 50.7428 22.2036 50.6006C21.6182 50.4583 21.006 50.4692 20.426 50.6321C19.846 50.795 19.3177 51.1046 18.892 51.5308L16.642 53.7808C16.3162 54.1062 16.0578 54.4927 15.8816 54.9181C15.7054 55.3435 15.6149 55.7995 15.6153 56.26L13.5 56.2535V43.877L19.8809 43.8882H19.8867C20.2495 43.8883 20.6099 43.8298 20.954 43.715L30.3843 40.5716C30.4991 40.5333 30.6192 40.5138 30.7402 40.5138H38.2927L31.1955 46.4281C30.7607 46.7886 30.4012 47.2313 30.1377 47.7309C29.8743 48.2305 29.7119 48.7772 29.6601 49.3396C29.6082 49.9021 29.6678 50.4692 29.8355 51.0086C30.0031 51.548 30.2756 52.049 30.6372 52.4829C30.9988 52.9168 31.4424 53.2751 31.9427 53.5373C32.443 53.7995 32.9901 53.9604 33.5527 54.0108C34.1153 54.0612 34.6823 54.0001 35.2212 53.831C35.7601 53.6619 36.2604 53.3882 36.6934 53.0255L40.431 49.9107L50.392 59.8718C50.6282 60.1086 50.7609 60.4294 50.7609 60.7638C50.7609 61.0983 50.6282 61.4191 50.392 61.6558ZM58.5 55.648L56.7546 56.8116C56.2028 57.1802 55.5544 57.3774 54.8908 57.3784L51.0898 57.3877L45.2971 51.5949C47.246 51.6509 49.1513 51.0118 50.6722 49.7918L51.3278 49.2673L49.9222 47.5103L49.2666 48.0348C48.117 48.9562 46.6677 49.4208 45.1966 49.3393C43.7255 49.2578 42.3363 48.6361 41.2955 47.5933L40.569 46.8669L35.2529 51.2969C35.0467 51.4687 34.8087 51.5983 34.5525 51.6781C34.2962 51.758 34.0267 51.7866 33.7594 51.7623C33.4921 51.738 33.2322 51.6613 32.9946 51.5365C32.7569 51.4118 32.5462 51.2414 32.3743 51.0353C32.2025 50.8291 32.073 50.591 31.9931 50.3348C31.9133 50.0785 31.8847 49.8091 31.909 49.5418C31.9333 49.2745 32.01 49.0146 32.1347 48.7769C32.2595 48.5393 32.4298 48.3285 32.636 48.1567L39.8681 42.1299C40.814 41.3447 41.9487 40.8203 43.1597 40.6087C44.3708 40.397 45.6161 40.5056 46.7722 40.9235L54.3678 43.6855C54.7375 43.8202 55.1279 43.8891 55.5214 43.8888H58.5V55.648ZM67.5 58.5138C67.4997 58.8121 67.381 59.098 67.1701 59.3089C66.9592 59.5198 66.6733 59.6385 66.375 59.6388H61.875C61.5767 59.6385 61.2908 59.5198 61.0799 59.3089C60.869 59.098 60.7503 58.8121 60.75 58.5138V42.7638C60.7503 42.4656 60.869 42.1796 61.0799 41.9687C61.2908 41.7578 61.5767 41.6392 61.875 41.6388H66.375C66.6733 41.6392 66.9592 41.7578 67.1701 41.9687C67.381 42.1796 67.4997 42.4656 67.5 42.7638V58.5138Z" fill="white"/>
<path d="M19.125 33.75H18V36H54V33.75H52.875V21.6406L54.428 18.5346L41.625 13.4133V10.125C41.6233 8.82886 41.1748 7.57293 40.3551 6.5689C39.5354 5.56488 38.3946 4.87417 37.125 4.61319V2.25H34.875V4.61319C33.6054 4.87417 32.4646 5.56488 31.6449 6.5689C30.8252 7.57293 30.3767 8.82886 30.375 10.125V13.4133L17.572 18.5346L19.125 21.6406V33.75ZM23.625 33.75H21.375V22.5H23.625V33.75ZM28.125 33.75H25.875V22.5H28.125V33.75ZM32.625 33.75H30.375V22.5H32.625V33.75ZM37.125 33.75H34.875V22.5H37.125V33.75ZM41.625 33.75H39.375V22.5H41.625V33.75ZM46.125 33.75H43.875V22.5H46.125V33.75ZM50.625 33.75H48.375V22.5H50.625V33.75ZM32.625 10.125C32.625 9.22989 32.9806 8.37145 33.6135 7.73851C34.2465 7.10558 35.1049 6.75 36 6.75C36.8951 6.75 37.7536 7.10558 38.3865 7.73851C39.0194 8.37145 39.375 9.22989 39.375 10.125V12.5134L36 11.1634L32.625 12.5134V10.125ZM36 13.5867L51.322 19.7154L51.0547 20.25H20.9453L20.678 19.7154L36 13.5867Z" fill="#CFA935"/>
</svg>
