<svg width="90" height="91" viewBox="0 0 90 91" fill="none" xmlns="http://www.w3.org/2000/svg">
<g clip-path="url(#clip0_134_2166)">
<path d="M65.8266 36.15H72.7693C73.8706 36.15 74.7663 35.2541 74.7663 34.153V30.3019H78.5691C80.3185 30.3019 81.3217 28.3049 80.276 26.9016L71.0047 14.459C70.153 13.3153 68.4425 13.3155 67.5909 14.459L58.3197 26.9014C57.2743 28.3043 58.2765 30.3019 60.0266 30.3019H63.8294V34.153C63.8294 35.2541 64.7255 36.15 65.8266 36.15ZM61.0365 27.6662L69.298 16.5789L77.5595 27.6662H74.1281C73.0269 27.6662 72.1311 28.5621 72.1311 29.6634V33.5145H66.4649V29.6634C66.4649 28.5621 65.569 27.6662 64.4679 27.6662H61.0365Z" fill="#CFA935"/>
<path d="M16.9319 36.1499H23.8746C24.9759 36.1499 25.8716 35.254 25.8716 34.1529V30.3018H29.6744C31.4238 30.3018 32.427 28.3046 31.3813 26.9013L22.1099 14.4587C21.2584 13.3155 19.5482 13.3149 18.6962 14.4587L9.42499 26.9011C8.37958 28.3041 9.38176 30.3016 11.1319 30.3016H14.9347V34.1527C14.9347 35.254 15.8308 36.1499 16.9319 36.1499ZM12.1416 27.6661L20.4031 16.5789L28.6646 27.6661H25.2333C24.132 27.6661 23.2363 28.562 23.2363 29.6633V33.5144H17.5704V29.6633C17.5704 28.562 16.6745 27.6661 15.5734 27.6661H12.1416Z" fill="#CFA935"/>
<path d="M49.9809 22.2171V27.814C49.9809 28.5417 50.5707 29.1317 51.2986 29.1317C52.0265 29.1317 52.6163 28.5417 52.6163 27.814V22.8555H57.5912C59.5905 22.8555 60.7362 20.5735 59.5415 18.9702L46.8007 1.87129C45.8272 0.5648 43.8734 0.564625 42.9002 1.87129L30.1595 18.9701C28.9647 20.5735 30.1103 22.8555 32.1095 22.8555H37.3838V38.8542C37.3838 39.9555 38.2797 40.8512 39.3808 40.8512H50.6194C51.7206 40.8512 52.6163 39.9553 52.6163 38.8542V33.9634C52.6163 33.2357 52.0265 32.6457 51.2986 32.6457C50.5707 32.6457 49.9809 33.2357 49.9809 33.9634V38.2159H40.0193V22.2171C40.0193 21.1159 39.1234 20.22 38.0223 20.22H32.5149L44.8505 3.66464L57.1863 20.22H51.9779C50.8766 20.22 49.9809 21.1159 49.9809 22.2171Z" fill="#CFA935"/>
<path d="M85.3285 70.1835C85.3201 70.18 85.3115 70.1767 85.3029 70.1733L84.385 69.8179C86.3862 66.974 85.8189 62.5447 83.5847 61.3928C83.5805 61.3905 83.5737 61.3872 83.567 61.3837C83.4644 61.3306 83.398 61.212 83.398 61.0818V52.7154C83.398 49.2447 82.0414 45.9865 79.5783 43.5412C71.3788 35.4014 57.5441 41.4003 57.5441 52.8607V61.0816C57.5441 61.2118 57.4779 61.3304 57.3665 61.3879C56.1152 62.033 55.2794 63.7686 55.2372 65.8097C55.2051 67.3613 55.6217 68.773 56.3998 69.8762L55.6329 70.1735C55.6246 70.1768 55.6162 70.1802 55.6078 70.1835C54.41 70.6763 53.284 71.6046 52.4471 72.7573C52.3189 72.7072 52.2029 72.6621 52.1015 72.6219C51.6484 72.4426 51.17 72.3731 50.7004 72.4043V70.3385C52.7527 68.6678 54.0666 66.1233 54.0666 63.2768V59.4568C55.2599 59.134 56.1417 58.0447 56.1417 56.7507V50.453C56.1417 49.3873 55.7092 48.3999 54.9236 47.6725C54.1565 46.9622 53.1397 46.5988 52.142 46.676C52.0652 46.6821 51.9782 46.653 51.9666 46.5941C51.5094 44.2571 49.9854 43.0722 47.4366 43.0722H46.4397C45.7118 43.0722 45.1219 43.6622 45.1219 44.39C45.1219 45.1177 45.7118 45.7077 46.4397 45.7077H47.4366C48.9917 45.7077 49.2157 46.259 49.3803 47.0998C49.6472 48.4656 50.9202 49.4126 52.3442 49.3037C52.6112 49.283 52.9062 49.3961 53.1331 49.6061C53.2724 49.7352 53.5063 50.0169 53.5063 50.4528V56.7505C53.5063 56.8415 53.4267 56.9211 53.3356 56.9211C52.5006 56.9211 51.8138 56.2338 51.8138 55.3992C51.8138 53.9188 49.7858 53.3471 49.0585 54.7075C48.3286 56.0728 46.9151 56.9209 45.3698 56.9209C44.2048 56.9209 37.1718 56.9209 35.9782 56.9209C35.4281 56.9209 34.9806 56.4734 34.9806 55.9233V49.8884C34.9806 47.5829 36.8562 45.7073 39.1617 45.7073H40.2902C41.0182 45.7073 41.608 45.1174 41.608 44.3896C41.608 43.6619 41.0182 43.0719 40.2902 43.0719H39.1617C35.403 43.0719 32.3452 46.1297 32.3452 49.8884V55.9233C32.3452 57.8103 33.7915 59.3645 35.6335 59.5388V63.2763C35.6335 65.8982 36.833 68.5717 38.9997 70.3372V72.3678C38.6172 72.3736 38.2332 72.4458 37.8658 72.5906C37.8259 72.6062 37.7841 72.6227 37.7405 72.6398C36.8555 71.7537 35.7943 71.0546 34.6205 70.6001C30.8015 69.1212 27.2907 67.7647 27.2907 67.7647C26.8375 67.5855 26.3591 67.5159 25.8895 67.5472V65.4818C27.9418 63.8111 29.2557 61.2667 29.2557 58.4202V54.6001C30.449 54.2774 31.3309 53.188 31.3309 51.894V45.5963C31.3309 43.3284 29.3667 41.6615 27.3311 41.8193C27.2547 41.8253 27.1672 41.7963 27.1556 41.7376C26.6987 39.4007 25.1747 38.2156 22.6257 38.2156H14.3516C10.5928 38.2156 7.53499 41.2734 7.53499 45.0321V51.067C7.53499 52.954 8.98134 54.5082 10.8234 54.6825V58.42C10.8234 61.0419 12.0229 63.7154 14.1896 65.4809V67.5115C13.8071 67.5173 13.423 67.5893 13.0558 67.7343C13.0558 67.7343 10.0981 68.8863 5.73409 70.5906C2.25087 71.9512 0 75.2466 0 78.9862V82.7735C0 84.5488 1.44441 85.993 3.21949 85.993H24.8107V87.6302C24.8107 89.4054 26.2551 90.8497 28.0302 90.8497H61.9698C63.7451 90.8497 65.1893 89.4054 65.1893 87.6302V85.993H76.3066C77.0345 85.993 77.6243 85.403 77.6243 84.6753C77.6243 83.9475 77.0345 83.3575 76.3066 83.3575H71.7878V79.7151L75.4959 75.7923L75.4961 75.7922C75.5759 75.7075 75.6962 75.6713 75.8099 75.6983L77.9875 76.2119C79.2894 76.5195 80.4777 75.3928 80.247 74.08L79.761 70.8531C80.2168 71.0297 83.8012 72.4177 84.3371 72.6254C85.8433 73.2517 87.3642 75.0832 87.3642 77.3819V82.8369C87.3642 83.1239 87.1307 83.3574 86.8436 83.3574H82.4557C81.7278 83.3574 81.138 83.9474 81.138 84.6751C81.138 85.4028 81.7278 85.9928 82.4557 85.9928H86.8436C88.5839 85.9928 89.9996 84.5771 89.9996 82.8369V77.3819C90 74.2759 88.0791 71.3157 85.3285 70.1835ZM57.8725 65.864C57.8989 64.5886 58.3791 63.8313 58.5602 63.7377C58.5655 63.735 58.5808 63.7271 58.586 63.7245C59.5692 63.216 60.1798 62.2035 60.1798 61.0816V52.8607C60.1798 43.6338 71.2284 38.9655 77.7219 45.4115C79.6828 47.3582 80.7628 49.9522 80.7628 52.7154V61.0818C80.7628 62.2033 81.3736 63.216 82.3677 63.7303C83.0172 64.0652 83.5324 67.2244 81.784 68.8104L81.7165 68.7843L76.3238 66.6957L75.7275 66.4649L75.7265 65.1519C77.6435 63.5804 78.7963 61.2387 78.7963 58.7081V53.7396C78.7963 53.0118 78.2064 52.4218 77.4785 52.4218C75.0505 52.4218 75.7565 52.4475 74.2337 52.3176C73.13 52.224 72.1333 51.3506 71.8632 50.239C71.7056 49.5934 71.1321 49.1426 70.4685 49.1426C69.8045 49.1426 69.2318 49.5933 69.0731 50.2412C68.8855 51.0147 68.3482 51.6672 67.673 52.0277C67.1591 52.3015 66.6754 52.3234 66.6754 52.3234C66.6754 52.3234 66.1623 52.4215 63.458 52.4215C62.7301 52.4215 62.1402 53.0115 62.1402 53.7392V58.7758V58.7765C62.1402 61.3682 63.3353 63.6797 65.2042 65.1749V66.4624C63.6555 67.0628 60.5646 68.2612 59.0053 68.8656C57.9249 67.911 57.8622 66.3621 57.8725 65.864ZM67.8267 67.112C67.835 67.0352 67.8399 66.9663 67.8399 66.877V66.5852C69.4568 67.1033 71.367 67.1727 73.092 66.5998L73.0922 66.8857V66.8869C73.0926 66.9628 73.0987 67.0457 73.1071 67.1192L70.468 75.033L67.8267 67.112ZM64.006 69.7541L64.1952 69.6808L65.7095 69.0938L67.3311 73.9565C66.7676 73.3747 65.9921 73.0549 65.1977 73.0549C64.9723 73.0549 64.7453 73.0806 64.5213 73.1335L63.4592 73.384L64.006 69.7541ZM66.8765 54.9517C68.2804 54.8442 69.567 54.1547 70.4701 53.1125C71.3589 54.1354 72.628 54.8266 74.0109 54.9438C75.5653 55.0765 75.208 55.0573 76.1606 55.0573V58.7081C76.1606 61.838 73.5958 64.3686 70.5632 64.3686C70.5571 64.3686 70.5507 64.3686 70.5448 64.3686C67.1452 64.3574 64.7759 61.793 64.7759 58.7765C64.7759 58.7765 64.7759 58.7763 64.7759 58.7761V55.0573C65.5256 55.0575 65.326 55.0712 66.8765 54.9517ZM45.9208 78.131C45.963 78.199 47.0513 79.8083 47.0961 79.8745L46.2863 81.6413H43.7134L42.9037 79.8745L42.9227 79.8464C42.9675 79.7802 44.037 78.1987 44.079 78.131H45.9208ZM43.1806 88.2144L43.9527 84.2768H46.0477L46.8197 88.2144H43.1806ZM51.1324 75.0727C51.5381 75.2333 52.1397 75.4645 53.1174 75.8408L49.5501 78.7991C49.3596 78.5171 48.4888 77.2278 48.3319 76.9953C49.3765 76.1291 49.3556 76.1465 50.5345 75.1688C50.7021 75.03 50.9314 74.9931 51.1324 75.0727ZM38.2694 63.277V59.5569H45.3702C47.0237 59.5569 48.6674 58.9506 49.9417 57.7975C50.3261 58.3399 50.8374 58.7858 51.4314 59.0933V63.2768C51.4314 66.8558 48.5112 69.745 44.9631 69.745C40.9758 69.7451 38.2694 66.6536 38.2694 63.277ZM48.0652 71.8361V73.7927L46.4052 75.1693C46.4044 75.17 46.4035 75.1711 46.4024 75.1718C46.274 75.2788 46.1373 75.4258 46.0834 75.4956H43.9166C43.8471 75.4058 43.7234 75.2765 43.5972 75.1716C43.5963 75.1709 43.5956 75.17 43.5948 75.1693L41.6357 73.5448V71.8205C43.55 72.5041 45.9308 72.6125 48.0652 71.8361ZM39.43 75.1394C39.43 75.1394 41.6043 76.9424 41.6679 76.9953L40.4498 78.7992L36.8523 75.816C38.2737 75.2615 38.4711 75.1856 38.8325 75.0431C39.0338 74.9637 39.2629 75.0006 39.43 75.1394ZM34.9473 73.7286C34.2747 73.9905 34.2485 74.0009 30.6769 75.396C27.0865 76.7964 25.0068 79.9149 24.8235 83.3577H24.6947L23.6962 78.2655L24.4006 76.7288C25.0126 76.8005 25.6493 76.612 26.124 76.2182L31.1235 72.0724L33.6694 73.0585C34.1208 73.2331 34.5495 73.4585 34.9473 73.7286ZM21.1101 73.2742C21.1541 73.345 22.235 74.943 22.2854 75.0177L21.4756 76.7845H18.9027L18.0931 75.0177C18.1379 74.9513 19.226 73.3422 19.2681 73.2742H21.1101ZM18.37 83.3577L19.142 79.4201H21.237L22.009 83.3577H18.37ZM26.3219 70.216C26.7949 70.4031 27.6538 70.7324 28.3069 70.9842L24.7395 73.9424C24.5786 73.7042 23.695 72.3957 23.5214 72.1387C24.9751 70.933 24.7959 71.0817 25.724 70.3121C25.8916 70.1731 26.1209 70.1366 26.3219 70.216ZM10.1705 51.067V45.0321C10.1705 42.7266 12.046 40.851 14.3516 40.851H22.6264C24.1815 40.851 24.4055 41.4022 24.57 42.2435C24.8372 43.6093 26.1114 44.5565 27.534 44.4471C28.0615 44.406 28.6961 44.8874 28.6961 45.5963V51.894C28.6961 51.985 28.6165 52.0646 28.5255 52.0646C27.6851 52.0646 27.0036 51.3699 27.0036 50.5429C27.0036 49.0194 24.9593 48.5194 24.2483 49.8512C23.5184 51.2165 22.1049 52.0646 20.5597 52.0646H12.1411H11.1681C10.618 52.0646 10.1705 51.6171 10.1705 51.067ZM13.4588 58.4202V54.7001H20.5597C22.2343 54.7001 23.87 54.0825 25.1312 52.9407C25.5156 53.483 26.0269 53.929 26.6209 54.2364V58.42C26.6209 61.9993 23.7001 64.8883 20.1526 64.8883C15.9922 64.8885 13.4588 61.6298 13.4588 58.4202ZM23.2545 66.9795V68.9359C21.5626 70.339 21.4482 70.4144 21.2727 70.6387H19.1059C18.8726 70.358 18.877 70.3898 16.825 68.688V66.9637C18.7326 67.645 21.1152 67.7582 23.2545 66.9795ZM14.0219 70.1863C14.2231 70.1073 14.4522 70.1438 14.6191 70.2826C15.4704 70.9884 15.887 71.334 16.8572 72.1385L15.6391 73.9424C14.3017 72.8334 14.7782 73.2284 12.0409 70.9585C12.96 70.601 13.5941 70.355 14.0219 70.1863ZM2.63547 82.7735V78.9862C2.63547 76.34 4.228 74.0081 6.69287 73.0455L9.23294 72.0535C11.1605 73.652 12.3316 74.6231 14.2547 76.218C14.7174 76.6019 15.3529 76.8022 15.9782 76.7286L16.6824 78.2653L15.6841 83.3575H3.21949C2.89744 83.3577 2.63547 83.0956 2.63547 82.7735ZM27.4462 87.6303C27.4462 86.6744 27.4462 85.7966 27.4462 83.843C27.4462 81.2003 29.0355 78.8662 31.5037 77.9023C31.7534 77.8048 31.3504 77.962 34.0447 76.9112L39.0653 81.0747C39.5228 81.4542 40.1541 81.6594 40.789 81.5854L41.4932 83.1221L40.4949 88.2144H28.0304C27.7081 88.2144 27.4462 87.9524 27.4462 87.6303ZM62.5538 87.6303C62.5538 87.9524 62.2919 88.2144 61.9698 88.2144H49.5053L48.5069 83.1221L49.2111 81.5854C49.8101 81.6559 50.4517 81.4753 50.9346 81.0747L55.9339 76.9289L58.4799 77.9149C60.8952 78.8504 62.554 81.2325 62.554 83.862C62.5538 85.2273 62.5538 86.0717 62.5538 87.6303ZM65.1749 83.3577C64.9788 79.8564 62.7048 76.727 59.4317 75.4574C59.4315 75.4574 59.4315 75.4574 59.4315 75.4574C55.8371 74.0654 55.6988 74.0118 55.0355 73.7558C55.5704 73.1906 56.1524 72.8118 56.5996 72.6255C57.0202 72.4625 60.6022 71.0738 61.1755 70.8515L60.6891 74.0802C60.4579 75.3942 61.6486 76.5195 62.9485 76.2122L65.1264 75.6985C65.2401 75.6718 65.3603 75.7078 65.4402 75.7927L69.1524 79.7195V83.3577H65.1749ZM77.4773 73.384L76.4154 73.1335C75.4016 72.894 74.3288 73.2096 73.6056 73.9565L75.2262 69.0972L76.9312 69.7574L77.4773 73.384Z" fill="#CFA935"/>
</g>
<defs>
<clipPath id="clip0_134_2166">
<rect width="90" height="90" fill="white" transform="translate(0 0.870605)"/>
</clipPath>
</defs>
</svg>
