<svg width="912" height="287" viewBox="0 0 912 287" fill="none" xmlns="http://www.w3.org/2000/svg">
<g clip-path="url(#clip0_7816_17866)">
<g opacity="0.2">
<path d="M14.8428 165.884L1.27759 189.383L3.08495 190.426L16.6502 166.927L14.8428 165.884Z" fill="#F3F3F3"/>
</g>
<path d="M4.17391 142.978C4.17391 144.022 4.17391 145.065 2.08696 145.065C0 145.065 0 145.065 0 142.978C0 140.891 0 140.891 2.08696 140.891C4.17391 140.891 4.17391 140.891 4.17391 142.978Z" fill="#F3F3F3"/>
<g opacity="0.4">
<path d="M41.9431 212.829L28.3779 236.328L30.1853 237.372L43.7505 213.873L41.9431 212.829Z" fill="#F3F3F3"/>
</g>
<path d="M31.3043 189.942C31.3043 190.985 31.3043 192.029 29.2173 192.029C27.1304 192.029 27.1304 192.029 27.1304 189.942C27.1304 187.855 27.1304 187.854 29.2173 187.854C31.3043 187.854 31.3043 187.855 31.3043 189.942Z" fill="#F3F3F3"/>
<g opacity="0.8">
<path d="M71.2289 259.808L69.4233 260.854L83.0295 284.33L84.8351 283.283L71.2289 259.808Z" fill="#F3F3F3"/>
</g>
<path d="M58.4349 237.949C58.4349 238.992 58.4349 240.036 56.3479 240.036C54.261 240.036 54.261 240.036 54.261 237.949C54.261 235.861 54.261 235.861 56.3479 235.861C58.4349 235.861 58.4349 235.861 58.4349 237.949Z" fill="#F3F3F3"/>
<path d="M85.5653 284.912C85.5653 285.956 85.5653 287 83.4783 287C81.3914 287 81.3914 287 81.3914 284.912C81.3914 282.825 81.3914 282.825 83.4783 282.825C85.5653 282.825 85.5653 282.825 85.5653 284.912Z" fill="#F3F3F3"/>
<g opacity="0.9">
<path d="M14.6087 73.0544L1.04346 50.0944L3.13041 49.0508L16.6956 72.0108L14.6087 73.0544Z" fill="#F3F3F3"/>
</g>
<g opacity="0.9">
<path d="M28.9326 48.6031L15.4084 72.126L17.2176 73.1665L30.7418 49.6436L28.9326 48.6031Z" fill="#F3F3F3"/>
</g>
<path d="M14.9031 71.9559L1.33789 95.4551L3.14525 96.4987L16.7105 72.9995L14.9031 71.9559Z" fill="#F3F3F3"/>
<g opacity="0.5">
<path d="M42.7825 72.0107H15.6521V74.098H42.7825V72.0107Z" fill="#F3F3F3"/>
</g>
<g opacity="0.5">
<path d="M16.6969 72.3194L14.8914 73.3662L28.4976 96.8417L30.3031 95.7949L16.6969 72.3194Z" fill="#F3F3F3"/>
</g>
<path d="M4.17391 49.0511C4.17391 50.0948 4.17391 51.1384 2.08696 51.1384C0 51.1384 0 51.1384 0 49.0511C0 46.9639 0 46.9639 2.08696 46.9639C4.17391 46.9639 4.17391 46.9639 4.17391 49.0511Z" fill="#F3F3F3"/>
<path d="M4.17391 96.015C4.17391 97.0586 4.17391 98.1023 2.08696 98.1023C0 98.1023 0 98.1023 0 96.015C0 93.9277 0 93.9277 2.08696 93.9277C4.17391 93.9277 4.17391 93.9277 4.17391 96.015Z" fill="#F3F3F3"/>
<g opacity="0.3">
<path d="M30.9673 95.8148L29.1599 96.8584L42.7251 120.358L44.5325 119.314L30.9673 95.8148Z" fill="#F3F3F3"/>
</g>
<g opacity="0.7">
<path d="M42.0032 118.902L28.438 142.401L30.2453 143.445L43.8106 119.946L42.0032 118.902Z" fill="#F3F3F3"/>
</g>
<g opacity="0.9">
<path d="M42.7825 118.975H15.6521V121.062H42.7825V118.975Z" fill="#F3F3F3"/>
</g>
<g opacity="0.6">
<path d="M69.9131 118.975H42.7827V121.062H69.9131V118.975Z" fill="#F3F3F3"/>
</g>
<path d="M31.3043 96.015C31.3043 97.0586 31.3043 98.1023 29.2173 98.1023C27.1304 98.1023 27.1304 98.1023 27.1304 96.015C27.1304 93.9277 27.1304 93.9277 29.2173 93.9277C31.3043 93.9277 31.3043 93.9277 31.3043 96.015Z" fill="#F3F3F3"/>
<path d="M15.6521 122.105C16.8047 122.105 17.7391 121.171 17.7391 120.018C17.7391 118.865 16.8047 117.931 15.6521 117.931C14.4995 117.931 13.5652 118.865 13.5652 120.018C13.5652 121.171 14.4995 122.105 15.6521 122.105Z" fill="#F3F3F3"/>
<path d="M31.3043 142.978C31.3043 144.022 31.3043 145.065 29.2173 145.065C27.1304 145.065 27.1304 145.065 27.1304 142.978C27.1304 140.891 27.1304 140.891 29.2173 140.891C31.3043 140.891 31.3043 140.891 31.3043 142.978Z" fill="#F3F3F3"/>
<g opacity="0.7">
<path d="M58.115 142.748L56.3076 143.792L69.8728 167.291L71.6802 166.248L58.115 142.748Z" fill="#F3F3F3"/>
</g>
<g opacity="0.9">
<path d="M69.1035 165.848L55.5383 189.348L57.3457 190.391L70.9109 166.892L69.1035 165.848Z" fill="#F3F3F3"/>
</g>
<g opacity="0.5">
<path d="M69.9131 165.938H42.7827V168.026H69.9131V165.938Z" fill="#F3F3F3"/>
</g>
<path d="M58.4349 142.978C58.4349 144.022 58.4349 145.065 56.3479 145.065C54.261 145.065 54.261 145.065 54.261 142.978C54.261 140.891 54.261 140.891 56.3479 140.891C58.4349 140.891 58.4349 140.891 58.4349 142.978Z" fill="#F3F3F3"/>
<path d="M58.4349 189.942C58.4349 190.985 58.4349 192.029 56.3479 192.029C54.261 192.029 54.261 192.029 54.261 189.942C54.261 187.855 54.261 187.854 56.3479 187.854C58.4349 187.854 58.4349 187.855 58.4349 189.942Z" fill="#F3F3F3"/>
<g opacity="0.2">
<path d="M85.2629 189.682L83.4556 190.726L97.0208 214.225L98.8281 213.181L85.2629 189.682Z" fill="#F3F3F3"/>
</g>
<g opacity="0.7">
<path d="M124.174 212.901H97.0435V214.989H124.174V212.901Z" fill="#F3F3F3"/>
</g>
<g opacity="0.5">
<path d="M123.342 260.259L109.818 283.782L111.627 284.823L125.151 261.3L123.342 260.259Z" fill="#F3F3F3"/>
</g>
<g opacity="0.9">
<path d="M151.304 259.865H124.174V261.953H151.304V259.865Z" fill="#F3F3F3"/>
</g>
<path d="M112.696 237.949C112.696 238.992 112.696 240.036 110.609 240.036C108.522 240.036 108.522 240.036 108.522 237.949C108.522 235.861 108.522 235.861 110.609 235.861C112.696 235.861 112.696 235.861 112.696 237.949Z" fill="#F3F3F3"/>
<path d="M112.696 284.912C112.696 285.956 112.696 287 110.609 287C108.522 287 108.522 287 108.522 284.912C108.522 282.825 108.522 282.825 110.609 282.825C112.696 282.825 112.696 282.825 112.696 284.912Z" fill="#F3F3F3"/>
<path d="M139.826 284.912C139.826 285.956 139.826 287 137.739 287C135.652 287 135.652 287 135.652 284.912C135.652 282.825 135.652 282.825 137.739 282.825C139.826 282.825 139.826 282.825 139.826 284.912Z" fill="#F3F3F3"/>
<g opacity="0.8">
<path d="M41.739 26.0905L28.1738 3.13055L30.2608 2.08691L43.826 25.0469L41.739 26.0905Z" fill="#F3F3F3"/>
</g>
<g opacity="0.4">
<path d="M43.826 26.0905L41.739 25.0469L55.3042 2.08691L57.3912 3.13055L43.826 26.0905Z" fill="#F3F3F3"/>
</g>
<g opacity="0.3">
<path d="M30.2608 50.0941L28.1738 49.0505L41.739 25.0469L43.826 26.0905L30.2608 50.0941Z" fill="#F3F3F3"/>
</g>
<g opacity="0.6">
<path d="M42.7825 25.0469H15.6521V27.1341H42.7825V25.0469Z" fill="#F3F3F3"/>
</g>
<g opacity="0.4">
<path d="M69.9131 25.0469H42.7827V27.1341H69.9131V25.0469Z" fill="#F3F3F3"/>
</g>
<g opacity="0.5">
<path d="M43.7501 25.3858L41.9446 26.4326L55.5508 49.9081L57.3563 48.8613L43.7501 25.3858Z" fill="#F3F3F3"/>
</g>
<path d="M31.3043 2.08727C31.3043 3.13091 31.3043 4.17455 29.2173 4.17455C27.1304 4.17455 27.1304 4.17455 27.1304 2.08727C27.1304 0 27.1304 0 29.2173 0C31.3043 0 31.3043 0 31.3043 2.08727Z" fill="#F3F3F3"/>
<path d="M17.7391 26.0912C17.7391 27.1348 17.7391 28.1785 15.6521 28.1785C13.5652 28.1785 13.5652 28.1785 13.5652 26.0912C13.5652 24.0039 13.5652 24.0039 15.6521 24.0039C17.7391 24.0039 17.7391 24.0039 17.7391 26.0912Z" fill="#F3F3F3"/>
<path d="M31.3043 49.0511C31.3043 50.0948 31.3043 51.1384 29.2173 51.1384C27.1304 51.1384 27.1304 51.1384 27.1304 49.0511C27.1304 46.9639 27.1304 46.9639 29.2173 46.9639C31.3043 46.9639 31.3043 46.9639 31.3043 49.0511Z" fill="#F3F3F3"/>
<g opacity="0.7">
<path d="M57.5932 47.9778L55.7859 49.0215L69.3511 72.5207L71.1585 71.4771L57.5932 47.9778Z" fill="#F3F3F3"/>
</g>
<g opacity="0.6">
<path d="M69.2075 72.1153L55.6013 95.5908L57.4068 96.6376L71.0131 73.1621L69.2075 72.1153Z" fill="#F3F3F3"/>
</g>
<g opacity="0.9">
<path d="M69.9131 72.0107H42.7827V74.098H69.9131V72.0107Z" fill="#F3F3F3"/>
</g>
<g opacity="0.8">
<path d="M97.0435 72.0107H69.9131V74.098H97.0435V72.0107Z" fill="#F3F3F3"/>
</g>
<g opacity="0.2">
<path d="M70.9452 72.2374L69.1396 73.2842L82.7458 96.7597L84.5514 95.7129L70.9452 72.2374Z" fill="#F3F3F3"/>
</g>
<path d="M58.4349 49.0511C58.4349 50.0948 58.4349 51.1384 56.3479 51.1384C54.261 51.1384 54.261 51.1384 54.261 49.0511C54.261 46.9639 54.261 46.9639 56.3479 46.9639C58.4349 46.9639 58.4349 46.9639 58.4349 49.0511Z" fill="#F3F3F3"/>
<path d="M44.8695 73.0541C44.8695 74.0977 44.8695 75.1413 42.7825 75.1413C40.6956 75.1413 40.6956 75.1413 40.6956 73.0541C40.6956 70.9668 40.6956 70.9668 42.7825 70.9668C44.8695 70.9668 44.8695 70.9668 44.8695 73.0541Z" fill="#F3F3F3"/>
<path d="M58.4349 96.015C58.4349 97.0586 58.4349 98.1023 56.3479 98.1023C54.261 98.1023 54.261 98.1023 54.261 96.015C54.261 93.9277 54.261 93.9277 56.3479 93.9277C58.4349 93.9277 58.4349 93.9277 58.4349 96.015Z" fill="#F3F3F3"/>
<g opacity="0.3">
<path d="M98.087 120.018L96 118.975L109.565 96.0146L111.652 97.0583L98.087 120.018Z" fill="#F3F3F3"/>
</g>
<g opacity="0.7">
<path d="M84.5218 144.022L82.4348 142.978L96 118.975L98.087 120.018L84.5218 144.022Z" fill="#F3F3F3"/>
</g>
<g opacity="0.8">
<path d="M97.0435 118.975H69.9131V121.062H97.0435V118.975Z" fill="#F3F3F3"/>
</g>
<g opacity="0.6">
<path d="M124.174 118.975H97.0435V121.062H124.174V118.975Z" fill="#F3F3F3"/>
</g>
<g opacity="0.2">
<path d="M109.565 144.022L96 120.018L98.087 118.975L111.652 142.978L109.565 144.022Z" fill="#F3F3F3"/>
</g>
<path d="M85.5653 96.015C85.5653 97.0586 85.5653 98.1023 83.4783 98.1023C81.3914 98.1023 81.3914 98.1023 81.3914 96.015C81.3914 93.9277 81.3914 93.9277 83.4783 93.9277C85.5653 93.9277 85.5653 93.9277 85.5653 96.015Z" fill="#F3F3F3"/>
<path d="M72.0001 120.018C72.0001 121.062 72.0001 122.105 69.9131 122.105C67.8262 122.105 67.8262 122.105 67.8262 120.018C67.8262 117.931 67.8262 117.931 69.9131 117.931C72.0001 117.931 72.0001 117.931 72.0001 120.018Z" fill="#F3F3F3"/>
<path d="M85.5653 142.978C85.5653 144.022 85.5653 145.065 83.4783 145.065C81.3914 145.065 81.3914 145.065 81.3914 142.978C81.3914 140.891 81.3914 140.891 83.4783 140.891C85.5653 140.891 85.5653 140.891 85.5653 142.978Z" fill="#F3F3F3"/>
<path d="M123.13 166.982L109.565 144.022L111.652 142.979L125.217 165.939L123.13 166.982Z" fill="#F3F3F3"/>
<path d="M112.696 142.978C112.696 144.022 112.696 145.065 110.609 145.065C108.522 145.065 108.522 145.065 108.522 142.978C108.522 140.891 108.522 140.891 110.609 140.891C112.696 140.891 112.696 140.891 112.696 142.978Z" fill="#F3F3F3"/>
<path d="M99.1305 166.982C99.1305 168.025 99.1305 169.069 97.0435 169.069C94.9565 169.069 94.9565 169.069 94.9565 166.982C94.9565 164.895 94.9565 164.895 97.0435 164.895C99.1305 164.895 99.1305 164.895 99.1305 166.982Z" fill="#F3F3F3"/>
<g opacity="0.7">
<path d="M164.581 189.984L150.975 213.46L152.78 214.507L166.387 191.031L164.581 189.984Z" fill="#F3F3F3"/>
</g>
<g opacity="0.4">
<path d="M151.304 212.901H124.174V214.989H151.304V212.901Z" fill="#F3F3F3"/>
</g>
<path d="M139.826 189.942C139.826 190.985 139.826 192.029 137.739 192.029C135.652 192.029 135.652 192.029 135.652 189.942C135.652 187.855 135.652 187.854 137.739 187.854C139.826 187.854 139.826 187.855 139.826 189.942Z" fill="#F3F3F3"/>
<path d="M126.261 213.946C126.261 214.989 126.261 216.033 124.174 216.033C122.087 216.033 122.087 216.033 122.087 213.946C122.087 211.858 122.087 211.858 124.174 211.858C126.261 211.858 126.261 211.858 126.261 213.946Z" fill="#F3F3F3"/>
<path d="M166.957 237.949C166.957 238.992 166.957 240.036 164.87 240.036C162.783 240.036 162.783 240.036 162.783 237.949C162.783 235.861 162.783 235.861 164.87 235.861C166.957 235.861 166.957 235.861 166.957 237.949Z" fill="#F3F3F3"/>
<path d="M166.957 284.912C166.957 285.956 166.957 287 164.87 287C162.783 287 162.783 287 162.783 284.912C162.783 282.825 162.783 282.825 164.87 282.825C166.957 282.825 166.957 282.825 166.957 284.912Z" fill="#F3F3F3"/>
<g opacity="0.3">
<path d="M96 26.0905L82.4348 3.13055L84.5218 2.08691L98.087 25.0469L96 26.0905Z" fill="#F3F3F3"/>
</g>
<g opacity="0.9">
<path d="M98.087 26.0905L96 25.0469L109.565 2.08691L111.652 3.13055L98.087 26.0905Z" fill="#F3F3F3"/>
</g>
<g opacity="0.2">
<path d="M84.5218 50.0941L82.4348 49.0505L96 25.0469L98.087 26.0905L84.5218 50.0941Z" fill="#F3F3F3"/>
</g>
<g opacity="0.3">
<path d="M97.0435 25.0469H69.9131V27.1341H97.0435V25.0469Z" fill="#F3F3F3"/>
</g>
<g opacity="0.9">
<path d="M97.9984 25.3038L96.1929 26.3506L109.799 49.8261L111.605 48.7793L97.9984 25.3038Z" fill="#F3F3F3"/>
</g>
<path d="M85.5653 2.08727C85.5653 3.13091 85.5653 4.17455 83.4783 4.17455C81.3914 4.17455 81.3914 4.17455 81.3914 2.08727C81.3914 0 81.3914 0 83.4783 0C85.5653 0 85.5653 0 85.5653 2.08727Z" fill="#F3F3F3"/>
<path d="M72.0001 26.0912C72.0001 27.1348 72.0001 28.1785 69.9131 28.1785C67.8262 28.1785 67.8262 28.1785 67.8262 26.0912C67.8262 24.0039 67.8262 24.0039 69.9131 24.0039C72.0001 24.0039 72.0001 24.0039 72.0001 26.0912Z" fill="#F3F3F3"/>
<path d="M85.5653 49.0511C85.5653 50.0948 85.5653 51.1384 83.4783 51.1384C81.3914 51.1384 81.3914 51.1384 81.3914 49.0511C81.3914 46.9639 81.3914 46.9639 83.4783 46.9639C85.5653 46.9639 85.5653 46.9639 85.5653 49.0511Z" fill="#F3F3F3"/>
<g opacity="0.7">
<path d="M111.889 47.9778L110.082 49.0215L123.647 72.5207L125.454 71.4771L111.889 47.9778Z" fill="#F3F3F3"/>
</g>
<g opacity="0.9">
<path d="M137.457 48.657L123.892 72.1562L125.699 73.1999L139.264 49.7007L137.457 48.657Z" fill="#F3F3F3"/>
</g>
<g opacity="0.4">
<path d="M124.174 72.0107H97.0435V74.098H124.174V72.0107Z" fill="#F3F3F3"/>
</g>
<g opacity="0.5">
<path d="M151.304 72.0107H124.174V74.098H151.304V72.0107Z" fill="#F3F3F3"/>
</g>
<path d="M112.696 49.0511C112.696 50.0948 112.696 51.1384 110.609 51.1384C108.522 51.1384 108.522 51.1384 108.522 49.0511C108.522 46.9639 108.522 46.9639 110.609 46.9639C112.696 46.9639 112.696 46.9639 112.696 49.0511Z" fill="#F3F3F3"/>
<path d="M99.1305 73.0541C99.1305 74.0977 99.1305 75.1413 97.0435 75.1413C94.9565 75.1413 94.9565 75.1413 94.9565 73.0541C94.9565 70.9668 94.9565 70.9668 97.0435 70.9668C99.1305 70.9668 99.1305 70.9668 99.1305 73.0541Z" fill="#F3F3F3"/>
<path d="M112.696 96.015C112.696 97.0586 112.696 98.1023 110.609 98.1023C108.522 98.1023 108.522 98.1023 108.522 96.015C108.522 93.9277 108.522 93.9277 110.609 93.9277C112.696 93.9277 112.696 93.9277 112.696 96.015Z" fill="#F3F3F3"/>
<g opacity="0.8">
<path d="M139.558 95.8148L137.751 96.8584L151.316 120.358L153.124 119.314L139.558 95.8148Z" fill="#F3F3F3"/>
</g>
<g opacity="0.3">
<path d="M164.557 95.6033L150.992 119.103L152.799 120.146L166.365 96.647L164.557 95.6033Z" fill="#F3F3F3"/>
</g>
<g opacity="0.9">
<path d="M150.003 119.736L136.438 143.235L138.245 144.279L151.811 120.78L150.003 119.736Z" fill="#F3F3F3"/>
</g>
<g opacity="0.3">
<path d="M151.304 118.975H124.174V121.062H151.304V118.975Z" fill="#F3F3F3"/>
</g>
<g opacity="0.6">
<path d="M178.435 118.975H151.304V121.062H178.435V118.975Z" fill="#F3F3F3"/>
</g>
<g opacity="0.4">
<path d="M152.388 119.007L150.583 120.054L164.189 143.529L165.994 142.482L152.388 119.007Z" fill="#F3F3F3"/>
</g>
<path d="M139.826 96.015C139.826 97.0586 139.826 98.1023 137.739 98.1023C135.652 98.1023 135.652 98.1023 135.652 96.015C135.652 93.9277 135.652 93.9277 137.739 93.9277C139.826 93.9277 139.826 93.9277 139.826 96.015Z" fill="#F3F3F3"/>
<path d="M126.261 120.018C126.261 121.062 126.261 122.105 124.174 122.105C122.087 122.105 122.087 122.105 122.087 120.018C122.087 117.931 122.087 117.931 124.174 117.931C126.261 117.931 126.261 117.931 126.261 120.018Z" fill="#F3F3F3"/>
<path d="M139.826 142.978C139.826 144.022 139.826 145.065 137.739 145.065C135.652 145.065 135.652 145.065 135.652 142.978C135.652 140.891 135.652 140.891 137.739 140.891C139.826 140.891 139.826 140.891 139.826 142.978Z" fill="#F3F3F3"/>
<g opacity="0.5">
<path d="M166.706 142.748L164.899 143.792L178.464 167.291L180.272 166.248L166.706 142.748Z" fill="#F3F3F3"/>
</g>
<g opacity="0.7">
<path d="M191.136 143.453L177.571 166.952L179.378 167.996L192.943 144.497L191.136 143.453Z" fill="#F3F3F3"/>
</g>
<g opacity="0.6">
<path d="M178.435 165.938H151.304V168.026H178.435V165.938Z" fill="#F3F3F3"/>
</g>
<path d="M166.957 142.978C166.957 144.022 166.957 145.065 164.87 145.065C162.783 145.065 162.783 145.065 162.783 142.978C162.783 140.891 162.783 140.891 164.87 140.891C166.957 140.891 166.957 140.891 166.957 142.978Z" fill="#F3F3F3"/>
<path d="M153.391 166.982C153.391 168.025 153.391 169.069 151.304 169.069C149.217 169.069 149.217 169.069 149.217 166.982C149.217 164.895 149.217 164.895 151.304 164.895C153.391 164.895 153.391 164.895 153.391 166.982Z" fill="#F3F3F3"/>
<g opacity="0.9">
<path d="M193.854 189.682L192.047 190.726L205.612 214.225L207.419 213.181L193.854 189.682Z" fill="#F3F3F3"/>
</g>
<g opacity="0.7">
<path d="M205.565 212.901H178.435V214.989H205.565V212.901Z" fill="#F3F3F3"/>
</g>
<g opacity="0.5">
<path d="M221.002 236.616L219.195 237.659L232.76 261.158L234.567 260.115L221.002 236.616Z" fill="#F3F3F3"/>
</g>
<path d="M221.217 284.912C221.217 285.956 221.217 287 219.13 287C217.043 287 217.043 287 217.043 284.912C217.043 282.825 217.043 282.825 219.13 282.825C221.217 282.825 221.217 282.825 221.217 284.912Z" fill="#F3F3F3"/>
<path d="M248.348 284.912C248.348 285.956 248.348 287 246.261 287C244.174 287 244.174 287 244.174 284.912C244.174 282.825 244.174 282.825 246.261 282.825C248.348 282.825 248.348 282.825 248.348 284.912Z" fill="#F3F3F3"/>
<g opacity="0.7">
<path d="M150.261 26.0905L136.696 3.13055L138.783 2.08691L152.348 25.0469L150.261 26.0905Z" fill="#F3F3F3"/>
</g>
<g opacity="0.2">
<path d="M152.348 26.0905L150.261 25.0469L163.826 2.08691L165.913 3.13055L152.348 26.0905Z" fill="#F3F3F3"/>
</g>
<g opacity="0.7">
<path d="M138.783 50.0941L136.696 49.0505L150.261 25.0469L152.348 26.0905L138.783 50.0941Z" fill="#F3F3F3"/>
</g>
<g opacity="0.6">
<path d="M151.304 25.0469H124.174V27.1341H151.304V25.0469Z" fill="#F3F3F3"/>
</g>
<g opacity="0.4">
<path d="M178.435 25.0469H151.304V27.1341H178.435V25.0469Z" fill="#F3F3F3"/>
</g>
<g opacity="0.7">
<path d="M152.143 24.9598L150.339 26.0098L163.986 49.4615L165.79 48.4115L152.143 24.9598Z" fill="#F3F3F3"/>
</g>
<path d="M139.826 2.08727C139.826 3.13091 139.826 4.17455 137.739 4.17455C135.652 4.17455 135.652 4.17455 135.652 2.08727C135.652 0 135.652 0 137.739 0C139.826 0 139.826 0 139.826 2.08727Z" fill="#F3F3F3"/>
<path d="M126.261 26.0912C126.261 27.1348 126.261 28.1785 124.174 28.1785C122.087 28.1785 122.087 28.1785 122.087 26.0912C122.087 24.0039 122.087 24.0039 124.174 24.0039C126.261 24.0039 126.261 24.0039 126.261 26.0912Z" fill="#F3F3F3"/>
<path d="M139.826 49.0511C139.826 50.0948 139.826 51.1384 137.739 51.1384C135.652 51.1384 135.652 51.1384 135.652 49.0511C135.652 46.9639 135.652 46.9639 137.739 46.9639C139.826 46.9639 139.826 46.9639 139.826 49.0511Z" fill="#F3F3F3"/>
<g opacity="0.8">
<path d="M166.185 47.9778L164.377 49.0215L177.942 72.5207L179.75 71.477L166.185 47.9778Z" fill="#F3F3F3"/>
</g>
<g opacity="0.6">
<path d="M191.196 49.5262L177.631 73.0254L179.438 74.069L193.003 50.5698L191.196 49.5262Z" fill="#F3F3F3"/>
</g>
<g opacity="0.3">
<path d="M177.37 73.0431L163.764 96.5186L165.569 97.5653L179.175 74.0898L177.37 73.0431Z" fill="#F3F3F3"/>
</g>
<g opacity="0.9">
<path d="M205.565 72.0107H178.435V74.098H205.565V72.0107Z" fill="#F3F3F3"/>
</g>
<g opacity="0.5">
<path d="M179.442 72.0733L177.636 73.1201L191.242 96.5956L193.048 95.5488L179.442 72.0733Z" fill="#F3F3F3"/>
</g>
<path d="M166.957 49.0511C166.957 50.0948 166.957 51.1384 164.87 51.1384C162.783 51.1384 162.783 51.1384 162.783 49.0511C162.783 46.9639 162.783 46.9639 164.87 46.9639C166.957 46.9639 166.957 46.9639 166.957 49.0511Z" fill="#F3F3F3"/>
<path d="M153.391 73.0541C153.391 74.0977 153.391 75.1413 151.304 75.1413C149.217 75.1413 149.217 75.1413 149.217 73.0541C149.217 70.9668 149.217 70.9668 151.304 70.9668C153.391 70.9668 153.391 70.9668 153.391 73.0541Z" fill="#F3F3F3"/>
<path d="M166.957 96.015C166.957 97.0586 166.957 98.1023 164.87 98.1023C162.783 98.1023 162.783 98.1023 162.783 96.015C162.783 93.9277 162.783 93.9277 164.87 93.9277C166.957 93.9277 166.957 93.9277 166.957 96.015Z" fill="#F3F3F3"/>
<g opacity="0.2">
<path d="M193.854 95.8148L192.047 96.8584L205.612 120.358L207.419 119.314L193.854 95.8148Z" fill="#F3F3F3"/>
</g>
<g opacity="0.5">
<path d="M218.296 96.4725L204.731 119.972L206.538 121.015L220.104 97.5161L218.296 96.4725Z" fill="#F3F3F3"/>
</g>
<g opacity="0.4">
<path d="M204.057 119.32L190.533 142.843L192.342 143.883L205.867 120.36L204.057 119.32Z" fill="#F3F3F3"/>
</g>
<g opacity="0.7">
<path d="M205.565 118.975H178.435V121.062H205.565V118.975Z" fill="#F3F3F3"/>
</g>
<g opacity="0.1">
<path d="M232.696 118.975H205.565V121.062H232.696V118.975Z" fill="#F3F3F3"/>
</g>
<g opacity="0.6">
<path d="M218.087 144.022L204.522 120.018L206.609 118.975L220.174 142.978L218.087 144.022Z" fill="#F3F3F3"/>
</g>
<path d="M194.087 96.015C194.087 97.0586 194.087 98.1023 192 98.1023C189.913 98.1023 189.913 98.1023 189.913 96.015C189.913 93.9277 189.913 93.9277 192 93.9277C194.087 93.9277 194.087 93.9277 194.087 96.015Z" fill="#F3F3F3"/>
<path d="M180.522 120.018C180.522 121.062 180.522 122.105 178.435 122.105C176.348 122.105 176.348 122.105 176.348 120.018C176.348 117.931 176.348 117.931 178.435 117.931C180.522 117.931 180.522 117.931 180.522 120.018Z" fill="#F3F3F3"/>
<path d="M194.087 142.978C194.087 144.022 194.087 145.065 192 145.065C189.913 145.065 189.913 145.065 189.913 142.978C189.913 140.891 189.913 140.891 192 140.891C194.087 140.891 194.087 140.891 194.087 142.978Z" fill="#F3F3F3"/>
<g opacity="0.6">
<path d="M221.002 142.748L219.195 143.792L232.76 167.291L234.567 166.248L221.002 142.748Z" fill="#F3F3F3"/>
</g>
<g opacity="0.3">
<path d="M245.397 143.419L231.831 166.918L233.639 167.962L247.204 144.462L245.397 143.419Z" fill="#F3F3F3"/>
</g>
<g opacity="0.2">
<path d="M231.365 166.648L217.799 190.147L219.607 191.191L233.172 167.692L231.365 166.648Z" fill="#F3F3F3"/>
</g>
<g opacity="0.1">
<path d="M232.696 165.938H205.565V168.026H232.696V165.938Z" fill="#F3F3F3"/>
</g>
<path d="M221.217 142.978C221.217 144.022 221.217 145.065 219.13 145.065C217.043 145.065 217.043 145.065 217.043 142.978C217.043 140.891 217.043 140.891 219.13 140.891C221.217 140.891 221.217 140.891 221.217 142.978Z" fill="#F3F3F3"/>
<path d="M207.652 166.982C207.652 168.025 207.652 169.069 205.565 169.069C203.478 169.069 203.478 169.069 203.478 166.982C203.478 164.895 203.478 164.895 205.565 164.895C207.652 164.895 207.652 164.895 207.652 166.982Z" fill="#F3F3F3"/>
<g opacity="0.6">
<path d="M258.671 214.166L245.064 237.642L246.87 238.688L260.476 215.213L258.671 214.166Z" fill="#F3F3F3"/>
</g>
<g opacity="0.4">
<path d="M274.435 284.913L272.348 283.869L285.913 260.909L288 261.953L274.435 284.913Z" fill="#F3F3F3"/>
</g>
<g opacity="0.9">
<path d="M286.957 259.865H259.826V261.953H286.957V259.865Z" fill="#F3F3F3"/>
</g>
<g opacity="0.5">
<path d="M287.319 261.046L285.513 262.093L299.12 285.568L300.925 284.521L287.319 261.046Z" fill="#F3F3F3"/>
</g>
<g opacity="0.9">
<path d="M204.522 26.0905L190.957 3.13055L193.044 2.08691L206.609 25.0469L204.522 26.0905Z" fill="#F3F3F3"/>
</g>
<g opacity="0.2">
<path d="M206.609 26.0905L204.522 25.0469L218.087 2.08691L220.174 3.13055L206.609 26.0905Z" fill="#F3F3F3"/>
</g>
<g opacity="0.1">
<path d="M193.044 50.0941L190.957 49.0505L204.522 25.0469L206.609 26.0905L193.044 50.0941Z" fill="#F3F3F3"/>
</g>
<g opacity="0.2">
<path d="M232.696 25.0469H205.565V27.1341H232.696V25.0469Z" fill="#F3F3F3"/>
</g>
<path d="M194.087 2.08727C194.087 3.13091 194.087 4.17455 192 4.17455C189.913 4.17455 189.913 4.17455 189.913 2.08727C189.913 0 189.913 0 192 0C194.087 0 194.087 0 194.087 2.08727Z" fill="#F3F3F3"/>
<path d="M180.522 26.0912C180.522 27.1348 180.522 28.1785 178.435 28.1785C176.348 28.1785 176.348 28.1785 176.348 26.0912C176.348 24.0039 176.348 24.0039 178.435 24.0039C180.522 24.0039 180.522 24.0039 180.522 26.0912Z" fill="#F3F3F3"/>
<path d="M194.087 49.0511C194.087 50.0948 194.087 51.1384 192 51.1384C189.913 51.1384 189.913 51.1384 189.913 49.0511C189.913 46.9639 189.913 46.9639 192 46.9639C194.087 46.9639 194.087 46.9639 194.087 49.0511Z" fill="#F3F3F3"/>
<g opacity="0.8">
<path d="M220.48 47.9779L218.673 49.0215L232.238 72.5207L234.045 71.4771L220.48 47.9779Z" fill="#F3F3F3"/>
</g>
<g opacity="0.3">
<path d="M245.457 49.491L231.892 72.9902L233.699 74.0339L247.264 50.5347L245.457 49.491Z" fill="#F3F3F3"/>
</g>
<g opacity="0.8">
<path d="M231.713 73.0558L218.106 96.5312L219.912 97.578L233.518 74.1025L231.713 73.0558Z" fill="#F3F3F3"/>
</g>
<path d="M232.696 72.0107H205.565V74.098H232.696V72.0107Z" fill="#F3F3F3"/>
<g opacity="0.4">
<path d="M232.787 72.5147L230.981 73.5615L244.588 97.037L246.393 95.9902L232.787 72.5147Z" fill="#F3F3F3"/>
</g>
<path d="M221.217 49.0511C221.217 50.0948 221.217 51.1384 219.13 51.1384C217.043 51.1384 217.043 51.1384 217.043 49.0511C217.043 46.9639 217.043 46.9639 219.13 46.9639C221.217 46.9639 221.217 46.9639 221.217 49.0511Z" fill="#F3F3F3"/>
<path d="M207.652 73.0541C207.652 74.0977 207.652 75.1413 205.565 75.1413C203.478 75.1413 203.478 75.1413 203.478 73.0541C203.478 70.9668 203.478 70.9668 205.565 70.9668C207.652 70.9668 207.652 70.9668 207.652 73.0541Z" fill="#F3F3F3"/>
<path d="M221.217 96.015C221.217 97.0586 221.217 98.1023 219.13 98.1023C217.043 98.1023 217.043 98.1023 217.043 96.015C217.043 93.9277 217.043 93.9277 219.13 93.9277C221.217 93.9277 221.217 93.9277 221.217 96.015Z" fill="#F3F3F3"/>
<g opacity="0.7">
<path d="M258.782 120.018L245.217 97.0583L247.304 96.0146L260.869 118.975L258.782 120.018Z" fill="#F3F3F3"/>
</g>
<g opacity="0.2">
<path d="M260.87 120.018L258.783 118.975L272.348 96.0146L274.435 97.0583L260.87 120.018Z" fill="#F3F3F3"/>
</g>
<g opacity="0.4">
<path d="M247.304 144.022L245.217 142.978L258.782 118.975L260.869 120.018L247.304 144.022Z" fill="#F3F3F3"/>
</g>
<path d="M259.826 118.975H232.696V121.062H259.826V118.975Z" fill="#F3F3F3"/>
<g opacity="0.8">
<path d="M286.957 118.975H259.826V121.062H286.957V118.975Z" fill="#F3F3F3"/>
</g>
<g opacity="0.1">
<path d="M259.982 119.366L258.177 120.413L271.783 143.889L273.588 142.842L259.982 119.366Z" fill="#F3F3F3"/>
</g>
<path d="M248.348 96.015C248.348 97.0586 248.348 98.1023 246.261 98.1023C244.174 98.1023 244.174 98.1023 244.174 96.015C244.174 93.9277 244.174 93.9277 246.261 93.9277C248.348 93.9277 248.348 93.9277 248.348 96.015Z" fill="#F3F3F3"/>
<path d="M234.783 120.018C234.783 121.062 234.783 122.105 232.696 122.105C230.609 122.105 230.609 122.105 230.609 120.018C230.609 117.931 230.609 117.931 232.696 117.931C234.783 117.931 234.783 117.931 234.783 120.018Z" fill="#F3F3F3"/>
<path d="M248.348 142.978C248.348 144.022 248.348 145.065 246.261 145.065C244.174 145.065 244.174 145.065 244.174 142.978C244.174 140.891 244.174 140.891 246.261 140.891C248.348 140.891 248.348 140.891 248.348 142.978Z" fill="#F3F3F3"/>
<g opacity="0.7">
<path d="M274.394 143.27L272.586 144.313L286.152 167.813L287.959 166.769L274.394 143.27Z" fill="#F3F3F3"/>
</g>
<path d="M275.478 142.978C275.478 144.022 275.478 145.065 273.391 145.065C271.304 145.065 271.304 145.065 271.304 142.978C271.304 140.891 271.304 140.891 273.391 140.891C275.478 140.891 275.478 140.891 275.478 142.978Z" fill="#F3F3F3"/>
<g opacity="0.9">
<path d="M327.086 189.883L313.48 213.358L315.286 214.405L328.892 190.93L327.086 189.883Z" fill="#F3F3F3"/>
</g>
<g opacity="0.3">
<path d="M341.217 212.901H314.087V214.989H341.217V212.901Z" fill="#F3F3F3"/>
</g>
<g opacity="0.7">
<path d="M314.372 214.113L312.567 215.16L326.173 238.636L327.978 237.589L314.372 214.113Z" fill="#F3F3F3"/>
</g>
<path d="M356.869 284.912C356.869 285.956 356.869 287 354.783 287C352.696 287 352.696 287 352.696 284.912C352.696 282.825 352.696 282.825 354.783 282.825C356.869 282.825 356.869 282.825 356.869 284.912Z" fill="#F3F3F3"/>
<g opacity="0.8">
<path d="M258.782 26.0905L245.217 3.13055L247.304 2.08691L260.869 25.0469L258.782 26.0905Z" fill="#F3F3F3"/>
</g>
<g opacity="0.7">
<path d="M260.87 26.0905L258.783 25.0469L272.348 2.08691L274.435 3.13055L260.87 26.0905Z" fill="#F3F3F3"/>
</g>
<g opacity="0.2">
<path d="M247.304 50.0941L245.217 49.0505L258.782 25.0469L260.869 26.0905L247.304 50.0941Z" fill="#F3F3F3"/>
</g>
<g opacity="0.9">
<path d="M259.826 25.0469H232.696V27.1341H259.826V25.0469Z" fill="#F3F3F3"/>
</g>
<g opacity="0.2">
<path d="M286.957 25.0469H259.826V27.1341H286.957V25.0469Z" fill="#F3F3F3"/>
</g>
<g opacity="0.2">
<path d="M259.84 25.5811L258.035 26.6279L271.641 50.1034L273.446 49.0566L259.84 25.5811Z" fill="#F3F3F3"/>
</g>
<path d="M248.348 2.08727C248.348 3.13091 248.348 4.17455 246.261 4.17455C244.174 4.17455 244.174 4.17455 244.174 2.08727C244.174 0 244.174 0 246.261 0C248.348 0 248.348 0 248.348 2.08727Z" fill="#F3F3F3"/>
<path d="M234.783 26.0912C234.783 27.1348 234.783 28.1785 232.696 28.1785C230.609 28.1785 230.609 28.1785 230.609 26.0912C230.609 24.0039 230.609 24.0039 232.696 24.0039C234.783 24.0039 234.783 24.0039 234.783 26.0912Z" fill="#F3F3F3"/>
<path d="M248.348 49.0511C248.348 50.0948 248.348 51.1384 246.261 51.1384C244.174 51.1384 244.174 51.1384 244.174 49.0511C244.174 46.9639 244.174 46.9639 246.261 46.9639C248.348 46.9639 248.348 46.9639 248.348 49.0511Z" fill="#F3F3F3"/>
<g opacity="0.6">
<path d="M273.872 48.4993L272.065 49.543L285.63 73.0422L287.438 71.9985L273.872 48.4993Z" fill="#F3F3F3"/>
</g>
<g opacity="0.6">
<path d="M299.718 49.4559L286.153 72.9551L287.96 73.9987L301.525 50.4995L299.718 49.4559Z" fill="#F3F3F3"/>
</g>
<path d="M286.056 72.0245L272.449 95.5L274.255 96.5468L287.861 73.0713L286.056 72.0245Z" fill="#F3F3F3"/>
<g opacity="0.3">
<path d="M314.087 72.0107H286.957V74.098H314.087V72.0107Z" fill="#F3F3F3"/>
</g>
<path d="M275.478 49.0511C275.478 50.0948 275.478 51.1384 273.391 51.1384C271.304 51.1384 271.304 51.1384 271.304 49.0511C271.304 46.9639 271.304 46.9639 273.391 46.9639C275.478 46.9639 275.478 46.9639 275.478 49.0511Z" fill="#F3F3F3"/>
<path d="M261.913 73.0541C261.913 74.0977 261.913 75.1413 259.826 75.1413C257.739 75.1413 257.739 75.1413 257.739 73.0541C257.739 70.9668 257.739 70.9668 259.826 70.9668C261.913 70.9668 261.913 70.9668 261.913 73.0541Z" fill="#F3F3F3"/>
<path d="M275.478 96.015C275.478 97.0586 275.478 98.1023 273.391 98.1023C271.304 98.1023 271.304 98.1023 271.304 96.015C271.304 93.9277 271.304 93.9277 273.391 93.9277C275.478 93.9277 275.478 93.9277 275.478 96.015Z" fill="#F3F3F3"/>
<g opacity="0.7">
<path d="M313.043 120.018L299.478 97.0583L301.565 96.0146L315.13 118.975L313.043 120.018Z" fill="#F3F3F3"/>
</g>
<g opacity="0.9">
<path d="M315.13 120.018L313.043 118.975L326.609 96.0146L328.696 97.0583L315.13 120.018Z" fill="#F3F3F3"/>
</g>
<g opacity="0.3">
<path d="M301.565 144.022L299.478 142.978L313.043 118.975L315.13 120.018L301.565 144.022Z" fill="#F3F3F3"/>
</g>
<g opacity="0.8">
<path d="M314.087 118.975H286.957V121.062H314.087V118.975Z" fill="#F3F3F3"/>
</g>
<g opacity="0.4">
<path d="M341.217 118.975H314.087V121.062H341.217V118.975Z" fill="#F3F3F3"/>
</g>
<g opacity="0.6">
<path d="M326.609 144.022L313.043 120.018L314.087 118.975L328.696 142.978L326.609 144.022Z" fill="#F3F3F3"/>
</g>
<path d="M302.609 96.015C302.609 97.0586 302.609 98.1023 300.522 98.1023C298.435 98.1023 298.435 98.1023 298.435 96.015C298.435 93.9277 298.435 93.9277 300.522 93.9277C302.609 93.9277 302.609 93.9277 302.609 96.015Z" fill="#F3F3F3"/>
<path d="M286.957 122.105C288.109 122.105 289.044 121.171 289.044 120.018C289.044 118.865 288.109 117.931 286.957 117.931C285.804 117.931 284.87 118.865 284.87 120.018C284.87 121.171 285.804 122.105 286.957 122.105Z" fill="#F3F3F3"/>
<path d="M302.609 142.978C302.609 144.022 302.609 145.065 300.522 145.065C298.435 145.065 298.435 145.065 298.435 142.978C298.435 140.891 298.435 140.891 300.522 140.891C302.609 140.891 302.609 140.891 302.609 142.978Z" fill="#F3F3F3"/>
<g opacity="0.9">
<path d="M342.261 166.982L340.174 165.939L353.739 142.979L355.826 144.022L342.261 166.982Z" fill="#F3F3F3"/>
</g>
<g opacity="0.5">
<path d="M328.696 190.986L326.609 189.942L340.174 165.938L342.261 166.982L328.696 190.986Z" fill="#F3F3F3"/>
</g>
<g opacity="0.3">
<path d="M341.217 165.938H314.087V168.026H341.217V165.938Z" fill="#F3F3F3"/>
</g>
<path d="M329.739 142.978C329.739 144.022 329.739 145.065 327.652 145.065C325.565 145.065 325.565 145.065 325.565 142.978C325.565 140.891 325.565 140.891 327.652 140.891C329.739 140.891 329.739 140.891 329.739 142.978Z" fill="#F3F3F3"/>
<path d="M316.174 166.982C316.174 168.025 316.174 169.069 314.087 169.069C312 169.069 312 169.069 312 166.982C312 164.895 312 164.895 314.087 164.895C316.174 164.895 316.174 164.895 316.174 166.982Z" fill="#F3F3F3"/>
<g opacity="0.7">
<path d="M369.391 213.945H367.304L380.87 189.941L382.957 190.985L369.391 213.945Z" fill="#F3F3F3"/>
</g>
<path d="M356.869 189.942C356.869 190.985 356.869 192.029 354.783 192.029C352.696 192.029 352.696 192.029 352.696 189.942C352.696 187.855 352.696 187.854 354.783 187.854C356.869 187.854 356.869 187.855 356.869 189.942Z" fill="#F3F3F3"/>
<path d="M343.304 213.946C343.304 214.989 343.304 216.033 341.217 216.033C339.13 216.033 339.13 216.033 339.13 213.946C339.13 211.858 339.13 211.858 341.217 211.858C343.304 211.858 343.304 211.858 343.304 213.946Z" fill="#F3F3F3"/>
<path d="M370.435 260.91C370.435 261.953 370.435 262.997 368.348 262.997C366.261 262.997 366.261 262.997 366.261 260.91C366.261 258.822 366.261 258.822 368.348 258.822C370.435 258.822 370.435 258.822 370.435 260.91Z" fill="#F3F3F3"/>
<path d="M384 284.912C384 285.956 384 287 381.913 287C379.826 287 379.826 287 379.826 284.912C379.826 282.825 379.826 282.825 381.913 282.825C384 282.825 384 282.825 384 284.912Z" fill="#F3F3F3"/>
<g opacity="0.2">
<path d="M301.02 1.56573L299.213 2.60938L312.778 26.1086L314.585 25.0649L301.02 1.56573Z" fill="#F3F3F3"/>
</g>
<g opacity="0.6">
<path d="M312.846 25.7049L299.281 49.2041L301.088 50.2477L314.654 26.7485L312.846 25.7049Z" fill="#F3F3F3"/>
</g>
<g opacity="0.6">
<path d="M314.087 25.0469H286.957V27.1341H314.087V25.0469Z" fill="#F3F3F3"/>
</g>
<g opacity="0.7">
<path d="M341.217 25.0469H314.087V27.1341H341.217V25.0469Z" fill="#F3F3F3"/>
</g>
<g opacity="0.5">
<path d="M314.088 25.4991L312.283 26.5459L325.889 50.0214L327.695 48.9746L314.088 25.4991Z" fill="#F3F3F3"/>
</g>
<path d="M302.609 2.08727C302.609 3.13091 302.609 4.17455 300.522 4.17455C298.435 4.17455 298.435 4.17455 298.435 2.08727C298.435 0 298.435 0 300.522 0C302.609 0 302.609 0 302.609 2.08727Z" fill="#F3F3F3"/>
<path d="M289.044 26.0912C289.044 27.1348 289.044 28.1785 286.957 28.1785C284.87 28.1785 284.87 28.1785 284.87 26.0912C284.87 24.0039 284.87 24.0039 286.957 24.0039C289.044 24.0039 289.044 24.0039 289.044 26.0912Z" fill="#F3F3F3"/>
<path d="M302.609 49.0511C302.609 50.0948 302.609 51.1384 300.522 51.1384C298.435 51.1384 298.435 51.1384 298.435 49.0511C298.435 46.9639 298.435 46.9639 300.522 46.9639C302.609 46.9639 302.609 46.9639 302.609 49.0511Z" fill="#F3F3F3"/>
<g opacity="0.4">
<path d="M328.168 48.4993L326.36 49.543L339.926 73.0422L341.733 71.9985L328.168 48.4993Z" fill="#F3F3F3"/>
</g>
<g opacity="0.4">
<path d="M353.979 49.4217L340.413 72.9209L342.221 73.9645L355.786 50.4653L353.979 49.4217Z" fill="#F3F3F3"/>
</g>
<g opacity="0.1">
<path d="M368.348 72.0107H341.217V74.098H368.348V72.0107Z" fill="#F3F3F3"/>
</g>
<g opacity="0.8">
<path d="M341.284 72.3507L339.478 73.3975L353.084 96.8729L354.89 95.8262L341.284 72.3507Z" fill="#F3F3F3"/>
</g>
<path d="M329.739 49.0511C329.739 50.0948 329.739 51.1384 327.652 51.1384C325.565 51.1384 325.565 51.1384 325.565 49.0511C325.565 46.9639 325.565 46.9639 327.652 46.9639C329.739 46.9639 329.739 46.9639 329.739 49.0511Z" fill="#F3F3F3"/>
<path d="M316.174 73.0541C316.174 74.0977 316.174 75.1413 314.087 75.1413C312 75.1413 312 75.1413 312 73.0541C312 70.9668 312 70.9668 314.087 70.9668C316.174 70.9668 316.174 70.9668 316.174 73.0541Z" fill="#F3F3F3"/>
<path d="M329.739 96.015C329.739 97.0586 329.739 98.1023 327.652 98.1023C325.565 98.1023 325.565 98.1023 325.565 96.015C325.565 93.9277 325.565 93.9277 327.652 93.9277C329.739 93.9277 329.739 93.9277 329.739 96.015Z" fill="#F3F3F3"/>
<g opacity="0.5">
<path d="M355.837 96.3362L354.03 97.3799L367.595 120.879L369.403 119.835L355.837 96.3362Z" fill="#F3F3F3"/>
</g>
<g opacity="0.4">
<path d="M368.348 120.018L367.304 118.975L380.87 96.0146L381.913 97.0583L368.348 120.018Z" fill="#F3F3F3"/>
</g>
<g opacity="0.5">
<path d="M367.047 119.597L353.481 143.097L355.289 144.14L368.854 120.641L367.047 119.597Z" fill="#F3F3F3"/>
</g>
<g opacity="0.1">
<path d="M368.348 118.975H341.217V121.062H368.348V118.975Z" fill="#F3F3F3"/>
</g>
<g opacity="0.9">
<path d="M395.478 118.975H368.348V121.062H395.478V118.975Z" fill="#F3F3F3"/>
</g>
<g opacity="0.2">
<path d="M368.478 119.202L366.673 120.249L380.279 143.725L382.085 142.678L368.478 119.202Z" fill="#F3F3F3"/>
</g>
<path d="M356.869 96.015C356.869 97.0586 356.869 98.1023 354.783 98.1023C352.696 98.1023 352.696 98.1023 352.696 96.015C352.696 93.9277 352.696 93.9277 354.783 93.9277C356.869 93.9277 356.869 93.9277 356.869 96.015Z" fill="#F3F3F3"/>
<path d="M343.304 120.018C343.304 121.062 343.304 122.105 341.217 122.105C339.13 122.105 339.13 122.105 339.13 120.018C339.13 117.931 339.13 117.931 341.217 117.931C343.304 117.931 343.304 117.931 343.304 120.018Z" fill="#F3F3F3"/>
<path d="M356.869 142.978C356.869 144.022 356.869 145.065 354.783 145.065C352.696 145.065 352.696 145.065 352.696 142.978C352.696 140.891 352.696 140.891 354.783 140.891C356.869 140.891 356.869 140.891 356.869 142.978Z" fill="#F3F3F3"/>
<g opacity="0.6">
<path d="M394.147 166.544L380.582 190.043L382.389 191.087L395.954 167.587L394.147 166.544Z" fill="#F3F3F3"/>
</g>
<g opacity="0.5">
<path d="M395.478 165.938H368.348V168.026H395.478V165.938Z" fill="#F3F3F3"/>
</g>
<g opacity="0.4">
<path d="M422.609 165.938H395.478V168.026H422.609V165.938Z" fill="#F3F3F3"/>
</g>
<g opacity="0.9">
<path d="M395.673 167.097L393.868 168.144L407.474 191.619L409.28 190.572L395.673 167.097Z" fill="#F3F3F3"/>
</g>
<path d="M384 142.978C384 144.022 384 145.065 381.913 145.065C379.826 145.065 379.826 145.065 379.826 142.978C379.826 140.891 379.826 140.891 381.913 140.891C384 140.891 384 140.891 384 142.978Z" fill="#F3F3F3"/>
<g opacity="0.7">
<path d="M421.565 213.945L408 190.985L409.044 189.941L422.609 213.945H421.565Z" fill="#F3F3F3"/>
</g>
<g opacity="0.7">
<path d="M422.609 212.901H395.478V214.989H422.609V212.901Z" fill="#F3F3F3"/>
</g>
<g opacity="0.3">
<path d="M449.739 212.901H422.609V214.989H449.739V212.901Z" fill="#F3F3F3"/>
</g>
<g opacity="0.3">
<path d="M422.869 213.948L421.063 214.995L434.669 238.471L436.475 237.424L422.869 213.948Z" fill="#F3F3F3"/>
</g>
<path d="M411.13 189.942C411.13 190.985 411.13 192.029 409.044 192.029C406.957 192.029 406.957 192.029 406.957 189.942C406.957 187.855 406.957 187.854 409.044 187.854C411.13 187.854 411.13 187.855 411.13 189.942Z" fill="#F3F3F3"/>
<path d="M397.565 213.946C397.565 214.989 397.565 216.033 395.478 216.033C393.391 216.033 393.391 216.033 393.391 213.946C393.391 211.858 393.391 211.858 395.478 211.858C397.565 211.858 397.565 211.858 397.565 213.946Z" fill="#F3F3F3"/>
<g opacity="0.4">
<path d="M462.38 237.207L448.815 260.706L450.622 261.75L464.187 238.251L462.38 237.207Z" fill="#F3F3F3"/>
</g>
<path d="M438.261 284.912C438.261 285.956 438.261 287 436.174 287C434.087 287 434.087 287 434.087 284.912C434.087 282.825 434.087 282.825 436.174 282.825C438.261 282.825 438.261 282.825 438.261 284.912Z" fill="#F3F3F3"/>
<path d="M465.391 284.912C465.391 285.956 465.391 287 463.304 287C461.217 287 461.217 287 461.217 284.912C461.217 282.825 461.217 282.825 463.304 282.825C465.391 282.825 465.391 282.825 465.391 284.912Z" fill="#F3F3F3"/>
<g opacity="0.9">
<path d="M367.304 26.0905L353.739 3.13055L354.783 2.08691L368.348 25.0469L367.304 26.0905Z" fill="#F3F3F3"/>
</g>
<g opacity="0.3">
<path d="M381.607 2.08162L368.083 25.6045L369.892 26.645L383.417 3.1221L381.607 2.08162Z" fill="#F3F3F3"/>
</g>
<g opacity="0.9">
<path d="M354.783 50.0941L353.739 49.0505L367.304 25.0469L368.348 26.0905L354.783 50.0941Z" fill="#F3F3F3"/>
</g>
<g opacity="0.3">
<path d="M395.478 25.0469H368.348V27.1341H395.478V25.0469Z" fill="#F3F3F3"/>
</g>
<g opacity="0.8">
<path d="M369.38 25.4171L367.574 26.4639L381.181 49.9394L382.986 48.8926L369.38 25.4171Z" fill="#F3F3F3"/>
</g>
<path d="M356.869 2.08727C356.869 3.13091 356.869 4.17455 354.783 4.17455C352.696 4.17455 352.696 4.17455 352.696 2.08727C352.696 0 352.696 0 354.783 0C356.869 0 356.869 0 356.869 2.08727Z" fill="#F3F3F3"/>
<path d="M343.304 26.0912C343.304 27.1348 343.304 28.1785 341.217 28.1785C339.13 28.1785 339.13 28.1785 339.13 26.0912C339.13 24.0039 339.13 24.0039 341.217 24.0039C343.304 24.0039 343.304 24.0039 343.304 26.0912Z" fill="#F3F3F3"/>
<path d="M356.869 49.0511C356.869 50.0948 356.869 51.1384 354.783 51.1384C352.696 51.1384 352.696 51.1384 352.696 49.0511C352.696 46.9639 352.696 46.9639 354.783 46.9639C356.869 46.9639 356.869 46.9639 356.869 49.0511Z" fill="#F3F3F3"/>
<g opacity="0.8">
<path d="M382.463 48.4993L380.656 49.543L394.221 73.0422L396.029 71.9985L382.463 48.4993Z" fill="#F3F3F3"/>
</g>
<path d="M407.664 48.9332L394.14 72.4561L395.949 73.4965L409.473 49.9737L407.664 48.9332Z" fill="#F3F3F3"/>
<g opacity="0.5">
<path d="M381.913 97.058L380.87 96.0144L394.435 72.0107L395.478 73.0544L381.913 97.058Z" fill="#F3F3F3"/>
</g>
<path d="M395.478 72.0107H368.348V74.098H395.478V72.0107Z" fill="#F3F3F3"/>
<g opacity="0.6">
<path d="M422.609 72.0107H395.478V74.098H422.609V72.0107Z" fill="#F3F3F3"/>
</g>
<g opacity="0.5">
<path d="M395.532 72.2687L393.726 73.3154L407.332 96.7909L409.138 95.7441L395.532 72.2687Z" fill="#F3F3F3"/>
</g>
<path d="M384 49.0511C384 50.0948 384 51.1384 381.913 51.1384C379.826 51.1384 379.826 51.1384 379.826 49.0511C379.826 46.9639 379.826 46.9639 381.913 46.9639C384 46.9639 384 46.9639 384 49.0511Z" fill="#F3F3F3"/>
<path d="M370.435 73.0541C370.435 74.0977 370.435 75.1413 368.348 75.1413C366.261 75.1413 366.261 75.1413 366.261 73.0541C366.261 70.9668 366.261 70.9668 368.348 70.9668C370.435 70.9668 370.435 70.9668 370.435 73.0541Z" fill="#F3F3F3"/>
<path d="M384 96.015C384 97.0586 384 98.1023 381.913 98.1023C379.826 98.1023 379.826 98.1023 379.826 96.015C379.826 93.9277 379.826 93.9277 381.913 93.9277C384 93.9277 384 93.9277 384 96.015Z" fill="#F3F3F3"/>
<g opacity="0.3">
<path d="M422.609 118.975H395.478V121.062H422.609V118.975Z" fill="#F3F3F3"/>
</g>
<g opacity="0.1">
<path d="M449.739 118.975H422.609V121.062H449.739V118.975Z" fill="#F3F3F3"/>
</g>
<g opacity="0.7">
<path d="M435.13 144.022L421.565 120.018L422.609 118.975L436.174 142.978L435.13 144.022Z" fill="#F3F3F3"/>
</g>
<path d="M411.13 96.015C411.13 97.0586 411.13 98.1023 409.044 98.1023C406.957 98.1023 406.957 98.1023 406.957 96.015C406.957 93.9277 406.957 93.9277 409.044 93.9277C411.13 93.9277 411.13 93.9277 411.13 96.015Z" fill="#F3F3F3"/>
<path d="M395.478 122.105C396.631 122.105 397.565 121.171 397.565 120.018C397.565 118.865 396.631 117.931 395.478 117.931C394.326 117.931 393.391 118.865 393.391 120.018C393.391 121.171 394.326 122.105 395.478 122.105Z" fill="#F3F3F3"/>
<path d="M411.13 142.978C411.13 144.022 411.13 145.065 409.044 145.065C406.957 145.065 406.957 145.065 406.957 142.978C406.957 140.891 406.957 140.891 409.044 140.891C411.13 140.891 411.13 140.891 411.13 142.978Z" fill="#F3F3F3"/>
<g opacity="0.7">
<path d="M436.237 143.27L434.43 144.313L447.995 167.813L449.803 166.769L436.237 143.27Z" fill="#F3F3F3"/>
</g>
<g opacity="0.1">
<path d="M436.174 190.986L435.13 189.942L448.696 165.938L449.739 166.982L436.174 190.986Z" fill="#F3F3F3"/>
</g>
<g opacity="0.9">
<path d="M449.739 165.938H422.609V168.026H449.739V165.938Z" fill="#F3F3F3"/>
</g>
<g opacity="0.8">
<path d="M476.869 165.938H449.739V168.026H476.869V165.938Z" fill="#F3F3F3"/>
</g>
<path d="M438.261 142.978C438.261 144.022 438.261 145.065 436.174 145.065C434.087 145.065 434.087 145.065 434.087 142.978C434.087 140.891 434.087 140.891 436.174 140.891C438.261 140.891 438.261 140.891 438.261 142.978Z" fill="#F3F3F3"/>
<path d="M438.261 189.942C438.261 190.985 438.261 192.029 436.174 192.029C434.087 192.029 434.087 192.029 434.087 189.942C434.087 187.855 434.087 187.854 436.174 187.854C438.261 187.854 438.261 187.855 438.261 189.942Z" fill="#F3F3F3"/>
<path d="M465.391 189.942C465.391 190.985 465.391 192.029 463.304 192.029C461.217 192.029 461.217 192.029 461.217 189.942C461.217 187.855 461.217 187.854 463.304 187.854C465.391 187.854 465.391 187.855 465.391 189.942Z" fill="#F3F3F3"/>
<path d="M465.391 237.949C465.391 238.992 465.391 240.036 463.304 240.036C461.217 240.036 461.217 240.036 461.217 237.949C461.217 235.861 461.217 235.861 463.304 235.861C465.391 235.861 465.391 235.861 465.391 237.949Z" fill="#F3F3F3"/>
<g opacity="0.4">
<path d="M530.087 259.865H502.957V261.953H530.087V259.865Z" fill="#F3F3F3"/>
</g>
<path d="M492.522 237.949C492.522 238.992 492.522 240.036 490.435 240.036C488.348 240.036 488.348 240.036 488.348 237.949C488.348 235.861 488.348 235.861 490.435 235.861C492.522 235.861 492.522 235.861 492.522 237.949Z" fill="#F3F3F3"/>
<path d="M519.652 284.912C519.652 285.956 519.652 287 517.565 287C515.478 287 515.479 287 515.479 284.912C515.479 282.825 515.478 282.825 517.565 282.825C519.652 282.825 519.652 282.825 519.652 284.912Z" fill="#F3F3F3"/>
<g opacity="0.2">
<path d="M409.611 1.56573L407.804 2.60938L421.369 26.1086L423.177 25.0649L409.611 1.56573Z" fill="#F3F3F3"/>
</g>
<g opacity="0.2">
<path d="M435.4 2.40507L421.835 25.9043L423.642 26.9479L437.207 3.44871L435.4 2.40507Z" fill="#F3F3F3"/>
</g>
<g opacity="0.4">
<path d="M421.795 25.2057L408.271 48.7285L410.08 49.769L423.604 26.2462L421.795 25.2057Z" fill="#F3F3F3"/>
</g>
<g opacity="0.9">
<path d="M422.609 25.0469H395.478V27.1341H422.609V25.0469Z" fill="#F3F3F3"/>
</g>
<g opacity="0.2">
<path d="M423.628 25.335L421.823 26.3818L435.429 49.8573L437.234 48.8105L423.628 25.335Z" fill="#F3F3F3"/>
</g>
<path d="M411.13 2.08727C411.13 3.13091 411.13 4.17455 409.044 4.17455C406.957 4.17455 406.957 4.17455 406.957 2.08727C406.957 0 406.957 0 409.044 0C411.13 0 411.13 0 411.13 2.08727Z" fill="#F3F3F3"/>
<path d="M397.565 26.0912C397.565 27.1348 397.565 28.1785 395.478 28.1785C393.391 28.1785 393.391 28.1785 393.391 26.0912C393.391 24.0039 393.391 24.0039 395.478 24.0039C397.565 24.0039 397.565 24.0039 397.565 26.0912Z" fill="#F3F3F3"/>
<path d="M411.13 49.0511C411.13 50.0948 411.13 51.1384 409.044 51.1384C406.957 51.1384 406.957 51.1384 406.957 49.0511C406.957 46.9639 406.957 46.9639 409.044 46.9639C411.13 46.9639 411.13 46.9639 411.13 49.0511Z" fill="#F3F3F3"/>
<g opacity="0.4">
<path d="M436.759 48.4993L434.952 49.543L448.517 73.0422L450.324 71.9985L436.759 48.4993Z" fill="#F3F3F3"/>
</g>
<g opacity="0.2">
<path d="M462.5 49.3524L448.935 72.8516L450.742 73.8952L464.308 50.396L462.5 49.3524Z" fill="#F3F3F3"/>
</g>
<g opacity="0.7">
<path d="M448.468 72.5818L434.903 96.0811L436.71 97.1247L450.276 73.6255L448.468 72.5818Z" fill="#F3F3F3"/>
</g>
<g opacity="0.8">
<path d="M449.739 72.0107H422.609V74.098H449.739V72.0107Z" fill="#F3F3F3"/>
</g>
<g opacity="0.4">
<path d="M475.826 72.0107H448.696V74.098H475.826V72.0107Z" fill="#F3F3F3"/>
</g>
<g opacity="0.8">
<path d="M462.261 97.058L448.696 73.0544L449.739 72.0107L463.304 96.0144L462.261 97.058Z" fill="#F3F3F3"/>
</g>
<path d="M438.261 49.0511C438.261 50.0948 438.261 51.1384 436.174 51.1384C434.087 51.1384 434.087 51.1384 434.087 49.0511C434.087 46.9639 434.087 46.9639 436.174 46.9639C438.261 46.9639 438.261 46.9639 438.261 49.0511Z" fill="#F3F3F3"/>
<path d="M424.696 73.0541C424.696 74.0977 424.696 75.1413 422.609 75.1413C420.522 75.1413 420.522 75.1413 420.522 73.0541C420.522 70.9668 420.522 70.9668 422.609 70.9668C424.696 70.9668 424.696 70.9668 424.696 73.0541Z" fill="#F3F3F3"/>
<path d="M438.261 96.015C438.261 97.0586 438.261 98.1023 436.174 98.1023C434.087 98.1023 434.087 98.1023 434.087 96.015C434.087 93.9277 434.087 93.9277 436.174 93.9277C438.261 93.9277 438.261 93.9277 438.261 96.015Z" fill="#F3F3F3"/>
<g opacity="0.3">
<path d="M476.87 120.018L475.826 118.975L489.391 96.0146L490.435 97.0583L476.87 120.018Z" fill="#F3F3F3"/>
</g>
<path d="M463.304 144.022L462.261 142.978L475.826 118.975L476.869 120.018L463.304 144.022Z" fill="#F3F3F3"/>
<g opacity="0.7">
<path d="M476.869 118.975H449.739V121.062H476.869V118.975Z" fill="#F3F3F3"/>
</g>
<g opacity="0.3">
<path d="M502.957 118.975H475.826V121.062H502.957V118.975Z" fill="#F3F3F3"/>
</g>
<g opacity="0.2">
<path d="M489.391 144.022L475.826 120.018L476.87 118.975L490.435 142.978L489.391 144.022Z" fill="#F3F3F3"/>
</g>
<path d="M465.391 96.015C465.391 97.0586 465.391 98.1023 463.304 98.1023C461.217 98.1023 461.217 98.1023 461.217 96.015C461.217 93.9277 461.217 93.9277 463.304 93.9277C465.391 93.9277 465.391 93.9277 465.391 96.015Z" fill="#F3F3F3"/>
<path d="M451.826 120.018C451.826 121.062 451.826 122.105 449.739 122.105C447.652 122.105 447.652 122.105 447.652 120.018C447.652 117.931 447.652 117.931 449.739 117.931C451.826 117.931 451.826 117.931 451.826 120.018Z" fill="#F3F3F3"/>
<path d="M465.391 142.978C465.391 144.022 465.391 145.065 463.304 145.065C461.217 145.065 461.217 145.065 461.217 142.978C461.217 140.891 461.217 140.891 463.304 140.891C465.391 140.891 465.391 140.891 465.391 142.978Z" fill="#F3F3F3"/>
<path d="M502.956 166.982L489.391 144.022L490.435 142.979L504 165.939L502.956 166.982Z" fill="#F3F3F3"/>
<g opacity="0.3">
<path d="M504 166.982L502.957 165.939L516.522 142.979L517.565 144.022L504 166.982Z" fill="#F3F3F3"/>
</g>
<g opacity="0.3">
<path d="M504 165.938H476.87V168.026H504V165.938Z" fill="#F3F3F3"/>
</g>
<path d="M530.087 165.938H502.957V168.026H530.087V165.938Z" fill="#F3F3F3"/>
<g opacity="0.5">
<path d="M516.522 190.985L502.957 166.981H504L517.565 189.941L516.522 190.985Z" fill="#F3F3F3"/>
</g>
<path d="M492.522 142.978C492.522 144.022 492.522 145.065 490.435 145.065C488.348 145.065 488.348 145.065 488.348 142.978C488.348 140.891 488.348 140.891 490.435 140.891C492.522 140.891 492.522 140.891 492.522 142.978Z" fill="#F3F3F3"/>
<path d="M478.957 166.982C478.957 168.025 478.957 169.069 476.87 169.069C474.783 169.069 474.783 169.069 474.783 166.982C474.783 164.895 474.783 164.895 476.87 164.895C478.957 164.895 478.957 164.895 478.957 166.982Z" fill="#F3F3F3"/>
<g opacity="0.5">
<path d="M531.13 213.945H530.087L543.652 189.941L544.696 190.985L531.13 213.945Z" fill="#F3F3F3"/>
</g>
<g opacity="0.6">
<path d="M557.217 212.901H530.087V214.989H557.217V212.901Z" fill="#F3F3F3"/>
</g>
<path d="M519.652 237.949C519.652 238.992 519.652 240.036 517.565 240.036C515.478 240.036 515.479 240.036 515.479 237.949C515.479 235.861 515.478 235.861 517.565 235.861C519.652 235.861 519.652 235.861 519.652 237.949Z" fill="#F3F3F3"/>
<g opacity="0.5">
<path d="M558.261 259.865H531.13V261.953H558.261V259.865Z" fill="#F3F3F3"/>
</g>
<g opacity="0.5">
<path d="M558.56 260.637L556.754 261.684L570.361 285.159L572.166 284.112L558.56 260.637Z" fill="#F3F3F3"/>
</g>
<path d="M573.913 284.912C573.913 285.956 573.913 287 571.826 287C569.739 287 569.739 287 569.739 284.912C569.739 282.825 569.739 282.825 571.826 282.825C573.913 282.825 573.913 282.825 573.913 284.912Z" fill="#F3F3F3"/>
<path d="M463.907 1.56575L462.1 2.60938L475.665 26.1086L477.472 25.065L463.907 1.56575Z" fill="#F3F3F3"/>
<g opacity="0.2">
<path d="M476.87 26.0905L475.826 25.0469L489.391 2.08691L490.435 3.13055L476.87 26.0905Z" fill="#F3F3F3"/>
</g>
<g opacity="0.3">
<path d="M475.629 25.6004L462.063 49.0996L463.871 50.1432L477.436 26.6441L475.629 25.6004Z" fill="#F3F3F3"/>
</g>
<g opacity="0.5">
<path d="M476.869 25.0469H449.739V27.1341H476.869V25.0469Z" fill="#F3F3F3"/>
</g>
<g opacity="0.8">
<path d="M502.957 25.0469H475.826V27.1341H502.957V25.0469Z" fill="#F3F3F3"/>
</g>
<g opacity="0.6">
<path d="M477.877 25.253L476.071 26.2998L489.677 49.7753L491.483 48.7285L477.877 25.253Z" fill="#F3F3F3"/>
</g>
<path d="M465.391 2.08727C465.391 3.13091 465.391 4.17455 463.304 4.17455C461.217 4.17455 461.217 4.17455 461.217 2.08727C461.217 0 461.217 0 463.304 0C465.391 0 465.391 0 465.391 2.08727Z" fill="#F3F3F3"/>
<path d="M451.826 26.0912C451.826 27.1348 451.826 28.1785 449.739 28.1785C447.652 28.1785 447.652 28.1785 447.652 26.0912C447.652 24.0039 447.652 24.0039 449.739 24.0039C451.826 24.0039 451.826 24.0039 451.826 26.0912Z" fill="#F3F3F3"/>
<path d="M465.391 49.0511C465.391 50.0948 465.391 51.1384 463.304 51.1384C461.217 51.1384 461.217 51.1384 461.217 49.0511C461.217 46.9639 461.217 46.9639 463.304 46.9639C465.391 46.9639 465.391 46.9639 465.391 49.0511Z" fill="#F3F3F3"/>
<g opacity="0.6">
<path d="M490.011 48.4993L488.204 49.543L501.769 73.0422L503.577 71.9985L490.011 48.4993Z" fill="#F3F3F3"/>
</g>
<g opacity="0.7">
<path d="M517.065 48.7691L503.541 72.292L505.35 73.3325L518.874 49.8096L517.065 48.7691Z" fill="#F3F3F3"/>
</g>
<g opacity="0.6">
<path d="M490.435 97.058L489.391 96.0144L502.956 72.0107L504 73.0544L490.435 97.058Z" fill="#F3F3F3"/>
</g>
<g opacity="0.8">
<path d="M504 72.0107H476.87V74.098H504V72.0107Z" fill="#F3F3F3"/>
</g>
<g opacity="0.7">
<path d="M530.087 72.0107H502.957V74.098H530.087V72.0107Z" fill="#F3F3F3"/>
</g>
<g opacity="0.7">
<path d="M516.522 97.058L502.957 73.0544L504 72.0107L517.565 96.0144L516.522 97.058Z" fill="#F3F3F3"/>
</g>
<path d="M492.522 49.0511C492.522 50.0948 492.522 51.1384 490.435 51.1384C488.348 51.1384 488.348 51.1384 488.348 49.0511C488.348 46.9639 488.348 46.9639 490.435 46.9639C492.522 46.9639 492.522 46.9639 492.522 49.0511Z" fill="#F3F3F3"/>
<path d="M478.957 73.0541C478.957 74.0977 478.957 75.1413 476.87 75.1413C474.783 75.1413 474.783 75.1413 474.783 73.0541C474.783 70.9668 474.783 70.9668 476.87 70.9668C478.957 70.9668 478.957 70.9668 478.957 73.0541Z" fill="#F3F3F3"/>
<path d="M492.522 96.015C492.522 97.0586 492.522 98.1023 490.435 98.1023C488.348 98.1023 488.348 98.1023 488.348 96.015C488.348 93.9277 488.348 93.9277 490.435 93.9277C492.522 93.9277 492.522 93.9277 492.522 96.015Z" fill="#F3F3F3"/>
<g opacity="0.5">
<path d="M530.087 120.018L516.521 97.0583L517.565 96.0146L531.13 118.975L530.087 120.018Z" fill="#F3F3F3"/>
</g>
<g opacity="0.9">
<path d="M531.13 120.018L530.087 118.975L543.652 96.0146L544.696 97.0583L531.13 120.018Z" fill="#F3F3F3"/>
</g>
<g opacity="0.4">
<path d="M517.565 144.022L516.521 142.978L530.087 118.975L531.13 120.018L517.565 144.022Z" fill="#F3F3F3"/>
</g>
<g opacity="0.5">
<path d="M530.087 118.975H502.957V121.062H530.087V118.975Z" fill="#F3F3F3"/>
</g>
<path d="M519.652 96.015C519.652 97.0586 519.652 98.1023 517.565 98.1023C515.478 98.1023 515.479 98.1023 515.479 96.015C515.479 93.9277 515.478 93.9277 517.565 93.9277C519.652 93.9277 519.652 93.9277 519.652 96.015Z" fill="#F3F3F3"/>
<path d="M506.087 120.018C506.087 121.062 506.087 122.105 504 122.105C501.913 122.105 501.913 122.105 501.913 120.018C501.913 117.931 501.913 117.931 504 117.931C506.087 117.931 506.087 117.931 506.087 120.018Z" fill="#F3F3F3"/>
<path d="M519.652 142.978C519.652 144.022 519.652 145.065 517.565 145.065C515.478 145.065 515.479 145.065 515.479 142.978C515.479 140.891 515.478 140.891 517.565 140.891C519.652 140.891 519.652 140.891 519.652 142.978Z" fill="#F3F3F3"/>
<g opacity="0.4">
<path d="M558.261 166.982L557.217 165.939L570.782 142.979L571.826 144.022L558.261 166.982Z" fill="#F3F3F3"/>
</g>
<g opacity="0.3">
<path d="M556.929 166.439L543.364 189.938L545.172 190.982L558.737 167.483L556.929 166.439Z" fill="#F3F3F3"/>
</g>
<g opacity="0.5">
<path d="M584.348 165.938H557.217V168.026H584.348V165.938Z" fill="#F3F3F3"/>
</g>
<g opacity="0.1">
<path d="M558.418 166.852L556.613 167.898L570.219 191.374L572.025 190.327L558.418 166.852Z" fill="#F3F3F3"/>
</g>
<path d="M546.783 142.978C546.783 144.022 546.783 145.065 544.696 145.065C542.609 145.065 542.609 145.065 542.609 142.978C542.609 140.891 542.609 140.891 544.696 140.891C546.783 140.891 546.783 140.891 546.783 142.978Z" fill="#F3F3F3"/>
<g opacity="0.1">
<path d="M571.976 190.202L570.169 191.246L583.734 214.745L585.542 213.702L571.976 190.202Z" fill="#F3F3F3"/>
</g>
<g opacity="0.2">
<path d="M598.062 190.156L584.497 213.655L586.304 214.699L599.869 191.2L598.062 190.156Z" fill="#F3F3F3"/>
</g>
<g opacity="0.5">
<path d="M611.478 212.901H584.348V214.989H611.478V212.901Z" fill="#F3F3F3"/>
</g>
<path d="M573.913 189.942C573.913 190.985 573.913 192.029 571.826 192.029C569.739 192.029 569.739 192.029 569.739 189.942C569.739 187.855 569.739 187.854 571.826 187.854C573.913 187.854 573.913 187.855 573.913 189.942Z" fill="#F3F3F3"/>
<path d="M560.348 213.946C560.348 214.989 560.348 216.033 558.261 216.033C556.174 216.033 556.174 216.033 556.174 213.946C556.174 211.858 556.174 211.858 558.261 211.858C560.348 211.858 560.348 211.858 560.348 213.946Z" fill="#F3F3F3"/>
<g opacity="0.3">
<path d="M611.478 261.953L597.913 237.949L598.957 236.905L612.522 260.909L611.478 261.953Z" fill="#F3F3F3"/>
</g>
<g opacity="0.4">
<path d="M598.957 284.913L597.913 283.869L611.478 260.909L612.522 261.953L598.957 284.913Z" fill="#F3F3F3"/>
</g>
<g opacity="0.5">
<path d="M611.478 259.865H584.348V261.953H611.478V259.865Z" fill="#F3F3F3"/>
</g>
<g opacity="0.5">
<path d="M530.087 26.0905L516.521 3.13055L517.565 2.08691L531.13 25.0469L530.087 26.0905Z" fill="#F3F3F3"/>
</g>
<g opacity="0.8">
<path d="M531.13 26.0905L530.087 25.0469L543.652 2.08691L544.696 3.13055L531.13 26.0905Z" fill="#F3F3F3"/>
</g>
<g opacity="0.6">
<path d="M517.565 50.0941L516.521 49.0505L530.087 25.0469L531.13 26.0905L517.565 50.0941Z" fill="#F3F3F3"/>
</g>
<g opacity="0.5">
<path d="M530.087 25.0469H502.957V27.1341H530.087V25.0469Z" fill="#F3F3F3"/>
</g>
<g opacity="0.5">
<path d="M557.217 25.0469H530.087V27.1341H557.217V25.0469Z" fill="#F3F3F3"/>
</g>
<g opacity="0.1">
<path d="M543.652 50.0941L530.087 26.0905L531.13 25.0469L544.696 49.0505L543.652 50.0941Z" fill="#F3F3F3"/>
</g>
<path d="M519.652 2.08727C519.652 3.13091 519.652 4.17455 517.565 4.17455C515.478 4.17455 515.479 4.17455 515.479 2.08727C515.479 0 515.478 0 517.565 0C519.652 0 519.652 0 519.652 2.08727Z" fill="#F3F3F3"/>
<path d="M506.087 26.0912C506.087 27.1348 506.087 28.1785 504 28.1785C501.913 28.1785 501.913 28.1785 501.913 26.0912C501.913 24.0039 501.913 24.0039 504 24.0039C506.087 24.0039 506.087 24.0039 506.087 26.0912Z" fill="#F3F3F3"/>
<path d="M519.652 49.0511C519.652 50.0948 519.652 51.1384 517.565 51.1384C515.478 51.1384 515.479 51.1384 515.479 49.0511C515.479 46.9639 515.478 46.9639 517.565 46.9639C519.652 46.9639 519.652 46.9639 519.652 49.0511Z" fill="#F3F3F3"/>
<g opacity="0.3">
<path d="M557.218 73.0544L543.652 50.0944L544.696 49.0508L558.261 72.0108L557.218 73.0544Z" fill="#F3F3F3"/>
</g>
<g opacity="0.7">
<path d="M558.261 73.0544L557.217 72.0108L570.782 49.0508L571.826 50.0944L558.261 73.0544Z" fill="#F3F3F3"/>
</g>
<g opacity="0.8">
<path d="M555.947 71.4686L542.381 94.9678L544.189 96.0114L557.754 72.5122L555.947 71.4686Z" fill="#F3F3F3"/>
</g>
<path d="M557.217 72.0107H530.087V74.098H557.217V72.0107Z" fill="#F3F3F3"/>
<g opacity="0.9">
<path d="M584.348 72.0107H557.217V74.098H584.348V72.0107Z" fill="#F3F3F3"/>
</g>
<g opacity="0.1">
<path d="M570.782 97.058L557.217 73.0544L558.261 72.0107L571.826 96.0144L570.782 97.058Z" fill="#F3F3F3"/>
</g>
<path d="M546.783 49.0511C546.783 50.0948 546.783 51.1384 544.696 51.1384C542.609 51.1384 542.609 51.1384 542.609 49.0511C542.609 46.9639 542.609 46.9639 544.696 46.9639C546.783 46.9639 546.783 46.9639 546.783 49.0511Z" fill="#F3F3F3"/>
<path d="M533.217 73.0541C533.217 74.0977 533.217 75.1413 531.13 75.1413C529.043 75.1413 529.043 75.1413 529.043 73.0541C529.043 70.9668 529.043 70.9668 531.13 70.9668C533.217 70.9668 533.217 70.9668 533.217 73.0541Z" fill="#F3F3F3"/>
<path d="M546.783 96.015C546.783 97.0586 546.783 98.1023 544.696 98.1023C542.609 98.1023 542.609 98.1023 542.609 96.015C542.609 93.9277 542.609 93.9277 544.696 93.9277C546.783 93.9277 546.783 93.9277 546.783 96.015Z" fill="#F3F3F3"/>
<g opacity="0.4">
<path d="M584.348 120.018L570.783 97.0583L571.826 96.0146L585.391 118.975L584.348 120.018Z" fill="#F3F3F3"/>
</g>
<g opacity="0.7">
<path d="M585.391 120.018L584.348 118.975L597.913 96.0146L598.956 97.0583L585.391 120.018Z" fill="#F3F3F3"/>
</g>
<g opacity="0.1">
<path d="M571.826 144.022L570.783 142.978L584.348 118.975L585.391 120.018L571.826 144.022Z" fill="#F3F3F3"/>
</g>
<g opacity="0.4">
<path d="M584.348 118.975H557.217V121.062H584.348V118.975Z" fill="#F3F3F3"/>
</g>
<g opacity="0.8">
<path d="M611.478 118.975H584.348V121.062H611.478V118.975Z" fill="#F3F3F3"/>
</g>
<g opacity="0.2">
<path d="M585.472 119.918L583.666 120.965L597.272 144.44L599.078 143.394L585.472 119.918Z" fill="#F3F3F3"/>
</g>
<path d="M573.913 96.015C573.913 97.0586 573.913 98.1023 571.826 98.1023C569.739 98.1023 569.739 98.1023 569.739 96.015C569.739 93.9277 569.739 93.9277 571.826 93.9277C573.913 93.9277 573.913 93.9277 573.913 96.015Z" fill="#F3F3F3"/>
<path d="M560.348 120.018C560.348 121.062 560.348 122.105 558.261 122.105C556.174 122.105 556.174 122.105 556.174 120.018C556.174 117.931 556.174 117.931 558.261 117.931C560.348 117.931 560.348 117.931 560.348 120.018Z" fill="#F3F3F3"/>
<path d="M573.913 142.978C573.913 144.022 573.913 145.065 571.826 145.065C569.739 145.065 569.739 145.065 569.739 142.978C569.739 140.891 569.739 140.891 571.826 140.891C573.913 140.891 573.913 140.891 573.913 142.978Z" fill="#F3F3F3"/>
<g opacity="0.8">
<path d="M611.478 166.982L597.913 144.022L598.957 142.979L612.522 165.939L611.478 166.982Z" fill="#F3F3F3"/>
</g>
<g opacity="0.2">
<path d="M610.147 166.404L596.582 189.903L598.389 190.947L611.955 167.448L610.147 166.404Z" fill="#F3F3F3"/>
</g>
<g opacity="0.9">
<path d="M611.478 165.938H584.348V168.026H611.478V165.938Z" fill="#F3F3F3"/>
</g>
<path d="M601.044 142.978C601.044 144.022 601.044 145.065 598.957 145.065C596.87 145.065 596.87 145.065 596.87 142.978C596.87 140.891 596.87 140.891 598.957 140.891C601.044 140.891 601.044 140.891 601.044 142.978Z" fill="#F3F3F3"/>
<g opacity="0.6">
<path d="M638.609 213.945L625.043 190.985L626.087 189.941L639.652 213.945H638.609Z" fill="#F3F3F3"/>
</g>
<g opacity="0.2">
<path d="M639.652 213.945H638.609L652.174 189.941L653.218 190.985L639.652 213.945Z" fill="#F3F3F3"/>
</g>
<g opacity="0.8">
<path d="M638.291 213.35L624.726 236.85L626.533 237.893L640.098 214.394L638.291 213.35Z" fill="#F3F3F3"/>
</g>
<g opacity="0.8">
<path d="M665.739 212.901H638.609V214.989H665.739V212.901Z" fill="#F3F3F3"/>
</g>
<path d="M628.174 189.942C628.174 190.985 628.174 192.029 626.087 192.029C624 192.029 624 192.029 624 189.942C624 187.855 624 187.854 626.087 187.854C628.174 187.854 628.174 187.855 628.174 189.942Z" fill="#F3F3F3"/>
<g opacity="0.5">
<path d="M666.783 261.953L665.739 260.909L679.304 236.905L680.348 237.949L666.783 261.953Z" fill="#F3F3F3"/>
</g>
<g opacity="0.5">
<path d="M653.217 284.913L652.174 283.869L665.739 260.909L666.783 261.953L653.217 284.913Z" fill="#F3F3F3"/>
</g>
<g opacity="0.8">
<path d="M667.056 260.473L665.251 261.52L678.857 284.995L680.663 283.948L667.056 260.473Z" fill="#F3F3F3"/>
</g>
<g opacity="0.6">
<path d="M571.455 1.56573L569.647 2.60938L583.213 26.1086L585.02 25.0649L571.455 1.56573Z" fill="#F3F3F3"/>
</g>
<g opacity="0.6">
<path d="M585.391 26.0905L584.348 25.0469L597.913 2.08691L598.956 3.13055L585.391 26.0905Z" fill="#F3F3F3"/>
</g>
<g opacity="0.9">
<path d="M584.348 25.0469H557.217V27.1341H584.348V25.0469Z" fill="#F3F3F3"/>
</g>
<g opacity="0.9">
<path d="M597.913 50.0941L584.348 26.0905L585.391 25.0469L598.956 49.0505L597.913 50.0941Z" fill="#F3F3F3"/>
</g>
<path d="M573.913 2.08727C573.913 3.13091 573.913 4.17455 571.826 4.17455C569.739 4.17455 569.739 4.17455 569.739 2.08727C569.739 0 569.739 0 571.826 0C573.913 0 573.913 0 573.913 2.08727Z" fill="#F3F3F3"/>
<path d="M560.348 26.0912C560.348 27.1348 560.348 28.1785 558.261 28.1785C556.174 28.1785 556.174 28.1785 556.174 26.0912C556.174 24.0039 556.174 24.0039 558.261 24.0039C560.348 24.0039 560.348 24.0039 560.348 26.0912Z" fill="#F3F3F3"/>
<path d="M573.913 49.0511C573.913 50.0948 573.913 51.1384 571.826 51.1384C569.739 51.1384 569.739 51.1384 569.739 49.0511C569.739 46.9639 569.739 46.9639 571.826 46.9639C573.913 46.9639 573.913 46.9639 573.913 49.0511Z" fill="#F3F3F3"/>
<g opacity="0.2">
<path d="M598.602 48.4993L596.795 49.543L610.36 73.0422L612.167 71.9986L598.602 48.4993Z" fill="#F3F3F3"/>
</g>
<g opacity="0.2">
<path d="M625.423 48.6051L611.898 72.1279L613.708 73.1684L627.232 49.6456L625.423 48.6051Z" fill="#F3F3F3"/>
</g>
<g opacity="0.8">
<path d="M598.957 97.058L597.913 96.0144L611.478 72.0107L612.522 73.0544L598.957 97.058Z" fill="#F3F3F3"/>
</g>
<g opacity="0.7">
<path d="M611.478 72.0107H584.348V74.098H611.478V72.0107Z" fill="#F3F3F3"/>
</g>
<g opacity="0.5">
<path d="M625.043 97.058L611.478 73.0544L612.522 72.0107L626.087 96.0144L625.043 97.058Z" fill="#F3F3F3"/>
</g>
<path d="M601.044 49.0511C601.044 50.0948 601.044 51.1384 598.957 51.1384C596.87 51.1384 596.87 51.1384 596.87 49.0511C596.87 46.9639 596.87 46.9639 598.957 46.9639C601.044 46.9639 601.044 46.9639 601.044 49.0511Z" fill="#F3F3F3"/>
<path d="M587.478 73.0541C587.478 74.0977 587.478 75.1413 585.391 75.1413C583.304 75.1413 583.304 75.1413 583.304 73.0541C583.304 70.9668 583.304 70.9668 585.391 70.9668C587.478 70.9668 587.478 70.9668 587.478 73.0541Z" fill="#F3F3F3"/>
<path d="M601.044 96.015C601.044 97.0586 601.044 98.1023 598.957 98.1023C596.87 98.1023 596.87 98.1023 596.87 96.015C596.87 93.9277 596.87 93.9277 598.957 93.9277C601.044 93.9277 601.044 93.9277 601.044 96.015Z" fill="#F3F3F3"/>
<g opacity="0.1">
<path d="M638.609 120.018L625.043 97.0583L626.087 96.0146L639.652 118.975L638.609 120.018Z" fill="#F3F3F3"/>
</g>
<g opacity="0.6">
<path d="M639.652 120.018L638.609 118.975L652.174 96.0146L653.218 97.0583L639.652 120.018Z" fill="#F3F3F3"/>
</g>
<g opacity="0.2">
<path d="M626.087 144.022L625.043 142.978L638.609 118.975L639.652 120.018L626.087 144.022Z" fill="#F3F3F3"/>
</g>
<g opacity="0.4">
<path d="M638.608 118.975H611.478V121.062H638.608V118.975Z" fill="#F3F3F3"/>
</g>
<g opacity="0.9">
<path d="M665.739 118.975H638.609V121.062H665.739V118.975Z" fill="#F3F3F3"/>
</g>
<g opacity="0.3">
<path d="M639.72 119.836L637.914 120.883L651.52 144.358L653.326 143.312L639.72 119.836Z" fill="#F3F3F3"/>
</g>
<path d="M628.174 96.015C628.174 97.0586 628.174 98.1023 626.087 98.1023C624 98.1023 624 98.1023 624 96.015C624 93.9277 624 93.9277 626.087 93.9277C628.174 93.9277 628.174 93.9277 628.174 96.015Z" fill="#F3F3F3"/>
<path d="M614.608 120.018C614.608 121.062 614.608 122.105 612.522 122.105C610.435 122.105 610.435 122.105 610.435 120.018C610.435 117.931 610.435 117.931 612.522 117.931C614.608 117.931 614.608 117.931 614.608 120.018Z" fill="#F3F3F3"/>
<path d="M628.174 142.978C628.174 144.022 628.174 145.065 626.087 145.065C624 145.065 624 145.065 624 142.978C624 140.891 624 140.891 626.087 140.891C628.174 140.891 628.174 140.891 628.174 142.978Z" fill="#F3F3F3"/>
<g opacity="0.4">
<path d="M653.42 143.27L651.612 144.313L665.178 167.813L666.985 166.769L653.42 143.27Z" fill="#F3F3F3"/>
</g>
<g opacity="0.9">
<path d="M679.484 143.14L665.918 166.64L667.726 167.683L681.291 144.184L679.484 143.14Z" fill="#F3F3F3"/>
</g>
<g opacity="0.1">
<path d="M692.87 165.938H665.739V168.026H692.87V165.938Z" fill="#F3F3F3"/>
</g>
<g opacity="0.8">
<path d="M679.304 190.985L665.739 166.981H666.783L680.348 189.941L679.304 190.985Z" fill="#F3F3F3"/>
</g>
<path d="M654.261 142.978C654.261 144.022 654.261 145.065 652.174 145.065C650.087 145.065 650.087 145.065 650.087 142.978C650.087 140.891 650.087 140.891 652.174 140.891C654.261 140.891 654.261 140.891 654.261 142.978Z" fill="#F3F3F3"/>
<path d="M654.261 189.942C654.261 190.985 654.261 192.029 652.174 192.029C650.087 192.029 650.087 192.029 650.087 189.942C650.087 187.855 650.087 187.854 652.174 187.854C654.261 187.854 654.261 187.855 654.261 189.942Z" fill="#F3F3F3"/>
<g opacity="0.6">
<path d="M680.568 190.202L678.76 191.246L692.325 214.745L694.133 213.702L680.568 190.202Z" fill="#F3F3F3"/>
</g>
<g opacity="0.8">
<path d="M705.54 190.086L691.975 213.585L693.782 214.629L707.348 191.129L705.54 190.086Z" fill="#F3F3F3"/>
</g>
<g opacity="0.6">
<path d="M720 212.901H692.87V214.989H720V212.901Z" fill="#F3F3F3"/>
</g>
<g opacity="0.4">
<path d="M694.11 213.539L692.304 214.586L705.91 238.061L707.716 237.015L694.11 213.539Z" fill="#F3F3F3"/>
</g>
<path d="M681.391 189.942C681.391 190.985 681.391 192.029 679.304 192.029C677.217 192.029 677.217 192.029 677.217 189.942C677.217 187.855 677.217 187.854 679.304 187.854C681.391 187.854 681.391 187.855 681.391 189.942Z" fill="#F3F3F3"/>
<path d="M681.391 237.949C681.391 238.992 681.391 240.036 679.304 240.036C677.217 240.036 677.217 240.036 677.217 237.949C677.217 235.861 677.217 235.861 679.304 235.861C681.391 235.861 681.391 235.861 681.391 237.949Z" fill="#F3F3F3"/>
<g opacity="0.1">
<path d="M732.641 237.033L719.076 260.532L720.883 261.576L734.448 238.077L732.641 237.033Z" fill="#F3F3F3"/>
</g>
<g opacity="0.7">
<path d="M733.565 284.913L720 261.953L721.043 260.909L734.609 283.869L733.565 284.913Z" fill="#F3F3F3"/>
</g>
<path d="M735.652 284.912C735.652 285.956 735.652 287 733.565 287C731.478 287 731.478 287 731.478 284.912C731.478 282.825 731.478 282.825 733.565 282.825C735.652 282.825 735.652 282.825 735.652 284.912Z" fill="#F3F3F3"/>
<g opacity="0.5">
<path d="M625.75 1.56573L623.943 2.60938L637.508 26.1086L639.315 25.0649L625.75 1.56573Z" fill="#F3F3F3"/>
</g>
<g opacity="0.3">
<path d="M638.411 24.4529L624.846 47.9521L626.654 48.9958L640.219 25.4966L638.411 24.4529Z" fill="#F3F3F3"/>
</g>
<g opacity="0.9">
<path d="M638.608 25.0469H611.478V27.1341H638.608V25.0469Z" fill="#F3F3F3"/>
</g>
<g opacity="0.7">
<path d="M665.739 25.0469H638.609V27.1341H665.739V25.0469Z" fill="#F3F3F3"/>
</g>
<g opacity="0.1">
<path d="M652.174 50.0941L638.609 26.0905L639.652 25.0469L653.218 49.0505L652.174 50.0941Z" fill="#F3F3F3"/>
</g>
<path d="M627.13 2.08727C627.13 3.13091 627.13 4.17455 625.044 4.17455C622.957 4.17455 622.957 4.17455 622.957 2.08727C622.957 0 622.957 0 625.044 0C627.13 0 627.13 0 627.13 2.08727Z" fill="#F3F3F3"/>
<path d="M613.565 26.0912C613.565 27.1348 613.565 28.1785 611.478 28.1785C609.391 28.1785 609.391 28.1785 609.391 26.0912C609.391 24.0039 609.391 24.0039 611.478 24.0039C613.565 24.0039 613.565 24.0039 613.565 26.0912Z" fill="#F3F3F3"/>
<path d="M627.13 49.0511C627.13 50.0948 627.13 51.1384 625.044 51.1384C622.957 51.1384 622.957 51.1384 622.957 49.0511C622.957 46.9639 622.957 46.9639 625.044 46.9639C627.13 46.9639 627.13 46.9639 627.13 49.0511Z" fill="#F3F3F3"/>
<g opacity="0.4">
<path d="M665.739 73.0544L652.174 50.0944L653.217 49.0508L666.783 72.0108L665.739 73.0544Z" fill="#F3F3F3"/>
</g>
<g opacity="0.7">
<path d="M666.783 73.0544L665.739 72.0108L679.304 49.0508L680.348 50.0944L666.783 73.0544Z" fill="#F3F3F3"/>
</g>
<g opacity="0.6">
<path d="M665.739 72.0107H638.609V74.098H665.739V72.0107Z" fill="#F3F3F3"/>
</g>
<g opacity="0.2">
<path d="M692.87 72.0107H665.739V74.098H692.87V72.0107Z" fill="#F3F3F3"/>
</g>
<g opacity="0.4">
<path d="M679.304 97.058L665.739 73.0544L666.783 72.0107L680.348 96.0144L679.304 97.058Z" fill="#F3F3F3"/>
</g>
<path d="M654.261 49.0511C654.261 50.0948 654.261 51.1384 652.174 51.1384C650.087 51.1384 650.087 51.1384 650.087 49.0511C650.087 46.9639 650.087 46.9639 652.174 46.9639C654.261 46.9639 654.261 46.9639 654.261 49.0511Z" fill="#F3F3F3"/>
<path d="M640.695 73.0541C640.695 74.0977 640.695 75.1413 638.608 75.1413C636.521 75.1413 636.521 75.1413 636.521 73.0541C636.521 70.9668 636.521 70.9668 638.608 70.9668C640.695 70.9668 640.695 70.9668 640.695 73.0541Z" fill="#F3F3F3"/>
<path d="M652.174 98.1023C653.326 98.1023 654.261 97.1678 654.261 96.015C654.261 94.8622 653.326 93.9277 652.174 93.9277C651.021 93.9277 650.087 94.8622 650.087 96.015C650.087 97.1678 651.021 98.1023 652.174 98.1023Z" fill="#F3F3F3"/>
<g opacity="0.6">
<path d="M680.568 96.3362L678.76 97.3799L692.325 120.879L694.133 119.835L680.568 96.3362Z" fill="#F3F3F3"/>
</g>
<g opacity="0.9">
<path d="M693.913 120.018L692.87 118.975L706.435 96.0146L707.478 97.0583L693.913 120.018Z" fill="#F3F3F3"/>
</g>
<g opacity="0.8">
<path d="M692.512 119.154L678.906 142.63L680.712 143.677L694.318 120.201L692.512 119.154Z" fill="#F3F3F3"/>
</g>
<g opacity="0.6">
<path d="M692.87 118.975H665.739V121.062H692.87V118.975Z" fill="#F3F3F3"/>
</g>
<g opacity="0.6">
<path d="M720 118.975H692.87V121.062H720V118.975Z" fill="#F3F3F3"/>
</g>
<g opacity="0.8">
<path d="M706.435 144.022L691.826 120.018L693.913 118.975L707.478 142.978L706.435 144.022Z" fill="#F3F3F3"/>
</g>
<path d="M681.391 96.015C681.391 97.0586 681.391 98.1023 679.304 98.1023C677.217 98.1023 677.217 98.1023 677.217 96.015C677.217 93.9277 677.217 93.9277 679.304 93.9277C681.391 93.9277 681.391 93.9277 681.391 96.015Z" fill="#F3F3F3"/>
<path d="M667.826 120.018C667.826 121.062 667.826 122.105 665.739 122.105C663.652 122.105 663.652 122.105 663.652 120.018C663.652 117.931 663.652 117.931 665.739 117.931C667.826 117.931 667.826 117.931 667.826 120.018Z" fill="#F3F3F3"/>
<path d="M681.391 142.978C681.391 144.022 681.391 145.065 679.304 145.065C677.217 145.065 677.217 145.065 677.217 142.978C677.217 140.891 677.217 140.891 679.304 140.891C681.391 140.891 681.391 140.891 681.391 142.978Z" fill="#F3F3F3"/>
<g opacity="0.6">
<path d="M719.511 166.057L705.864 189.509L707.668 190.559L721.315 167.107L719.511 166.057Z" fill="#F3F3F3"/>
</g>
<g opacity="0.5">
<path d="M747.13 165.938H720V168.026H747.13V165.938Z" fill="#F3F3F3"/>
</g>
<path d="M708.522 142.978C708.522 144.022 708.522 145.065 706.435 145.065C704.348 145.065 704.348 145.065 704.348 142.978C704.348 140.891 704.348 140.891 706.435 140.891C708.522 140.891 708.522 140.891 708.522 142.978Z" fill="#F3F3F3"/>
<path d="M694.957 166.982C694.957 168.025 694.957 169.069 692.87 169.069C690.783 169.069 690.783 169.069 690.783 166.982C690.783 164.895 690.783 164.895 692.87 164.895C694.957 164.895 694.957 164.895 694.957 166.982Z" fill="#F3F3F3"/>
<g opacity="0.8">
<path d="M748.174 213.945H747.13L760.696 189.941L761.739 190.985L748.174 213.945Z" fill="#F3F3F3"/>
</g>
<g opacity="0.1">
<path d="M747.13 212.901H720V214.989H747.13V212.901Z" fill="#F3F3F3"/>
</g>
<g opacity="0.3">
<path d="M774.261 212.901H747.13V214.989H774.261V212.901Z" fill="#F3F3F3"/>
</g>
<path d="M722.087 213.946C722.087 214.989 722.087 216.033 720 216.033C717.913 216.033 717.913 216.033 717.913 213.946C717.913 211.858 717.913 211.858 720 211.858C722.087 211.858 722.087 211.858 722.087 213.946Z" fill="#F3F3F3"/>
<path d="M762.782 237.949C762.782 238.992 762.782 240.036 760.695 240.036C758.608 240.036 758.608 240.036 758.608 237.949C758.608 235.861 758.608 235.861 760.695 235.861C762.782 235.861 762.782 235.861 762.782 237.949Z" fill="#F3F3F3"/>
<g opacity="0.3">
<path d="M705.661 1.18831L692.096 24.6875L693.903 25.7311L707.468 2.23195L705.661 1.18831Z" fill="#F3F3F3"/>
</g>
<path d="M692.689 24.7955L679.165 48.3184L680.974 49.3588L694.498 25.836L692.689 24.7955Z" fill="#F3F3F3"/>
<g opacity="0.8">
<path d="M692.87 25.0469H665.739V27.1341H692.87V25.0469Z" fill="#F3F3F3"/>
</g>
<g opacity="0.9">
<path d="M720 25.0469H692.87V27.1341H720V25.0469Z" fill="#F3F3F3"/>
</g>
<g opacity="0.4">
<path d="M694.869 25.9689L693.064 27.0156L706.67 50.4911L708.476 49.4443L694.869 25.9689Z" fill="#F3F3F3"/>
</g>
<path d="M681.391 2.08727C681.391 3.13091 681.391 4.17455 679.304 4.17455C677.217 4.17455 677.217 4.17455 677.217 2.08727C677.217 0 677.217 0 679.304 0C681.391 0 681.391 0 681.391 2.08727Z" fill="#F3F3F3"/>
<path d="M667.826 26.0912C667.826 27.1348 667.826 28.1785 665.739 28.1785C663.652 28.1785 663.652 28.1785 663.652 26.0912C663.652 24.0039 663.652 24.0039 665.739 24.0039C667.826 24.0039 667.826 24.0039 667.826 26.0912Z" fill="#F3F3F3"/>
<path d="M681.391 49.0511C681.391 50.0948 681.391 51.1384 679.304 51.1384C677.217 51.1384 677.217 51.1384 677.217 49.0511C677.217 46.9639 677.217 46.9639 679.304 46.9639C681.391 46.9639 681.391 46.9639 681.391 49.0511Z" fill="#F3F3F3"/>
<g opacity="0.2">
<path d="M707.194 48.4993L705.387 49.543L718.952 73.0422L720.759 71.9986L707.194 48.4993Z" fill="#F3F3F3"/>
</g>
<g opacity="0.5">
<path d="M733.781 48.441L720.256 71.9639L722.066 73.0043L735.59 49.4815L733.781 48.441Z" fill="#F3F3F3"/>
</g>
<g opacity="0.7">
<path d="M707.478 97.058L705.391 96.0144L718.956 72.0107L721.043 73.0544L707.478 97.058Z" fill="#F3F3F3"/>
</g>
<g opacity="0.5">
<path d="M720 72.0107H692.87V74.098H720V72.0107Z" fill="#F3F3F3"/>
</g>
<g opacity="0.2">
<path d="M747.13 72.0107H720V74.098H747.13V72.0107Z" fill="#F3F3F3"/>
</g>
<g opacity="0.6">
<path d="M733.565 97.058L718.957 73.0544L721.043 72.0107L734.609 96.0144L733.565 97.058Z" fill="#F3F3F3"/>
</g>
<path d="M708.522 49.0511C708.522 50.0948 708.522 51.1384 706.435 51.1384C704.348 51.1384 704.348 51.1384 704.348 49.0511C704.348 46.9639 704.348 46.9639 706.435 46.9639C708.522 46.9639 708.522 46.9639 708.522 49.0511Z" fill="#F3F3F3"/>
<path d="M694.957 73.0541C694.957 74.0977 694.957 75.1413 692.87 75.1413C690.783 75.1413 690.783 75.1413 690.783 73.0541C690.783 70.9668 690.783 70.9668 692.87 70.9668C694.957 70.9668 694.957 70.9668 694.957 73.0541Z" fill="#F3F3F3"/>
<path d="M708.522 96.015C708.522 97.0586 708.522 98.1023 706.435 98.1023C704.348 98.1023 704.348 98.1023 704.348 96.015C704.348 93.9277 704.348 93.9277 706.435 93.9277C708.522 93.9277 708.522 93.9277 708.522 96.015Z" fill="#F3F3F3"/>
<g opacity="0.5">
<path d="M746.087 120.018L732.521 97.0583L734.608 96.0146L748.174 118.975L746.087 120.018Z" fill="#F3F3F3"/>
</g>
<g opacity="0.5">
<path d="M748.174 120.018L746.087 118.975L759.652 96.0146L761.739 97.0583L748.174 120.018Z" fill="#F3F3F3"/>
</g>
<g opacity="0.6">
<path d="M747.13 118.975H720V121.062H747.13V118.975Z" fill="#F3F3F3"/>
</g>
<g opacity="0.9">
<path d="M774.261 118.975H747.13V121.062H774.261V118.975Z" fill="#F3F3F3"/>
</g>
<path d="M735.652 96.015C735.652 97.0586 735.652 98.1023 733.565 98.1023C731.478 98.1023 731.478 98.1023 731.478 96.015C731.478 93.9277 731.478 93.9277 733.565 93.9277C735.652 93.9277 735.652 93.9277 735.652 96.015Z" fill="#F3F3F3"/>
<path d="M722.087 120.018C722.087 121.062 722.087 122.105 720 122.105C717.913 122.105 717.913 122.105 717.913 120.018C717.913 117.931 717.913 117.931 720 117.931C722.087 117.931 722.087 117.931 722.087 120.018Z" fill="#F3F3F3"/>
<path d="M735.652 142.978C735.652 144.022 735.652 145.065 733.565 145.065C731.478 145.065 731.478 145.065 731.478 142.978C731.478 140.891 731.478 140.891 733.565 140.891C735.652 140.891 735.652 140.891 735.652 142.978Z" fill="#F3F3F3"/>
<g opacity="0.9">
<path d="M773.218 166.982L759.652 144.022L761.739 142.979L775.305 165.939L773.218 166.982Z" fill="#F3F3F3"/>
</g>
<path d="M762.782 142.978C762.782 144.022 762.782 145.065 760.695 145.065C758.608 145.065 758.608 145.065 758.608 142.978C758.608 140.891 758.608 140.891 760.695 140.891C762.782 140.891 762.782 140.891 762.782 142.978Z" fill="#F3F3F3"/>
<path d="M749.217 166.982C749.217 168.025 749.217 169.069 747.13 169.069C745.043 169.069 745.043 169.069 745.043 166.982C745.043 164.895 745.043 164.895 747.13 164.895C749.217 164.895 749.217 164.895 749.217 166.982Z" fill="#F3F3F3"/>
<path d="M762.782 189.942C762.782 190.985 762.782 192.029 760.695 192.029C758.608 192.029 758.608 192.029 758.608 189.942C758.608 187.855 758.608 187.854 760.695 187.854C762.782 187.854 762.782 187.855 762.782 189.942Z" fill="#F3F3F3"/>
<g opacity="0.3">
<path d="M828.522 212.901H801.391V214.989H828.522V212.901Z" fill="#F3F3F3"/>
</g>
<path d="M776.348 213.946C776.348 214.989 776.348 216.033 774.261 216.033C772.174 216.033 772.174 216.033 772.174 213.946C772.174 211.858 772.174 211.858 774.261 211.858C776.348 211.858 776.348 211.858 776.348 213.946Z" fill="#F3F3F3"/>
<g opacity="0.8">
<path d="M816.307 237.137L814.5 238.181L828.065 261.68L829.872 260.636L816.307 237.137Z" fill="#F3F3F3"/>
</g>
<g opacity="0.7">
<path d="M734.342 1.56575L732.534 2.60938L746.099 26.1086L747.907 25.065L734.342 1.56575Z" fill="#F3F3F3"/>
</g>
<g opacity="0.9">
<path d="M759.922 1.15315L746.356 24.6523L748.164 25.696L761.729 2.19679L759.922 1.15315Z" fill="#F3F3F3"/>
</g>
<g opacity="0.4">
<path d="M746.867 24.7134L733.343 48.2363L735.152 49.2768L748.677 25.7539L746.867 24.7134Z" fill="#F3F3F3"/>
</g>
<g opacity="0.4">
<path d="M747.13 25.0469H720V27.1341H747.13V25.0469Z" fill="#F3F3F3"/>
</g>
<g opacity="0.8">
<path d="M774.261 25.0469H747.13V27.1341H774.261V25.0469Z" fill="#F3F3F3"/>
</g>
<path d="M735.652 2.08727C735.652 3.13091 735.652 4.17455 733.565 4.17455C731.478 4.17455 731.478 4.17455 731.478 2.08727C731.478 0 731.478 0 733.565 0C735.652 0 735.652 0 735.652 2.08727Z" fill="#F3F3F3"/>
<path d="M722.087 26.0912C722.087 27.1348 722.087 28.1785 720 28.1785C717.913 28.1785 717.913 28.1785 717.913 26.0912C717.913 24.0039 717.913 24.0039 720 24.0039C722.087 24.0039 722.087 24.0039 722.087 26.0912Z" fill="#F3F3F3"/>
<path d="M735.652 49.0511C735.652 50.0948 735.652 51.1384 733.565 51.1384C731.478 51.1384 731.478 51.1384 731.478 49.0511C731.478 46.9639 731.478 46.9639 733.565 46.9639C735.652 46.9639 735.652 46.9639 735.652 49.0511Z" fill="#F3F3F3"/>
<g opacity="0.3">
<path d="M773.218 73.0544L759.652 50.0944L761.739 49.0508L775.305 72.0108L773.218 73.0544Z" fill="#F3F3F3"/>
</g>
<g opacity="0.2">
<path d="M775.304 73.0544L773.217 72.0108L786.783 49.0508L788.869 50.0944L775.304 73.0544Z" fill="#F3F3F3"/>
</g>
<g opacity="0.9">
<path d="M772.99 71.3289L759.425 94.8281L761.232 95.8718L774.797 72.3726L772.99 71.3289Z" fill="#F3F3F3"/>
</g>
<g opacity="0.4">
<path d="M774.261 72.0107H747.13V74.098H774.261V72.0107Z" fill="#F3F3F3"/>
</g>
<g opacity="0.1">
<path d="M801.391 72.0107H774.261V74.098H801.391V72.0107Z" fill="#F3F3F3"/>
</g>
<path d="M762.782 49.0511C762.782 50.0948 762.782 51.1384 760.695 51.1384C758.608 51.1384 758.608 51.1384 758.608 49.0511C758.608 46.9639 758.608 46.9639 760.695 46.9639C762.782 46.9639 762.782 46.9639 762.782 49.0511Z" fill="#F3F3F3"/>
<path d="M749.217 73.0541C749.217 74.0977 749.217 75.1413 747.13 75.1413C745.043 75.1413 745.043 75.1413 745.043 73.0541C745.043 70.9668 745.043 70.9668 747.13 70.9668C749.217 70.9668 749.217 70.9668 749.217 73.0541Z" fill="#F3F3F3"/>
<path d="M762.782 96.015C762.782 97.0586 762.782 98.1023 760.695 98.1023C758.608 98.1023 758.608 98.1023 758.608 96.015C758.608 93.9277 758.608 93.9277 760.695 93.9277C762.782 93.9277 762.782 93.9277 762.782 96.015Z" fill="#F3F3F3"/>
<path d="M802.435 120.018L800.348 118.975L813.913 96.0146L816 97.0583L802.435 120.018Z" fill="#F3F3F3"/>
<g opacity="0.7">
<path d="M801.391 118.975H774.261V121.062H801.391V118.975Z" fill="#F3F3F3"/>
</g>
<g opacity="0.2">
<path d="M828.522 118.975H801.391V121.062H828.522V118.975Z" fill="#F3F3F3"/>
</g>
<g opacity="0.2">
<path d="M802.464 119.59L800.659 120.637L814.265 144.112L816.07 143.065L802.464 119.59Z" fill="#F3F3F3"/>
</g>
<path d="M789.913 96.015C789.913 97.0586 789.913 98.1023 787.826 98.1023C785.739 98.1023 785.739 98.1023 785.739 96.015C785.739 93.9277 785.739 93.9277 787.826 93.9277C789.913 93.9277 789.913 93.9277 789.913 96.015Z" fill="#F3F3F3"/>
<path d="M774.261 122.105C775.413 122.105 776.348 121.171 776.348 120.018C776.348 118.865 775.413 117.931 774.261 117.931C773.108 117.931 772.174 118.865 772.174 120.018C772.174 121.171 773.108 122.105 774.261 122.105Z" fill="#F3F3F3"/>
<path d="M789.913 142.978C789.913 144.022 789.913 145.065 787.826 145.065C785.739 145.065 785.739 145.065 785.739 142.978C785.739 140.891 785.739 140.891 787.826 140.891C789.913 140.891 789.913 140.891 789.913 142.978Z" fill="#F3F3F3"/>
<g opacity="0.3">
<path d="M841.222 143.036L827.657 166.535L829.465 167.579L843.03 144.08L841.222 143.036Z" fill="#F3F3F3"/>
</g>
<g opacity="0.9">
<path d="M828.361 166.178L814.714 189.63L816.518 190.68L830.165 167.228L828.361 166.178Z" fill="#F3F3F3"/>
</g>
<g opacity="0.5">
<path d="M828.522 165.938H801.391V168.026H828.522V165.938Z" fill="#F3F3F3"/>
</g>
<path d="M817.044 142.978C817.044 144.022 817.044 145.065 814.957 145.065C812.87 145.065 812.87 145.065 812.87 142.978C812.87 140.891 812.87 140.891 814.957 140.891C817.044 140.891 817.044 140.891 817.044 142.978Z" fill="#F3F3F3"/>
<path d="M817.044 189.942C817.044 190.985 817.044 192.029 814.957 192.029C812.87 192.029 812.87 192.029 812.87 189.942C812.87 187.855 812.87 187.854 814.957 187.854C817.044 187.854 817.044 187.855 817.044 189.942Z" fill="#F3F3F3"/>
<g opacity="0.2">
<path d="M895.424 236.929L881.858 260.428L883.666 261.471L897.231 237.972L895.424 236.929Z" fill="#F3F3F3"/>
</g>
<path d="M909.913 259.865H882.783V261.953H909.913V259.865Z" fill="#F3F3F3"/>
<path d="M857.739 260.91C857.739 261.953 857.739 262.997 855.652 262.997C853.565 262.997 853.565 262.997 853.565 260.91C853.565 258.822 853.565 258.822 855.652 258.822C857.739 258.822 857.739 258.822 857.739 260.91Z" fill="#F3F3F3"/>
<path d="M871.304 284.912C871.304 285.956 871.304 287 869.217 287C867.13 287 867.13 287 867.13 284.912C867.13 282.825 867.13 282.825 869.217 282.825C871.304 282.825 871.304 282.825 871.304 284.912Z" fill="#F3F3F3"/>
<g opacity="0.1">
<path d="M788.637 0.521769L786.83 1.56543L800.395 25.0646L802.203 24.021L788.637 0.521769Z" fill="#F3F3F3"/>
</g>
<g opacity="0.5">
<path d="M802.435 26.0905L800.348 25.0469L813.913 2.08691L816 3.13055L802.435 26.0905Z" fill="#F3F3F3"/>
</g>
<g opacity="0.5">
<path d="M800.151 24.3485L786.585 47.8477L788.393 48.8913L801.958 25.3921L800.151 24.3485Z" fill="#F3F3F3"/>
</g>
<g opacity="0.7">
<path d="M801.391 25.0469H774.261V27.1341H801.391V25.0469Z" fill="#F3F3F3"/>
</g>
<g opacity="0.5">
<path d="M828.522 25.0469H801.391V27.1341H828.522V25.0469Z" fill="#F3F3F3"/>
</g>
<g opacity="0.5">
<path d="M813.913 50.0941L800.348 26.0905L802.435 25.0469L816 49.0505L813.913 50.0941Z" fill="#F3F3F3"/>
</g>
<path d="M789.913 2.08727C789.913 3.13091 789.913 4.17455 787.826 4.17455C785.739 4.17455 785.739 4.17455 785.739 2.08727C785.739 0 785.739 0 787.826 0C789.913 0 789.913 0 789.913 2.08727Z" fill="#F3F3F3"/>
<path d="M776.348 26.0912C776.348 27.1348 776.348 28.1785 774.261 28.1785C772.174 28.1785 772.174 28.1785 772.174 26.0912C772.174 24.0039 772.174 24.0039 774.261 24.0039C776.348 24.0039 776.348 24.0039 776.348 26.0912Z" fill="#F3F3F3"/>
<path d="M789.913 49.0511C789.913 50.0948 789.913 51.1384 787.826 51.1384C785.739 51.1384 785.739 51.1384 785.739 49.0511C785.739 46.9639 785.739 46.9639 787.826 46.9639C789.913 46.9639 789.913 46.9639 789.913 49.0511Z" fill="#F3F3F3"/>
<g opacity="0.3">
<path d="M815.785 48.4993L813.978 49.543L827.543 73.0422L829.35 71.9985L815.785 48.4993Z" fill="#F3F3F3"/>
</g>
<g opacity="0.4">
<path d="M842.138 48.277L828.614 71.7998L830.423 72.8403L843.947 49.3174L842.138 48.277Z" fill="#F3F3F3"/>
</g>
<g opacity="0.6">
<path d="M816 97.058L813.913 96.0144L827.478 72.0107L829.565 73.0544L816 97.058Z" fill="#F3F3F3"/>
</g>
<g opacity="0.7">
<path d="M855.652 72.0107H828.521V74.098H855.652V72.0107Z" fill="#F3F3F3"/>
</g>
<g opacity="0.8">
<path d="M829.935 71.3309L828.131 72.3809L841.778 95.8326L843.582 94.7826L829.935 71.3309Z" fill="#F3F3F3"/>
</g>
<path d="M817.044 49.0511C817.044 50.0948 817.044 51.1384 814.957 51.1384C812.87 51.1384 812.87 51.1384 812.87 49.0511C812.87 46.9639 812.87 46.9639 814.957 46.9639C817.044 46.9639 817.044 46.9639 817.044 49.0511Z" fill="#F3F3F3"/>
<path d="M803.478 73.0541C803.478 74.0977 803.478 75.1413 801.391 75.1413C799.304 75.1413 799.304 75.1413 799.304 73.0541C799.304 70.9668 799.304 70.9668 801.391 70.9668C803.478 70.9668 803.478 70.9668 803.478 73.0541Z" fill="#F3F3F3"/>
<path d="M817.044 96.015C817.044 97.0586 817.044 98.1023 814.957 98.1023C812.87 98.1023 812.87 98.1023 812.87 96.015C812.87 93.9277 812.87 93.9277 814.957 93.9277C817.044 93.9277 817.044 93.9277 817.044 96.015Z" fill="#F3F3F3"/>
<g opacity="0.1">
<path d="M856.696 120.018L854.609 118.975L868.174 96.0146L870.261 97.0583L856.696 120.018Z" fill="#F3F3F3"/>
</g>
<g opacity="0.9">
<path d="M843.13 144.022L841.043 142.978L854.609 118.975L856.696 120.018L843.13 144.022Z" fill="#F3F3F3"/>
</g>
<g opacity="0.7">
<path d="M855.652 118.975H828.521V121.062H855.652V118.975Z" fill="#F3F3F3"/>
</g>
<g opacity="0.2">
<path d="M882.783 118.975H855.652V121.062H882.783V118.975Z" fill="#F3F3F3"/>
</g>
<g opacity="0.4">
<path d="M856.712 119.508L854.907 120.555L868.513 144.03L870.319 142.983L856.712 119.508Z" fill="#F3F3F3"/>
</g>
<path d="M844.174 96.015C844.174 97.0586 844.174 98.1023 842.087 98.1023C840 98.1023 840 98.1023 840 96.015C840 93.9277 840 93.9277 842.087 93.9277C844.174 93.9277 844.174 93.9277 844.174 96.015Z" fill="#F3F3F3"/>
<path d="M828.522 122.105C829.674 122.105 830.608 121.171 830.608 120.018C830.608 118.865 829.674 117.931 828.522 117.931C827.369 117.931 826.435 118.865 826.435 120.018C826.435 121.171 827.369 122.105 828.522 122.105Z" fill="#F3F3F3"/>
<path d="M844.174 142.978C844.174 144.022 844.174 145.065 842.087 145.065C840 145.065 840 145.065 840 142.978C840 140.891 840 140.891 842.087 140.891C844.174 140.891 844.174 140.891 844.174 142.978Z" fill="#F3F3F3"/>
<g opacity="0.8">
<path d="M895.484 141.957L881.918 165.456L883.726 166.5L897.291 143L895.484 141.957Z" fill="#F3F3F3"/>
</g>
<g opacity="0.2">
<path d="M881.742 166.238L868.095 189.689L869.898 190.739L883.546 167.288L881.742 166.238Z" fill="#F3F3F3"/>
</g>
<path d="M871.304 142.978C871.304 144.022 871.304 145.065 869.217 145.065C867.13 145.065 867.13 145.065 867.13 142.978C867.13 140.891 867.13 140.891 869.217 140.891C871.304 140.891 871.304 140.891 871.304 142.978Z" fill="#F3F3F3"/>
<path d="M857.739 166.982C857.739 168.025 857.739 169.069 855.652 169.069C853.565 169.069 853.565 169.069 853.565 166.982C853.565 164.895 853.565 164.895 855.652 164.895C857.739 164.895 857.739 164.895 857.739 166.982Z" fill="#F3F3F3"/>
<path d="M871.304 189.942C871.304 190.985 871.304 192.029 869.217 192.029C867.13 192.029 867.13 192.029 867.13 189.942C867.13 187.855 867.13 187.854 869.217 187.854C871.304 187.854 871.304 187.855 871.304 189.942Z" fill="#F3F3F3"/>
<g opacity="0.6">
<path d="M897.75 190.202L895.943 191.246L909.508 214.745L911.315 213.702L897.75 190.202Z" fill="#F3F3F3"/>
</g>
<path d="M898.435 189.942C898.435 190.985 898.435 192.029 896.348 192.029C894.261 192.029 894.261 192.029 894.261 189.942C894.261 187.855 894.261 187.854 896.348 187.854C898.435 187.854 898.435 187.855 898.435 189.942Z" fill="#F3F3F3"/>
<g opacity="0.8">
<path d="M842.933 0.521809L841.125 1.56543L854.691 25.0646L856.498 24.021L842.933 0.521809Z" fill="#F3F3F3"/>
</g>
<g opacity="0.7">
<path d="M856.696 26.0905L854.609 25.0469L868.174 2.08691L870.261 3.13055L856.696 26.0905Z" fill="#F3F3F3"/>
</g>
<path d="M854.411 24.3133L840.846 47.8125L842.654 48.8561L856.219 25.3569L854.411 24.3133Z" fill="#F3F3F3"/>
<g opacity="0.8">
<path d="M855.652 25.0469H828.521V27.1341H855.652V25.0469Z" fill="#F3F3F3"/>
</g>
<g opacity="0.2">
<path d="M882.783 25.0469H855.652V27.1341H882.783V25.0469Z" fill="#F3F3F3"/>
</g>
<g opacity="0.3">
<path d="M868.174 50.0941L854.609 26.0905L856.696 25.0469L870.261 49.0505L868.174 50.0941Z" fill="#F3F3F3"/>
</g>
<path d="M844.174 2.08727C844.174 3.13091 844.174 4.17455 842.087 4.17455C840 4.17455 840 4.17455 840 2.08727C840 0 840 0 842.087 0C844.174 0 844.174 0 844.174 2.08727Z" fill="#F3F3F3"/>
<path d="M830.608 26.0912C830.608 27.1348 830.609 28.1785 828.522 28.1785C826.435 28.1785 826.435 28.1785 826.435 26.0912C826.435 24.0039 826.435 24.0039 828.522 24.0039C830.609 24.0039 830.608 24.0039 830.608 26.0912Z" fill="#F3F3F3"/>
<path d="M844.174 49.0511C844.174 50.0948 844.174 51.1384 842.087 51.1384C840 51.1384 840 51.1384 840 49.0511C840 46.9639 840 46.9639 842.087 46.9639C844.174 46.9639 844.174 46.9639 844.174 49.0511Z" fill="#F3F3F3"/>
<g opacity="0.1">
<path d="M896.856 48.9112L883.25 72.3867L885.056 73.4335L898.662 49.958L896.856 48.9112Z" fill="#F3F3F3"/>
</g>
<g opacity="0.7">
<path d="M881.512 71.2595L867.946 94.7588L869.754 95.8024L883.319 72.3032L881.512 71.2595Z" fill="#F3F3F3"/>
</g>
<g opacity="0.7">
<path d="M882.783 72.0107H855.652V74.098H882.783V72.0107Z" fill="#F3F3F3"/>
</g>
<g opacity="0.8">
<path d="M909.913 72.0107H882.783V74.098H909.913V72.0107Z" fill="#F3F3F3"/>
</g>
<g opacity="0.8">
<path d="M895.305 97.058L881.739 73.0544L883.826 72.0107L897.391 96.0144L895.305 97.058Z" fill="#F3F3F3"/>
</g>
<path d="M871.304 49.0511C871.304 50.0948 871.304 51.1384 869.217 51.1384C867.13 51.1384 867.13 51.1384 867.13 49.0511C867.13 46.9639 867.13 46.9639 869.217 46.9639C871.304 46.9639 871.304 46.9639 871.304 49.0511Z" fill="#F3F3F3"/>
<path d="M857.739 73.0541C857.739 74.0977 857.739 75.1413 855.652 75.1413C853.565 75.1413 853.565 75.1413 853.565 73.0541C853.565 70.9668 853.565 70.9668 855.652 70.9668C857.739 70.9668 857.739 70.9668 857.739 73.0541Z" fill="#F3F3F3"/>
<path d="M871.304 96.015C871.304 97.0586 871.304 98.1023 869.217 98.1023C867.13 98.1023 867.13 98.1023 867.13 96.015C867.13 93.9277 867.13 93.9277 869.217 93.9277C871.304 93.9277 871.304 93.9277 871.304 96.015Z" fill="#F3F3F3"/>
<g opacity="0.5">
<path d="M908.869 120.018L895.304 97.0583L897.391 96.0146L910.956 118.975L908.869 120.018Z" fill="#F3F3F3"/>
</g>
<g opacity="0.2">
<path d="M897.391 144.022L895.304 142.978L908.869 118.975L910.956 120.018L897.391 144.022Z" fill="#F3F3F3"/>
</g>
<g opacity="0.7">
<path d="M909.913 118.975H882.783V121.062H909.913V118.975Z" fill="#F3F3F3"/>
</g>
<path d="M898.435 96.015C898.435 97.0586 898.435 98.1023 896.348 98.1023C894.261 98.1023 894.261 98.1023 894.261 96.015C894.261 93.9277 894.261 93.9277 896.348 93.9277C898.435 93.9277 898.435 93.9277 898.435 96.015Z" fill="#F3F3F3"/>
<path d="M884.87 120.018C884.87 121.062 884.87 122.105 882.783 122.105C880.696 122.105 880.696 122.105 880.696 120.018C880.696 117.931 880.696 117.931 882.783 117.931C884.87 117.931 884.87 117.931 884.87 120.018Z" fill="#F3F3F3"/>
<path d="M898.435 142.978C898.435 144.022 898.435 145.065 896.348 145.065C894.261 145.065 894.261 145.065 894.261 142.978C894.261 140.891 894.261 140.891 896.348 140.891C898.435 140.891 898.435 140.891 898.435 142.978Z" fill="#F3F3F3"/>
<g opacity="0.4">
<path d="M897.391 50.0941L895.304 49.0505L908.869 25.0469L910.956 26.0905L897.391 50.0941Z" fill="#F3F3F3"/>
</g>
<path d="M898.435 2.08727C898.435 3.13091 898.435 4.17455 896.348 4.17455C894.261 4.17455 894.261 4.17455 894.261 2.08727C894.261 0 894.261 0 896.348 0C898.435 0 898.435 0 898.435 2.08727Z" fill="#F3F3F3"/>
<path d="M884.87 26.0912C884.87 27.1348 884.87 28.1785 882.783 28.1785C880.696 28.1785 880.696 28.1785 880.696 26.0912C880.696 24.0039 880.696 24.0039 882.783 24.0039C884.87 24.0039 884.87 24.0039 884.87 26.0912Z" fill="#F3F3F3"/>
<path d="M898.435 49.0511C898.435 50.0948 898.435 51.1384 896.348 51.1384C894.261 51.1384 894.261 51.1384 894.261 49.0511C894.261 46.9639 894.261 46.9639 896.348 46.9639C898.435 46.9639 898.435 46.9639 898.435 49.0511Z" fill="#F3F3F3"/>
<path d="M912 73.0541C912 74.0977 912 75.1413 909.913 75.1413C907.826 75.1413 907.826 75.1413 907.826 73.0541C907.826 70.9668 907.826 70.9668 909.913 70.9668C912 70.9668 912 70.9668 912 73.0541Z" fill="#F3F3F3"/>
</g>
<defs>
<clipPath id="clip0_7816_17866">
<rect width="912" height="287" fill="white"/>
</clipPath>
</defs>
</svg>
