<svg width="73" height="73" viewBox="0 0 73 73" fill="none" xmlns="http://www.w3.org/2000/svg">
<path d="M28.0722 37.6187C28.442 37.6187 28.785 37.4249 28.9757 37.1079L30.8785 33.9474L33.3999 37.9541C33.5971 38.2675 33.9416 38.4536 34.3147 38.4468C34.6849 38.4391 35.024 38.2377 35.2079 37.9163L39.2671 30.8237L44.7188 40.7588C44.9008 41.0904 45.2464 41.2993 45.6247 41.306C45.6309 41.306 45.6372 41.3062 45.6434 41.3062C46.0145 41.3062 46.3591 41.1108 46.5495 40.7912L49.946 35.0894H58.1363C58.7187 35.0894 59.191 34.6172 59.191 34.0347C59.191 33.4523 58.7187 32.98 58.1363 32.98H49.3466C48.975 32.98 48.6307 33.1756 48.4406 33.495L45.681 38.1275L40.2111 28.1591C40.0274 27.8246 39.6775 27.6153 39.2959 27.6118C39.2927 27.6118 39.2896 27.6118 39.2863 27.6118C38.9083 27.6118 38.559 27.8142 38.371 28.1425L34.2496 35.3439L31.7512 31.374C31.558 31.067 31.2209 30.8811 30.8585 30.8811C30.8552 30.8811 30.8516 30.8811 30.8481 30.8811C30.4819 30.8846 30.1439 31.0779 29.955 31.3917L27.4761 35.5093H21.4819C20.8995 35.5093 20.4272 35.9815 20.4272 36.564C20.4272 37.1465 20.8995 37.6187 21.4819 37.6187H28.0722Z" fill="white"/>
<path d="M59.9979 8.34619C59.4154 8.34619 58.9432 8.81841 58.9432 9.40088V12.5121H55.8323C55.2498 12.5121 54.7776 12.9843 54.7776 13.5668C54.7776 14.1492 55.2498 14.6214 55.8323 14.6214H58.9432V17.7328C58.9432 18.3152 59.4154 18.7875 59.9979 18.7875C60.5803 18.7875 61.0526 18.3152 61.0526 17.7328V14.6214H64.1635C64.7459 14.6214 65.2181 14.1492 65.2181 13.5668C65.2181 12.9843 64.7459 12.5121 64.1635 12.5121H61.0526V9.40088C61.0526 8.81841 60.5803 8.34619 59.9979 8.34619Z" fill="white"/>
<mask id="path-3-outside-1_27139_266" maskUnits="userSpaceOnUse" x="-0.5" y="0.0639648" width="74" height="72" fill="black">
<rect fill="white" x="-0.5" y="0.0639648" width="74" height="72"/>
<path d="M63.7194 44.4819C68.8577 38.9887 70.3303 30.6821 67.5058 23.5609C70.5367 21.2766 72.5 17.6469 72.5 13.5668C72.5 6.67265 66.8916 1.06396 59.9979 1.06396C57.1661 1.06396 54.3931 2.03582 52.1895 3.80053C51.7349 4.16461 51.6615 4.82836 52.0256 5.283C52.3896 5.7375 53.0534 5.81104 53.508 5.44697C55.3654 3.95943 57.6095 3.17334 59.9977 3.17334C65.7282 3.17334 70.3905 7.8359 70.3905 13.5668C70.3905 19.3001 65.7283 23.9643 59.9977 23.9643C54.662 23.9643 50.2544 19.923 49.6691 14.7409C49.668 14.7289 49.666 14.7168 49.6645 14.7047C49.6236 14.3308 49.6009 13.9514 49.6009 13.5668C49.6009 11.9389 49.9667 10.3822 50.6878 8.93967C50.9482 8.41865 50.737 7.78514 50.2161 7.52456C49.6947 7.26426 49.0616 7.47534 48.801 7.99621C47.9321 9.7342 47.4915 11.6084 47.4915 13.5667C47.4915 13.7438 47.4962 13.9199 47.5035 14.0954C44.8403 15.0473 42.3545 16.6129 40.2713 18.6616L39.1055 19.8077C39.0999 19.8021 39.0957 19.7979 39.09 19.7923L37.9439 18.663C34.2357 15.0068 29.3813 12.9635 24.6239 13.0619C20.6653 13.1435 17.1624 14.6946 14.4947 17.5465C14.0968 17.9726 14.1192 18.6405 14.5453 19.0385C14.9714 19.4351 15.638 19.414 16.036 18.9879C18.3057 16.5607 21.2897 15.2402 24.6675 15.1713C28.8582 15.0855 33.1571 16.9066 36.4632 20.1649L37.6107 21.2955C38.1647 21.8412 38.6372 22.1126 39.1083 22.1126C39.5752 22.1126 40.0407 21.8454 40.5849 21.311L41.7507 20.1649C43.5024 18.4431 45.5686 17.1024 47.7807 16.2425C49.0093 21.8573 54.0199 26.0736 59.9976 26.0736C62.0441 26.0736 63.9773 25.5791 65.6841 24.7033C68.0211 30.9894 66.6792 38.221 62.1863 43.0318L47.0455 58.5304L45.7925 58.7751C45.4888 58.8341 45.2202 58.8876 44.9755 58.9368C43.3864 59.2588 43.0067 59.3347 41.1463 59.0479L32.1252 57.3983C30.8961 56.9737 31.0198 55.9949 31.0888 55.701C31.197 55.244 31.6217 54.5057 32.5344 54.6435C32.5428 54.6449 32.5513 54.6463 32.5597 54.6477C32.9661 54.6997 33.402 54.756 33.8577 54.8137C35.5663 55.0344 37.5013 55.2833 39.2197 55.4591C42.7353 55.8149 44.7238 53.9699 45.1372 51.9815C45.5577 49.9551 44.4031 47.2607 40.8734 46.1343C40.8313 46.1216 40.7877 46.1104 40.7427 46.1019L34.9334 45.036C31.7806 44.458 29.3281 44.9038 25.6156 45.5788C24.6341 45.7574 23.5203 45.9585 22.28 46.1624L19.5266 46.6152L18.6786 45.7476L16.0278 43.0335C11.0736 37.7221 9.97531 29.4027 13.3616 22.7976C13.6273 22.2801 13.422 21.6444 12.9045 21.3787C12.3856 21.1129 11.75 21.3168 11.4842 21.8357C7.69859 29.2213 8.93609 38.5335 14.495 44.4819C14.5006 44.4876 14.5062 44.4932 14.5105 44.4988L16.9855 47.0329L12.3761 47.7906V47.6702C12.3761 46.8558 11.6576 46.1933 10.7745 46.1933H2.0975C1.21662 46.1933 0.5 46.8558 0.5 47.6702V66.2278C0.5 67.0421 1.21662 67.7046 2.0975 67.7046H10.7746C11.6578 67.7046 12.3762 67.0421 12.3762 66.2278V66.0999L21.8609 68.6807L30.6163 71.0601C32.6145 71.6802 34.2247 71.9361 35.6942 71.9361C38.0202 71.9361 39.9959 71.2977 42.6059 70.454C42.838 70.3794 43.0756 70.3021 43.3203 70.2233L60.5736 64.6912C62.5733 64.0499 63.9964 62.6099 64.3789 60.8394C64.6756 59.4669 64.2622 58.1113 63.2722 57.2127C62.4706 56.4857 60.5863 55.4422 56.9539 56.5911L50.6905 57.816L63.7039 44.4988C63.7095 44.4932 63.7137 44.4876 63.7194 44.4819ZM2.60938 65.5952V48.3026H10.2667V49.0272C10.2667 49.0295 10.2664 49.0316 10.2664 49.0338V64.7191L10.2667 64.7228V65.5952H2.60938ZM57.5375 58.619C59.4838 57.9946 61.0573 58.0508 61.8561 58.7751C62.2864 59.166 62.4552 59.7566 62.3173 60.3922C62.0952 61.4174 61.2022 62.2738 59.9295 62.6816L42.6748 68.2152C42.4287 68.294 42.1897 68.3713 41.9562 68.4472C37.8289 69.7804 35.7575 70.4511 31.2237 69.0407C31.2125 69.0365 31.1998 69.0337 31.1872 69.0294L12.3761 63.9136V49.9283L22.6217 48.2451C23.8789 48.0383 25.0025 47.833 25.9939 47.653C29.6009 46.9977 31.7792 46.6026 34.5523 47.1116L40.2941 48.1649C42.5328 48.9004 43.3048 50.4318 43.0714 51.5526C42.8028 52.8477 41.3741 53.5579 39.4334 53.361C37.7431 53.188 35.8222 52.9405 34.1277 52.7226C33.6748 52.6635 33.2403 52.6072 32.8367 52.5566C30.8202 52.2585 29.3984 53.669 29.0356 55.2201C28.9583 55.5505 28.9273 55.9021 28.9498 56.2565C29.0272 57.539 29.7936 58.8693 31.543 59.4276C31.5866 59.4416 32.1687 59.5499 32.1687 59.5499L40.782 61.1249C40.7905 61.1263 40.8003 61.1277 40.8102 61.1291C42.5877 61.4062 43.3569 61.3822 44.4467 61.1896C44.7322 61.139 45.8966 60.9027 46.1961 60.8451L48.0945 60.4738C48.0945 60.4738 57.4981 58.6316 57.5375 58.619Z"/>
</mask>
<path d="M63.7194 44.4819C68.8577 38.9887 70.3303 30.6821 67.5058 23.5609C70.5367 21.2766 72.5 17.6469 72.5 13.5668C72.5 6.67265 66.8916 1.06396 59.9979 1.06396C57.1661 1.06396 54.3931 2.03582 52.1895 3.80053C51.7349 4.16461 51.6615 4.82836 52.0256 5.283C52.3896 5.7375 53.0534 5.81104 53.508 5.44697C55.3654 3.95943 57.6095 3.17334 59.9977 3.17334C65.7282 3.17334 70.3905 7.8359 70.3905 13.5668C70.3905 19.3001 65.7283 23.9643 59.9977 23.9643C54.662 23.9643 50.2544 19.923 49.6691 14.7409C49.668 14.7289 49.666 14.7168 49.6645 14.7047C49.6236 14.3308 49.6009 13.9514 49.6009 13.5668C49.6009 11.9389 49.9667 10.3822 50.6878 8.93967C50.9482 8.41865 50.737 7.78514 50.2161 7.52456C49.6947 7.26426 49.0616 7.47534 48.801 7.99621C47.9321 9.7342 47.4915 11.6084 47.4915 13.5667C47.4915 13.7438 47.4962 13.9199 47.5035 14.0954C44.8403 15.0473 42.3545 16.6129 40.2713 18.6616L39.1055 19.8077C39.0999 19.8021 39.0957 19.7979 39.09 19.7923L37.9439 18.663C34.2357 15.0068 29.3813 12.9635 24.6239 13.0619C20.6653 13.1435 17.1624 14.6946 14.4947 17.5465C14.0968 17.9726 14.1192 18.6405 14.5453 19.0385C14.9714 19.4351 15.638 19.414 16.036 18.9879C18.3057 16.5607 21.2897 15.2402 24.6675 15.1713C28.8582 15.0855 33.1571 16.9066 36.4632 20.1649L37.6107 21.2955C38.1647 21.8412 38.6372 22.1126 39.1083 22.1126C39.5752 22.1126 40.0407 21.8454 40.5849 21.311L41.7507 20.1649C43.5024 18.4431 45.5686 17.1024 47.7807 16.2425C49.0093 21.8573 54.0199 26.0736 59.9976 26.0736C62.0441 26.0736 63.9773 25.5791 65.6841 24.7033C68.0211 30.9894 66.6792 38.221 62.1863 43.0318L47.0455 58.5304L45.7925 58.7751C45.4888 58.8341 45.2202 58.8876 44.9755 58.9368C43.3864 59.2588 43.0067 59.3347 41.1463 59.0479L32.1252 57.3983C30.8961 56.9737 31.0198 55.9949 31.0888 55.701C31.197 55.244 31.6217 54.5057 32.5344 54.6435C32.5428 54.6449 32.5513 54.6463 32.5597 54.6477C32.9661 54.6997 33.402 54.756 33.8577 54.8137C35.5663 55.0344 37.5013 55.2833 39.2197 55.4591C42.7353 55.8149 44.7238 53.9699 45.1372 51.9815C45.5577 49.9551 44.4031 47.2607 40.8734 46.1343C40.8313 46.1216 40.7877 46.1104 40.7427 46.1019L34.9334 45.036C31.7806 44.458 29.3281 44.9038 25.6156 45.5788C24.6341 45.7574 23.5203 45.9585 22.28 46.1624L19.5266 46.6152L18.6786 45.7476L16.0278 43.0335C11.0736 37.7221 9.97531 29.4027 13.3616 22.7976C13.6273 22.2801 13.422 21.6444 12.9045 21.3787C12.3856 21.1129 11.75 21.3168 11.4842 21.8357C7.69859 29.2213 8.93609 38.5335 14.495 44.4819C14.5006 44.4876 14.5062 44.4932 14.5105 44.4988L16.9855 47.0329L12.3761 47.7906V47.6702C12.3761 46.8558 11.6576 46.1933 10.7745 46.1933H2.0975C1.21662 46.1933 0.5 46.8558 0.5 47.6702V66.2278C0.5 67.0421 1.21662 67.7046 2.0975 67.7046H10.7746C11.6578 67.7046 12.3762 67.0421 12.3762 66.2278V66.0999L21.8609 68.6807L30.6163 71.0601C32.6145 71.6802 34.2247 71.9361 35.6942 71.9361C38.0202 71.9361 39.9959 71.2977 42.6059 70.454C42.838 70.3794 43.0756 70.3021 43.3203 70.2233L60.5736 64.6912C62.5733 64.0499 63.9964 62.6099 64.3789 60.8394C64.6756 59.4669 64.2622 58.1113 63.2722 57.2127C62.4706 56.4857 60.5863 55.4422 56.9539 56.5911L50.6905 57.816L63.7039 44.4988C63.7095 44.4932 63.7137 44.4876 63.7194 44.4819ZM2.60938 65.5952V48.3026H10.2667V49.0272C10.2667 49.0295 10.2664 49.0316 10.2664 49.0338V64.7191L10.2667 64.7228V65.5952H2.60938ZM57.5375 58.619C59.4838 57.9946 61.0573 58.0508 61.8561 58.7751C62.2864 59.166 62.4552 59.7566 62.3173 60.3922C62.0952 61.4174 61.2022 62.2738 59.9295 62.6816L42.6748 68.2152C42.4287 68.294 42.1897 68.3713 41.9562 68.4472C37.8289 69.7804 35.7575 70.4511 31.2237 69.0407C31.2125 69.0365 31.1998 69.0337 31.1872 69.0294L12.3761 63.9136V49.9283L22.6217 48.2451C23.8789 48.0383 25.0025 47.833 25.9939 47.653C29.6009 46.9977 31.7792 46.6026 34.5523 47.1116L40.2941 48.1649C42.5328 48.9004 43.3048 50.4318 43.0714 51.5526C42.8028 52.8477 41.3741 53.5579 39.4334 53.361C37.7431 53.188 35.8222 52.9405 34.1277 52.7226C33.6748 52.6635 33.2403 52.6072 32.8367 52.5566C30.8202 52.2585 29.3984 53.669 29.0356 55.2201C28.9583 55.5505 28.9273 55.9021 28.9498 56.2565C29.0272 57.539 29.7936 58.8693 31.543 59.4276C31.5866 59.4416 32.1687 59.5499 32.1687 59.5499L40.782 61.1249C40.7905 61.1263 40.8003 61.1277 40.8102 61.1291C42.5877 61.4062 43.3569 61.3822 44.4467 61.1896C44.7322 61.139 45.8966 60.9027 46.1961 60.8451L48.0945 60.4738C48.0945 60.4738 57.4981 58.6316 57.5375 58.619Z" fill="#CFA935"/>
<path d="M63.7194 44.4819C68.8577 38.9887 70.3303 30.6821 67.5058 23.5609C70.5367 21.2766 72.5 17.6469 72.5 13.5668C72.5 6.67265 66.8916 1.06396 59.9979 1.06396C57.1661 1.06396 54.3931 2.03582 52.1895 3.80053C51.7349 4.16461 51.6615 4.82836 52.0256 5.283C52.3896 5.7375 53.0534 5.81104 53.508 5.44697C55.3654 3.95943 57.6095 3.17334 59.9977 3.17334C65.7282 3.17334 70.3905 7.8359 70.3905 13.5668C70.3905 19.3001 65.7283 23.9643 59.9977 23.9643C54.662 23.9643 50.2544 19.923 49.6691 14.7409C49.668 14.7289 49.666 14.7168 49.6645 14.7047C49.6236 14.3308 49.6009 13.9514 49.6009 13.5668C49.6009 11.9389 49.9667 10.3822 50.6878 8.93967C50.9482 8.41865 50.737 7.78514 50.2161 7.52456C49.6947 7.26426 49.0616 7.47534 48.801 7.99621C47.9321 9.7342 47.4915 11.6084 47.4915 13.5667C47.4915 13.7438 47.4962 13.9199 47.5035 14.0954C44.8403 15.0473 42.3545 16.6129 40.2713 18.6616L39.1055 19.8077C39.0999 19.8021 39.0957 19.7979 39.09 19.7923L37.9439 18.663C34.2357 15.0068 29.3813 12.9635 24.6239 13.0619C20.6653 13.1435 17.1624 14.6946 14.4947 17.5465C14.0968 17.9726 14.1192 18.6405 14.5453 19.0385C14.9714 19.4351 15.638 19.414 16.036 18.9879C18.3057 16.5607 21.2897 15.2402 24.6675 15.1713C28.8582 15.0855 33.1571 16.9066 36.4632 20.1649L37.6107 21.2955C38.1647 21.8412 38.6372 22.1126 39.1083 22.1126C39.5752 22.1126 40.0407 21.8454 40.5849 21.311L41.7507 20.1649C43.5024 18.4431 45.5686 17.1024 47.7807 16.2425C49.0093 21.8573 54.0199 26.0736 59.9976 26.0736C62.0441 26.0736 63.9773 25.5791 65.6841 24.7033C68.0211 30.9894 66.6792 38.221 62.1863 43.0318L47.0455 58.5304L45.7925 58.7751C45.4888 58.8341 45.2202 58.8876 44.9755 58.9368C43.3864 59.2588 43.0067 59.3347 41.1463 59.0479L32.1252 57.3983C30.8961 56.9737 31.0198 55.9949 31.0888 55.701C31.197 55.244 31.6217 54.5057 32.5344 54.6435C32.5428 54.6449 32.5513 54.6463 32.5597 54.6477C32.9661 54.6997 33.402 54.756 33.8577 54.8137C35.5663 55.0344 37.5013 55.2833 39.2197 55.4591C42.7353 55.8149 44.7238 53.9699 45.1372 51.9815C45.5577 49.9551 44.4031 47.2607 40.8734 46.1343C40.8313 46.1216 40.7877 46.1104 40.7427 46.1019L34.9334 45.036C31.7806 44.458 29.3281 44.9038 25.6156 45.5788C24.6341 45.7574 23.5203 45.9585 22.28 46.1624L19.5266 46.6152L18.6786 45.7476L16.0278 43.0335C11.0736 37.7221 9.97531 29.4027 13.3616 22.7976C13.6273 22.2801 13.422 21.6444 12.9045 21.3787C12.3856 21.1129 11.75 21.3168 11.4842 21.8357C7.69859 29.2213 8.93609 38.5335 14.495 44.4819C14.5006 44.4876 14.5062 44.4932 14.5105 44.4988L16.9855 47.0329L12.3761 47.7906V47.6702C12.3761 46.8558 11.6576 46.1933 10.7745 46.1933H2.0975C1.21662 46.1933 0.5 46.8558 0.5 47.6702V66.2278C0.5 67.0421 1.21662 67.7046 2.0975 67.7046H10.7746C11.6578 67.7046 12.3762 67.0421 12.3762 66.2278V66.0999L21.8609 68.6807L30.6163 71.0601C32.6145 71.6802 34.2247 71.9361 35.6942 71.9361C38.0202 71.9361 39.9959 71.2977 42.6059 70.454C42.838 70.3794 43.0756 70.3021 43.3203 70.2233L60.5736 64.6912C62.5733 64.0499 63.9964 62.6099 64.3789 60.8394C64.6756 59.4669 64.2622 58.1113 63.2722 57.2127C62.4706 56.4857 60.5863 55.4422 56.9539 56.5911L50.6905 57.816L63.7039 44.4988C63.7095 44.4932 63.7137 44.4876 63.7194 44.4819ZM2.60938 65.5952V48.3026H10.2667V49.0272C10.2667 49.0295 10.2664 49.0316 10.2664 49.0338V64.7191L10.2667 64.7228V65.5952H2.60938ZM57.5375 58.619C59.4838 57.9946 61.0573 58.0508 61.8561 58.7751C62.2864 59.166 62.4552 59.7566 62.3173 60.3922C62.0952 61.4174 61.2022 62.2738 59.9295 62.6816L42.6748 68.2152C42.4287 68.294 42.1897 68.3713 41.9562 68.4472C37.8289 69.7804 35.7575 70.4511 31.2237 69.0407C31.2125 69.0365 31.1998 69.0337 31.1872 69.0294L12.3761 63.9136V49.9283L22.6217 48.2451C23.8789 48.0383 25.0025 47.833 25.9939 47.653C29.6009 46.9977 31.7792 46.6026 34.5523 47.1116L40.2941 48.1649C42.5328 48.9004 43.3048 50.4318 43.0714 51.5526C42.8028 52.8477 41.3741 53.5579 39.4334 53.361C37.7431 53.188 35.8222 52.9405 34.1277 52.7226C33.6748 52.6635 33.2403 52.6072 32.8367 52.5566C30.8202 52.2585 29.3984 53.669 29.0356 55.2201C28.9583 55.5505 28.9273 55.9021 28.9498 56.2565C29.0272 57.539 29.7936 58.8693 31.543 59.4276C31.5866 59.4416 32.1687 59.5499 32.1687 59.5499L40.782 61.1249C40.7905 61.1263 40.8003 61.1277 40.8102 61.1291C42.5877 61.4062 43.3569 61.3822 44.4467 61.1896C44.7322 61.139 45.8966 60.9027 46.1961 60.8451L48.0945 60.4738C48.0945 60.4738 57.4981 58.6316 57.5375 58.619Z" stroke="#CFA935" stroke-width="0.2" mask="url(#path-3-outside-1_27139_266)"/>
</svg>
