<svg width="150" height="150" viewBox="0 0 150 150" fill="none" xmlns="http://www.w3.org/2000/svg">
<g clip-path="url(#clip0_30760_574)">
<path d="M65.6672 51.4877L66.131 51.5013C70.9109 51.6984 75.4497 53.6834 78.842 57.0726L79.1662 57.4037C82.4675 60.866 84.3531 65.4471 84.4387 70.2416L84.4406 70.7054C84.4099 75.4894 82.584 80.0948 79.3146 83.6029L79.3088 83.6088L79.3029 83.6156L70.1857 92.7328C69.6522 93.2662 68.9285 93.5657 68.174 93.5658C67.4196 93.5658 66.6958 93.2662 66.1623 92.7328C65.6288 92.1993 65.3284 91.4755 65.3283 90.7211C65.3283 89.9666 65.6288 89.2429 66.1623 88.7094V88.7084L75.2795 79.6263L75.5129 79.3881C77.887 76.902 79.2196 73.5949 79.2258 70.1488L79.2219 69.8158C79.1453 66.4901 77.8349 63.3109 75.5461 60.8969L75.3137 60.6576C72.8811 58.2164 69.6057 56.8085 66.1691 56.7172L65.8361 56.7123C62.2792 56.706 58.8647 58.112 56.3449 60.6224L56.3459 60.6234L47.2287 69.7406L47.2277 69.7396C44.7146 72.2562 43.3039 75.6684 43.3039 79.225C43.304 82.7815 44.7154 86.1928 47.2287 88.7094L47.4182 88.9193C47.8354 89.4285 48.0666 90.0687 48.0666 90.7328C48.0665 91.4916 47.7653 92.2196 47.2287 92.7562C46.759 93.2259 46.1427 93.5155 45.4875 93.5804L45.2053 93.5941C44.5412 93.5941 43.901 93.3629 43.3918 92.9457L43.1818 92.7562L43.1808 92.7552C39.6069 89.171 37.5999 84.3159 37.5998 79.2543C37.5998 74.1925 39.6067 69.3366 43.1808 65.7523H43.1818L52.299 56.6351L52.3049 56.6283L52.3107 56.6224C55.929 53.2444 60.7179 51.4039 65.6672 51.4877Z" fill="#CFA935" stroke="#CFA935"/>
<path d="M53.2324 79.8435C53.608 79.8435 53.98 79.9176 54.3271 80.0613L54.582 80.1814C54.8295 80.3138 55.0566 80.4822 55.2558 80.6814L55.2568 80.6824L55.5869 81.0222C58.9539 84.5704 60.8378 89.2799 60.8378 94.1833C60.8378 99.2451 58.8309 104.101 55.2568 107.685H55.2558L46.1386 116.802L46.1328 116.809L46.1259 116.815C42.6207 120.087 38.0172 121.917 33.2333 121.952L32.7704 121.95C27.9759 121.869 23.393 119.987 19.9277 116.689L19.5956 116.365C16.2034 112.976 14.2139 108.439 14.0126 103.659L13.999 103.196C13.9107 98.2468 15.7473 93.456 19.122 89.8347L19.1288 89.8289L19.1347 89.822L28.2519 80.7048L28.4609 80.5164C28.9671 80.1016 29.6034 79.8718 30.2636 79.8718C31.0181 79.8718 31.7418 80.1714 32.2753 80.7048L32.4648 80.9138C32.8794 81.42 33.1083 82.0565 33.1083 82.7166C33.1083 83.4711 32.8088 84.1947 32.2753 84.7283L32.2744 84.7292L23.1572 93.8113C20.7161 96.2438 19.3081 99.5194 19.2167 102.956L19.2119 103.289C19.2056 106.846 20.6131 110.26 23.124 112.78L23.3613 113.013C25.8474 115.388 29.1554 116.719 32.6015 116.725L32.9345 116.721C36.3709 116.642 39.6507 115.246 42.0917 112.814L51.2089 103.697C53.722 101.18 55.1337 97.7692 55.1337 94.2126C55.1337 90.7672 53.8091 87.4579 51.4413 84.9666L51.2089 84.7283C51.0097 84.529 50.8413 84.302 50.7089 84.0544L50.5888 83.8005C50.445 83.4534 50.371 83.0806 50.371 82.7048C50.3711 82.3291 50.445 81.9572 50.5888 81.6101C50.7326 81.2629 50.9432 80.9471 51.2089 80.6814L51.4169 80.4929C51.6341 80.3147 51.8771 80.1692 52.1376 80.0613L52.4023 79.9666C52.6709 79.8851 52.9506 79.8435 53.2324 79.8435Z" fill="#CFA935" stroke="#CFA935"/>
<path d="M100.192 77.6796C100.583 77.5425 101.004 77.5068 101.414 77.577L101.588 77.6132C101.99 77.7126 102.361 77.9127 102.666 78.1962L149.307 121.638L149.414 121.744C149.658 122 149.845 122.307 149.959 122.643L150.003 122.789C150.082 123.082 150.107 123.387 150.075 123.688L150.055 123.839C149.995 124.189 149.86 124.521 149.659 124.813L149.57 124.935C149.352 125.215 149.075 125.443 148.76 125.604L148.622 125.67L136.068 131.138L139.545 139.249L139.631 139.473C139.806 140.003 139.795 140.58 139.595 141.106C139.366 141.708 138.908 142.195 138.322 142.462L138.321 142.463L121.224 149.834C120.709 150.062 120.133 150.104 119.595 149.958L119.366 149.884C118.765 149.655 118.277 149.197 118.011 148.611L118.01 148.609L114.533 140.499L101.981 145.967C101.61 146.129 101.204 146.196 100.8 146.162C100.396 146.128 100.006 145.994 99.667 145.772C99.37 145.578 99.1191 145.322 98.9316 145.022L98.8555 144.891C98.6623 144.535 98.5612 144.136 98.5605 143.73V79.9803L98.5664 79.8026C98.5971 79.3902 98.7321 78.9909 98.96 78.6434C99.2204 78.2464 99.5912 77.9339 100.026 77.744L100.192 77.6796ZM103.447 140.073L114.827 135.119L115.051 135.033C115.581 134.858 116.158 134.87 116.685 135.07C117.211 135.27 117.65 135.645 117.93 136.128L118.04 136.342L118.041 136.344L121.517 144.453L134.13 138.967L130.654 130.856V130.857C130.394 130.269 130.376 129.601 130.604 128.999L130.701 128.779C130.95 128.279 131.364 127.877 131.877 127.643L131.878 127.642L143.269 122.676L103.447 85.6005V140.073Z" fill="black" stroke="black" stroke-width="0.2"/>
<path d="M121.781 0C125.535 0.00310337 129.134 1.49527 131.788 4.14941C134.442 6.80355 135.934 10.4027 135.938 14.1562V97.2656C135.938 97.8872 135.691 98.4833 135.251 98.9229C134.811 99.3624 134.215 99.6094 133.594 99.6094C132.972 99.6094 132.376 99.3624 131.937 98.9229C131.497 98.4833 131.25 97.8872 131.25 97.2656V42.1875H4.6875V121.781C4.6875 124.293 5.6852 126.701 7.46094 128.477C9.23667 130.252 11.645 131.25 14.1562 131.25H91.4062C92.0279 131.25 92.6239 131.497 93.0635 131.937C93.503 132.376 93.75 132.972 93.75 133.594C93.75 134.215 93.503 134.811 93.0635 135.251C92.6239 135.691 92.0279 135.938 91.4062 135.938H14.1562C10.4049 135.934 6.80808 134.443 4.1543 131.792C1.50049 129.14 0.00620466 125.544 0 121.793V14.1562C0.00310337 10.4027 1.49527 6.80355 4.14941 4.14941C6.80355 1.49527 10.4027 0.00310337 14.1562 0H121.781ZM14.1562 4.6875C11.645 4.6875 9.23667 5.6852 7.46094 7.46094C5.6852 9.23667 4.6875 11.645 4.6875 14.1562V37.5H131.25V14.1562C131.25 11.647 130.254 9.24024 128.48 7.46484C126.707 5.6896 124.302 4.69061 121.793 4.6875H14.1562Z" fill="black"/>
<path d="M121.781 0C125.535 0.00310337 129.134 1.49527 131.788 4.14941C134.442 6.80355 135.934 10.4027 135.938 14.1562V97.2656C135.938 97.8872 135.691 98.4833 135.251 98.9229C134.811 99.3624 134.215 99.6094 133.594 99.6094C132.972 99.6094 132.376 99.3624 131.937 98.9229C131.497 98.4833 131.25 97.8872 131.25 97.2656V42.1875H4.6875V121.781C4.6875 124.293 5.6852 126.701 7.46094 128.477C9.23667 130.252 11.645 131.25 14.1562 131.25H91.4062C92.0279 131.25 92.6239 131.497 93.0635 131.937C93.503 132.376 93.75 132.972 93.75 133.594C93.75 134.215 93.503 134.811 93.0635 135.251C92.6239 135.691 92.0279 135.938 91.4062 135.938H14.1562C10.4049 135.934 6.80808 134.443 4.1543 131.792C1.50049 129.14 0.00620466 125.544 0 121.793V14.1562C0.00310337 10.4027 1.49527 6.80355 4.14941 4.14941C6.80355 1.49527 10.4027 0.00310337 14.1562 0H121.781ZM14.1562 4.6875C11.645 4.6875 9.23667 5.6852 7.46094 7.46094C5.6852 9.23667 4.6875 11.645 4.6875 14.1562V37.5H131.25V14.1562C131.25 11.647 130.254 9.24024 128.48 7.46484C126.707 5.6896 124.302 4.69061 121.793 4.6875H14.1562Z" stroke="black"/>
<path d="M112.153 14.5977C113.438 14.0656 114.852 13.926 116.216 14.1973C117.58 14.4686 118.832 15.1388 119.815 16.1221C120.799 17.1053 121.469 18.3579 121.74 19.7217C122.012 21.0855 121.872 22.4995 121.34 23.7842C120.808 25.069 119.906 26.1678 118.75 26.9404C117.594 27.7129 116.234 28.125 114.844 28.125C112.979 28.125 111.191 27.384 109.872 26.0654C108.553 24.7468 107.812 22.9586 107.812 21.0938C107.813 19.7032 108.225 18.3437 108.997 17.1875C109.77 16.0312 110.869 15.1298 112.153 14.5977ZM114.844 18.75C114.222 18.75 113.626 18.997 113.187 19.4365C112.747 19.8761 112.5 20.4721 112.5 21.0938C112.5 21.5571 112.637 22.0102 112.895 22.3955C113.152 22.7809 113.519 23.0814 113.947 23.2588C114.375 23.4361 114.846 23.4829 115.301 23.3926C115.755 23.3021 116.173 23.0788 116.501 22.751C116.829 22.4232 117.052 22.0054 117.143 21.5508C117.233 21.0963 117.186 20.6254 117.009 20.1973C116.831 19.769 116.531 19.4021 116.146 19.1445C115.76 18.8872 115.307 18.75 114.844 18.75Z" fill="black"/>
<path d="M112.153 14.5977C113.438 14.0656 114.852 13.926 116.216 14.1973C117.58 14.4686 118.832 15.1388 119.815 16.1221C120.799 17.1053 121.469 18.3579 121.74 19.7217C122.012 21.0855 121.872 22.4995 121.34 23.7842C120.808 25.069 119.906 26.1678 118.75 26.9404C117.594 27.7129 116.234 28.125 114.844 28.125C112.979 28.125 111.191 27.384 109.872 26.0654C108.553 24.7468 107.812 22.9586 107.812 21.0938C107.813 19.7032 108.225 18.3437 108.997 17.1875C109.77 16.0312 110.869 15.1298 112.153 14.5977ZM114.844 18.75C114.222 18.75 113.626 18.997 113.187 19.4365C112.747 19.8761 112.5 20.4721 112.5 21.0938C112.5 21.5571 112.637 22.0102 112.895 22.3955C113.152 22.7809 113.519 23.0814 113.947 23.2588C114.375 23.4361 114.846 23.4829 115.301 23.3926C115.755 23.3021 116.173 23.0788 116.501 22.751C116.829 22.4232 117.052 22.0054 117.143 21.5508C117.233 21.0963 117.186 20.6254 117.009 20.1973C116.831 19.769 116.531 19.4021 116.146 19.1445C115.76 18.8872 115.307 18.75 114.844 18.75Z" stroke="black"/>
<path d="M93.4033 14.5977C94.688 14.0656 96.102 13.926 97.4658 14.1973C98.8296 14.4686 100.082 15.1388 101.065 16.1221C102.049 17.1053 102.719 18.3579 102.99 19.7217C103.262 21.0855 103.122 22.4995 102.59 23.7842C102.058 25.069 101.156 26.1678 100 26.9404C98.8438 27.7129 97.4843 28.125 96.0938 28.125C94.2289 28.125 92.4407 27.384 91.1221 26.0654C89.8035 24.7468 89.0625 22.9586 89.0625 21.0938C89.0625 19.7032 89.4746 18.3437 90.2471 17.1875C91.0197 16.0312 92.1185 15.1298 93.4033 14.5977ZM96.0938 18.75C95.4722 18.75 94.8761 18.997 94.4365 19.4365C93.997 19.8761 93.75 20.4721 93.75 21.0938C93.75 21.5571 93.8872 22.0102 94.1445 22.3955C94.4021 22.7809 94.769 23.0814 95.1973 23.2588C95.6254 23.4361 96.0963 23.4829 96.5508 23.3926C97.0054 23.3021 97.4232 23.0788 97.751 22.751C98.0788 22.4232 98.3021 22.0054 98.3926 21.5508C98.4829 21.0963 98.4361 20.6254 98.2588 20.1973C98.0814 19.769 97.7809 19.4021 97.3955 19.1445C97.0102 18.8872 96.5571 18.75 96.0938 18.75Z" fill="black"/>
<path d="M93.4033 14.5977C94.688 14.0656 96.102 13.926 97.4658 14.1973C98.8296 14.4686 100.082 15.1388 101.065 16.1221C102.049 17.1053 102.719 18.3579 102.99 19.7217C103.262 21.0855 103.122 22.4995 102.59 23.7842C102.058 25.069 101.156 26.1678 100 26.9404C98.8438 27.7129 97.4843 28.125 96.0938 28.125C94.2289 28.125 92.4407 27.384 91.1221 26.0654C89.8035 24.7468 89.0625 22.9586 89.0625 21.0938C89.0625 19.7032 89.4746 18.3437 90.2471 17.1875C91.0197 16.0312 92.1185 15.1298 93.4033 14.5977ZM96.0938 18.75C95.4722 18.75 94.8761 18.997 94.4365 19.4365C93.997 19.8761 93.75 20.4721 93.75 21.0938C93.75 21.5571 93.8872 22.0102 94.1445 22.3955C94.4021 22.7809 94.769 23.0814 95.1973 23.2588C95.6254 23.4361 96.0963 23.4829 96.5508 23.3926C97.0054 23.3021 97.4232 23.0788 97.751 22.751C98.0788 22.4232 98.3021 22.0054 98.3926 21.5508C98.4829 21.0963 98.4361 20.6254 98.2588 20.1973C98.0814 19.769 97.7809 19.4021 97.3955 19.1445C97.0102 18.8872 96.5571 18.75 96.0938 18.75Z" stroke="black"/>
<path d="M74.6533 14.5977C75.938 14.0656 77.352 13.926 78.7158 14.1973C80.0796 14.4686 81.3322 15.1388 82.3154 16.1221C83.2987 17.1053 83.9689 18.3579 84.2402 19.7217C84.5115 21.0855 84.3719 22.4995 83.8398 23.7842C83.3077 25.069 82.4063 26.1678 81.25 26.9404C80.0938 27.7129 78.7343 28.125 77.3438 28.125C75.4789 28.125 73.6907 27.384 72.3721 26.0654C71.0535 24.7468 70.3125 22.9586 70.3125 21.0938C70.3125 19.7032 70.7246 18.3437 71.4971 17.1875C72.2697 16.0312 73.3685 15.1298 74.6533 14.5977ZM77.3438 18.75C76.7222 18.75 76.1261 18.997 75.6865 19.4365C75.247 19.8761 75 20.4721 75 21.0938C75 21.5571 75.1372 22.0102 75.3945 22.3955C75.6521 22.7809 76.019 23.0814 76.4473 23.2588C76.8754 23.4361 77.3463 23.4829 77.8008 23.3926C78.2554 23.3021 78.6732 23.0788 79.001 22.751C79.3288 22.4232 79.5521 22.0054 79.6426 21.5508C79.7329 21.0963 79.6861 20.6254 79.5088 20.1973C79.3314 19.769 79.0309 19.4021 78.6455 19.1445C78.2602 18.8872 77.8071 18.75 77.3438 18.75Z" fill="black"/>
<path d="M74.6533 14.5977C75.938 14.0656 77.352 13.926 78.7158 14.1973C80.0796 14.4686 81.3322 15.1388 82.3154 16.1221C83.2987 17.1053 83.9689 18.3579 84.2402 19.7217C84.5115 21.0855 84.3719 22.4995 83.8398 23.7842C83.3077 25.069 82.4063 26.1678 81.25 26.9404C80.0938 27.7129 78.7343 28.125 77.3438 28.125C75.4789 28.125 73.6907 27.384 72.3721 26.0654C71.0535 24.7468 70.3125 22.9586 70.3125 21.0938C70.3125 19.7032 70.7246 18.3437 71.4971 17.1875C72.2697 16.0312 73.3685 15.1298 74.6533 14.5977ZM77.3438 18.75C76.7222 18.75 76.1261 18.997 75.6865 19.4365C75.247 19.8761 75 20.4721 75 21.0938C75 21.5571 75.1372 22.0102 75.3945 22.3955C75.6521 22.7809 76.019 23.0814 76.4473 23.2588C76.8754 23.4361 77.3463 23.4829 77.8008 23.3926C78.2554 23.3021 78.6732 23.0788 79.001 22.751C79.3288 22.4232 79.5521 22.0054 79.6426 21.5508C79.7329 21.0963 79.6861 20.6254 79.5088 20.1973C79.3314 19.769 79.0309 19.4021 78.6455 19.1445C78.2602 18.8872 77.8071 18.75 77.3438 18.75Z" stroke="black"/>
</g>
<defs>
<clipPath id="clip0_30760_574">
<rect width="150" height="150" fill="white"/>
</clipPath>
</defs>
</svg>
