<svg width="150" height="150" viewBox="0 0 150 150" fill="none" xmlns="http://www.w3.org/2000/svg">
<mask id="path-1-outside-1_30760_586" maskUnits="userSpaceOnUse" x="0" y="3" width="150" height="145" fill="black">
<rect fill="white" y="3" width="150" height="145"/>
<path d="M147.325 85.8604C144.621 82.5341 139.376 84.3229 135.667 85.958C132.271 87.453 129.358 88.8525 126.541 90.2061C117.584 94.5095 110.945 97.6993 99.2699 98.5648C99.6949 97.3088 99.8414 96.0537 99.6865 94.8965C99.2948 91.9729 96.8326 88.9062 91.1133 89.048C84.6797 89.2094 78.7427 87.6224 72.4559 85.9434C65.8222 84.1715 58.9612 82.3366 51.1828 82.5455C41.2538 82.8036 33.6381 84.8418 27.2183 88.9592C24.3182 90.8131 22.4546 92.9895 20.4815 95.2937C19.3477 96.6177 18.1787 97.9771 16.7672 99.3098C14.2922 97.7301 10.9609 98.0166 8.80081 100.176L2.87141 106.106C0.376196 108.601 0.376196 112.661 2.87141 115.156L32.1317 144.416C33.3809 145.66 35.0195 146.282 36.6572 146.282C38.2948 146.282 39.9343 145.659 41.1794 144.414L47.1059 138.487C48.3158 137.283 48.9823 135.675 48.9821 133.959C48.9821 132.805 48.6741 131.703 48.109 130.737C50.7589 128.242 54.5625 126.008 62.5612 126.629C65.1112 126.827 67.5569 127.081 69.9223 127.328C80.441 128.423 89.5257 129.37 100.447 124.681C107.026 121.857 118.308 116.315 128.449 109.992C140.514 102.468 147.245 96.1709 148.454 91.2751C148.952 89.2589 148.563 87.3871 147.325 85.8604ZM44.6186 135.994L38.6892 141.924C37.5695 143.043 35.7422 143.042 34.6184 141.924L5.36106 112.667C4.2387 111.544 4.2387 109.718 5.36106 108.596L11.2905 102.666C12.4128 101.544 14.2389 101.544 15.3615 102.666L44.6218 131.927C45.1629 132.465 45.4612 133.187 45.4612 133.959C45.4612 134.731 45.1626 135.452 44.6186 135.994ZM145.036 90.4305C144.483 92.6679 141.351 97.7963 126.586 107.004C116.613 113.222 105.524 118.67 99.0577 121.446C88.9787 125.772 80.3168 124.87 70.287 123.825C67.8988 123.577 65.429 123.319 62.8327 123.118C53.8538 122.423 49.1734 124.943 45.7764 128.102L19.3705 101.696C20.8216 100.306 22.0049 98.9274 23.1554 97.5839C25.0324 95.3922 26.6531 93.4993 29.1164 91.9246C34.974 88.1679 42.0147 86.3061 51.2745 86.0655C58.5478 85.8748 65.1551 87.6382 71.5465 89.3453C77.7973 91.0149 84.2628 92.7432 91.2015 92.568C92.9212 92.5243 95.8559 92.8287 96.1957 95.3644C96.3451 96.4782 95.9534 97.9149 95.0051 99.3027C94.9615 99.3572 94.9213 99.4146 94.8841 99.4744C93.6088 101.247 91.4162 102.914 88.2616 103.689C82.6641 105.065 72.6085 103.63 65.1261 101.599C64.1868 101.343 63.2203 101.898 62.9657 102.837C62.7109 103.775 63.2652 104.742 64.2035 104.997C69.5127 106.439 76.6963 107.753 82.7763 107.752C85.1019 107.752 87.2666 107.56 89.1018 107.109C92.6435 106.239 95.3763 104.394 97.1871 102.215C110.997 101.576 118.173 98.1317 128.065 93.3795C130.856 92.0386 133.743 90.6517 137.085 89.1801C142.466 86.8085 144.098 87.4741 144.591 88.0797C145.134 88.75 145.272 89.4754 145.036 90.4305ZM113.887 47.8316C113.887 46.8593 114.675 46.0712 115.647 46.0712C116.619 46.0712 117.408 46.8593 117.408 47.8316C117.408 50.0526 119.621 51.8594 122.341 51.8594C125.06 51.8594 127.265 50.0526 127.265 47.8316C127.265 45.1876 125.869 44.6304 122.176 43.8162C119.046 43.1263 114.759 42.1812 114.759 37.019C114.759 33.816 117.246 31.1236 120.58 30.4105V28.4069C120.58 27.4346 121.368 26.6465 122.341 26.6465C123.313 26.6465 124.101 27.4346 124.101 28.4069V30.4108C127.431 31.1245 129.915 33.8166 129.915 37.0187C129.915 37.9911 129.127 38.7792 128.154 38.7792C127.182 38.7792 126.394 37.9911 126.394 37.0187C126.394 35.2144 124.576 33.7466 122.341 33.7466C120.107 33.7466 118.28 35.2144 118.28 37.0187C118.28 39.061 119.272 39.5699 122.934 40.3773C126.061 41.0667 130.787 42.1085 130.787 47.8313C130.787 51.4545 127.917 54.4896 124.102 55.2153V57.199C124.102 58.1714 123.314 58.9595 122.341 58.9595C121.369 58.9595 120.581 58.1714 120.581 57.199V55.2156C116.761 54.4905 113.887 51.4554 113.887 47.8316ZM120.58 13.2845V5.76045C120.58 4.78809 121.368 4 122.341 4C123.313 4 124.101 4.78809 124.101 5.76045V13.2845C124.101 14.2568 123.313 15.0449 122.341 15.0449C121.368 15.0449 120.58 14.2568 120.58 13.2845ZM104.752 17.3122V9.78818C104.752 8.81582 105.54 8.02773 106.512 8.02773C107.484 8.02773 108.272 8.81582 108.272 9.78818V17.3122C108.272 18.2846 107.484 19.0727 106.512 19.0727C105.54 19.0727 104.752 18.2846 104.752 17.3122ZM136.4 17.3122V9.78818C136.4 8.81582 137.188 8.02773 138.161 8.02773C139.133 8.02773 139.921 8.81582 139.921 9.78818V17.3122C139.921 18.2846 139.133 19.0727 138.161 19.0727C137.188 19.0727 136.4 18.2846 136.4 17.3122ZM40.5985 67.414C47.1996 67.414 53.3461 64.8549 57.927 60.2925C61.0231 70.353 70.4031 77.6869 81.4656 77.6869C92.5281 77.6869 101.912 70.3498 105.006 60.286C109.587 64.8525 115.736 67.4143 122.341 67.4143C135.909 67.4143 146.948 56.372 146.948 42.7993C146.948 29.2267 135.909 18.1929 122.341 18.1929C116.42 18.1929 110.697 20.3248 106.228 24.1961C102.71 27.2427 100.147 31.2068 98.8008 35.5964C94.3477 31.1767 88.2205 28.4409 81.4656 28.4409C74.7106 28.4409 68.5849 31.1761 64.1318 35.5949C62.7879 31.2065 60.2274 27.243 56.7109 24.1964C52.2425 20.3251 46.5202 18.1932 40.5982 18.1932C27.0255 18.1932 15.9832 29.2316 15.9832 42.7996C15.9832 56.3676 27.0255 67.414 40.5985 67.414ZM122.341 21.7135C133.968 21.7135 143.426 31.1726 143.426 42.799C143.426 54.4255 133.967 63.8928 122.341 63.8928C115.882 63.8928 109.931 61.0334 105.904 56.0236C106.021 55.0521 106.089 54.066 106.089 53.0635C106.089 47.8026 104.425 42.9259 101.603 38.9207C103.446 29.0646 112.239 21.7135 122.341 21.7135ZM81.4656 31.9612C93.1011 31.9612 102.568 41.4276 102.568 53.0632C102.568 64.6987 93.1011 74.1654 81.4656 74.1654C70.9348 74.1654 62.1818 66.4114 60.6141 56.3131C60.6112 56.2894 60.6071 56.2656 60.603 56.2419C60.4456 55.2048 60.3633 54.1437 60.3633 53.0632C60.3633 41.4276 69.8297 31.9612 81.4656 31.9612ZM40.5985 21.7135C50.7038 21.7135 59.4932 29.0644 61.3281 38.9198C58.5062 42.9253 56.8421 47.8023 56.8421 53.0635C56.8421 54.0689 56.9098 55.0583 57.0276 56.0327C53.0013 61.0369 47.0537 63.8931 40.5982 63.8931C28.967 63.8931 19.5044 54.4305 19.5044 42.7993C19.5044 31.1682 28.9673 21.7135 40.5985 21.7135ZM32.1528 47.8316C32.1528 46.8593 32.9408 46.0712 33.9132 46.0712C34.8856 46.0712 35.6737 46.8593 35.6737 47.8316C35.6737 50.0526 37.8829 51.8594 40.5985 51.8594C43.314 51.8594 45.5233 50.0526 45.5233 47.8316C45.5233 45.1876 44.1273 44.6304 40.4335 43.8162C37.3034 43.1263 33.0167 42.1812 33.0167 37.019C33.0167 33.816 35.5034 31.1236 38.8383 30.4105V28.4069C38.8383 27.4346 39.6264 26.6465 40.5988 26.6465C41.5711 26.6465 42.3592 27.4346 42.3592 28.4069V30.4105C45.6941 31.1236 48.1808 33.816 48.1808 37.019C48.1808 37.9914 47.3927 38.7795 46.4203 38.7795C45.448 38.7795 44.6599 37.9914 44.6599 37.019C44.6599 35.2146 42.8382 33.7469 40.5988 33.7469C38.3593 33.7469 36.5379 35.2146 36.5379 37.019C36.5379 39.0613 37.5296 39.5702 41.1917 40.3776C44.3189 41.067 49.0445 42.1088 49.0445 47.8316C49.0445 51.4548 46.1742 54.4899 42.3592 55.2156V57.1993C42.3592 58.1717 41.5711 58.9598 40.5988 58.9598C39.6264 58.9598 38.8383 58.1717 38.8383 57.1993V55.2156C35.0233 54.4899 32.1528 51.4548 32.1528 47.8316ZM54.6665 17.3122V9.78818C54.6665 8.81582 55.4546 8.02773 56.427 8.02773C57.3993 8.02773 58.1874 8.81582 58.1874 9.78818V17.3122C58.1874 18.2846 57.3993 19.0727 56.427 19.0727C55.4546 19.0727 54.6665 18.2846 54.6665 17.3122ZM38.838 13.2845V5.76045C38.838 4.78809 39.6261 4 40.5985 4C41.5708 4 42.3589 4.78809 42.3589 5.76045V13.2845C42.3589 14.2568 41.5708 15.0449 40.5985 15.0449C39.6261 15.0449 38.838 14.2568 38.838 13.2845ZM23.0095 17.3122V9.78818C23.0095 8.81582 23.7976 8.02773 24.7699 8.02773C25.7423 8.02773 26.5304 8.81582 26.5304 9.78818V17.3122C26.5304 18.2846 25.7423 19.0727 24.7699 19.0727C23.7976 19.0727 23.0095 18.2846 23.0095 17.3122ZM69.1594 65.3787C68.4718 64.6914 68.4715 63.5767 69.1591 62.8888L91.2908 40.7485C91.9782 40.0609 93.0929 40.0606 93.7808 40.7482C94.4687 41.4358 94.4687 42.5503 93.7811 43.2382L71.6493 65.3784C71.3057 65.7224 70.8548 65.8943 70.4042 65.8943C69.9536 65.8943 69.5033 65.7224 69.1594 65.3787ZM74.1079 51.17C77.1211 51.17 79.5724 48.7188 79.5724 45.7056C79.5724 42.6924 77.1211 40.2329 74.1079 40.2329C71.0947 40.2329 68.6438 42.688 68.6438 45.7056C68.6438 48.7231 71.095 51.17 74.1079 51.17ZM74.1079 43.7541C75.1796 43.7541 76.0512 44.6295 76.0512 45.7059C76.0512 46.7822 75.1793 47.6491 74.1079 47.6491C73.0365 47.6491 72.1647 46.7772 72.1647 45.7059C72.1647 44.6345 73.0365 43.7541 74.1079 43.7541ZM88.832 54.9572C85.8144 54.9572 83.3593 57.4085 83.3593 60.4217C83.3593 63.4349 85.8144 65.8943 88.832 65.8943C91.8495 65.8943 94.2964 63.4393 94.2964 60.4217C94.2964 57.4041 91.8451 54.9572 88.832 54.9572ZM88.832 62.3731C87.7559 62.3731 86.8802 61.4978 86.8802 60.4214C86.8802 59.345 87.7556 58.4781 88.832 58.4781C89.9083 58.4781 90.7752 59.35 90.7752 60.4214C90.7752 61.4928 89.9033 62.3731 88.832 62.3731ZM63.8851 27.4188V19.8947C63.8851 18.9224 64.6732 18.1343 65.6455 18.1343C66.6179 18.1343 67.406 18.9224 67.406 19.8947V27.4188C67.406 28.3911 66.6179 29.1792 65.6455 29.1792C64.6732 29.1792 63.8851 28.3911 63.8851 27.4188ZM79.7054 23.391V15.867C79.7054 14.8946 80.4935 14.1065 81.4659 14.1065C82.4382 14.1065 83.2263 14.8946 83.2263 15.867V23.391C83.2263 24.3634 82.4382 25.1515 81.4659 25.1515C80.4935 25.1515 79.7054 24.3634 79.7054 23.391ZM95.5339 27.4188V19.8947C95.5339 18.9224 96.322 18.1343 97.2944 18.1343C98.2667 18.1343 99.0548 18.9224 99.0548 19.8947V27.4188C99.0548 28.3911 98.2667 29.1792 97.2944 29.1792C96.322 29.1792 95.5339 28.3911 95.5339 27.4188Z"/>
</mask>
<path d="M147.325 85.8604C144.621 82.5341 139.376 84.3229 135.667 85.958C132.271 87.453 129.358 88.8525 126.541 90.2061C117.584 94.5095 110.945 97.6993 99.2699 98.5648C99.6949 97.3088 99.8414 96.0537 99.6865 94.8965C99.2948 91.9729 96.8326 88.9062 91.1133 89.048C84.6797 89.2094 78.7427 87.6224 72.4559 85.9434C65.8222 84.1715 58.9612 82.3366 51.1828 82.5455C41.2538 82.8036 33.6381 84.8418 27.2183 88.9592C24.3182 90.8131 22.4546 92.9895 20.4815 95.2937C19.3477 96.6177 18.1787 97.9771 16.7672 99.3098C14.2922 97.7301 10.9609 98.0166 8.80081 100.176L2.87141 106.106C0.376196 108.601 0.376196 112.661 2.87141 115.156L32.1317 144.416C33.3809 145.66 35.0195 146.282 36.6572 146.282C38.2948 146.282 39.9343 145.659 41.1794 144.414L47.1059 138.487C48.3158 137.283 48.9823 135.675 48.9821 133.959C48.9821 132.805 48.6741 131.703 48.109 130.737C50.7589 128.242 54.5625 126.008 62.5612 126.629C65.1112 126.827 67.5569 127.081 69.9223 127.328C80.441 128.423 89.5257 129.37 100.447 124.681C107.026 121.857 118.308 116.315 128.449 109.992C140.514 102.468 147.245 96.1709 148.454 91.2751C148.952 89.2589 148.563 87.3871 147.325 85.8604ZM44.6186 135.994L38.6892 141.924C37.5695 143.043 35.7422 143.042 34.6184 141.924L5.36106 112.667C4.2387 111.544 4.2387 109.718 5.36106 108.596L11.2905 102.666C12.4128 101.544 14.2389 101.544 15.3615 102.666L44.6218 131.927C45.1629 132.465 45.4612 133.187 45.4612 133.959C45.4612 134.731 45.1626 135.452 44.6186 135.994ZM145.036 90.4305C144.483 92.6679 141.351 97.7963 126.586 107.004C116.613 113.222 105.524 118.67 99.0577 121.446C88.9787 125.772 80.3168 124.87 70.287 123.825C67.8988 123.577 65.429 123.319 62.8327 123.118C53.8538 122.423 49.1734 124.943 45.7764 128.102L19.3705 101.696C20.8216 100.306 22.0049 98.9274 23.1554 97.5839C25.0324 95.3922 26.6531 93.4993 29.1164 91.9246C34.974 88.1679 42.0147 86.3061 51.2745 86.0655C58.5478 85.8748 65.1551 87.6382 71.5465 89.3453C77.7973 91.0149 84.2628 92.7432 91.2015 92.568C92.9212 92.5243 95.8559 92.8287 96.1957 95.3644C96.3451 96.4782 95.9534 97.9149 95.0051 99.3027C94.9615 99.3572 94.9213 99.4146 94.8841 99.4744C93.6088 101.247 91.4162 102.914 88.2616 103.689C82.6641 105.065 72.6085 103.63 65.1261 101.599C64.1868 101.343 63.2203 101.898 62.9657 102.837C62.7109 103.775 63.2652 104.742 64.2035 104.997C69.5127 106.439 76.6963 107.753 82.7763 107.752C85.1019 107.752 87.2666 107.56 89.1018 107.109C92.6435 106.239 95.3763 104.394 97.1871 102.215C110.997 101.576 118.173 98.1317 128.065 93.3795C130.856 92.0386 133.743 90.6517 137.085 89.1801C142.466 86.8085 144.098 87.4741 144.591 88.0797C145.134 88.75 145.272 89.4754 145.036 90.4305ZM113.887 47.8316C113.887 46.8593 114.675 46.0712 115.647 46.0712C116.619 46.0712 117.408 46.8593 117.408 47.8316C117.408 50.0526 119.621 51.8594 122.341 51.8594C125.06 51.8594 127.265 50.0526 127.265 47.8316C127.265 45.1876 125.869 44.6304 122.176 43.8162C119.046 43.1263 114.759 42.1812 114.759 37.019C114.759 33.816 117.246 31.1236 120.58 30.4105V28.4069C120.58 27.4346 121.368 26.6465 122.341 26.6465C123.313 26.6465 124.101 27.4346 124.101 28.4069V30.4108C127.431 31.1245 129.915 33.8166 129.915 37.0187C129.915 37.9911 129.127 38.7792 128.154 38.7792C127.182 38.7792 126.394 37.9911 126.394 37.0187C126.394 35.2144 124.576 33.7466 122.341 33.7466C120.107 33.7466 118.28 35.2144 118.28 37.0187C118.28 39.061 119.272 39.5699 122.934 40.3773C126.061 41.0667 130.787 42.1085 130.787 47.8313C130.787 51.4545 127.917 54.4896 124.102 55.2153V57.199C124.102 58.1714 123.314 58.9595 122.341 58.9595C121.369 58.9595 120.581 58.1714 120.581 57.199V55.2156C116.761 54.4905 113.887 51.4554 113.887 47.8316ZM120.58 13.2845V5.76045C120.58 4.78809 121.368 4 122.341 4C123.313 4 124.101 4.78809 124.101 5.76045V13.2845C124.101 14.2568 123.313 15.0449 122.341 15.0449C121.368 15.0449 120.58 14.2568 120.58 13.2845ZM104.752 17.3122V9.78818C104.752 8.81582 105.54 8.02773 106.512 8.02773C107.484 8.02773 108.272 8.81582 108.272 9.78818V17.3122C108.272 18.2846 107.484 19.0727 106.512 19.0727C105.54 19.0727 104.752 18.2846 104.752 17.3122ZM136.4 17.3122V9.78818C136.4 8.81582 137.188 8.02773 138.161 8.02773C139.133 8.02773 139.921 8.81582 139.921 9.78818V17.3122C139.921 18.2846 139.133 19.0727 138.161 19.0727C137.188 19.0727 136.4 18.2846 136.4 17.3122ZM40.5985 67.414C47.1996 67.414 53.3461 64.8549 57.927 60.2925C61.0231 70.353 70.4031 77.6869 81.4656 77.6869C92.5281 77.6869 101.912 70.3498 105.006 60.286C109.587 64.8525 115.736 67.4143 122.341 67.4143C135.909 67.4143 146.948 56.372 146.948 42.7993C146.948 29.2267 135.909 18.1929 122.341 18.1929C116.42 18.1929 110.697 20.3248 106.228 24.1961C102.71 27.2427 100.147 31.2068 98.8008 35.5964C94.3477 31.1767 88.2205 28.4409 81.4656 28.4409C74.7106 28.4409 68.5849 31.1761 64.1318 35.5949C62.7879 31.2065 60.2274 27.243 56.7109 24.1964C52.2425 20.3251 46.5202 18.1932 40.5982 18.1932C27.0255 18.1932 15.9832 29.2316 15.9832 42.7996C15.9832 56.3676 27.0255 67.414 40.5985 67.414ZM122.341 21.7135C133.968 21.7135 143.426 31.1726 143.426 42.799C143.426 54.4255 133.967 63.8928 122.341 63.8928C115.882 63.8928 109.931 61.0334 105.904 56.0236C106.021 55.0521 106.089 54.066 106.089 53.0635C106.089 47.8026 104.425 42.9259 101.603 38.9207C103.446 29.0646 112.239 21.7135 122.341 21.7135ZM81.4656 31.9612C93.1011 31.9612 102.568 41.4276 102.568 53.0632C102.568 64.6987 93.1011 74.1654 81.4656 74.1654C70.9348 74.1654 62.1818 66.4114 60.6141 56.3131C60.6112 56.2894 60.6071 56.2656 60.603 56.2419C60.4456 55.2048 60.3633 54.1437 60.3633 53.0632C60.3633 41.4276 69.8297 31.9612 81.4656 31.9612ZM40.5985 21.7135C50.7038 21.7135 59.4932 29.0644 61.3281 38.9198C58.5062 42.9253 56.8421 47.8023 56.8421 53.0635C56.8421 54.0689 56.9098 55.0583 57.0276 56.0327C53.0013 61.0369 47.0537 63.8931 40.5982 63.8931C28.967 63.8931 19.5044 54.4305 19.5044 42.7993C19.5044 31.1682 28.9673 21.7135 40.5985 21.7135ZM32.1528 47.8316C32.1528 46.8593 32.9408 46.0712 33.9132 46.0712C34.8856 46.0712 35.6737 46.8593 35.6737 47.8316C35.6737 50.0526 37.8829 51.8594 40.5985 51.8594C43.314 51.8594 45.5233 50.0526 45.5233 47.8316C45.5233 45.1876 44.1273 44.6304 40.4335 43.8162C37.3034 43.1263 33.0167 42.1812 33.0167 37.019C33.0167 33.816 35.5034 31.1236 38.8383 30.4105V28.4069C38.8383 27.4346 39.6264 26.6465 40.5988 26.6465C41.5711 26.6465 42.3592 27.4346 42.3592 28.4069V30.4105C45.6941 31.1236 48.1808 33.816 48.1808 37.019C48.1808 37.9914 47.3927 38.7795 46.4203 38.7795C45.448 38.7795 44.6599 37.9914 44.6599 37.019C44.6599 35.2146 42.8382 33.7469 40.5988 33.7469C38.3593 33.7469 36.5379 35.2146 36.5379 37.019C36.5379 39.0613 37.5296 39.5702 41.1917 40.3776C44.3189 41.067 49.0445 42.1088 49.0445 47.8316C49.0445 51.4548 46.1742 54.4899 42.3592 55.2156V57.1993C42.3592 58.1717 41.5711 58.9598 40.5988 58.9598C39.6264 58.9598 38.8383 58.1717 38.8383 57.1993V55.2156C35.0233 54.4899 32.1528 51.4548 32.1528 47.8316ZM54.6665 17.3122V9.78818C54.6665 8.81582 55.4546 8.02773 56.427 8.02773C57.3993 8.02773 58.1874 8.81582 58.1874 9.78818V17.3122C58.1874 18.2846 57.3993 19.0727 56.427 19.0727C55.4546 19.0727 54.6665 18.2846 54.6665 17.3122ZM38.838 13.2845V5.76045C38.838 4.78809 39.6261 4 40.5985 4C41.5708 4 42.3589 4.78809 42.3589 5.76045V13.2845C42.3589 14.2568 41.5708 15.0449 40.5985 15.0449C39.6261 15.0449 38.838 14.2568 38.838 13.2845ZM23.0095 17.3122V9.78818C23.0095 8.81582 23.7976 8.02773 24.7699 8.02773C25.7423 8.02773 26.5304 8.81582 26.5304 9.78818V17.3122C26.5304 18.2846 25.7423 19.0727 24.7699 19.0727C23.7976 19.0727 23.0095 18.2846 23.0095 17.3122ZM69.1594 65.3787C68.4718 64.6914 68.4715 63.5767 69.1591 62.8888L91.2908 40.7485C91.9782 40.0609 93.0929 40.0606 93.7808 40.7482C94.4687 41.4358 94.4687 42.5503 93.7811 43.2382L71.6493 65.3784C71.3057 65.7224 70.8548 65.8943 70.4042 65.8943C69.9536 65.8943 69.5033 65.7224 69.1594 65.3787ZM74.1079 51.17C77.1211 51.17 79.5724 48.7188 79.5724 45.7056C79.5724 42.6924 77.1211 40.2329 74.1079 40.2329C71.0947 40.2329 68.6438 42.688 68.6438 45.7056C68.6438 48.7231 71.095 51.17 74.1079 51.17ZM74.1079 43.7541C75.1796 43.7541 76.0512 44.6295 76.0512 45.7059C76.0512 46.7822 75.1793 47.6491 74.1079 47.6491C73.0365 47.6491 72.1647 46.7772 72.1647 45.7059C72.1647 44.6345 73.0365 43.7541 74.1079 43.7541ZM88.832 54.9572C85.8144 54.9572 83.3593 57.4085 83.3593 60.4217C83.3593 63.4349 85.8144 65.8943 88.832 65.8943C91.8495 65.8943 94.2964 63.4393 94.2964 60.4217C94.2964 57.4041 91.8451 54.9572 88.832 54.9572ZM88.832 62.3731C87.7559 62.3731 86.8802 61.4978 86.8802 60.4214C86.8802 59.345 87.7556 58.4781 88.832 58.4781C89.9083 58.4781 90.7752 59.35 90.7752 60.4214C90.7752 61.4928 89.9033 62.3731 88.832 62.3731ZM63.8851 27.4188V19.8947C63.8851 18.9224 64.6732 18.1343 65.6455 18.1343C66.6179 18.1343 67.406 18.9224 67.406 19.8947V27.4188C67.406 28.3911 66.6179 29.1792 65.6455 29.1792C64.6732 29.1792 63.8851 28.3911 63.8851 27.4188ZM79.7054 23.391V15.867C79.7054 14.8946 80.4935 14.1065 81.4659 14.1065C82.4382 14.1065 83.2263 14.8946 83.2263 15.867V23.391C83.2263 24.3634 82.4382 25.1515 81.4659 25.1515C80.4935 25.1515 79.7054 24.3634 79.7054 23.391ZM95.5339 27.4188V19.8947C95.5339 18.9224 96.322 18.1343 97.2944 18.1343C98.2667 18.1343 99.0548 18.9224 99.0548 19.8947V27.4188C99.0548 28.3911 98.2667 29.1792 97.2944 29.1792C96.322 29.1792 95.5339 28.3911 95.5339 27.4188Z" fill="black"/>
<path d="M147.325 85.8604C144.621 82.5341 139.376 84.3229 135.667 85.958C132.271 87.453 129.358 88.8525 126.541 90.2061C117.584 94.5095 110.945 97.6993 99.2699 98.5648C99.6949 97.3088 99.8414 96.0537 99.6865 94.8965C99.2948 91.9729 96.8326 88.9062 91.1133 89.048C84.6797 89.2094 78.7427 87.6224 72.4559 85.9434C65.8222 84.1715 58.9612 82.3366 51.1828 82.5455C41.2538 82.8036 33.6381 84.8418 27.2183 88.9592C24.3182 90.8131 22.4546 92.9895 20.4815 95.2937C19.3477 96.6177 18.1787 97.9771 16.7672 99.3098C14.2922 97.7301 10.9609 98.0166 8.80081 100.176L2.87141 106.106C0.376196 108.601 0.376196 112.661 2.87141 115.156L32.1317 144.416C33.3809 145.66 35.0195 146.282 36.6572 146.282C38.2948 146.282 39.9343 145.659 41.1794 144.414L47.1059 138.487C48.3158 137.283 48.9823 135.675 48.9821 133.959C48.9821 132.805 48.6741 131.703 48.109 130.737C50.7589 128.242 54.5625 126.008 62.5612 126.629C65.1112 126.827 67.5569 127.081 69.9223 127.328C80.441 128.423 89.5257 129.37 100.447 124.681C107.026 121.857 118.308 116.315 128.449 109.992C140.514 102.468 147.245 96.1709 148.454 91.2751C148.952 89.2589 148.563 87.3871 147.325 85.8604ZM44.6186 135.994L38.6892 141.924C37.5695 143.043 35.7422 143.042 34.6184 141.924L5.36106 112.667C4.2387 111.544 4.2387 109.718 5.36106 108.596L11.2905 102.666C12.4128 101.544 14.2389 101.544 15.3615 102.666L44.6218 131.927C45.1629 132.465 45.4612 133.187 45.4612 133.959C45.4612 134.731 45.1626 135.452 44.6186 135.994ZM145.036 90.4305C144.483 92.6679 141.351 97.7963 126.586 107.004C116.613 113.222 105.524 118.67 99.0577 121.446C88.9787 125.772 80.3168 124.87 70.287 123.825C67.8988 123.577 65.429 123.319 62.8327 123.118C53.8538 122.423 49.1734 124.943 45.7764 128.102L19.3705 101.696C20.8216 100.306 22.0049 98.9274 23.1554 97.5839C25.0324 95.3922 26.6531 93.4993 29.1164 91.9246C34.974 88.1679 42.0147 86.3061 51.2745 86.0655C58.5478 85.8748 65.1551 87.6382 71.5465 89.3453C77.7973 91.0149 84.2628 92.7432 91.2015 92.568C92.9212 92.5243 95.8559 92.8287 96.1957 95.3644C96.3451 96.4782 95.9534 97.9149 95.0051 99.3027C94.9615 99.3572 94.9213 99.4146 94.8841 99.4744C93.6088 101.247 91.4162 102.914 88.2616 103.689C82.6641 105.065 72.6085 103.63 65.1261 101.599C64.1868 101.343 63.2203 101.898 62.9657 102.837C62.7109 103.775 63.2652 104.742 64.2035 104.997C69.5127 106.439 76.6963 107.753 82.7763 107.752C85.1019 107.752 87.2666 107.56 89.1018 107.109C92.6435 106.239 95.3763 104.394 97.1871 102.215C110.997 101.576 118.173 98.1317 128.065 93.3795C130.856 92.0386 133.743 90.6517 137.085 89.1801C142.466 86.8085 144.098 87.4741 144.591 88.0797C145.134 88.75 145.272 89.4754 145.036 90.4305ZM113.887 47.8316C113.887 46.8593 114.675 46.0712 115.647 46.0712C116.619 46.0712 117.408 46.8593 117.408 47.8316C117.408 50.0526 119.621 51.8594 122.341 51.8594C125.06 51.8594 127.265 50.0526 127.265 47.8316C127.265 45.1876 125.869 44.6304 122.176 43.8162C119.046 43.1263 114.759 42.1812 114.759 37.019C114.759 33.816 117.246 31.1236 120.58 30.4105V28.4069C120.58 27.4346 121.368 26.6465 122.341 26.6465C123.313 26.6465 124.101 27.4346 124.101 28.4069V30.4108C127.431 31.1245 129.915 33.8166 129.915 37.0187C129.915 37.9911 129.127 38.7792 128.154 38.7792C127.182 38.7792 126.394 37.9911 126.394 37.0187C126.394 35.2144 124.576 33.7466 122.341 33.7466C120.107 33.7466 118.28 35.2144 118.28 37.0187C118.28 39.061 119.272 39.5699 122.934 40.3773C126.061 41.0667 130.787 42.1085 130.787 47.8313C130.787 51.4545 127.917 54.4896 124.102 55.2153V57.199C124.102 58.1714 123.314 58.9595 122.341 58.9595C121.369 58.9595 120.581 58.1714 120.581 57.199V55.2156C116.761 54.4905 113.887 51.4554 113.887 47.8316ZM120.58 13.2845V5.76045C120.58 4.78809 121.368 4 122.341 4C123.313 4 124.101 4.78809 124.101 5.76045V13.2845C124.101 14.2568 123.313 15.0449 122.341 15.0449C121.368 15.0449 120.58 14.2568 120.58 13.2845ZM104.752 17.3122V9.78818C104.752 8.81582 105.54 8.02773 106.512 8.02773C107.484 8.02773 108.272 8.81582 108.272 9.78818V17.3122C108.272 18.2846 107.484 19.0727 106.512 19.0727C105.54 19.0727 104.752 18.2846 104.752 17.3122ZM136.4 17.3122V9.78818C136.4 8.81582 137.188 8.02773 138.161 8.02773C139.133 8.02773 139.921 8.81582 139.921 9.78818V17.3122C139.921 18.2846 139.133 19.0727 138.161 19.0727C137.188 19.0727 136.4 18.2846 136.4 17.3122ZM40.5985 67.414C47.1996 67.414 53.3461 64.8549 57.927 60.2925C61.0231 70.353 70.4031 77.6869 81.4656 77.6869C92.5281 77.6869 101.912 70.3498 105.006 60.286C109.587 64.8525 115.736 67.4143 122.341 67.4143C135.909 67.4143 146.948 56.372 146.948 42.7993C146.948 29.2267 135.909 18.1929 122.341 18.1929C116.42 18.1929 110.697 20.3248 106.228 24.1961C102.71 27.2427 100.147 31.2068 98.8008 35.5964C94.3477 31.1767 88.2205 28.4409 81.4656 28.4409C74.7106 28.4409 68.5849 31.1761 64.1318 35.5949C62.7879 31.2065 60.2274 27.243 56.7109 24.1964C52.2425 20.3251 46.5202 18.1932 40.5982 18.1932C27.0255 18.1932 15.9832 29.2316 15.9832 42.7996C15.9832 56.3676 27.0255 67.414 40.5985 67.414ZM122.341 21.7135C133.968 21.7135 143.426 31.1726 143.426 42.799C143.426 54.4255 133.967 63.8928 122.341 63.8928C115.882 63.8928 109.931 61.0334 105.904 56.0236C106.021 55.0521 106.089 54.066 106.089 53.0635C106.089 47.8026 104.425 42.9259 101.603 38.9207C103.446 29.0646 112.239 21.7135 122.341 21.7135ZM81.4656 31.9612C93.1011 31.9612 102.568 41.4276 102.568 53.0632C102.568 64.6987 93.1011 74.1654 81.4656 74.1654C70.9348 74.1654 62.1818 66.4114 60.6141 56.3131C60.6112 56.2894 60.6071 56.2656 60.603 56.2419C60.4456 55.2048 60.3633 54.1437 60.3633 53.0632C60.3633 41.4276 69.8297 31.9612 81.4656 31.9612ZM40.5985 21.7135C50.7038 21.7135 59.4932 29.0644 61.3281 38.9198C58.5062 42.9253 56.8421 47.8023 56.8421 53.0635C56.8421 54.0689 56.9098 55.0583 57.0276 56.0327C53.0013 61.0369 47.0537 63.8931 40.5982 63.8931C28.967 63.8931 19.5044 54.4305 19.5044 42.7993C19.5044 31.1682 28.9673 21.7135 40.5985 21.7135ZM32.1528 47.8316C32.1528 46.8593 32.9408 46.0712 33.9132 46.0712C34.8856 46.0712 35.6737 46.8593 35.6737 47.8316C35.6737 50.0526 37.8829 51.8594 40.5985 51.8594C43.314 51.8594 45.5233 50.0526 45.5233 47.8316C45.5233 45.1876 44.1273 44.6304 40.4335 43.8162C37.3034 43.1263 33.0167 42.1812 33.0167 37.019C33.0167 33.816 35.5034 31.1236 38.8383 30.4105V28.4069C38.8383 27.4346 39.6264 26.6465 40.5988 26.6465C41.5711 26.6465 42.3592 27.4346 42.3592 28.4069V30.4105C45.6941 31.1236 48.1808 33.816 48.1808 37.019C48.1808 37.9914 47.3927 38.7795 46.4203 38.7795C45.448 38.7795 44.6599 37.9914 44.6599 37.019C44.6599 35.2146 42.8382 33.7469 40.5988 33.7469C38.3593 33.7469 36.5379 35.2146 36.5379 37.019C36.5379 39.0613 37.5296 39.5702 41.1917 40.3776C44.3189 41.067 49.0445 42.1088 49.0445 47.8316C49.0445 51.4548 46.1742 54.4899 42.3592 55.2156V57.1993C42.3592 58.1717 41.5711 58.9598 40.5988 58.9598C39.6264 58.9598 38.8383 58.1717 38.8383 57.1993V55.2156C35.0233 54.4899 32.1528 51.4548 32.1528 47.8316ZM54.6665 17.3122V9.78818C54.6665 8.81582 55.4546 8.02773 56.427 8.02773C57.3993 8.02773 58.1874 8.81582 58.1874 9.78818V17.3122C58.1874 18.2846 57.3993 19.0727 56.427 19.0727C55.4546 19.0727 54.6665 18.2846 54.6665 17.3122ZM38.838 13.2845V5.76045C38.838 4.78809 39.6261 4 40.5985 4C41.5708 4 42.3589 4.78809 42.3589 5.76045V13.2845C42.3589 14.2568 41.5708 15.0449 40.5985 15.0449C39.6261 15.0449 38.838 14.2568 38.838 13.2845ZM23.0095 17.3122V9.78818C23.0095 8.81582 23.7976 8.02773 24.7699 8.02773C25.7423 8.02773 26.5304 8.81582 26.5304 9.78818V17.3122C26.5304 18.2846 25.7423 19.0727 24.7699 19.0727C23.7976 19.0727 23.0095 18.2846 23.0095 17.3122ZM69.1594 65.3787C68.4718 64.6914 68.4715 63.5767 69.1591 62.8888L91.2908 40.7485C91.9782 40.0609 93.0929 40.0606 93.7808 40.7482C94.4687 41.4358 94.4687 42.5503 93.7811 43.2382L71.6493 65.3784C71.3057 65.7224 70.8548 65.8943 70.4042 65.8943C69.9536 65.8943 69.5033 65.7224 69.1594 65.3787ZM74.1079 51.17C77.1211 51.17 79.5724 48.7188 79.5724 45.7056C79.5724 42.6924 77.1211 40.2329 74.1079 40.2329C71.0947 40.2329 68.6438 42.688 68.6438 45.7056C68.6438 48.7231 71.095 51.17 74.1079 51.17ZM74.1079 43.7541C75.1796 43.7541 76.0512 44.6295 76.0512 45.7059C76.0512 46.7822 75.1793 47.6491 74.1079 47.6491C73.0365 47.6491 72.1647 46.7772 72.1647 45.7059C72.1647 44.6345 73.0365 43.7541 74.1079 43.7541ZM88.832 54.9572C85.8144 54.9572 83.3593 57.4085 83.3593 60.4217C83.3593 63.4349 85.8144 65.8943 88.832 65.8943C91.8495 65.8943 94.2964 63.4393 94.2964 60.4217C94.2964 57.4041 91.8451 54.9572 88.832 54.9572ZM88.832 62.3731C87.7559 62.3731 86.8802 61.4978 86.8802 60.4214C86.8802 59.345 87.7556 58.4781 88.832 58.4781C89.9083 58.4781 90.7752 59.35 90.7752 60.4214C90.7752 61.4928 89.9033 62.3731 88.832 62.3731ZM63.8851 27.4188V19.8947C63.8851 18.9224 64.6732 18.1343 65.6455 18.1343C66.6179 18.1343 67.406 18.9224 67.406 19.8947V27.4188C67.406 28.3911 66.6179 29.1792 65.6455 29.1792C64.6732 29.1792 63.8851 28.3911 63.8851 27.4188ZM79.7054 23.391V15.867C79.7054 14.8946 80.4935 14.1065 81.4659 14.1065C82.4382 14.1065 83.2263 14.8946 83.2263 15.867V23.391C83.2263 24.3634 82.4382 25.1515 81.4659 25.1515C80.4935 25.1515 79.7054 24.3634 79.7054 23.391ZM95.5339 27.4188V19.8947C95.5339 18.9224 96.322 18.1343 97.2944 18.1343C98.2667 18.1343 99.0548 18.9224 99.0548 19.8947V27.4188C99.0548 28.3911 98.2667 29.1792 97.2944 29.1792C96.322 29.1792 95.5339 28.3911 95.5339 27.4188Z" stroke="black" stroke-width="2" mask="url(#path-1-outside-1_30760_586)"/>
<mask id="path-2-outside-2_30760_586" maskUnits="userSpaceOnUse" x="14.9833" y="3" width="133" height="76" fill="black">
<rect fill="white" x="14.9833" y="3" width="133" height="76"/>
<path d="M113.887 47.8316C113.887 46.8593 114.675 46.0712 115.647 46.0712C116.62 46.0712 117.408 46.8593 117.408 47.8316C117.408 50.0526 119.621 51.8594 122.341 51.8594C125.061 51.8594 127.265 50.0526 127.265 47.8316C127.265 45.1876 125.869 44.6304 122.176 43.8162C119.046 43.1263 114.759 42.1812 114.759 37.019C114.759 33.816 117.246 31.1236 120.58 30.4105V28.4069C120.58 27.4346 121.369 26.6465 122.341 26.6465C123.313 26.6465 124.101 27.4346 124.101 28.4069V30.4108C127.432 31.1245 129.915 33.8166 129.915 37.0187C129.915 37.9911 129.127 38.7792 128.154 38.7792C127.182 38.7792 126.394 37.9911 126.394 37.0187C126.394 35.2144 124.576 33.7466 122.341 33.7466C120.107 33.7466 118.28 35.2144 118.28 37.0187C118.28 39.061 119.272 39.5699 122.934 40.3773C126.061 41.0667 130.787 42.1085 130.787 47.8313C130.787 51.4545 127.917 54.4896 124.102 55.2153V57.199C124.102 58.1714 123.314 58.9595 122.341 58.9595C121.369 58.9595 120.581 58.1714 120.581 57.199V55.2156C116.761 54.4905 113.887 51.4554 113.887 47.8316ZM120.58 13.2845V5.76045C120.58 4.78809 121.368 4 122.341 4C123.313 4 124.101 4.78809 124.101 5.76045V13.2845C124.101 14.2568 123.313 15.0449 122.341 15.0449C121.368 15.0449 120.58 14.2568 120.58 13.2845ZM104.752 17.3122V9.78818C104.752 8.81582 105.54 8.02773 106.512 8.02773C107.484 8.02773 108.273 8.81582 108.273 9.78818V17.3122C108.273 18.2846 107.484 19.0727 106.512 19.0727C105.54 19.0727 104.752 18.2846 104.752 17.3122ZM136.4 17.3122V9.78818C136.4 8.81582 137.189 8.02773 138.161 8.02773C139.133 8.02773 139.921 8.81582 139.921 9.78818V17.3122C139.921 18.2846 139.133 19.0727 138.161 19.0727C137.189 19.0727 136.4 18.2846 136.4 17.3122ZM40.5985 67.414C47.1997 67.414 53.3462 64.8549 57.927 60.2925C61.0231 70.353 70.4031 77.6869 81.4656 77.6869C92.5281 77.6869 101.912 70.3498 105.006 60.286C109.587 64.8525 115.737 67.4143 122.341 67.4143C135.909 67.4143 146.948 56.372 146.948 42.7993C146.948 29.2267 135.909 18.1929 122.341 18.1929C116.42 18.1929 110.697 20.3248 106.228 24.1961C102.71 27.2427 100.147 31.2068 98.8008 35.5964C94.3477 31.1767 88.2206 28.4409 81.4656 28.4409C74.7106 28.4409 68.5849 31.1761 64.1318 35.5949C62.788 31.2065 60.2274 27.243 56.7109 24.1964C52.2425 20.3251 46.5203 18.1932 40.5982 18.1932C27.0256 18.1932 15.9833 29.2316 15.9833 42.7996C15.9833 56.3676 27.0256 67.414 40.5985 67.414ZM122.341 21.7135C133.968 21.7135 143.426 31.1726 143.426 42.799C143.426 54.4255 133.967 63.8928 122.341 63.8928C115.882 63.8928 109.931 61.0334 105.904 56.0236C106.021 55.0521 106.089 54.066 106.089 53.0635C106.089 47.8026 104.425 42.9259 101.603 38.9207C103.446 29.0646 112.239 21.7135 122.341 21.7135ZM81.4656 31.9612C93.1011 31.9612 102.568 41.4276 102.568 53.0632C102.568 64.6987 93.1011 74.1654 81.4656 74.1654C70.9348 74.1654 62.1818 66.4114 60.6141 56.3131C60.6112 56.2894 60.6071 56.2656 60.603 56.2419C60.4457 55.2048 60.3634 54.1437 60.3634 53.0632C60.3634 41.4276 69.8298 31.9612 81.4656 31.9612ZM40.5985 21.7135C50.7039 21.7135 59.4932 29.0644 61.3281 38.9198C58.5062 42.9253 56.8422 47.8023 56.8422 53.0635C56.8422 54.0689 56.9098 55.0583 57.0276 56.0327C53.0013 61.0369 47.0538 63.8931 40.5982 63.8931C28.9671 63.8931 19.5045 54.4305 19.5045 42.7993C19.5045 31.1682 28.9674 21.7135 40.5985 21.7135ZM32.1528 47.8316C32.1528 46.8593 32.9409 46.0712 33.9133 46.0712C34.8856 46.0712 35.6737 46.8593 35.6737 47.8316C35.6737 50.0526 37.883 51.8594 40.5985 51.8594C43.314 51.8594 45.5233 50.0526 45.5233 47.8316C45.5233 45.1876 44.1273 44.6304 40.4336 43.8162C37.3035 43.1263 33.0168 42.1812 33.0168 37.019C33.0168 33.816 35.5035 31.1236 38.8384 30.4105V28.4069C38.8384 27.4346 39.6264 26.6465 40.5988 26.6465C41.5712 26.6465 42.3593 27.4346 42.3593 28.4069V30.4105C45.6941 31.1236 48.1808 33.816 48.1808 37.019C48.1808 37.9914 47.3927 38.7795 46.4204 38.7795C45.448 38.7795 44.6599 37.9914 44.6599 37.019C44.6599 35.2146 42.8383 33.7469 40.5988 33.7469C38.3593 33.7469 36.538 35.2146 36.538 37.019C36.538 39.0613 37.5297 39.5702 41.1918 40.3776C44.3189 41.067 49.0445 42.1088 49.0445 47.8316C49.0445 51.4548 46.1743 54.4899 42.3593 55.2156V57.1993C42.3593 58.1717 41.5712 58.9598 40.5988 58.9598C39.6264 58.9598 38.8384 58.1717 38.8384 57.1993V55.2156C35.0233 54.4899 32.1528 51.4548 32.1528 47.8316ZM54.6666 17.3122V9.78818C54.6666 8.81582 55.4547 8.02773 56.427 8.02773C57.3994 8.02773 58.1875 8.81582 58.1875 9.78818V17.3122C58.1875 18.2846 57.3994 19.0727 56.427 19.0727C55.4547 19.0727 54.6666 18.2846 54.6666 17.3122ZM38.8381 13.2845V5.76045C38.8381 4.78809 39.6261 4 40.5985 4C41.5709 4 42.359 4.78809 42.359 5.76045V13.2845C42.359 14.2568 41.5709 15.0449 40.5985 15.0449C39.6261 15.0449 38.8381 14.2568 38.8381 13.2845ZM23.0095 17.3122V9.78818C23.0095 8.81582 23.7976 8.02773 24.77 8.02773C25.7424 8.02773 26.5304 8.81582 26.5304 9.78818V17.3122C26.5304 18.2846 25.7424 19.0727 24.77 19.0727C23.7976 19.0727 23.0095 18.2846 23.0095 17.3122ZM69.1594 65.3787C68.4718 64.6914 68.4716 63.5767 69.1591 62.8888L91.2909 40.7485C91.9782 40.0609 93.0929 40.0606 93.7808 40.7482C94.4687 41.4358 94.4687 42.5503 93.7811 43.2382L71.6494 65.3784C71.3057 65.7224 70.8549 65.8943 70.4043 65.8943C69.9537 65.8943 69.5034 65.7224 69.1594 65.3787ZM74.108 51.17C77.1212 51.17 79.5724 48.7188 79.5724 45.7056C79.5724 42.6924 77.1212 40.2329 74.108 40.2329C71.0948 40.2329 68.6438 42.688 68.6438 45.7056C68.6438 48.7231 71.0951 51.17 74.108 51.17ZM74.108 43.7541C75.1797 43.7541 76.0512 44.6295 76.0512 45.7059C76.0512 46.7822 75.1794 47.6491 74.108 47.6491C73.0366 47.6491 72.1647 46.7772 72.1647 45.7059C72.1647 44.6345 73.0366 43.7541 74.108 43.7541ZM88.832 54.9572C85.8144 54.9572 83.3593 57.4085 83.3593 60.4217C83.3593 63.4349 85.8144 65.8943 88.832 65.8943C91.8496 65.8943 94.2965 63.4393 94.2965 60.4217C94.2965 57.4041 91.8452 54.9572 88.832 54.9572ZM88.832 62.3731C87.7559 62.3731 86.8802 61.4978 86.8802 60.4214C86.8802 59.345 87.7556 58.4781 88.832 58.4781C89.9084 58.4781 90.7753 59.35 90.7753 60.4214C90.7753 61.4928 89.9034 62.3731 88.832 62.3731ZM63.8851 27.4188V19.8947C63.8851 18.9224 64.6732 18.1343 65.6456 18.1343C66.6179 18.1343 67.406 18.9224 67.406 19.8947V27.4188C67.406 28.3911 66.6179 29.1792 65.6456 29.1792C64.6732 29.1792 63.8851 28.3911 63.8851 27.4188ZM79.7054 23.391V15.867C79.7054 14.8946 80.4935 14.1065 81.4659 14.1065C82.4383 14.1065 83.2263 14.8946 83.2263 15.867V23.391C83.2263 24.3634 82.4383 25.1515 81.4659 25.1515C80.4935 25.1515 79.7054 24.3634 79.7054 23.391ZM95.534 27.4188V19.8947C95.534 18.9224 96.322 18.1343 97.2944 18.1343C98.2668 18.1343 99.0549 18.9224 99.0549 19.8947V27.4188C99.0549 28.3911 98.2668 29.1792 97.2944 29.1792C96.322 29.1792 95.534 28.3911 95.534 27.4188Z"/>
</mask>
<path d="M113.887 47.8316C113.887 46.8593 114.675 46.0712 115.647 46.0712C116.62 46.0712 117.408 46.8593 117.408 47.8316C117.408 50.0526 119.621 51.8594 122.341 51.8594C125.061 51.8594 127.265 50.0526 127.265 47.8316C127.265 45.1876 125.869 44.6304 122.176 43.8162C119.046 43.1263 114.759 42.1812 114.759 37.019C114.759 33.816 117.246 31.1236 120.58 30.4105V28.4069C120.58 27.4346 121.369 26.6465 122.341 26.6465C123.313 26.6465 124.101 27.4346 124.101 28.4069V30.4108C127.432 31.1245 129.915 33.8166 129.915 37.0187C129.915 37.9911 129.127 38.7792 128.154 38.7792C127.182 38.7792 126.394 37.9911 126.394 37.0187C126.394 35.2144 124.576 33.7466 122.341 33.7466C120.107 33.7466 118.28 35.2144 118.28 37.0187C118.28 39.061 119.272 39.5699 122.934 40.3773C126.061 41.0667 130.787 42.1085 130.787 47.8313C130.787 51.4545 127.917 54.4896 124.102 55.2153V57.199C124.102 58.1714 123.314 58.9595 122.341 58.9595C121.369 58.9595 120.581 58.1714 120.581 57.199V55.2156C116.761 54.4905 113.887 51.4554 113.887 47.8316ZM120.58 13.2845V5.76045C120.58 4.78809 121.368 4 122.341 4C123.313 4 124.101 4.78809 124.101 5.76045V13.2845C124.101 14.2568 123.313 15.0449 122.341 15.0449C121.368 15.0449 120.58 14.2568 120.58 13.2845ZM104.752 17.3122V9.78818C104.752 8.81582 105.54 8.02773 106.512 8.02773C107.484 8.02773 108.273 8.81582 108.273 9.78818V17.3122C108.273 18.2846 107.484 19.0727 106.512 19.0727C105.54 19.0727 104.752 18.2846 104.752 17.3122ZM136.4 17.3122V9.78818C136.4 8.81582 137.189 8.02773 138.161 8.02773C139.133 8.02773 139.921 8.81582 139.921 9.78818V17.3122C139.921 18.2846 139.133 19.0727 138.161 19.0727C137.189 19.0727 136.4 18.2846 136.4 17.3122ZM40.5985 67.414C47.1997 67.414 53.3462 64.8549 57.927 60.2925C61.0231 70.353 70.4031 77.6869 81.4656 77.6869C92.5281 77.6869 101.912 70.3498 105.006 60.286C109.587 64.8525 115.737 67.4143 122.341 67.4143C135.909 67.4143 146.948 56.372 146.948 42.7993C146.948 29.2267 135.909 18.1929 122.341 18.1929C116.42 18.1929 110.697 20.3248 106.228 24.1961C102.71 27.2427 100.147 31.2068 98.8008 35.5964C94.3477 31.1767 88.2206 28.4409 81.4656 28.4409C74.7106 28.4409 68.5849 31.1761 64.1318 35.5949C62.788 31.2065 60.2274 27.243 56.7109 24.1964C52.2425 20.3251 46.5203 18.1932 40.5982 18.1932C27.0256 18.1932 15.9833 29.2316 15.9833 42.7996C15.9833 56.3676 27.0256 67.414 40.5985 67.414ZM122.341 21.7135C133.968 21.7135 143.426 31.1726 143.426 42.799C143.426 54.4255 133.967 63.8928 122.341 63.8928C115.882 63.8928 109.931 61.0334 105.904 56.0236C106.021 55.0521 106.089 54.066 106.089 53.0635C106.089 47.8026 104.425 42.9259 101.603 38.9207C103.446 29.0646 112.239 21.7135 122.341 21.7135ZM81.4656 31.9612C93.1011 31.9612 102.568 41.4276 102.568 53.0632C102.568 64.6987 93.1011 74.1654 81.4656 74.1654C70.9348 74.1654 62.1818 66.4114 60.6141 56.3131C60.6112 56.2894 60.6071 56.2656 60.603 56.2419C60.4457 55.2048 60.3634 54.1437 60.3634 53.0632C60.3634 41.4276 69.8298 31.9612 81.4656 31.9612ZM40.5985 21.7135C50.7039 21.7135 59.4932 29.0644 61.3281 38.9198C58.5062 42.9253 56.8422 47.8023 56.8422 53.0635C56.8422 54.0689 56.9098 55.0583 57.0276 56.0327C53.0013 61.0369 47.0538 63.8931 40.5982 63.8931C28.9671 63.8931 19.5045 54.4305 19.5045 42.7993C19.5045 31.1682 28.9674 21.7135 40.5985 21.7135ZM32.1528 47.8316C32.1528 46.8593 32.9409 46.0712 33.9133 46.0712C34.8856 46.0712 35.6737 46.8593 35.6737 47.8316C35.6737 50.0526 37.883 51.8594 40.5985 51.8594C43.314 51.8594 45.5233 50.0526 45.5233 47.8316C45.5233 45.1876 44.1273 44.6304 40.4336 43.8162C37.3035 43.1263 33.0168 42.1812 33.0168 37.019C33.0168 33.816 35.5035 31.1236 38.8384 30.4105V28.4069C38.8384 27.4346 39.6264 26.6465 40.5988 26.6465C41.5712 26.6465 42.3593 27.4346 42.3593 28.4069V30.4105C45.6941 31.1236 48.1808 33.816 48.1808 37.019C48.1808 37.9914 47.3927 38.7795 46.4204 38.7795C45.448 38.7795 44.6599 37.9914 44.6599 37.019C44.6599 35.2146 42.8383 33.7469 40.5988 33.7469C38.3593 33.7469 36.538 35.2146 36.538 37.019C36.538 39.0613 37.5297 39.5702 41.1918 40.3776C44.3189 41.067 49.0445 42.1088 49.0445 47.8316C49.0445 51.4548 46.1743 54.4899 42.3593 55.2156V57.1993C42.3593 58.1717 41.5712 58.9598 40.5988 58.9598C39.6264 58.9598 38.8384 58.1717 38.8384 57.1993V55.2156C35.0233 54.4899 32.1528 51.4548 32.1528 47.8316ZM54.6666 17.3122V9.78818C54.6666 8.81582 55.4547 8.02773 56.427 8.02773C57.3994 8.02773 58.1875 8.81582 58.1875 9.78818V17.3122C58.1875 18.2846 57.3994 19.0727 56.427 19.0727C55.4547 19.0727 54.6666 18.2846 54.6666 17.3122ZM38.8381 13.2845V5.76045C38.8381 4.78809 39.6261 4 40.5985 4C41.5709 4 42.359 4.78809 42.359 5.76045V13.2845C42.359 14.2568 41.5709 15.0449 40.5985 15.0449C39.6261 15.0449 38.8381 14.2568 38.8381 13.2845ZM23.0095 17.3122V9.78818C23.0095 8.81582 23.7976 8.02773 24.77 8.02773C25.7424 8.02773 26.5304 8.81582 26.5304 9.78818V17.3122C26.5304 18.2846 25.7424 19.0727 24.77 19.0727C23.7976 19.0727 23.0095 18.2846 23.0095 17.3122ZM69.1594 65.3787C68.4718 64.6914 68.4716 63.5767 69.1591 62.8888L91.2909 40.7485C91.9782 40.0609 93.0929 40.0606 93.7808 40.7482C94.4687 41.4358 94.4687 42.5503 93.7811 43.2382L71.6494 65.3784C71.3057 65.7224 70.8549 65.8943 70.4043 65.8943C69.9537 65.8943 69.5034 65.7224 69.1594 65.3787ZM74.108 51.17C77.1212 51.17 79.5724 48.7188 79.5724 45.7056C79.5724 42.6924 77.1212 40.2329 74.108 40.2329C71.0948 40.2329 68.6438 42.688 68.6438 45.7056C68.6438 48.7231 71.0951 51.17 74.108 51.17ZM74.108 43.7541C75.1797 43.7541 76.0512 44.6295 76.0512 45.7059C76.0512 46.7822 75.1794 47.6491 74.108 47.6491C73.0366 47.6491 72.1647 46.7772 72.1647 45.7059C72.1647 44.6345 73.0366 43.7541 74.108 43.7541ZM88.832 54.9572C85.8144 54.9572 83.3593 57.4085 83.3593 60.4217C83.3593 63.4349 85.8144 65.8943 88.832 65.8943C91.8496 65.8943 94.2965 63.4393 94.2965 60.4217C94.2965 57.4041 91.8452 54.9572 88.832 54.9572ZM88.832 62.3731C87.7559 62.3731 86.8802 61.4978 86.8802 60.4214C86.8802 59.345 87.7556 58.4781 88.832 58.4781C89.9084 58.4781 90.7753 59.35 90.7753 60.4214C90.7753 61.4928 89.9034 62.3731 88.832 62.3731ZM63.8851 27.4188V19.8947C63.8851 18.9224 64.6732 18.1343 65.6456 18.1343C66.6179 18.1343 67.406 18.9224 67.406 19.8947V27.4188C67.406 28.3911 66.6179 29.1792 65.6456 29.1792C64.6732 29.1792 63.8851 28.3911 63.8851 27.4188ZM79.7054 23.391V15.867C79.7054 14.8946 80.4935 14.1065 81.4659 14.1065C82.4383 14.1065 83.2263 14.8946 83.2263 15.867V23.391C83.2263 24.3634 82.4383 25.1515 81.4659 25.1515C80.4935 25.1515 79.7054 24.3634 79.7054 23.391ZM95.534 27.4188V19.8947C95.534 18.9224 96.322 18.1343 97.2944 18.1343C98.2668 18.1343 99.0549 18.9224 99.0549 19.8947V27.4188C99.0549 28.3911 98.2668 29.1792 97.2944 29.1792C96.322 29.1792 95.534 28.3911 95.534 27.4188Z" fill="#CFA935"/>
<path d="M113.887 47.8316C113.887 46.8593 114.675 46.0712 115.647 46.0712C116.62 46.0712 117.408 46.8593 117.408 47.8316C117.408 50.0526 119.621 51.8594 122.341 51.8594C125.061 51.8594 127.265 50.0526 127.265 47.8316C127.265 45.1876 125.869 44.6304 122.176 43.8162C119.046 43.1263 114.759 42.1812 114.759 37.019C114.759 33.816 117.246 31.1236 120.58 30.4105V28.4069C120.58 27.4346 121.369 26.6465 122.341 26.6465C123.313 26.6465 124.101 27.4346 124.101 28.4069V30.4108C127.432 31.1245 129.915 33.8166 129.915 37.0187C129.915 37.9911 129.127 38.7792 128.154 38.7792C127.182 38.7792 126.394 37.9911 126.394 37.0187C126.394 35.2144 124.576 33.7466 122.341 33.7466C120.107 33.7466 118.28 35.2144 118.28 37.0187C118.28 39.061 119.272 39.5699 122.934 40.3773C126.061 41.0667 130.787 42.1085 130.787 47.8313C130.787 51.4545 127.917 54.4896 124.102 55.2153V57.199C124.102 58.1714 123.314 58.9595 122.341 58.9595C121.369 58.9595 120.581 58.1714 120.581 57.199V55.2156C116.761 54.4905 113.887 51.4554 113.887 47.8316ZM120.58 13.2845V5.76045C120.58 4.78809 121.368 4 122.341 4C123.313 4 124.101 4.78809 124.101 5.76045V13.2845C124.101 14.2568 123.313 15.0449 122.341 15.0449C121.368 15.0449 120.58 14.2568 120.58 13.2845ZM104.752 17.3122V9.78818C104.752 8.81582 105.54 8.02773 106.512 8.02773C107.484 8.02773 108.273 8.81582 108.273 9.78818V17.3122C108.273 18.2846 107.484 19.0727 106.512 19.0727C105.54 19.0727 104.752 18.2846 104.752 17.3122ZM136.4 17.3122V9.78818C136.4 8.81582 137.189 8.02773 138.161 8.02773C139.133 8.02773 139.921 8.81582 139.921 9.78818V17.3122C139.921 18.2846 139.133 19.0727 138.161 19.0727C137.189 19.0727 136.4 18.2846 136.4 17.3122ZM40.5985 67.414C47.1997 67.414 53.3462 64.8549 57.927 60.2925C61.0231 70.353 70.4031 77.6869 81.4656 77.6869C92.5281 77.6869 101.912 70.3498 105.006 60.286C109.587 64.8525 115.737 67.4143 122.341 67.4143C135.909 67.4143 146.948 56.372 146.948 42.7993C146.948 29.2267 135.909 18.1929 122.341 18.1929C116.42 18.1929 110.697 20.3248 106.228 24.1961C102.71 27.2427 100.147 31.2068 98.8008 35.5964C94.3477 31.1767 88.2206 28.4409 81.4656 28.4409C74.7106 28.4409 68.5849 31.1761 64.1318 35.5949C62.788 31.2065 60.2274 27.243 56.7109 24.1964C52.2425 20.3251 46.5203 18.1932 40.5982 18.1932C27.0256 18.1932 15.9833 29.2316 15.9833 42.7996C15.9833 56.3676 27.0256 67.414 40.5985 67.414ZM122.341 21.7135C133.968 21.7135 143.426 31.1726 143.426 42.799C143.426 54.4255 133.967 63.8928 122.341 63.8928C115.882 63.8928 109.931 61.0334 105.904 56.0236C106.021 55.0521 106.089 54.066 106.089 53.0635C106.089 47.8026 104.425 42.9259 101.603 38.9207C103.446 29.0646 112.239 21.7135 122.341 21.7135ZM81.4656 31.9612C93.1011 31.9612 102.568 41.4276 102.568 53.0632C102.568 64.6987 93.1011 74.1654 81.4656 74.1654C70.9348 74.1654 62.1818 66.4114 60.6141 56.3131C60.6112 56.2894 60.6071 56.2656 60.603 56.2419C60.4457 55.2048 60.3634 54.1437 60.3634 53.0632C60.3634 41.4276 69.8298 31.9612 81.4656 31.9612ZM40.5985 21.7135C50.7039 21.7135 59.4932 29.0644 61.3281 38.9198C58.5062 42.9253 56.8422 47.8023 56.8422 53.0635C56.8422 54.0689 56.9098 55.0583 57.0276 56.0327C53.0013 61.0369 47.0538 63.8931 40.5982 63.8931C28.9671 63.8931 19.5045 54.4305 19.5045 42.7993C19.5045 31.1682 28.9674 21.7135 40.5985 21.7135ZM32.1528 47.8316C32.1528 46.8593 32.9409 46.0712 33.9133 46.0712C34.8856 46.0712 35.6737 46.8593 35.6737 47.8316C35.6737 50.0526 37.883 51.8594 40.5985 51.8594C43.314 51.8594 45.5233 50.0526 45.5233 47.8316C45.5233 45.1876 44.1273 44.6304 40.4336 43.8162C37.3035 43.1263 33.0168 42.1812 33.0168 37.019C33.0168 33.816 35.5035 31.1236 38.8384 30.4105V28.4069C38.8384 27.4346 39.6264 26.6465 40.5988 26.6465C41.5712 26.6465 42.3593 27.4346 42.3593 28.4069V30.4105C45.6941 31.1236 48.1808 33.816 48.1808 37.019C48.1808 37.9914 47.3927 38.7795 46.4204 38.7795C45.448 38.7795 44.6599 37.9914 44.6599 37.019C44.6599 35.2146 42.8383 33.7469 40.5988 33.7469C38.3593 33.7469 36.538 35.2146 36.538 37.019C36.538 39.0613 37.5297 39.5702 41.1918 40.3776C44.3189 41.067 49.0445 42.1088 49.0445 47.8316C49.0445 51.4548 46.1743 54.4899 42.3593 55.2156V57.1993C42.3593 58.1717 41.5712 58.9598 40.5988 58.9598C39.6264 58.9598 38.8384 58.1717 38.8384 57.1993V55.2156C35.0233 54.4899 32.1528 51.4548 32.1528 47.8316ZM54.6666 17.3122V9.78818C54.6666 8.81582 55.4547 8.02773 56.427 8.02773C57.3994 8.02773 58.1875 8.81582 58.1875 9.78818V17.3122C58.1875 18.2846 57.3994 19.0727 56.427 19.0727C55.4547 19.0727 54.6666 18.2846 54.6666 17.3122ZM38.8381 13.2845V5.76045C38.8381 4.78809 39.6261 4 40.5985 4C41.5709 4 42.359 4.78809 42.359 5.76045V13.2845C42.359 14.2568 41.5709 15.0449 40.5985 15.0449C39.6261 15.0449 38.8381 14.2568 38.8381 13.2845ZM23.0095 17.3122V9.78818C23.0095 8.81582 23.7976 8.02773 24.77 8.02773C25.7424 8.02773 26.5304 8.81582 26.5304 9.78818V17.3122C26.5304 18.2846 25.7424 19.0727 24.77 19.0727C23.7976 19.0727 23.0095 18.2846 23.0095 17.3122ZM69.1594 65.3787C68.4718 64.6914 68.4716 63.5767 69.1591 62.8888L91.2909 40.7485C91.9782 40.0609 93.0929 40.0606 93.7808 40.7482C94.4687 41.4358 94.4687 42.5503 93.7811 43.2382L71.6494 65.3784C71.3057 65.7224 70.8549 65.8943 70.4043 65.8943C69.9537 65.8943 69.5034 65.7224 69.1594 65.3787ZM74.108 51.17C77.1212 51.17 79.5724 48.7188 79.5724 45.7056C79.5724 42.6924 77.1212 40.2329 74.108 40.2329C71.0948 40.2329 68.6438 42.688 68.6438 45.7056C68.6438 48.7231 71.0951 51.17 74.108 51.17ZM74.108 43.7541C75.1797 43.7541 76.0512 44.6295 76.0512 45.7059C76.0512 46.7822 75.1794 47.6491 74.108 47.6491C73.0366 47.6491 72.1647 46.7772 72.1647 45.7059C72.1647 44.6345 73.0366 43.7541 74.108 43.7541ZM88.832 54.9572C85.8144 54.9572 83.3593 57.4085 83.3593 60.4217C83.3593 63.4349 85.8144 65.8943 88.832 65.8943C91.8496 65.8943 94.2965 63.4393 94.2965 60.4217C94.2965 57.4041 91.8452 54.9572 88.832 54.9572ZM88.832 62.3731C87.7559 62.3731 86.8802 61.4978 86.8802 60.4214C86.8802 59.345 87.7556 58.4781 88.832 58.4781C89.9084 58.4781 90.7753 59.35 90.7753 60.4214C90.7753 61.4928 89.9034 62.3731 88.832 62.3731ZM63.8851 27.4188V19.8947C63.8851 18.9224 64.6732 18.1343 65.6456 18.1343C66.6179 18.1343 67.406 18.9224 67.406 19.8947V27.4188C67.406 28.3911 66.6179 29.1792 65.6456 29.1792C64.6732 29.1792 63.8851 28.3911 63.8851 27.4188ZM79.7054 23.391V15.867C79.7054 14.8946 80.4935 14.1065 81.4659 14.1065C82.4383 14.1065 83.2263 14.8946 83.2263 15.867V23.391C83.2263 24.3634 82.4383 25.1515 81.4659 25.1515C80.4935 25.1515 79.7054 24.3634 79.7054 23.391ZM95.534 27.4188V19.8947C95.534 18.9224 96.322 18.1343 97.2944 18.1343C98.2668 18.1343 99.0549 18.9224 99.0549 19.8947V27.4188C99.0549 28.3911 98.2668 29.1792 97.2944 29.1792C96.322 29.1792 95.534 28.3911 95.534 27.4188Z" stroke="#CFA935" stroke-width="2" mask="url(#path-2-outside-2_30760_586)"/>
</svg>
