<svg width="91" height="91" viewBox="0 0 91 91" fill="none" xmlns="http://www.w3.org/2000/svg">
<g clip-path="url(#clip0_83_1701)">
<path d="M43.6555 33.2129C44.265 32.1542 44.6157 30.9283 44.6157 29.6214V25.6005C44.6157 21.6235 41.3801 18.3881 37.403 18.3881C33.426 18.3881 30.1904 21.6237 30.1904 25.6005V29.6435C30.1904 30.9424 30.5377 32.1607 31.1419 33.214C27.0019 33.7044 23.7798 37.2336 23.7798 41.5031V51.3469C23.7798 53.4308 25.4752 55.1262 27.5591 55.1262H47.2469C49.3308 55.1262 51.0262 53.4308 51.0262 51.3469V41.5031C51.0264 37.2308 47.7998 33.6995 43.6555 33.2129ZM39.6015 44.021C39.63 44.2476 39.5414 44.4687 39.3644 44.6127L37.4032 46.2084L35.442 44.6127C35.265 44.4687 35.1764 44.2476 35.2049 44.0212L36.124 36.7312C36.5361 36.8047 36.9593 36.8453 37.3921 36.8453C37.8324 36.8453 38.2631 36.8034 38.682 36.7277L39.6015 44.021ZM32.8272 27.5067H41.9791V29.6214C41.9791 32.1507 39.9214 34.2084 37.3921 34.2084C34.8751 34.2084 32.8272 32.1607 32.8272 29.6437V27.5067ZM37.4032 21.0248C39.6776 21.0248 41.5692 22.6931 41.9201 24.87H32.8863C33.2372 22.6931 35.1286 21.0248 37.4032 21.0248ZM48.3897 51.347C48.3897 51.977 47.8771 52.4896 47.2471 52.4896H27.5591C26.9291 52.4896 26.4165 51.977 26.4165 51.347V41.5033C26.4165 38.3533 28.9794 35.7904 32.1296 35.7904H33.585L32.5889 43.6914C32.4458 44.8268 32.8903 45.936 33.7779 46.6579L35.8925 48.3785C36.3302 48.7346 36.8667 48.9127 37.4032 48.9127C37.9397 48.9127 38.4763 48.7346 38.9138 48.3785L41.0283 46.6579C41.916 45.9358 42.3606 44.8268 42.2175 43.6912L41.2213 35.7904H42.6766C45.8268 35.7904 48.3897 38.3533 48.3897 41.5033V51.347Z" fill="#CFA935"/>
<path d="M89.7017 78.1556L87.854 76.3082C87.8978 76.1315 87.9229 75.9492 87.9229 75.7625C87.9229 75.16 87.6883 74.5936 87.2623 74.1677L78.5972 65.5027C78.1713 65.0766 77.6047 64.8421 77.0023 64.8421C76.8157 64.8421 76.6332 64.8673 76.4567 64.911L74.72 63.1743C73.1905 61.6448 70.7642 61.5469 69.1191 62.8793L65.8413 59.6016C66.2628 59.0767 66.6713 58.539 67.066 57.9886C71.229 52.1825 73.5634 45.3717 73.8478 38.2378H79.6004C82.302 38.2378 84.4998 36.04 84.4998 33.3386V12.3749C84.4998 9.67353 82.302 7.47574 79.6004 7.47574H74.9919C74.2638 7.47574 73.6736 8.06601 73.6736 8.7941C73.6736 9.52218 74.2638 10.1125 74.9919 10.1125H79.6004C80.8479 10.1125 81.8629 11.1274 81.8629 12.3749V33.3384C81.8629 34.586 80.8479 35.6009 79.6004 35.6009H58.6365C57.389 35.6009 56.3741 34.586 56.3741 33.3384V12.3749C56.3741 11.1274 57.389 10.1125 58.6365 10.1125H68.6051C69.3332 10.1125 69.9235 9.52218 69.9235 8.7941C69.9235 8.06601 69.3332 7.47574 68.6051 7.47574H59.1547C52.8301 2.77007 45.3106 0.282593 37.4032 0.282593C17.2905 0.282593 0.927734 16.645 0.927734 36.7572C0.927734 45.4406 3.98686 53.7502 9.57301 60.3349C8.24902 61.2129 7.37381 62.7159 7.37381 64.4201V85.3836C7.37381 88.085 9.5716 90.2828 12.273 90.2828H33.2369C35.9383 90.2828 38.1362 88.085 38.1362 85.3836V73.2235C40.1241 73.184 42.1094 72.9848 44.0481 72.6278C44.7642 72.496 45.2378 71.8085 45.106 71.0926C44.9741 70.3766 44.2875 69.9032 43.5707 70.0347C41.7891 70.3627 39.9628 70.5461 38.1362 70.5854V67.9496C46.0912 67.7661 53.574 64.6003 59.2778 58.9869C64.9246 53.4297 68.2013 46.0922 68.5687 38.2375H71.2079C70.6155 51.6719 61.8917 63.7398 49.2467 68.465C48.5646 68.7199 48.2183 69.4794 48.4732 70.1614C48.6712 70.6914 49.1739 71.0185 49.7084 71.0185C49.8617 71.0185 50.0176 70.9917 50.1699 70.9347C53.8442 69.5617 57.2373 67.6235 60.2516 65.1983L63.5255 68.4722C62.1931 70.1171 62.2912 72.5434 63.8207 74.0729L65.5574 75.8096C65.5136 75.9863 65.4885 76.1686 65.4885 76.3553C65.4885 76.9577 65.7232 77.524 66.1491 77.9501L74.8144 86.6151C75.2403 87.0412 75.8067 87.2757 76.4093 87.2757C76.5959 87.2757 76.7782 87.2505 76.9549 87.2068L78.8025 89.0544C79.6199 89.8716 80.6936 90.2803 81.7672 90.2803C82.8409 90.2803 83.9146 89.8716 84.732 89.0542L89.702 84.0845C91.3364 82.4501 91.3364 79.7904 89.7017 78.1556ZM37.4032 2.91931C44.0198 2.91931 50.3428 4.79683 55.8237 8.36748C55.0882 8.88515 54.5009 9.59918 54.1394 10.4334C49.1363 7.23685 43.3896 5.55603 37.4032 5.55603C20.1985 5.55603 6.20135 19.5528 6.20135 36.7572C6.20135 41.7083 7.33268 46.4461 9.56369 50.8394C11.2062 54.0739 13.4351 57.0281 16.0917 59.5209H12.369C6.69002 53.2801 3.56445 45.21 3.56445 36.7572C3.56445 18.0989 18.7444 2.91931 37.4032 2.91931ZM35.4995 85.3834C35.4995 86.6309 34.4846 87.6459 33.237 87.6459H12.2732C11.0257 87.6459 10.0107 86.6309 10.0107 85.3834V64.4201C10.0107 63.1726 11.0257 62.1576 12.2732 62.1576H33.237C34.4846 62.1576 35.4995 63.1726 35.4995 64.4201V85.3834ZM38.1364 65.3122V64.4201C38.1364 61.7187 35.9386 59.5209 33.237 59.5209H20.1642C20.1566 59.5149 20.1499 59.5082 20.1424 59.5024C12.9582 54.037 8.83807 45.7467 8.83807 36.7572C8.83807 21.0067 21.6523 8.19275 37.4032 8.19275C43.2922 8.19275 48.928 9.96937 53.7372 13.3358V33.3384C53.7372 36.0398 55.935 38.2376 58.6365 38.2376H65.9281C65.1628 53.0175 52.9616 64.9307 38.1364 65.3122ZM64.1127 61.6016L67.2379 64.7266L65.3734 66.5911L62.2497 63.4675C62.8915 62.8693 63.5131 62.2472 64.1127 61.6016ZM65.685 70.0083L70.6549 65.0387C71.2615 64.432 72.2487 64.432 72.8553 65.0387L74.3633 66.5467L67.193 73.717L65.685 72.2089C65.0784 71.6021 65.0784 70.615 65.685 70.0083ZM68.2832 76.3556L77.0023 67.6367L85.1284 75.7625L76.4093 84.4815L68.2832 76.3556ZM87.8373 82.2204L82.8675 87.1901C82.261 87.7967 81.2738 87.7969 80.667 87.1901L79.0483 85.5713L86.2186 78.4012L87.8373 80.02C88.4438 80.6266 88.4438 81.6138 87.8373 82.2204Z" fill="#CFA935"/>
<path d="M63.7661 21.595C63.1925 21.1464 62.3638 21.2477 61.9152 21.8213C61.4667 22.3948 61.5679 23.2235 62.1415 23.6719L67.1806 27.6131C67.4209 27.801 67.7074 27.8929 67.9924 27.8929C68.3525 27.8929 68.7106 27.746 68.9697 27.46L76.2601 19.4173C76.7491 18.8778 76.7081 18.0441 76.1686 17.555C75.6292 17.0662 74.7953 17.1071 74.3064 17.6464L67.8396 24.7809L63.7661 21.595Z" fill="#CFA935"/>
<path d="M15.8997 70.9467H25.7515C26.4796 70.9467 27.0699 70.3564 27.0699 69.6283C27.0699 68.9002 26.4796 68.3099 25.7515 68.3099H15.8997C15.1716 68.3099 14.5813 68.9002 14.5813 69.6283C14.5813 70.3564 15.1716 70.9467 15.8997 70.9467Z" fill="#CFA935"/>
<path d="M31.28 73.5834H15.8997C15.1716 73.5834 14.5813 74.1736 14.5813 74.9017C14.5813 75.6298 15.1716 76.2201 15.8997 76.2201H31.2802C32.0083 76.2201 32.5985 75.6298 32.5985 74.9017C32.5985 74.1736 32.0081 73.5834 31.28 73.5834Z" fill="#CFA935"/>
<path d="M27.9779 78.8568H15.8997C15.1716 78.8568 14.5813 79.4471 14.5813 80.1752C14.5813 80.9033 15.1716 81.4935 15.8997 81.4935H27.9779C28.706 81.4935 29.2963 80.9033 29.2963 80.1752C29.2963 79.4471 28.706 78.8568 27.9779 78.8568Z" fill="#CFA935"/>
</g>
<defs>
<clipPath id="clip0_83_1701">
<rect width="90" height="90" fill="white" transform="translate(0.927734 0.282593)"/>
</clipPath>
</defs>
</svg>
