<svg width="60" height="60" viewBox="0 0 60 60" fill="none" xmlns="http://www.w3.org/2000/svg">
<path fill-rule="evenodd" clip-rule="evenodd" d="M45.2744 8H44.9276C44.3383 8 44.4697 8.69693 44.4697 8.44903V47.108C44.4697 48.6509 43.2063 49.9033 41.6502 49.9033H13.4529C13.2029 49.9033 13 50.1042 13 50.3523V51.3067C13 53.3449 14.6694 55 16.7256 55H45.2744C47.3306 55 49 53.3449 49 51.3067V11.6933C49 9.65492 47.3306 8 45.2744 8Z" fill="#BFC0C2"/>
<path fill-rule="evenodd" clip-rule="evenodd" d="M42.8418 3.27734H21.0395C20.7514 3.27734 20.4683 3.3542 20.2195 3.49959C18.8081 4.32521 12.2755 8.14588 10.2926 9.30588C9.79435 9.59712 9.48828 10.1308 9.48828 10.7079V48.4223C9.48828 50.5472 11.2134 52.2724 13.3384 52.2724H42.8418C44.9667 52.2724 46.6919 50.5472 46.6919 48.4223V7.12746C46.6919 5.00251 44.9667 3.27734 42.8418 3.27734Z" fill="#F3F3F3"/>
<path fill-rule="evenodd" clip-rule="evenodd" d="M18.7777 4.3418L19.1636 7.18067C19.4768 9.48404 17.8611 11.6085 15.5575 11.9216L9.48828 12.6769V10.7067C9.48828 10.1297 9.79435 9.59595 10.2926 9.30472L18.7777 4.3418Z" fill="#B4CCEC"/>
<path d="M28.0897 47.8962C36.0098 47.8962 42.4304 41.4757 42.4304 33.5555C42.4304 25.6354 36.0098 19.2148 28.0897 19.2148C20.1696 19.2148 13.749 25.6354 13.749 33.5555C13.749 41.4757 20.1696 47.8962 28.0897 47.8962Z" fill="#CFA935"/>
<path d="M28.0901 44.7994C34.3008 44.7994 39.3355 39.7646 39.3355 33.554C39.3355 27.3433 34.3008 22.3086 28.0901 22.3086C21.8795 22.3086 16.8447 27.3433 16.8447 33.554C16.8447 39.7646 21.8795 44.7994 28.0901 44.7994Z" fill="white"/>
<path fill-rule="evenodd" clip-rule="evenodd" d="M27.6216 44.7905C27.7766 44.797 27.9328 44.8001 28.0899 44.8001C28.247 44.8001 28.4031 44.797 28.558 44.7905V31.4727C29.5964 31.2563 30.3775 30.3352 30.3775 29.233C30.3775 27.9705 29.3524 26.9453 28.0899 26.9453C26.8272 26.9453 25.8022 27.9705 25.8022 29.233C25.8022 30.3352 26.5831 31.2563 27.6216 31.4727V44.7905ZM24.8667 44.3307C25.173 44.4224 25.4856 44.5013 25.8029 44.5671V36.8237C25.8029 36.0939 25.513 35.3939 24.9969 34.8777L23.5663 33.4471C23.4636 32.2795 22.4818 31.3624 21.2876 31.3624C20.0249 31.3624 19 32.3873 19 33.65C19 34.9125 20.0249 35.9377 21.2876 35.9377C22.2182 35.9377 23.0198 35.3806 23.3771 34.5819L24.3348 35.5399C24.6753 35.8804 24.8667 36.3422 24.8667 36.8237V44.3307ZM30.3766 44.5671C30.6939 44.5015 31.0063 44.4224 31.313 44.3307V36.8237C31.313 36.3422 31.5043 35.8804 31.8447 35.5399L32.8027 34.5819C33.1598 35.3806 33.9613 35.9377 34.8921 35.9377C36.1546 35.9377 37.1798 34.9125 37.1798 33.65C37.1798 32.3873 36.1546 31.3624 34.8921 31.3624C33.6978 31.3624 32.716 32.2795 32.6133 33.4471L31.1827 34.8777C30.6665 35.3939 30.3766 36.0939 30.3766 36.8237V44.5671Z" fill="#CFA935"/>
<path fill-rule="evenodd" clip-rule="evenodd" d="M22.0454 3.27734V7.12498C22.0454 9.4497 20.1579 11.3371 17.8332 11.3371L9.48828 11.2427V10.7079C9.48828 10.1308 9.79435 9.59712 10.2926 9.30588C12.2755 8.14588 18.8081 4.32521 20.2195 3.49959C20.4683 3.3542 20.7514 3.27734 21.0395 3.27734H22.0454Z" fill="#CFA935"/>
<path fill-rule="evenodd" clip-rule="evenodd" d="M41.5993 7.90234H31.5579C31.2995 7.90234 31.0898 8.11201 31.0898 8.37043C31.0898 8.62886 31.2995 8.83875 31.5579 8.83875H41.5993C41.8577 8.83875 42.0674 8.62886 42.0674 8.37043C42.0674 8.11201 41.8577 7.90234 41.5993 7.90234Z" fill="#CFA935"/>
<path fill-rule="evenodd" clip-rule="evenodd" d="M41.5998 12.2773H28.8834C28.6249 12.2773 28.415 12.4872 28.415 12.7454C28.415 13.0039 28.6249 13.2137 28.8834 13.2137H41.5998C41.8582 13.2137 42.0678 13.0039 42.0678 12.7454C42.0678 12.4872 41.8582 12.2773 41.5998 12.2773Z" fill="#CFA935"/>
</svg>
