<svg width="24" height="22" viewBox="0 0 24 22" fill="none" xmlns="http://www.w3.org/2000/svg">
<path d="M16 21.25V18.6685L18.334 19.062C18.5386 19.0965 18.748 19.0882 18.9492 19.0376C19.1504 18.987 19.3389 18.8952 19.5028 18.768C19.6667 18.6409 19.8024 18.4811 19.9014 18.2988C20.0004 18.1165 20.0606 17.9157 20.078 17.709L20.365 14.303C21.29 14.0955 21.955 13.761 22.3865 13.482C22.7735 13.232 22.8185 12.727 22.5605 12.345L20.4875 9.2765C20.2415 4.664 16.4235 1 11.75 1V21.25" stroke="#CFA935" stroke-width="1.5" stroke-linecap="round" stroke-linejoin="round"/>
<path d="M1.5 11C1.5 11.3978 1.65804 11.7794 1.93934 12.0607C2.22064 12.342 2.60218 12.5 3 12.5C3.39782 12.5 3.77936 12.342 4.06066 12.0607C4.34196 11.7794 4.5 11.3978 4.5 11C4.5 10.6022 4.34196 10.2206 4.06066 9.93934C3.77936 9.65804 3.39782 9.5 3 9.5C2.60218 9.5 2.22064 9.65804 1.93934 9.93934C1.65804 10.2206 1.5 10.6022 1.5 11ZM4 3.5C4 3.69698 4.0388 3.89204 4.11418 4.07403C4.18956 4.25601 4.30005 4.42137 4.43934 4.56066C4.57863 4.69995 4.74399 4.81044 4.92597 4.88582C5.10796 4.9612 5.30302 5 5.5 5C5.69698 5 5.89204 4.9612 6.07403 4.88582C6.25601 4.81044 6.42137 4.69995 6.56066 4.56066C6.69995 4.42137 6.81044 4.25601 6.88582 4.07403C6.9612 3.89204 7 3.69698 7 3.5C7 3.30302 6.9612 3.10796 6.88582 2.92597C6.81044 2.74399 6.69995 2.57863 6.56066 2.43934C6.42137 2.30005 6.25601 2.18956 6.07403 2.11418C5.89204 2.0388 5.69698 2 5.5 2C5.30302 2 5.10796 2.0388 4.92597 2.11418C4.74399 2.18956 4.57863 2.30005 4.43934 2.43934C4.30005 2.57863 4.18956 2.74399 4.11418 2.92597C4.0388 3.10796 4 3.30302 4 3.5ZM3.5 19C3.5 19.3978 3.65804 19.7794 3.93934 20.0607C4.22064 20.342 4.60218 20.5 5 20.5C5.39782 20.5 5.77936 20.342 6.06066 20.0607C6.34196 19.7794 6.5 19.3978 6.5 19C6.5 18.6022 6.34196 18.2206 6.06066 17.9393C5.77936 17.658 5.39782 17.5 5 17.5C4.60218 17.5 4.22064 17.658 3.93934 17.9393C3.65804 18.2206 3.5 18.6022 3.5 19Z" stroke="#CFA935" stroke-width="1.5"/>
<path d="M4.5 11H11.75M11.75 7H9L6.75 4.75M11.75 15.5H8.5L6.25 17.75" stroke="#CFA935" stroke-width="1.5" stroke-linecap="round" stroke-linejoin="round"/>
</svg>
