<svg width="115" height="34" viewBox="0 0 115 34" fill="none" xmlns="http://www.w3.org/2000/svg">
<path d="M113.659 0.40625H1.25921C0.563767 0.40625 0 0.970017 0 1.66546V32.3864C0 33.0818 0.563767 33.6456 1.25921 33.6456H113.659C114.354 33.6456 114.918 33.0818 114.918 32.3864V1.66546C114.918 0.970017 114.354 0.40625 113.659 0.40625Z" fill="black" stroke="#383838" stroke-width="0.152632" stroke-miterlimit="10"/>
<path d="M56.1094 19.7989C54.005 19.7989 52.2669 21.4263 52.2669 23.6586C52.2669 25.8908 53.9859 27.5182 56.1094 27.5182C58.2329 27.5182 59.9519 25.8908 59.9519 23.6586C59.9519 21.4263 58.2329 19.7989 56.1094 19.7989ZM56.1094 25.9843C54.957 25.9843 53.9515 25.0151 53.9515 23.6433C53.9515 22.2715 54.9589 21.3023 56.1094 21.3023C57.2598 21.3023 58.2672 22.2524 58.2672 23.6433C58.2672 25.0342 57.2598 25.9843 56.1094 25.9843ZM47.749 19.7989C45.6274 19.7989 43.9065 21.4263 43.9065 23.6586C43.9065 25.8908 45.6255 27.5182 47.749 27.5182C49.8725 27.5182 51.5915 25.8908 51.5915 23.6586C51.5915 21.4263 49.8725 19.7989 47.749 19.7989ZM47.749 25.9843C46.5966 25.9843 45.5911 25.0151 45.5911 23.6433C45.5911 22.2715 46.5985 21.3023 47.749 21.3023C48.8994 21.3023 49.9068 22.2524 49.9068 23.6433C49.9068 25.0342 48.9185 25.9843 47.749 25.9843ZM37.8146 20.9894V22.6169H41.6933C41.5827 23.5307 41.2736 24.208 40.8157 24.6659C40.249 25.2326 39.3714 25.8546 37.8146 25.8546C35.4183 25.8546 33.5714 23.9161 33.5714 21.5179C33.5714 19.1197 35.4202 17.145 37.8146 17.145C39.1139 17.145 40.0468 17.6582 40.7413 18.3165L41.8937 17.1641C40.9244 16.2311 39.6252 15.5176 37.8146 15.5176C34.5387 15.5176 31.7952 18.2058 31.7952 21.4817C31.7952 24.7575 34.5387 27.4457 37.8146 27.4457C39.5889 27.4457 40.9073 26.86 41.9681 25.763C43.0479 24.6831 43.3761 23.1644 43.3761 21.9396C43.3761 21.5561 43.3398 21.2088 43.2845 20.915L37.8146 20.9894ZM78.4661 22.2505C78.1551 21.3901 77.1668 19.7989 75.1902 19.7989C73.2136 19.7989 71.5862 21.3538 71.5862 23.6586C71.5862 25.8164 73.2136 27.5182 75.3734 27.5182C77.1306 27.5182 78.136 26.4384 78.5558 25.8164L77.2565 24.9388C76.8177 25.5798 76.2319 25.9996 75.3715 25.9996C74.511 25.9996 73.9081 25.6161 73.5227 24.8281L78.6263 22.6874L78.4623 22.2486L78.4661 22.2505ZM73.2709 23.5498C73.2346 22.0674 74.4233 21.3004 75.2646 21.3004C75.9419 21.3004 76.4895 21.6305 76.6917 22.1246L73.2709 23.5517V23.5498ZM69.1174 27.2645H70.8002V15.9583H69.1174V27.2645ZM66.3738 20.6594H66.3185C65.935 20.2015 65.2215 19.7989 64.3057 19.7989C62.3844 19.7989 60.6463 21.5007 60.6463 23.6586C60.6463 25.8164 62.4035 27.5011 64.3057 27.5011C65.2196 27.5011 65.9331 27.0985 66.3185 26.6234H66.3738V27.1729C66.3738 28.6553 65.5859 29.4414 64.3248 29.4414C63.3002 29.4414 62.6592 28.6916 62.4035 28.0696L60.9402 28.6916C61.3599 29.7161 62.4779 30.9792 64.3248 30.9792C66.2994 30.9792 67.965 29.8077 67.965 26.9726V20.0393H66.3738V20.6613V20.6594ZM64.4526 25.9843C63.3002 25.9843 62.331 25.0151 62.331 23.6605C62.331 22.3059 63.3002 21.3195 64.4526 21.3195C65.605 21.3195 66.5017 22.3078 66.5017 23.6605C66.5017 24.996 65.5859 25.9843 64.4526 25.9843ZM86.3152 15.9583H82.2895V27.2645H83.9723V22.9832H86.3133C88.1792 22.9832 90.0088 21.6286 90.0088 19.4707C90.0088 17.3129 88.1792 15.9583 86.3133 15.9583H86.3152ZM86.3686 21.4111H83.9894V17.5323H86.3686C87.6125 17.5323 88.3433 18.5759 88.3433 19.4707C88.3261 20.3484 87.6125 21.4111 86.3686 21.4111ZM96.7246 19.7817C95.5169 19.7817 94.2558 20.3121 93.7426 21.5198L95.225 22.1418C95.5551 21.5198 96.1389 21.3176 96.7628 21.3176C97.6404 21.3176 98.52 21.848 98.5371 22.7809V22.8916C98.2262 22.7084 97.587 22.4528 96.78 22.4528C95.1697 22.4528 93.5423 23.3495 93.5423 24.996C93.5423 26.5147 94.8606 27.4839 96.324 27.4839C97.4592 27.4839 98.0812 26.9707 98.4646 26.3678H98.52V27.2454H100.147V22.9088C100.128 20.915 98.6478 19.7798 96.7265 19.7798L96.7246 19.7817ZM96.5243 25.9652C95.9748 25.9652 95.2059 25.6905 95.2059 25.0151C95.2059 24.1374 96.1561 23.8074 96.9803 23.8074C97.711 23.8074 98.0602 23.9715 98.5181 24.1909C98.3902 25.2345 97.4935 25.9652 96.5243 25.9652ZM106.018 20.0374L104.097 24.9216H104.041L102.048 20.0374H100.237L103.238 26.8791L101.536 30.7025H103.294L107.886 20.0374H106.02H106.018ZM90.9437 27.2645H92.6265V15.9583H90.9437V27.2645Z" fill="white"/>
<path d="M33.9811 8.49435H35.6088V10.6825C35.3802 10.758 35.1437 10.8166 34.8993 10.8583C34.6548 10.9001 34.3806 10.9209 34.0765 10.9209C33.6333 10.9209 33.2577 10.8335 32.9497 10.6586C32.6436 10.4817 32.4111 10.2264 32.2521 9.89248C32.0931 9.55661 32.0136 9.15217 32.0136 8.67917C32.0136 8.22406 32.102 7.82956 32.2789 7.49568C32.4558 7.15981 32.7132 6.90046 33.051 6.71762C33.3889 6.53279 33.7983 6.44038 34.2792 6.44038C34.5157 6.44038 34.7443 6.46423 34.9649 6.51192C35.1875 6.55763 35.3912 6.62123 35.576 6.70271L35.3256 7.29297C35.1785 7.22341 35.0136 7.16478 34.8307 7.11708C34.6479 7.06939 34.4581 7.04554 34.2613 7.04554C33.9493 7.04554 33.68 7.11311 33.4535 7.24825C33.2289 7.38339 33.056 7.57418 32.9348 7.82062C32.8135 8.06507 32.7529 8.35423 32.7529 8.68812C32.7529 9.01206 32.8016 9.29626 32.899 9.54071C32.9964 9.78516 33.1484 9.97595 33.3551 10.1131C33.5638 10.2482 33.8331 10.3158 34.163 10.3158C34.3279 10.3158 34.468 10.3068 34.5833 10.289C34.6986 10.2711 34.8049 10.2512 34.9023 10.2293V9.10547H33.9811V8.49435ZM39.1205 10.8613H36.6522V6.50298H39.1205V7.10516H37.3676V8.28865H39.0102V8.88785H37.3676V10.2562H39.1205V10.8613ZM41.5739 10.8613H40.8555V7.11112H39.5796V6.50298H42.8469V7.11112H41.5739V10.8613ZM45.1006 10.8613V6.50298H45.816V10.8613H45.1006ZM48.4781 10.8613H47.7597V7.11112H46.4838V6.50298H49.7511V7.11112H48.4781V10.8613ZM55.8742 8.67619C55.8742 9.01206 55.8315 9.31812 55.746 9.59437C55.6625 9.86863 55.5363 10.1051 55.3674 10.3039C55.1985 10.5006 54.9868 10.6527 54.7325 10.76C54.4781 10.8673 54.18 10.9209 53.8381 10.9209C53.4903 10.9209 53.1882 10.8673 52.9319 10.76C52.6775 10.6527 52.4658 10.4996 52.2969 10.3009C52.13 10.1021 52.0048 9.86465 51.9213 9.5884C51.8378 9.31216 51.7961 9.0061 51.7961 8.67023C51.7961 8.22108 51.8696 7.82956 52.0167 7.49568C52.1657 7.15981 52.3913 6.89947 52.6934 6.71464C52.9975 6.52782 53.381 6.43442 53.8441 6.43442C54.2972 6.43442 54.6738 6.52683 54.9739 6.71166C55.274 6.89648 55.4986 7.15683 55.6476 7.4927C55.7987 7.82658 55.8742 8.22108 55.8742 8.67619ZM52.5473 8.67619C52.5473 9.01206 52.593 9.30321 52.6844 9.54965C52.7759 9.7941 52.916 9.9829 53.1048 10.1161C53.2956 10.2472 53.54 10.3128 53.8381 10.3128C54.1382 10.3128 54.3827 10.2472 54.5715 10.1161C54.7603 9.9829 54.8994 9.7941 54.9888 9.54965C55.0783 9.30321 55.123 9.01206 55.123 8.67619C55.123 8.16543 55.0206 7.76597 54.8159 7.4778C54.6132 7.18764 54.2893 7.04256 53.8441 7.04256C53.546 7.04256 53.3005 7.10814 53.1078 7.23931C52.917 7.37048 52.7759 7.55829 52.6844 7.80273C52.593 8.0452 52.5473 8.33635 52.5473 8.67619ZM60.4472 10.8613H59.5678L57.4333 7.3824H57.4065C57.4144 7.49966 57.4214 7.62387 57.4274 7.75504C57.4353 7.8862 57.4413 8.02135 57.4452 8.16046C57.4512 8.29958 57.4562 8.44069 57.4601 8.58378V10.8613H56.8103V6.50298H57.6837L59.8152 9.95806H59.8361C59.8321 9.8567 59.8271 9.74044 59.8212 9.60927C59.8152 9.4781 59.8092 9.34296 59.8033 9.20384C59.7993 9.06274 59.7963 8.9266 59.7943 8.79544V6.50298H60.4472V10.8613Z" fill="#F3F3F3"/>
<path d="M22.4159 20.2929C24.7893 18.9889 26.5894 17.9964 26.7437 17.9193C27.2399 17.6559 27.7521 16.9574 26.7437 16.4146C26.4177 16.2443 24.6656 15.2824 22.4159 14.041L19.2974 17.1902L22.4159 20.2929Z" fill="#FFD900"/>
<path d="M19.2963 17.1914L9.36743 27.1978C9.60027 27.2284 9.86366 27.1673 10.1736 26.997C10.8256 26.6405 17.7291 22.8699 22.4134 20.2955L19.2949 17.1914H19.2963Z" fill="#F43249"/>
<path d="M19.2977 17.19L22.4162 14.0568C22.4162 14.0568 10.8749 7.75837 10.1764 7.38583C9.91305 7.23011 9.6191 7.18354 9.35425 7.23011L19.2977 17.19Z" fill="#00EE76"/>
<path d="M19.2969 17.1903L9.35347 7.23047C8.95037 7.32361 8.6084 7.68015 8.6084 8.40924V26.018C8.6084 26.686 8.87179 27.1662 9.36802 27.2128L19.2969 17.1903Z" fill="#00D3FF"/>
</svg>
