<svg width="150" height="150" viewBox="0 0 150 150" fill="none" xmlns="http://www.w3.org/2000/svg">
<g id="line">
<path id="Vector" d="M80.7347 135.938H25.7733C23.9091 135.935 22.1218 135.194 20.8037 133.876C19.4855 132.558 18.744 130.77 18.742 128.906V30.4688C18.742 29.8471 18.4951 29.251 18.0555 28.8115C17.616 28.3719 17.0199 28.125 16.3983 28.125C15.7767 28.125 15.1805 28.3719 14.741 28.8115C14.3014 29.251 14.0545 29.8471 14.0545 30.4688V128.906C14.0582 132.013 15.294 134.992 17.4909 137.189C19.6878 139.386 22.6664 140.621 25.7733 140.625H80.7347C81.3563 140.625 81.9524 140.378 82.3919 139.939C82.8315 139.499 83.0784 138.903 83.0784 138.281C83.0784 137.66 82.8315 137.064 82.3919 136.624C81.9524 136.184 81.3563 135.938 80.7347 135.938Z" fill="black"/>
<path id="Vector_2" d="M16.3983 23.4375C17.0199 23.4375 17.616 23.1906 18.0555 22.7511C18.4951 22.3115 18.742 21.7154 18.742 21.0938C18.744 19.2296 19.4855 17.4424 20.8037 16.1242C22.1218 14.806 23.9091 14.0646 25.7733 14.0625H70.3045C71.547 14.0649 72.7379 14.5595 73.6164 15.4381C74.495 16.3167 74.9896 17.5076 74.992 18.75V30.4688C74.9957 33.5757 76.2315 36.5542 78.4284 38.7511C80.6253 40.948 83.6039 42.1839 86.7108 42.1875H98.4295C99.672 42.1899 100.863 42.6845 101.741 43.5631C102.62 44.4417 103.115 45.6326 103.117 46.875V72.6563C103.117 73.2779 103.364 73.874 103.803 74.3136C104.243 74.7531 104.839 75 105.461 75C106.082 75 106.679 74.7531 107.118 74.3136C107.558 73.874 107.805 73.2779 107.805 72.6563V46.875C107.807 45.6437 107.566 44.424 107.094 43.2866C106.622 42.1492 105.929 41.1167 105.056 40.2489L76.9306 12.1239C76.0628 11.2503 75.0303 10.5575 73.8929 10.0857C72.7556 9.61385 71.5359 9.3723 70.3045 9.37502H25.7733C22.6664 9.37868 19.6878 10.6145 17.4909 12.8114C15.294 15.0083 14.0582 17.9869 14.0545 21.0938C14.0545 21.7154 14.3015 22.3115 14.741 22.751C15.1805 23.1906 15.7767 23.4375 16.3983 23.4375ZM79.6795 21.5012L95.6784 37.5H86.7108C84.8466 37.498 83.0593 36.7565 81.7412 35.4384C80.423 34.1202 79.6815 32.333 79.6795 30.4688V21.5012Z" fill="black"/>
<path id="Vector_3" d="M98.4295 53.9062C98.4295 53.2846 98.1825 52.6885 97.743 52.249C97.3035 51.8094 96.7073 51.5625 96.0857 51.5625H45.6425C45.0209 51.5625 44.4247 51.8094 43.9852 52.249C43.5456 52.6885 43.2987 53.2846 43.2987 53.9062C43.2987 54.5279 43.5456 55.124 43.9852 55.5635C44.4247 56.0031 45.0209 56.25 45.6425 56.25H96.0857C96.7073 56.25 97.3035 56.0031 97.743 55.5635C98.1825 55.124 98.4295 54.5279 98.4295 53.9062Z" fill="black"/>
<path id="Vector_4" d="M94.7731 75C94.7731 74.3784 94.5261 73.7823 94.0866 73.3427C93.6471 72.9032 93.0509 72.6562 92.4293 72.6562H45.6481C45.0265 72.6562 44.4303 72.9032 43.9908 73.3427C43.5512 73.7823 43.3043 74.3784 43.3043 75C43.3043 75.6216 43.5512 76.2177 43.9908 76.6573C44.4303 77.0968 45.0265 77.3438 45.6481 77.3438H92.4293C93.0509 77.3438 93.6471 77.0968 94.0866 76.6573C94.5261 76.2177 94.7731 75.6216 94.7731 75Z" fill="black"/>
<path id="Vector_5" d="M73.0705 96.0938C73.0705 95.4722 72.8236 94.876 72.384 94.4365C71.9445 93.997 71.3484 93.75 70.7268 93.75H45.6482C45.0266 93.75 44.4304 93.9969 43.9909 94.4365C43.5514 94.876 43.3044 95.4721 43.3044 96.0938C43.3044 96.7154 43.5514 97.3115 43.9909 97.751C44.4304 98.1906 45.0266 98.4375 45.6482 98.4375H70.7268C71.3484 98.4375 71.9445 98.1905 72.384 97.751C72.8236 97.3115 73.0705 96.7153 73.0705 96.0938Z" fill="black"/>
<path id="Vector_6" d="M68.6634 114.844H45.6482C45.0266 114.844 44.4304 115.091 43.9909 115.53C43.5514 115.97 43.3044 116.566 43.3044 117.188C43.3044 117.809 43.5514 118.405 43.9909 118.845C44.4304 119.284 45.0266 119.531 45.6482 119.531H68.6634C69.285 119.531 69.8812 119.284 70.3207 118.845C70.7602 118.405 71.0072 117.809 71.0072 117.188C71.0072 116.566 70.7602 115.97 70.3207 115.53C69.8812 115.091 69.285 114.844 68.6634 114.844Z" fill="black"/>
<path id="Vector_7" d="M39.1561 48.3515C38.7136 47.9124 38.1154 47.666 37.492 47.666C36.8686 47.666 36.2705 47.9124 35.828 48.3515L29.6873 54.4921L27.4376 52.2422C26.9936 51.8139 26.3992 51.5771 25.7823 51.5827C25.1655 51.5882 24.5754 51.8357 24.1392 52.2719C23.703 52.7081 23.4554 53.2981 23.4498 53.9149C23.4442 54.5318 23.6809 55.1262 24.1091 55.5703L28.0232 59.4609C28.2371 59.6832 28.4938 59.8601 28.7777 59.9809C29.0616 60.1017 29.367 60.164 29.6755 60.164C29.9841 60.164 30.2895 60.1017 30.5734 59.9809C30.8573 59.8601 31.1139 59.6832 31.3279 59.4609L39.156 51.6562C39.3733 51.4394 39.5457 51.1819 39.6633 50.8983C39.781 50.6148 39.8415 50.3109 39.8415 50.0039C39.8416 49.6969 39.781 49.393 39.6634 49.1094C39.5458 48.8259 39.3734 48.5683 39.1561 48.3515Z" fill="#CFA935"/>
<path id="Vector_8" d="M39.1561 90.539C38.7136 90.0999 38.1154 89.8535 37.492 89.8535C36.8686 89.8535 36.2705 90.0999 35.8279 90.539L29.6873 96.6796L27.4373 94.4297C26.9954 93.9913 26.3977 93.7459 25.7753 93.7472C25.1528 93.7484 24.5561 93.9963 24.116 94.4364C23.6758 94.8766 23.428 95.4732 23.4267 96.0957C23.4254 96.7182 23.6708 97.3158 24.1092 97.7578L28.0233 101.648C28.2372 101.871 28.4938 102.048 28.7777 102.168C29.0617 102.289 29.367 102.352 29.6756 102.352C29.9842 102.352 30.2895 102.289 30.5735 102.168C30.8574 102.048 31.114 101.871 31.3279 101.648L39.1561 93.8437C39.3734 93.6269 39.5458 93.3694 39.6634 93.0858C39.781 92.8023 39.8416 92.4983 39.8416 92.1914C39.8416 91.8844 39.781 91.5805 39.6634 91.2969C39.5458 91.0134 39.3734 90.7558 39.1561 90.539Z" fill="#CFA935"/>
<path id="Vector_9" d="M39.1561 69.4453C38.7136 69.0062 38.1154 68.7598 37.492 68.7598C36.8686 68.7598 36.2705 69.0062 35.8279 69.4453L29.6873 75.5859L27.4373 73.3359C26.9954 72.8975 26.3977 72.6521 25.7753 72.6534C25.1528 72.6547 24.5561 72.9025 24.116 73.3427C23.6758 73.7828 23.428 74.3795 23.4267 75.002C23.4254 75.6244 23.6708 76.2221 24.1092 76.664L28.0233 80.5546C28.2372 80.777 28.4938 80.9539 28.7777 81.0747C29.0617 81.1955 29.367 81.2578 29.6756 81.2578C29.9842 81.2578 30.2895 81.1955 30.5735 81.0747C30.8574 80.9539 31.114 80.777 31.3279 80.5546L39.1561 72.75C39.3734 72.5331 39.5458 72.2756 39.6634 71.9921C39.781 71.7085 39.8416 71.4046 39.8416 71.0976C39.8416 70.7906 39.781 70.4867 39.6634 70.2032C39.5458 69.9196 39.3734 69.6621 39.1561 69.4453Z" fill="#CFA935"/>
<path id="Vector_10" d="M35.8279 111.633L29.6873 117.773L27.4373 115.523C26.9953 115.085 26.3977 114.84 25.7752 114.841C25.1527 114.842 24.5561 115.09 24.1159 115.53C23.6758 115.97 23.4279 116.567 23.4266 117.189C23.4254 117.812 23.6708 118.41 24.1091 118.852L28.0232 122.742C28.2371 122.964 28.4938 123.141 28.7777 123.262C29.0616 123.383 29.367 123.445 29.6755 123.445C29.9841 123.445 30.2895 123.383 30.5734 123.262C30.8573 123.141 31.1139 122.964 31.3279 122.742L39.156 114.937C39.3733 114.721 39.5457 114.463 39.6633 114.18C39.781 113.896 39.8415 113.592 39.8415 113.285C39.8415 112.978 39.781 112.674 39.6633 112.391C39.5457 112.107 39.3733 111.85 39.156 111.633C38.7135 111.194 38.1154 110.947 37.492 110.947C36.8685 110.947 36.2704 111.194 35.8279 111.633Z" fill="#CFA935"/>
<path id="Vector_11" d="M105.477 79.6875C99.4506 79.6875 93.5598 81.4745 88.5492 84.8224C83.5387 88.1704 79.6334 92.9289 77.3273 98.4964C75.0212 104.064 74.4178 110.19 75.5935 116.1C76.7691 122.011 79.671 127.44 83.9321 131.701C88.1932 135.962 93.6222 138.864 99.5326 140.04C105.443 141.215 111.569 140.612 117.137 138.306C122.704 136 127.463 132.094 130.811 127.084C134.159 122.073 135.946 116.182 135.946 110.156C135.937 102.078 132.724 94.3335 127.012 88.6215C121.299 82.9094 113.555 79.6964 105.477 79.6875ZM105.477 135.938C99.5117 135.943 93.7312 133.87 89.1291 130.075L89.1014 125.438C89.0966 124.212 89.4807 123.017 90.1984 122.023C90.9161 121.03 91.9304 120.29 93.0954 119.91L101.938 116.952C104.225 116.194 106.694 116.191 108.982 116.941L117.872 119.915C119.036 120.298 120.048 121.041 120.763 122.036C121.478 123.031 121.859 124.227 121.851 125.452L121.879 130.031C117.269 133.854 111.466 135.943 105.477 135.938ZM98.0679 104.283C98.0674 102.818 98.5012 101.387 99.3144 100.168C100.127 98.95 101.283 98.0002 102.636 97.4387C103.989 96.8772 105.478 96.7293 106.915 97.0137C108.352 97.2982 109.672 98.0021 110.709 99.0366C111.746 100.071 112.453 101.39 112.74 102.826C113.028 104.262 112.883 105.751 112.325 107.105C111.767 108.459 110.819 109.618 109.603 110.434C108.387 111.249 106.956 111.686 105.491 111.689L105.469 111.69C103.506 111.686 101.625 110.904 100.238 109.516C98.8506 108.128 98.0703 106.246 98.0679 104.283ZM126.505 125.02C126.433 122.886 125.707 120.826 124.427 119.117C123.146 117.409 121.372 116.134 119.345 115.465L113.289 113.44C115.181 111.839 116.536 109.696 117.17 107.3C117.804 104.905 117.687 102.372 116.835 100.045C115.983 97.7177 114.436 95.7085 112.405 94.2891C110.373 92.8696 107.955 92.1084 105.477 92.1083C102.998 92.1083 100.58 92.8694 98.5484 94.2888C96.5169 95.7082 94.9704 97.7173 94.118 100.044C93.2657 102.372 93.1487 104.904 93.7829 107.3C94.417 109.696 95.7717 111.839 97.6637 113.44L91.6225 115.461C89.5922 116.128 87.8156 117.403 86.5326 119.112C85.2496 120.822 84.522 122.884 84.448 125.02C81.7117 121.162 80.0894 116.626 79.7586 111.908C79.4278 107.19 80.4013 102.471 82.5725 98.2695C84.7438 94.0676 88.029 90.544 92.0688 88.0842C96.1086 85.6244 100.747 84.3234 105.477 84.3234C110.207 84.3234 114.845 85.6245 118.885 88.0843C122.925 90.5441 126.21 94.0677 128.381 98.2696C130.552 102.472 131.526 107.19 131.195 111.908C130.864 116.626 129.242 121.162 126.505 125.02Z" fill="black"/>
</g>
</svg>
