<svg width="32" height="32" viewBox="0 0 32 32" fill="none" xmlns="http://www.w3.org/2000/svg">
<path d="M19.6572 25.1991L17.8369 24.5924C18.2282 24.3052 18.5463 23.9301 18.7658 23.4972C18.9853 23.0644 19.0999 22.586 19.1003 22.1007C18.9558 17.9991 13.0447 17.9963 12.8992 22.1007C12.8996 22.586 13.0142 23.0644 13.2337 23.4973C13.4532 23.9301 13.7714 24.3052 14.1626 24.5924L12.3423 25.1991C11.8075 25.3768 11.3423 25.7186 11.0128 26.1758C10.6833 26.633 10.5063 27.1824 10.5068 27.746V28.8761C10.5072 29.1741 10.6257 29.4598 10.8364 29.6706C11.0471 29.8813 11.3329 29.9998 11.6309 30.0001H20.3687C20.6667 29.9998 20.9524 29.8813 21.1631 29.6706C21.3738 29.4598 21.4924 29.1741 21.4927 28.8761V27.746C21.4932 27.1824 21.3162 26.633 20.9867 26.1758C20.6572 25.7186 20.192 25.3768 19.6572 25.1991ZM15.9998 20.0001C16.5536 20.0051 17.083 20.2286 17.4728 20.622C17.8627 21.0154 18.0814 21.5468 18.0814 22.1006C18.0814 22.6544 17.8626 23.1858 17.4728 23.5792C17.0829 23.9726 16.5535 24.1961 15.9997 24.201C15.4459 24.196 14.9165 23.9725 14.5266 23.5792C14.1368 23.1858 13.9181 22.6544 13.9181 22.1005C13.9181 21.5467 14.1368 21.0153 14.5267 20.6219C14.9165 20.2286 15.446 20.0051 15.9998 20.0001ZM20.4927 28.8761C20.4926 28.909 20.4795 28.9405 20.4563 28.9637C20.433 28.987 20.4015 29.0001 20.3687 29.0001H11.6309C11.598 29.0001 11.5665 28.987 11.5432 28.9637C11.52 28.9405 11.5069 28.909 11.5069 28.8761V27.746C11.5065 27.3923 11.6176 27.0475 11.8244 26.7606C12.0312 26.4737 12.3231 26.2593 12.6587 26.1478C13.8712 25.8085 15.7036 24.8319 16.9756 25.3595L19.3408 26.1478C19.6765 26.2593 19.9684 26.4737 20.1752 26.7606C20.382 27.0475 20.4931 27.3923 20.4927 27.746L20.4927 28.8761Z" fill="black"/>
<path d="M28.0128 24.3157L25.9211 23.6197C28.5941 21.7965 27.2886 17.4927 24.0079 17.5C23.2951 17.5059 22.6026 17.7378 22.0301 18.1622C21.4575 18.5867 21.0343 19.1819 20.8216 19.8622C20.6088 20.5424 20.6173 21.2726 20.8459 21.9477C21.0745 22.6229 21.5114 23.208 22.0938 23.619L21.1681 23.9253C21.0448 23.969 20.9436 24.0592 20.8861 24.1767C20.8286 24.2941 20.8194 24.4294 20.8605 24.5536C20.9016 24.6777 20.9896 24.7808 21.1058 24.8408C21.222 24.9008 21.3571 24.9129 21.4821 24.8745L22.9183 24.3994C24.4119 23.8202 26.2708 24.8711 27.6962 25.2641C28.0756 25.3902 28.4056 25.6325 28.6397 25.9566C28.8737 26.2807 28.9998 26.6703 29.0001 27.0701V28.3149C29.0004 28.3393 28.9958 28.3635 28.9866 28.3861C28.9774 28.4086 28.9637 28.4291 28.9465 28.4464C28.9293 28.4636 28.9088 28.4772 28.8862 28.4864C28.8636 28.4956 28.8394 28.5003 28.8151 28.5H22.9901C22.8575 28.5 22.7303 28.5527 22.6366 28.6464C22.5428 28.7402 22.4901 28.8674 22.4901 29C22.4901 29.1326 22.5428 29.2598 22.6366 29.3535C22.7303 29.4473 22.8575 29.5 22.9901 29.5H28.8151C29.1293 29.4996 29.4305 29.3747 29.6526 29.1525C29.8748 28.9303 29.9998 28.6291 30.0001 28.3149V27.0701C29.9999 26.4605 29.8078 25.8664 29.4511 25.372C29.0945 24.8777 28.5913 24.5081 28.0128 24.3157ZM24.0079 23.2212C20.8883 23.1218 20.889 18.5988 24.0079 18.5C27.1273 18.5992 27.1265 23.1224 24.0079 23.2212Z" fill="black"/>
<path d="M9.01001 28.4999H3.18507C3.13555 28.4986 3.08849 28.478 3.05392 28.4426C3.01935 28.4071 3.00001 28.3595 3.00001 28.31V27.07C2.99907 26.6699 3.12466 26.2798 3.35882 25.9555C3.59298 25.6311 3.92371 25.3891 4.30372 25.2641L6.90333 24.3942C7.61049 24.1604 8.37411 24.1603 9.08133 24.3939L10.5164 24.8739C10.6413 24.9131 10.7767 24.9016 10.8933 24.8421C11.0099 24.7825 11.0985 24.6796 11.1401 24.5554C11.1816 24.4313 11.1728 24.2957 11.1155 24.178C11.0583 24.0602 10.9571 23.9697 10.8337 23.9257L9.90808 23.616C10.3536 23.3073 10.7178 22.8952 10.9694 22.415C11.2211 21.9349 11.3527 21.4009 11.3531 20.8588C11.196 16.4132 4.78985 16.4101 4.63189 20.8589C4.63225 21.401 4.7639 21.935 5.01557 22.4152C5.26725 22.8953 5.63146 23.3074 6.07708 23.6162L3.98829 24.3151C3.40877 24.506 2.90443 24.8753 2.54735 25.3701C2.19026 25.8648 1.99869 26.4598 2.00001 27.07V28.31C1.99972 28.6248 2.12433 28.9269 2.34649 29.15C2.56866 29.3731 2.87023 29.4989 3.18507 29.4999H9.01001C9.14093 29.4974 9.26562 29.4436 9.35731 29.3501C9.449 29.2566 9.50035 29.1308 9.50035 28.9999C9.50035 28.869 9.449 28.7432 9.35731 28.6497C9.26562 28.5563 9.14093 28.5025 9.01001 28.4999ZM7.99244 18.4982C11.113 18.5978 11.1109 23.122 7.99097 23.219C4.87235 23.1182 4.87451 18.5969 7.99244 18.4982Z" fill="black"/>
<path d="M4.79274 17.8069C4.85604 17.7895 4.91528 17.7597 4.96708 17.7194C5.01888 17.6791 5.06223 17.6289 5.09466 17.5718C5.12708 17.5147 5.14793 17.4518 5.15603 17.3867C5.16413 17.3215 5.15932 17.2554 5.14186 17.1921C4.87988 16.2334 4.74808 15.2438 4.75002 14.25C4.75002 11.2663 5.93528 8.40483 8.04507 6.29505C10.1549 4.18526 13.0163 3 16 3C18.9837 3 21.8452 4.18526 23.955 6.29505C26.0648 8.40483 27.25 11.2663 27.25 14.25C27.252 15.2438 27.1202 16.2334 26.8582 17.1921C26.8407 17.2554 26.8359 17.3215 26.844 17.3867C26.8521 17.4518 26.873 17.5147 26.9054 17.5718C26.9378 17.6289 26.9812 17.6791 27.033 17.7194C27.0848 17.7597 27.144 17.7895 27.2073 17.8069C27.2506 17.819 27.2954 17.8252 27.3403 17.8252C27.4498 17.825 27.5561 17.789 27.6431 17.7226C27.7301 17.6563 27.7929 17.5632 27.822 17.4578C28.108 16.4126 28.2519 15.3336 28.25 14.25C28.25 11.0011 26.9594 7.88526 24.6621 5.58794C22.3648 3.29062 19.2489 2 16 2C12.7511 2 9.63528 3.29062 7.33796 5.58794C5.04064 7.88526 3.75002 11.0011 3.75002 14.25C3.74812 15.3336 3.89207 16.4126 4.17802 17.4578C4.19539 17.5211 4.22508 17.5804 4.26539 17.6322C4.30571 17.684 4.35585 17.7274 4.41295 17.7599C4.47006 17.7923 4.53299 17.8131 4.59816 17.8212C4.66333 17.8293 4.72946 17.8244 4.79274 17.8069Z" fill="black"/>
<path d="M10 11.0381C10 12.2248 10.3519 13.3848 11.0112 14.3715C11.6705 15.3582 12.6075 16.1272 13.7039 16.5814C14.8003 17.0355 16.0067 17.1543 17.1705 16.9228C18.3344 16.6913 19.4035 16.1198 20.2426 15.2807C21.0818 14.4416 21.6532 13.3725 21.8847 12.2086C22.1162 11.0447 21.9974 9.83834 21.5433 8.74199C21.0892 7.64563 20.3201 6.70856 19.3334 6.04927C18.3467 5.38998 17.1867 5.03809 16 5.03809C14.4093 5.03991 12.8842 5.67263 11.7594 6.79745C10.6345 7.92228 10.0018 9.44735 10 11.0381ZM21 11.0381C21 12.027 20.7068 12.9937 20.1573 13.8159C19.6079 14.6382 18.827 15.279 17.9134 15.6575C16.9998 16.0359 15.9945 16.1349 15.0245 15.942C14.0546 15.7491 13.1637 15.2729 12.4645 14.5736C11.7652 13.8744 11.289 12.9834 11.0961 12.0135C10.9031 11.0436 11.0022 10.0383 11.3806 9.12467C11.759 8.21104 12.3999 7.43014 13.2221 6.88074C14.0444 6.33133 15.0111 6.03809 16 6.03809C17.3256 6.03956 18.5965 6.56682 19.5339 7.50418C20.4713 8.44154 20.9985 9.71246 21 11.0381Z" fill="black"/>
<path d="M15.4998 7.50928V7.97168H14.7163C14.4136 7.97206 14.1234 8.09249 13.9094 8.30656C13.6954 8.52062 13.575 8.81083 13.5747 9.11352V10.3967C13.575 10.6994 13.6954 10.9896 13.9094 11.2037C14.1234 11.4178 14.4136 11.5382 14.7163 11.5386H15.4998V13.1052H14.7163C14.6787 13.1052 14.6427 13.0902 14.6162 13.0636C14.5896 13.037 14.5747 13.001 14.5747 12.9634C14.5747 12.8308 14.522 12.7036 14.4283 12.6098C14.3345 12.5161 14.2073 12.4634 14.0747 12.4634C13.9421 12.4634 13.8149 12.5161 13.7212 12.6098C13.6274 12.7036 13.5747 12.8308 13.5747 12.9634C13.575 13.2661 13.6954 13.5563 13.9094 13.7704C14.1234 13.9844 14.4136 14.1049 14.7163 14.1052H15.4998V14.5676C15.4998 14.7003 15.5524 14.8274 15.6462 14.9212C15.74 15.015 15.8671 15.0676 15.9998 15.0676C16.1324 15.0676 16.2595 15.015 16.3533 14.9212C16.4471 14.8274 16.4998 14.7003 16.4998 14.5676V14.1052H17.2832C17.5859 14.1049 17.8761 13.9844 18.0901 13.7704C18.3041 13.5563 18.4245 13.2661 18.4248 12.9634V11.6802C18.4244 11.3775 18.304 11.0874 18.09 10.8733C17.876 10.6593 17.5859 10.5389 17.2832 10.5386H16.4998V8.97168H17.2832C17.3208 8.97176 17.3568 8.98674 17.3833 9.01333C17.4099 9.03992 17.4248 9.07595 17.4248 9.11352C17.4248 9.24613 17.4775 9.37331 17.5713 9.46708C17.665 9.56084 17.7922 9.61352 17.9248 9.61352C18.0574 9.61352 18.1846 9.56084 18.2784 9.46708C18.3721 9.37331 18.4248 9.24613 18.4248 9.11352C18.4245 8.81083 18.3041 8.52062 18.0901 8.30656C17.8761 8.09249 17.5859 7.97206 17.2832 7.97168H16.4998V7.50928C16.4998 7.37667 16.4471 7.24949 16.3533 7.15572C16.2595 7.06196 16.1324 7.00928 15.9998 7.00928C15.8671 7.00928 15.74 7.06196 15.6462 7.15572C15.5524 7.24949 15.4998 7.37667 15.4998 7.50928ZM17.2832 11.5386C17.3207 11.5386 17.3567 11.5535 17.3833 11.5801C17.4099 11.6066 17.4248 11.6426 17.4248 11.6802V12.9634C17.4248 13.0009 17.4099 13.037 17.3833 13.0636C17.3568 13.0902 17.3208 13.1051 17.2832 13.1052H16.4998V11.5386H17.2832ZM15.4998 10.5386H14.7163C14.6787 10.5385 14.6427 10.5235 14.6162 10.4969C14.5896 10.4703 14.5747 10.4343 14.5747 10.3967V9.11352C14.5747 9.07595 14.5896 9.03992 14.6162 9.01333C14.6427 8.98674 14.6787 8.97176 14.7163 8.97168H15.4998V10.5386Z" fill="black"/>
</svg>
