<svg width="64" height="65" viewBox="0 0 64 65" fill="none" xmlns="http://www.w3.org/2000/svg">
<path d="M58.6667 32.5C58.6667 36.0021 57.9769 39.4699 56.6367 42.7054C55.2965 45.9409 53.3321 48.8807 50.8558 51.3571C48.3794 53.8334 45.4396 55.7978 42.2041 57.138C38.9686 58.4782 35.5008 59.168 31.9987 59.168C28.4966 59.168 25.0288 58.4782 21.7933 57.138C18.5577 55.7978 15.6179 53.8334 13.1415 51.3571C10.6652 48.8807 8.70083 45.9409 7.36064 42.7054C6.02045 39.4699 5.33066 36.0021 5.33066 32.5C5.33066 25.4272 8.14031 18.6441 13.1415 13.6428C18.1428 8.64163 24.9259 5.83197 31.9987 5.83197C39.0715 5.83197 45.8546 8.64163 50.8558 13.6428C55.857 18.6441 58.6667 25.4272 58.6667 32.5Z" stroke="#CFA935" stroke-width="2"/>
<path d="M42.6667 32.5C42.6667 36.0013 42.3893 39.4706 41.8533 42.7053C41.32 45.94 40.5333 48.8786 39.5413 51.356C38.552 53.8333 37.376 55.796 36.0827 57.1373C34.7867 58.476 33.4 59.1666 32 59.1666C30.6 59.1666 29.2133 58.476 27.92 57.1373C26.624 55.796 25.448 53.8306 24.4587 51.356C23.4667 48.8786 22.68 45.9426 22.144 42.7053C21.5971 39.3312 21.326 35.9181 21.3333 32.5C21.3333 28.9986 21.608 25.5293 22.144 22.2946C22.68 19.06 23.4667 16.1213 24.4587 13.644C25.448 11.1666 26.624 9.20398 27.9173 7.86265C29.2133 6.52665 30.6 5.83331 32 5.83331C33.4 5.83331 34.7867 6.52398 36.08 7.86265C37.376 9.20398 38.552 11.1693 39.5413 13.644C40.5333 16.1213 41.32 19.0573 41.8533 22.2946C42.392 25.5293 42.6667 28.9986 42.6667 32.5Z" stroke="#CFA935" stroke-width="2"/>
<path d="M5.33331 32.5H58.6666" stroke="#CFA935" stroke-width="2" stroke-linecap="round"/>
</svg>
