<svg width="122" height="123" viewBox="0 0 122 123" fill="none" xmlns="http://www.w3.org/2000/svg">
<path fill-rule="evenodd" clip-rule="evenodd" d="M39.2627 67.1453H29.6443C28.5872 67.1453 27.7306 66.2884 27.7306 65.2316V41.8808C27.7306 40.8239 28.5872 39.967 29.6443 39.967H39.3799C41.2585 38.6016 43.3186 37.3022 44.951 35.7123C46.4311 34.2708 47.5369 32.5705 47.5369 30.203V23.1145C47.5369 22.0574 48.3938 21.2008 49.4507 21.2008C55.1782 21.2008 59.8666 25.8892 59.8666 31.6167V37.1149C59.8666 37.2022 59.8606 37.2895 59.8487 37.3763C59.7869 37.8239 59.6602 38.337 59.4623 38.8853C59.7767 38.8265 60.1008 38.7958 60.4319 38.7958H68.8482C71.7587 38.7958 74.1394 41.1765 74.1394 44.0871C74.1394 45.0114 73.8995 45.8821 73.4785 46.6404C74.7437 47.6095 75.5632 49.1347 75.5632 50.8425C75.5632 52.8557 74.4241 54.6157 72.7584 55.5094C72.9338 55.9146 73.0601 56.3457 73.1292 56.7951L74.5767 56.715C75.3178 56.6743 75.9421 56.4502 76.5296 56.0074C76.5311 56.0065 76.5325 56.0053 76.534 56.0043L79.8602 53.5112L79.8641 53.5083C82.5462 51.5085 86.088 51.5085 88.7701 53.5083L88.7739 53.5112L92.099 56.0033C92.693 56.4476 93.314 56.6743 94.0575 56.715L98.204 56.9442L98.2055 56.9444C101.545 57.1315 104.267 59.4155 105.024 62.6672L105.975 66.7159L105.976 66.72C106.143 67.4386 106.473 68.0125 107.015 68.5186L107.019 68.522L110.047 71.3627C112.489 73.6548 113.105 77.1538 111.591 80.1354C111.591 80.1354 109.719 83.8387 109.716 83.8435C109.387 84.504 109.269 85.1556 109.359 85.8931C109.359 85.895 109.36 85.8969 109.36 85.8988L109.853 90.0239L109.853 90.0263C110.246 93.3456 108.478 96.4217 105.393 97.7395L103.066 98.7359C104.888 102.651 109.08 111.66 109.08 111.66C109.485 112.514 109.372 113.433 108.813 114.144C108.257 114.881 107.405 115.218 106.486 115.052L100.36 113.983C100.36 113.983 97.2345 119.35 97.2314 119.355C96.7852 120.136 95.9757 120.593 95.0555 120.56C94.1412 120.526 93.3836 120.037 92.9774 119.19C92.9741 119.184 92.9709 119.177 92.9676 119.17L87.0963 106.559L85.3577 106.035C85.3546 106.034 85.3512 106.033 85.3481 106.032C84.6472 105.816 83.987 105.816 83.2861 106.032C83.283 106.033 83.2796 106.034 83.2765 106.035L81.5379 106.559C80.209 109.414 75.6723 119.157 75.6737 119.155C75.2898 120.006 74.5049 120.525 73.5789 120.56C72.6596 120.593 71.8508 120.138 71.4057 119.36L68.2803 113.983L62.1482 115.052C61.2249 115.218 60.3709 114.878 59.8238 114.147C59.2609 113.425 59.1509 112.509 59.5537 111.66L65.5681 98.7359L63.2403 97.7393C60.1644 96.421 58.3885 93.3451 58.781 90.0263L58.7813 90.0239L59.2743 85.8988C59.2745 85.8969 59.2748 85.895 59.275 85.8931C59.3657 85.1537 59.2461 84.5009 58.9157 83.8387C58.9157 83.8387 57.0431 80.1354 57.0446 80.1383C55.5291 77.1538 56.1451 73.6548 58.587 71.3627L60.4134 69.6494C60.0379 69.648 59.6712 69.6071 59.3174 69.5305C50.0609 71.1244 44.6987 71.9562 39.2627 67.1453ZM38.0958 43.7945C37.9757 43.7945 31.5581 43.7945 31.5581 43.7945V63.3178H38.0958V43.7945ZM54.3252 53.299C53.6008 53.8535 52.9179 54.2877 52.3878 54.5922C51.472 55.1182 50.3013 54.8015 49.7753 53.8856C49.2493 52.9696 49.566 51.7991 50.4817 51.2731C52.2399 50.2634 57.2013 47.1751 54.0166 42.5286C53.4956 41.7683 53.5903 40.745 54.2419 40.0933C55.2866 39.0487 55.8832 37.8428 56.0392 36.9668V31.6167C56.0392 28.6586 54.062 26.1387 51.3644 25.3134V30.203C51.3644 33.7276 49.8248 36.3082 47.6216 38.4542C45.9464 40.0857 43.8612 41.4471 41.924 42.8479C41.9355 54.8606 41.9374 62.0423 41.9302 64.391C44.4441 66.5441 46.964 67.1068 50.0922 66.9628C51.7278 66.8877 53.5114 66.6343 55.5119 66.3018C55.2722 65.6995 55.1404 65.0433 55.1404 64.3579C55.1404 63.076 55.6023 61.8969 56.3678 60.9785C55.6023 60.0592 55.1404 58.8792 55.1404 57.5977C55.1404 56.6734 55.3804 55.8026 55.8014 55.0443C55.1921 54.5776 54.6861 53.982 54.3252 53.299ZM69.274 57.0963C69.068 56.5361 68.5284 56.1337 67.899 56.1337H60.4319C59.6264 56.1337 58.9679 56.7925 58.9679 57.5977C58.9679 58.4008 59.6209 59.062 60.4233 59.0667H60.4319L61.544 59.0617C61.5476 59.0617 61.5512 59.0615 61.5547 59.0617L65.6028 59.0663C66.5912 58.0843 67.855 57.3941 69.274 57.0963ZM59.0081 52.3063H70.2718C71.0772 52.3063 71.7358 51.6477 71.7358 50.8425C71.7358 50.0371 71.0772 49.3785 70.2718 49.3785H59.0081C58.2029 49.3785 57.5441 50.0371 57.5441 50.8425C57.5441 51.6477 58.2029 52.3063 59.0081 52.3063ZM68.8482 45.551C69.6534 45.551 70.312 44.8925 70.312 44.0871C70.312 43.2819 69.6534 42.6233 68.8482 42.6233H60.4319C59.6264 42.6233 58.9679 43.2819 58.9679 44.0871C58.9679 44.8925 59.6264 45.551 60.4319 45.551H68.8482ZM99.8539 100.905L97.7074 104.187C96.341 106.278 94.1431 107.482 91.784 107.56C92.8767 109.907 94.3055 112.976 95.2882 115.086L97.7225 110.906C98.1253 110.214 98.9164 109.846 99.7051 109.984L104.466 110.814L99.8539 100.905ZM76.8502 107.56C74.4911 107.482 72.2934 106.279 70.9272 104.188L68.7803 100.905L64.1684 110.815L68.9362 109.984C69.7254 109.846 70.5167 110.215 70.9193 110.907L73.3471 115.084L76.8502 107.56ZM62.869 65.8219C63.0919 64.873 63.4295 63.4365 63.5575 62.8913L61.5557 62.8892L60.4405 62.8942C60.4376 62.8942 60.4347 62.8942 60.4319 62.8942C59.6264 62.8942 58.9679 63.5527 58.9679 64.3579C58.9679 65.0089 59.3997 65.5624 59.9893 65.7526C60.1288 65.7978 60.2776 65.8219 60.4319 65.8219H62.869ZM71.1186 60.7396L70.6426 60.7659C69.0243 60.8565 67.7043 61.9615 67.3371 63.5389L67.3361 63.5429L66.3848 67.5912C66.0381 69.0779 65.3549 70.2661 64.2332 71.3139L61.2064 74.1534C60.0233 75.264 59.7228 76.9591 60.4572 78.4054L60.4589 78.4083L62.3339 82.1166C62.3351 82.1192 62.3363 82.1219 62.3377 82.1243C63.0195 83.4878 63.2606 84.8329 63.0745 86.3548L62.5819 90.4762C62.3915 92.0878 63.2544 93.5813 64.7478 94.2212L68.5578 95.8521C69.9682 96.4509 71.0164 97.3367 71.8575 98.617L71.8597 98.6203L74.131 102.093C75.0204 103.455 76.6366 104.038 78.1932 103.571L82.1665 102.372C83.6281 101.923 85.006 101.923 86.4676 102.372L90.441 103.571C91.9976 104.038 93.6137 103.455 94.5034 102.093L96.7745 98.6203L96.7766 98.617C97.6177 97.3367 98.666 96.4509 100.076 95.8521L103.887 94.2209L103.888 94.2204C105.386 93.5805 106.243 92.0873 106.052 90.4762L105.56 86.3548C105.374 84.8329 105.615 83.4878 106.296 82.1243C106.298 82.1219 106.299 82.1192 106.3 82.1166L108.175 78.4083L108.177 78.4054C108.911 76.9591 108.611 75.264 107.428 74.1534L104.401 71.3139C103.279 70.2661 102.596 69.0779 102.249 67.5912L101.298 63.5429L101.297 63.5389C100.93 61.9615 99.6099 60.8565 97.9916 60.7659L93.8477 60.5367C92.3133 60.4525 91.0316 59.9848 89.8061 59.0679L89.8049 59.067L86.4813 56.576C85.1775 55.6046 83.4566 55.6046 82.1529 56.576L78.8302 59.0663C77.6131 59.9829 76.3218 60.4525 74.7872 60.5367L71.1786 60.7362C71.1585 60.7374 71.1387 60.7386 71.1186 60.7396ZM84.3197 98.7502C73.8741 98.7502 65.3525 90.2339 65.3525 79.7883C65.3525 69.3427 73.8741 60.8211 84.3197 60.8211C94.7653 60.8211 103.282 69.3427 103.282 79.7883C103.282 90.2341 94.7653 98.7502 84.3197 98.7502ZM84.3197 94.9228C92.6569 94.9228 99.4542 88.1255 99.4542 79.7883C99.4542 71.4509 92.6571 64.6486 84.3197 64.6486C75.9821 64.6486 69.18 71.4507 69.18 79.7883C69.18 88.1257 75.9821 94.9228 84.3197 94.9228ZM82.0742 78.5757L89.0083 71.5689L89.0119 71.5653C90.7379 69.8305 93.5549 69.8223 95.2899 71.5483C97.0237 73.2733 97.0355 76.0798 95.3105 77.8224L95.3095 77.8234C91.9447 81.2188 88.6053 84.6346 85.2251 88.0147C83.4913 89.7485 80.676 89.7485 78.9421 88.0147L73.3409 82.4082C71.608 80.6753 71.6044 77.8705 73.3373 76.1288L73.3409 76.1254C75.0747 74.3916 77.8901 74.3916 79.6239 76.1254L82.0742 78.5757ZM80.7279 82.6424L76.9174 78.8317C76.678 78.5922 76.2892 78.5918 76.0491 78.83C75.8096 79.0726 75.8067 79.4613 76.0474 79.702L81.6486 85.3082C81.8888 85.5484 82.2787 85.5484 82.5187 85.3082C85.8945 81.9324 89.2296 78.5212 92.5901 75.1301C92.8288 74.8887 92.8303 74.5005 92.5903 74.2615C92.3516 74.0239 91.9638 74.0256 91.7258 74.2643L83.4413 82.6352C83.0832 82.9972 82.5954 83.2014 82.0862 83.2029C81.5769 83.2041 81.0881 83.0024 80.7279 82.6424ZM57.6048 96.4504C58.6186 96.1547 59.6819 96.7377 59.9778 97.7515C60.2738 98.7655 59.6908 99.8288 58.6767 100.125C56.9685 100.623 55.2196 101.031 53.4346 101.342L51.9768 101.6C51.7553 101.64 51.5287 101.64 51.3075 101.6L49.8492 101.342C26.7056 97.309 9.59375 76.9948 9.59375 53.4806V21.0326C9.59375 20.2672 10.0499 19.5756 10.7535 19.2739L50.8879 2.06499C51.3694 1.85855 51.9146 1.85855 52.3961 2.06499L92.5401 19.2737C93.2439 19.5753 93.6998 20.2672 93.6998 21.0326V51.0884C93.6998 52.1446 92.8425 53.0021 91.7861 53.0021C90.73 53.0021 89.8724 52.1446 89.8724 51.0884V22.2945L51.6421 5.90608L13.4212 22.2943V53.4806C13.4212 75.1437 29.1877 93.858 50.5099 97.5716C50.5121 97.5718 50.5142 97.5723 50.5164 97.5728L51.6421 97.7728L52.7679 97.5728C52.77 97.5723 52.7722 97.5718 52.7743 97.5716C54.4192 97.2853 56.0308 96.9097 57.6048 96.4504ZM84.2369 46.3974C84.2369 47.4535 83.3793 48.3111 82.3232 48.3111C81.2668 48.3111 80.4095 47.4535 80.4095 46.3974V28.1828L51.6419 15.8567L22.8843 28.1826V53.5739C22.8843 70.5663 35.0709 85.3216 51.6419 88.6517C52.3519 88.5092 53.0535 88.3455 53.7467 88.1618C54.7677 87.8913 55.8162 88.5003 56.087 89.5213C56.3575 90.5423 55.7485 91.5907 54.7275 91.8615C53.8307 92.0993 52.921 92.3065 51.9993 92.4816C51.7629 92.5266 51.5204 92.5266 51.284 92.4816C32.7398 88.9524 19.0569 72.5185 19.0569 53.5739V26.9207C19.0569 26.1552 19.5131 25.4634 20.2166 25.1617L50.8879 12.0156C51.3692 11.8092 51.9141 11.8092 52.3954 12.0154L83.0767 25.1617C83.7805 25.4632 84.2369 26.1552 84.2369 26.9207V46.3974Z" fill="#5B5A5F"/>
</svg>
