<svg width="32" height="32" viewBox="0 0 32 32" fill="none" xmlns="http://www.w3.org/2000/svg">
<path d="M29.5 17.5061H27.5C27.1899 17.5065 26.8876 17.6029 26.6344 17.7819C26.3812 17.9609 26.1897 18.2139 26.086 18.5061H24.6762C24.6179 18.5062 24.5601 18.496 24.5053 18.476L21.1294 17.2484C20.608 17.0593 20.0538 16.9776 19.5 17.0082V17.0061H13.6623C13.5011 17.0061 13.3409 17.0321 13.1879 17.0831L8.99664 18.4802C8.94555 18.4979 8.89177 18.5066 8.83771 18.5059L5.91217 18.5008C5.80769 18.2098 5.61602 17.9582 5.3633 17.7802C5.11058 17.6022 4.80911 17.5065 4.5 17.5061H2.5C2.10231 17.5066 1.72104 17.6648 1.43983 17.946C1.15862 18.2272 1.00044 18.6085 1 19.0061V26.0061C1.00044 26.4038 1.15862 26.7851 1.43983 27.0663C1.72104 27.3475 2.10231 27.5057 2.5 27.5061H4.5C4.89769 27.5057 5.27896 27.3475 5.56017 27.0663C5.84138 26.7851 5.99956 26.4038 6 26.0061V26.0016L7.3017 26.0055C7.33154 26.0413 7.36292 26.0761 7.39645 26.1097C7.67444 26.388 8.04763 26.5506 8.44076 26.5647C8.45532 26.9579 8.61801 27.3311 8.89621 27.6094C9.1744 27.8878 9.54753 28.0506 9.94077 28.0654C9.9502 28.3092 10.0166 28.5474 10.1348 28.761C10.2529 28.9745 10.4194 29.1574 10.6209 29.295C10.8225 29.4325 11.0534 29.521 11.2953 29.5532C11.5372 29.5854 11.7833 29.5604 12.0138 29.4804C12.0822 29.6943 12.1959 29.891 12.3473 30.0569C12.4986 30.2229 12.684 30.3542 12.8907 30.442C13.0975 30.5297 13.3207 30.5719 13.5452 30.5654C13.7697 30.559 13.9902 30.5042 14.1916 30.4048L14.3965 30.6097C14.5756 30.789 14.7957 30.922 15.0378 30.9971C15.2798 31.0722 15.5366 31.0872 15.7857 31.0407C16.0349 30.9943 16.269 30.8879 16.4678 30.7306C16.6665 30.5734 16.824 30.3701 16.9265 30.1383C17.1183 30.32 17.3531 30.4501 17.6088 30.5164C17.8646 30.5827 18.133 30.5829 18.389 30.5172C18.6449 30.4514 18.8799 30.3217 19.072 30.1403C19.2641 29.9589 19.4071 29.7317 19.4874 29.48C19.7644 29.5759 20.0628 29.592 20.3486 29.5266C20.6343 29.4611 20.8959 29.3166 21.1035 29.1097C21.28 28.9335 21.4113 28.7174 21.4864 28.4797C21.7625 28.576 22.0602 28.5928 22.3453 28.5281C22.6305 28.4634 22.8918 28.3199 23.0993 28.1139C23.3069 27.9079 23.4524 27.6477 23.5192 27.363C23.586 27.0783 23.5714 26.7806 23.4771 26.5038L24.3983 26.5015C24.8899 26.5008 25.3702 26.3547 25.779 26.0816L26 25.9343V26.0061C26.0004 26.4038 26.1586 26.7851 26.4398 27.0663C26.721 27.3475 27.1023 27.5057 27.5 27.5061H29.5C29.8977 27.5057 30.279 27.3475 30.5602 27.0663C30.8414 26.7851 30.9996 26.4038 31 26.0061V19.0061C30.9996 18.6085 30.8414 18.2272 30.5602 17.946C30.279 17.6648 29.8977 17.5066 29.5 17.5061ZM5 26.0061C4.99985 26.1387 4.94712 26.2658 4.85339 26.3595C4.75965 26.4533 4.63256 26.506 4.5 26.5061H2.5C2.36744 26.506 2.24035 26.4533 2.14661 26.3595C2.05288 26.2658 2.00015 26.1387 2 26.0061V19.0061C2.00015 18.8736 2.05288 18.7465 2.14661 18.6528C2.24035 18.559 2.36744 18.5063 2.5 18.5061H4.5C4.63256 18.5063 4.75965 18.559 4.85339 18.6528C4.94712 18.7465 4.99985 18.8736 5 19.0061V26.0061ZM8.5 25.5668C8.38911 25.5668 8.28071 25.5339 8.18851 25.4723C8.09631 25.4107 8.02444 25.3231 7.98201 25.2207C7.93957 25.1183 7.92847 25.0055 7.9501 24.8968C7.97174 24.788 8.02514 24.6881 8.10355 24.6097L9.10355 23.6097C9.20872 23.5047 9.35129 23.4457 9.49992 23.4457C9.64855 23.4458 9.79108 23.5049 9.89618 23.61C10.0013 23.7151 10.0603 23.8576 10.0604 24.0062C10.0604 24.1549 10.0015 24.2974 9.89645 24.4026L8.89645 25.4026C8.84451 25.4548 8.78273 25.4962 8.71467 25.5244C8.64662 25.5526 8.57366 25.567 8.5 25.5668ZM10 27.0668C9.88911 27.0668 9.78071 27.0339 9.68851 26.9723C9.59631 26.9107 9.52444 26.8231 9.48201 26.7207C9.43957 26.6183 9.42847 26.5055 9.4501 26.3968C9.47174 26.288 9.52514 26.1881 9.60355 26.1097L10.6035 25.1097L11.1035 24.6097C11.2087 24.5047 11.3513 24.4457 11.4999 24.4457C11.6486 24.4458 11.7911 24.5049 11.8962 24.61C12.0013 24.7151 12.0603 24.8576 12.0604 25.0062C12.0604 25.1549 12.0015 25.2974 11.8965 25.4026L10.3965 26.9026C10.3445 26.9548 10.2827 26.9962 10.2147 27.0244C10.1466 27.0526 10.0737 27.067 10 27.0668ZM11.8965 28.4026C11.7913 28.5076 11.6487 28.5666 11.5001 28.5665C11.3514 28.5665 11.2089 28.5074 11.1038 28.4023C10.9987 28.2972 10.9397 28.1547 10.9396 28.0061C10.9396 27.8574 10.9985 27.7149 11.1035 27.6097L12.6035 26.1097C12.7087 26.0047 12.8513 25.9457 12.9999 25.9457C13.1486 25.9458 13.2911 26.0049 13.3962 26.11C13.5013 26.2151 13.5603 26.3576 13.5604 26.5062C13.5604 26.6549 13.5015 26.7974 13.3965 26.9026L12.3965 27.9026L11.8965 28.4026ZM13.8965 29.4026C13.7913 29.5076 13.6487 29.5666 13.5001 29.5665C13.3514 29.5665 13.2089 29.5074 13.1038 29.4023C12.9987 29.2972 12.9397 29.1547 12.9396 29.0061C12.9396 28.8574 12.9985 28.7149 13.1035 28.6097L14.1035 27.6097C14.2087 27.5047 14.3513 27.4457 14.4999 27.4457C14.6486 27.4458 14.7911 27.5049 14.8962 27.61C15.0013 27.7151 15.0603 27.8576 15.0604 28.0062C15.0604 28.1549 15.0015 28.2974 14.8965 28.4026L13.8965 29.4026ZM15.8965 29.9026C15.7912 30.0076 15.6486 30.0665 15.5 30.0665C15.3514 30.0665 15.2088 30.0076 15.1035 29.9026L14.9571 29.7561L15.6035 29.1097C15.6524 29.0606 15.698 29.0083 15.74 28.9532L15.8965 29.1097C16.0014 29.2149 16.0604 29.3575 16.0604 29.5061C16.0604 29.6548 16.0014 29.7974 15.8965 29.9026ZM22.3965 27.4026C22.2912 27.5076 22.1486 27.5665 22 27.5665C21.8514 27.5665 21.7088 27.5076 21.6035 27.4026L21.1035 26.9026L17.8535 23.6526L17.1465 24.3597L20.3965 27.6097C20.4486 27.6617 20.4899 27.7235 20.5182 27.7916C20.5464 27.8596 20.5609 27.9326 20.5609 28.0062C20.561 28.0799 20.5465 28.1528 20.5183 28.2209C20.4901 28.2889 20.4488 28.3508 20.3967 28.4029C20.3446 28.455 20.2828 28.4963 20.2147 28.5244C20.1467 28.5526 20.0737 28.5671 20.0001 28.5671C19.9264 28.5671 19.8535 28.5525 19.7854 28.5243C19.7174 28.4961 19.6556 28.4547 19.6035 28.4026L19.1035 27.9026L16.8535 25.6526L16.1465 26.3597L18.3965 28.6097C18.5015 28.7149 18.5604 28.8574 18.5604 29.0061C18.5603 29.1547 18.5013 29.2972 18.3962 29.4023C18.2911 29.5074 18.1486 29.5665 17.9999 29.5665C17.8513 29.5666 17.7087 29.5076 17.6035 29.4026L16.6035 28.4026L16.0522 27.8512C16.0153 27.4762 15.8437 27.1273 15.5691 26.8692C15.2946 26.6111 14.9358 26.4613 14.5592 26.4476C14.5447 26.0544 14.382 25.6812 14.1038 25.4028C13.8256 25.1245 13.4525 24.9617 13.0592 24.9469C13.0498 24.7031 12.9834 24.4648 12.8652 24.2513C12.7471 24.0378 12.5806 23.8549 12.3791 23.7173C12.1775 23.5798 11.9466 23.4913 11.7047 23.4591C11.4628 23.4269 11.2167 23.4519 10.9862 23.5319C10.9051 23.2768 10.7596 23.0468 10.5638 22.8642C10.368 22.6815 10.1284 22.5524 9.86826 22.4891C9.60808 22.4259 9.336 22.4307 9.07823 22.5032C8.82045 22.5756 8.58566 22.7131 8.39646 22.9026L7.39646 23.9026C7.25166 24.0472 7.13681 24.219 7.05851 24.408C6.9802 24.5971 6.93996 24.7998 6.94011 25.0044L6 25.0016V19.5009L8.83597 19.5059H8.83853C8.99977 19.5059 9.15995 19.4799 9.3129 19.4289L13.5042 18.0318C13.5551 18.0148 13.6085 18.0061 13.6623 18.0061H17.019L13.8647 20.6347C13.6714 20.7949 13.5117 20.9917 13.3946 21.2137C13.2775 21.4358 13.2053 21.6788 13.1823 21.9287C13.1592 22.1787 13.1857 22.4308 13.2602 22.6705C13.3347 22.9102 13.4558 23.1329 13.6165 23.3257C13.7772 23.5186 13.9744 23.6778 14.1968 23.7943C14.4191 23.9109 14.6623 23.9824 14.9123 24.0048C15.1623 24.0272 15.4143 24 15.6539 23.9249C15.8934 23.8497 16.1157 23.7281 16.3082 23.5669L17.9693 22.1825L22.3965 26.6097C22.5014 26.7149 22.5604 26.8575 22.5604 27.0061C22.5604 27.1548 22.5014 27.2974 22.3965 27.4026ZM26 24.7325L25.2243 25.2496C24.979 25.4134 24.6908 25.501 24.3959 25.5015L22.7066 25.5056L20.132 22.9311C20.9982 22.956 21.845 22.6719 22.521 22.1297L22.8124 21.8966L22.1877 21.1157L21.8963 21.3488C21.3853 21.7583 20.7412 21.9648 20.0874 21.9286C19.4336 21.8924 18.8161 21.616 18.3535 21.1526L18.0307 20.8297L15.668 22.7986C15.5763 22.875 15.4705 22.9326 15.3567 22.9681C15.2428 23.0035 15.123 23.0162 15.0042 23.0054C14.8854 22.9946 14.7699 22.9606 14.6643 22.9051C14.5586 22.8497 14.465 22.774 14.3886 22.6823C14.3122 22.5907 14.2547 22.4849 14.2192 22.371C14.1837 22.2571 14.171 22.1374 14.1818 22.0186C14.1926 21.8998 14.2267 21.7843 14.2821 21.6786C14.3375 21.573 14.4132 21.4793 14.5049 21.403L17.7191 18.7244C18.1396 18.3754 18.6439 18.1423 19.1821 18.0483C19.7203 17.9542 20.2738 18.0025 20.7877 18.1882L24.1635 19.4158C24.3278 19.4757 24.5013 19.5062 24.6762 19.5061H26V24.7325ZM30 26.0061C29.9998 26.1387 29.9471 26.2658 29.8534 26.3595C29.7597 26.4533 29.6326 26.506 29.5 26.5061H27.5C27.3674 26.506 27.2403 26.4533 27.1466 26.3595C27.0529 26.2658 27.0002 26.1387 27 26.0061V19.0061C27.0002 18.8736 27.0529 18.7465 27.1466 18.6528C27.2403 18.559 27.3674 18.5063 27.5 18.5061H29.5C29.6326 18.5063 29.7597 18.559 29.8534 18.6528C29.9471 18.7465 29.9998 18.8736 30 19.0061V26.0061Z" fill="black"/>
<path d="M8.49979 15H7.99979V16H23.9998V15H23.4998V9.61803L24.19 8.23758L18.4998 5.96149V4.5C18.499 3.92394 18.2997 3.36575 17.9354 2.91951C17.5711 2.47328 17.0641 2.1663 16.4998 2.05031V1H15.4998V2.05031C14.9355 2.1663 14.4285 2.47328 14.0642 2.91951C13.6999 3.36575 13.5005 3.92394 13.4998 4.5V5.96149L7.80957 8.23758L8.49979 9.61803V15ZM10.4998 15H9.49979V10H10.4998V15ZM12.4998 15H11.4998V10H12.4998V15ZM14.4998 15H13.4998V10H14.4998V15ZM16.4998 15H15.4998V10H16.4998V15ZM18.4998 15H17.4998V10H18.4998V15ZM20.4998 15H19.4998V10H20.4998V15ZM22.4998 15H21.4998V10H22.4998V15ZM14.4998 4.5C14.4998 4.10218 14.6578 3.72064 14.9391 3.43934C15.2204 3.15804 15.602 3 15.9998 3C16.3976 3 16.7791 3.15804 17.0604 3.43934C17.3418 3.72064 17.4998 4.10218 17.4998 4.5V5.56149L15.9998 4.96149L14.4998 5.56149V4.5ZM15.9998 6.03851L22.8096 8.76242L22.6908 9H9.30881L9.19 8.76242L15.9998 6.03851Z" fill="black"/>
</svg>
