<svg width="49" height="48" viewBox="0 0 49 48" fill="none" xmlns="http://www.w3.org/2000/svg">
<path d="M27.4857 16.155H18.3221C17.6523 16.1571 17.0106 16.4241 16.5371 16.8977C16.0635 17.3712 15.7965 18.0129 15.7944 18.6827V29.2896C15.7965 29.9593 16.0635 30.601 16.5371 31.0745C17.0106 31.5481 17.6523 31.8151 18.3221 31.8172H27.4857C28.1558 31.8164 28.7983 31.5498 29.2721 31.076C29.746 30.6021 30.0125 29.9597 30.0133 29.2896V18.6826C30.0125 18.0125 29.746 17.3701 29.2721 16.8962C28.7983 16.4224 28.1558 16.1558 27.4857 16.155ZM24.4694 28.7703C24.2828 28.8442 24.0747 28.8425 23.8894 28.7655C23.704 28.6885 23.5559 28.5423 23.4766 28.3579L22.461 25.899H19.4981L18.4748 28.3579C18.3936 28.5404 18.2443 28.684 18.0587 28.7579C17.8731 28.8318 17.6659 28.8302 17.4815 28.7534C17.297 28.6767 17.1499 28.5308 17.0716 28.347C16.9932 28.1633 16.9898 27.9561 17.0621 27.7699C17.7923 26.012 19.5034 21.9086 20.2465 20.1106C20.2953 19.9544 20.3927 19.8178 20.5246 19.7209C20.6565 19.6239 20.8159 19.5716 20.9796 19.5716C21.1432 19.5716 21.3026 19.6239 21.4345 19.7209C21.5664 19.8179 21.6638 19.9544 21.7126 20.1107C21.7258 20.1535 23.6672 24.8209 23.6828 24.8528L24.8894 27.7699C24.9654 27.9584 24.9639 28.1692 24.8853 28.3566C24.8066 28.5439 24.6571 28.6926 24.4694 28.7703ZM28.0584 28.0601C28.0548 28.2602 27.9727 28.4509 27.8299 28.5911C27.6871 28.7313 27.4949 28.8099 27.2948 28.8099C27.0946 28.8099 26.9025 28.7313 26.7597 28.5911C26.6169 28.4509 26.5348 28.2602 26.5312 28.0601V20.3321C26.5348 20.132 26.6169 19.9413 26.7597 19.8011C26.9025 19.6608 27.0947 19.5823 27.2948 19.5823C27.495 19.5823 27.6871 19.6609 27.8299 19.8011C27.9727 19.9413 28.0548 20.132 28.0584 20.3321V28.0601Z" fill="#CFA935"/>
<path d="M20.1245 24.3721H21.827L20.9795 22.3179L20.1245 24.3721Z" fill="#CFA935"/>
<path d="M18.3222 33.3445C17.2469 33.3438 16.216 32.9164 15.4557 32.1561C14.6954 31.3958 14.2679 30.3648 14.2673 29.2896V18.6827C14.2679 17.6074 14.6954 16.5765 15.4557 15.8162C16.216 15.0559 17.2469 14.6284 18.3222 14.6278C19.3709 14.6302 22.6729 14.626 23.6753 14.6278V12.5431C23.2459 4.41409 10.9395 5.31868 11.8618 13.4671C11.0955 13.4742 10.3381 13.6328 9.63328 13.9338C8.92847 14.2348 8.29013 14.6722 7.755 15.2208C7.21987 15.7694 6.79851 16.4184 6.51517 17.1305C6.23182 17.8426 6.09209 18.6037 6.104 19.37C5.24323 19.9143 4.54741 20.6833 4.09158 21.5941C3.63575 22.5048 3.4372 23.5227 3.51735 24.538C3.59751 25.5533 3.95332 26.5274 4.54642 27.3554C5.13951 28.1833 5.94739 28.8336 6.8829 29.2361C6.64589 30.0467 6.59044 30.8995 6.7205 31.7339C6.85057 32.5683 7.16295 33.3638 7.63542 34.0637C8.10789 34.7636 8.72883 35.3508 9.45405 35.7835C10.1793 36.2162 10.9909 36.4837 11.8313 36.567C12.9485 43.5336 23.4531 42.9847 23.6753 35.8491V33.3445C22.6923 33.3425 19.3635 33.3459 18.3222 33.3445Z" fill="#CFA935"/>
<path d="M28.3871 14.7347V9.46557C28.6279 9.47805 28.8692 9.4688 29.1083 9.43795C29.2485 9.76793 29.4808 10.0505 29.7775 10.2518C30.0742 10.4531 30.4226 10.5646 30.781 10.573C31.3017 10.5492 31.7917 10.3201 32.1438 9.93581C32.4959 9.55151 32.6814 9.04334 32.6596 8.52259C32.6989 8.05166 32.5584 7.58332 32.2664 7.21179C31.9744 6.84026 31.5525 6.5931 31.0856 6.52004C30.6187 6.44698 30.1415 6.55344 29.75 6.81801C29.3584 7.08257 29.0816 7.4856 28.9751 7.94602C28.9554 7.93967 28.9347 7.93705 28.9141 7.9383H27.6235C27.5231 7.93794 27.4237 7.95746 27.3309 7.99571C27.238 8.03396 27.1537 8.09019 27.0827 8.16117C27.0118 8.23216 26.9555 8.31648 26.9173 8.40929C26.879 8.50209 26.8595 8.60155 26.8599 8.70193V14.6278C27.3714 14.5986 27.8846 14.6346 28.3871 14.7347Z" fill="#CFA935"/>
<path d="M30.8077 16.3612L34.6106 13.971H35.8401C35.8863 13.9697 35.9323 13.9646 35.9777 13.9557C36.0975 14.3279 36.3299 14.6537 36.6429 14.8881C36.9558 15.1226 37.3339 15.2541 37.7247 15.2644C38.2454 15.2407 38.7355 15.0116 39.0876 14.6273C39.4397 14.243 39.6252 13.7348 39.6034 13.214C39.6252 12.6933 39.4397 12.1851 39.0876 11.8008C38.7355 11.4165 38.2454 11.1873 37.7247 11.1636C37.3362 11.1736 36.9602 11.3034 36.6482 11.5352C36.3362 11.767 36.1034 12.0895 35.9816 12.4586C35.9349 12.4496 35.8876 12.4446 35.8401 12.4437C35.5253 12.4783 34.2382 12.3429 33.9844 12.5659L29.6699 15.2692C30.1183 15.5536 30.5052 15.9249 30.8077 16.3612Z" fill="#CFA935"/>
<path d="M30.781 37.2236C30.3919 37.2337 30.0154 37.3639 29.7031 37.5964C29.3909 37.8289 29.1582 38.1522 29.0369 38.5221C28.8207 38.5056 28.6038 38.5004 28.3871 38.5067V33.2375C27.8844 33.3362 27.3714 33.3721 26.8599 33.3444V39.2703C26.8605 39.4726 26.9411 39.6665 27.0842 39.8096C27.2273 39.9527 27.4212 40.0333 27.6235 40.0339C27.679 40.0413 29.0376 40.0379 29.0348 40.0188C29.1781 40.4522 29.4756 40.8179 29.8708 41.0465C30.266 41.2751 30.7313 41.3506 31.1785 41.2587C31.6257 41.1668 32.0235 40.9139 32.2966 40.548C32.5696 40.1822 32.6988 39.7288 32.6596 39.274C32.6813 38.7532 32.4959 38.2451 32.1438 37.8608C31.7917 37.4765 31.3017 37.2473 30.781 37.2236Z" fill="#CFA935"/>
<path d="M39.864 27.0923C39.4741 27.1025 39.0969 27.2333 38.7843 27.4667C38.4717 27.7 38.2391 28.0245 38.1185 28.3955C38.0747 28.3869 38.0303 28.382 37.9858 28.3807H31.5407C31.5632 28.8904 31.5453 29.4011 31.4873 29.9079H37.9858C38.0307 29.9066 38.0754 29.9017 38.1195 29.8931C38.2405 30.2633 38.4732 30.587 38.7856 30.8198C39.0979 31.0525 39.4746 31.183 39.864 31.1931C42.3388 31.1285 42.3415 27.1575 39.864 27.0923Z" fill="#CFA935"/>
<path d="M38.1194 18.0789C38.0754 18.0703 38.0307 18.0654 37.9858 18.064H31.4873C31.5413 18.5712 31.5592 19.0816 31.5407 19.5913H37.9858C38.0304 19.59 38.0748 19.5851 38.1186 19.5765C38.2393 19.9475 38.4719 20.2719 38.7844 20.5052C39.097 20.7386 39.4741 20.8693 39.864 20.8796C40.3847 20.8558 40.8748 20.6267 41.2269 20.2424C41.579 19.8581 41.7645 19.3499 41.7427 18.8291C41.782 18.3747 41.6532 17.9216 41.3807 17.5558C41.1082 17.19 40.711 16.9369 40.2644 16.8444C39.8177 16.7519 39.3526 16.8265 38.9573 17.054C38.5619 17.2816 38.2638 17.6462 38.1194 18.0789Z" fill="#CFA935"/>
<path d="M43.6212 21.9355C43.2306 21.9459 42.8529 22.0771 42.5401 22.3112C42.2273 22.5452 41.9948 22.8705 41.8747 23.2423C41.8321 23.2286 41.7873 23.2232 41.7427 23.2262H31.5405V24.7535H41.7428C41.7879 24.7522 41.8329 24.7472 41.8772 24.7386C41.9986 25.1083 42.2314 25.4315 42.5436 25.6638C42.8558 25.8961 43.2322 26.0263 43.6212 26.0364C44.134 25.9915 44.6114 25.756 44.9592 25.3765C45.307 24.9969 45.4999 24.5008 45.4999 23.986C45.4999 23.4712 45.307 22.9751 44.9592 22.5955C44.6114 22.2159 44.134 21.9805 43.6212 21.9355Z" fill="#CFA935"/>
<path d="M36.891 33.8631C36.4965 33.8739 36.1154 34.008 35.801 34.2464C35.4866 34.4849 35.2548 34.8158 35.138 35.1928C35.0984 35.18 35.0567 35.1747 35.0151 35.1772H33.8926L30.6777 31.7715C30.3697 32.1852 29.9798 32.5309 29.5322 32.7871L33.0068 36.4678C33.0785 36.5433 33.1651 36.6033 33.2609 36.644C33.3568 36.6847 33.46 36.7053 33.5642 36.7045C33.6297 36.7013 35.1377 36.7175 35.1536 36.689C35.3036 37.1173 35.6048 37.4761 36.0006 37.6982C36.3965 37.9202 36.8597 37.9902 37.3034 37.895C37.7472 37.7999 38.141 37.5461 38.4109 37.1812C38.6808 36.8164 38.8084 36.3656 38.7696 35.9134C38.7914 35.3927 38.6059 34.8845 38.2538 34.5002C37.9017 34.1159 37.4117 33.8868 36.891 33.8631Z" fill="#CFA935"/>
</svg>
