<svg width="48" height="48" viewBox="0 0 48 48" fill="none" xmlns="http://www.w3.org/2000/svg">
<g filter="url(#filter0_d_35517_1066)">
<path d="M8.82439 13.5469C6.40471 15.9665 4.90016 19.0458 4.47318 22.4521L4 26.2278C6.84204 23.0158 6.7982 23.0575 7.03718 22.8184C8.44141 21.4142 10.2299 20.468 12.1663 20.0885L19.7598 9.07098C15.7309 9.03364 11.8008 10.5705 8.82439 13.5469Z" fill="#FF6666"/>
<path d="M23.9103 31.836C23.5306 33.7707 22.5846 35.5588 21.1805 36.9629C20.926 37.2173 20.9425 37.1925 17.77 40.0001L21.5469 39.5268C29.2666 38.5596 34.986 31.989 34.9282 24.2676L23.9103 31.836Z" fill="#E62E6B"/>
<path d="M8.94118 31.5293C7.80259 31.7646 6.89937 32.1091 6.2102 32.7983C4.83184 34.1767 4 37.6731 4 39.9999L8.5098 36.2744L10.7059 33.294L10.693 31.7125L8.94118 31.5293Z" fill="#FFB366"/>
<path d="M4 40.0008C6.36604 40.0008 10.2151 38.777 11.2016 37.7905C11.8907 37.1014 12.2353 36.1981 12.4706 35.0596L12.2745 33.2949H10.7059L4 40.0008Z" fill="#FF6666"/>
<path d="M31.8716 1.48518C23.2744 4.11349 17.8338 10.0954 13.3862 17.8664L15.6863 23.2925L19.76 24.2401L32.5803 16.915L44 0H42.8236C38.7232 0 35.1408 0.485726 31.8716 1.48518Z" fill="#FFF5F5"/>
<path d="M26.1372 30.6172C27.8577 29.6351 29.4126 28.646 30.8248 27.6345C39.6636 21.3041 44 13.3224 44 1.17647V0L19.76 24.2401L20.9673 28.9525L26.1372 30.6172Z" fill="#E6ECF2"/>
<path d="M32.2352 7.05859C29.6404 7.05859 27.5293 9.16965 27.5293 11.7645C27.5293 13.0618 28.057 14.2383 28.9092 15.0904L32.7581 12.3135L35.5611 8.43844C34.7091 7.58636 33.5326 7.05859 32.2352 7.05859Z" fill="#638293"/>
<path d="M28.9094 15.0915C29.7615 15.9435 30.938 16.4714 32.2354 16.4714C34.8302 16.4714 36.9413 14.3603 36.9413 11.7655C36.9413 10.468 36.4136 9.29153 35.5613 8.43945L28.9094 15.0915Z" fill="#375363"/>
<path d="M32.2353 9.41211C30.9379 9.41211 29.8823 10.4676 29.8823 11.7651C29.8823 12.4137 30.1462 13.0019 30.5723 13.428L32.5802 12.3141L33.8982 10.102C33.4723 9.67595 32.884 9.41211 32.2353 9.41211Z" fill="#99EEFF"/>
<path d="M30.5723 13.4276C30.9982 13.8536 31.5865 14.1176 32.2352 14.1176C33.5327 14.1176 34.5882 13.062 34.5882 11.7646C34.5882 11.1159 34.3243 10.5277 33.8982 10.1016L30.5723 13.4276Z" fill="#2EC7E6"/>
<path d="M7.13721 29.726L10.7058 33.2946L13.9346 32.1342L15.2814 28.7191L12.9333 26.3711L7.13721 29.726Z" fill="#FF6666"/>
<path d="M14.2744 36.8628L17.6297 31.0671L15.2813 28.7188L10.7058 33.2942C11.1311 33.7195 13.8354 36.4238 14.2744 36.8628Z" fill="#E62E6B"/>
<path d="M13.3863 17.8672C11.7343 20.7536 10.5481 23.3441 10.3352 23.7731L15.2815 28.7194L19.76 28.1577V24.2409L13.3863 17.8672Z" fill="#638293"/>
<path d="M15.2815 28.7188L20.2278 33.6652C20.7035 33.4294 23.258 32.2608 26.1373 30.6174L19.7601 24.2402L15.2815 28.7188Z" fill="#375363"/>
</g>
<defs>
<filter id="filter0_d_35517_1066" x="0" y="0" width="48" height="48" filterUnits="userSpaceOnUse" color-interpolation-filters="sRGB">
<feFlood flood-opacity="0" result="BackgroundImageFix"/>
<feColorMatrix in="SourceAlpha" type="matrix" values="0 0 0 0 0 0 0 0 0 0 0 0 0 0 0 0 0 0 127 0" result="hardAlpha"/>
<feOffset dy="4"/>
<feGaussianBlur stdDeviation="2"/>
<feComposite in2="hardAlpha" operator="out"/>
<feColorMatrix type="matrix" values="0 0 0 0 0 0 0 0 0 0 0 0 0 0 0 0 0 0 0.25 0"/>
<feBlend mode="normal" in2="BackgroundImageFix" result="effect1_dropShadow_35517_1066"/>
<feBlend mode="normal" in="SourceGraphic" in2="effect1_dropShadow_35517_1066" result="shape"/>
</filter>
</defs>
</svg>
