<svg width="72" height="72" viewBox="0 0 72 72" fill="none" xmlns="http://www.w3.org/2000/svg">
<g id="Capa_1" clip-path="url(#clip0_23650_32178)">
<g id="Group">
<path id="Vector" d="M27.5722 37.1187C27.942 37.1187 28.285 36.9249 28.4757 36.6079L30.3785 33.4474L32.8999 37.4541C33.0971 37.7675 33.4416 37.9536 33.8147 37.9468C34.1849 37.9391 34.524 37.7377 34.7079 37.4163L38.7671 30.3237L44.2188 40.2588C44.4008 40.5904 44.7464 40.7993 45.1247 40.806C45.1309 40.806 45.1372 40.8062 45.1434 40.8062C45.5145 40.8062 45.8591 40.6108 46.0495 40.2912L49.446 34.5894H57.6363C58.2187 34.5894 58.691 34.1172 58.691 33.5347C58.691 32.9523 58.2187 32.48 57.6363 32.48H48.8466C48.475 32.48 48.1307 32.6756 47.9406 32.995L45.181 37.6275L39.7111 27.6591C39.5274 27.3246 39.1775 27.1153 38.7959 27.1118C38.7927 27.1118 38.7896 27.1118 38.7863 27.1118C38.4083 27.1118 38.059 27.3142 37.871 27.6425L33.7496 34.8439L31.2512 30.874C31.058 30.567 30.7209 30.3811 30.3585 30.3811C30.3552 30.3811 30.3516 30.3811 30.3481 30.3811C29.9819 30.3846 29.6439 30.5779 29.455 30.8917L26.9761 35.0093H20.9819C20.3995 35.0093 19.9272 35.4815 19.9272 36.064C19.9272 36.6465 20.3995 37.1187 20.9819 37.1187H27.5722Z" fill="black"/>
<path id="Vector_2" d="M59.4979 7.84619C58.9154 7.84619 58.4432 8.31841 58.4432 8.90088V12.0121H55.3323C54.7498 12.0121 54.2776 12.4843 54.2776 13.0668C54.2776 13.6492 54.7498 14.1214 55.3323 14.1214H58.4432V17.2328C58.4432 17.8152 58.9154 18.2875 59.4979 18.2875C60.0803 18.2875 60.5526 17.8152 60.5526 17.2328V14.1214H63.6635C64.2459 14.1214 64.7181 13.6492 64.7181 13.0668C64.7181 12.4843 64.2459 12.0121 63.6635 12.0121H60.5526V8.90088C60.5526 8.31841 60.0803 7.84619 59.4979 7.84619Z" fill="black"/>
<path id="Vector_3" d="M63.2194 43.9819C68.3577 38.4887 69.8303 30.1821 67.0058 23.0609C70.0367 20.7766 72 17.1469 72 13.0668C72 6.17265 66.3916 0.563965 59.4979 0.563965C56.6661 0.563965 53.8931 1.53582 51.6895 3.30053C51.2349 3.66461 51.1615 4.32836 51.5256 4.783C51.8896 5.2375 52.5534 5.31104 53.008 4.94697C54.8654 3.45943 57.1095 2.67334 59.4977 2.67334C65.2282 2.67334 69.8905 7.3359 69.8905 13.0668C69.8905 18.8001 65.2283 23.4643 59.4977 23.4643C54.162 23.4643 49.7544 19.423 49.1691 14.2409C49.168 14.2289 49.166 14.2168 49.1645 14.2047C49.1236 13.8308 49.1009 13.4514 49.1009 13.0668C49.1009 11.4389 49.4667 9.8822 50.1878 8.43967C50.4482 7.91865 50.237 7.28514 49.7161 7.02456C49.1947 6.76426 48.5616 6.97534 48.301 7.49621C47.4321 9.2342 46.9915 11.1084 46.9915 13.0667C46.9915 13.2438 46.9962 13.4199 47.0035 13.5954C44.3403 14.5473 41.8545 16.1129 39.7713 18.1616L38.6055 19.3077C38.5999 19.3021 38.5957 19.2979 38.59 19.2923L37.4439 18.163C33.7357 14.5068 28.8813 12.4635 24.1239 12.5619C20.1653 12.6435 16.6624 14.1946 13.9947 17.0465C13.5967 17.4726 13.6192 18.1405 14.0453 18.5385C14.4714 18.9351 15.138 18.914 15.536 18.4879C17.8057 16.0607 20.7897 14.7402 24.1675 14.6713C28.3582 14.5855 32.6571 16.4066 35.9632 19.6649L37.1107 20.7955C37.6647 21.3412 38.1372 21.6126 38.6083 21.6126C39.0752 21.6126 39.5407 21.3454 40.0849 20.811L41.2507 19.6649C43.0024 17.9431 45.0686 16.6024 47.2807 15.7425C48.5093 21.3573 53.5199 25.5736 59.4976 25.5736C61.5441 25.5736 63.4773 25.0791 65.1841 24.2033C67.5211 30.4894 66.1792 37.721 61.6863 42.5318L46.5455 58.0304L45.2925 58.2751C44.9887 58.3341 44.7202 58.3876 44.4755 58.4368C42.8864 58.7588 42.5067 58.8347 40.6463 58.5479L31.6252 56.8983C30.3961 56.4736 30.5198 55.4949 30.5888 55.201C30.697 54.744 31.1217 54.0057 32.0344 54.1435C32.0428 54.1449 32.0513 54.1463 32.0597 54.1477C32.4661 54.1997 32.902 54.256 33.3577 54.3137C35.0662 54.5344 37.0013 54.7833 38.7197 54.9591C42.2353 55.3149 44.2238 53.4699 44.6372 51.4815C45.0577 49.4551 43.9031 46.7607 40.3734 45.6343C40.3312 45.6216 40.2877 45.6104 40.2427 45.6019L34.4334 44.536C31.2806 43.958 28.8281 44.4038 25.1156 45.0788C24.1341 45.2574 23.0203 45.4585 21.78 45.6624L19.0266 46.1152L18.1786 45.2476L15.5278 42.5335C10.5736 37.2221 9.47531 28.9027 12.8616 22.2976C13.1273 21.7801 12.922 21.1444 12.4045 20.8787C11.8856 20.6129 11.25 20.8168 10.9842 21.3357C7.19859 28.7213 8.43609 38.0335 13.995 43.9819C14.0006 43.9876 14.0062 43.9932 14.0105 43.9988L16.4855 46.5329L11.8761 47.2906V47.1702C11.8761 46.3558 11.1576 45.6933 10.2745 45.6933H1.5975C0.716625 45.6933 0 46.3558 0 47.1702V65.7278C0 66.5421 0.716625 67.2046 1.5975 67.2046H10.2746C11.1578 67.2046 11.8762 66.5421 11.8762 65.7278V65.5999L21.3609 68.1807L30.1163 70.5601C32.1145 71.1802 33.7247 71.4361 35.1942 71.4361C37.5202 71.4361 39.4959 70.7977 42.1059 69.954C42.338 69.8794 42.5756 69.8021 42.8203 69.7233L60.0736 64.1912C62.0733 63.5499 63.4964 62.1099 63.8789 60.3394C64.1756 58.9669 63.7622 57.6113 62.7722 56.7127C61.9706 55.9857 60.0863 54.9422 56.4539 56.0911L50.1905 57.316L63.2039 43.9988C63.2095 43.9932 63.2137 43.9876 63.2194 43.9819ZM2.10938 65.0952V47.8026H9.76669V48.5272C9.76669 48.5295 9.76641 48.5316 9.76641 48.5338V64.2191C9.76641 64.2204 9.76669 64.2215 9.76669 64.2228V65.0952H2.10938ZM57.0375 58.119C58.9837 57.4946 60.5573 57.5508 61.3561 58.2751C61.7864 58.666 61.9552 59.2566 61.8173 59.8922C61.5952 60.9174 60.7022 61.7738 59.4295 62.1816L42.1748 67.7152C41.9287 67.794 41.6897 67.8713 41.4562 67.9472C37.3289 69.2804 35.2575 69.9511 30.7237 68.5407C30.7125 68.5365 30.6998 68.5337 30.6872 68.5294L11.8761 63.4136V49.4283L22.1217 47.7451C23.3789 47.5383 24.5025 47.333 25.4939 47.153C29.1009 46.4977 31.2792 46.1026 34.0523 46.6116L39.7941 47.6649C42.0328 48.4004 42.8048 49.9318 42.5714 51.0526C42.3028 52.3477 40.8741 53.0579 38.9334 52.861C37.2431 52.688 35.3222 52.4405 33.6277 52.2226C33.1748 52.1635 32.7403 52.1072 32.3367 52.0566C30.3202 51.7585 28.8984 53.169 28.5356 54.7201C28.4583 55.0505 28.4273 55.4021 28.4498 55.7565C28.5272 57.039 29.2936 58.3693 31.043 58.9276C31.0866 58.9416 31.6687 59.0499 31.6687 59.0499L40.282 60.6249C40.2905 60.6263 40.3003 60.6277 40.3102 60.6291C42.0877 60.9062 42.8569 60.8822 43.9467 60.6896C44.2322 60.639 45.3966 60.4027 45.6961 60.3451L47.5945 59.9738C47.5945 59.9738 56.9981 58.1316 57.0375 58.119Z" fill="black"/>
</g>
</g>
<defs>
<clipPath id="clip0_23650_32178">
<rect width="72" height="72" fill="white"/>
</clipPath>
</defs>
</svg>
