<svg width="71" height="70" viewBox="0 0 71 70" fill="none" xmlns="http://www.w3.org/2000/svg">
<g id="check 1" clip-path="url(#clip0_21800_30839)">
<g id="Icon">
<path id="Vector" d="M35.5 0C28.5777 0 21.8108 2.05271 16.0551 5.89856C10.2993 9.74441 5.8133 15.2107 3.16423 21.6061C0.515165 28.0015 -0.177952 35.0388 1.17253 41.8282C2.52301 48.6175 5.85644 54.8539 10.7513 59.7487C15.6461 64.6436 21.8825 67.977 28.6718 69.3275C35.4612 70.678 42.4985 69.9848 48.8939 67.3358C55.2893 64.6867 60.7556 60.2007 64.6014 54.4449C68.4473 48.6892 70.5 41.9223 70.5 35C70.4905 25.7203 66.8 16.8235 60.2382 10.2618C53.6765 3.70004 44.7797 0.00950299 35.5 0ZM35.5 64.6154C29.6426 64.6154 23.9168 62.8785 19.0466 59.6243C14.1764 56.3701 10.3805 51.7448 8.13897 46.3333C5.89745 40.9218 5.31097 34.9671 6.45368 29.2223C7.5964 23.4775 10.417 18.2005 14.5588 14.0588C18.7006 9.91697 23.9775 7.09638 29.7223 5.95367C35.4672 4.81095 41.4218 5.39743 46.8333 7.63895C52.2448 9.88047 56.8701 13.6763 60.1243 18.5466C63.3785 23.4168 65.1154 29.1426 65.1154 35C65.1059 42.8516 61.9827 50.3788 56.4308 55.9307C50.8788 61.4826 43.3516 64.6059 35.5 64.6154ZM53.9872 20.3538C54.2656 20.5854 54.495 20.8701 54.6623 21.1913C54.8295 21.5125 54.9311 21.8637 54.9612 22.2246C54.9912 22.5855 54.9492 22.9487 54.8374 23.2931C54.7257 23.6376 54.5465 23.9563 54.3103 24.2308L33.3821 49.359C33.1409 49.6428 32.8449 49.8749 32.5118 50.0415C32.1787 50.208 31.8153 50.3056 31.4436 50.3282C31.0534 50.3202 30.6694 50.2297 30.3167 50.0627C29.9641 49.8956 29.6508 49.6558 29.3974 49.359L16.8333 36.7949C16.3578 36.2845 16.0989 35.6095 16.1112 34.912C16.1235 34.2145 16.406 33.549 16.8993 33.0557C17.3926 32.5624 18.0581 32.2799 18.7556 32.2676C19.4531 32.2553 20.1281 32.5142 20.6385 32.9897L31.1205 43.4718L50.1821 20.641C50.6529 20.1052 51.3148 19.7752 52.0261 19.7215C52.7373 19.6678 53.4413 19.8948 53.9872 20.3538Z" fill="#CFA935"/>
</g>
</g>
<defs>
<clipPath id="clip0_21800_30839">
<rect width="70" height="70" fill="white" transform="translate(0.5)"/>
</clipPath>
</defs>
</svg>
