<svg width="64" height="64" viewBox="0 0 64 64" fill="none" xmlns="http://www.w3.org/2000/svg">
<path d="M24 45.3333V56L32 50.6667L40 56V45.3333M37.2187 11.4L36.3573 10.216C35.857 9.52951 35.2014 8.97096 34.4442 8.58587C33.687 8.20078 32.8495 8.00006 32 8.00006C31.1505 8.00006 30.313 8.20078 29.5558 8.58587C28.7986 8.97096 28.1431 9.52951 27.6427 10.216L26.7813 11.4L25.3333 11.1733C24.4943 11.041 23.6358 11.109 22.828 11.3718C22.0202 11.6346 21.286 12.0846 20.6853 12.6853C20.0847 13.286 19.6346 14.0202 19.3718 14.828C19.109 15.6358 19.041 16.4942 19.1733 17.3333L19.4 18.7813L18.216 19.6427C17.5285 20.1424 16.969 20.7976 16.5832 21.5549C16.1974 22.3123 15.9963 23.1501 15.9963 24C15.9963 24.8499 16.1974 25.6878 16.5832 26.4451C16.969 27.2024 17.5285 27.8577 18.216 28.3573L19.4 29.2187L19.1733 30.664C19.0406 31.5033 19.1082 32.3621 19.3708 33.1702C19.6333 33.9784 20.0833 34.713 20.6841 35.314C21.2848 35.9149 22.0192 36.3653 22.8272 36.6282C23.6352 36.8911 24.494 36.9591 25.3333 36.8267L26.7813 36.6L27.6427 37.784C28.1431 38.4705 28.7986 39.0291 29.5558 39.4141C30.313 39.7992 31.1505 39.9999 32 39.9999C32.8495 39.9999 33.687 39.7992 34.4442 39.4141C35.2014 39.0291 35.857 38.4705 36.3573 37.784L37.2187 36.6L38.664 36.8267C39.5033 36.9595 40.3621 36.8918 41.1703 36.6293C41.9784 36.3667 42.713 35.9167 43.314 35.316C43.9149 34.7152 44.3653 33.9809 44.6282 33.1728C44.8911 32.3648 44.9591 31.506 44.8267 30.6667L44.6 29.2187L45.784 28.3573C46.4705 27.857 47.0291 27.2014 47.4141 26.4442C47.7992 25.687 48 24.8495 48 24C48 23.1505 47.7992 22.313 47.4141 21.5558C47.0291 20.7986 46.4705 20.1431 45.784 19.6427L44.6 18.7813L44.8267 17.336C44.9595 16.4967 44.8918 15.6379 44.6293 14.8298C44.3667 14.0216 43.9167 13.287 43.316 12.6861C42.7152 12.0851 41.9809 11.6347 41.1728 11.3718C40.3648 11.1089 39.506 11.0409 38.6667 11.1733L37.2187 11.4Z" stroke="#CFA935" stroke-width="2" stroke-linecap="round" stroke-linejoin="round"/>
</svg>
