<svg width="122" height="123" viewBox="0 0 122 123" fill="none" xmlns="http://www.w3.org/2000/svg">
<path fill-rule="evenodd" clip-rule="evenodd" d="M66.8729 75.6411L69.2245 81.1008L72.8845 75.2027L79.6848 76.5954L76.2881 68.7083C74.0928 69.6483 74.6001 69.771 73.1245 72.0273C72.4411 73.0799 71.5186 73.9558 70.4321 74.5838C69.3456 75.2117 68.126 75.5738 66.8729 75.6404V75.6411ZM52.6409 83.2356L56.1836 75.6266C54.7543 75.7414 53.3205 75.4676 52.034 74.8342C50.7475 74.2008 49.6562 73.2314 48.8755 72.0285C48.2798 71.118 47.5626 69.5027 46.6528 69.1129L42.3161 78.4297L49.1548 77.235L52.6423 83.2365L52.6409 83.2356ZM53.9335 54.1908L57.2695 57.5267C57.4474 57.7045 57.6587 57.8454 57.8913 57.9412C58.1239 58.037 58.3731 58.0857 58.6247 58.0847C58.8762 58.0838 59.125 58.033 59.3569 57.9354C59.5887 57.8378 59.7989 57.6952 59.9754 57.516L67.9997 50.2336C68.187 50.0661 68.3393 49.8632 68.4477 49.6365C68.5562 49.4098 68.6186 49.1639 68.6315 48.913C68.6444 48.662 68.6075 48.411 68.5229 48.1744C68.4382 47.9378 68.3076 47.7203 68.1385 47.5345C67.9693 47.3487 67.7651 47.1982 67.5375 47.0917C67.3099 46.9852 67.0634 46.9249 66.8124 46.9141C66.5614 46.9034 66.3107 46.9425 66.0748 47.0292C65.839 47.1158 65.6226 47.2483 65.4382 47.4191L58.6832 53.5493L56.6292 51.4953C56.27 51.1465 55.7879 50.953 55.2872 50.9567C54.7864 50.9604 54.3073 51.1609 53.9532 51.515C53.5991 51.8691 53.3986 52.3483 53.395 52.849C53.3914 53.3498 53.5849 53.8318 53.9338 54.191L53.9335 54.1908ZM79.5068 46.9161C75.9288 43.5577 76.4027 44.3788 75.2835 39.6008C75.0851 38.7171 74.6018 37.923 73.9079 37.3408C73.2141 36.7586 72.3482 36.4205 71.4434 36.3785C66.5441 36.1062 67.4348 36.4305 63.5065 33.4899C62.7864 32.9404 61.9058 32.6428 61 32.6428C60.0942 32.6428 59.2136 32.9404 58.4935 33.4899C54.5652 36.4305 55.4559 36.1062 50.5566 36.3785C49.6518 36.4205 48.7859 36.7586 48.0921 37.3408C47.3982 37.923 46.9149 38.7171 46.7165 39.6008C45.5965 44.3786 46.0712 43.5563 42.4932 46.9161C41.8271 47.5298 41.3811 48.3454 41.2238 49.2373C41.0666 50.1293 41.2067 51.0482 41.6227 51.8528C43.8364 56.2321 43.6719 55.2983 43.0894 60.1707C42.9736 61.069 43.1562 61.9806 43.6092 62.765C44.0621 63.5494 44.7602 64.1633 45.5961 64.5122C50.1067 66.4439 49.3805 65.8344 52.0661 69.9412C52.5547 70.7039 53.2805 71.285 54.1316 71.595C54.9828 71.905 55.9122 71.9267 56.7769 71.6568C61.4742 70.2371 60.5261 70.2371 65.2231 71.6568C66.0877 71.9267 67.0171 71.905 67.8683 71.595C68.7194 71.2851 69.4451 70.704 69.9336 69.9412C72.6195 65.8344 71.8933 66.4439 76.4039 64.5122C77.2398 64.1633 77.9379 63.5494 78.3908 62.765C78.8437 61.9806 79.0263 61.069 78.9104 60.1707C78.3283 55.2983 78.1636 56.2319 80.3773 51.8528C80.7933 51.0482 80.9334 50.1293 80.7762 49.2373C80.6189 48.3454 80.1729 47.5298 79.5068 46.9161ZM61 63.9486C58.6847 63.9486 56.4213 63.2621 54.4962 61.9757C52.5711 60.6894 51.0706 58.8611 50.1846 56.722C49.2985 54.5829 49.0667 52.2291 49.5184 49.9583C49.9701 47.6874 51.0851 45.6015 52.7222 43.9644C54.3594 42.3272 56.4453 41.2122 58.7162 40.7605C60.987 40.3088 63.3408 40.5407 65.4799 41.4267C67.619 42.3127 69.4473 43.8132 70.7336 45.7383C72.0199 47.6635 72.7065 49.9268 72.7065 52.2421C72.7065 55.3469 71.4732 58.3245 69.2778 60.5199C67.0824 62.7153 64.1048 63.9486 61 63.9486ZM52.7655 96.7252H96.4901V52.1713C96.4901 51.6658 96.6909 51.1809 97.0484 50.8234C97.4059 50.4659 97.8908 50.2651 98.3963 50.2651C98.9019 50.2651 99.3868 50.4659 99.7443 50.8234C100.102 51.1809 100.303 51.6658 100.303 52.1713V98.6314C100.303 99.137 100.102 99.6219 99.7443 99.9794C99.3868 100.337 98.9019 100.538 98.3963 100.538H52.7655L53.7186 101.282C54.1132 101.593 54.3685 102.047 54.4288 102.546C54.489 103.045 54.3492 103.547 54.04 103.943C53.7308 104.338 53.2774 104.596 52.779 104.658C52.2805 104.72 51.7777 104.583 51.3806 104.275L46.0986 100.15C45.8657 99.9752 45.6762 99.7486 45.5448 99.4884C45.4134 99.2281 45.3436 98.9411 45.3409 98.6496C45.3382 98.3581 45.4025 98.0698 45.529 97.8072C45.6555 97.5445 45.8406 97.3144 46.0702 97.1348L51.3806 92.9887C51.7776 92.6786 52.2814 92.539 52.7814 92.6005C53.2813 92.6619 53.7363 92.9195 54.0464 93.3164C54.3564 93.7134 54.496 94.2173 54.4346 94.7172C54.3731 95.2171 54.1156 95.6722 53.7186 95.9822L52.7655 96.7261V96.7252ZM67.1953 29.4808L72.5054 25.3347C72.735 25.1551 72.9202 24.925 73.0467 24.6624C73.1732 24.3998 73.2376 24.1115 73.2349 23.82C73.2322 23.5285 73.1624 23.2415 73.0311 22.9813C72.8997 22.7211 72.7102 22.4945 72.4773 22.3192L67.1953 18.1939C66.9988 18.0403 66.7739 17.927 66.5336 17.8604C66.2932 17.7938 66.0421 17.7751 65.7946 17.8055C65.2947 17.867 64.8396 18.1245 64.5295 18.5214C64.2195 18.9183 64.0798 19.4222 64.1412 19.9221C64.2026 20.422 64.4601 20.8771 64.8571 21.1872L65.8102 21.9311H15.4125C14.9069 21.9311 14.4221 22.1319 14.0646 22.4894C13.7071 22.8469 13.5063 23.3318 13.5063 23.8373V65.5318C13.5063 66.0373 13.7071 66.5222 14.0646 66.8797C14.4221 67.2372 14.9069 67.438 15.4125 67.438C15.9181 67.438 16.4029 67.2372 16.7604 66.8797C17.1179 66.5222 17.3188 66.0373 17.3188 65.5318V25.7436H65.809L64.8559 26.4875C64.6593 26.6411 64.495 26.8319 64.3722 27.049C64.2494 27.2662 64.1705 27.5054 64.1402 27.753C64.1098 28.0006 64.1285 28.2517 64.1952 28.4921C64.2619 28.7324 64.3753 28.9573 64.5289 29.1539C64.6826 29.3504 64.8734 29.5148 65.0905 29.6376C65.3076 29.7604 65.5468 29.8392 65.7944 29.8695C66.042 29.8999 66.2932 29.8812 66.5335 29.8145C66.7739 29.7478 66.9988 29.6344 67.1953 29.4808ZM114.909 19.8969C114.493 18.1493 113.8 16.4793 112.858 14.9499L114.285 11.7372L110.496 7.94849L107.282 9.3758C105.753 8.43414 104.084 7.74238 102.337 7.32658L101.075 4.04688H95.7188L94.4559 7.32658C92.7088 7.74242 91.0393 8.43418 89.5101 9.3758L86.2964 7.94849L82.5077 11.7372L83.9351 14.9506C82.9928 16.4798 82.3006 18.1496 81.8844 19.8969L78.6052 21.1598V26.5168L81.8839 27.7797C82.3001 29.5272 82.9924 31.1972 83.9346 32.7266L82.5077 35.9394L86.2964 39.7281L89.5104 38.3008C91.0394 39.2427 92.7089 39.9349 94.4559 40.3512L95.7188 43.6306H101.075L102.338 40.3519C104.086 39.9358 105.756 39.2434 107.285 38.301L110.498 39.7281L114.287 35.9394L112.859 32.7257C113.801 31.1965 114.493 29.527 114.91 27.7799L118.188 26.5168V21.159L114.909 19.8969ZM98.3959 33.1791C96.5481 33.1794 94.7418 32.6317 93.2054 31.6053C91.6689 30.5789 90.4714 29.1199 89.7642 27.4128C89.057 25.7058 88.8719 23.8274 89.2323 22.0151C89.5927 20.2029 90.4825 18.5382 91.789 17.2317C93.0956 15.9251 94.7602 15.0354 96.5725 14.6749C98.3847 14.3145 100.263 14.4996 101.97 15.2068C103.677 15.914 105.136 17.1116 106.163 18.648C107.189 20.1845 107.737 21.9908 107.736 23.8385C107.736 26.3156 106.753 28.6912 105.001 30.4429C103.25 32.1946 100.874 33.1788 98.397 33.1791H98.3959ZM28.0045 74.8002V83.8711H37.0766L28.0057 74.8007L28.0045 74.8002ZM27.1371 87.6836C26.3563 87.6829 25.6076 87.3724 25.0554 86.8203C24.5033 86.2682 24.1927 85.5195 24.192 84.7387V73.0736H4.72655C4.4844 73.0741 4.25231 73.1705 4.08103 73.3416C3.90974 73.5128 3.81319 73.7448 3.8125 73.987V117.508C3.813 117.75 3.90946 117.982 4.08076 118.153C4.25206 118.325 4.48426 118.421 4.72655 118.422H37.8867C38.129 118.421 38.3613 118.325 38.5327 118.154C38.704 117.982 38.8005 117.75 38.801 117.508V87.6836H27.1371ZM30.1035 112.282H12.511C12.0054 112.282 11.5205 112.081 11.163 111.723C10.8055 111.366 10.6047 110.881 10.6047 110.375C10.6047 109.87 10.8055 109.385 11.163 109.027C11.5205 108.67 12.0054 108.469 12.511 108.469H30.1035C30.6091 108.469 31.0939 108.67 31.4514 109.027C31.8089 109.385 32.0098 109.87 32.0098 110.375C32.0098 110.881 31.8089 111.366 31.4514 111.723C31.0939 112.081 30.6091 112.282 30.1035 112.282ZM30.1035 103.482H12.511C12.0054 103.482 11.5205 103.281 11.163 102.924C10.8055 102.566 10.6047 102.081 10.6047 101.576C10.6047 101.07 10.8055 100.585 11.163 100.228C11.5205 99.8705 12.0054 99.6696 12.511 99.6696H30.1035C30.6091 99.6696 31.0939 99.8705 31.4514 100.228C31.8089 100.585 32.0098 101.07 32.0098 101.576C32.0098 102.081 31.8089 102.566 31.4514 102.924C31.0939 103.281 30.6091 103.482 30.1035 103.482ZM30.1035 94.6824H12.511C12.0054 94.6824 11.5205 94.4816 11.163 94.1241C10.8055 93.7666 10.6047 93.2817 10.6047 92.7761C10.6047 92.2706 10.8055 91.7857 11.163 91.4282C11.5205 91.0707 12.0054 90.8699 12.511 90.8699H30.1035C30.6091 90.8699 31.0939 91.0707 31.4514 91.4282C31.8089 91.7857 32.0098 92.2706 32.0098 92.7761C32.0098 93.2817 31.8089 93.7666 31.4514 94.1241C31.0939 94.4816 30.6091 94.6824 30.1035 94.6824Z" fill="#5B5A5F"/>
</svg>
