<svg width="64" height="64" viewBox="0 0 64 64" fill="none" xmlns="http://www.w3.org/2000/svg">
<path d="M32 48.0001V61.7143M32 48.0001C38.0621 48.0001 43.8759 45.5919 48.1624 41.3054C52.4489 37.0188 54.8571 31.205 54.8571 25.1429M32 48.0001C25.9379 48.0001 20.1241 45.5919 15.8375 41.3054C11.551 37.0188 9.14282 31.205 9.14282 25.1429M9.14282 61.7143H54.8571M54.8571 25.1429C54.8571 19.0808 52.4489 13.267 48.1624 8.98047C43.8759 4.69392 38.0621 2.28577 32 2.28577C25.9379 2.28577 20.1241 4.69392 15.8375 8.98047C11.551 13.267 9.14282 19.0808 9.14282 25.1429M54.8571 25.1429H9.14282" stroke="#CFA935" stroke-width="2" stroke-linecap="round" stroke-linejoin="round"/>
<path d="M32 48C45.7143 32.3658 45.7143 17.0972 32 2.28577C18.56 16.5486 18.2857 31.7258 32 48Z" stroke="#CFA935" stroke-width="2" stroke-linecap="round" stroke-linejoin="round"/>
</svg>
