<svg width="26" height="30" viewBox="0 0 26 30" fill="none" xmlns="http://www.w3.org/2000/svg">
<path d="M3.28578 17.8333C2.22279 16.0925 1.66235 14.0915 1.66653 12.0518C1.66653 5.85534 6.74103 0.833252 12.9999 0.833252C19.2587 0.833252 24.3332 5.85534 24.3332 12.0518C24.3374 14.0915 23.7769 16.0925 22.7139 17.8333M17.2499 24.9166L17.0657 25.8332C16.8674 26.8348 16.7668 27.3348 16.5415 27.7315C16.1944 28.3429 15.6324 28.8034 14.9648 29.0235C14.5327 29.1666 14.0199 29.1666 12.9999 29.1666C11.9799 29.1666 11.467 29.1666 11.0349 29.0249C10.367 28.8044 9.80502 28.3434 9.45819 27.7315C9.23294 27.3348 9.13236 26.8348 8.93403 25.8332L8.74986 24.9166M6.45911 22.2221C6.32878 21.8311 6.26361 21.6342 6.27069 21.4755C6.27871 21.3114 6.33408 21.1532 6.43012 21.02C6.52616 20.8867 6.65876 20.7842 6.81186 20.7247C6.95919 20.6666 7.16603 20.6666 7.57686 20.6666H18.4229C18.8351 20.6666 19.0405 20.6666 19.1879 20.7233C19.3412 20.7828 19.4739 20.8856 19.57 21.0191C19.666 21.1527 19.7213 21.3112 19.729 21.4755C19.7361 21.6342 19.6709 21.8297 19.5406 22.2221C19.2998 22.946 19.1794 23.3087 18.9938 23.6019C18.6056 24.2148 17.9972 24.6554 17.2938 24.833C16.9566 24.9166 16.5769 24.9166 15.8162 24.9166H10.1835C9.42278 24.9166 9.04169 24.9166 8.70594 24.8316C8.0028 24.6543 7.39438 24.2142 7.00594 23.6019C6.82036 23.3087 6.69994 22.946 6.45911 22.2221Z" stroke="#CFA935" stroke-width="1.5" stroke-linecap="round" stroke-linejoin="round"/>
<path d="M7.6875 11.8125L10.875 15V20.6667M18.3125 11.8125L15.125 15V20.6667M7.6875 12.875C7.96929 12.875 8.23954 12.7631 8.4388 12.5638C8.63806 12.3645 8.75 12.0943 8.75 11.8125C8.75 11.5307 8.63806 11.2605 8.4388 11.0612C8.23954 10.8619 7.96929 10.75 7.6875 10.75C7.40571 10.75 7.13546 10.8619 6.9362 11.0612C6.73694 11.2605 6.625 11.5307 6.625 11.8125C6.625 12.0943 6.73694 12.3645 6.9362 12.5638C7.13546 12.7631 7.40571 12.875 7.6875 12.875ZM18.3125 12.875C18.0307 12.875 17.7605 12.7631 17.5612 12.5638C17.3619 12.3645 17.25 12.0943 17.25 11.8125C17.25 11.5307 17.3619 11.2605 17.5612 11.0612C17.7605 10.8619 18.0307 10.75 18.3125 10.75C18.5943 10.75 18.8645 10.8619 19.0638 11.0612C19.2631 11.2605 19.375 11.5307 19.375 11.8125C19.375 12.0943 19.2631 12.3645 19.0638 12.5638C18.8645 12.7631 18.5943 12.875 18.3125 12.875Z" stroke="#CFA935" stroke-width="1.5" stroke-linecap="round" stroke-linejoin="round"/>
</svg>
