<svg width="48" height="48" viewBox="0 0 48 48" fill="none" xmlns="http://www.w3.org/2000/svg">
<g clip-path="url(#clip0_33678_52416)">
<path d="M25.5484 27.871H22.4516C22.0252 27.871 21.6774 27.5232 21.6774 27.0968H20.1291C20.1291 28.3772 21.1713 29.4194 22.4516 29.4194H23.2258V30.1936H24.7742V29.4194H25.5484C26.8288 29.4194 27.871 28.3772 27.871 27.0968V26.3226C27.871 25.0422 26.8288 24 25.5484 24H22.4516C22.0252 24 21.6774 23.6522 21.6774 23.2258V22.4516C21.6774 22.0252 22.0252 21.6774 22.4516 21.6774H25.5484C25.9748 21.6774 26.3226 22.0252 26.3226 22.4516H27.871C27.871 21.1713 26.8288 20.1291 25.5484 20.1291H24.7742V19.3549H23.2258V20.1291H22.4516C21.1713 20.1291 20.1291 21.1713 20.1291 22.4516V23.2258C20.1291 24.5062 21.1713 25.5484 22.4516 25.5484H25.5484C25.9748 25.5484 26.3226 25.8962 26.3226 26.3226V27.0968C26.3226 27.5232 25.9748 27.871 25.5484 27.871Z" fill="black"/>
<path d="M45.6774 9.29032H35.6129V2.32258C35.6129 1.04221 34.5707 0 33.2903 0H14.7097C13.4293 0 12.3871 1.04221 12.3871 2.32258V9.29032H2.32258C1.04221 9.29032 0 10.3325 0 11.6129V21.6774C0 22.6852 0.649446 23.5369 1.54839 23.8575V43.3548H15.4839V46.4516H13.9355V48H34.0645V46.4516H32.5161V43.3548H46.4516V23.8575C47.3506 23.5369 48 22.6852 48 21.6774V11.6129C48 10.3325 46.9578 9.29032 45.6774 9.29032ZM13.9355 2.32258C13.9355 1.89617 14.2833 1.54839 14.7097 1.54839H33.2903C33.7167 1.54839 34.0645 1.89617 34.0645 2.32258V9.29032H32.5161V3.09677H15.4839V9.29032H13.9355V2.32258ZM30.9677 9.29032H17.0323V4.64516H30.9677V9.29032ZM18.5806 46.4516H17.0323V41.8065H18.5806V46.4516ZM24.7742 46.4516H23.2258V38.7097H24.7742V46.4516ZM29.4194 46.4516V35.6129H30.9677V46.4516H29.4194ZM32.5161 41.8065V34.0645H27.871V46.4516H26.3226V37.1613H21.6774V46.4516H20.129V40.2581H15.4839V41.8065H3.09677V24H15.5232C15.5001 24.2555 15.4839 24.5126 15.4839 24.7742C15.4839 29.4696 19.3046 33.2903 24 33.2903C28.6954 33.2903 32.5161 29.4696 32.5161 24.7742C32.5161 24.5126 32.4999 24.2555 32.4768 24H44.9032V41.8065H32.5161ZM17.0323 24.7742C17.0323 20.9327 20.1585 17.8065 24 17.8065C27.8415 17.8065 30.9677 20.9327 30.9677 24.7742C30.9677 28.6157 27.8415 31.7419 24 31.7419C20.1585 31.7419 17.0323 28.6157 17.0323 24.7742ZM46.4516 21.6774C46.4516 22.1038 46.1038 22.4516 45.6774 22.4516H32.1865C31.1723 18.8827 27.8902 16.2581 24 16.2581C20.1098 16.2581 16.8285 18.8827 15.8135 22.4516H2.32258C1.89617 22.4516 1.54839 22.1038 1.54839 21.6774V11.6129C1.54839 11.1865 1.89617 10.8387 2.32258 10.8387H45.6774C46.1038 10.8387 46.4516 11.1865 46.4516 11.6129V21.6774Z" fill="black"/>
<path d="M3.0968 12.3871H4.64519V13.9355H3.0968V12.3871Z" fill="black"/>
<path d="M6.19357 12.3871H7.74196V13.9355H6.19357V12.3871Z" fill="black"/>
<path d="M9.29034 12.3871H10.8387V13.9355H9.29034V12.3871Z" fill="black"/>
<path d="M3.0968 15.4839H4.64519V17.0323H3.0968V15.4839Z" fill="black"/>
<path d="M6.19357 15.4839H7.74196V17.0323H6.19357V15.4839Z" fill="black"/>
<path d="M43.3549 19.3549H44.9032V20.9032H43.3549V19.3549Z" fill="black"/>
<path d="M40.2581 19.3549H41.8065V20.9032H40.2581V19.3549Z" fill="black"/>
<path d="M37.1613 19.3549H38.7097V20.9032H37.1613V19.3549Z" fill="black"/>
<path d="M43.3549 16.2581H44.9032V17.8064H43.3549V16.2581Z" fill="black"/>
<path d="M40.2581 16.2581H41.8065V17.8064H40.2581V16.2581Z" fill="black"/>
<path d="M4.6452 35.6129H9.29036V37.1613H4.6452V35.6129Z" fill="black"/>
<path d="M4.6452 38.7097H10.8388V40.2581H4.6452V38.7097Z" fill="black"/>
</g>
<defs>
<clipPath id="clip0_33678_52416">
<rect width="48" height="48" fill="white"/>
</clipPath>
</defs>
</svg>
