<svg width="64" height="64" viewBox="0 0 64 64" fill="none" xmlns="http://www.w3.org/2000/svg">
<path d="M25.1898 9.38232C29.2775 8.15573 33.6216 8.05838 37.7601 9.10107C41.8983 10.1438 45.6772 12.2873 48.6956 15.3042L48.6966 15.3052C51.9719 18.5697 54.2067 22.7316 55.1185 27.2651L55.2151 27.7466H58.0667V38.8696L48.8089 47.3726L35.4798 45.8638V42.5464H48.0403L48.22 42.3315L50.3802 39.7446L50.4398 39.6733L50.4749 39.5884C51.4377 37.2502 51.9602 34.7461 51.9603 32.0005C51.9603 30.0194 51.6572 28.1215 51.1351 26.3628L50.9749 25.8218L50.4251 25.9487C48.7361 26.3385 46.9681 26.5464 45.1204 26.5464H45.1194C41.3382 26.5504 37.6114 25.6456 34.2532 23.9077C30.8951 22.1698 28.0039 19.6502 25.8235 16.561L25.1946 15.6694L24.7786 16.6782C22.4476 22.325 18.0453 26.8665 12.4739 29.3726L12.179 29.5054L12.1273 29.8257C12.0118 30.5478 12.013 31.3172 12.013 32.0005C12.0131 34.625 12.5301 37.2242 13.5345 39.6489C14.5389 42.0737 16.0117 44.2765 17.8675 46.1323C21.6157 49.8806 26.6995 51.9868 32.0003 51.9868C34.6886 51.9868 37.2805 51.4376 39.6439 50.4526C40.2712 51.658 40.7396 52.5749 41.0521 53.2085C41.1371 53.381 41.2073 53.533 41.2689 53.6616C37.2168 54.9827 34.1142 55.6137 32.0003 55.6138C25.7046 55.6138 19.6978 53.142 15.2786 48.6968L15.2767 48.6948L14.7806 48.1851C12.3397 45.6033 10.5159 42.4976 9.45245 39.1011L9.32062 38.6802H5.93292V27.7466H8.72882L8.82745 27.2671C9.68633 23.0867 11.6616 19.2167 14.5423 16.0679C17.423 12.9191 21.1022 10.6089 25.1898 9.38232ZM24.72 31.9868C25.2805 31.9868 25.8216 32.1828 26.2454 32.5435L26.4193 32.7075L26.4271 32.7163C26.8782 33.1712 27.132 33.7856 27.1321 34.4263C27.1321 35.0671 26.8784 35.6822 26.4271 36.1372C25.9804 36.5829 25.3611 36.8403 24.72 36.8403C23.3645 36.8403 22.2796 35.768 22.2796 34.4263C22.2798 33.0778 23.3715 31.9868 24.72 31.9868ZM39.2532 31.9868C40.5948 31.9868 41.6661 33.0709 41.6663 34.4263C41.6663 35.7749 40.6019 36.8403 39.2532 36.8403C37.8977 36.8403 36.8138 35.768 36.8138 34.4263C36.8139 33.7794 37.0704 33.1591 37.5276 32.7017C37.9852 32.2441 38.6061 31.9868 39.2532 31.9868Z" fill="#CFA935" stroke="white" stroke-width="1.2"/>
</svg>
