<svg width="40" height="40" viewBox="0 0 40 40" fill="none" xmlns="http://www.w3.org/2000/svg">
<g clip-path="url(#clip0_35491_49426)">
<path d="M27.1401 15.2733C24.2339 11.6171 19.898 9.53125 15.2342 9.53125C6.84375 9.53125 0.000244141 16.3748 0.000244141 24.7652C0.000244141 28.8197 1.59399 32.6635 4.47664 35.5227C7.33601 38.4055 11.1797 39.9992 15.2343 39.9992C23.6247 39.9992 30.4682 33.1556 30.4682 24.7653C30.4681 21.3433 29.2962 17.9684 27.1401 15.2733Z" fill="#FF6C6C"/>
<path d="M30.4679 24.7652C30.4679 33.1556 23.6244 39.9992 15.2339 39.9992V9.53125C19.8979 9.53125 24.2337 11.6171 27.1398 15.2733C29.296 17.9684 30.4679 21.3433 30.4679 24.7652Z" fill="#FF4949"/>
<path d="M15.2339 14.2188C9.42162 14.2188 4.68726 18.953 4.68726 24.7654C4.68726 30.5776 9.42162 35.312 15.2339 35.312C21.0461 35.312 25.7805 30.5776 25.7805 24.7654C25.7805 18.953 21.0463 14.2188 15.2339 14.2188Z" fill="#EDE9E8"/>
<path d="M25.7805 24.7654C25.7805 30.5776 21.0461 35.312 15.2339 35.312V14.2188C21.0463 14.2188 25.7805 18.953 25.7805 24.7654Z" fill="#DFD7D5"/>
<path d="M15.234 18.9062C11.9997 18.9062 9.37476 21.5312 9.37476 24.7655C9.37476 27.9997 11.9997 30.6247 15.234 30.6247C18.4683 30.6247 21.0932 27.9997 21.0932 24.7655C21.0932 21.5312 18.4683 18.9062 15.234 18.9062Z" fill="#FF6C6C"/>
<path d="M21.0933 24.7655C21.0933 27.9997 18.4684 30.6247 15.2341 30.6247V18.9062C18.4684 18.9062 21.0933 21.5312 21.0933 24.7655Z" fill="#FF4949"/>
<path d="M39.9053 7.36026C39.7178 6.91495 39.296 6.64917 38.8271 6.64917H33.3507V1.17285C33.3507 0.704105 33.0851 0.282231 32.6398 0.0946535C32.2179 -0.0929243 31.7024 0.000981761 31.3743 0.352465L22.9214 8.78206C22.7104 9.01636 22.5933 9.2976 22.5933 9.62581V16.235C22.5933 16.8913 23.1088 17.4069 23.7651 17.4069H30.3743C30.7024 17.4069 30.9836 17.2897 31.2181 17.0788L39.6474 8.62581C39.999 8.29761 40.0928 7.78206 39.9053 7.36026Z" fill="#73BCFF"/>
<path d="M29.5539 12.1092L24.2572 17.4059L16.0543 25.5854C15.8434 25.8199 15.5387 25.9371 15.2341 25.9371C14.9294 25.9371 14.6247 25.8199 14.4138 25.5854C13.9451 25.1401 13.9451 24.3901 14.4138 23.9448L15.234 23.1246L22.5932 15.7419L27.8899 10.4453C28.3586 9.97656 29.1086 9.97656 29.5539 10.4453C30.0227 10.8905 30.0227 11.6405 29.5539 12.1092Z" fill="#3E5959"/>
<path d="M29.554 12.1091L24.2573 17.4058L16.0544 25.5854C15.8435 25.8198 15.5388 25.937 15.2341 25.937V23.1246L22.5933 15.7419L27.89 10.4453C28.3587 9.97656 29.1087 9.97656 29.554 10.4453C30.0228 10.8904 30.0228 11.6404 29.554 12.1091Z" fill="#384949"/>
</g>
<defs>
<clipPath id="clip0_35491_49426">
<rect width="40" height="40" fill="white"/>
</clipPath>
</defs>
</svg>
