<svg width="58" height="58" viewBox="0 0 58 58" fill="none" xmlns="http://www.w3.org/2000/svg">
<g id="Icons" clip-path="url(#clip0_16106_17649)">
<path id="Vector" d="M39.5899 15.9074C39.3702 15.738 39.1192 15.6137 38.8513 15.5415C38.5834 15.4693 38.3039 15.4506 38.0288 15.4865C37.7537 15.5224 37.4884 15.6122 37.248 15.7508C37.0077 15.8894 36.797 16.074 36.6281 16.294L23.1605 33.8642L20.9594 31.7491C20.5602 31.3667 20.0288 31.1532 19.476 31.1532C18.9232 31.1532 18.3918 31.3667 17.9927 31.7491L16.0796 33.6689C15.6868 34.0649 15.4671 34.6006 15.4688 35.1584C15.4704 35.7162 15.6932 36.2506 16.0883 36.6443L21.0734 41.5211C21.3926 41.8435 21.7726 42.0991 22.1915 42.2732C22.6104 42.4473 23.0597 42.5363 23.5133 42.5352C23.5839 42.5352 23.6564 42.5352 23.7385 42.5284C24.229 42.4963 24.7069 42.3599 25.1404 42.1281C25.5738 41.8964 25.9528 41.5748 26.2519 41.1847L42.1052 20.5087C42.4439 20.0631 42.5932 19.5019 42.5208 18.9469C42.4484 18.3919 42.1602 17.8878 41.7185 17.5439L39.5899 15.9074ZM40.5624 19.3352L24.7091 40.0112C24.5797 40.1814 24.4156 40.3221 24.2275 40.4238C24.0395 40.5255 23.8319 40.5858 23.6187 40.6009H23.5094C23.3084 40.6007 23.1095 40.5604 22.9243 40.4824C22.739 40.4043 22.5712 40.2902 22.4306 40.1465L17.4455 35.2697C17.4298 35.2542 17.4174 35.2358 17.4089 35.2155C17.4004 35.1951 17.396 35.1733 17.396 35.1513C17.396 35.1293 17.4004 35.1074 17.4089 35.0871C17.4174 35.0668 17.4298 35.0483 17.4455 35.0329L19.3595 33.1131C19.374 33.0979 19.3914 33.0858 19.4107 33.0775C19.4299 33.0691 19.4507 33.0648 19.4717 33.0647C19.4963 33.0655 19.5205 33.0715 19.5427 33.0823C19.5649 33.0932 19.5845 33.1086 19.6002 33.1276L22.5969 36.0063C22.6958 36.0992 22.8127 36.1709 22.9404 36.2168C23.0681 36.2627 23.2039 36.2818 23.3393 36.2731C23.475 36.263 23.6071 36.2244 23.7269 36.1598C23.8466 36.0952 23.9514 36.006 24.0343 35.898L38.1631 17.4705C38.1916 17.4339 38.2334 17.41 38.2793 17.404C38.3253 17.398 38.3718 17.4105 38.4087 17.4386L40.5286 19.0742C40.548 19.089 40.5643 19.1076 40.5765 19.1288C40.5887 19.15 40.5966 19.1734 40.5997 19.1976C40.6029 19.2219 40.6012 19.2465 40.5948 19.2701C40.5884 19.2937 40.5774 19.3158 40.5624 19.3352Z" fill="#CFA935"/>
<path id="Vector_2" d="M29.0107 57.999H29.3529C33.1651 57.9638 36.9316 57.1651 40.43 55.65C40.7933 55.4916 41.1201 55.2601 41.39 54.9698C41.6599 54.6796 41.8672 54.3369 41.9989 53.9631C42.1873 53.4325 42.2171 52.8585 42.0848 52.3112C41.9525 51.7639 41.6637 51.267 41.2537 50.8811C40.8437 50.4952 40.3302 50.237 39.7759 50.138C39.2216 50.039 38.6505 50.1035 38.1322 50.3236C35.3547 51.526 32.3657 52.1635 29.3394 52.199H28.9972C24.8853 52.1972 20.8476 51.1032 17.2973 49.0288C13.7469 46.9545 10.8113 43.9743 8.79069 40.3931C6.77009 36.8119 5.73704 32.7582 5.79721 28.6467C5.85739 24.5352 7.00863 20.5135 9.13317 16.993C9.46556 17.5285 9.96338 17.9412 10.5513 18.1686C11.1392 18.3959 11.7851 18.4255 12.3914 18.2529C12.9976 18.0803 13.5311 17.7148 13.9111 17.2119C14.291 16.709 14.4968 16.096 14.4972 15.4656V8.69896C14.4972 8.18621 14.2935 7.69446 13.9309 7.33189C13.5684 6.96932 13.0766 6.76563 12.5639 6.76563H5.79721C5.08402 6.76506 4.39563 7.02731 3.86361 7.50227C3.33158 7.97722 2.99323 8.63157 2.91321 9.34025C2.83319 10.0489 3.01712 10.7623 3.42985 11.3439C3.84257 11.9255 4.45515 12.3347 5.15051 12.4931C2.13342 16.8445 0.365802 21.9391 0.0394839 27.2241C-0.286834 32.5091 0.840619 37.7825 3.29948 42.472C5.75833 47.1615 9.45467 51.0879 13.9873 53.8251C18.5199 56.5624 23.7157 58.0059 29.0107 57.999ZM7.77984 12.2022C7.89339 12.06 7.9645 11.8886 7.98499 11.7078C8.00547 11.5269 7.9745 11.344 7.89563 11.18C7.81676 11.016 7.69319 10.8776 7.53915 10.7807C7.38511 10.6838 7.20685 10.6324 7.02487 10.6323H5.79721C5.54083 10.6323 5.29495 10.5304 5.11367 10.3492C4.93238 10.1679 4.83054 9.922 4.83054 9.66563C4.83054 9.40925 4.93238 9.16337 5.11367 8.98209C5.29495 8.8008 5.54083 8.69896 5.79721 8.69896H12.5639V15.4656C12.5639 15.722 12.462 15.9679 12.2807 16.1492C12.0995 16.3304 11.8536 16.4323 11.5972 16.4323C11.3408 16.4323 11.095 16.3304 10.9137 16.1492C10.7324 15.9679 10.6305 15.722 10.6305 15.4656V14.499C10.6305 14.2961 10.5667 14.0983 10.4481 13.9337C10.3294 13.7691 10.162 13.6461 9.96956 13.5819C9.77709 13.5177 9.5693 13.5158 9.37564 13.5763C9.18199 13.6368 9.01227 13.7566 8.89054 13.919C6.07039 17.6781 4.36065 22.1526 3.95543 26.8345C3.55021 31.5164 4.46574 36.2181 6.59808 40.4059C8.73042 44.5937 11.9942 48.0997 16.0188 50.5261C20.0434 52.9524 24.6676 54.2017 29.3665 54.1323C32.648 54.0942 35.8892 53.4042 38.9017 52.1023C39.1232 52.0084 39.372 52.0019 39.5982 52.0841C39.8243 52.1662 40.011 52.3309 40.1206 52.545C40.1835 52.6639 40.2209 52.7946 40.2304 52.9288C40.2399 53.0629 40.2213 53.1976 40.1757 53.3242C40.1338 53.4478 40.0663 53.5612 39.9777 53.6571C39.8891 53.7531 39.7814 53.8293 39.6615 53.881C36.3982 55.2914 32.8856 56.0342 29.3307 56.0656C24.2138 56.1346 19.1823 54.7506 14.8205 52.0744C10.4587 49.3982 6.94549 45.5396 4.68889 40.9467C2.4323 36.3537 1.52488 31.2149 2.072 26.1268C2.61913 21.0388 4.59835 16.2103 7.77984 12.2022Z" fill="#CFA935"/>
<path id="Vector_3" d="M29.0007 0C25.0799 0.00619971 21.2005 0.80213 17.594 2.3403C16.9145 2.66032 16.3857 3.23147 16.1189 3.93352C15.8521 4.63557 15.868 5.41376 16.1633 6.1043C16.4587 6.79483 17.0104 7.34385 17.7024 7.6358C18.3944 7.92774 19.1727 7.93983 19.8734 7.66953C23.4022 6.16131 27.25 5.55175 31.0722 5.89543C34.8944 6.2391 38.5717 7.5253 41.7749 9.63884C44.978 11.7524 47.607 14.6273 49.4265 18.0062C51.246 21.385 52.1992 25.1624 52.2007 29C52.2155 33.2322 51.0604 37.3862 48.8628 41.0031C48.5299 40.4682 48.0319 40.0563 47.4441 39.8297C46.8563 39.603 46.2106 39.5739 45.6048 39.7468C44.999 39.9197 44.466 40.2851 44.0863 40.7879C43.7067 41.2906 43.5011 41.9033 43.5007 42.5333V49.3C43.5007 49.8128 43.7043 50.3045 44.0669 50.6671C44.4295 51.0296 44.9212 51.2333 45.434 51.2333H52.2007C52.9135 51.2341 53.6017 50.9722 54.1337 50.4977C54.6658 50.0233 55.0044 49.3695 55.085 48.6612C55.1656 47.9529 54.9825 47.2397 54.5706 46.6579C54.1587 46.076 53.547 45.6662 52.8522 45.5068C56.2282 40.6665 58.0263 34.9013 58.0007 29C57.992 21.3114 54.9338 13.9402 49.4972 8.50351C44.0605 3.06684 36.6893 0.00869898 29.0007 0ZM50.1127 46.8205C50.1917 46.9841 50.3152 47.1221 50.4691 47.2187C50.623 47.3153 50.801 47.3666 50.9827 47.3667H52.2007C52.457 47.3667 52.7029 47.4685 52.8842 47.6498C53.0655 47.8311 53.1673 48.077 53.1673 48.3333C53.1673 48.5897 53.0655 48.8356 52.8842 49.0169C52.7029 49.1982 52.457 49.3 52.2007 49.3H45.434V42.5333C45.434 42.277 45.5358 42.0311 45.7171 41.8498C45.8984 41.6685 46.1443 41.5667 46.4007 41.5667C46.657 41.5667 46.9029 41.6685 47.0842 41.8498C47.2655 42.0311 47.3673 42.277 47.3673 42.5333V43.5C47.3673 43.7029 47.4312 43.9006 47.5498 44.0652C47.6684 44.2298 47.8358 44.3529 48.0283 44.4171C48.2208 44.4812 48.4286 44.4832 48.6222 44.4227C48.8159 44.3622 48.9856 44.2423 49.1073 44.08C52.3882 39.739 54.154 34.4413 54.134 29C54.1324 24.8421 53.0996 20.7495 51.1279 17.0887C49.1562 13.428 46.3074 10.3135 42.8365 8.02412C39.3656 5.73476 35.381 4.34207 31.2397 3.97079C27.0984 3.5995 22.9296 4.26122 19.1068 5.89667C18.8851 5.99205 18.6354 5.99957 18.4084 5.91773C18.1813 5.83588 17.9939 5.67077 17.884 5.45587C17.8214 5.3365 17.7843 5.20545 17.775 5.07101C17.7657 4.93657 17.7844 4.80166 17.8299 4.6748C17.8728 4.55055 17.9414 4.43671 18.0312 4.34063C18.1209 4.24455 18.2299 4.16838 18.3509 4.11703C22.4676 2.35514 26.9571 1.64214 31.4171 2.04192C35.8771 2.44169 40.1683 3.94176 43.906 6.40769C47.6437 8.87361 50.7113 12.2284 52.8337 16.1713C54.9562 20.1142 56.0672 24.5221 56.0673 29C56.094 35.1021 54.0327 41.0298 50.2258 45.7987C50.1127 45.9412 50.0421 46.1126 50.0221 46.2933C50.0021 46.4741 50.0335 46.6568 50.1127 46.8205Z" fill="#CFA935"/>
</g>
<defs>
<clipPath id="clip0_16106_17649">
<rect width="58" height="58" fill="white"/>
</clipPath>
</defs>
</svg>
