<svg width="48" height="48" viewBox="0 0 48 48" fill="none" xmlns="http://www.w3.org/2000/svg">
<path d="M1.06083 31.0399L7.19564 33.3859C7.60453 33.5417 8.05855 33.529 8.45807 33.3505C8.8576 33.172 9.16998 32.8423 9.32667 32.4337L9.43805 32.1431C9.49486 32.1742 9.55139 32.2057 9.6082 32.2369C9.94032 32.8777 10.3373 33.4828 10.7928 34.0427C10.5859 34.39 10.4746 34.7861 10.4705 35.1904C10.4663 35.5947 10.5694 35.993 10.7692 36.3445C10.969 36.6961 11.2584 36.9884 11.6079 37.1917C11.9574 37.395 12.3546 37.5021 12.759 37.502C12.7721 37.502 12.7853 37.5012 12.7985 37.501C12.8603 38.0605 13.1265 38.5776 13.546 38.953C13.9654 39.3284 14.5087 39.5358 15.0717 39.5354C15.0848 39.5354 15.098 39.5346 15.1112 39.5344C15.1729 40.0934 15.4386 40.61 15.8575 40.9852C16.2764 41.3605 16.8189 41.568 17.3813 41.5681C17.3957 41.5681 17.4102 41.5669 17.4245 41.5667C17.4856 42.1259 17.751 42.6429 18.1699 43.0185C18.5887 43.3941 19.1315 43.6017 19.6941 43.6016C19.7441 43.6016 19.7945 43.6 19.8451 43.5968C20.1453 43.5786 20.4388 43.5011 20.7088 43.3688C20.9788 43.2364 21.2198 43.0518 21.418 42.8256L21.8269 42.3605L24.0543 44.25C24.3799 44.5267 24.7765 44.7067 25.1991 44.7696C25.6218 44.8325 26.0536 44.7757 26.4456 44.6058C26.8377 44.4358 27.1743 44.1595 27.4173 43.808C27.6603 43.4565 27.8001 43.044 27.8206 42.6172C27.855 42.6159 27.8894 42.6158 27.9238 42.613C28.4409 42.5717 28.9285 42.3554 29.3062 41.9999C29.684 41.6443 29.9294 41.1707 30.002 40.6571C30.0632 40.662 30.1248 40.6652 30.1868 40.6652C30.2505 40.6652 30.3146 40.6625 30.379 40.6573C30.884 40.6169 31.3613 40.4098 31.7357 40.0684C32.11 39.727 32.3603 39.2709 32.4469 38.7717C32.5441 38.7849 32.642 38.7918 32.7401 38.7925C32.8038 38.7925 32.8679 38.7899 32.9323 38.7846C33.2985 38.7565 33.6524 38.6398 33.9635 38.4446C34.2745 38.2493 34.5335 37.9813 34.718 37.6638C34.9025 37.3462 35.007 36.9885 35.0226 36.6215C35.0381 36.2546 34.9642 35.8893 34.8073 35.5573C35.6376 34.9788 36.4767 34.1389 37.3527 33.0094C37.3575 33.0032 37.362 32.9969 37.3668 32.9906C37.6677 32.5846 38.068 32.263 38.5293 32.0568L38.6735 32.4337C38.7507 32.6363 38.8671 32.8217 39.016 32.9793C39.165 33.1368 39.3435 33.2635 39.5415 33.3519C39.7394 33.4404 39.9529 33.4889 40.1696 33.4948C40.3864 33.5006 40.6021 33.4636 40.8045 33.3859L46.9394 31.0399C47.3479 30.8832 47.6776 30.5707 47.856 30.1712C48.0345 29.7716 48.0472 29.3176 47.8913 28.9087L43.0939 16.3636C42.9372 15.955 42.6248 15.6253 42.2253 15.4469C41.8258 15.2684 41.3718 15.2557 40.9629 15.4115L34.8282 17.7575C34.4196 17.9143 34.09 18.2267 33.9115 18.6262C33.733 19.0257 33.7203 19.4797 33.8761 19.8886L33.9522 20.0875C33.7522 20.1569 33.5387 20.2313 33.3119 20.3106C33.3039 20.2993 33.2962 20.2877 33.2875 20.2766L31.7642 18.3454C31.8602 18.1375 31.9479 17.9261 32.0273 17.7111L34.4699 17.4225C34.6522 17.4009 34.8204 17.3131 34.9424 17.1759C35.0644 17.0386 35.1317 16.8613 35.1317 16.6776V12.593C35.1317 12.4094 35.0644 12.2321 34.9424 12.0948C34.8204 11.9575 34.6522 11.8698 34.4699 11.8482L32.0269 11.5594C31.9476 11.3453 31.86 11.134 31.764 10.9258L33.2875 8.99379C33.4012 8.84957 33.4581 8.66862 33.4473 8.48526C33.4365 8.3019 33.3588 8.12888 33.2289 7.99901L30.3407 5.11094C30.2109 4.98106 30.0378 4.90335 29.8545 4.89255C29.6711 4.88175 29.4902 4.93861 29.346 5.05235L27.4147 6.57551C27.2068 6.4797 26.9954 6.39219 26.7805 6.31301L26.4915 3.86998C26.4699 3.68759 26.3822 3.51945 26.2449 3.39744C26.1076 3.27543 25.9304 3.20802 25.7467 3.20801H21.6622C21.4785 3.20802 21.3013 3.27543 21.164 3.39744C21.0267 3.51945 20.939 3.68759 20.9175 3.86998L20.6287 6.31301C20.4143 6.39232 20.203 6.47982 19.9949 6.57551L18.063 5.05207C17.9187 4.93836 17.7378 4.88151 17.5545 4.89231C17.3711 4.90311 17.1981 4.98081 17.0683 5.11066L14.1803 7.99901C14.0504 8.12887 13.9727 8.30188 13.9619 8.48524C13.951 8.6686 14.0079 8.84955 14.1216 8.99379L15.645 10.9257C15.5492 11.1334 15.4617 11.3447 15.3825 11.5594L12.9396 11.8482C12.7572 11.8698 12.5891 11.9575 12.467 12.0948C12.345 12.2321 12.2776 12.4094 12.2776 12.593V16.6774C12.2776 16.861 12.345 17.0383 12.467 17.1756C12.5891 17.3129 12.7572 17.4006 12.9396 17.4222L15.3825 17.7109C15.4618 17.9251 15.5494 18.1363 15.6454 18.3446L14.2594 20.1019L14.0757 20.0153L14.1241 19.8886C14.2799 19.4797 14.2671 19.0257 14.0886 18.6262C13.9101 18.2267 13.5805 17.9143 13.1719 17.7575L7.03721 15.4115C6.62833 15.2557 6.17433 15.2684 5.77481 15.4469C5.3753 15.6253 5.0629 15.955 4.90617 16.3636L0.108894 28.9087C-0.0470012 29.3176 -0.0343247 29.7716 0.144141 30.1712C0.322607 30.5707 0.652285 30.8831 1.06083 31.0399ZM12.2387 35.8059C12.0816 35.6675 11.9859 35.4723 11.9725 35.2634C11.959 35.0544 12.029 34.8487 12.1671 34.6912L13.4134 33.2739C13.5517 33.1166 13.7469 33.0207 13.9559 33.0073C14.1649 32.9938 14.3707 33.064 14.528 33.2023C14.6853 33.3406 14.7812 33.5357 14.7947 33.7448C14.8081 33.9538 14.7379 34.1596 14.5996 34.3169L13.3533 35.7343C13.2148 35.8913 13.0198 35.987 12.8108 36.0004C12.6019 36.0139 12.3962 35.9439 12.2387 35.8059ZM14.5515 37.8395C14.3945 37.7012 14.2988 37.5062 14.2852 37.2974C14.2717 37.0886 14.3415 36.883 14.4793 36.7255L14.4799 36.7249L15.7261 35.3076L15.7267 35.3069L16.4083 34.5318C16.4767 34.4539 16.56 34.3905 16.6531 34.345C16.7463 34.2996 16.8475 34.2731 16.951 34.267C16.9685 34.2659 16.9861 34.2653 17.0036 34.2653C17.1947 34.2646 17.3795 34.3339 17.523 34.4602C17.6792 34.5992 17.7743 34.7942 17.7877 35.0028C17.8011 35.2115 17.7317 35.417 17.5945 35.5748L17.0642 36.1779L15.6663 37.7676C15.5279 37.9248 15.3328 38.0207 15.1238 38.0342C14.9147 38.0477 14.7089 37.9777 14.5515 37.8395ZM16.8643 39.8732C16.7072 39.7347 16.6114 39.5396 16.598 39.3306C16.5846 39.1217 16.6546 38.9159 16.7926 38.7585L18.1906 37.1686C18.329 37.0113 18.5241 36.9154 18.7332 36.902C18.9422 36.8886 19.148 36.9588 19.3053 37.0971C19.4626 37.2354 19.5585 37.4306 19.5719 37.6396C19.5853 37.8486 19.5151 38.0544 19.3768 38.2117L18.6455 39.0438L18.6447 39.0447L17.979 39.8015C17.8401 39.9578 17.6451 40.053 17.4365 40.0664C17.2278 40.0798 17.0223 40.0104 16.8645 39.8732H16.8643ZM20.2916 41.8352C20.2233 41.9139 20.1402 41.9783 20.0469 42.0248C19.9536 42.0712 19.8521 42.0988 19.7482 42.1058C19.6442 42.1128 19.5399 42.0992 19.4412 42.0658C19.3425 42.0323 19.2515 41.9797 19.1732 41.9109C19.095 41.8421 19.0311 41.7585 18.9853 41.6649C18.9395 41.5713 18.9127 41.4696 18.9064 41.3656C18.9001 41.2616 18.9144 41.1573 18.9486 41.0589C18.9827 40.9605 19.036 40.8698 19.1054 40.792L19.7715 40.0346C19.9106 39.8799 20.1051 39.7864 20.3127 39.7743C20.5204 39.7622 20.7245 39.8325 20.8806 39.9699C21.0368 40.1074 21.1324 40.3009 21.1467 40.5084C21.161 40.7159 21.0929 40.9207 20.9571 41.0783L20.2916 41.8352ZM35.2808 19.2379C35.2886 19.2198 35.3 19.2035 35.3142 19.1898C35.3285 19.1762 35.3453 19.1656 35.3638 19.1585L41.4987 16.8125C41.536 16.7988 41.5772 16.8002 41.6134 16.8164C41.6497 16.8326 41.6782 16.8624 41.6928 16.8994L46.4907 29.4446C46.5044 29.4819 46.503 29.5231 46.4868 29.5593C46.4705 29.5956 46.4408 29.6241 46.4039 29.6388L40.269 31.9848C40.2318 31.9986 40.1906 31.9972 40.1543 31.981C40.118 31.9648 40.0895 31.935 40.0749 31.898L35.277 19.3528C35.27 19.3344 35.2667 19.3147 35.2673 19.295C35.2679 19.2753 35.2725 19.2559 35.2808 19.2379ZM37.9925 30.6532C37.2649 30.965 36.6327 31.4638 36.1602 32.0989C35.3507 33.1413 34.5743 33.9113 33.8445 34.3973L25.1706 26.2233C24.9502 26.0155 24.6884 25.8565 24.4024 25.7567C24.1164 25.6568 23.8126 25.6184 23.5108 25.6438C23.2089 25.6692 22.9158 25.7579 22.6505 25.9042C22.3853 26.0505 22.1538 26.251 21.9712 26.4927C21.7424 26.7993 21.5692 27.1436 21.4594 27.51C21.4504 27.5392 21.4433 27.5689 21.438 27.599C21.1307 29.3334 20.3805 30.3826 19.3258 30.5522C19.2538 30.5637 19.184 30.5856 19.1184 30.6173C19.0324 30.6589 18.9377 30.6793 18.8422 30.6768C18.7467 30.6742 18.6532 30.6489 18.5695 30.6029C18.4858 30.5569 18.4143 30.4915 18.361 30.4123C18.3077 30.333 18.2741 30.2421 18.2631 30.1473L18.3287 25.5093C18.3268 25.4115 18.3484 25.3147 18.3915 25.2269C18.4346 25.1391 18.4981 25.063 18.5766 25.0047L23.4516 21.1316C23.7582 20.8767 24.1532 20.7536 24.5503 20.7893C27.4265 20.9835 29.8144 21.3911 32.2927 22.1112C32.4433 22.1549 32.6038 22.1504 32.7516 22.0982C33.412 21.8651 33.9935 21.6614 34.4889 21.4895L37.9925 30.6532ZM23.705 17.9189C23.0556 17.9189 22.4207 17.7263 21.8807 17.3655C21.3407 17.0047 20.9198 16.4919 20.6712 15.8919C20.4227 15.2919 20.3576 14.6316 20.4843 13.9946C20.611 13.3577 20.9237 12.7726 21.383 12.3133C21.8422 11.8541 22.4273 11.5413 23.0643 11.4146C23.7012 11.2879 24.3615 11.3529 24.9615 11.6015C25.5615 11.85 26.0744 12.2709 26.4352 12.8109C26.796 13.3509 26.9886 13.9857 26.9886 14.6352C26.9876 15.5058 26.6413 16.3405 26.0256 16.9562C25.4099 17.5718 24.5752 17.918 23.7045 17.9189H23.705ZM15.7125 20.682L17.1166 18.9013C17.2066 18.7871 17.2615 18.6492 17.2745 18.5044C17.2876 18.3596 17.2583 18.2141 17.1901 18.0857C16.9724 17.6755 16.7941 17.2457 16.6575 16.8019C16.6149 16.6628 16.5328 16.5391 16.4211 16.4459C16.3095 16.3527 16.1731 16.294 16.0287 16.2769L13.7775 16.0108V13.2596L16.0285 12.9937C16.1729 12.9766 16.3093 12.9179 16.4209 12.8247C16.5326 12.7315 16.6147 12.6078 16.6574 12.4687C16.7938 12.0247 16.9721 11.5947 17.1898 11.1844C17.2579 11.0559 17.2872 10.9104 17.2742 10.7656C17.2611 10.6208 17.2063 10.4829 17.1163 10.3687L15.7125 8.58832L17.658 6.64291L19.4385 8.04701C19.5527 8.13701 19.6906 8.19189 19.8354 8.20495C19.9802 8.21802 20.1257 8.18871 20.2542 8.1206C20.6644 7.90296 21.0942 7.72469 21.5381 7.5882C21.6772 7.54556 21.8008 7.46341 21.8941 7.35173C21.9873 7.24006 22.046 7.10368 22.0631 6.95923L22.3292 4.70801H25.0805L25.3465 6.95894C25.3636 7.10339 25.4223 7.23974 25.5155 7.35139C25.6088 7.46305 25.7324 7.54519 25.8715 7.58782C26.3155 7.72424 26.7456 7.90254 27.1559 8.12032C27.2843 8.18844 27.4298 8.21777 27.5746 8.20472C27.7194 8.19167 27.8573 8.13681 27.9715 8.04682L29.7519 6.64291L31.6969 8.58832L30.2926 10.3696C30.2027 10.4838 30.1478 10.6217 30.1347 10.7665C30.1217 10.9113 30.151 11.0567 30.2191 11.1852C30.4368 11.5952 30.6151 12.025 30.7516 12.4687C30.7943 12.6078 30.8764 12.7315 30.9881 12.8247C31.0997 12.9179 31.2361 12.9766 31.3805 12.9937L33.6315 13.2598V16.011L31.3808 16.277C31.2364 16.2941 31.1 16.3529 30.9883 16.4461C30.8767 16.5393 30.7945 16.663 30.7519 16.802C30.6154 17.246 30.437 17.6761 30.2193 18.0864C30.1511 18.2149 30.1217 18.3605 30.1348 18.5054C30.1478 18.6503 30.2027 18.7883 30.2928 18.9025L31.4105 20.3198C29.3047 19.7918 27.1972 19.471 24.758 19.3012C25.9442 19.0339 26.9842 18.325 27.6666 17.3186C28.3491 16.3122 28.6228 15.0837 28.4321 13.8828C28.2415 12.6819 27.6008 11.5986 26.6403 10.8529C25.6798 10.1073 24.4714 9.75534 23.2607 9.8685C22.05 9.98165 20.9278 10.5515 20.1221 11.4622C19.3163 12.3729 18.8875 13.5561 18.9227 14.7716C18.958 15.9871 19.4546 17.1435 20.3117 18.006C21.1688 18.8686 22.3221 19.3724 23.5373 19.4153C23.1661 19.53 22.8201 19.7141 22.5176 19.9579L20.6764 21.4203C19.6249 21.3871 18.332 21.3465 16.7978 21.2985L15.9097 20.88L15.7125 20.682ZM16.2993 22.7212C16.3922 22.765 16.4931 22.7892 16.5957 22.7924C17.4188 22.8181 18.1736 22.8418 18.86 22.8634L17.6429 23.8303C17.3908 24.0273 17.1866 24.2788 17.0456 24.5659C16.9045 24.853 16.8303 25.1683 16.8284 25.4882L16.7625 30.165C16.7625 30.1866 16.7625 30.2083 16.7644 30.2299C16.7885 30.5619 16.8911 30.8835 17.064 31.168C17.2369 31.4525 17.4749 31.6919 17.7586 31.8662C18.0422 32.0406 18.3632 32.1449 18.6951 32.1707C19.0271 32.1965 19.3603 32.1429 19.6675 32.0145C20.5233 31.8457 22.3226 31.1071 22.9058 27.9101C22.9646 27.7257 23.0534 27.5522 23.1688 27.3967C23.2243 27.3232 23.2948 27.2621 23.3755 27.2176C23.4563 27.1731 23.5455 27.1461 23.6374 27.1384C23.7292 27.1306 23.8217 27.1424 23.9088 27.1727C23.9958 27.2031 24.0755 27.2515 24.1425 27.3148L33.2269 35.8759C33.5714 36.2005 33.6232 36.6903 33.3474 37.0153C33.2112 37.174 33.018 37.2726 32.8096 37.2897C32.6012 37.3068 32.3944 37.241 32.2342 37.1066L31.7457 36.6922L31.7443 36.694C31.721 36.6726 31.6974 36.6514 31.6735 36.6309L27.9063 33.4353C27.7543 33.3094 27.5588 33.2486 27.3622 33.2659C27.1657 33.2832 26.9838 33.3773 26.8562 33.5278C26.7285 33.6783 26.6653 33.873 26.6802 34.0698C26.6952 34.2666 26.7871 34.4495 26.936 34.579L30.7032 37.7749C30.8611 37.9109 30.9589 38.1038 30.9752 38.3117C30.9915 38.5195 30.9249 38.7253 30.7901 38.8843C30.6552 39.0433 30.463 39.1425 30.2553 39.1603C30.0476 39.1781 29.8413 39.1131 29.6813 38.9794L29.2242 38.5916L29.2216 38.5896L29.2182 38.5865L25.5866 35.5058C25.4346 35.38 25.2391 35.3191 25.0425 35.3365C24.8459 35.3538 24.6641 35.4479 24.5364 35.5984C24.4088 35.7489 24.3456 35.9436 24.3605 36.1404C24.3754 36.3371 24.4673 36.5201 24.6163 36.6496L28.2479 39.7303C28.4058 39.8663 28.5036 40.0593 28.5199 40.2671C28.5362 40.4749 28.4696 40.6808 28.3348 40.8397C28.1999 40.9987 28.0077 41.0979 27.8 41.1157C27.5923 41.1336 27.386 41.0686 27.226 40.9349L26.7715 40.5493L26.7707 40.5487L23.676 37.9237C23.5239 37.7979 23.3285 37.737 23.1319 37.7544C22.9353 37.7717 22.7535 37.8658 22.6258 38.0163C22.4981 38.1668 22.4349 38.3615 22.4499 38.5583C22.4648 38.755 22.5567 38.938 22.7056 39.0675L26.0466 41.9017C26.1266 41.9686 26.1925 42.0505 26.2407 42.143C26.2888 42.2354 26.3182 42.3365 26.3271 42.4403C26.336 42.5441 26.3243 42.6487 26.2926 42.748C26.2609 42.8473 26.2099 42.9393 26.1425 43.0188C26.075 43.0983 25.9926 43.1636 25.8998 43.211C25.807 43.2585 25.7057 43.2871 25.6018 43.2953C25.4979 43.3034 25.3934 43.2909 25.2944 43.2585C25.1954 43.226 25.1037 43.1743 25.0247 43.1063L22.5996 41.049C22.726 40.4768 22.6281 39.878 22.326 39.3759C22.0239 38.8739 21.5406 38.5069 20.9759 38.3507C21.0539 38.0892 21.0848 37.8159 21.067 37.5437C21.0359 37.0446 20.8419 36.5695 20.5147 36.1914C20.1874 35.8133 19.7451 35.5531 19.2556 35.4507C19.2867 35.2712 19.2965 35.0887 19.2848 34.9069C19.2666 34.6068 19.1891 34.3132 19.0567 34.0432C18.9244 33.7732 18.7398 33.5322 18.5136 33.334C18.2881 33.1351 18.0254 32.9827 17.7407 32.886C17.456 32.7893 17.1549 32.7499 16.8549 32.7703C16.6054 32.7862 16.3601 32.8426 16.1287 32.9373C15.9825 32.575 15.7459 32.2563 15.4417 32.0113C15.1374 31.7664 14.7755 31.6034 14.3904 31.5379C14.0053 31.4724 13.6099 31.5065 13.2417 31.637C12.8735 31.7676 12.5449 31.9902 12.2871 32.2836L11.7747 32.8664C11.4164 32.3901 11.1026 31.8819 10.8372 31.3483C10.7681 31.212 10.6591 31.1 10.5246 31.0274C10.3424 30.9289 10.1603 30.8294 9.97852 30.7287L13.538 21.4206L16.2993 22.7212ZM1.50989 29.4446L6.30717 16.8994C6.31853 16.8709 6.33815 16.8465 6.3635 16.8293C6.38885 16.8122 6.41877 16.803 6.44939 16.803C6.46719 16.8029 6.48486 16.8061 6.50152 16.8124L12.6362 19.1584C12.6732 19.173 12.703 19.2015 12.7192 19.2378C12.7354 19.2741 12.7368 19.3153 12.723 19.3526L7.92558 31.8981C7.91095 31.9351 7.88244 31.9648 7.84616 31.981C7.80987 31.9972 7.76869 31.9985 7.73142 31.9848L1.59661 29.6388C1.55968 29.6241 1.52994 29.5956 1.51374 29.5593C1.49754 29.5231 1.49616 29.4819 1.50989 29.4446Z" fill="black"/>
</svg>
