<svg width="72" height="73" viewBox="0 0 72 73" fill="none" xmlns="http://www.w3.org/2000/svg">
<path d="M36.0028 1.32422C16.8028 1.32422 1.09375 17.0333 1.09375 36.2333C1.09375 55.4333 16.8028 71.1424 36.0028 71.1424C55.2028 71.1424 70.9119 55.4333 70.9119 36.2333C70.9119 17.0333 55.2028 1.32422 36.0028 1.32422ZM37.0938 68.9606V62.0879C37.0938 61.5424 36.6574 60.9969 36.0028 60.9969C35.3483 60.9969 34.9119 61.4333 34.9119 62.0879V68.9606C17.6756 68.4151 3.82102 54.5606 3.27557 37.3242H10.1483C10.6938 37.3242 11.2392 36.8879 11.2392 36.2333C11.2392 35.6879 10.8028 35.1424 10.1483 35.1424H3.27557C3.82102 17.906 17.6756 4.05149 34.9119 3.50604V10.3788C34.9119 10.9242 35.3483 11.4697 36.0028 11.4697C36.6574 11.4697 37.0938 11.0333 37.0938 10.3788V3.50604C54.3301 4.05149 68.1847 17.906 68.7301 35.1424H61.8574C61.3119 35.1424 60.7665 35.5788 60.7665 36.2333C60.7665 36.7788 61.2028 37.3242 61.8574 37.3242H68.7301C68.1847 54.5606 54.3301 68.4151 37.0938 68.9606Z" fill="#CFA935"/>
<path d="M52.5864 39.069H49.8591V38.1962C52.6955 35.9053 54.4409 31.4326 54.4409 28.269C54.4409 23.469 50.6227 19.6508 45.8227 19.6508C45.1682 19.6508 44.5136 19.7599 43.9682 19.869C42.1136 17.5781 39.1682 16.0508 36.0045 16.0508C32.8409 16.0508 29.8955 17.469 28.0409 19.869C22.5864 18.5599 17.5682 22.8144 17.5682 28.269C17.5682 31.4326 19.4227 35.7962 22.15 38.1962V39.069H19.4227C16.2591 39.069 13.75 41.578 13.75 44.7417V50.5235C13.75 51.069 14.1864 51.6144 14.8409 51.6144H21.0591V55.3235C21.0591 55.869 21.4955 56.4144 22.15 56.4144H50.0773C50.6227 56.4144 51.1682 55.978 51.1682 55.3235V51.6144H57.3864C57.9318 51.6144 58.4773 51.178 58.4773 50.5235V44.7417C58.2591 41.578 55.75 39.069 52.5864 39.069ZM45.9318 21.7235C49.5318 21.7235 52.3682 24.669 52.3682 28.269C52.3682 30.9962 50.7318 34.8144 48.4409 36.669C48.0045 36.7781 45.9318 39.178 42.8773 36.3417C45.0591 33.3962 46.3682 29.5781 46.3682 26.6326C46.3682 24.8871 45.9318 23.3599 45.2773 21.9417C45.4955 21.7235 45.7136 21.7235 45.9318 21.7235ZM38.5136 43.2144L36.0045 45.7235L33.4955 43.2144V39.9417C35.2409 40.7053 36.7682 40.7053 38.6227 39.9417V43.2144H38.5136ZM38.8409 37.4326C36.9864 38.7417 35.1318 38.7417 33.2773 37.4326C33.1682 37.3235 28.15 34.378 27.8227 26.9599L30.55 24.5599C32.2955 26.3053 32.7318 27.6144 33.8227 27.1781C34.9136 26.8508 34.4773 25.6508 35.0227 22.5962C40.15 26.0871 42.8773 27.2871 44.4045 27.5053C43.4227 34.269 38.8409 37.3235 38.8409 37.4326ZM36.0045 18.2326C40.2591 18.2326 43.75 21.3962 44.1864 25.5417C42.4409 24.9962 38.0773 22.4871 34.5864 19.9781C34.2591 19.7599 33.9318 19.7599 33.4955 19.869C33.1682 19.9781 32.95 20.3053 32.8409 20.7417L32.5136 23.9053L31.3136 22.4871C30.2227 21.2871 29.0227 23.2508 28.0409 23.9053C29.2409 20.5235 32.4045 18.2326 36.0045 18.2326ZM19.6409 28.269C19.6409 24.5599 22.8045 21.3962 26.7318 21.8326C26.0773 23.2508 25.6409 24.7781 25.6409 26.4144V26.5235C25.6409 29.469 26.95 33.3962 29.1318 36.2326C27.6045 37.6508 25.8591 38.0871 24.0045 36.8871C23.8955 36.778 19.6409 33.2871 19.6409 28.269ZM15.8227 49.5417V44.7417C15.8227 42.778 17.4591 41.1417 19.4227 41.1417H23.1318C24.4409 41.1417 24.1136 39.5053 24.2227 39.3962C26.5136 40.269 28.5864 39.5053 30.4409 37.869C30.7682 38.1962 30.9864 38.4144 31.3136 38.6326V42.5599H27.7136C24.0045 42.5599 20.95 45.6144 20.95 49.3235V49.4326H15.8227V49.5417ZM44.95 54.2326V48.9962C44.95 48.4508 44.5136 47.9053 43.8591 47.9053C43.2045 47.9053 42.7682 48.3417 42.7682 48.9962V54.2326H29.2409V48.9962C29.2409 48.4508 28.8045 47.9053 28.15 47.9053C27.4955 47.9053 27.0591 48.3417 27.0591 48.9962V54.2326H23.0227V50.5235V49.3235C23.0227 46.7053 25.0955 44.6326 27.7136 44.6326H31.9682L35.2409 47.9053C35.4591 48.1235 35.6773 48.2326 36.0045 48.2326C36.3318 48.2326 36.55 48.1235 36.7682 47.9053L40.0409 44.6326H44.2955C46.9136 44.6326 48.9864 46.7053 48.9864 49.3235V50.5235V54.2326H44.95ZM56.1864 49.5417H51.0591V49.3235C51.0591 45.6144 48.0045 42.5599 44.2955 42.5599H40.6955V38.6326C41.0227 38.4144 41.2409 38.0871 41.5682 37.869C43.3136 39.5053 45.4955 40.269 47.7864 39.3962V40.0508C47.7864 40.5962 48.2227 41.1417 48.8773 41.1417H52.5864C54.55 41.1417 56.1864 42.778 56.1864 44.7417V49.5417Z" fill="#CFA935"/>
</svg>
