<svg width="72" height="73" viewBox="0 0 72 73" fill="none" xmlns="http://www.w3.org/2000/svg">
<g clip-path="url(#clip0_19983_26999)">
<path d="M48.3259 8.63242C59.235 6.77787 67.635 7.97787 69.4896 12.5597C70.9078 16.2688 67.9623 21.287 61.9623 26.1961C59.9987 27.8324 57.7078 29.4688 55.0896 31.1051C50.9441 33.6142 46.2532 36.1233 40.9078 38.1961C39.1623 38.8506 37.5259 39.5051 35.7805 40.0506C31.9623 41.3597 28.2532 42.3415 24.8714 42.9961C13.4169 45.287 4.4714 44.087 2.50777 39.287C1.08958 35.687 4.03504 30.5597 10.035 25.6506C11.7805 24.1233 13.8532 22.7051 16.035 21.287" stroke="#CFA935" stroke-width="2" stroke-miterlimit="10" stroke-linecap="round" stroke-linejoin="round"/>
<path d="M55.9588 21.7241C58.1406 23.2514 60.2133 24.7787 61.9588 26.1968C67.8497 31.3241 70.7951 36.4514 69.1588 40.0514C67.1951 44.6332 58.3588 45.7241 47.1224 43.3241C43.5224 42.5605 39.8133 41.4696 35.886 40.0514C34.2497 39.5059 32.5042 38.7423 30.8679 38.0878C25.6315 35.9059 20.9406 33.2878 16.9042 30.6696C14.3951 29.0332 12.1042 27.2878 10.2497 25.6514C4.35876 20.5241 1.4133 15.3968 3.04967 11.7968C4.79512 7.32412 13.1951 6.23321 23.9951 8.41503" stroke="#CFA935" stroke-width="2" stroke-miterlimit="10" stroke-linecap="round" stroke-linejoin="round"/>
<path d="M56.1834 24.5612C56.1834 12.7794 45.8197 3.28845 33.7106 4.59754C24.547 5.57935 17.4561 12.4521 16.0379 21.5066C15.0561 28.0521 17.2379 34.1612 21.3834 38.5248C25.8561 43.2157 28.3652 49.543 28.3652 55.9794V56.3066H43.8561C43.8561 49.6521 46.2561 43.2157 50.8379 38.3066C54.1106 34.7066 56.1834 29.9066 56.1834 24.5612Z" stroke="#CFA935" stroke-width="2" stroke-miterlimit="10" stroke-linecap="round" stroke-linejoin="round"/>
<path d="M42.218 61.8719H29.7817C28.2544 61.8719 26.9453 60.5629 26.9453 59.0356C26.9453 57.5083 28.2544 56.1992 29.7817 56.1992H42.218C43.7453 56.1992 45.0544 57.5083 45.0544 59.0356C45.0544 60.6719 43.7453 61.8719 42.218 61.8719Z" stroke="#CFA935" stroke-width="2" stroke-miterlimit="10" stroke-linecap="round" stroke-linejoin="round"/>
<path d="M43.5311 62.0898V62.308V64.8171C43.5311 66.5626 42.1129 68.0898 40.2584 68.0898H31.7493C30.0038 68.0898 28.4766 66.6717 28.4766 64.8171V62.308C28.4766 62.1989 28.4766 62.1989 28.4766 62.0898" stroke="#CFA935" stroke-width="2" stroke-miterlimit="10" stroke-linecap="round" stroke-linejoin="round"/>
<path d="M39.0547 56.3076V46.9258" stroke="#CFA935" stroke-width="2" stroke-miterlimit="10" stroke-linecap="round" stroke-linejoin="round"/>
<path d="M33.8203 56.3065V46.4883" stroke="#CFA935" stroke-width="2" stroke-miterlimit="10" stroke-linecap="round" stroke-linejoin="round"/>
<path d="M45.4886 29.1418C44.3977 30.56 42.9795 31.6509 41.4522 32.4146C40.6886 31.2146 39.5977 30.4509 38.7249 30.6691C37.8522 30.8873 37.3068 32.0873 37.4159 33.6146C35.6704 33.8328 33.9249 33.6146 32.2886 33.0691C32.6159 31.6509 32.3977 30.3418 31.5249 29.9055C30.6522 29.4691 29.4522 29.9055 28.4704 30.9964C27.0522 29.9055 25.9613 28.4873 25.1977 26.96C26.5068 26.1964 27.1613 25.1055 26.9431 24.2328C26.7249 23.36 25.5249 22.8146 23.9977 22.9237C23.7795 21.1782 23.9977 19.4328 24.5431 17.7964C25.9613 18.1237 27.2704 17.9055 27.7068 17.0328C28.1431 16.16 27.7068 14.96 26.6159 13.9782C27.7068 12.56 29.1249 11.4691 30.6522 10.7055C31.4159 12.0146 32.5068 12.6691 33.3795 12.4509C34.2522 12.2328 34.7977 11.0328 34.6886 9.50548C36.434 9.2873 38.0704 9.50548 39.8159 10.0509C39.4886 11.4691 39.7068 12.7782 40.5795 13.2146C41.4522 13.6509 42.6522 13.2146 43.634 12.0146C45.0522 13.1055 46.1431 14.5237 46.9068 16.0509C45.7068 16.8146 44.9431 17.9055 45.1613 18.7782C45.3795 19.6509 46.5795 20.1964 48.1068 20.0873C48.3249 21.8328 48.1068 23.5782 47.5613 25.2146C46.1431 24.8873 44.834 25.1055 44.3977 25.9782C43.8522 26.96 44.3977 28.16 45.4886 29.1418Z" stroke="#CFA935" stroke-width="2" stroke-miterlimit="10" stroke-linecap="round" stroke-linejoin="round"/>
<path d="M36.3153 26.7169C39.1414 26.5414 41.29 24.1081 41.1144 21.282C40.9389 18.456 38.5056 16.3073 35.6795 16.4829C32.8535 16.6585 30.7048 19.0917 30.8804 21.9178C31.056 24.7439 33.4892 26.8925 36.3153 26.7169Z" stroke="#CFA935" stroke-width="2" stroke-miterlimit="10" stroke-linecap="round" stroke-linejoin="round"/>
</g>
<defs>
<clipPath id="clip0_19983_26999">
<rect width="72" height="72" fill="white" transform="translate(0 0.234375)"/>
</clipPath>
</defs>
</svg>
