<svg width="22" height="27" viewBox="0 0 22 27" fill="none" xmlns="http://www.w3.org/2000/svg">
<path d="M6.75012 5.5H15.2501M11.0001 1.25V12.5833M5.33345 19.6667L3.28353 20.6923C3.04825 20.8099 2.85035 20.9907 2.71198 21.2143C2.57362 21.438 2.50026 21.6958 2.50012 21.9588V25.3333H19.5001V21.9588C19.5 21.6958 19.4266 21.438 19.2883 21.2143C19.1499 20.9907 18.952 20.8099 18.7167 20.6923L16.6668 19.6667H5.33345ZM6.04178 19.6667C5.15449 19.6665 4.28351 19.4282 3.51969 18.9767C2.75587 18.5252 2.1272 17.877 1.69926 17.0997C1.27133 16.3224 1.0598 15.4446 1.08676 14.5577C1.11372 13.6708 1.37817 12.8074 1.85252 12.0576C2.32688 11.3077 2.99376 10.6989 3.78359 10.2946C4.57342 9.89032 5.45727 9.70538 6.34294 9.75909C7.2286 9.8128 8.08362 10.1032 8.81882 10.5999C9.55401 11.0967 10.1424 11.7817 10.5227 12.5833H11.4775C11.8578 11.7817 12.4462 11.0967 13.1814 10.5999C13.9166 10.1032 14.7716 9.8128 15.6573 9.75909C16.543 9.70538 17.4268 9.89032 18.2166 10.2946C19.0065 10.6989 19.6734 11.3077 20.1477 12.0576C20.6221 12.8074 20.8865 13.6708 20.9135 14.5577C20.9404 15.4446 20.7289 16.3224 20.301 17.0997C19.873 17.877 19.2444 18.5252 18.4805 18.9767C17.7167 19.4282 16.8457 19.6665 15.9584 19.6667H6.04178Z" stroke="#CFA935" stroke-width="2" stroke-linecap="round" stroke-linejoin="round"/>
</svg>
