<svg width="49" height="48" viewBox="0 0 49 48" fill="none" xmlns="http://www.w3.org/2000/svg">
<g clip-path="url(#clip0_34704_49510)">
<path d="M33.6917 32.1151C34.347 38.3814 43.359 38.07 43.559 31.7486C43.5216 26.6568 36.7769 24.9592 34.3104 29.3317L28.6091 27.1934C28.2642 25.812 27.2392 24.6974 25.9119 24.2267V21.1603H34.3825V18.3368C34.3825 14.9894 32.7092 12.0257 30.1555 10.2373C27.244 13.4797 21.7553 13.4787 18.8448 10.2373C16.2911 12.0259 14.6178 14.9894 14.6178 18.3369V21.1604H23.0884V24.2268C21.7609 24.6975 20.7361 25.8121 20.3911 27.1935L14.6899 29.3318C12.2225 24.9589 5.47839 26.6574 5.44141 31.7488C5.64216 38.0715 14.6543 38.3803 15.3087 32.1153L20.7029 30.0924C22.2268 33.2228 26.7749 33.2211 28.2975 30.0924L33.6917 32.1151Z" fill="#CFA935"/>
<path d="M24.4998 9.86623C27.2243 9.86623 29.4409 7.64957 29.4409 4.92506C29.1925 -1.62111 19.806 -1.61932 19.5586 4.92515C19.5586 7.64957 21.7753 9.86623 24.4998 9.86623Z" fill="#CFA935"/>
<path d="M16.0377 37.0608C13.1263 40.3031 7.63751 40.3022 4.72701 37.0608C2.17332 38.8493 0.5 41.8128 0.5 45.1603V47.9838H20.2647V45.1603C20.2647 41.8128 18.5914 38.8492 16.0377 37.0608Z" fill="#CFA935"/>
<path d="M44.273 37.0608C41.3616 40.3031 35.873 40.3022 32.9624 37.0608C30.4087 38.8492 28.7354 41.8128 28.7354 45.1603V47.9838H48.5001V45.1603C48.5001 41.8128 46.8267 38.8492 44.273 37.0608Z" fill="#CFA935"/>
</g>
<defs>
<clipPath id="clip0_34704_49510">
<rect width="48" height="48" fill="white" transform="translate(0.5)"/>
</clipPath>
</defs>
</svg>
