<svg width="150" height="150" viewBox="0 0 150 150" fill="none" xmlns="http://www.w3.org/2000/svg">
<g id="Frame">
<g id="Layer_x0020_1">
<path id="Vector" fill-rule="evenodd" clip-rule="evenodd" d="M75 149.999C74.5878 149.999 74.1765 149.854 73.8442 149.566C56.5455 134.475 7.63861 143.125 7.14642 143.213C6.068 143.406 5.07483 142.579 5.07483 141.482V56.731C5.07483 55.7606 5.86233 54.9731 6.83265 54.9731H16.5833C18.8974 54.9731 18.8966 58.4888 16.5833 58.4888H8.59047V139.406C18.2031 137.884 57.6837 132.635 75 145.969C92.3145 132.637 131.798 137.882 141.408 139.406V58.4888H131.951C129.637 58.4888 129.637 54.9731 131.951 54.9731H143.166C144.137 54.9731 144.924 55.7606 144.924 56.731V141.482C144.924 142.584 143.919 143.409 142.851 143.213C142.358 143.124 93.4518 134.473 76.1523 149.566C75.8244 149.853 75.4113 149.998 74.9991 149.998L75 149.999Z" fill="black"/>
<path id="Vector_2" fill-rule="evenodd" clip-rule="evenodd" d="M74.3058 137.179C73.9639 137.179 73.622 137.079 73.3258 136.88C54.2921 124.092 18.2612 126.343 17.8965 126.364C16.8901 126.427 16.02 125.628 16.02 124.61V40.2846C16.02 39.3319 16.7794 38.5532 17.7313 38.5286C35.7217 38.0584 50.6737 41.313 57.9836 43.2967C60.216 43.9022 59.2975 47.2931 57.0625 46.6893C50.1718 44.8189 36.3228 41.8016 19.5365 42.0091V122.762C27.2657 122.452 56.5 122.091 74.3058 133.326C92.109 122.092 121.344 122.449 129.075 122.762L129.074 42.0064C115.708 41.8078 103.029 43.396 91.4314 46.7402C89.2059 47.3792 88.2339 44.0033 90.4558 43.3617C102.893 39.7757 116.497 38.1515 130.878 38.5277C131.83 38.5541 132.589 39.3328 132.589 40.2838V124.611C132.589 125.629 131.723 126.425 130.712 126.365C130.352 126.34 94.3168 124.093 75.2831 136.881C74.9896 137.08 74.6477 137.18 74.3067 137.18L74.3058 137.179Z" fill="black"/>
<path id="Vector_3" fill-rule="evenodd" clip-rule="evenodd" d="M74.297 20.2528C72.3414 20.2528 61.3691 19.1647 63.1445 15.526C63.5708 14.6532 64.6211 14.292 65.4956 14.7191C71.0055 17.4148 77.5867 17.413 83.094 14.7191C85.1761 13.7023 86.7177 16.8602 84.64 17.8771C81.4021 19.4617 77.8495 20.2528 74.2961 20.2528H74.297Z" fill="black"/>
<path id="Vector_4" fill-rule="evenodd" clip-rule="evenodd" d="M96.2195 72.2419C95.6755 72.2419 95.149 71.9879 94.8115 71.537C92.0447 67.8386 87.1553 62.3621 84.9519 61.7715C82.1983 61.0332 83.2969 52.4752 94.6568 65.7301C94.5654 50.8686 87.5535 43.3302 87.4744 43.2484C85.8748 41.589 88.4157 39.1413 90.0179 40.82C90.4108 41.2322 99.6517 51.1595 97.9712 70.6326C97.8921 71.5397 97.1239 72.2419 96.2187 72.2419H96.2195Z" fill="black"/>
<path id="Vector_5" fill-rule="evenodd" clip-rule="evenodd" d="M52.3901 71.9687C51.4804 71.9687 50.7175 71.2717 50.6384 70.362C49.0098 51.5015 57.5695 41.6525 58.5503 40.5916C60.1201 38.8936 62.7032 41.2763 61.1317 42.9779C60.8162 43.3206 54.038 50.8309 53.9527 65.4551C65.2177 52.304 66.2452 60.7116 63.6093 61.5097C61.362 62.1899 56.5183 67.6216 53.7972 71.262C53.4606 71.7138 52.9341 71.9678 52.3892 71.9678L52.3901 71.9687Z" fill="black"/>
<path id="Vector_6" fill-rule="evenodd" clip-rule="evenodd" d="M74.297 96.4734C73.7635 96.4734 73.2581 96.2308 72.925 95.8142C71.0494 93.4702 58.5135 76.3718 68.7379 69.0567C70.6117 67.7155 72.6569 70.5772 70.7813 71.9175C64.4312 76.4553 71.5847 87.8522 74.297 91.7475C77.0058 87.8574 84.1618 76.4509 77.8126 71.9175C75.9379 70.5789 77.977 67.7155 79.8561 69.0567C90.0857 76.3578 77.5366 93.4798 75.6689 95.8142C75.3367 96.2308 74.8305 96.4734 74.2978 96.4734H74.297Z" fill="#CFA935"/>
<path id="Vector_7" fill-rule="evenodd" clip-rule="evenodd" d="M74.2969 39.7628C64.7423 39.7628 64.7423 25.2441 74.2969 25.2441C83.8515 25.2441 83.8515 39.7628 74.2969 39.7628ZM74.2969 28.7589C69.3697 28.7589 69.3697 36.2472 74.2969 36.2472C79.2232 36.2472 79.2232 28.7589 74.2969 28.7589Z" fill="#CFA935"/>
<path id="Vector_8" fill-rule="evenodd" clip-rule="evenodd" d="M114.365 64.9341H105.337C103.023 64.9341 103.024 61.4185 105.337 61.4185H114.365C116.68 61.4185 116.68 64.9341 114.365 64.9341Z" fill="black"/>
<path id="Vector_9" fill-rule="evenodd" clip-rule="evenodd" d="M114.365 78.7861H90.7536C88.4394 78.7861 88.4403 75.2705 90.7536 75.2705H114.365C116.68 75.2705 116.68 78.7861 114.365 78.7861Z" fill="black"/>
<path id="Vector_10" fill-rule="evenodd" clip-rule="evenodd" d="M114.365 90.4326H87.5482C85.234 90.4326 85.2349 86.917 87.5482 86.917H114.365C116.679 86.917 116.679 90.4326 114.365 90.4326Z" fill="black"/>
<path id="Vector_11" fill-rule="evenodd" clip-rule="evenodd" d="M114.366 116.32H82.7741C80.4599 116.32 80.4608 112.805 82.7741 112.805H114.366C116.679 112.805 116.679 116.32 114.366 116.32Z" fill="black"/>
<path id="Vector_12" fill-rule="evenodd" clip-rule="evenodd" d="M56.375 79.0147H34.2459C31.9317 79.0147 31.9317 75.499 34.2459 75.499H56.375C58.6883 75.499 58.6901 79.0147 56.375 79.0147Z" fill="black"/>
<path id="Vector_13" fill-rule="evenodd" clip-rule="evenodd" d="M61.0623 90.4326H34.2459C31.9317 90.4326 31.9317 86.917 34.2459 86.917H61.0623C63.3764 86.917 63.3764 90.4326 61.0623 90.4326Z" fill="black"/>
<path id="Vector_14" fill-rule="evenodd" clip-rule="evenodd" d="M114.366 103.376H82.7741C80.4599 103.376 80.4608 99.8608 82.7741 99.8608H114.366C116.679 99.8608 116.679 103.376 114.366 103.376Z" fill="black"/>
<path id="Vector_15" fill-rule="evenodd" clip-rule="evenodd" d="M65.8374 103.376H34.2459C31.9317 103.376 31.9317 99.8608 34.2459 99.8608H65.8374C68.1516 99.8608 68.1516 103.376 65.8374 103.376Z" fill="black"/>
<path id="Vector_16" fill-rule="evenodd" clip-rule="evenodd" d="M65.8374 116.32H34.2459C31.9317 116.32 31.9317 112.805 34.2459 112.805H65.8374C68.1516 112.805 68.1516 116.32 65.8374 116.32Z" fill="black"/>
<path id="Vector_17" fill-rule="evenodd" clip-rule="evenodd" d="M80.4413 72.2438H68.1515C67.5416 72.2438 66.9756 71.9282 66.6556 71.4088C53.2426 49.6611 55.6499 18.8632 73.0216 0.547597C73.7133 -0.181019 74.8787 -0.18014 75.5704 0.547597C92.9359 18.8193 95.3476 49.6699 81.9364 71.4088C81.6164 71.9274 81.0495 72.2438 80.4405 72.2438H80.4413ZM69.143 68.7281H79.449C91.1227 48.9913 89.2032 21.4498 74.296 4.36822C59.3871 21.4489 57.4701 48.9896 69.1421 68.7281H69.143Z" fill="black"/>
<path id="Vector_18" fill-rule="evenodd" clip-rule="evenodd" d="M84.2479 64.4048H64.1675C61.8533 64.4048 61.8533 60.8892 64.1675 60.8892H84.2479C86.5621 60.8892 86.5621 64.4048 84.2479 64.4048Z" fill="black"/>
<path id="Vector_19" fill-rule="evenodd" clip-rule="evenodd" d="M43.2731 64.9341H34.245C31.9308 64.9341 31.9308 61.4185 34.245 61.4185H43.2731C45.5864 61.4185 45.5882 64.9341 43.2731 64.9341Z" fill="black"/>
</g>
</g>
</svg>
