<svg width="92" height="92" viewBox="0 0 92 92" fill="none" xmlns="http://www.w3.org/2000/svg">
<g id="svg5541" clip-path="url(#clip0_17749_10551)">
<g id="g5547">
<g id="g5549">
<g id="Clip path group">
<mask id="mask0_17749_10551" style="mask-type:luminance" maskUnits="userSpaceOnUse" x="-1" y="0" width="93" height="93">
<g id="clipPath5555">
<path id="path5553" d="M-0.125 0.0234451H91.875V92.0234H-0.125V0.0234451Z" fill="white"/>
</g>
</mask>
<g mask="url(#mask0_17749_10551)">
<g id="g5551">
<g id="g5557">
<path id="path5559" d="M66.5312 20.8142H77.839C78.3367 20.8142 78.7374 21.2167 78.7374 21.7126V60.0703" stroke="#CFA935" stroke-width="2.10938" stroke-miterlimit="10" stroke-linecap="round" stroke-linejoin="round"/>
</g>
<g id="g5561">
<path id="path5563" d="M24.2031 28.5352V21.7448C24.2031 21.2488 24.6038 20.8463 25.1016 20.8463H36.4093" stroke="#CFA935" stroke-width="2.10938" stroke-miterlimit="10" stroke-linecap="round" stroke-linejoin="round"/>
</g>
<g id="g5565">
<path id="path5567" d="M24.1576 34.8311V77.7581C24.1576 80.8128 21.6797 83.2891 18.625 83.2891H54.0197" stroke="#CFA935" stroke-width="2.10938" stroke-miterlimit="10" stroke-linecap="round" stroke-linejoin="round"/>
</g>
<g id="g5569">
<path id="path5571" d="M78.7109 66.3984V77.7583C78.7109 80.813 76.2348 83.2891 73.1802 83.2891H66.8516" stroke="#CFA935" stroke-width="2.10938" stroke-miterlimit="10" stroke-linecap="round" stroke-linejoin="round"/>
</g>
<g id="g5573">
<path id="path5575" d="M66.7866 80.2282V89.6833C66.7866 90.3913 66.0211 90.835 65.4066 90.4812L60.8533 87.8595C60.5694 87.696 60.219 87.696 59.9333 87.8595L55.3802 90.4812C54.7673 90.835 54 90.3913 54 89.6833V80.2282" stroke="#CFA935" stroke-width="2.10938" stroke-miterlimit="10" stroke-linecap="round" stroke-linejoin="round"/>
</g>
<g id="g5577">
<path id="path5579" d="M60.4196 67.8051C58.2678 67.8051 56.5234 69.5496 56.5234 71.7015C56.5234 73.8532 58.2678 75.5977 60.4196 75.5977C62.5715 75.5977 64.3159 73.8532 64.3159 71.7015C64.3159 69.5496 62.5715 67.8051 60.4196 67.8051Z" stroke="#CFA935" stroke-width="2.10938" stroke-miterlimit="10" stroke-linecap="round" stroke-linejoin="round"/>
</g>
<g id="g5581">
<path id="path5583" d="M71.224 71.7239C71.224 70.4363 70.6432 69.2867 69.7306 68.5165C69.4059 68.2423 69.2268 67.8371 69.2645 67.414C69.3711 66.2181 68.9695 64.9864 68.054 64.071C67.1388 63.1555 65.907 62.7539 64.7112 62.8605C64.2879 62.8982 63.8827 62.7193 63.6087 62.3944C62.8385 61.4818 61.6887 60.9012 60.4011 60.9012C59.1136 60.9012 57.9638 61.4818 57.1936 62.3944C56.9196 62.7193 56.5142 62.8982 56.0909 62.8605C54.8953 62.7539 53.6633 63.1555 52.7482 64.071C51.8328 64.9864 51.4311 66.2181 51.5376 67.414C51.5754 67.8371 51.3964 68.2423 51.0715 68.5163C50.1591 69.2865 49.5781 70.4363 49.5781 71.7239C49.5781 73.0116 50.1591 74.1612 51.0715 74.9315C51.3964 75.2056 51.5754 75.6108 51.5376 76.0341C51.4311 77.2299 51.8328 78.4615 52.7482 79.377C53.6633 80.2923 54.8953 80.6939 56.0909 80.5874C56.5142 80.5496 56.9194 80.7288 57.1936 81.0537C57.9638 81.9661 59.1134 82.5469 60.4011 82.5469C61.6887 82.5469 62.8385 81.9661 63.6087 81.0537C63.8827 80.7288 64.2879 80.5496 64.7112 80.5874C65.907 80.6939 67.1388 80.2923 68.054 79.377C68.9695 78.4615 69.3711 77.2299 69.2645 76.0341C69.2268 75.6108 69.4059 75.2056 69.7306 74.9315C70.6432 74.1614 71.224 73.0116 71.224 71.7239Z" stroke="#CFA935" stroke-width="2.10938" stroke-miterlimit="10" stroke-linecap="round" stroke-linejoin="round"/>
</g>
<g id="g5585">
<path id="path5587" d="M46.3125 32.2773L50.6225 19.8077C50.9028 18.9966 52.0499 18.9966 52.3302 19.8077L56.6402 32.2773" stroke="#CFA935" stroke-width="2.10938" stroke-miterlimit="10" stroke-linecap="round" stroke-linejoin="round"/>
</g>
<g id="g5589">
<path id="path5591" d="M55.0561 27.8008H47.7969" stroke="#CFA935" stroke-width="2.10938" stroke-miterlimit="10" stroke-linecap="round" stroke-linejoin="round"/>
</g>
<g id="g5593">
<path id="path5595" d="M61.4604 11.7388H41.4794C40.9584 11.7388 40.4648 11.9722 40.134 12.3745L36.8844 16.3282C36.5854 16.6921 36.4219 17.1485 36.4219 17.6196V26.2252C36.4219 34.9965 42.5548 41.034 51.098 42.821C51.3429 42.8722 51.5968 42.8722 51.8418 42.821C60.385 41.034 66.5179 34.9965 66.5179 26.2252V17.6196C66.5179 17.1485 66.3544 16.6921 66.0554 16.3282L62.8058 12.3745C62.4749 11.9722 61.9813 11.7388 61.4604 11.7388Z" stroke="#CFA935" stroke-width="2.10938" stroke-miterlimit="10" stroke-linecap="round" stroke-linejoin="round"/>
</g>
<g id="g5597">
<path id="path5599" d="M59.401 11.7461L60.6519 5.13629C60.7479 4.62975 60.2273 4.22887 59.762 4.45096L55.8126 6.33696C55.462 6.50443 55.0417 6.38368 54.8335 6.05593L52.0194 1.62663C51.772 1.23725 51.204 1.23725 50.9565 1.62663L48.1426 6.05593C47.9344 6.38368 47.5139 6.50443 47.1635 6.33696L43.214 4.45096C42.7488 4.22887 42.2282 4.62975 42.324 5.13629L43.575 11.7461" stroke="#CFA935" stroke-width="2.10938" stroke-miterlimit="10" stroke-linecap="round" stroke-linejoin="round"/>
</g>
<g id="g5601">
<path id="path5603" d="M18.5688 83.2891C15.5644 83.2251 13.1562 80.7688 13.1562 77.7595V67.821C13.1562 67.3247 13.5586 66.9226 14.0547 66.9226H24.2196" stroke="#CFA935" stroke-width="2.10938" stroke-miterlimit="10" stroke-linecap="round" stroke-linejoin="round"/>
</g>
<g id="g5605">
<path id="path5607" d="M33.6797 50.0156H68.9967" stroke="#CFA935" stroke-width="2.10938" stroke-miterlimit="10" stroke-linecap="round" stroke-linejoin="round"/>
</g>
<g id="g5609">
<path id="path5611" d="M33.6797 58.4414H43.7833" stroke="#CFA935" stroke-width="2.10938" stroke-miterlimit="10" stroke-linecap="round" stroke-linejoin="round"/>
</g>
<g id="g5613">
<path id="path5615" d="M33.6797 66.8594H43.7833" stroke="#CFA935" stroke-width="2.10938" stroke-miterlimit="10" stroke-linecap="round" stroke-linejoin="round"/>
</g>
</g>
</g>
</g>
</g>
</g>
</g>
<defs>
<clipPath id="clip0_17749_10551">
<rect width="92" height="92" fill="white"/>
</clipPath>
</defs>
</svg>
