<svg width="60" height="60" viewBox="0 0 60 60" fill="none" xmlns="http://www.w3.org/2000/svg">
<path fill-rule="evenodd" clip-rule="evenodd" d="M19.3975 46.6152H34.1337V55.009H19.3975V46.6152Z" fill="#A79BA7"/>
<path fill-rule="evenodd" clip-rule="evenodd" d="M32.9902 46.6152H34.133V55.009H32.9902V46.6152Z" fill="#837683"/>
<path fill-rule="evenodd" clip-rule="evenodd" d="M10.8369 58.5879H42.6942V56.1318C42.6942 54.781 41.3111 53.6758 39.6203 53.6758H13.9109C12.2202 53.6758 10.8369 54.781 10.8369 56.1318V58.5879Z" fill="#ECEFF1"/>
<path fill-rule="evenodd" clip-rule="evenodd" d="M10.8369 58.5879H42.6942V56.1318C42.6942 55.329 42.2057 54.613 41.4544 54.1641C41.6232 54.4675 41.7173 54.8029 41.7173 55.1549V57.6109H10.8369V58.5879Z" fill="#D1D1D6"/>
<path fill-rule="evenodd" clip-rule="evenodd" d="M6.92586 15.9414H46.6046C48.5871 15.9414 50.2092 17.5635 50.2092 19.546V44.3436C50.2092 46.3261 48.5871 47.9481 46.6046 47.9481H6.92586C4.9434 47.9481 3.32129 46.3261 3.32129 44.3436V19.546C3.32129 17.5634 4.94328 15.9414 6.92586 15.9414Z" fill="#ECEFF1"/>
<path fill-rule="evenodd" clip-rule="evenodd" d="M48.6153 16.5586C49.575 17.2079 50.2093 18.3066 50.2093 19.5461V44.3438C50.2093 46.3262 48.5872 47.9483 46.6047 47.9483H6.92594C5.68645 47.9483 4.58781 47.3142 3.93848 46.3545C4.51375 46.7436 5.20609 46.9714 5.94906 46.9714H45.6278C47.6103 46.9714 49.2324 45.3493 49.2324 43.3669V18.5692C49.2324 17.8262 49.0045 17.1339 48.6153 16.5586Z" fill="#D1D1D6"/>
<path fill-rule="evenodd" clip-rule="evenodd" d="M6.83586 18.9551H46.6954C46.9704 18.9551 47.1954 19.1802 47.1954 19.455V41.9019H6.33594V19.455C6.33594 19.1801 6.56094 18.9551 6.83586 18.9551Z" fill="#D8ECFE"/>
<path fill-rule="evenodd" clip-rule="evenodd" d="M44.7412 18.9551H46.695C46.9699 18.9551 47.1949 19.1802 47.1949 19.455V41.9018H45.2411V19.455C45.2411 19.1802 45.0162 18.9551 44.7412 18.9551Z" fill="#C4E2FF"/>
<path fill-rule="evenodd" clip-rule="evenodd" d="M29.235 36.6375V37.2078C29.235 37.8925 28.6748 38.4528 27.9902 38.4528H25.5673C24.8826 38.4528 24.3223 37.8925 24.3223 37.2078V36.6375H10.6676C10.2821 36.6375 9.96777 36.323 9.96777 35.9376V13.1705C9.96777 12.785 10.2822 12.4707 10.6676 12.4707H42.8631C43.2486 12.4707 43.563 12.7851 43.563 13.1705V35.9376C43.563 36.3232 43.2486 36.6375 42.8631 36.6375H29.235Z" fill="#8D9CA8"/>
<path fill-rule="evenodd" clip-rule="evenodd" d="M12.1445 12.4707H41.3868V33.1885C41.3868 34.1081 40.6445 34.8583 39.725 34.8682C35.8795 34.9092 30.9995 35.2999 27.5597 37.1451C27.0575 37.4145 26.474 37.4145 25.9717 37.1451C22.5319 35.3 17.652 34.9092 13.8064 34.8682C12.8868 34.8583 12.1445 34.1081 12.1445 33.1885V12.4707Z" fill="#8192A5"/>
<path fill-rule="evenodd" clip-rule="evenodd" d="M13.829 10.5039C20.1823 10.5468 21.9716 11.1856 26.7655 12.4701C31.5594 11.1856 33.3486 10.5468 39.7019 10.5039C39.8955 10.5025 40.0626 10.5707 40.2 10.7071C40.3373 10.8435 40.4067 11.0102 40.4067 11.2038V33.1879C40.4067 33.5708 40.0971 33.8837 39.7142 33.8878C35.0615 33.9373 30.4089 34.5039 27.0962 36.281C26.8832 36.3952 26.6475 36.3952 26.4345 36.281C23.1218 34.5039 18.4692 33.9373 13.8165 33.8878C13.4336 33.8837 13.124 33.5708 13.124 33.1879V11.2038C13.124 11.0102 13.1934 10.8435 13.3307 10.7071C13.4683 10.5707 13.6354 10.5025 13.829 10.5039Z" fill="#D1D1D6"/>
<path fill-rule="evenodd" clip-rule="evenodd" d="M40.4067 31.7891V33.1889C40.4067 33.5717 40.0971 33.8846 39.7142 33.8887C35.0615 33.9383 30.4089 34.5049 27.0962 36.2819C26.8832 36.3962 26.6475 36.3962 26.4345 36.2819C23.1218 34.5049 18.4692 33.9383 13.8165 33.8887C13.4336 33.8846 13.124 33.5717 13.124 33.1889V31.7891C13.124 32.1719 13.4336 32.4848 13.8165 32.4889C18.4692 32.5385 23.1218 33.1051 26.4345 34.8821C26.6475 34.9964 26.8832 34.9964 27.0962 34.8821C30.4089 33.1051 35.0615 32.5385 39.7142 32.4889C40.097 32.4848 40.4067 32.1719 40.4067 31.7891Z" fill="#B1B1B5"/>
<path fill-rule="evenodd" clip-rule="evenodd" d="M26.7657 12.4701C31.5596 11.1856 33.3489 10.5468 39.7022 10.5039C39.8958 10.5025 40.0629 10.5707 40.2002 10.7071C40.3376 10.8435 40.407 11.0102 40.407 11.2038V33.1879C40.407 33.5708 40.0973 33.8837 39.7145 33.8878C35.0618 33.9373 30.4092 34.5039 27.0964 36.281C26.9899 36.338 26.8778 36.3666 26.7656 36.3666L26.7657 12.4701Z" fill="#ECEFF1"/>
<path fill-rule="evenodd" clip-rule="evenodd" d="M40.407 31.7891V33.1889C40.407 33.5717 40.0973 33.8846 39.7145 33.8887C35.0618 33.9383 30.4092 34.5049 27.0964 36.2819C26.9899 36.339 26.8778 36.3676 26.7656 36.3676V34.9678C26.8778 34.9678 26.9899 34.9392 27.0964 34.8821C30.4092 33.1051 35.0618 32.5385 39.7145 32.4889C40.0972 32.4848 40.407 32.1719 40.407 31.7891Z" fill="#D1D1D6"/>
<path fill-rule="evenodd" clip-rule="evenodd" d="M24.9223 30.668C25.4097 30.8399 25.6655 31.3744 25.4936 31.8619C25.3217 32.3493 24.7872 32.6051 24.2997 32.4332C22.9273 31.9449 21.4879 31.6063 19.9861 31.3753C18.4516 31.1393 16.8737 31.0153 15.2498 30.9596C14.734 30.9434 14.329 30.5121 14.3452 29.9964C14.3614 29.4807 14.7926 29.0757 15.3084 29.0918C17.0316 29.151 18.6865 29.2796 20.2645 29.5223C21.8752 29.77 23.4283 30.1364 24.9223 30.668ZM29.1766 16.7137C28.6791 16.8552 28.1609 16.5666 28.0193 16.0691C27.8778 15.5717 28.1664 15.0535 28.6639 14.9119C30.6113 14.3577 32.1832 14.0297 33.6887 13.8278C35.1777 13.6281 36.5873 13.5564 38.2301 13.512C38.7459 13.4998 39.1738 13.9082 39.1859 14.4238C39.198 14.9396 38.7897 15.3675 38.2741 15.3796C36.703 15.422 35.3562 15.4905 33.9378 15.6808C32.5359 15.8689 31.0487 16.1809 29.1766 16.7137ZM29.1912 20.655C28.6957 20.8047 28.1726 20.5244 28.023 20.0288C27.8733 19.5333 28.1536 19.0102 28.6492 18.8605C30.4619 18.3116 32.0256 17.9719 33.5636 17.7559C35.0765 17.5435 36.5564 17.4557 38.2265 17.4069C38.7422 17.3928 39.1718 17.7994 39.186 18.3151C39.2002 18.8309 38.7936 19.2605 38.2778 19.2747C36.6849 19.3212 35.271 19.4052 33.82 19.609C32.3938 19.8093 30.923 20.1305 29.1912 20.655ZM29.2059 24.586C28.7144 24.7437 28.1881 24.4732 28.0304 23.9818C27.8726 23.4903 28.1431 22.964 28.6346 22.8062C30.3375 22.259 31.8946 21.9082 33.4505 21.6814C34.9861 21.4575 36.5321 21.3549 38.2265 21.302C38.7422 21.2878 39.1718 21.6945 39.186 22.2102C39.2002 22.726 38.7936 23.1556 38.2778 23.1698C36.6704 23.2198 35.1961 23.3184 33.7142 23.5343C32.2526 23.7474 30.7946 24.0755 29.2059 24.586ZM29.2205 28.5134C28.7311 28.6792 28.1998 28.4169 28.034 27.9275C27.8682 27.4381 28.1304 26.9067 28.6199 26.7409C30.2121 26.2007 31.765 25.8413 33.3475 25.6035C34.9047 25.3696 36.5097 25.2532 38.2228 25.197C38.7386 25.1808 39.1698 25.5858 39.186 26.1016C39.2022 26.6173 38.7972 27.0485 38.2814 27.0647C36.6646 27.1178 35.1358 27.2297 33.6258 27.4566C32.1412 27.6796 30.6931 28.0137 29.2205 28.5134ZM29.2315 32.4332C28.7441 32.6051 28.2095 32.3494 28.0376 31.8619C27.8657 31.3745 28.1214 30.84 28.6089 30.668C30.1029 30.1364 31.656 29.77 33.2668 29.5223C34.8446 29.2796 36.4996 29.151 38.2228 29.0918C38.7386 29.0757 39.1698 29.4807 39.186 29.9964C39.2022 30.5121 38.7972 30.9434 38.2814 30.9596C36.6575 31.0153 35.0796 31.1393 33.5451 31.3753C32.0433 31.6062 30.6039 31.9449 29.2315 32.4332ZM24.8673 14.9119C25.3648 15.0535 25.6534 15.5717 25.5119 16.0691C25.3703 16.5666 24.8521 16.8552 24.3546 16.7137C22.4826 16.1809 20.9954 15.8689 19.5934 15.6808C18.175 15.4905 16.8282 15.422 15.2571 15.3796C14.7414 15.3674 14.3331 14.9396 14.3453 14.4238C14.3575 13.9081 14.7854 13.4998 15.3011 13.512C16.9441 13.5564 18.3536 13.6281 19.8425 13.8278C21.3481 14.0297 22.9199 14.3577 24.8673 14.9119ZM24.882 18.8607C25.3775 19.0103 25.6579 19.5333 25.5082 20.0289C25.3586 20.5244 24.8355 20.8048 24.34 20.6551C22.6082 20.1306 21.1374 19.8094 19.7113 19.6091C18.2602 19.4053 16.8464 19.3213 15.2535 19.2748C14.7378 19.2606 14.3311 18.831 14.3453 18.3153C14.3595 17.7995 14.7891 17.3929 15.3048 17.4071C16.9749 17.4558 18.4548 17.5436 19.9677 17.756C21.5056 17.972 23.0693 18.3116 24.882 18.8607ZM24.8966 22.8062C25.3881 22.964 25.6586 23.4903 25.5009 23.9818C25.3431 24.4732 24.8168 24.7437 24.3254 24.586C22.7366 24.0754 21.2786 23.7474 19.817 23.5343C18.3352 23.3184 16.8609 23.2198 15.2534 23.1698C14.7377 23.1556 14.331 22.726 14.3452 22.2102C14.3594 21.6945 14.789 21.2878 15.3047 21.302C16.9993 21.3548 18.5451 21.4575 20.0807 21.6814C21.6366 21.9082 23.1937 22.259 24.8966 22.8062ZM24.9113 26.7409C25.4008 26.9067 25.663 27.4381 25.4972 27.9275C25.3314 28.4169 24.8001 28.6792 24.3107 28.5134C22.8382 28.0137 21.3902 27.6796 19.9055 27.4565C18.3955 27.2296 16.8668 27.1177 15.2499 27.0646C14.7341 27.0484 14.3291 26.6172 14.3453 26.1014C14.3615 25.5857 14.7927 25.1807 15.3085 25.1969C17.0218 25.2531 18.6266 25.3695 20.1838 25.6034C21.7663 25.8413 23.3192 26.2007 24.9113 26.7409Z" fill="#A79BA7"/>
<path d="M47.8788 58.5669C53.1903 58.1247 57.1377 53.4604 56.6955 48.1489C56.2533 42.8374 51.589 38.89 46.2775 39.3322C40.966 39.7744 37.0186 44.4386 37.4608 49.7502C37.903 55.0617 42.5673 59.0091 47.8788 58.5669Z" fill="#8AC9FE"/>
<path fill-rule="evenodd" clip-rule="evenodd" d="M47.0337 39.3066C52.3612 39.3066 56.68 43.6255 56.68 48.9529C56.68 54.2804 52.3612 58.5992 47.0337 58.5992C46.8153 58.5992 46.5986 58.5913 46.3838 58.577C51.4081 58.2426 55.3802 54.062 55.3802 48.9529C55.3802 43.8439 51.4081 39.6632 46.3838 39.3289C46.5987 39.3146 46.8153 39.3066 47.0337 39.3066Z" fill="#60B7FF"/>
<path d="M53.4356 51.608C54.8965 48.0836 53.2237 44.0422 49.6992 42.5813C46.1748 41.1204 42.1334 42.7932 40.6725 46.3177C39.2116 49.8421 40.8845 53.8835 44.4089 55.3444C47.9333 56.8053 51.9747 55.1324 53.4356 51.608Z" fill="#ECEFF1"/>
<path fill-rule="evenodd" clip-rule="evenodd" d="M47.0334 42.0469C43.2191 42.0469 40.127 45.139 40.127 48.9533C40.127 52.7677 43.2191 55.8598 47.0334 55.8598C47.2209 55.8598 47.4066 55.852 47.5904 55.8374C44.0366 55.5537 41.2409 52.5802 41.2409 48.9533C41.2409 45.3266 44.0366 42.353 47.5904 42.0693C47.4066 42.0546 47.2209 42.0469 47.0334 42.0469Z" fill="#D1D1D6"/>
<path fill-rule="evenodd" clip-rule="evenodd" d="M46.0957 44.8496C46.0957 44.3319 46.5155 43.9121 47.0332 43.9121C47.5509 43.9121 47.9707 44.3319 47.9707 44.8496V48.4141L50.4714 49.8579C50.9183 50.1167 51.0708 50.6889 50.8119 51.1359C50.553 51.5829 49.9808 51.7353 49.5339 51.4764L46.6234 49.7961C46.311 49.644 46.0957 49.3235 46.0957 48.9527V44.8496Z" fill="#A79BA7"/>
<path fill-rule="evenodd" clip-rule="evenodd" d="M24.8584 10.0286C24.5106 10.4087 23.9202 10.435 23.54 10.0871C23.1597 9.73934 23.1336 9.14895 23.4814 8.76879C23.9436 8.26289 24.4947 7.85578 25.1062 7.57852C25.7051 7.30699 26.3604 7.15711 27.0463 7.15711C27.732 7.15711 28.3874 7.30699 28.9863 7.57852C29.5978 7.85578 30.1489 8.26289 30.6111 8.76879C30.959 9.14895 30.9328 9.73934 30.5525 10.0871C30.1722 10.435 29.582 10.4087 29.2342 10.0286C28.9463 9.71344 28.6013 9.45914 28.2173 9.285C27.8579 9.12211 27.4624 9.03211 27.0464 9.03211C26.6302 9.03211 26.2347 9.12211 25.8754 9.285C25.4912 9.45902 25.1463 9.71344 24.8584 10.0286ZM32.4706 6.73336C31.766 5.96215 30.9253 5.34117 29.992 4.91801C29.0832 4.50609 28.0882 4.27863 27.0461 4.27863C26.0041 4.27863 25.0091 4.50609 24.1003 4.91801C23.1671 5.34105 22.3263 5.96203 21.6217 6.73324C21.2738 7.1134 21.3 7.70379 21.6802 8.0516C22.0605 8.39941 22.6508 8.37316 22.9986 7.99301C23.5289 7.41258 24.1634 6.94441 24.8693 6.62449C25.5385 6.32109 26.2738 6.15363 27.046 6.15363C27.8184 6.15363 28.5535 6.32109 29.2228 6.62449C29.9286 6.94441 30.5631 7.41258 31.0934 7.99301C31.4413 8.37316 32.0317 8.39941 32.4118 8.0516C32.7922 7.70379 32.8184 7.11352 32.4706 6.73336ZM21.1392 5.95781C20.7913 6.33809 20.201 6.36434 19.8208 6.01641C19.4406 5.66859 19.4144 5.0782 19.7622 4.69805C20.7095 3.66141 21.8397 2.82668 23.0948 2.25773C24.3133 1.70531 25.6481 1.40039 27.0463 1.40039C28.4444 1.40039 29.7792 1.70531 30.9977 2.25773C32.2528 2.82668 33.3831 3.66141 34.3302 4.69805C34.678 5.0782 34.6517 5.66859 34.2716 6.01641C33.8913 6.36434 33.301 6.33809 32.9532 5.95781C32.1804 5.11195 31.2563 4.43004 30.2286 3.96422C29.2496 3.52031 28.1747 3.27539 27.0461 3.27539C25.9176 3.27539 24.8428 3.52031 23.8637 3.96422C22.8361 4.43004 21.912 5.11195 21.1392 5.95781Z" fill="#FFE177"/>
</svg>
