<svg width="100" height="100" viewBox="0 0 100 100" fill="none" xmlns="http://www.w3.org/2000/svg">
<g id="OBJECT" clip-path="url(#clip0_17735_6128)">
<path id="Vector" d="M99.9025 72.1101L88.965 43.532C88.8284 43.1755 88.5581 42.8863 88.2115 42.7262C87.8649 42.566 87.4695 42.5475 87.1095 42.6746L75.5861 46.7859C75.401 46.8523 75.2311 46.9551 75.0865 47.0884C74.942 47.2216 74.8256 47.3825 74.7444 47.5616C74.6631 47.7406 74.6187 47.9342 74.6136 48.1307C74.6086 48.3273 74.643 48.5228 74.715 48.7058L75.7169 51.2449L67.8537 54.9793L54.9474 52.5554C53.6904 52.3204 52.3985 52.3473 51.1524 52.6343C49.9063 52.9213 48.7328 53.4623 47.7052 54.2234L45.3986 55.9343L43.8712 54.8347C42.7184 54.0092 41.3927 53.4571 39.9948 53.2202C38.5968 52.9833 37.1633 53.0679 35.8029 53.4675L30.8497 54.9421L24.3615 51.0632L25.2931 48.7078C25.365 48.5248 25.3995 48.3292 25.3945 48.1327C25.3894 47.9361 25.3449 47.7426 25.2637 47.5635C25.1825 47.3845 25.0661 47.2236 24.9215 47.0903C24.7769 46.9571 24.6071 46.8542 24.422 46.7878L12.8908 42.6746C12.5302 42.5463 12.1339 42.5642 11.7864 42.7245C11.4389 42.8847 11.1679 43.1745 11.0314 43.532L0.0977826 72.1101C-0.037784 72.462 -0.0322008 72.8527 0.113367 73.2006C0.258935 73.5485 0.533239 73.8268 0.879033 73.9773L11.8165 78.6902C11.9967 78.768 12.1907 78.8088 12.3869 78.8103C12.5832 78.8117 12.7778 78.7736 12.959 78.6984C13.1403 78.6231 13.3046 78.5122 13.4422 78.3723C13.5798 78.2323 13.6878 78.0661 13.7599 77.8835L14.8615 75.0964L23.9279 80.2058C23.3169 81.0928 23.0356 82.1656 23.1326 83.2383C23.2296 84.311 23.6989 85.3159 24.4591 86.0788C24.8867 86.5067 25.3947 86.8458 25.9538 87.0767C26.5128 87.3077 27.112 87.4259 27.7169 87.4245H27.8322C27.9347 88.5705 28.4628 89.6365 29.3124 90.4123C30.162 91.1882 31.2715 91.6176 32.422 91.6159H32.5411C32.6339 92.6927 33.1043 93.7021 33.8693 94.4656C34.2969 94.8934 34.8048 95.2325 35.3639 95.4635C35.923 95.6944 36.5222 95.8126 37.1271 95.8113H37.2423C37.3198 96.6842 37.6448 97.5169 38.179 98.2116C38.7133 98.9064 39.4347 99.4342 40.2585 99.7332C41.0823 100.032 41.9743 100.09 42.8298 99.8997C43.6852 99.7094 44.4687 99.2789 45.088 98.6589L46.8283 96.9206L49.1837 98.6784C50.1816 99.4222 51.4146 99.7804 52.6556 99.687C53.8966 99.5937 55.0622 99.0552 55.9376 98.1706L56.1036 98.0027C56.8431 97.2479 57.3339 96.2848 57.5099 95.2429C58.3912 95.4917 59.3228 95.5015 60.209 95.2712C61.0953 95.0409 61.9043 94.5788 62.5529 93.9324L62.674 93.8113C63.4958 92.991 64.015 91.9161 64.1466 90.7624C65.0347 91.027 65.9778 91.0459 66.8758 90.8172C67.7737 90.5885 68.5929 90.1207 69.2462 89.4636L69.3283 89.3816C70.1295 88.5874 70.6435 87.5491 70.7892 86.4304C71.5799 86.619 72.404 86.6177 73.194 86.4266C73.9841 86.2355 74.7177 85.8601 75.3348 85.331C75.9519 84.802 76.435 84.1343 76.7444 83.3826C77.0539 82.631 77.181 81.8168 77.1154 81.0066C77.0898 80.6924 77.0355 80.3812 76.9533 80.0769L85.4669 75.9089L86.2482 77.8777C86.3198 78.0606 86.4276 78.2271 86.5651 78.3674C86.7026 78.5077 86.867 78.6188 87.0484 78.6941C87.2298 78.7694 87.4246 78.8073 87.621 78.8057C87.8174 78.804 88.0114 78.7627 88.1915 78.6843L99.1291 73.9714C99.472 73.8195 99.7435 73.5416 99.8875 73.1952C100.031 72.8488 100.037 72.4604 99.9025 72.1101ZM11.588 75.4031L3.33606 71.8445L13.2521 45.9168L15.6837 46.782L10.9962 60.1062C10.8667 60.4729 10.8882 60.8761 11.056 61.227C11.2237 61.5779 11.524 61.8478 11.8908 61.9773C12.2575 62.1068 12.6607 62.0853 13.0116 61.9175C13.3625 61.7498 13.6323 61.4495 13.7618 61.0828L18.4376 47.7722L22.0021 49.0437L11.588 75.4031ZM28.9064 84.0066C28.5901 84.3102 28.1675 84.478 27.7291 84.4739C27.2907 84.4699 26.8713 84.2944 26.5606 83.985C26.25 83.6757 26.0728 83.257 26.0669 82.8186C26.0611 82.3802 26.2271 81.9569 26.5294 81.6394L29.6544 78.5144C29.8894 78.2802 30.1885 78.1209 30.514 78.0565C30.8394 77.9921 31.1766 78.0256 31.4831 78.1526C31.7895 78.2796 32.0515 78.4945 32.236 78.7702C32.4205 79.046 32.5192 79.3701 32.5197 79.7019C32.5204 79.9223 32.4773 80.1406 32.3928 80.3442C32.3083 80.5477 32.1841 80.7324 32.0275 80.8874L28.9064 84.0066ZM33.8712 87.9441C33.7833 88.03 33.7052 88.1218 33.6271 88.2136L33.6115 88.196C33.4571 88.3577 33.272 88.4868 33.067 88.5759C32.862 88.665 32.6413 88.7123 32.4178 88.7149C32.1943 88.7175 31.9725 88.6754 31.7655 88.5911C31.5585 88.5069 31.3704 88.3821 31.2123 88.2241C31.0542 88.0661 30.9293 87.8781 30.8448 87.6712C30.7604 87.4642 30.7181 87.2425 30.7205 87.019C30.723 86.7955 30.77 86.5748 30.859 86.3697C30.9479 86.1647 31.0769 85.9794 31.2384 85.8249L34.1056 82.9597C34.1915 82.8738 34.2736 82.7839 34.3517 82.6921L34.3654 82.7058C34.6822 82.4027 35.105 82.2357 35.5434 82.2405C35.9818 82.2453 36.4008 82.4214 36.711 82.7313C37.0211 83.0412 37.1976 83.4601 37.2027 83.8985C37.2079 84.3369 37.0412 84.7598 36.7384 85.0769L33.8712 87.9441ZM38.3087 92.3816C37.9894 92.6683 37.5724 92.8217 37.1434 92.8104C36.7145 92.799 36.3062 92.6237 36.0025 92.3205C35.6988 92.0173 35.5228 91.6093 35.5108 91.1804C35.4987 90.7514 35.6515 90.3342 35.9376 90.0144L39.0626 86.8894C39.2142 86.7177 39.3994 86.5789 39.6066 86.4814C39.8139 86.384 40.0389 86.3301 40.2679 86.3229C40.4968 86.3158 40.7248 86.3556 40.9377 86.4398C41.1507 86.5241 41.3441 86.6511 41.5061 86.813C41.6682 86.9749 41.7953 87.1682 41.8798 87.3811C41.9642 87.594 42.0042 87.8219 41.9972 88.0509C41.9903 88.2798 41.9365 88.5049 41.8393 88.7122C41.742 88.9196 41.6033 89.1048 41.4318 89.2566L38.3087 92.3816ZM46.1369 93.448L43.0119 96.573C42.6951 96.876 42.2722 97.0431 41.8338 97.0383C41.3955 97.0335 40.9764 96.8574 40.6662 96.5475C40.3561 96.2376 40.1796 95.8186 40.1745 95.3803C40.1693 94.9419 40.336 94.5189 40.6388 94.2019L43.506 91.3367C43.5919 91.2507 43.674 91.1609 43.7521 91.0691L43.7658 91.0827C44.0826 90.7797 44.5054 90.6127 44.9438 90.6174C45.3821 90.6222 45.8012 90.7984 46.1114 91.1083C46.4215 91.4181 46.598 91.8371 46.6031 92.2755C46.6083 92.7138 46.4416 93.1368 46.1388 93.4538L46.1369 93.448ZM73.5509 82.9792C73.1616 83.3729 72.6382 83.6054 72.0851 83.6304C71.532 83.6554 70.9898 83.471 70.5665 83.114L69.424 82.1628C69.3442 82.0468 69.2482 81.9429 69.1388 81.8542L66.504 79.737C66.2004 79.5089 65.82 79.4076 65.443 79.4545C65.0661 79.5015 64.7222 79.693 64.4838 79.9886C64.2453 80.2843 64.1311 80.6611 64.1651 81.0394C64.1992 81.4177 64.3788 81.768 64.6662 82.0163L66.9396 83.8503C67.0027 83.9376 67.0747 84.0181 67.1544 84.0906C67.3803 84.2905 67.5628 84.5346 67.6908 84.8077C67.8188 85.0809 67.8895 85.3773 67.8987 85.6788C67.9078 85.9803 67.8552 86.2805 67.744 86.5609C67.6328 86.8413 67.4654 87.096 67.2521 87.3093L67.1701 87.3913C66.7996 87.7634 66.3087 87.9913 65.7855 88.0342C65.2622 88.0772 64.7408 87.9324 64.3146 87.6257L62.0509 86.0046L62.0275 85.987L61.172 85.3757C60.856 85.1496 60.4632 85.0583 60.0799 85.1218C59.6965 85.1854 59.3542 85.3986 59.1281 85.7146C58.902 86.0306 58.8106 86.4234 58.8742 86.8067C58.9377 87.19 59.151 87.5324 59.4669 87.7585L60.338 88.3816C60.5966 88.5699 60.8112 88.8121 60.9672 89.0914C61.1232 89.3707 61.2167 89.6805 61.2414 89.9994C61.2661 90.3184 61.2213 90.6389 61.1102 90.9388C60.9991 91.2388 60.8243 91.5111 60.5978 91.737L60.4767 91.8581C60.0782 92.2562 59.543 92.4877 58.98 92.5055C58.417 92.5232 57.8683 92.326 57.4454 91.9538L55.004 89.8054C54.8638 89.66 54.695 89.5451 54.5083 89.4681C54.3215 89.391 54.1208 89.3534 53.9189 89.3576C53.7169 89.3619 53.518 89.4078 53.3346 89.4926C53.1512 89.5774 52.9874 89.6992 52.8534 89.8504C52.7194 90.0016 52.6181 90.1788 52.5559 90.3711C52.4936 90.5633 52.4719 90.7663 52.4919 90.9673C52.5119 91.1683 52.5733 91.363 52.6722 91.5392C52.7711 91.7154 52.9053 91.8692 53.0665 91.9909L53.8966 92.7253C54.1228 92.9242 54.306 93.1671 54.435 93.4392C54.564 93.7114 54.6361 94.007 54.6469 94.3079C54.6577 94.6089 54.6069 94.9089 54.4977 95.1895C54.3885 95.4702 54.2232 95.7256 54.0119 95.9402L53.8458 96.1081C53.4689 96.4891 52.967 96.721 52.4326 96.7612C51.8982 96.8014 51.3673 96.6471 50.9376 96.3269L48.8283 94.7527C49.2741 94.0564 49.5243 93.253 49.5527 92.4267C49.5811 91.6005 49.3867 90.7818 48.9898 90.0565C48.5929 89.3312 48.0082 88.7261 47.297 88.3046C46.5857 87.8831 45.7742 87.6608 44.9474 87.6609H44.8322C44.7292 86.5152 44.2013 85.4496 43.3523 84.6735C42.5032 83.8975 41.3945 83.4673 40.2443 83.4675H40.1251C40.0188 82.3051 39.4738 81.2268 38.6009 80.4519C37.728 79.6769 36.5927 79.2635 35.4259 79.2956C35.334 78.2188 34.8626 77.2096 34.0958 76.448C33.2313 75.585 32.0596 75.1002 30.838 75.1002C29.6164 75.1002 28.4448 75.585 27.5802 76.448L26.004 78.0222L15.9454 72.3581L23.2658 53.8347L29.8947 57.7976C30.0691 57.902 30.2634 57.969 30.4652 57.9942C30.6669 58.0194 30.8717 58.0023 31.0665 57.9441L36.6368 56.2859C37.5675 56.0117 38.5484 55.9531 39.5051 56.1146C40.4618 56.276 41.3691 56.6532 42.1583 57.2175L42.9279 57.7722L35.0978 63.5828C34.5168 64.0141 34.0443 64.5748 33.7176 65.2204C33.3909 65.8661 33.219 66.5789 33.2156 67.3025C33.2122 68.0261 33.3773 68.7405 33.6979 69.3892C34.0185 70.0379 34.4857 70.603 35.0626 71.0398C36.1507 71.8567 37.4603 72.3257 38.8196 72.3853C40.1788 72.4449 41.5244 72.0923 42.6798 71.3738L48.8283 67.5046C49.5431 68.9304 50.879 70.8679 53.1994 72.0613C55.8888 73.4441 59.1583 73.4792 62.9279 72.1667L73.2794 79.6218C73.5396 79.8096 73.7558 80.0516 73.9133 80.3311C74.0707 80.6107 74.1656 80.921 74.1914 81.2408C74.2173 81.5606 74.1734 81.8821 74.0628 82.1833C73.9522 82.4845 73.7775 82.758 73.5509 82.9851V82.9792ZM75.4337 77.5574L64.0099 69.3347C63.8116 69.1923 63.581 69.1017 63.3388 69.071C63.0967 69.0403 62.8507 69.0705 62.6232 69.1589C59.3615 70.4246 56.6525 70.5261 54.5665 69.4695C51.8048 68.0652 50.9591 64.9949 50.9513 64.9773C50.8943 64.7538 50.7852 64.547 50.6331 64.3736C50.481 64.2002 50.2902 64.0652 50.076 63.9795C49.8619 63.8939 49.6305 63.86 49.4008 63.8806C49.1711 63.9013 48.9495 63.9759 48.754 64.0984L41.1212 68.8855C40.4691 69.2908 39.7095 69.489 38.9425 69.4541C38.1755 69.4193 37.437 69.1529 36.8243 68.6902C36.6101 68.5284 36.4366 68.3188 36.3175 68.0782C36.1984 67.8375 36.1371 67.5724 36.1385 67.3039C36.1398 67.0355 36.2037 66.771 36.3251 66.5315C36.4466 66.2921 36.6222 66.0843 36.838 65.9246L49.4435 56.5691C50.1466 56.0486 50.9496 55.6786 51.8022 55.4823C52.6547 55.2861 53.5386 55.2678 54.3986 55.4285L67.7736 57.9402C68.0777 57.9985 68.3925 57.9581 68.672 57.825L76.7892 53.9695L84.381 73.1804L75.4337 77.5574ZM88.4123 75.3972L77.9923 49.03L81.5587 47.7586L86.2326 61.0691C86.3621 61.4358 86.6319 61.7361 86.9828 61.9039C87.3337 62.0716 87.7369 62.0931 88.1037 61.9636C88.4704 61.8341 88.7707 61.5642 88.9384 61.2133C89.1062 60.8624 89.1277 60.4593 88.9982 60.0925L84.3107 46.7683L86.7423 45.9031L96.6583 71.8308L88.4123 75.3972Z" fill="#CFA935"/>
<path id="Vector_2" d="M49.9961 45.8985C54.535 45.8985 58.972 44.5525 62.746 42.0308C66.52 39.5091 69.4615 35.9249 71.1984 31.7315C72.9354 27.5381 73.3899 22.9238 72.5044 18.4721C71.6189 14.0204 69.4332 9.93119 66.2237 6.72168C63.0142 3.51218 58.925 1.32647 54.4733 0.440973C50.0216 -0.444528 45.4072 0.00994355 41.2138 1.74692C37.0204 3.48389 33.4362 6.42535 30.9145 10.1993C28.3928 13.9733 27.0469 18.4103 27.0469 22.9492C27.0536 29.0337 29.4736 34.867 33.776 39.1694C38.0783 43.4717 43.9117 45.8917 49.9961 45.8985ZM49.9961 2.9297C53.9556 2.9297 57.8262 4.10382 61.1184 6.3036C64.4106 8.50338 66.9765 11.63 68.4917 15.2881C70.007 18.9462 70.4034 22.9714 69.631 26.8549C68.8585 30.7383 66.9518 34.3054 64.1521 37.1052C61.3523 39.905 57.7851 41.8116 53.9017 42.5841C50.0183 43.3566 45.993 42.9601 42.335 41.4449C38.6769 39.9296 35.5502 37.3637 33.3505 34.0715C31.1507 30.7793 29.9766 26.9087 29.9766 22.9492C29.9823 17.6415 32.0933 12.5527 35.8464 8.79957C39.5996 5.04641 44.6883 2.93539 49.9961 2.9297Z" fill="#CFA935"/>
<path id="Vector_3" d="M49.9961 40.0391C53.3762 40.0391 56.6803 39.0368 59.4907 37.1589C62.3011 35.2811 64.4916 32.612 65.7851 29.4892C67.0785 26.3665 67.417 22.9303 66.7576 19.6152C66.0982 16.3001 64.4705 13.2549 62.0805 10.8649C59.6904 8.47482 56.6453 6.84717 53.3302 6.18776C50.0151 5.52834 46.5789 5.86678 43.4561 7.16027C40.3333 8.45376 37.6643 10.6442 35.7864 13.4546C33.9086 16.265 32.9062 19.5692 32.9062 22.9492C32.9114 27.4802 34.7136 31.824 37.9175 35.0279C41.1213 38.2317 45.4652 40.0339 49.9961 40.0391ZM49.9961 8.78907C52.7967 8.78907 55.5344 9.61955 57.8631 11.1755C60.1917 12.7314 62.0066 14.9429 63.0784 17.5304C64.1501 20.1178 64.4305 22.9649 63.8842 25.7117C63.3378 28.4585 61.9892 30.9816 60.0088 32.962C58.0285 34.9423 55.5054 36.2909 52.7586 36.8373C50.0118 37.3837 47.1647 37.1033 44.5772 36.0315C41.9898 34.9598 39.7783 33.1448 38.2224 30.8162C36.6664 28.4876 35.8359 25.7498 35.8359 22.9492C35.8401 19.195 37.3333 15.5957 39.9879 12.9411C42.6426 10.2864 46.2419 8.79321 49.9961 8.78907Z" fill="#CFA935"/>
<path id="Vector_4" d="M79.4844 22.9492C79.4844 23.1416 79.5223 23.3321 79.5959 23.5098C79.6695 23.6875 79.7774 23.849 79.9134 23.985C80.0494 24.121 80.2109 24.2289 80.3886 24.3026C80.5664 24.3762 80.7569 24.4141 80.9492 24.4141H89.0664C89.4549 24.4141 89.8275 24.2597 90.1022 23.985C90.3769 23.7103 90.5313 23.3377 90.5313 22.9492C90.5313 22.5607 90.3769 22.1881 90.1022 21.9134C89.8275 21.6387 89.4549 21.4844 89.0664 21.4844H80.9492C80.5607 21.4844 80.1881 21.6387 79.9134 21.9134C79.6387 22.1881 79.4844 22.5607 79.4844 22.9492Z" fill="#CFA935"/>
<path id="Vector_5" d="M77.906 16.2728C78.1664 16.2748 78.4226 16.2074 78.6482 16.0775L84.7341 12.5013C85.0708 12.3047 85.3156 11.9825 85.4147 11.6054C85.5138 11.2283 85.459 10.8273 85.2624 10.4906C85.0659 10.1539 84.7436 9.90906 84.3665 9.80998C83.9894 9.7109 83.5884 9.76568 83.2517 9.96226L77.1638 13.5443C76.8833 13.7057 76.6642 13.9555 76.5407 14.2546C76.4171 14.5537 76.3961 14.8853 76.4808 15.1976C76.5656 15.5099 76.7514 15.7854 77.0092 15.9809C77.2671 16.1765 77.5824 16.2812 77.906 16.2787V16.2728Z" fill="#CFA935"/>
<path id="Vector_6" d="M77.1565 32.3544L83.2444 35.9364C83.4111 36.0338 83.5953 36.0973 83.7866 36.1234C83.9779 36.1496 84.1724 36.1378 84.3592 36.0887C84.5459 36.0396 84.7211 35.9543 84.8748 35.8375C85.0286 35.7207 85.1578 35.5748 85.2551 35.4081C85.3524 35.2414 85.416 35.0571 85.4421 34.8658C85.4683 34.6746 85.4564 34.48 85.4074 34.2933C85.3583 34.1066 85.273 33.9314 85.1562 33.7776C85.0394 33.6239 84.8935 33.4947 84.7268 33.3974L78.6409 29.8231C78.4749 29.7221 78.2905 29.655 78.0984 29.6259C77.9063 29.5968 77.7103 29.6062 77.5219 29.6535C77.3335 29.7009 77.1563 29.7853 77.0008 29.9017C76.8453 30.0182 76.7145 30.1644 76.6161 30.3319C76.5176 30.4994 76.4535 30.6849 76.4273 30.8774C76.4012 31.0699 76.4137 31.2657 76.464 31.4534C76.5143 31.6411 76.6014 31.8169 76.7203 31.9705C76.8392 32.1242 76.9875 32.2527 77.1565 32.3485V32.3544Z" fill="#CFA935"/>
<path id="Vector_7" d="M10.9336 24.4141H19.0508C19.4393 24.4141 19.8119 24.2597 20.0866 23.985C20.3613 23.7103 20.5156 23.3377 20.5156 22.9492C20.5156 22.5607 20.3613 22.1881 20.0866 21.9134C19.8119 21.6387 19.4393 21.4844 19.0508 21.4844H10.9336C10.5451 21.4844 10.1725 21.6387 9.89779 21.9134C9.62308 22.1881 9.46875 22.5607 9.46875 22.9492C9.46875 23.3377 9.62308 23.7103 9.89779 23.985C10.1725 24.2597 10.5451 24.4141 10.9336 24.4141Z" fill="#CFA935"/>
<path id="Vector_8" d="M15.2679 12.5013L21.3539 16.0755C21.5198 16.1766 21.7042 16.2436 21.8963 16.2728C22.0884 16.3019 22.2844 16.2925 22.4728 16.2451C22.6612 16.1978 22.8384 16.1134 22.9939 15.9969C23.1494 15.8805 23.2802 15.7342 23.3787 15.5667C23.4771 15.3992 23.5413 15.2138 23.5674 15.0213C23.5935 14.8288 23.581 14.6329 23.5307 14.4453C23.4804 14.2576 23.3933 14.0818 23.2744 13.9281C23.1555 13.7745 23.0073 13.646 22.8382 13.5501L16.7503 9.96226C16.5836 9.86492 16.3994 9.80137 16.2081 9.77524C16.0168 9.74912 15.8223 9.76092 15.6356 9.80998C15.2585 9.90906 14.9362 10.1539 14.7396 10.4906C14.543 10.8273 14.4882 11.2283 14.5873 11.6054C14.6864 11.9825 14.9312 12.3047 15.2679 12.5013Z" fill="#CFA935"/>
<path id="Vector_9" d="M21.3539 29.829L15.2679 33.3974C14.9312 33.5939 14.6864 33.9162 14.5873 34.2933C14.4882 34.6704 14.543 35.0714 14.7396 35.4081C14.9362 35.7448 15.2585 35.9896 15.6356 36.0887C16.0126 36.1878 16.4136 36.133 16.7503 35.9364L22.8382 32.3603C23.0073 32.2644 23.1555 32.1359 23.2744 31.9823C23.3933 31.8286 23.4804 31.6528 23.5307 31.4651C23.581 31.2774 23.5935 31.0816 23.5674 30.8891C23.5413 30.6966 23.4771 30.5112 23.3787 30.3437C23.2802 30.1762 23.1494 30.0299 22.9939 29.9134C22.8384 29.797 22.6612 29.7126 22.4728 29.6653C22.2844 29.6179 22.0884 29.6085 21.8963 29.6376C21.7042 29.6668 21.5198 29.7338 21.3539 29.8349V29.829Z" fill="#CFA935"/>
<path id="Vector_10" d="M46.7157 29.3192C46.853 29.4668 47.0192 29.5846 47.204 29.6651C47.3888 29.7457 47.5883 29.7872 47.7899 29.7872C47.9915 29.7872 48.1909 29.7457 48.3758 29.6651C48.5606 29.5846 48.7268 29.4668 48.8641 29.3192L58.8915 18.577C59.0228 18.4359 59.125 18.2704 59.1924 18.0898C59.2597 17.9092 59.2908 17.7171 59.2839 17.5245C59.277 17.3319 59.2323 17.1426 59.1522 16.9672C59.0721 16.7919 58.9583 16.6341 58.8172 16.5028C58.6762 16.3715 58.5106 16.2692 58.33 16.2019C58.1494 16.1345 57.9574 16.1034 57.7648 16.1103C57.5722 16.1172 57.3828 16.162 57.2075 16.242C57.0322 16.3221 56.8743 16.4359 56.743 16.577L47.7879 26.1708L43.2606 21.3211C42.9954 21.0362 42.6279 20.8684 42.2389 20.8545C41.8499 20.8405 41.4713 20.9817 41.1864 21.2469C40.9015 21.5121 40.7336 21.8797 40.7197 22.2687C40.7058 22.6577 40.8469 23.0363 41.1122 23.3212L46.7157 29.3192Z" fill="#CFA935"/>
</g>
<defs>
<clipPath id="clip0_17735_6128">
<rect width="100" height="100" fill="white"/>
</clipPath>
</defs>
</svg>
