<svg width="150" height="150" viewBox="0 0 150 150" fill="none" xmlns="http://www.w3.org/2000/svg">
<g id="Layer_1">
<g id="Group">
<path id="Vector" d="M141.136 2.27295H8.86361C5.22725 2.27295 2.27271 5.22749 2.27271 8.86386V112.727C2.27271 116.364 5.22725 119.318 8.86361 119.318H53.1818V130.455H47.7272C41.5909 130.455 36.5909 135.455 36.5909 141.591V145.455C36.5909 146.818 37.5 147.727 38.8636 147.727H110.909C112.273 147.727 113.182 146.818 113.182 145.455V141.591C113.182 135.455 108.182 130.455 102.045 130.455H96.5909V119.318H140.909C144.545 119.318 147.5 116.364 147.5 112.727V8.86386C147.727 5.22749 144.773 2.27295 141.136 2.27295ZM8.86361 6.8184H140.909C142.273 6.8184 143.182 7.72749 143.182 8.86386V98.4093H6.81816V8.86386C6.81816 7.72749 7.72725 6.8184 8.86361 6.8184ZM108.864 141.591V143.182H41.1363V141.591C41.1363 137.955 44.0909 135 47.7272 135H102.273C105.909 135 108.864 137.955 108.864 141.591ZM92.2727 130.455H57.7272V119.318H92.2727V130.455ZM141.136 114.773H8.86361C7.72725 114.773 6.81816 113.864 6.81816 112.727V102.955H143.182V112.727C143.182 113.864 142.273 114.773 141.136 114.773Z" fill="black"/>
<path id="Vector_2" d="M47.9544 75.2271C64.318 75.2271 77.7271 61.818 77.7271 45.4544C77.7271 29.0907 64.318 15.6816 47.9544 15.6816C31.5907 15.6816 18.1816 29.0907 18.1816 45.4544C18.1816 62.0453 31.5907 75.2271 47.9544 75.2271ZM47.9544 20.2271C61.818 20.2271 73.1816 31.5907 73.1816 45.4544C73.1816 59.318 61.818 70.6816 47.9544 70.6816C34.0907 70.6816 22.7271 59.318 22.7271 45.4544C22.7271 31.5907 34.0907 20.2271 47.9544 20.2271Z" fill="black"/>
<path id="Vector_3" d="M41.5909 56.1365C42.0455 56.5911 42.5 56.8184 43.1818 56.8184C43.8637 56.8184 44.3182 56.5911 44.7728 56.1365L62.7273 38.182C63.6364 37.2729 63.6364 35.9093 62.7273 35.0002C61.8182 34.0911 60.4546 34.0911 59.5455 35.0002L43.1818 51.3638L36.5909 44.7729C35.6818 43.8638 34.3182 43.8638 33.4091 44.7729C32.5 45.682 32.5 47.0456 33.4091 47.9547L41.5909 56.1365Z" fill="#CFA935"/>
<path id="Vector_4" d="M98.1818 55.9093C97.4999 56.5911 97.2727 57.5002 97.7272 58.182L107.5 87.5002C107.727 88.4093 108.636 89.0911 109.545 89.0911C110.454 89.0911 111.364 88.4093 111.818 87.7275L114.318 80.9093L122.273 88.8638C123.182 89.7729 124.545 89.7729 125.454 88.8638L131.136 83.182C132.045 82.2729 132.045 80.9093 131.136 80.0002L123.182 72.0457L130 69.5457C130.909 69.0911 131.591 68.4093 131.364 67.2729C131.364 66.3638 130.682 65.4547 129.773 65.2275L100.454 55.4547C99.5454 55.0002 98.6363 55.2275 98.1818 55.9093ZM122.273 67.2729L118.182 68.8638C116.591 69.5457 116.136 71.3638 117.273 72.5002L126.136 81.3638L123.864 84.0911L115 75.2275C113.864 74.0911 111.818 74.5457 111.364 76.1366L109.773 80.2275L103.409 61.1366L122.273 67.2729Z" fill="black"/>
<path id="Vector_5" d="M107.727 51.5911C108.636 51.5911 109.545 50.9093 110 50.0002L111.818 43.8638C112.273 42.7275 111.591 41.3638 110.227 40.9093C109.091 40.4547 107.727 41.1366 107.273 42.5002L105.455 48.6366C105 50.2275 106.136 51.5911 107.727 51.5911Z" fill="black"/>
<path id="Vector_6" d="M96.3636 50.455C97.0455 51.5913 98.4091 52.0459 99.5455 51.3641C100.682 50.6823 101.136 49.3186 100.455 48.1823L97.5 42.5004C96.8182 41.3641 95.4546 40.9095 94.3182 41.5913C93.1818 42.2732 92.7273 43.6368 93.4091 44.7732L96.3636 50.455Z" fill="black"/>
<path id="Vector_7" d="M85.227 56.3639L91.3634 58.1821C92.4997 58.6366 93.8634 57.9548 94.3179 56.5912C94.7724 55.4548 94.0906 54.0912 92.727 53.6366L86.5906 51.8185C85.4543 51.3639 84.0906 52.0457 83.6361 53.4094C83.4088 54.773 84.0906 56.1366 85.227 56.3639Z" fill="black"/>
<path id="Vector_8" d="M90.9091 63.4092L85.2272 66.3638C84.0909 67.0456 83.6363 68.4092 84.3182 69.5456C85 70.6819 86.3636 71.1365 87.5 70.4547L93.1818 67.5001C94.3182 66.8183 94.7727 65.4547 94.0909 64.3183C93.4091 63.1819 92.0454 62.7274 90.9091 63.4092Z" fill="black"/>
</g>
</g>
</svg>
