<svg width="32" height="32" viewBox="0 0 32 32" fill="none" xmlns="http://www.w3.org/2000/svg">
<path d="M2.4 30H8C8.05253 30 8.10455 29.9897 8.15308 29.9696C8.20161 29.9495 8.24571 29.92 8.28285 29.8829C8.31999 29.8457 8.34946 29.8016 8.36956 29.7531C8.38966 29.7045 8.4 29.6525 8.4 29.6V22.4C8.4 22.3475 8.38966 22.2955 8.36956 22.2469C8.34946 22.1984 8.31999 22.1543 8.28285 22.1171C8.24571 22.08 8.20161 22.0505 8.15308 22.0304C8.10455 22.0103 8.05253 22 8 22H2.4C2.34747 22 2.29545 22.0103 2.24692 22.0304C2.19839 22.0505 2.15429 22.08 2.11715 22.1171C2.08 22.1543 2.05054 22.1984 2.03044 22.2469C2.01034 22.2955 2 22.3475 2 22.4V29.6C2 29.6525 2.01034 29.7045 2.03044 29.7531C2.05054 29.8016 2.08 29.8457 2.11715 29.8829C2.15429 29.92 2.19839 29.9495 2.24692 29.9696C2.29545 29.9897 2.34747 30 2.4 30ZM2.8 22.8H7.6V29.2H2.8V22.8Z" fill="black"/>
<path d="M9.59995 16.3999C9.54742 16.3999 9.49541 16.4102 9.44687 16.4303C9.39834 16.4504 9.35424 16.4799 9.3171 16.5171C9.27996 16.5542 9.25049 16.5983 9.23039 16.6468C9.21029 16.6954 9.19995 16.7474 9.19995 16.7999V29.5999C9.19995 29.6524 9.21029 29.7044 9.23039 29.753C9.25049 29.8015 9.27996 29.8456 9.3171 29.8828C9.35424 29.9199 9.39834 29.9494 9.44687 29.9695C9.49541 29.9896 9.54742 29.9999 9.59995 29.9999H15.2C15.2525 29.9999 15.3045 29.9896 15.353 29.9695C15.4016 29.9494 15.4457 29.9199 15.4828 29.8828C15.5199 29.8456 15.5494 29.8015 15.5695 29.753C15.5896 29.7044 15.6 29.6524 15.6 29.5999V16.7999C15.6 16.7474 15.5896 16.6954 15.5695 16.6468C15.5494 16.5983 15.5199 16.5542 15.4828 16.5171C15.4457 16.4799 15.4016 16.4504 15.353 16.4303C15.3045 16.4102 15.2525 16.3999 15.2 16.3999H9.59995ZM14.8 29.1999H9.99995V17.1999H14.8V29.1999Z" fill="black"/>
<path d="M16.3999 11.1998V29.5998C16.3999 29.6523 16.4102 29.7044 16.4303 29.7529C16.4504 29.8014 16.4799 29.8455 16.5171 29.8827C16.5542 29.9198 16.5983 29.9493 16.6468 29.9694C16.6954 29.9895 16.7474 29.9998 16.7999 29.9998H22.3999C22.4524 29.9998 22.5044 29.9895 22.553 29.9694C22.6015 29.9493 22.6456 29.9198 22.6828 29.8827C22.7199 29.8455 22.7494 29.8014 22.7695 29.7529C22.7896 29.7044 22.7999 29.6523 22.7999 29.5998V11.1998C22.7999 11.1473 22.7896 11.0953 22.7695 11.0467C22.7494 10.9982 22.7199 10.9541 22.6828 10.917C22.6456 10.8798 22.6015 10.8503 22.553 10.8302C22.5044 10.8101 22.4524 10.7998 22.3999 10.7998H16.7999C16.7474 10.7998 16.6954 10.8101 16.6468 10.8302C16.5983 10.8503 16.5542 10.8798 16.5171 10.917C16.4799 10.9541 16.4504 10.9982 16.4303 11.0467C16.4102 11.0953 16.3999 11.1473 16.3999 11.1998ZM21.9999 29.1998H17.1999V11.5998H21.9999V29.1998Z" fill="black"/>
<path d="M29.6001 2H24.0001C23.9476 2 23.8956 2.01034 23.847 2.03044C23.7985 2.05054 23.7544 2.08 23.7172 2.11715C23.6801 2.15429 23.6506 2.19839 23.6305 2.24692C23.6104 2.29545 23.6001 2.34747 23.6001 2.4V29.6C23.6001 29.6525 23.6104 29.7045 23.6305 29.7531C23.6506 29.8016 23.6801 29.8457 23.7172 29.8829C23.7544 29.92 23.7985 29.9495 23.847 29.9696C23.8956 29.9897 23.9476 30 24.0001 30H29.6001C29.6526 30 29.7046 29.9897 29.7532 29.9696C29.8017 29.9495 29.8458 29.92 29.8829 29.8829C29.9201 29.8457 29.9496 29.8016 29.9697 29.7531C29.9898 29.7045 30.0001 29.6525 30.0001 29.6V2.4C30.0001 2.34747 29.9898 2.29545 29.9697 2.24692C29.9496 2.19839 29.9201 2.15429 29.8829 2.11715C29.8458 2.08 29.8017 2.05054 29.7532 2.03044C29.7046 2.01034 29.6526 2 29.6001 2ZM29.2001 29.2H24.4001V2.8H29.2001V29.2Z" fill="black"/>
<path d="M3.69913 16.2634C3.76597 16.3398 3.85935 16.3879 3.96034 16.398C4.06134 16.4081 4.16239 16.3794 4.24303 16.3178L17.2001 6.40938V9.6C17.2001 9.65253 17.2104 9.70455 17.2305 9.75308C17.2506 9.80161 17.2801 9.84571 17.3172 9.88285C17.3544 9.91999 17.3985 9.94946 17.447 9.96956C17.4955 9.98966 17.5475 10 17.6001 10H19.2001C19.2526 10 19.3046 9.98966 19.3531 9.96956C19.4017 9.94946 19.4458 9.91999 19.4829 9.88285C19.5201 9.84571 19.5495 9.80161 19.5696 9.75308C19.5897 9.70455 19.6001 9.65253 19.6001 9.6V2.4C19.6001 2.34747 19.5897 2.29545 19.5696 2.24692C19.5495 2.19839 19.5201 2.15429 19.4829 2.11715C19.4458 2.08 19.4017 2.05054 19.3531 2.03044C19.3046 2.01034 19.2526 2 19.2001 2H12.0001C11.9475 2 11.8955 2.01034 11.847 2.03044C11.7985 2.05054 11.7544 2.08 11.7172 2.11715C11.6801 2.15429 11.6506 2.19839 11.6305 2.24692C11.6104 2.29545 11.6001 2.34747 11.6001 2.4V4C11.6001 4.05253 11.6104 4.10455 11.6305 4.15308C11.6506 4.20161 11.6801 4.24571 11.7172 4.28285C11.7544 4.32 11.7985 4.34946 11.847 4.36956C11.8955 4.38966 11.9475 4.4 12.0001 4.4H15.0344L3.71725 15.7172C3.64548 15.7889 3.60368 15.8853 3.60032 15.9867C3.59695 16.0882 3.63227 16.1871 3.69913 16.2634ZM16.2829 4.28281C16.3388 4.22688 16.3769 4.15561 16.3924 4.07802C16.4078 4.00043 16.3999 3.92 16.3696 3.84691C16.3393 3.77382 16.2881 3.71135 16.2223 3.6674C16.1565 3.62345 16.0792 3.6 16.0001 3.6H12.4001V2.8H18.8001V9.2H18.0001V5.6C18.0001 5.5254 17.9792 5.45229 17.9398 5.38893C17.9004 5.32557 17.8441 5.27447 17.7773 5.24142C17.7104 5.20836 17.6356 5.19466 17.5614 5.20187C17.4871 5.20907 17.4164 5.23689 17.3571 5.28219L8.54429 12.0214L16.2829 4.28281Z" fill="black"/>
</svg>
