<svg width="49" height="48" viewBox="0 0 49 48" fill="none" xmlns="http://www.w3.org/2000/svg">
<g clip-path="url(#clip0_34704_49505)">
<path d="M24.3482 48C20.3418 48 16.3971 46.9964 12.882 45.0813C12.6596 45.3426 12.4008 45.5706 12.1135 45.7583C10.4579 46.8413 8.22967 46.3756 7.14648 44.7198C6.06339 43.064 6.52924 40.8358 8.18495 39.7527C9.84086 38.6698 12.0691 39.1356 13.1521 40.7912C13.8598 41.8731 13.9061 43.1995 13.3913 44.2911C20.8306 48.3191 29.7943 47.9578 36.8903 43.316C47.479 36.3893 50.4584 22.1393 43.5317 11.5504C43.498 11.4989 43.4748 11.4413 43.4634 11.3808C43.452 11.3203 43.4526 11.2581 43.4652 11.1979C43.4778 11.1376 43.5021 11.0805 43.5368 11.0296C43.5715 10.9788 43.6159 10.9353 43.6674 10.9016C43.7189 10.8679 43.7766 10.8446 43.8371 10.8332C43.8976 10.8218 43.9597 10.8224 44.02 10.835C44.0802 10.8476 44.1374 10.872 44.1882 10.9067C44.2391 10.9414 44.2826 10.9857 44.3163 11.0373C47.8088 16.3763 49.0132 22.7558 47.7075 29.0006C46.4019 35.2455 42.7425 40.6081 37.4035 44.1006C33.6652 46.546 29.3402 47.8923 24.8962 47.9938C24.7135 47.998 24.5305 48 24.3482 48ZM7.46411 18.3597C6.66517 20.769 6.38673 23.3429 6.66977 25.9417C7.18839 30.7043 9.53064 34.98 13.2651 37.9809C16.9995 40.9818 21.679 42.3487 26.4417 41.8303C31.2043 41.3117 35.48 38.9694 38.4809 35.235C39.3131 34.1993 40.0199 33.0907 40.5955 31.9279C38.428 31.5824 38.0636 29.6538 37.7381 27.9328C37.4412 26.3637 37.1608 24.8815 35.7622 24.1687C35.746 24.1605 35.7303 24.1514 35.715 24.1416C35.1655 23.7901 34.658 23.7925 34.068 23.795C32.9667 23.7994 31.7173 23.8058 30.5311 21.4549C29.743 19.8929 30.0702 18.1785 31.4065 16.8688C32.9635 15.3426 35.2741 14.9247 37.0252 15.8527C38.2907 16.5234 39.2882 16.3944 40.1681 16.2807C40.3439 16.258 40.5113 16.2364 40.6721 16.2224C39.8881 14.5889 38.8556 13.0808 37.6005 11.7447C36.6839 12.1652 34.9892 12.917 33.6614 12.9977C32.2794 13.0819 31.252 12.5435 31.0435 11.6267C30.9249 11.1052 30.9724 9.8261 33.6025 8.54154C32.1177 7.66196 30.5127 7.00347 28.838 6.58685C28.2213 7.89551 26.4946 9.61544 25.1076 9.61544C23.8665 9.61544 22.9821 8.20648 22.2018 6.96335C22.0491 6.72007 21.9034 6.48776 21.7606 6.27401C19.6996 6.59032 17.7404 7.25191 15.9496 8.22232C15.9879 8.33201 16.0082 8.44826 16.0098 8.56929C16.016 9.04844 15.7255 9.56566 15.1221 10.1504C14.5466 10.7078 14.6708 11.0839 14.8142 11.3184C15.2275 11.9935 16.387 12.3644 16.8529 12.2056C16.9309 12.1789 16.9571 12.17 16.9416 12.0278C16.8018 10.7447 17.386 10.2422 17.7467 10.0568C18.604 9.61601 19.9288 10.0503 21.2035 11.1904C22.1785 12.0625 23.0206 12.8158 22.8684 13.7683C22.7369 14.5903 21.9062 15.2674 20.0025 16.1031C18.5311 16.9025 18.5205 18.3907 18.5094 19.9659C18.4974 21.6704 18.4825 23.7917 15.6692 23.7917C12.4175 23.7919 8.78983 20.3279 7.46411 18.3597ZM36.2905 23.1919C38.1536 24.156 38.5124 26.0524 38.8292 27.7265C39.2016 29.6948 39.4819 30.7682 41.079 30.865C42.223 28.1134 42.662 25.1029 42.3305 22.0583V22.0582C42.1511 20.4115 41.7537 18.8228 41.1563 17.3251C40.9457 17.2996 40.6485 17.3383 40.3107 17.382C39.3705 17.5036 38.083 17.6701 36.5056 16.8339C35.024 16.0488 33.21 16.656 32.1839 17.6618C31.7167 18.1198 30.7169 19.3575 31.5227 20.9548C32.3994 22.6924 33.0987 22.6888 34.0631 22.6848C34.7253 22.6822 35.4741 22.6783 36.2905 23.1919ZM7.97486 17.0073C8.00561 17.0489 8.0312 17.0955 8.05005 17.1465C8.47642 18.3034 12.4634 22.6815 15.6692 22.6815C17.3108 22.6815 17.3858 21.8466 17.3992 19.9582C17.4109 18.2939 17.4254 16.2226 19.4971 15.1143C19.5099 15.1074 19.523 15.101 19.5364 15.0952C21.4033 14.2778 21.7383 13.8032 21.772 13.593C21.8286 13.2392 21.0715 12.562 20.4633 12.018C19.4907 11.148 18.5988 10.8672 18.2544 11.0445C17.9955 11.1775 18.0221 11.6926 18.0455 11.9077C18.1154 12.5503 17.8037 13.0545 17.2115 13.2565C16.1814 13.6076 14.494 12.9222 13.8672 11.898C13.3599 11.0689 13.5356 10.1413 14.3496 9.35285C14.507 9.20032 14.6195 9.07254 14.6997 8.96763C13.1346 9.99035 11.7242 11.2653 10.5192 12.7649C9.46624 14.0752 8.61461 15.5016 7.97486 17.0073ZM34.7161 9.25676C32.6607 10.1178 32.0384 10.9944 32.1263 11.3806C32.1914 11.6666 32.7277 11.9426 33.5943 11.8895C34.5704 11.8302 35.8736 11.3016 36.7597 10.9068C36.4292 10.5983 36.0874 10.3022 35.735 10.0191C35.4043 9.75325 35.0645 9.49897 34.7161 9.25676ZM22.9882 6.12794C23.0389 6.20848 23.0904 6.29023 23.1424 6.37329C23.7386 7.32316 24.4807 8.50526 25.1078 8.50526C25.8325 8.50526 27.1434 7.37791 27.7186 6.34685C26.1758 6.06757 24.5886 5.99144 22.9882 6.12794ZM23.7959 40.7752C23.7655 40.7752 23.7349 40.7743 23.704 40.7723C23.1937 40.7376 22.7435 40.5086 22.3981 40.11C21.31 38.8539 21.3817 36.0838 21.5302 34.1093C21.5393 33.9883 21.5464 33.8938 21.5495 33.8318C21.61 32.587 21.1377 31.3068 20.2196 30.2267C19.0632 28.8663 18.423 26.3869 19.405 24.7535C19.7951 24.1047 20.7806 23.0914 23.0064 23.5687C25.026 23.775 25.6644 24.4332 26.2279 25.0143C26.6656 25.4656 27.0115 25.8221 28.1935 25.9393C29.1155 26.0307 29.6871 26.3353 29.9415 26.8705C30.3896 27.8137 29.6133 28.9865 28.7913 30.2283C28.5281 30.6258 28.2561 31.0368 28.0525 31.4057C27.9164 31.6524 27.7788 31.8991 27.6415 32.1448C26.7357 33.7662 25.8803 35.2976 25.6329 36.6006C25.6072 36.7362 25.5914 37.0076 25.5748 37.2948C25.5142 38.3445 25.431 39.7818 24.6948 40.4354C24.4431 40.6586 24.1339 40.7751 23.7959 40.7752ZM21.9108 24.5534C21.1867 24.5534 20.6657 24.8116 20.3566 25.3256C19.7286 26.3703 20.0599 28.3244 21.0656 29.5075C22.1671 30.8033 22.7328 32.3583 22.6585 33.8858C22.6552 33.9543 22.6475 34.0588 22.6374 34.1926C22.4308 36.9386 22.6327 38.685 23.2374 39.3829C23.391 39.5603 23.5621 39.6497 23.7758 39.6643C23.8645 39.6695 23.913 39.6443 23.9578 39.6047C24.3492 39.2572 24.4255 37.9389 24.4664 37.2306C24.4868 36.8781 24.5029 36.5998 24.5421 36.3933C24.8231 34.9132 25.7213 33.3054 26.6722 31.6031C26.8085 31.3592 26.9452 31.1143 27.0805 30.8692C27.3055 30.461 27.5902 30.0311 27.8655 29.6153C28.3642 28.862 29.1178 27.7238 28.9388 27.347C28.8862 27.2364 28.6341 27.0987 28.0842 27.0442C26.4975 26.8869 25.931 26.3027 25.4311 25.7872C24.955 25.2964 24.5054 24.8328 22.8648 24.6704C22.8431 24.6682 22.8216 24.6648 22.8004 24.6602C22.4762 24.5889 22.1795 24.5534 21.9108 24.5534ZM5.07658 37.175C4.99864 37.1751 4.9219 37.1558 4.85334 37.1187C4.78478 37.0817 4.72655 37.0281 4.68395 36.9628C1.19139 31.6238 -0.0130151 25.2443 1.29264 18.9994C2.5983 12.7547 6.25764 7.39198 11.5966 3.89951C15.335 1.45404 19.66 0.107788 24.104 0.00625684C28.2994 -0.0895557 32.443 0.916569 36.118 2.91869C36.3404 2.65736 36.5992 2.42937 36.8865 2.24173C37.6886 1.71691 38.647 1.53598 39.5851 1.73219C40.5233 1.92832 41.3289 2.47807 41.8536 3.28019C42.9367 4.93591 42.4707 7.16416 40.8151 8.24726C39.1595 9.33044 36.9311 8.86451 35.848 7.20879C35.1402 6.12682 35.0939 4.80044 35.6088 3.70882C28.1697 -0.319056 19.2057 0.042257 12.1099 4.68401C6.98045 8.03951 3.46473 13.1916 2.21027 19.1913C0.955891 25.1912 2.11295 31.3202 5.46845 36.4496C5.51471 36.5203 5.54101 36.6022 5.54457 36.6866C5.54812 36.771 5.5288 36.8547 5.48865 36.9291C5.4485 37.0034 5.38902 37.0655 5.31648 37.1088C5.24394 37.1521 5.16105 37.175 5.07658 37.175Z" fill="#CFA935"/>
</g>
<defs>
<clipPath id="clip0_34704_49505">
<rect width="48" height="48" fill="white" transform="translate(0.5)"/>
</clipPath>
</defs>
</svg>
