<svg width="92" height="92" viewBox="0 0 92 92" fill="none" xmlns="http://www.w3.org/2000/svg">
<g id="Capa_1" clip-path="url(#clip0_17749_11010)">
<g id="Group">
<path id="Vector" d="M88.2375 46.497L86.3799 42.5131C86.7553 41.7788 86.9684 40.9484 86.9684 40.0689C86.9684 37.7263 85.466 35.7289 83.3746 34.9871V25.2441L87.0095 23.5477C87.6295 23.2586 88.0375 22.6277 88.0463 21.9413C88.0553 21.2565 87.6636 20.617 87.0491 20.3113L71.1683 12.4049C70.9169 12.2791 70.649 12.2162 70.3689 12.2162C69.6825 12.2162 69.0661 12.599 68.7589 13.2135C68.3186 14.0994 68.6814 15.1812 69.5675 15.6233H69.5693L82.1131 21.8676L64.6871 29.9995V19.9431C64.6871 19.1673 64.1892 18.4789 63.4521 18.2363C63.1289 18.1299 55.4253 15.6306 45.8201 15.6306C36.2149 15.6306 28.5114 18.1301 28.1881 18.2363C27.451 18.4791 26.9531 19.1673 26.9531 19.9431V30.0002L9.52701 21.8676L45.8201 3.80147L55.09 8.41584C55.3416 8.54162 55.6111 8.60451 55.8896 8.60451C56.5759 8.60451 57.1942 8.22178 57.4996 7.60725C57.7133 7.17779 57.7476 6.69084 57.5949 6.23623C57.442 5.78162 57.1203 5.41326 56.691 5.19944L46.6213 0.185976C46.1254 -0.0619922 45.5145 -0.0619922 45.0185 0.185976L4.58937 20.3115C3.97664 20.617 3.58492 21.2567 3.5939 21.9415C3.60289 22.6277 4.00898 23.2586 4.63052 23.5479L26.8848 33.9336L19.2767 41.5421C18.6057 42.2132 18.5721 43.2906 19.2003 44.002L21.9355 47.1002C21.0121 48.7925 20.2756 50.57 19.7349 52.41L15.6109 52.6673C14.6639 52.7264 13.9259 53.5116 13.9259 54.4607V65.7491C13.9259 66.698 14.6637 67.4834 15.6109 67.5425L19.7349 67.7998C20.2756 69.6398 21.0121 71.4171 21.9355 73.1096L19.2003 76.2078C18.5721 76.9192 18.6055 77.9964 19.2767 78.6677L27.2584 86.6496C27.9292 87.3204 29.0068 87.3541 29.7181 86.7259L32.8161 83.9907C34.5084 84.9142 36.2857 85.6509 38.1257 86.1914L38.383 90.3156C38.4422 91.2627 39.2274 92.0005 40.1763 92.0005H51.4643C52.4132 92.0005 53.1985 91.2625 53.2576 90.3156L53.5149 86.1914C55.3547 85.6507 57.1322 84.914 58.8245 83.9907L61.9225 86.7259C62.6337 87.3545 63.7113 87.3205 64.3822 86.6496L72.3639 78.6677C73.0349 77.9966 73.0685 76.9192 72.4403 76.2078L69.7051 73.1096C70.6285 71.4173 71.365 69.6398 71.9057 67.7998L76.0297 67.5425C76.9767 67.4834 77.7147 66.6982 77.7147 65.7491V54.4607C77.7147 53.5118 76.9769 52.7264 76.0297 52.6673L71.9057 52.41C71.365 50.57 70.6285 48.7927 69.7051 47.1002L72.4403 44.002C73.0685 43.2906 73.0351 42.2134 72.3639 41.5421L64.7556 33.9336L79.7811 26.9215V34.9873C77.6897 35.729 76.1873 37.7264 76.1873 40.069C76.1873 40.9488 76.4004 41.7791 76.7758 42.5133L74.9182 46.4972C74.4988 47.3967 74.888 48.4656 75.7873 48.8852C76.033 48.9997 76.2914 49.0539 76.5456 49.0539C77.2225 49.0539 77.8705 48.6698 78.1754 48.0161L79.5523 45.0633C79.6278 45.094 79.704 45.1233 79.7813 45.1506V49.0536C79.7813 50.046 80.5859 50.8505 81.5781 50.8505C82.5704 50.8505 83.375 50.0458 83.375 49.0536V45.1506C83.4521 45.1233 83.5285 45.094 83.6039 45.0633L84.9809 48.0161C85.2858 48.67 85.9339 49.0539 86.6106 49.0539C86.8647 49.0539 87.1233 48.9997 87.3689 48.8852C88.2677 48.4655 88.6569 47.3965 88.2375 46.497ZM30.5469 21.2906C33.0289 20.6148 38.9695 19.2246 45.8201 19.2246C52.6707 19.2246 58.6114 20.615 61.0934 21.2906V33.2806C61.0934 34.8872 60.0126 36.3107 58.4653 36.7425L45.8201 40.2697L33.175 36.7425C31.6275 36.3105 30.5469 34.887 30.5469 33.2804V21.2906ZM45.8201 43.9321C54.7373 43.9321 61.9918 51.187 61.9918 60.1045C61.9918 69.0221 54.7371 76.2769 45.8201 76.2769C36.9031 76.2769 29.6484 69.0219 29.6484 60.1045C29.6484 51.1872 36.9029 43.9321 45.8201 43.9321ZM65.9694 47.8157C67.2497 49.9121 68.1875 52.1753 68.7567 54.5427C68.9411 55.3099 69.6045 55.8668 70.3919 55.916L74.1209 56.1487V64.0605L70.3919 64.2932C69.6045 64.3423 68.9412 64.8993 68.7567 65.6666C68.1875 68.0338 67.2497 70.2969 65.9694 72.3935C65.5584 73.0663 65.6341 73.9284 66.1559 74.5192L68.6286 77.32L63.0349 82.9139L60.2341 80.4412C59.6429 79.9194 58.781 79.8436 58.1084 80.2547C56.012 81.535 53.7488 82.4727 51.3818 83.042C50.6145 83.2264 50.0577 83.8898 50.0085 84.6772L49.7758 88.4064H41.8643L41.6316 84.6772C41.5826 83.8898 41.0255 83.2265 40.2583 83.042C37.891 82.4727 35.6281 81.535 33.5316 80.2547C32.8593 79.8437 31.9968 79.9196 31.4059 80.4412L28.6052 82.9139L23.0115 77.32L25.4842 74.5192C26.006 73.9284 26.0816 73.0663 25.6707 72.3935C24.3904 70.2971 23.4526 68.034 22.8834 65.6666C22.699 64.8993 22.0356 64.3425 21.2482 64.2932L17.5195 64.0604V56.1487L21.2486 55.916C22.036 55.867 22.6992 55.3099 22.8837 54.5427C23.453 52.1755 24.3908 49.9123 25.671 47.8157C26.082 47.143 26.0063 46.281 25.4845 45.69L23.0118 42.8892L28.3604 37.5407C29.2907 38.8024 30.6275 39.7628 32.2095 40.204L38.1884 41.8718C31.068 44.8636 26.0547 51.9094 26.0547 60.1045C26.0547 71.0037 34.9214 79.8707 45.8201 79.8707C56.7189 79.8707 65.5856 71.0037 65.5856 60.1045C65.5856 51.9094 60.5723 44.8636 53.4518 41.8718L59.4309 40.204C61.0127 39.7627 62.3498 38.8024 63.2798 37.5407L68.6284 42.8892L66.1557 45.69C65.6341 46.281 65.5584 47.143 65.9694 47.8157ZM81.5778 38.2718C82.5686 38.2718 83.3746 39.0779 83.3746 40.0687C83.3746 40.7103 83.0605 41.8655 81.5778 41.8655C80.3203 41.8655 79.7809 40.6654 79.7809 40.0687C79.7809 39.0781 80.587 38.2718 81.5778 38.2718Z" fill="#CFA935"/>
<path id="Vector_2" d="M37.2162 69.0131C37.3892 69.0652 37.5639 69.0902 37.7357 69.0902C38.5076 69.0902 39.2212 68.5887 39.4553 67.8116L40.1341 65.5601H44.3263L44.9976 67.8072C45.2817 68.7582 46.2825 69.2978 47.2336 69.0147C48.1845 68.7307 48.725 67.7296 48.4411 66.7787C48.4411 66.7787 44.1981 52.5767 44.1935 52.5624C43.9121 51.7 43.1299 51.1211 42.2466 51.1211C42.2457 51.1211 42.2448 51.1211 42.2437 51.1211C41.3594 51.1224 40.5776 51.7036 40.2982 52.5676C40.2944 52.5789 36.0144 66.7742 36.0144 66.7742C35.728 67.7242 36.266 68.7267 37.2162 69.0131ZM43.2528 61.9661H41.2178L42.2401 58.5758L43.2528 61.9661Z" fill="#CFA935"/>
<path id="Vector_3" d="M53.9062 69.0898C54.8963 69.0898 55.7031 68.283 55.7031 67.293V61.0039C55.7031 60.0138 54.8963 59.207 53.9062 59.207C52.9162 59.207 52.1094 60.0138 52.1094 61.0039V67.293C52.1094 68.283 52.9162 69.0898 53.9062 69.0898Z" fill="#CFA935"/>
<path id="Vector_4" d="M53.9062 54.7148C54.8986 54.7148 55.7031 53.9104 55.7031 52.918C55.7031 51.9256 54.8986 51.1211 53.9062 51.1211C52.9139 51.1211 52.1094 51.9256 52.1094 52.918C52.1094 53.9104 52.9139 54.7148 53.9062 54.7148Z" fill="#CFA935"/>
<path id="Vector_5" d="M63.1328 12.2109C64.1252 12.2109 64.9297 11.4064 64.9297 10.4141C64.9297 9.42168 64.1252 8.61719 63.1328 8.61719C62.1404 8.61719 61.3359 9.42168 61.3359 10.4141C61.3359 11.4064 62.1404 12.2109 63.1328 12.2109Z" fill="#CFA935"/>
</g>
</g>
<defs>
<clipPath id="clip0_17749_11010">
<rect width="92" height="92" fill="white"/>
</clipPath>
</defs>
</svg>
