<svg width="64" height="65" viewBox="0 0 64 65" fill="none" xmlns="http://www.w3.org/2000/svg">
<path d="M44.8 9.30002C44.8 8.6635 45.0529 8.05306 45.5029 7.60297C45.953 7.15288 46.5635 6.90002 47.2 6.90002H55.2C55.8365 6.90002 56.447 7.15288 56.8971 7.60297C57.3471 8.05306 57.6 8.6635 57.6 9.30002V17.3C57.6 17.9365 57.3471 18.547 56.8971 18.9971C56.447 19.4472 55.8365 19.7 55.2 19.7C54.5635 19.7 53.953 19.4472 53.5029 18.9971C53.0529 18.547 52.8 17.9365 52.8 17.3V15.092L38.496 29.396C38.046 29.8455 37.436 30.0979 36.8 30.0979C36.164 30.0979 35.554 29.8455 35.104 29.396L27.2 21.492L13.696 34.996C13.4763 35.2318 13.2113 35.4209 12.9169 35.5521C12.6225 35.6833 12.3047 35.7538 11.9825 35.7595C11.6602 35.7652 11.3401 35.7059 11.0413 35.5852C10.7424 35.4645 10.471 35.2848 10.2431 35.0569C10.0152 34.829 9.83551 34.5576 9.7148 34.2587C9.5941 33.9599 9.53482 33.6398 9.5405 33.3176C9.54619 32.9953 9.61672 32.6775 9.7479 32.3831C9.87907 32.0887 10.0682 31.8237 10.304 31.604L25.504 16.404C25.954 15.9546 26.564 15.7021 27.2 15.7021C27.836 15.7021 28.446 15.9546 28.896 16.404L36.8 24.308L49.408 11.7H47.2C46.5635 11.7 45.953 11.4472 45.5029 10.9971C45.0529 10.547 44.8 9.93654 44.8 9.30002ZM12 45.3C12.6365 45.3 13.247 45.5529 13.6971 46.003C14.1471 46.4531 14.4 47.0635 14.4 47.7V55.7C14.4 56.3365 14.1471 56.947 13.6971 57.3971C13.247 57.8472 12.6365 58.1 12 58.1C11.3635 58.1 10.753 57.8472 10.3029 57.3971C9.85285 56.947 9.6 56.3365 9.6 55.7V47.7C9.6 47.0635 9.85285 46.4531 10.3029 46.003C10.753 45.5529 11.3635 45.3 12 45.3ZM27.2 38.1C27.2 37.4635 26.9471 36.8531 26.4971 36.403C26.047 35.9529 25.4365 35.7 24.8 35.7C24.1635 35.7 23.553 35.9529 23.1029 36.403C22.6529 36.8531 22.4 37.4635 22.4 38.1V55.7C22.4 56.3365 22.6529 56.947 23.1029 57.3971C23.553 57.8472 24.1635 58.1 24.8 58.1C25.4365 58.1 26.047 57.8472 26.4971 57.3971C26.9471 56.947 27.2 56.3365 27.2 55.7V38.1ZM37.6 42.1C38.2365 42.1 38.847 42.3529 39.2971 42.803C39.7471 43.2531 40 43.8635 40 44.5V55.7C40 56.3365 39.7471 56.947 39.2971 57.3971C38.847 57.8472 38.2365 58.1 37.6 58.1C36.9635 58.1 36.353 57.8472 35.9029 57.3971C35.4529 56.947 35.2 56.3365 35.2 55.7V44.5C35.2 43.8635 35.4529 43.2531 35.9029 42.803C36.353 42.3529 36.9635 42.1 37.6 42.1ZM52.8 31.7C52.8 31.0635 52.5471 30.4531 52.0971 30.003C51.647 29.5529 51.0365 29.3 50.4 29.3C49.7635 29.3 49.153 29.5529 48.7029 30.003C48.2529 30.4531 48 31.0635 48 31.7V55.7C48 56.3365 48.2529 56.947 48.7029 57.3971C49.153 57.8472 49.7635 58.1 50.4 58.1C51.0365 58.1 51.647 57.8472 52.0971 57.3971C52.5471 56.947 52.8 56.3365 52.8 55.7V31.7Z" fill="#CFA935"/>
</svg>
