<svg width="32" height="33" viewBox="0 0 32 33" fill="none" xmlns="http://www.w3.org/2000/svg">
<g clip-path="url(#clip0_33761_39306)">
<path d="M30.7192 27.758C30.9842 28.4296 30.9842 29.1026 30.5868 29.6391C30.192 30.177 29.6634 30.5797 28.8712 30.5797H3.12877C2.46905 30.5797 1.808 30.177 1.41323 29.6391C1.0158 29.1026 1.0158 28.2958 1.28075 27.758L4.05344 21.5728H27.8154L30.7192 27.758Z" stroke="black" stroke-width="1.83426" stroke-miterlimit="10" stroke-linecap="round" stroke-linejoin="round"/>
<path d="M14.0129 26.6068H17.9871M27.8193 21.5728V4.61602C27.8193 3.55623 26.8947 2.62891 25.8389 2.62891H6.0379C4.98208 2.62891 4.0574 3.55623 4.0574 4.61602V21.5728H27.8193Z" stroke="black" stroke-width="1.83426" stroke-miterlimit="10" stroke-linecap="round" stroke-linejoin="round"/>
<path d="M20.7691 17.5985C19.5768 16.2738 17.8546 15.3464 16 15.3464C14.1454 15.3464 12.4232 16.1413 11.2309 17.5985M16 14.6841C16.5219 14.6841 17.0387 14.5813 17.5209 14.3815C18.0031 14.1818 18.4412 13.8891 18.8102 13.52C19.1793 13.151 19.472 12.7129 19.6717 12.2307C19.8714 11.7485 19.9742 11.2317 19.9742 10.7098C19.9742 10.1879 19.8714 9.67113 19.6717 9.18896C19.472 8.70678 19.1793 8.26866 18.8102 7.89962C18.4412 7.53058 18.0031 7.23784 17.5209 7.03812C17.0387 6.83839 16.5219 6.7356 16 6.7356C14.946 6.7356 13.9351 7.15431 13.1898 7.89962C12.4445 8.64493 12.0258 9.6558 12.0258 10.7098C12.0258 11.7639 12.4445 12.7747 13.1898 13.52C13.9351 14.2654 14.946 14.6841 16 14.6841Z" stroke="black" stroke-width="1.83426" stroke-miterlimit="10" stroke-linecap="round" stroke-linejoin="round"/>
</g>
<defs>
<clipPath id="clip0_33761_39306">
<rect width="31.7939" height="31.7939" fill="white" transform="translate(0.103058 0.708008)"/>
</clipPath>
</defs>
</svg>
