<svg width="40" height="40" viewBox="0 0 40 40" fill="none" xmlns="http://www.w3.org/2000/svg">
<path d="M33.5185 16.6185C32.3735 16.0466 31.0929 15.7441 29.8148 15.7441C28.3717 15.7441 26.9451 16.1286 25.6895 16.8556C23.2816 18.2501 21.7478 20.7441 21.5867 23.5274C21.5799 23.6452 21.6439 23.7555 21.7493 23.8082C22.8943 24.3802 24.1752 24.6826 25.4533 24.6827C25.4533 24.6827 25.4532 24.6827 25.4534 24.6827C26.8964 24.6827 28.3228 24.2982 29.5784 23.5713C30.3089 23.1482 30.9657 22.6211 31.5307 22.0043C31.5396 21.9944 31.5481 21.9837 31.5557 21.9727L32.7849 20.1926C32.7925 20.1816 32.7993 20.1699 32.8053 20.158C33.3204 19.1376 33.6152 18.0412 33.6811 16.8992C33.688 16.7816 33.6241 16.6712 33.5185 16.6185Z" fill="#9BDB3E"/>
<path d="M20.0002 15.9277C24.2238 15.9277 27.6476 12.5038 27.6476 8.28023C27.6476 4.05668 24.2238 0.632812 20.0002 0.632812C15.7767 0.632812 12.3528 4.05668 12.3528 8.28023C12.3528 12.5038 15.7767 15.9277 20.0002 15.9277Z" fill="#00C3F0"/>
<path d="M15.6578 11.3777C13.4332 8.25938 13.8831 4.04117 16.5507 1.45312C16.2104 1.6257 15.8786 1.82578 15.5585 2.05414C12.1201 4.50711 11.3214 9.28289 13.7744 12.7212C16.2273 16.1596 21.0032 16.9584 24.4415 14.5053C24.7618 14.2769 25.0589 14.0284 25.3327 13.7627C22.0174 15.443 17.8824 14.4959 15.6578 11.3777Z" fill="#009FEF"/>
<path opacity="0.2" d="M20.1488 0.632812C19.0818 1.62906 18.4138 3.04734 18.4138 4.62242C18.4138 7.6368 20.8574 10.0805 23.872 10.0805C25.3341 10.0805 26.6608 9.50461 27.6405 8.56867C27.7035 6.93602 27.248 5.2707 26.2256 3.83773C24.7657 1.79109 22.4827 0.680078 20.1488 0.632812Z" fill="#F5F5F5"/>
<path d="M14.3104 16.8555C13.0547 16.1284 11.6282 15.7441 10.1852 15.7441C8.90714 15.7441 7.62636 16.0465 6.48144 16.6185C6.37605 16.6712 6.31199 16.7816 6.31886 16.8993C6.4798 19.6829 8.01355 22.1771 10.4217 23.5713C11.6771 24.2984 13.1036 24.6826 14.5467 24.6827C14.5467 24.6827 14.5468 24.6827 14.547 24.6827C15.8248 24.6827 17.1057 24.3803 18.2507 23.8082C18.3561 23.7555 18.4201 23.6451 18.4132 23.5274C18.2521 20.7441 16.7182 18.2499 14.3104 16.8555Z" fill="#9BDB3E"/>
<path opacity="0.15" d="M33.5183 16.6185C32.3733 16.0466 31.0927 15.7441 29.8146 15.7441C28.3714 15.7441 26.9449 16.1286 25.6892 16.8556C23.2814 18.2501 21.7475 20.7441 21.5864 23.5274C21.5796 23.6452 21.6436 23.7555 21.7491 23.8082C22.8941 24.3802 24.1749 24.6826 25.4531 24.6827C25.4531 24.6827 25.453 24.6827 25.4531 24.6827C26.8961 24.6827 28.3225 24.2982 29.5781 23.5713C30.3087 23.1482 30.9655 22.6211 31.5304 22.0043C31.5394 21.9944 31.5478 21.9837 31.5555 21.9727L32.7846 20.1926C32.7922 20.1816 32.7991 20.1699 32.8051 20.158C33.3202 19.1376 33.6149 18.0412 33.6809 16.8992C33.6878 16.7816 33.6239 16.6712 33.5183 16.6185Z" fill="#F5F5F5"/>
<path opacity="0.15" d="M14.3104 16.8555C13.0547 16.1284 11.6282 15.7441 10.1852 15.7441C8.90714 15.7441 7.62636 16.0465 6.48144 16.6185C6.37605 16.6712 6.31199 16.7816 6.31886 16.8993C6.4798 19.6829 8.01355 22.1771 10.4217 23.5713C11.6771 24.2984 13.1036 24.6826 14.5467 24.6827C14.5467 24.6827 14.5468 24.6827 14.547 24.6827C15.8248 24.6827 17.1057 24.3803 18.2507 23.8082C18.3561 23.7555 18.4201 23.6451 18.4132 23.5274C18.2521 20.7441 16.7182 18.2499 14.3104 16.8555Z" fill="#F5F5F5"/>
<path d="M16.877 22.423C16.0513 22.6908 15.1837 22.8302 14.3174 22.8302C14.3174 22.8302 14.3173 22.8302 14.3171 22.8302C12.874 22.8301 11.4475 22.4457 10.192 21.7188C8.28173 20.6127 6.92259 18.8142 6.36158 16.7285C6.33119 16.7787 6.31533 16.8375 6.31884 16.8985C6.47978 19.6821 8.01353 22.1763 10.4217 23.5705C11.6771 24.2976 13.1036 24.6818 14.5467 24.6819C14.5467 24.6819 14.5468 24.6819 14.547 24.6819C15.7462 24.6819 16.9478 24.4155 18.0377 23.91L16.877 22.423Z" fill="#91CC29"/>
<path d="M33.6382 16.7285C33.0772 18.8143 31.7179 20.6128 29.8076 21.7188C28.5522 22.4459 27.1258 22.8301 25.6826 22.8302C25.6826 22.8302 25.6824 22.8302 25.6822 22.8302C24.8633 22.8302 24.0433 22.7054 23.2585 22.4656L21.8022 23.8331C22.9337 24.3883 24.1945 24.682 25.4526 24.682C25.4529 24.682 25.4529 24.682 25.4531 24.682C26.8962 24.6819 28.3226 24.2975 29.5781 23.5706C31.9862 22.1763 33.5199 19.6821 33.6808 16.8986C33.6845 16.8375 33.6687 16.7785 33.6382 16.7285Z" fill="#91CC29"/>
<path d="M30.0266 18.3397C29.903 18.0133 29.5382 17.8488 29.2119 17.9726C29.1124 18.0102 26.75 18.9138 24.3529 20.6098C22.7185 21.7662 21.4704 23.0146 20.6318 24.3188V16.335C20.6318 15.9859 20.349 15.7031 20 15.7031C19.651 15.7031 19.3681 15.9859 19.3681 16.335V24.3188C18.5295 23.0147 17.2814 21.7662 15.647 20.6098C13.2498 18.9138 10.8872 18.0102 10.7879 17.9726C10.4615 17.8488 10.0968 18.0133 9.97325 18.3397C9.84966 18.6661 10.014 19.0308 10.3404 19.1544C10.4307 19.1886 19.3681 22.6386 19.3681 28.3427V28.6241C19.1099 28.38 18.8141 28.1505 18.4796 27.9384C18.1849 27.7515 17.7944 27.8388 17.6076 28.1338C17.4207 28.4284 17.5081 28.8189 17.8029 29.0058C18.8356 29.6605 19.3592 30.4545 19.3592 31.3658C19.3592 31.4004 19.3627 31.4341 19.368 31.4672V33.5485C19.368 33.8976 19.6509 34.1804 19.9999 34.1804C20.3489 34.1804 20.6318 33.8976 20.6318 33.5485V28.3427C20.6318 22.6524 29.5541 19.1945 29.6593 19.1544C29.9858 19.0308 30.1502 18.6661 30.0266 18.3397Z" fill="#6B5343"/>
<path d="M16.3925 28.0905C16.3246 28.0905 16.2554 28.0795 16.1875 28.0562C16.1527 28.0442 16.1302 28.0374 16.1242 28.0357C15.7906 27.9391 15.5979 27.5913 15.6925 27.257C15.787 26.9226 16.1342 26.7273 16.4692 26.8199C16.4692 26.8199 16.5167 26.8329 16.5976 26.8606C16.9277 26.9738 17.1035 27.3332 16.9903 27.6634C16.9003 27.9256 16.6551 28.0905 16.3925 28.0905Z" fill="#6B5343"/>
<path d="M28.2794 8.27953C28.2794 6.27773 27.5651 4.43961 26.3783 3.00656C26.3657 2.98781 26.3521 2.96961 26.3373 2.95203C25.2677 1.68078 23.8621 0.777578 22.3054 0.326953C22.2896 0.322422 22.274 0.3175 22.2583 0.313047C22.2219 0.302734 22.1853 0.293125 22.1487 0.283281C22.114 0.273906 22.0792 0.264375 22.0443 0.255547C22.0151 0.248125 21.9857 0.241172 21.9563 0.234063C21.914 0.22375 21.8715 0.213594 21.8288 0.203906C21.803 0.198125 21.7771 0.1925 21.7512 0.186953C21.705 0.176953 21.6586 0.167266 21.6119 0.157969C21.5881 0.153281 21.5642 0.148672 21.5403 0.144219C21.4917 0.135 21.4429 0.12625 21.394 0.117969C21.3711 0.114062 21.3482 0.110234 21.3252 0.106562C21.2754 0.0984375 21.2254 0.0909375 21.1754 0.0838281C21.1528 0.080625 21.1301 0.0773437 21.1074 0.0742969C21.0571 0.0675781 21.0065 0.0614063 20.956 0.0555469C20.9333 0.0529688 20.9105 0.0501563 20.8877 0.0477344C20.8371 0.0423438 20.7864 0.0376563 20.7354 0.0330469C20.7125 0.0310156 20.6895 0.02875 20.6665 0.026875C20.6156 0.0228125 20.5644 0.0194531 20.5132 0.0163281C20.4903 0.0149219 20.4674 0.0132031 20.4445 0.0119531C20.3912 0.0090625 20.3379 0.0071875 20.2844 0.00539062C20.2636 0.0046875 20.2428 0.00351563 20.222 0.00304688C20.1483 0.00109375 20.0742 0 19.9998 0C19.9255 0 19.8515 0.00109375 19.7776 0.00304688C19.7569 0.00367187 19.736 0.00476562 19.7152 0.00539062C19.6618 0.00726563 19.6084 0.00921875 19.5551 0.0119531C19.5322 0.0132031 19.5093 0.0149219 19.4865 0.0163281C19.4352 0.0194531 19.3841 0.0228125 19.3331 0.026875C19.3101 0.02875 19.2871 0.0310156 19.2641 0.0330469C19.2133 0.0375 19.1625 0.0422656 19.1119 0.0477344C19.0891 0.0501563 19.0664 0.0529688 19.0435 0.0555469C18.9929 0.0613281 18.9426 0.0675 18.8922 0.0742188C18.8694 0.0772656 18.8467 0.0805469 18.8238 0.0838281C18.7739 0.0910156 18.724 0.0985156 18.6744 0.106484C18.6514 0.110156 18.6283 0.114062 18.6054 0.117969C18.5566 0.126328 18.5079 0.135078 18.4594 0.144219C18.4354 0.14875 18.4112 0.153281 18.3873 0.158047C18.341 0.167266 18.2947 0.176953 18.2487 0.186875C18.2226 0.1925 18.1965 0.198047 18.1705 0.203906C18.1282 0.213516 18.086 0.223594 18.0438 0.233906C18.0142 0.241094 17.9846 0.248125 17.9551 0.255625C17.9205 0.264453 17.8862 0.273828 17.8517 0.283125C17.8148 0.292969 17.7779 0.302734 17.7412 0.313125C17.726 0.317422 17.711 0.322109 17.6958 0.326484C16.1384 0.777031 14.7322 1.68039 13.6622 2.95195C13.6476 2.96937 13.634 2.9875 13.6214 3.00633C12.4344 4.43953 11.7202 6.27766 11.7202 8.27961C11.7202 10.2817 12.4347 12.12 13.6219 13.5533C13.6344 13.5718 13.6479 13.5898 13.6624 13.6071C14.7322 14.8784 16.1378 15.7816 17.6948 16.2323C17.7104 16.2368 17.7258 16.2416 17.7415 16.246C17.778 16.2564 17.8148 16.2661 17.8517 16.2759C17.8861 16.2852 17.9204 16.2945 17.9551 16.3034C17.9847 16.311 18.0144 16.318 18.0443 16.3252C18.0863 16.3354 18.1284 16.3456 18.1708 16.3552C18.1967 16.361 18.2226 16.3666 18.2486 16.3722C18.2947 16.3821 18.341 16.3919 18.3875 16.4011C18.4115 16.4058 18.4355 16.4104 18.4596 16.4149C18.508 16.4241 18.5565 16.4328 18.6054 16.4411C18.6284 16.4451 18.6516 16.4488 18.6748 16.4527C18.7244 16.4606 18.7741 16.4681 18.824 16.4753C18.8469 16.4786 18.8698 16.4819 18.8926 16.4849C18.9429 16.4916 18.9932 16.4978 19.0437 16.5036C19.0665 16.5062 19.0894 16.509 19.1122 16.5114C19.1628 16.5168 19.2135 16.5215 19.2642 16.5261C19.2872 16.5281 19.3102 16.5304 19.3333 16.5323C19.3841 16.5363 19.4353 16.5396 19.4865 16.5428C19.5094 16.5442 19.5324 16.5459 19.5553 16.5472C19.6084 16.5501 19.6619 16.552 19.7153 16.5537C19.7361 16.5545 19.7569 16.5556 19.7778 16.5561C19.8516 16.558 19.9257 16.5591 20 16.5591C20.0743 16.5591 20.1483 16.558 20.2222 16.5561C20.2429 16.5555 20.2637 16.5544 20.2845 16.5537C20.338 16.5519 20.3914 16.5499 20.4447 16.5472C20.4676 16.5459 20.4904 16.5442 20.5133 16.5428C20.5646 16.5397 20.6157 16.5363 20.6667 16.5323C20.6897 16.5304 20.7126 16.5281 20.7356 16.5261C20.7865 16.5216 20.8373 16.5168 20.8879 16.5114C20.9107 16.509 20.9333 16.5062 20.9562 16.5036C21.0068 16.4978 21.0572 16.4916 21.1076 16.4848C21.1303 16.4818 21.1529 16.4785 21.1756 16.4753C21.2257 16.4681 21.2756 16.4606 21.3254 16.4526C21.3483 16.4489 21.3712 16.4451 21.3941 16.4412C21.4431 16.4328 21.4919 16.4241 21.5406 16.4148C21.5644 16.4103 21.5881 16.4058 21.6119 16.4011C21.6587 16.3918 21.7053 16.382 21.7518 16.372C21.7774 16.3664 21.803 16.361 21.8285 16.3552C21.8713 16.3455 21.914 16.3352 21.9565 16.3249C21.9857 16.3178 22.0149 16.3109 22.044 16.3035C22.0794 16.2945 22.1145 16.2849 22.1497 16.2755C22.1856 16.2658 22.2217 16.2563 22.2575 16.2463C22.2744 16.2415 22.2912 16.2362 22.3081 16.2313C23.8637 15.7803 25.268 14.8775 26.3368 13.6073C26.3511 13.5902 26.3644 13.5725 26.3768 13.5542C27.5647 12.1205 28.2794 10.282 28.2794 8.27953ZM23.3451 14.445C23.3428 14.4462 23.3404 14.4475 23.3382 14.4488C23.2752 14.483 23.2108 14.5147 23.1467 14.547C23.45 14.0892 23.7184 13.5645 23.9453 12.9849C24.2588 13.0948 24.5576 13.2175 24.837 13.3538C24.3908 13.7793 23.8904 14.148 23.3451 14.445ZM16.6551 14.4452C16.1095 14.1481 15.609 13.7793 15.1629 13.3538C15.4422 13.2176 15.7411 13.0948 16.0546 12.9849C16.2815 13.5645 16.5499 14.0892 16.8532 14.547C16.789 14.5147 16.7244 14.4829 16.6615 14.4487C16.6594 14.4476 16.6572 14.4464 16.6551 14.4452ZM13.014 8.91141H15.2462C15.2888 9.9368 15.4346 10.9046 15.6659 11.7851C15.1804 11.9535 14.7254 12.1505 14.3087 12.3745C13.5925 11.3821 13.1293 10.1964 13.014 8.91141ZM14.3086 4.18453C14.7253 4.40852 15.1803 4.60563 15.6659 4.77406C15.4347 5.65453 15.2888 6.62234 15.2462 7.64766H13.014C13.1293 6.36258 13.5924 5.17695 14.3086 4.18453ZM16.6576 2.11227C16.6581 2.11203 16.6587 2.11164 16.6591 2.11141C16.7229 2.0768 16.7882 2.04469 16.853 2.01188C16.5497 2.46969 16.2813 2.99437 16.0544 3.57406C15.7409 3.46414 15.4421 3.34133 15.1627 3.20508C15.6097 2.77891 16.1111 2.40969 16.6576 2.11227ZM23.3433 2.11289C23.8893 2.41016 24.3904 2.77922 24.8369 3.205C24.5575 3.34133 24.2587 3.46398 23.9451 3.57398C23.7183 2.99445 23.4498 2.46961 23.1465 2.0118C23.2111 2.0443 23.2762 2.07625 23.3395 2.11078C23.3408 2.11156 23.342 2.11227 23.3433 2.11289ZM26.9858 7.64766H24.7536C24.7109 6.62234 24.5652 5.65453 24.3339 4.77406C24.8194 4.60563 25.2745 4.40859 25.6912 4.18453C26.4072 5.17695 26.8704 6.36258 26.9858 7.64766ZM19.3679 4.18641C18.6429 4.15281 17.9405 4.06141 17.2801 3.91797C17.7998 2.63063 18.5373 1.70344 19.3679 1.3857V4.18641ZM19.3679 5.45V7.64758H16.5124C16.5546 6.75078 16.6854 5.89734 16.8865 5.12234C17.6719 5.3018 18.5081 5.41313 19.3679 5.45ZM19.3679 8.91141V11.109C18.5082 11.1459 17.6718 11.2573 16.8865 11.4367C16.6854 10.6617 16.5546 9.80813 16.5124 8.91141H19.3679ZM19.3679 12.3727V15.1733C18.5373 14.8555 17.7998 13.9285 17.2801 12.6411C17.9405 12.4977 18.6431 12.4062 19.3679 12.3727ZM20.6318 12.3727C21.3567 12.4063 22.0591 12.4978 22.7195 12.6412C22.1998 13.9285 21.4623 14.8557 20.6318 15.1734V12.3727ZM20.6318 11.1091V8.91148H23.4872C23.4451 9.80828 23.3142 10.6618 23.1131 11.4368C22.3278 11.2573 21.4915 11.1459 20.6318 11.1091ZM20.6318 7.64766V5.45C21.4915 5.41313 22.3279 5.3018 23.1132 5.12234C23.3142 5.89734 23.4451 6.75086 23.4872 7.64758L20.6318 7.64766ZM20.6318 4.18641V1.38563C21.4623 1.70336 22.1999 2.63055 22.7195 3.91789C22.0592 4.06133 21.3567 4.15281 20.6318 4.18641ZM24.3338 11.7851C24.5651 10.9046 24.7109 9.9368 24.7536 8.91141H26.9858C26.8704 10.1965 26.4072 11.3821 25.6911 12.3745C25.2744 12.1505 24.8194 11.9535 24.3338 11.7851Z" fill="#8CDFED"/>
<path d="M23.302 35.4596C22.6308 34.2952 21.3701 33.5469 20 33.5469C18.6298 33.5469 17.3691 34.2952 16.698 35.4596C14.7989 35.4841 13.2615 37.0367 13.2615 38.9416C13.2615 39.0497 13.2669 39.1614 13.2775 39.2736C13.3166 39.6851 13.6622 39.9992 14.0755 39.9992H22.1483H24.2967H25.9244C26.3378 39.9992 26.6832 39.685 26.7224 39.2736C26.7331 39.1615 26.7385 39.0498 26.7385 38.9416C26.7385 37.0366 25.2011 35.4841 23.302 35.4596Z" fill="#C5824B"/>
<path d="M17.0374 39.412C17.0288 39.3212 17.0244 39.2309 17.0244 39.1434C17.0244 37.6016 18.2687 36.345 19.8059 36.3252C20.349 35.3828 21.3694 34.7771 22.4783 34.7771C22.5919 34.7771 22.7041 34.785 22.8155 34.7974C22.1058 34.0199 21.088 33.5469 20 33.5469C18.6298 33.5469 17.3691 34.2952 16.698 35.4596C14.7989 35.4841 13.2615 37.0367 13.2615 38.9416C13.2615 39.0497 13.2669 39.1614 13.2775 39.2736C13.3166 39.6851 13.6622 39.9992 14.0755 39.9992H17.6834C17.3488 39.9994 17.0692 39.745 17.0374 39.412Z" fill="#BF733A"/>
</svg>
