<svg width="24" height="24" viewBox="0 0 24 24" fill="none" xmlns="http://www.w3.org/2000/svg">
<path d="M20.5 13.75C20.3011 13.75 20.1103 13.829 19.9697 13.9697C19.829 14.1103 19.75 14.3011 19.75 14.5V19C19.75 19.3978 19.592 19.7794 19.3107 20.0607C19.0294 20.342 18.6478 20.5 18.25 20.5H4.75C4.35218 20.5 3.97064 20.342 3.68934 20.0607C3.40804 19.7794 3.25 19.3978 3.25 19V5.5C3.25 5.10218 3.40804 4.72064 3.68934 4.43934C3.97064 4.15804 4.35218 4 4.75 4H10.75C10.9489 4 11.1397 3.92098 11.2803 3.78033C11.421 3.63968 11.5 3.44891 11.5 3.25C11.5 3.05109 11.421 2.86032 11.2803 2.71967C11.1397 2.57902 10.9489 2.5 10.75 2.5H4.75C3.95435 2.5 3.19129 2.81607 2.62868 3.37868C2.06607 3.94129 1.75 4.70435 1.75 5.5V19C1.75 19.7956 2.06607 20.5587 2.62868 21.1213C3.19129 21.6839 3.95435 22 4.75 22H18.25C19.0456 22 19.8087 21.6839 20.3713 21.1213C20.9339 20.5587 21.25 19.7956 21.25 19V14.5C21.25 14.3011 21.171 14.1103 21.0303 13.9697C20.8897 13.829 20.6989 13.75 20.5 13.75Z" fill="#CFA935"/>
<path d="M21.7443 7.93602L15.7443 2.68602C15.6359 2.59104 15.5024 2.52931 15.3598 2.50821C15.2173 2.4871 15.0716 2.50752 14.9404 2.56702C14.8091 2.62652 14.6978 2.72258 14.6197 2.84371C14.5416 2.96483 14.5 3.1059 14.5 3.25002V6.25002H13.75C11.3638 6.2526 9.07616 7.20164 7.38889 8.88891C5.70162 10.5762 4.75258 12.8639 4.75 15.25C4.74993 15.4055 4.79816 15.5571 4.88803 15.684C4.9779 15.8108 5.10497 15.9066 5.25165 15.9581C5.39834 16.0095 5.55739 16.0142 5.70682 15.9713C5.85625 15.9284 5.98866 15.8402 6.08575 15.7188C7.207 14.317 9.61075 11.905 13.0878 11.4948C13.5564 11.4399 14.0286 11.4226 14.5 11.443V14.5C14.5 14.6483 14.544 14.7933 14.6264 14.9166C14.7089 15.0399 14.826 15.136 14.963 15.1928C15.1 15.2495 15.2508 15.2644 15.3963 15.2355C15.5417 15.2065 15.6754 15.1351 15.7803 15.0303L21.7803 9.03027C21.8528 8.95769 21.9097 8.87099 21.9474 8.77554C21.9851 8.68009 22.0028 8.57791 21.9995 8.47534C21.9961 8.37276 21.9717 8.27197 21.9278 8.17921C21.8839 8.08644 21.8214 8.00367 21.7443 7.93602ZM16 12.6895V10.75C15.9999 10.5661 15.9323 10.3886 15.8099 10.2513C15.6875 10.114 15.519 10.0264 15.3363 10.0053C14.531 9.91151 13.7175 9.91151 12.9122 10.0053C10.5462 10.3271 8.33845 11.3753 6.5935 13.0053C7.07333 11.4826 8.02568 10.1524 9.31246 9.20747C10.5992 8.26255 12.1535 7.75206 13.75 7.75002H15.25C15.4489 7.75002 15.6397 7.671 15.7803 7.53035C15.921 7.38969 16 7.19893 16 7.00002V4.90002L20.1528 8.53377L16 12.6895Z" fill="#CFA935"/>
</svg>
