<svg width="60" height="60" viewBox="0 0 60 60" fill="none" xmlns="http://www.w3.org/2000/svg">
<g clip-path="url(#clip0_38684_92415)">
<path d="M23.2508 2.2375C23.4137 1.73945 23.9516 1.4664 24.4496 1.63281C24.9477 1.7957 25.2172 2.33359 25.0543 2.83164L22.7293 9.94023C22.5629 10.4383 22.0285 10.7113 21.5305 10.5484C21.0324 10.382 20.7594 9.84765 20.9258 9.34961L23.2508 2.2375Z" fill="#FEA832"/>
<path fill-rule="evenodd" clip-rule="evenodd" d="M19.4918 13.4824H4.89844C2.23711 13.4824 0.0585938 15.6621 0.0585938 18.3258V24.7605H19.4918V13.4824Z" fill="#8BD7FA"/>
<path fill-rule="evenodd" clip-rule="evenodd" d="M38.3133 13.4816C40.977 13.4816 43.1566 15.6613 43.1566 18.325V59.1203H9.7418V24.7586V18.3238C9.7418 15.6602 7.56211 13.4805 4.89844 13.4805H38.3133V13.4816Z" fill="#DAEAFA"/>
<path d="M14.3723 55.5512C13.8473 55.5512 13.4219 55.1258 13.4219 54.6008C13.4219 54.0758 13.8473 53.6504 14.3723 53.6504H26.4508C26.9758 53.6504 27.4012 54.0758 27.4012 54.6008C27.4012 55.1258 26.9758 55.5512 26.4508 55.5512H14.3723ZM30.5934 22.6742C30.0684 22.6742 29.643 22.2488 29.643 21.7238C29.643 21.1988 30.0684 20.7734 30.5934 20.7734H38.5293C39.0543 20.7734 39.4797 21.1988 39.4797 21.7238C39.4797 22.2488 39.0543 22.6742 38.5293 22.6742H30.5934ZM30.5934 28.6707C30.0684 28.6707 29.643 28.2453 29.643 27.7203C29.643 27.1953 30.0684 26.7664 30.5934 26.7664H36.0941C36.6191 26.7664 37.0445 27.1953 37.0445 27.7203C37.0445 28.2453 36.6191 28.6707 36.0941 28.6707H30.5934ZM14.3723 37.5664C13.8473 37.5664 13.4219 37.141 13.4219 36.616C13.4219 36.091 13.8473 35.6621 14.3723 35.6621H32.0816C32.6066 35.6621 33.032 36.091 33.032 36.616C33.032 37.141 32.6066 37.5664 32.0816 37.5664H14.3723ZM14.3723 43.5617C13.8473 43.5617 13.4219 43.1328 13.4219 42.6078C13.4219 42.0828 13.8473 41.6574 14.3723 41.6574H26.4508C26.9758 41.6574 27.4012 42.0828 27.4012 42.6078C27.4012 43.1328 26.9758 43.5617 26.4508 43.5617H14.3723ZM14.3723 49.5547C13.8473 49.5547 13.4219 49.1293 13.4219 48.6043C13.4219 48.0793 13.8473 47.6539 14.3723 47.6539H38.5293C39.0543 47.6539 39.4797 48.0793 39.4797 48.6043C39.4797 49.1293 39.0543 49.5547 38.5293 49.5547H14.3723Z" fill="#0593FC"/>
<path fill-rule="evenodd" clip-rule="evenodd" d="M21.1162 24.2383H18.9365C16.4252 24.2383 14.3721 26.2914 14.3721 28.8027V30.7996C14.3721 31.1512 14.658 31.4371 15.0061 31.4371H25.0443C25.3936 31.4371 25.6818 31.1512 25.6818 30.7996V28.8027C25.683 26.2914 23.6275 24.2383 21.1162 24.2383Z" fill="#0593FC"/>
<path fill-rule="evenodd" clip-rule="evenodd" d="M21.116 24.2383H18.9363C18.143 24.2383 17.3953 24.441 16.7402 24.8031C17.5969 25.6164 18.7535 26.1156 20.025 26.1156C21.3012 26.1156 22.4566 25.6176 23.3098 24.8031C22.6605 24.4445 21.9094 24.2383 21.116 24.2383Z" fill="#0584E3"/>
<path fill-rule="evenodd" clip-rule="evenodd" d="M20.0268 18.0039C18.1799 18.0039 16.6846 19.5016 16.6846 21.3484C16.6846 23.1953 18.1799 24.6906 20.0268 24.6906C21.8736 24.6906 23.3713 23.1953 23.3713 21.3484C23.3713 19.5016 21.8736 18.0039 20.0268 18.0039Z" fill="#FBBD80"/>
<path fill-rule="evenodd" clip-rule="evenodd" d="M28.859 4.56055L46.1125 10.2805L43.1559 19.2031C36.8207 19.0906 31.0645 17.1969 25.9023 13.4832L28.859 4.56055Z" fill="#223C55"/>
<path fill-rule="evenodd" clip-rule="evenodd" d="M39.6557 0.878906L53.8799 11.8875L35.8881 12.2461L21.6709 1.21406L39.6557 0.878906Z" fill="#2F5274"/>
<path fill-rule="evenodd" clip-rule="evenodd" d="M45.5014 45.1988C46.3123 44.9867 47.0822 44.6645 47.79 44.2484C47.96 44.1488 48.1521 44.1453 48.3279 44.2355L49.6603 44.9129C49.8795 45.0254 50.1385 44.9855 50.3143 44.8098L51.6631 43.4574C51.8389 43.2816 51.8787 43.025 51.7697 42.8035L51.0889 41.4711C50.9986 41.2953 51.0057 41.102 51.1053 40.9332C51.5178 40.2254 51.8389 39.4578 52.0521 38.648C52.1025 38.4559 52.235 38.3164 52.4236 38.2531L53.8416 37.7949C54.0807 37.7152 54.2342 37.5055 54.2342 37.257V35.3469C54.2342 35.0973 54.0818 34.8887 53.8416 34.8125L52.4236 34.3508C52.2338 34.2875 52.1014 34.148 52.0521 33.9594C51.84 33.1449 51.5178 32.3785 51.1053 31.6707C51.0057 31.5008 50.9986 31.3086 51.0889 31.1328L51.7697 29.8004C51.8799 29.5812 51.84 29.3223 51.6631 29.1465L50.3143 27.7977C50.1385 27.6219 49.8795 27.5785 49.6603 27.691L48.3279 28.3719C48.1521 28.4621 47.9588 28.4551 47.7865 28.3555C47.0822 27.9406 46.3111 27.6219 45.5014 27.4086C45.3115 27.3559 45.1697 27.2223 45.11 27.0371L44.6482 25.6156C44.5721 25.3801 44.3623 25.2266 44.1139 25.2266H42.2037C41.9541 25.2266 41.742 25.3789 41.6658 25.6156L41.2041 27.0371C41.1443 27.2234 41.0049 27.3559 40.8115 27.4086C40.0006 27.6207 39.2342 27.9406 38.5264 28.3555C38.3564 28.4551 38.1607 28.4621 37.985 28.3719L36.6561 27.691C36.4334 27.5785 36.1779 27.6207 36.0021 27.7977L34.6498 29.1465C34.474 29.3223 34.4342 29.5812 34.5467 29.8004L35.224 31.1328C35.3143 31.3086 35.3072 31.502 35.2076 31.6707C34.7951 32.3785 34.474 33.1461 34.2607 33.9594C34.2103 34.1492 34.0779 34.2887 33.8916 34.3508L32.4701 34.8125C32.2346 34.8887 32.0811 35.0984 32.0811 35.3469V37.257C32.0811 37.5066 32.2334 37.7152 32.4701 37.7949L33.8881 38.2531C34.0779 38.3164 34.2104 38.4559 34.2596 38.648C34.4717 39.459 34.7939 40.2254 35.2064 40.9332C35.3061 41.1031 35.3131 41.2953 35.2229 41.4711L34.5455 42.8035C34.433 43.0262 34.4729 43.2816 34.6486 43.4574L36.001 44.8098C36.1768 44.9855 36.4334 45.0254 36.6549 44.9129L37.9838 44.2355C38.1596 44.1453 38.3553 44.1488 38.5252 44.2484C39.233 44.6633 40.0006 44.9855 40.8104 45.1988C41.0025 45.2492 41.142 45.3816 41.2029 45.568L41.6646 46.9895C41.7408 47.225 41.9541 47.3785 42.2025 47.3785H44.1127C44.3623 47.3785 44.5709 47.2262 44.6471 46.9895L45.1088 45.568C45.1686 45.3816 45.3115 45.248 45.5014 45.1988Z" fill="#2F5274"/>
<path fill-rule="evenodd" clip-rule="evenodd" d="M43.1568 30.7637C46.2166 30.7637 48.6975 33.2445 48.6975 36.3043C48.6975 39.3641 46.2166 41.8414 43.1568 41.8414C40.0971 41.8414 37.6162 39.3629 37.6162 36.3043C37.6162 33.2457 40.0971 30.7637 43.1568 30.7637Z" fill="#E2E7F0"/>
<path d="M47.6803 22.1147C47.1822 21.9588 46.9068 21.4268 47.0662 20.9287C47.2221 20.4307 47.7541 20.1553 48.2557 20.3111C51.6869 21.4045 54.64 23.5701 56.7166 26.4131C58.7428 29.1869 59.9416 32.6053 59.9416 36.3026C59.9416 39.8604 58.8283 43.1651 56.9287 45.8897C55.3338 48.1748 53.1881 50.0451 50.6803 51.3037L52.0455 51.7619C52.54 51.9283 52.8096 52.4662 52.6432 52.9608C52.4768 53.4588 51.9389 53.7248 51.4443 53.5584L47.6674 52.2858C47.1729 52.1193 46.9033 51.5815 47.0697 51.0869L48.3424 47.31C48.5088 46.8154 49.0467 46.5459 49.5412 46.7123C50.0393 46.8787 50.3053 47.4166 50.1389 47.9111L49.5178 49.7615C51.8768 48.6424 53.8959 46.9244 55.3771 44.8022C57.0541 42.3975 58.0385 39.4678 58.0385 36.3014C58.0385 33.019 56.9791 29.9897 55.185 27.5322C53.3416 25.008 50.7236 23.085 47.6803 22.1147Z" fill="#70DA40"/>
<path fill-rule="evenodd" clip-rule="evenodd" d="M4.1543 13.5379C6.46289 13.9 8.24648 15.9133 8.24648 18.325V24.6227C8.24648 24.6953 8.18672 24.7586 8.11406 24.7586H9.7418V18.3238C9.7418 15.666 7.57266 13.491 4.91836 13.4805H4.89844C4.64648 13.4816 4.39687 13.5016 4.1543 13.5379Z" fill="#7DC2E1"/>
<path fill-rule="evenodd" clip-rule="evenodd" d="M28.2717 6.33594L25.9033 13.4809C31.0654 17.1945 36.8217 19.0883 43.1568 19.1973L43.1932 19.0941C43.1803 19.0941 43.1697 19.0941 43.1568 19.0906C37.6561 18.6359 32.61 16.7715 28.0326 13.4797L29.9662 7.64609L28.2717 6.33594Z" fill="#1F364D"/>
<path fill-rule="evenodd" clip-rule="evenodd" d="M37.509 12.2133L28.6098 5.30742L25.1012 2.58633L23.866 1.63008L23.334 1.21406L39.6945 0.909375L39.6547 0.878906L21.6699 1.21406L23.198 2.4L24.793 3.63633L28.2711 6.33633L29.9645 7.64883L35.8871 12.2461L37.509 12.2133Z" fill="#2A4A68"/>
<path fill-rule="evenodd" clip-rule="evenodd" d="M38.9346 36.3043C38.9346 33.6969 40.7346 31.5113 43.1568 30.9195C43.3725 30.8691 43.5916 30.8293 43.8178 30.8035C43.5986 30.7766 43.3795 30.7637 43.1568 30.7637C40.0971 30.7637 37.6162 33.2445 37.6162 36.3043C37.6162 39.3641 40.0971 41.8414 43.1568 41.8414C43.3795 41.8414 43.5986 41.8285 43.8178 41.8051C43.5916 41.7781 43.3725 41.7383 43.1568 41.6855C40.7346 41.0937 38.9346 38.9082 38.9346 36.3043Z" fill="#CBD0D8"/>
</g>
<defs>
<clipPath id="clip0_38684_92415">
<rect width="60" height="60" fill="white"/>
</clipPath>
</defs>
</svg>
