<svg width="115" height="35" viewBox="0 0 115 35" fill="none" xmlns="http://www.w3.org/2000/svg">
<path d="M114.236 30.0306C114.236 31.8317 112.777 33.2912 110.974 33.2912C110.974 33.2912 110.972 33.2912 110.97 33.2912H4.10875C2.30579 33.2912 0.840531 31.8336 0.838623 30.0306V4.02413C0.840531 2.22117 2.30389 0.75972 4.10875 0.757812H110.97C112.773 0.757812 114.236 2.21926 114.236 4.02222V30.0306Z" fill="white"/>
<path d="M110.972 34.0502H4.10911C1.88832 34.0502 0.0853588 32.2511 0.081543 30.0303V4.02375C0.0853588 1.80105 1.88641 0.00190789 4.10911 0H110.97C113.193 0.00190789 114.994 1.80296 114.998 4.02375V30.0303C114.998 32.2472 113.189 34.0502 110.97 34.0502H110.972Z" fill="#A6A6A6"/>
<path d="M114.236 30.0306C114.236 31.8317 112.777 33.2912 110.974 33.2912C110.974 33.2912 110.972 33.2912 110.97 33.2912H4.10875C2.30579 33.2912 0.840531 31.8336 0.838623 30.0306V4.02413C0.840531 2.22117 2.30389 0.75972 4.10875 0.757812H110.97C112.773 0.757812 114.236 2.21926 114.236 4.02222V30.0306Z" fill="black"/>
<path d="M25.7431 16.8472C25.7183 14.1037 27.9906 12.7681 28.0956 12.7052C26.8077 10.8297 24.814 10.5722 24.1138 10.5531C22.4387 10.3776 20.8131 11.5547 19.9603 11.5547C19.1075 11.5547 17.7758 10.5702 16.3601 10.5989C14.5381 10.6275 12.8324 11.6826 11.8975 13.3195C9.96675 16.6602 11.4072 21.5693 13.256 24.2689C14.1813 25.593 15.2612 27.0678 16.6768 27.0163C18.06 26.961 18.5771 26.1349 20.2484 26.1349C21.9197 26.1349 22.3891 27.0163 23.8314 26.9839C25.3177 26.961 26.2525 25.656 27.1454 24.3204C28.2139 22.8056 28.6431 21.3117 28.6603 21.2354C28.626 21.2239 25.7756 20.1345 25.747 16.8472H25.7431ZM23.0168 8.77683C23.7608 7.84578 24.2702 6.58084 24.1291 5.29492C23.0511 5.34262 21.7041 6.04091 20.9276 6.95097C20.2408 7.75229 19.6283 9.06683 19.7867 10.3031C20.9963 10.3928 22.2402 9.69262 23.0168 8.77683Z" fill="white"/>
<path d="M110.973 0H53.7339L76.1536 34.0502H110.973C113.195 34.0502 114.996 32.2491 115 30.0284V4.02566C114.996 1.80296 113.195 0.00381183 110.973 0.00190394V0Z" fill="url(#paint0_linear_35517_42232)"/>
<path d="M45.789 26.8251H43.8544L42.7956 23.4958H39.1133L38.104 26.8251H36.2209L39.8708 15.4941H42.124L45.789 26.8251ZM42.475 22.1012L41.5173 19.142C41.4161 18.8406 41.2254 18.127 40.9449 17.0071H40.9106C40.798 17.4898 40.6186 18.2014 40.3725 19.142L39.43 22.1012H42.4731H42.475ZM55.1549 22.6392C55.1549 24.0281 54.7771 25.1271 54.0216 25.9341C53.3462 26.6515 52.5048 27.0102 51.5032 27.0102C50.4214 27.0102 49.643 26.6248 49.1698 25.8521V30.1391H47.3535V21.3399C47.3535 20.468 47.3306 19.5713 47.2867 18.6536H48.8836L48.9848 19.949H49.0191C49.6239 18.9741 50.5435 18.4857 51.776 18.4857C52.7395 18.4857 53.5446 18.8654 54.1895 19.6285C54.8325 20.3917 55.1549 21.3952 55.1549 22.6392ZM53.3061 22.706C53.3061 21.9104 53.1268 21.256 52.7681 20.7389C52.3751 20.2009 51.8485 19.9319 51.1865 19.9319C50.7381 19.9319 50.3317 20.0826 49.9673 20.3764C49.6029 20.674 49.3644 21.0633 49.2519 21.546C49.2023 21.7253 49.1736 21.9123 49.1679 22.0992V23.4634C49.1679 24.0567 49.3511 24.5585 49.7155 24.9687C50.0799 25.377 50.5531 25.5831 51.1369 25.5831C51.8199 25.5831 52.3522 25.3179 52.7338 24.7932C53.1154 24.2666 53.3061 23.5721 53.3061 22.7079V22.706ZM64.5551 22.6392C64.5551 24.0281 64.1773 25.1271 63.4218 25.9341C62.7445 26.6515 61.905 27.0102 60.9015 27.0102C59.8197 27.0102 59.0413 26.6248 58.5681 25.8521V30.1391H56.7518V21.3399C56.7518 20.468 56.7289 19.5713 56.685 18.6536H58.2819L58.3831 19.949H58.4174C59.0222 18.9741 59.9418 18.4857 61.1743 18.4857C62.1378 18.4857 62.9429 18.8654 63.5878 19.6285C64.2308 20.3917 64.5532 21.3952 64.5532 22.6392H64.5551ZM62.7044 22.706C62.7044 21.9104 62.5251 21.256 62.1645 20.7389C61.7715 20.2009 61.2468 19.9319 60.5848 19.9319C60.1364 19.9319 59.73 20.0826 59.3637 20.3764C58.9993 20.674 58.7608 21.0633 58.6502 21.546C58.5948 21.7711 58.5643 21.9542 58.5643 22.0992V23.4634C58.5643 24.0567 58.7475 24.5585 59.11 24.9687C59.4744 25.377 59.9475 25.5831 60.5333 25.5831C61.2182 25.5831 61.7505 25.3179 62.1302 24.7932C62.5117 24.2666 62.7025 23.5721 62.7025 22.7079L62.7044 22.706ZM75.0657 23.6465C75.0657 24.6119 74.728 25.3961 74.0583 26.0009C73.32 26.661 72.2916 26.993 70.9714 26.993C69.7522 26.993 68.7735 26.7583 68.037 26.2871L68.4567 24.7741C69.2523 25.2454 70.1281 25.48 71.0801 25.48C71.765 25.48 72.2973 25.3255 72.677 25.0183C73.0586 24.7092 73.2494 24.2971 73.2494 23.7839C73.2494 23.3241 73.091 22.9368 72.7781 22.6239C72.4633 22.311 71.9444 22.0191 71.2136 21.7501C69.2294 21.0098 68.2354 19.9281 68.2354 18.5048C68.2354 17.5756 68.5865 16.8144 69.2867 16.2191C69.9869 15.6238 70.916 15.3281 72.0703 15.3281C73.1025 15.3281 73.961 15.5075 74.644 15.8662L74.1881 17.3467C73.5451 16.9994 72.822 16.8258 72.0112 16.8258C71.3701 16.8258 70.8683 16.9842 70.5096 17.2971C70.2082 17.5775 70.0536 17.919 70.0536 18.3235C70.0536 18.77 70.2292 19.142 70.5764 19.4339C70.8779 19.7029 71.4273 19.9948 72.2229 20.3077C73.1998 20.7008 73.9152 21.1587 74.375 21.6852C74.8367 22.2118 75.0676 22.8681 75.0676 23.6504L75.0657 23.6465ZM81.0851 20.0177H79.0837V23.9842C79.0837 24.9935 79.4367 25.4972 80.1426 25.4972C80.4669 25.4972 80.736 25.4705 80.9496 25.4133L80.9992 26.7927C80.6425 26.9262 80.1712 26.993 79.5874 26.993C78.87 26.993 78.3091 26.7736 77.9046 26.3367C77.5021 25.8998 77.2998 25.1652 77.2998 24.1331V20.0139H76.1074V18.6517H77.2998V17.1559L79.0837 16.6179V18.6517H81.0851V20.0177ZM90.098 22.6735C90.098 23.9289 89.7393 24.9611 89.0219 25.7662C88.2721 26.5962 87.2743 27.0102 86.0285 27.0102C84.7826 27.0102 83.8725 26.6133 83.1609 25.8177C82.4492 25.0221 82.0925 24.0186 82.0925 22.809C82.0925 21.5994 82.4607 20.5062 83.1933 19.6991C83.9279 18.8921 84.9181 18.4876 86.162 18.4876C87.406 18.4876 88.3237 18.8864 89.0544 19.6819C89.7508 20.4527 90.098 21.4506 90.098 22.6716V22.6735ZM88.2149 22.7155C88.2149 21.9676 88.0527 21.3246 87.7284 20.7885C87.3468 20.1398 86.8031 19.8155 86.0971 19.8155C85.3912 19.8155 84.8112 20.1398 84.4315 20.7885C84.1053 21.3265 83.945 21.9791 83.945 22.7498C83.945 23.5206 84.1072 24.1426 84.4315 24.6787C84.8246 25.3274 85.3721 25.6517 86.0819 25.6517C86.7916 25.6517 87.3201 25.3198 87.7131 24.6615C88.047 24.1121 88.2149 23.4653 88.2149 22.7155ZM96.0029 20.2524C95.8141 20.2181 95.6233 20.2009 95.4306 20.2028C94.7914 20.2028 94.2973 20.4432 93.95 20.9259C93.6486 21.3513 93.4979 21.8894 93.4979 22.54V26.827H91.6815V21.2292C91.6815 20.3707 91.6663 19.514 91.6281 18.6574H93.2098L93.2765 20.22H93.3262C93.5189 19.6819 93.8203 19.2488 94.2343 18.9245C94.614 18.6402 95.0738 18.4876 95.5469 18.4876C95.7148 18.4876 95.8656 18.499 96.001 18.52V20.2524H96.0029ZM104.123 22.353C104.127 22.6296 104.106 22.9044 104.056 23.1772H98.6091C98.6301 23.9842 98.8934 24.6024 99.399 25.0279C99.8588 25.4075 100.452 25.5983 101.181 25.5983C101.988 25.5983 102.723 25.4705 103.385 25.2129L103.669 26.4721C102.896 26.8098 101.982 26.9777 100.929 26.9777C99.6623 26.9777 98.6664 26.6057 97.9433 25.8597C97.2202 25.1137 96.8596 24.114 96.8596 22.8586C96.8596 21.6032 97.1954 20.6015 97.8689 19.7831C98.5748 18.9092 99.5268 18.4723 100.727 18.4723C101.927 18.4723 102.797 18.9092 103.402 19.7831C103.881 20.4756 104.123 21.3342 104.123 22.353ZM102.392 21.8836C102.406 21.3437 102.286 20.8801 102.04 20.489C101.725 19.9834 101.242 19.7315 100.593 19.7315C100 19.7315 99.5154 19.9777 99.1471 20.4718C98.8457 20.8648 98.6644 21.3361 98.6091 21.8836H102.391H102.392Z" fill="white"/>
<path d="M38.5884 11.4869C38.0829 11.4869 37.6459 11.4621 37.2834 11.4201V5.94258C37.7929 5.86435 38.3061 5.82619 38.8212 5.82619C40.9027 5.82619 41.8624 6.85074 41.8624 8.52015C41.8624 10.4471 40.7291 11.4869 38.5884 11.4869ZM38.8937 6.53021C38.6133 6.53021 38.3729 6.54738 38.1744 6.58745V10.7524C38.2813 10.7696 38.4873 10.7772 38.7773 10.7772C40.1415 10.7772 40.918 10.0007 40.918 8.54685C40.918 7.24948 40.2159 6.53021 38.8918 6.53021H38.8937ZM44.8502 11.5289C43.6768 11.5289 42.9156 10.6532 42.9156 9.46265C42.9156 8.27212 43.6921 7.33916 44.9169 7.33916C46.0731 7.33916 46.8515 8.1729 46.8515 9.39777C46.8515 10.6226 46.0502 11.5289 44.8502 11.5289ZM44.8845 7.99165C44.2396 7.99165 43.8275 8.59455 43.8275 9.43784C43.8275 10.2811 44.2492 10.8669 44.8769 10.8669C45.5046 10.8669 45.9262 10.222 45.9262 9.42067C45.9262 8.61936 45.5122 7.99165 44.8845 7.99165ZM53.5425 7.42311L52.2871 11.4392H51.4686L50.9478 9.6954C50.8181 9.26804 50.7112 8.83685 50.6254 8.39804H50.6082C50.5433 8.83495 50.4174 9.27376 50.2857 9.6954L49.7325 11.4392H48.9063L47.7234 7.42311H48.6411L49.0952 9.3329C49.2021 9.78698 49.2936 10.2163 49.3681 10.6226H49.3852C49.4501 10.2849 49.5588 9.8614 49.7153 9.34245L50.2857 7.42501H51.0127L51.5583 9.30047C51.69 9.75455 51.7968 10.201 51.8807 10.6226H51.9036C51.9609 10.2105 52.0525 9.77172 52.1765 9.30047L52.6649 7.42501H53.5406L53.5425 7.42311ZM58.1673 11.4373H57.2744V9.13067C57.2744 8.42093 57.0015 8.06416 56.4635 8.06416C55.9255 8.06416 55.5706 8.51823 55.5706 9.04672V11.4354H54.6777V8.56784C54.6777 8.21297 54.6701 7.83139 54.6453 7.41929H55.4313L55.4733 8.03935H55.4981C55.7385 7.61008 56.225 7.33725 56.7707 7.33725C57.614 7.33725 58.1673 7.98212 58.1673 9.03146V11.4354V11.4373ZM60.6284 11.4373H59.7356V5.58008H60.6284V11.4373ZM63.8833 11.5289C62.71 11.5289 61.9487 10.6532 61.9487 9.46265C61.9487 8.27212 62.7252 7.33916 63.9482 7.33916C65.1063 7.33916 65.8828 8.1729 65.8828 9.39777C65.8828 10.6532 65.0815 11.5289 63.8833 11.5289ZM63.9177 7.99165C63.2728 7.99165 62.8607 8.59455 62.8607 9.43784C62.8607 10.2811 63.2823 10.8669 63.91 10.8669C64.5377 10.8669 64.9594 10.222 64.9594 9.42067C64.9594 8.60409 64.5473 7.99165 63.9196 7.99165H63.9177ZM69.4029 11.4373L69.338 10.9756H69.3151C69.0423 11.3476 68.6454 11.5289 68.1398 11.5289C67.4205 11.5289 66.9092 11.0252 66.9092 10.3479C66.9092 9.35771 67.7678 8.84448 69.2559 8.84448V8.77008C69.2559 8.24159 68.9755 7.97639 68.4222 7.97639C68.0254 7.97639 67.6781 8.0756 67.3729 8.27403L67.1916 7.6883C67.5636 7.45744 68.0254 7.34106 68.571 7.34106C69.6204 7.34106 70.1507 7.89436 70.1507 9.00284V10.4815C70.1507 10.8859 70.1679 11.2007 70.208 11.4411H69.4029V11.4373ZM69.2807 9.43784C68.2886 9.43784 67.7926 9.67824 67.7926 10.2468C67.7926 10.6684 68.0483 10.8745 68.405 10.8745C68.8591 10.8745 69.2807 10.5273 69.2807 10.0579V9.43784ZM74.4836 11.4373L74.4416 10.7924H74.4168C74.1611 11.279 73.73 11.5289 73.1271 11.5289C72.1579 11.5289 71.4424 10.678 71.4424 9.47982C71.4424 8.28166 72.1865 7.33916 73.2015 7.33916C73.7395 7.33916 74.1192 7.52041 74.3348 7.88481H74.3519V5.58008H75.2448V10.3555C75.2448 10.7448 75.2544 11.1072 75.2773 11.4373H74.4817H74.4836ZM74.3519 9.07534C74.3519 8.51251 73.9799 8.03363 73.4113 8.03363C72.7493 8.03363 72.3448 8.61935 72.3448 9.44547C72.3448 10.2716 72.7646 10.8096 73.3942 10.8096C73.9551 10.8096 74.3519 10.3212 74.3519 9.7431V9.07343V9.07534ZM80.9094 11.5289C79.736 11.5289 78.9767 10.6532 78.9767 9.46265C78.9767 8.27212 79.7532 7.33916 80.9761 7.33916C82.1342 7.33916 82.9107 8.1729 82.9107 9.39777C82.9107 10.6532 82.1094 11.5289 80.9094 11.5289ZM80.9437 7.99165C80.3008 7.99165 79.8867 8.59455 79.8867 9.43784C79.8867 10.2811 80.3084 10.8669 80.9361 10.8669C81.5638 10.8669 81.9854 10.222 81.9854 9.42067C81.9854 8.60409 81.5733 7.99165 80.9437 7.99165ZM87.711 11.4373H86.8181V9.13067C86.8181 8.42093 86.5453 8.06416 86.0073 8.06416C85.4692 8.06416 85.1163 8.51823 85.1163 9.04672V11.4354H84.2234V8.56784C84.2234 8.21297 84.2157 7.83139 84.1909 7.41929H84.977L85.019 8.03935H85.0438C85.2823 7.61008 85.7707 7.33725 86.3163 7.33725C87.1596 7.33725 87.7148 7.98212 87.7148 9.03146V11.4373H87.711ZM93.7171 8.09277H92.7345V10.0426C92.7345 10.5387 92.9062 10.7867 93.2534 10.7867C93.4118 10.7867 93.5434 10.7695 93.6503 10.7447L93.6751 11.4221C93.5015 11.4888 93.2706 11.5213 92.9825 11.5213C92.2785 11.5213 91.8588 11.1321 91.8588 10.1171V8.09277H91.273V7.42311H91.8588V6.68666L92.7345 6.42146V7.4212H93.7171V8.09087V8.09277ZM98.441 11.4373H97.55V9.14784C97.55 8.42856 97.2791 8.06607 96.7392 8.06607C96.2775 8.06607 95.8463 8.38086 95.8463 9.01619V11.4373H94.9553V5.58008H95.8463V7.99165H95.8634C96.1439 7.55475 96.5522 7.33916 97.0711 7.33916C97.9221 7.33916 98.441 7.99929 98.441 9.05054V11.4392V11.4373ZM103.283 9.6458H100.605C100.622 10.4071 101.125 10.8344 101.87 10.8344C102.266 10.8344 102.631 10.7676 102.951 10.6436L103.091 11.2637C102.711 11.4297 102.264 11.5117 101.744 11.5117C100.488 11.5117 99.7441 10.718 99.7441 9.48744C99.7441 8.25685 100.505 7.33152 101.642 7.33152C102.669 7.33152 103.312 8.09278 103.312 9.24133C103.318 9.37679 103.308 9.51225 103.281 9.6458H103.283ZM102.465 9.00857C102.465 8.3885 102.152 7.95159 101.581 7.95159C101.068 7.95159 100.664 8.39804 100.605 9.00857H102.465Z" fill="white"/>
<defs>
<linearGradient id="paint0_linear_35517_42232" x1="84.4306" y1="34.5639" x2="84.4306" y2="-88.2137" gradientUnits="userSpaceOnUse">
<stop stop-color="#1A1A1A" stop-opacity="0.1"/>
<stop offset="0.12" stop-color="#212121" stop-opacity="0.15"/>
<stop offset="0.31" stop-color="#353535" stop-opacity="0.23"/>
<stop offset="0.53" stop-color="#575757" stop-opacity="0.32"/>
<stop offset="0.78" stop-color="#858585" stop-opacity="0.42"/>
<stop offset="1" stop-color="#B3B3B3" stop-opacity="0.51"/>
</linearGradient>
</defs>
</svg>
