<svg width="122" height="123" viewBox="0 0 122 123" fill="none" xmlns="http://www.w3.org/2000/svg">
<path d="M114.342 64.4572C114.342 65.4442 113.542 66.2443 112.555 66.2443H86.4893V80.5827C86.4893 81.5699 85.6892 82.3698 84.7022 82.3698H57.7831V96.7084C57.7831 97.6956 56.983 98.4955 55.996 98.4955H29.0767V112.835C29.0767 113.822 28.2765 114.622 27.2895 114.622H2.02148C1.03452 114.622 0.234375 113.822 0.234375 112.835C0.234375 111.847 1.03452 111.047 2.02148 111.047H25.5024V96.7084C25.5024 95.7212 26.3026 94.9212 27.2895 94.9212H54.2087V80.5827C54.2087 79.5955 55.0088 78.7956 55.9958 78.7956H82.9151V64.4572C82.9151 63.4703 83.7153 62.6701 84.7022 62.6701H112.555C113.542 62.6701 114.342 63.4703 114.342 64.4572ZM113.67 85.4822C114.418 86.4363 114.554 87.7054 114.024 88.7943C113.494 89.8833 112.411 90.5598 111.199 90.5598H109.081V109.258C109.081 111.14 107.549 112.672 105.667 112.672H98.1303C96.2481 112.672 94.7169 111.14 94.7169 109.258V90.5598H92.5981C91.3858 90.5598 90.3035 89.8833 89.7736 88.7946C89.2436 87.7056 89.3792 86.4365 90.1274 85.4825L98.3636 74.9816C99.2207 73.8889 100.509 73.2622 101.898 73.262C103.288 73.262 104.576 73.8886 105.433 74.9816L113.67 85.4822ZM110.306 86.9855L102.621 77.1874C102.381 76.8817 102.065 76.8359 101.898 76.8359C101.732 76.8359 101.416 76.8815 101.176 77.1872L93.491 86.9855H96.5041C97.491 86.9855 98.2912 87.7854 98.2912 88.7726V109.098H105.506V88.7726C105.506 87.7854 106.306 86.9855 107.293 86.9855H110.306ZM121.758 23.6766V51.8753C121.758 54.9298 119.273 57.4151 116.218 57.4151H72.2599C69.2054 57.4151 66.7201 54.93 66.7201 51.8753V23.6766C66.7201 20.6221 69.2051 18.137 72.2599 18.137H80.8549V16.7755C80.8549 13.2036 83.7608 10.2976 87.3324 10.2976H101.146C104.717 10.2976 107.623 13.2034 107.623 16.7755V18.137H116.218C119.273 18.137 121.758 20.6221 121.758 23.6766ZM84.4289 18.137H104.049V16.7755C104.049 15.1745 102.746 13.8718 101.145 13.8718H87.3321C85.7314 13.8718 84.4289 15.1742 84.4289 16.7755V18.137ZM70.2943 23.6766V28.518L82.6644 36.6105H87.1322V36.4041C87.1322 34.8339 88.4099 33.5562 89.9804 33.5562H98.4982C100.069 33.5562 101.346 34.8339 101.346 36.4041V36.6105H105.814L118.184 28.518V23.6766C118.184 22.5929 117.302 21.7112 116.218 21.7112H72.2599C71.1759 21.7112 70.2943 22.5929 70.2943 23.6766ZM90.7062 37.1304V39.6648H97.7717V37.1304H90.7062ZM118.184 51.8753V32.7892L107.325 39.8931C107.034 40.0832 106.694 40.1847 106.346 40.1847H101.346V40.3908C101.346 41.9613 100.068 43.239 98.4977 43.239H89.9799C88.4094 43.239 87.1317 41.9613 87.1317 40.3908V40.1847H82.1316C81.7842 40.1847 81.4442 40.0834 81.1533 39.8931L70.2943 32.7892V51.8753C70.2943 52.959 71.1759 53.8408 72.2599 53.8408H116.218C117.302 53.8408 118.184 52.9592 118.184 51.8753ZM5.64312 70.2532V58.3041C5.64312 52.872 7.59155 47.5905 11.1295 43.4325C13.7707 40.3286 17.1707 37.9918 20.9446 36.6391C17.6368 33.602 15.5616 29.2686 15.5616 24.4632C15.5616 15.2993 23.0996 7.84375 32.3652 7.84375C41.6307 7.84375 49.1688 15.2991 49.1688 24.4632C49.1688 29.2686 47.0936 33.602 43.7858 36.6391C47.5599 37.992 50.9597 40.3286 53.601 43.4327C57.139 47.5907 59.0875 52.8722 59.0875 58.3043V70.2534C59.0875 71.2406 58.2873 72.0405 57.3004 72.0405H7.43023C6.44327 72.0403 5.64312 71.2401 5.64312 70.2532ZM32.3652 37.5079C39.6599 37.5079 45.5945 31.6559 45.5945 24.4627C45.5945 17.2694 39.6599 11.4175 32.3652 11.4175C25.0704 11.4175 19.1358 17.2694 19.1358 24.4627C19.1358 31.6559 25.0704 37.5079 32.3652 37.5079ZM9.21734 68.4661H55.5132V58.3041C55.5132 49.0307 49.011 41.1207 39.9723 39.2742C37.6865 40.4275 35.1023 41.0823 32.3652 41.0823C29.6278 41.0823 27.0439 40.4275 24.758 39.2742C15.7196 41.1207 9.21734 49.0307 9.21734 58.3041V68.4661Z" fill="#5B5A5F"/>
</svg>
