<svg width="92" height="92" viewBox="0 0 92 92" fill="none" xmlns="http://www.w3.org/2000/svg">
<g id="3">
<path id="Vector" d="M47.1507 62.9012V66.4356C47.1507 67.1328 46.5901 67.6935 45.8929 67.6935C45.1993 67.6935 44.6351 67.1328 44.6351 66.4356V62.9012L40.2291 65.2551C39.3828 65.7025 38.3694 65.0826 38.3855 64.1195L38.4574 58.8061C34.5708 59.3757 29.7066 61.1492 29.6707 65.9685H29.6761V77.3265H29.6707C29.6761 78.2429 30.7093 78.5735 31.4119 78.5592C31.5538 78.5484 31.7066 78.5646 31.8557 78.6095C36.3425 79.9446 40.4286 79.3678 44.4572 76.7156C46.4445 75.411 51.8226 74.2556 54.0795 73.1703C51.0445 71.1686 42.1967 72.8756 37.2553 73.8334C36.7055 73.9412 35.0901 74.2664 34.8205 74.2664C34.1287 74.2664 33.5627 73.7058 33.5627 73.0086V65.7097C33.5627 65.0161 34.1287 64.4519 34.8205 64.4519C35.5177 64.4519 36.0784 65.0179 36.0784 65.7097V71.501C41.3037 70.493 50.6043 68.5919 55.0677 70.9009V65.7564C55.0677 65.0628 55.6284 64.4986 56.3202 64.4986C57.0173 64.4986 57.578 65.0646 57.578 65.7564V73.0356C57.578 73.5495 57.2725 73.9933 56.8287 74.1874C56.6652 74.4174 56.4423 74.6348 56.162 74.8504C54.9491 75.7668 51.9555 76.6185 49.6879 77.3355C50.8846 77.7883 52.067 78.1351 53.2637 78.3687C55.3516 78.782 57.5223 78.8521 59.9966 78.5771C60.7297 78.4747 62.0145 78.2914 62.0145 77.3301V65.9721C62.0145 61.5104 56.9724 59.5806 53.3302 58.9013L53.402 64.1231C53.4164 65.0862 52.403 65.7079 51.5584 65.2587L47.1507 62.9012ZM50.5073 40.3378C50.5073 39.6406 51.0679 39.08 51.7651 39.08C52.4587 39.08 53.0229 39.6406 53.0229 40.3378V40.602C53.0229 41.2938 52.4569 41.8598 51.7651 41.8598C51.0679 41.8598 50.5073 41.2938 50.5073 40.602V40.3378ZM45.352 40.3378C45.352 39.6406 45.9127 39.08 46.6098 39.08C47.3034 39.08 47.8677 39.6406 47.8677 40.3378V40.602C47.8677 41.2938 47.3016 41.8598 46.6098 41.8598C45.9127 41.8598 45.352 41.2938 45.352 40.602V40.3378ZM40.1986 40.3378C40.1986 39.6406 40.7592 39.08 41.4564 39.08C42.1482 39.08 42.7142 39.6406 42.7142 40.3378V40.602C42.7142 41.2938 42.1482 41.8598 41.4564 41.8598C40.7592 41.8598 40.1986 41.2938 40.1986 40.602V40.3378ZM55.7074 28.5413C58.9777 28.5413 60.6219 32.5088 58.3093 34.8214C57.8924 35.2437 57.3677 35.5599 56.7855 35.7378L56.2465 43.3728C55.7218 51.1514 51.713 54.3696 51.6627 54.4774L51.6177 56.1324C53.0804 56.2599 55.1684 56.6211 57.2312 57.365C59.2796 56.0048 61.0765 54.278 62.5086 52.2978C62.0702 51.0238 61.7952 49.6133 61.7198 48.1057C61.328 47.9889 61.0118 47.6888 60.8788 47.3061C59.7738 44.0969 60.7405 39.5544 63.2938 37.1592C64.0791 36.4206 64.9398 35.8187 65.84 35.3461C64.3881 29.4685 60.6039 24.7715 55.5367 22.0726C47.1525 17.6056 36.7935 19.4707 30.508 26.5504C28.1901 29.1577 26.5657 32.3166 25.802 35.7181C28.1452 37.1448 29.597 39.0495 30.2583 41.8508C30.6967 43.716 30.6608 45.7015 30.1109 47.3061H30.1055C29.978 47.6888 29.6617 47.9889 29.2646 48.1057C29.2035 49.3276 29.0148 50.4848 28.7094 51.5593C30.1972 53.8162 32.0965 55.7263 34.3228 57.2338C36.6713 56.4235 39.0755 56.1539 40.5616 56.0928L40.5975 54.7524C37.0163 51.4982 36.2167 45.1714 36.1664 42.8031C36.1664 42.7421 36.1664 42.6863 36.1772 42.6253L35.9777 35.7702C33.1513 35.17 32.0767 31.6392 34.1431 29.571C36.4557 27.2584 40.4232 28.9043 40.4232 32.1746C40.4232 32.6993 40.3154 33.1988 40.1177 33.6517L42.4303 35.1952L43.9127 33.0767C41.5031 30.7892 43.1329 26.7247 46.4445 26.7247C49.7652 26.7247 51.3859 30.809 48.9655 33.0856L50.4372 35.1952L52.4191 33.8709C51.1991 31.4433 52.9618 28.5413 55.7074 28.5413ZM56.5322 31.3984C55.8045 30.6706 54.5448 31.1846 54.5448 32.2231C54.5448 33.2563 55.8027 33.7774 56.5322 33.0425C56.9868 32.5897 56.9868 31.8512 56.5322 31.3984ZM46.6009 34.0775H46.2648L43.8247 37.5671C43.4078 38.1996 42.6423 38.3469 42.062 37.9588L38.4754 35.5743L38.6748 42.415C43.4725 43.4842 49.0195 43.5453 53.792 42.4653L54.2753 35.6498L50.802 37.957C50.2359 38.3289 49.4723 38.187 49.0859 37.6317L46.6009 34.0775ZM47.2675 29.5799C46.5344 28.8468 45.2766 29.3661 45.2766 30.4047C45.2766 31.4379 46.5344 31.959 47.2675 31.2241C47.7203 30.7713 47.7203 30.0328 47.2675 29.5799ZM37.5698 31.3481C36.8366 30.6149 35.5824 31.1342 35.5824 32.1728C35.5824 33.206 36.8348 33.7271 37.5698 32.9922C38.0226 32.5394 38.0226 31.8009 37.5698 31.3481ZM53.5332 45.0852C48.9278 46.0231 43.5084 45.9567 38.8743 45.0187C39.3523 48.3914 40.9371 54.3193 46.1588 54.3193C48.0384 54.3193 49.7849 53.1675 51.1308 51.2844C52.2844 49.6582 53.1361 47.5199 53.5332 45.0852ZM49.1111 56.2078C47.1705 57.0578 44.9387 57.0074 43.0646 56.2851L43.0233 57.8124L45.8911 59.3811L49.0698 57.6435L49.1111 56.2078ZM40.9515 59.5339L40.9209 62.0441L43.2587 60.7953L40.9515 59.5339ZM50.863 62.0459L50.8325 59.5356L48.5307 60.7988L50.863 62.0459ZM58.958 81.1916C54.2771 81.5024 50.4821 80.6004 46.2505 78.5735C46.087 78.6544 45.9504 78.7317 45.8336 78.8071C41.7026 81.5222 37.3829 82.4027 32.7541 81.4252V83.3406H58.9598V81.1916H58.958ZM59.8582 58.5725C60.444 58.9085 60.9938 59.2913 61.5131 59.7243C62.9452 59.1331 64.2695 58.9139 65.8382 58.9139L66.4959 58.3641L66.5821 57.8394C65.4411 57.0811 64.469 56.0461 63.7143 54.8386C62.5787 56.2294 61.2903 57.4764 59.8582 58.5725ZM63.328 61.7494C64.0827 62.921 64.5301 64.3117 64.5301 65.9667V77.3247C64.5301 77.6769 64.4834 78.0075 64.3971 78.3076H77.6203V71.6699C77.6203 70.9763 78.1863 70.4121 78.8781 70.4121C79.5753 70.4121 80.1359 70.9781 80.1359 71.6699V78.3076H84.6641V69.8677C84.6641 65.2838 80.9463 61.5086 76.3715 61.4332C76.5494 64.2956 73.7121 65.6253 71.1911 65.6253V65.6306C68.7204 65.6306 65.8328 64.3171 66.0107 61.4278C64.9937 61.4296 64.3163 61.4709 63.328 61.7494ZM61.5652 80.825C61.5347 80.8358 61.5041 80.8448 61.4736 80.8502V84.5985C61.4736 85.2921 60.9076 85.8563 60.2158 85.8563H31.4927C30.8009 85.8563 30.2403 85.2903 30.2403 84.5985V80.9256C30.1127 80.8951 29.9852 80.8645 29.8684 80.8232H5.0625C4.36531 80.8232 3.80469 80.2626 3.80469 79.5654V69.8677C3.80469 63.8428 8.72992 58.9121 14.7602 58.9121H14.9992L15.2382 57.4603C12.6148 55.3974 11.1791 51.8774 10.8826 48.1704C10.4962 48.0626 10.1638 47.7679 10.0273 47.36C8.93297 44.1005 9.87453 39.5616 12.4512 37.152C13.6785 36.0002 15.0801 35.1754 16.5571 34.6759L16.7907 33.5852C16.9488 32.9078 16.6523 32.2411 16.036 31.9141C15.4359 31.5924 14.8285 31.278 14.2338 30.951C14.2194 30.9761 12.807 30.2322 12.3039 28.5881C12.0038 27.5998 12.0847 26.5001 12.6094 25.5172L12.6202 25.501L15.0441 20.9531C16.0827 19.0017 18.5175 18.2578 20.4689 19.3036L22.2514 20.2506C22.8623 20.5758 23.5865 20.459 24.0591 19.9505C25.8164 18.0656 27.863 16.3801 30.0588 15.0091C30.6554 14.6371 30.9052 13.9597 30.7003 13.2931L30.1145 11.3632C29.4677 9.2501 30.6644 7.004 32.7829 6.36072L37.753 4.85135C39.8662 4.20447 42.1123 5.40119 42.7591 7.51971L43.3503 9.44955C43.5498 10.1162 44.1445 10.5349 44.8435 10.5133C47.4418 10.4217 50.0598 10.6822 52.5701 11.2626C53.2475 11.4207 53.9141 11.1242 54.2412 10.5079L55.2546 8.60322C56.2932 6.74346 58.7639 6.0265 60.7153 7.12619L65.2021 9.51424C67.1535 10.5528 67.892 12.9876 66.8516 14.939L65.9047 16.7215C65.5795 17.3324 65.6962 18.0512 66.2048 18.5238C68.0897 20.2865 69.7752 22.3278 71.1462 24.5289C71.5181 25.1255 72.1955 25.3753 72.8568 25.1704L74.792 24.5846C76.9052 23.9378 79.1477 25.1345 79.7945 27.253L81.3075 32.2249C81.9544 34.3381 80.763 36.5752 78.6176 37.231C81.1242 39.655 82.0352 44.1328 80.9553 47.3564C80.8169 47.7643 80.4863 48.059 80.1 48.1668C79.8053 51.8756 78.3678 55.3939 75.7408 57.4567L75.9798 58.9085H76.2241C82.2491 58.9085 87.1797 63.8392 87.1797 69.8641V79.5618C87.1797 80.259 86.6137 80.8196 85.9219 80.8196H61.5652V80.825ZM27.2916 78.3094L27.1641 77.3265H27.1587V65.9685H27.1641C27.1497 64.4411 27.572 62.9892 28.1631 61.9093C27.0329 61.5068 26.1866 61.4314 24.9701 61.4314C25.3061 66.9621 14.2733 66.9675 14.6093 61.4367C10.0345 61.514 6.32211 65.2874 6.32211 69.8713V78.3112H10.8448V71.6735C10.8448 70.9799 11.4109 70.4157 12.1027 70.4157C12.7998 70.4157 13.3605 70.9817 13.3605 71.6735V78.3112H27.2916V78.3094ZM29.7659 59.8501C30.3463 59.3003 30.9986 58.8259 31.6868 58.4234C30.1595 57.2321 28.7741 55.8467 27.5863 54.3031C26.8586 55.6131 25.8955 56.7631 24.7131 57.6184L25.8595 58.9283C27.209 58.9894 28.5441 59.3056 29.7659 59.8501ZM72.9754 42.8067C73.0167 42.7708 73.0563 42.7295 73.103 42.6953C74.5692 41.5399 75.7318 40.1797 76.2655 38.5086C72.828 35.7684 68.1256 36.0685 65.0134 38.9866C63.3729 40.5193 62.6559 43.459 63.0423 45.6548C66.6288 45.6404 70.4688 45.0133 72.9754 42.8067ZM78.0534 40.7134C77.4424 41.8993 76.5817 42.9595 75.5629 43.9028C76.3679 44.7528 77.5754 45.2433 78.8224 45.5218C79.0416 43.9783 78.7559 42.1653 78.0534 40.7134ZM77.6149 47.8038C76.057 47.3708 74.6411 46.6431 73.6115 45.4859C70.9773 47.3097 67.6315 48.0015 64.23 48.1345C64.7188 56.2384 71.6403 59.2176 75.4569 54.1864C76.6518 52.6069 77.437 50.3913 77.6149 47.8038ZM68.2011 34.4441C72.6789 33.2977 75.9582 35.3821 76.0714 35.391L77.9923 34.8053C78.6697 34.6022 79.1441 33.7056 78.9338 33.0335L77.3957 27.9861C77.1567 27.1919 76.3104 26.7427 75.5162 26.9835L73.5863 27.5746C71.8344 28.1101 69.98 27.4111 69.0115 25.8586C67.7375 23.8156 66.2461 22.0025 64.4941 20.3674C63.1537 19.1149 62.8284 17.1689 63.6945 15.5481L64.6415 13.7656C65.0278 13.0379 64.7529 12.1197 64.0198 11.728L59.4359 9.28244C58.7082 8.89611 57.79 9.17104 57.4037 9.90416L56.4513 11.6867C55.5906 13.3056 53.7973 14.1268 52.0095 13.7081C49.6771 13.1691 47.3178 12.9337 44.919 13.0199C43.0844 13.081 41.4852 11.9292 40.9515 10.1773L40.3603 8.24205C40.1213 7.44783 39.2552 6.99861 38.4808 7.24299C36.851 7.78744 35.1548 8.23127 33.5142 8.76135C32.7146 9.01111 32.2708 9.85205 32.5152 10.6355L33.1009 12.5707C33.6364 14.3227 32.9374 16.1771 31.3849 17.1456C29.3419 18.4196 27.5288 19.911 25.8937 21.6629C24.6412 23.0034 22.6952 23.3286 21.0745 22.4625L19.292 21.5156C18.5642 21.1238 17.646 21.4042 17.2543 22.1319L14.807 26.7373C14.435 27.4345 14.7045 28.3563 15.4071 28.739C15.4125 28.7444 15.4538 28.7642 15.4538 28.7642L17.2166 29.7057C18.832 30.5664 19.6513 32.3489 19.2434 34.1314C20.6702 34.0236 22.1059 34.1925 23.4769 34.6453C24.3843 31.0192 26.1506 27.6627 28.6267 24.8757C35.692 16.9246 47.325 14.851 56.7173 19.8588C62.257 22.8147 66.5066 27.9556 68.2011 34.4441ZM73.412 58.7504C71.9853 59.2446 70.4166 59.2949 68.9504 58.9085L68.5425 61.3846C68.3233 62.7089 70.1112 63.1168 71.1911 63.1168V63.1222C72.2602 63.1222 74.0643 62.7089 73.8451 61.3846L73.412 58.7504ZM17.8832 42.6953C17.9245 42.7313 17.9695 42.7726 18.0054 42.8067C19.1105 43.7788 20.5372 44.503 22.2891 44.9774C23.9135 45.4212 25.7984 45.644 27.9421 45.6548C28.3284 43.459 27.6061 40.5211 25.9709 38.9866C22.7977 36.0074 18.0863 35.8241 14.7135 38.5086C15.2544 40.1797 16.4116 41.5399 17.8832 42.6953ZM15.4233 43.9028C14.3991 42.9613 13.5437 41.9011 12.9328 40.7134C12.2302 42.1653 11.9391 43.9783 12.1637 45.5218C13.4108 45.2415 14.6183 44.7528 15.4233 43.9028ZM15.5401 46.9342C14.904 47.2864 14.1798 47.5756 13.3695 47.8056C13.5473 50.3931 14.3326 52.6087 15.5293 54.1881C18.0701 57.5393 22.2119 57.4279 24.7131 54.1217C25.9871 52.4452 26.6232 50.2764 26.7508 48.1363C23.3529 48.0033 20.0071 47.3115 17.3729 45.4877C16.8752 46.0465 16.2642 46.5317 15.5401 46.9342ZM22.034 58.9085C20.5677 59.2949 18.9991 59.2446 17.5723 58.7504L17.1393 61.3846C16.762 63.6469 22.8138 63.6415 22.4419 61.3846L22.034 58.9085Z" fill="#CFA935"/>
</g>
</svg>
