<svg width="32" height="35" viewBox="0 0 32 35" fill="none" xmlns="http://www.w3.org/2000/svg">
<path d="M16.6624 18.9297L20.6366 22.9039L16.6624 26.8782M10.701 18.9297L14.6753 22.9039L10.701 26.8782M1.42783 12.306H30.5722M22.6237 7.00699V1.70801M9.37629 7.00699V1.70801M4.07732 33.5019H27.9227C28.6254 33.5019 29.2993 33.2227 29.7962 32.7259C30.2931 32.229 30.5722 31.5551 30.5722 30.8524V7.00699C30.5722 6.3043 30.2931 5.63039 29.7962 5.13351C29.2993 4.63664 28.6254 4.3575 27.9227 4.3575H4.07732C3.37463 4.3575 2.70072 4.63664 2.20384 5.13351C1.70697 5.63039 1.42783 6.3043 1.42783 7.00699V30.8524C1.42783 31.5551 1.70697 32.229 2.20384 32.7259C2.70072 33.2227 3.37463 33.5019 4.07732 33.5019Z" stroke="black" stroke-width="1.83426" stroke-linecap="round" stroke-linejoin="round"/>
</svg>
