<svg width="28" height="30" viewBox="0 0 28 30" fill="none" xmlns="http://www.w3.org/2000/svg">
<path d="M5.5 9.75C5.5 12.0043 6.39553 14.1663 7.98959 15.7604C9.58365 17.3545 11.7457 18.25 14 18.25C16.2543 18.25 18.4163 17.3545 20.0104 15.7604C21.6045 14.1663 22.5 12.0043 22.5 9.75C22.5 7.49566 21.6045 5.33365 20.0104 3.73959C18.4163 2.14553 16.2543 1.25 14 1.25C11.7457 1.25 9.58365 2.14553 7.98959 3.73959C6.39553 5.33365 5.5 7.49566 5.5 9.75Z" stroke="#CFA935" stroke-width="2" stroke-linecap="round" stroke-linejoin="round"/>
<path d="M14 18.25C15.8884 17.7782 16.8333 17.5417 16.8333 9.75C16.8333 4.55556 15.8889 1.72222 14 1.25C12.1111 1.72222 11.1667 4.55556 11.1667 9.75C11.1667 17.5417 12.1116 17.7782 14 18.25ZM14 18.25V22.5M5.5 9.75H22.5M1.25 25.3333H11.1667M11.1667 25.3333C11.1667 26.0848 11.4652 26.8054 11.9965 27.3368C12.5279 27.8682 13.2486 28.1667 14 28.1667C14.7514 28.1667 15.4721 27.8682 16.0035 27.3368C16.5348 26.8054 16.8333 26.0848 16.8333 25.3333M11.1667 25.3333C11.1667 24.5819 11.4652 23.8612 11.9965 23.3299C12.5279 22.7985 13.2486 22.5 14 22.5M16.8333 25.3333H26.75M16.8333 25.3333C16.8333 24.5819 16.5348 23.8612 16.0035 23.3299C15.4721 22.7985 14.7514 22.5 14 22.5" stroke="#CFA935" stroke-width="2" stroke-linecap="round" stroke-linejoin="round"/>
</svg>
