<svg width="32" height="32" viewBox="0 0 32 32" fill="none" xmlns="http://www.w3.org/2000/svg">
<g clip-path="url(#clip0_34715_49629)">
<path d="M3.25 15.875C3.25 16.4683 3.42595 17.0484 3.75559 17.5417C4.08524 18.0351 4.55377 18.4196 5.10195 18.6466C5.65013 18.8737 6.25333 18.9331 6.83527 18.8174C7.41721 18.7016 7.95176 18.4159 8.37132 17.9963C8.79088 17.5768 9.0766 17.0422 9.19236 16.4603C9.30811 15.8783 9.2487 15.2751 9.02164 14.7269C8.79458 14.1788 8.41006 13.7102 7.91671 13.3806C7.42336 13.0509 6.84334 12.875 6.25 12.875C5.45461 12.8759 4.69205 13.1922 4.12963 13.7546C3.56721 14.3171 3.25086 15.0796 3.25 15.875ZM6.25 13.625C6.69501 13.625 7.13002 13.757 7.50003 14.0042C7.87004 14.2514 8.15843 14.6028 8.32873 15.014C8.49903 15.4251 8.54358 15.8775 8.45677 16.314C8.36995 16.7504 8.15566 17.1513 7.84099 17.466C7.52632 17.7807 7.12541 17.9949 6.68895 18.0818C6.2525 18.1686 5.8001 18.124 5.38896 17.9537C4.97783 17.7834 4.62643 17.495 4.37919 17.125C4.13196 16.755 4 16.32 4 15.875C4.00073 15.2785 4.23801 14.7066 4.65981 14.2848C5.08161 13.863 5.65349 13.6257 6.25 13.625Z" fill="black"/>
<path d="M22.75 15.875C22.75 16.4683 22.9259 17.0484 23.2556 17.5417C23.5852 18.0351 24.0538 18.4196 24.6019 18.6466C25.1501 18.8737 25.7533 18.9331 26.3353 18.8174C26.9172 18.7016 27.4518 18.4159 27.8713 17.9963C28.2909 17.5768 28.5766 17.0422 28.6924 16.4603C28.8081 15.8783 28.7487 15.2751 28.5216 14.7269C28.2946 14.1788 27.9101 13.7102 27.4167 13.3806C26.9234 13.0509 26.3433 12.875 25.75 12.875C24.9546 12.8759 24.1921 13.1922 23.6296 13.7546C23.0672 14.3171 22.7509 15.0796 22.75 15.875ZM28 15.875C28 16.32 27.868 16.755 27.6208 17.125C27.3736 17.495 27.0222 17.7834 26.611 17.9537C26.1999 18.124 25.7475 18.1686 25.311 18.0818C24.8746 17.9949 24.4737 17.7807 24.159 17.466C23.8443 17.1513 23.6301 16.7504 23.5432 16.314C23.4564 15.8775 23.501 15.4251 23.6713 15.014C23.8416 14.6028 24.13 14.2514 24.5 14.0042C24.87 13.757 25.305 13.625 25.75 13.625C26.3465 13.6257 26.9184 13.863 27.3402 14.2848C27.762 14.7066 27.9993 15.2785 28 15.875Z" fill="black"/>
<path d="M9.64191 2.37167C9.53679 2.45611 9.45709 2.568 9.41164 2.69495C9.3662 2.8219 9.35677 2.95895 9.38441 3.09092L10.7419 9.22592C10.7975 9.47981 10.9136 9.71649 11.0804 9.91578C11.2472 10.1151 11.4598 10.2711 11.6999 10.3704C11.3598 11.0943 11.2081 11.8924 11.2587 12.6906C11.3093 13.4889 11.5606 14.2614 11.9894 14.9365C12.4182 15.6117 13.0106 16.1677 13.7115 16.5529C14.4125 16.9381 15.1993 17.1401 15.9992 17.1401C16.799 17.1401 17.5859 16.9381 18.2868 16.5529C18.9878 16.1677 19.5801 15.6117 20.0089 14.9365C20.4377 14.2614 20.689 13.4889 20.7396 12.6906C20.7903 11.8924 20.6385 11.0943 20.2984 10.3704C20.539 10.2712 20.7519 10.1151 20.919 9.91562C21.0861 9.71613 21.2024 9.47914 21.2579 9.22492L22.6172 3.08192C22.6429 2.95108 22.6323 2.81569 22.5865 2.69046C22.5407 2.56523 22.4614 2.45495 22.3573 2.37161C22.2533 2.28827 22.1283 2.23505 21.9961 2.21774C21.8639 2.20042 21.7294 2.21968 21.6074 2.27342L18.6804 3.56417L16.6249 0.474918C16.5564 0.372095 16.4636 0.287779 16.3547 0.229459C16.2458 0.17114 16.1242 0.140625 16.0007 0.140625C15.8771 0.140625 15.7555 0.17114 15.6466 0.229459C15.5377 0.287779 15.4449 0.372095 15.3764 0.474918L13.3194 3.56417L10.3927 2.27342C10.2706 2.21928 10.1359 2.19981 10.0035 2.21714C9.87106 2.23447 9.74596 2.28793 9.64191 2.37167ZM15.9999 16.3749C15.3094 16.3766 14.6302 16.199 14.0289 15.8595C13.4275 15.5201 12.9245 15.0304 12.5691 14.4384C12.2137 13.8463 12.0179 13.1722 12.0011 12.4818C11.9842 11.7915 12.1468 11.1086 12.4729 10.4999H19.5269C19.853 11.1086 20.0156 11.7915 19.9987 12.4818C19.9819 13.1722 19.7862 13.8463 19.4307 14.4384C19.0753 15.0304 18.5723 15.5201 17.971 15.8595C17.3696 16.199 16.6905 16.3766 15.9999 16.3749ZM13.7689 4.24217L15.9999 0.891168L18.2309 4.24117C18.2798 4.31467 18.3531 4.36857 18.4378 4.39335C18.5226 4.41814 18.6133 4.41223 18.6942 4.37667L21.8749 2.96292L20.5249 9.06292C20.483 9.25794 20.3753 9.43263 20.2199 9.5577C20.0645 9.68278 19.8709 9.75064 19.6714 9.74992H12.3284C12.1291 9.75069 11.9355 9.68297 11.7802 9.55809C11.6248 9.43322 11.517 9.25876 11.4749 9.06392L10.1269 2.97492L13.3057 4.37667C13.3864 4.41233 13.4771 4.41839 13.5618 4.39379C13.6465 4.36919 13.7199 4.3155 13.7689 4.24217Z" fill="black"/>
<path d="M15.4277 7.92354C15.4893 8.01938 15.574 8.09821 15.674 8.1528C15.7739 8.20739 15.886 8.236 16 8.236C16.1139 8.236 16.226 8.20739 16.3259 8.1528C16.4259 8.09821 16.5106 8.01938 16.5722 7.92354L17.5637 6.34629C17.6299 6.24154 17.6659 6.12055 17.6678 5.99665C17.6696 5.87274 17.6372 5.75073 17.5742 5.64404L16.5825 3.95829C16.522 3.85781 16.4366 3.77467 16.3345 3.71696C16.2325 3.65924 16.1172 3.62891 16 3.62891C15.8827 3.62891 15.7674 3.65924 15.6654 3.71696C15.5633 3.77467 15.4779 3.85781 15.4175 3.95829L14.425 5.64404C14.3619 5.75073 14.3295 5.87274 14.3314 5.99665C14.3332 6.12055 14.3692 6.24154 14.4355 6.34629L15.4277 7.92354ZM16 4.44729L16.905 5.98529L16 7.42504L15.095 5.98579L16 4.44729Z" fill="black"/>
<path d="M19.2308 8.02484L20.0038 7.52809C20.0944 7.46975 20.1698 7.39064 20.2237 7.29733C20.2775 7.20402 20.3084 7.09921 20.3136 6.99159L20.3573 6.07359C20.3616 5.95025 20.3321 5.82809 20.2722 5.72019C20.2123 5.61229 20.1242 5.52272 20.0173 5.46107C19.9104 5.39943 19.7887 5.36802 19.6653 5.37023C19.542 5.37243 19.4215 5.40816 19.3168 5.47359L18.5438 5.97009C18.4531 6.02829 18.3777 6.10737 18.3238 6.2007C18.2699 6.29404 18.2391 6.39893 18.2341 6.50659C18.2341 6.50659 18.2011 7.19509 18.1903 7.42459C18.1861 7.54795 18.2155 7.67014 18.2754 7.77808C18.3352 7.88601 18.4234 7.97562 18.5303 8.0373C18.6372 8.09898 18.7589 8.1304 18.8823 8.12821C19.0057 8.12601 19.1262 8.09028 19.2308 8.02484ZM18.9808 6.58009L19.6008 6.18184L19.5658 6.91784L18.9458 7.31609L18.9808 6.58009Z" fill="black"/>
<path d="M11.6862 6.99062C11.6915 7.09824 11.7223 7.20306 11.7762 7.29637C11.83 7.38968 11.9054 7.46878 11.996 7.52712L12.7692 8.02462C12.8739 8.09007 12.9943 8.12582 13.1177 8.12804C13.2411 8.13025 13.3627 8.09885 13.4696 8.03719C13.5765 7.97553 13.6646 7.88594 13.7245 7.77803C13.7844 7.67012 13.8138 7.54796 13.8095 7.42462L13.7657 6.50712C13.7607 6.39943 13.7299 6.29452 13.6761 6.20111C13.6222 6.1077 13.5469 6.02851 13.4562 5.97012L12.683 5.47212C12.5783 5.40669 12.4579 5.37097 12.3345 5.36876C12.2111 5.36656 12.0894 5.39796 11.9825 5.45961C11.8756 5.52126 11.7875 5.61083 11.7276 5.71873C11.6677 5.82662 11.6383 5.94879 11.6425 6.07212L11.6862 6.99062ZM13.0185 6.57912L13.0535 7.31512L12.4335 6.91687L12.3985 6.18087L13.0185 6.57912Z" fill="black"/>
<path d="M26.0394 19.3944C24.6382 19.3185 23.2569 19.7532 22.1517 20.6179C21.9135 20.3356 21.6567 20.0696 21.3829 19.8217C19.9002 18.5023 17.9846 17.7734 15.9999 17.7734C14.0152 17.7734 12.0996 18.5023 10.6169 19.8217C10.3432 20.0697 10.0864 20.3358 9.84817 20.6182C8.7431 19.7531 7.36174 19.3183 5.96042 19.3944C5.21437 19.4204 4.481 19.5949 3.8032 19.9077C3.12539 20.2205 2.51677 20.6653 2.01292 21.2162C-0.364833 23.9039 0.137917 28.2034 0.647417 30.5269C0.737113 30.9455 0.968174 31.3204 1.30176 31.5886C1.63534 31.8569 2.05111 32.0021 2.47917 31.9999H29.5207C29.9487 32.0021 30.3645 31.8569 30.6981 31.5886C31.0317 31.3204 31.2627 30.9455 31.3524 30.5269C31.8632 28.2034 32.3647 23.9039 29.9869 21.2162C29.4831 20.6653 28.8744 20.2205 28.1966 19.9077C27.5188 19.5949 26.7855 19.4204 26.0394 19.3944ZM2.47917 31.2499C2.22214 31.2515 1.97242 31.1644 1.77207 31.0034C1.57172 30.8424 1.43296 30.6172 1.37917 30.3659C0.992667 28.6072 0.335417 24.2434 2.57392 21.7129C3.01122 21.2371 3.539 20.8532 4.12639 20.5838C4.71379 20.3143 5.34901 20.1647 5.99492 20.1437C7.2185 20.0761 8.42473 20.457 9.38767 21.2149C7.48017 23.9272 7.27067 27.5247 7.48317 30.2649C7.51106 30.6223 7.64124 30.9642 7.85817 31.2497L2.47917 31.2499ZM23.7689 30.2069C23.7462 30.4897 23.6183 30.7538 23.4104 30.9469C23.2024 31.14 22.9297 31.2481 22.6459 31.2499H9.35392C9.07017 31.2481 8.7974 31.14 8.58948 30.9469C8.38157 30.7538 8.25362 30.4897 8.23092 30.2069C7.99242 27.1319 8.29992 22.9294 11.1202 20.3779C12.4643 19.1819 14.2008 18.5212 16 18.5212C17.7992 18.5212 19.5358 19.1819 20.8799 20.3779C23.6999 22.9294 24.0074 27.1314 23.7689 30.2069ZM30.6189 30.3659C30.5651 30.6172 30.4264 30.8424 30.226 31.0034C30.0257 31.1644 29.7759 31.2515 29.5189 31.2499H24.1412C24.3581 30.9644 24.4883 30.6226 24.5162 30.2652C24.7287 27.5247 24.5192 23.9272 22.6119 21.2152C23.5749 20.4577 24.7808 20.0769 26.0042 20.1439C26.65 20.165 27.2852 20.3146 27.8725 20.584C28.4599 20.8534 28.9876 21.2372 29.4249 21.7129C31.6637 24.2434 31.0064 28.6072 30.6199 30.3659H30.6189Z" fill="black"/>
<path d="M28.3836 3.59086L29.7924 2.18211C30.0262 1.94661 30.1579 1.62849 30.1589 1.29661C30.16 0.964732 30.0302 0.6458 29.7979 0.408857C29.5617 0.177755 29.2444 0.0483398 28.914 0.0483398C28.5836 0.0483398 28.2663 0.177755 28.0301 0.408857L26.6214 1.81761C26.5043 1.93319 26.4113 2.07073 26.3475 2.22234C26.2838 2.37395 26.2505 2.53666 26.2498 2.70113C26.249 2.86561 26.2807 3.02862 26.3431 3.18082C26.4054 3.33302 26.4972 3.47141 26.6131 3.58808C26.7291 3.70474 26.8669 3.79738 27.0187 3.86067C27.1705 3.92397 27.3333 3.95669 27.4978 3.95695C27.6623 3.9572 27.8252 3.925 27.9772 3.86218C28.1292 3.79936 28.2673 3.70716 28.3836 3.59086ZM27.1464 2.35336L28.5659 0.933607C28.6604 0.840549 28.788 0.78885 28.9206 0.789881C29.0533 0.790913 29.1801 0.844591 29.2731 0.939107C29.3662 1.03362 29.4179 1.16124 29.4168 1.29387C29.4158 1.42651 29.3621 1.5533 29.2676 1.64636L27.8479 3.06636C27.7509 3.15523 27.6235 3.20356 27.4919 3.20142C27.3604 3.19928 27.2347 3.14683 27.1406 3.05486C27.051 2.95971 27.0016 2.83364 27.0027 2.70295C27.0037 2.57226 27.0552 2.44703 27.1464 2.35336Z" fill="black"/>
<path d="M26.6161 8.67655L28.0249 10.0853C28.1406 10.2023 28.2783 10.2954 28.43 10.3591C28.5818 10.4228 28.7446 10.4559 28.9092 10.4565C29.0737 10.4571 29.2368 10.4252 29.389 10.3626C29.5413 10.3001 29.6796 10.2081 29.7962 10.0919C29.9128 9.9757 30.0052 9.83765 30.0683 9.68564C30.1314 9.53364 30.1639 9.37067 30.1638 9.20609C30.1638 9.04152 30.1312 8.87857 30.068 8.7266C30.0048 8.57464 29.9123 8.43665 29.7956 8.32055L28.3894 6.91454C28.2742 6.79577 28.1366 6.70103 27.9846 6.63583C27.8325 6.57063 27.669 6.53626 27.5036 6.53472C27.3382 6.53318 27.1741 6.5645 27.0208 6.62685C26.8676 6.68921 26.7282 6.78136 26.6109 6.89798C26.4935 7.01459 26.4005 7.15334 26.3371 7.30618C26.2738 7.45902 26.2415 7.62292 26.2419 7.78836C26.2424 7.9538 26.2758 8.1175 26.34 8.26996C26.4042 8.42243 26.4981 8.56063 26.6161 8.67655ZM27.1519 7.43329C27.2471 7.34381 27.3731 7.29447 27.5038 7.29554C27.6344 7.29661 27.7596 7.34801 27.8534 7.43904L29.2676 8.8533C29.3609 8.94879 29.4127 9.07726 29.4117 9.21075C29.4107 9.34424 29.357 9.47193 29.2624 9.56604C29.166 9.65326 29.0403 9.7011 28.9103 9.70008C28.7803 9.69906 28.6554 9.64926 28.5604 9.56054L27.1409 8.14079C27.0501 8.04473 27.0004 7.91698 27.0024 7.78481C27.0045 7.65263 27.0581 7.52649 27.1519 7.43329Z" fill="black"/>
<path d="M3.96965 0.408857C3.73349 0.177755 3.4162 0.0483398 3.08578 0.0483398C2.75535 0.0483398 2.43807 0.177755 2.2019 0.408857C1.96952 0.6458 1.8398 0.964732 1.84083 1.29661C1.84186 1.62849 1.97355 1.94661 2.2074 2.18211L3.61615 3.59086C3.73246 3.70716 3.87057 3.79936 4.02258 3.86218C4.17459 3.925 4.3375 3.9572 4.50197 3.95695C4.66645 3.95669 4.82926 3.92397 4.98107 3.86067C5.13287 3.79738 5.2707 3.70474 5.38664 3.58808C5.50258 3.47141 5.59436 3.33302 5.65671 3.18082C5.71906 3.02862 5.75076 2.86561 5.75 2.70113C5.74923 2.53666 5.71601 2.37395 5.65225 2.22234C5.58848 2.07073 5.49542 1.93319 5.3784 1.81761L3.96965 0.408857ZM4.85915 3.05486C4.76509 3.14683 4.63936 3.19928 4.50782 3.20142C4.37627 3.20356 4.24891 3.15523 4.1519 3.06636L2.73215 1.64636C2.63764 1.5533 2.58396 1.42651 2.58293 1.29387C2.58189 1.16124 2.63359 1.03362 2.72665 0.939107C2.81971 0.844591 2.9465 0.790913 3.07914 0.789881C3.21177 0.78885 3.33939 0.840549 3.4339 0.933607L4.8534 2.35336C4.94455 2.44703 4.99602 2.57226 4.9971 2.70295C4.99817 2.83364 4.94875 2.95971 4.85915 3.05486Z" fill="black"/>
<path d="M3.61038 6.91454L2.20413 8.32055C2.08748 8.43665 1.99491 8.57464 1.93173 8.7266C1.86854 8.87857 1.83599 9.04152 1.83594 9.20609C1.83588 9.37067 1.86833 9.53364 1.93142 9.68564C1.9945 9.83765 2.08698 9.9757 2.20356 10.0919C2.32013 10.2081 2.45849 10.3001 2.61071 10.3626C2.76293 10.4252 2.92601 10.4571 3.09058 10.4565C3.25516 10.4559 3.41799 10.4228 3.56974 10.3591C3.72149 10.2954 3.85917 10.2023 3.97487 10.0853L5.38363 8.67655C5.50167 8.56063 5.59553 8.42243 5.65976 8.26996C5.72399 8.1175 5.75731 7.9538 5.7578 7.78836C5.75829 7.62292 5.72593 7.45902 5.6626 7.30618C5.59927 7.15334 5.50623 7.01459 5.38887 6.89798C5.27152 6.78136 5.13218 6.68921 4.97894 6.62685C4.82569 6.5645 4.6616 6.53318 4.49616 6.53472C4.33073 6.53626 4.16724 6.57063 4.01519 6.63583C3.86314 6.70103 3.72554 6.79577 3.61038 6.91454ZM4.85888 8.14079L3.43938 9.56054C3.34434 9.64926 3.21945 9.69906 3.08945 9.70008C2.95944 9.7011 2.83379 9.65326 2.73737 9.56604C2.64271 9.47193 2.58904 9.34424 2.58806 9.21075C2.58707 9.07726 2.63885 8.94879 2.73212 8.8533L4.14638 7.43904C4.23943 7.34456 4.36621 7.29091 4.49882 7.28991C4.63144 7.2889 4.75902 7.34061 4.8535 7.43367C4.94798 7.52673 5.00163 7.65351 5.00264 7.78612C5.00365 7.91873 4.95193 8.04631 4.85888 8.14079Z" fill="black"/>
</g>
<defs>
<clipPath id="clip0_34715_49629">
<rect width="32" height="32" fill="white"/>
</clipPath>
</defs>
</svg>
