<svg width="36" height="33" viewBox="0 0 36 33" fill="none" xmlns="http://www.w3.org/2000/svg">
<path d="M17.8854 15.5462C20.9783 15.5462 23.3838 13.0262 23.3838 9.93338C23.3838 6.84057 20.8637 4.43506 17.7709 4.43506C14.6781 4.43506 12.2726 6.95512 12.2726 9.93338C12.2726 13.0262 14.7926 15.5462 17.8854 15.5462ZM17.7709 6.72602C17.8854 6.72602 17.8854 6.72602 17.7709 6.72602C19.6037 6.72602 21.0928 8.21515 21.0928 10.0479C21.0928 11.8807 19.6037 13.2553 17.7709 13.2553C15.9381 13.2553 14.5635 11.7661 14.5635 10.0479C14.5635 8.21515 16.0527 6.72602 17.7709 6.72602Z" fill="black"/>
<path d="M34.8386 14.8589C32.6622 12.9116 29.7985 11.8806 26.8202 11.9952H25.9038C25.6747 12.9116 25.3311 13.7134 24.8729 14.4007C25.5602 14.2862 26.1329 14.2862 26.8202 14.2862C28.9966 14.1716 31.173 14.8589 32.8913 16.1189V24.3664H35.1822V15.2025L34.8386 14.8589Z" fill="black"/>
<path d="M24.1856 4.66422C24.7583 3.28964 26.362 2.60235 27.8511 3.17509C29.2257 3.74783 29.913 5.35151 29.3403 6.84064C28.8821 7.87157 27.8511 8.55886 26.8202 8.55886C26.5911 8.55886 26.2475 8.55886 26.0184 8.44431C26.1329 9.01706 26.1329 9.5898 26.1329 10.048V10.7353C26.362 10.7353 26.5911 10.8498 26.8202 10.8498C29.6839 10.8498 31.9749 8.55886 31.9749 5.8097C31.9749 2.946 29.6839 0.655029 26.9347 0.655029C25.102 0.655029 23.4983 1.57142 22.5819 3.17509C23.1547 3.51874 23.7274 3.97693 24.1856 4.66422Z" fill="black"/>
<path d="M11.1271 14.5155C10.6689 13.8282 10.3253 13.0263 10.0962 12.11H9.17977C6.20152 11.9954 3.33781 13.0263 1.16139 14.8591L0.817749 15.2028V24.3666H3.10871V16.1191C4.94149 14.8591 7.00336 14.1718 9.17977 14.2864C9.86706 14.2864 10.5544 14.4009 11.1271 14.5155Z" fill="black"/>
<path d="M9.17979 10.7355C9.40889 10.7355 9.63799 10.7355 9.86708 10.6209V9.93364C9.86708 9.3609 9.86708 8.78816 9.98163 8.32997C9.75253 8.44452 9.40889 8.44452 9.17979 8.44452C7.69067 8.44452 6.43063 7.18448 6.43063 5.69536C6.43063 4.20623 7.69067 2.9462 9.17979 2.9462C10.3253 2.9462 11.3562 3.63349 11.8144 4.66442C12.2726 4.09168 12.9599 3.51894 13.5326 3.06075C12.0435 0.655233 8.9507 -0.146605 6.54518 1.34252C4.13967 2.83165 3.33783 5.92445 4.82696 8.32997C5.74335 9.8191 7.34702 10.7355 9.17979 10.7355Z" fill="black"/>
<path d="M27.2784 21.732L27.0493 21.3884C24.7583 18.8683 21.551 17.3792 18.1145 17.4937C14.6781 17.3792 11.3562 18.8683 9.06522 21.3884L8.83612 21.732V30.4377C8.83612 31.4686 9.63796 32.385 10.7834 32.385H25.4456C26.4766 32.385 27.3929 31.4686 27.3929 30.4377V21.732H27.2784ZM24.9874 30.094H11.1271V22.5338C12.9599 20.7011 15.4799 19.7847 18.1145 19.7847C20.6346 19.6701 23.1547 20.7011 24.9874 22.5338V30.094Z" fill="black"/>
</svg>
