<svg width="72" height="72" viewBox="0 0 72 72" fill="none" xmlns="http://www.w3.org/2000/svg">
<g id="Frame">
<g id="Group">
<path id="Vector" d="M12.375 53.5781C12.1139 53.5781 11.8635 53.6818 11.6789 53.8664C11.4943 54.051 11.3906 54.3014 11.3906 54.5625V68.0625C11.3906 68.3236 11.4943 68.574 11.6789 68.7586C11.8635 68.9432 12.1139 69.0469 12.375 69.0469C12.6361 69.0469 12.8865 68.9432 13.0711 68.7586C13.2557 68.574 13.3594 68.3236 13.3594 68.0625V54.5625C13.3594 54.3014 13.2557 54.051 13.0711 53.8664C12.8865 53.6818 12.6361 53.5781 12.375 53.5781Z" fill="black"/>
<path id="Vector_2" d="M68.0625 45.7605H58.0855V44.5652C58.0843 43.5586 57.6839 42.5935 56.9721 41.8817C56.2603 41.1699 55.2952 40.7695 54.2886 40.7683H49.5C48.8803 40.7685 48.2701 40.9204 47.7226 41.2109C47.1752 41.5013 46.7072 41.9214 46.3596 42.4344C45.7754 41.562 45.0193 40.818 44.1374 40.2481C43.2556 39.6782 42.2667 39.2944 41.2313 39.1202L30.4144 37.2808V34.1308C30.6191 34.011 30.8211 33.8861 31.0185 33.7517C34.4931 31.3757 36.4376 28.1419 36.6823 24.3607L38.1448 24.0846C38.8847 23.9436 39.5523 23.5492 40.0327 22.9691C40.5131 22.389 40.7762 21.6596 40.7768 20.9064V19.2246C40.7747 18.5741 40.535 17.9468 40.1026 17.4609C39.6703 16.9749 39.0752 16.6637 38.4295 16.5859V11.6106C38.4269 9.31486 37.5137 7.11393 35.8902 5.49083C34.2666 3.86773 32.0655 2.95506 29.7698 2.95312H23.4135C22.4748 2.95449 21.5502 3.18191 20.718 3.61614C19.8858 4.05037 19.1704 4.67864 18.6323 5.44781L17.7525 5.57212C16.213 5.79679 14.8053 6.56644 13.7852 7.74114C12.7651 8.91585 12.2005 10.4176 12.1939 11.9734V16.5859C11.5482 16.6638 10.9533 16.9751 10.5211 17.461C10.0889 17.947 9.84918 18.5742 9.84714 19.2246V20.9064C9.84752 21.6597 10.1106 22.3893 10.5912 22.9695C11.0717 23.5496 11.7396 23.944 12.4796 24.0846L13.9388 24.3607C14.1835 28.1419 16.128 31.3757 19.6026 33.7545C19.8 33.8889 20.002 34.0144 20.2067 34.1336V37.2836L9.39377 39.1202C7.59108 39.4219 5.9541 40.3539 4.77455 41.7501C3.595 43.1463 2.94952 44.916 2.95314 46.7437V68.0625C2.95314 68.3236 3.05685 68.574 3.24146 68.7586C3.42606 68.9432 3.67644 69.0469 3.93752 69.0469C4.19859 69.0469 4.44897 68.9432 4.63357 68.7586C4.81818 68.574 4.92189 68.3236 4.92189 68.0625V46.7437C4.91952 45.3818 5.4006 44.0633 6.27948 43.0229C7.15836 41.9825 8.37797 41.2878 9.72114 41.0625L16.1196 39.9746L19.4383 47.1982C19.5016 47.3357 19.5956 47.4567 19.7131 47.5519C19.8307 47.6471 19.9686 47.7139 20.1161 47.7473C20.1872 47.7634 20.2598 47.7715 20.3327 47.7714C20.5634 47.7714 20.7868 47.6904 20.9638 47.5425L21.7862 46.8563L22.6153 48.6562L20.3974 67.95C20.3826 68.0784 20.3932 68.2085 20.4287 68.3328C20.4641 68.4571 20.5237 68.5732 20.6041 68.6745C20.6844 68.7758 20.7839 68.8603 20.8969 68.9231C21.0098 68.9859 21.1341 69.0259 21.2625 69.0407C21.2999 69.0449 21.3374 69.047 21.375 69.0469C21.6164 69.0465 21.8492 68.9575 22.0292 68.7968C22.2092 68.636 22.3239 68.4148 22.3515 68.175L24.5025 49.4837H26.1225L28.2724 68.175C28.2872 68.3034 28.3271 68.4276 28.3899 68.5406C28.4526 68.6535 28.5371 68.753 28.6383 68.8333C28.7395 68.9137 28.8556 68.9733 28.9798 69.0088C29.1041 69.0442 29.2341 69.0549 29.3625 69.0401C29.4909 69.0254 29.6151 68.9854 29.7281 68.9227C29.841 68.8599 29.9405 68.7755 30.0208 68.6742C30.1012 68.573 30.1608 68.4569 30.1963 68.3327C30.2318 68.2084 30.2424 68.0784 30.2276 67.95L28.0125 48.6602L28.8416 46.8602L29.6612 47.5442C29.7772 47.6412 29.9141 47.7101 30.0611 47.7456C30.208 47.7811 30.3612 47.7823 30.5088 47.749C30.6563 47.7157 30.7941 47.6488 30.9116 47.5536C31.0291 47.4584 31.123 47.3374 31.1861 47.1999L34.5077 39.9763L40.9039 41.0625C42.08 41.26 43.1655 41.8184 44.0101 42.6604C44.8547 43.5024 45.4165 44.5862 45.6176 45.7616H35.7261C35.465 45.7616 35.2146 45.8653 35.03 46.0499C34.8454 46.2345 34.7417 46.4849 34.7417 46.746V66.096C34.7426 66.8789 35.054 67.6296 35.6076 68.1832C36.1613 68.7368 36.9119 69.0482 37.6948 69.0491H66.0938C66.8767 69.0482 67.6273 68.7368 68.181 68.1832C68.7346 67.6296 69.046 66.8789 69.0469 66.096V46.7437C69.0466 46.4829 68.9428 46.2328 68.7582 46.0484C68.5736 45.8641 68.3234 45.7605 68.0625 45.7605ZM38.8052 19.2234V20.9053C38.805 21.2001 38.7021 21.4855 38.5141 21.7125C38.3261 21.9396 38.0648 22.0939 37.7753 22.149L36.7105 22.3504V18.5203H38.1021C38.2885 18.5205 38.4673 18.5946 38.5991 18.7264C38.7309 18.8582 38.8051 19.037 38.8052 19.2234ZM18.0326 7.52344L19.3601 7.33556C19.508 7.31443 19.6491 7.26001 19.7728 7.17641C19.8966 7.09281 19.9997 6.9822 20.0745 6.85294C20.4141 6.26713 20.9014 5.78066 21.4878 5.4421C22.0742 5.10355 22.7392 4.92475 23.4163 4.92356H29.7726C31.546 4.92505 33.2464 5.63025 34.5003 6.88431C35.7543 8.13838 36.4594 9.83881 36.4607 11.6122V16.5532H36.0416L33.7061 14.9062V12.3525C33.7062 12.208 33.6744 12.0652 33.613 11.9343C33.5517 11.8034 33.4622 11.6877 33.3511 11.5953C33.2399 11.5029 33.1098 11.4361 32.9699 11.3996C32.8301 11.3632 32.6839 11.358 32.5418 11.3844C30.1543 11.8162 27.7377 12.067 25.3125 12.1348C22.8871 12.0666 20.4703 11.8154 18.0827 11.3833C17.9406 11.357 17.7945 11.3622 17.6547 11.3987C17.5149 11.4352 17.3848 11.502 17.2738 11.5944C17.1627 11.6868 17.0733 11.8025 17.012 11.9333C16.9506 12.0642 16.9189 12.2069 16.9189 12.3514V14.9062L14.5862 16.5527H14.1666V11.9734C14.171 10.8913 14.5637 9.84685 15.2732 9.02988C15.9827 8.21292 16.9619 7.67776 18.0326 7.52175V7.52344ZM11.8198 20.9053V19.2234C11.82 19.037 11.8941 18.8582 12.0259 18.7264C12.1578 18.5946 12.3365 18.5205 12.523 18.5203H13.9146V22.3504L12.8503 22.149C12.5607 22.094 12.2993 21.9397 12.1112 21.7127C11.9231 21.4857 11.82 21.2001 11.8198 20.9053ZM15.8833 23.5389V18.0461L18.4708 16.2191C18.5995 16.1282 18.7044 16.0078 18.7768 15.8679C18.8493 15.728 18.8871 15.5728 18.8871 15.4153V13.5146C21.0121 13.8639 23.1594 14.0607 25.3125 14.1036C27.4654 14.0607 29.6125 13.8639 31.7374 13.5146V15.4153C31.7374 15.5728 31.7752 15.728 31.8476 15.8679C31.9201 16.0078 32.025 16.1282 32.1536 16.2191L34.7411 18.0461V23.5389C34.7411 27.0433 33.1144 29.9317 29.907 32.1249C28.5506 33.0435 26.9501 33.5344 25.312 33.5344C23.6738 33.5344 22.0733 33.0435 20.7169 32.1249C17.5101 29.9317 15.8833 27.0433 15.8833 23.5389ZM25.3125 35.4999C26.3763 35.4986 27.4334 35.3312 28.4456 35.0038V37.7314L25.3125 41.1688L22.1794 37.7314V35.0044C23.1917 35.3314 24.2487 35.4986 25.3125 35.4999ZM20.6921 45.2053L18.1294 39.6315L20.8294 39.1725L23.8922 42.5329L20.6921 45.2053ZM26.3695 47.5149H24.2556L23.3522 45.5496L25.3125 43.9121L27.2728 45.5496L26.3695 47.5149ZM29.9329 45.2053L26.7323 42.5329L29.7951 39.1725L32.4951 39.6315L29.9329 45.2053ZM49.5 42.7371H54.2886C54.7732 42.7377 55.2379 42.9305 55.5806 43.2732C55.9233 43.6159 56.1161 44.0805 56.1167 44.5652V45.7605H47.6719V44.5652C47.6725 44.0805 47.8653 43.6159 48.208 43.2732C48.5507 42.9305 49.0154 42.7377 49.5 42.7371ZM67.0781 47.7292V53.7362L51.8946 56.4041L36.7105 53.7362V47.7292H67.0781ZM66.0938 67.0792H37.6948C37.4338 67.0789 37.1836 66.9751 36.9991 66.7906C36.8146 66.6061 36.7108 66.3559 36.7105 66.0949V55.7347L51.7241 58.3734C51.8369 58.3929 51.9522 58.3929 52.065 58.3734L67.0781 55.7347V66.0938C67.0778 66.3547 66.974 66.6049 66.7895 66.7895C66.605 66.974 66.3547 67.0778 66.0938 67.0781V67.0792Z" fill="black"/>
</g>
</g>
</svg>
