<svg width="49" height="48" viewBox="0 0 49 48" fill="none" xmlns="http://www.w3.org/2000/svg">
<g clip-path="url(#clip0_34704_49491)">
<path d="M40.4227 13.0163L42.5377 15.1275C42.7104 15.3068 42.9171 15.45 43.1458 15.5485C43.3744 15.6471 43.6203 15.6992 43.8693 15.7017C44.1182 15.7042 44.3652 15.6571 44.5957 15.5632C44.8263 15.4692 45.0358 15.3303 45.2121 15.1545C45.3884 14.9787 45.5279 14.7696 45.6225 14.5393C45.7171 14.309 45.7649 14.0622 45.7631 13.8132C45.7613 13.5642 45.7099 13.3181 45.612 13.0892C45.5141 12.8604 45.3716 12.6533 45.1927 12.48L43.0852 10.3725C42.9116 10.1977 42.7053 10.0588 42.478 9.96371C42.2508 9.86863 42.007 9.81924 41.7606 9.81837C41.5142 9.8175 41.2701 9.86516 41.0422 9.95864C40.8142 10.0521 40.6069 10.1896 40.4321 10.3632C40.2573 10.5368 40.1184 10.7431 40.0233 10.9704C39.9282 11.1976 39.8788 11.4414 39.8779 11.6878C39.8771 11.9342 39.9247 12.1783 40.0182 12.4062C40.1117 12.6342 40.2491 12.8415 40.4227 13.0163Z" fill="#CFA935"/>
<path d="M43.0776 5.38507L45.1888 3.27382C45.5403 2.9211 45.7382 2.44389 45.7396 1.94599C45.741 1.44809 45.5458 0.969771 45.1963 0.615072C44.8423 0.268086 44.3664 0.0737305 43.8707 0.0737305C43.375 0.0737305 42.8991 0.268086 42.5451 0.615072L40.4338 2.72632C40.2543 2.89879 40.111 3.10528 40.0121 3.33375C39.9132 3.56221 39.8609 3.80807 39.858 4.05699C39.8552 4.3059 39.902 4.5529 39.9956 4.78355C40.0892 5.01421 40.2278 5.22392 40.4033 5.40044C40.5789 5.57696 40.7878 5.71676 41.0179 5.81168C41.248 5.90661 41.4948 5.95477 41.7437 5.95333C41.9926 5.9519 42.2388 5.90092 42.4678 5.80336C42.6968 5.70579 42.9041 5.5636 43.0776 5.38507Z" fill="#CFA935"/>
<path d="M6.45502 0.615072C6.10102 0.268086 5.62508 0.0737305 5.12939 0.0737305C4.6337 0.0737305 4.15776 0.268086 3.80377 0.615072C3.45434 0.969771 3.2591 1.44809 3.26051 1.94599C3.26191 2.44389 3.45985 2.9211 3.81127 3.27382L5.92252 5.38507C6.096 5.5636 6.3033 5.70579 6.53231 5.80336C6.76133 5.90092 7.00749 5.9519 7.25642 5.95333C7.50535 5.95477 7.75207 5.90661 7.98219 5.81168C8.21232 5.71676 8.42123 5.57696 8.59676 5.40044C8.77228 5.22392 8.9109 5.01421 9.00452 4.78355C9.09815 4.5529 9.1449 4.3059 9.14207 4.05699C9.13923 3.80807 9.08685 3.56221 8.98799 3.33375C8.88913 3.10528 8.74577 2.89879 8.56627 2.72632L6.45502 0.615072Z" fill="#CFA935"/>
<path d="M5.91499 10.3725L3.80749 12.48C3.62867 12.6533 3.48614 12.8604 3.38821 13.0892C3.29028 13.3181 3.23891 13.5642 3.23711 13.8132C3.23531 14.0622 3.2831 14.309 3.3777 14.5393C3.4723 14.7695 3.61182 14.9787 3.78811 15.1545C3.9644 15.3303 4.17394 15.4692 4.40449 15.5632C4.63505 15.6571 4.882 15.7042 5.13095 15.7017C5.3799 15.6992 5.62586 15.6471 5.85447 15.5485C6.08309 15.45 6.28978 15.3068 6.46249 15.1275L8.57749 13.0163C8.92808 12.6632 9.12404 12.1853 9.12228 11.6878C9.12053 11.1902 8.92119 10.7137 8.56812 10.3632C8.21505 10.0126 7.73717 9.81661 7.23961 9.81837C6.74206 9.82013 6.26557 10.0195 5.91499 10.3725Z" fill="#CFA935"/>
<path d="M14.9631 3.55767C14.8047 3.68373 14.6846 3.8515 14.6164 4.04211C14.5481 4.23272 14.5345 4.43859 14.5769 4.63655C15.061 6.9428 16.6131 13.839 16.6131 13.839C16.7305 14.3822 17.031 14.8684 17.4643 15.2164C17.8975 15.5643 18.4372 15.7527 18.9929 15.75H30.0074C30.5632 15.7526 31.1031 15.564 31.5364 15.2158C31.9697 14.8676 32.27 14.3809 32.3871 13.8376C32.3871 13.8376 33.9415 6.93192 34.426 4.62305C34.4646 4.4268 34.4487 4.22371 34.38 4.03587C34.3113 3.84802 34.1924 3.6826 34.0363 3.55759C33.8801 3.43257 33.6927 3.35274 33.4944 3.32677C33.2961 3.30081 33.0944 3.3297 32.9114 3.4103C31.8138 3.8948 28.5209 5.34642 28.5209 5.34642L25.4376 0.71255C25.3338 0.559879 25.1942 0.434919 25.031 0.348554C24.8678 0.26219 24.6859 0.217041 24.5013 0.217041C24.3166 0.217041 24.1348 0.26219 23.9716 0.348554C23.8084 0.434919 23.6687 0.559879 23.5649 0.71255L20.4794 5.34642C20.4794 5.34642 17.1876 3.8948 16.0893 3.4103C15.9061 3.32909 15.7041 3.29988 15.5055 3.32588C15.3069 3.35187 15.1192 3.43207 14.9631 3.55767ZM28.4133 9.7853C28.4166 9.71344 28.4371 9.64341 28.473 9.5811C28.509 9.51879 28.5593 9.46601 28.6199 9.42717L29.7798 8.68205C29.8494 8.63685 29.9301 8.61177 30.0131 8.60959C30.096 8.60741 30.178 8.62821 30.2498 8.6697C30.3217 8.71119 30.3807 8.77174 30.4203 8.84467C30.4599 8.91759 30.4786 9.00005 30.4743 9.08292L30.409 10.4599C30.4057 10.5318 30.3851 10.6019 30.3491 10.6642C30.3131 10.7265 30.2626 10.7793 30.202 10.818L29.0425 11.5632C28.9729 11.6085 28.8921 11.6337 28.809 11.6359C28.726 11.6381 28.6439 11.6173 28.572 11.5758C28.5 11.5342 28.441 11.4735 28.4014 11.4005C28.3618 11.3275 28.3432 11.2449 28.3476 11.1619L28.4133 9.7853ZM22.6251 8.75105L24.1128 6.22242C24.1524 6.15441 24.2091 6.09797 24.2774 6.05874C24.3456 6.01951 24.4229 5.99887 24.5016 5.99887C24.5803 5.99887 24.6577 6.01951 24.7259 6.05874C24.7941 6.09797 24.8509 6.15441 24.8905 6.22242L26.3751 8.75105C26.4172 8.82234 26.4388 8.90385 26.4375 8.98661C26.4363 9.06938 26.4122 9.1502 26.368 9.22017L24.8823 11.5875C24.8419 11.6525 24.7856 11.7061 24.7187 11.7432C24.6518 11.7804 24.5766 11.7999 24.5001 11.7999C24.4236 11.7999 24.3484 11.7804 24.2816 11.7432C24.2147 11.7061 24.1584 11.6525 24.118 11.5875L22.6308 9.22167C22.5865 9.15139 22.5625 9.07022 22.5615 8.98716C22.5605 8.90409 22.5825 8.82237 22.6251 8.75105ZM19.222 8.68205L20.3819 9.42717C20.4424 9.46601 20.4928 9.51879 20.5288 9.5811C20.5647 9.64341 20.5852 9.71344 20.5885 9.7853L20.6541 11.1619C20.6586 11.2449 20.64 11.3275 20.6004 11.4005C20.5608 11.4735 20.5018 11.5342 20.4298 11.5758C20.3579 11.6173 20.2758 11.6381 20.1928 11.6359C20.1097 11.6337 20.0289 11.6085 19.9593 11.5632L18.8001 10.818C18.7395 10.7793 18.6891 10.7265 18.653 10.6642C18.617 10.6019 18.5965 10.5318 18.5931 10.4599L18.5279 9.08292C18.5238 9.00034 18.5425 8.91823 18.5821 8.8456C18.6216 8.77297 18.6804 8.71264 18.7519 8.67122C18.8235 8.6298 18.9051 8.6089 18.9877 8.61081C19.0704 8.61272 19.1509 8.63737 19.2205 8.68205H19.222Z" fill="#CFA935"/>
<path d="M30.8176 16.7811C30.5519 16.8426 30.28 16.8742 30.0072 16.8752H18.9927C18.72 16.8742 18.4481 16.8426 18.1824 16.7811C18.1087 16.7647 18.0326 16.7632 17.9584 16.7767C17.8841 16.7902 17.8134 16.8184 17.7502 16.8597C17.6871 16.901 17.6328 16.9545 17.5907 17.017C17.5485 17.0796 17.5193 17.1499 17.5047 17.2239C17.3052 18.2552 17.3361 19.3178 17.5954 20.3357C17.8546 21.3537 18.3356 22.3017 19.0041 23.1119C19.6726 23.9221 20.5119 24.5745 21.4621 25.0224C22.4122 25.4702 23.4496 25.7025 24.5 25.7025C25.5504 25.7025 26.5878 25.4702 27.5379 25.0224C28.4881 24.5745 29.3274 23.9221 29.9959 23.1119C30.6644 22.3017 31.1454 21.3537 31.4046 20.3357C31.6639 19.3178 31.6948 18.2552 31.4952 17.2239C31.4807 17.1499 31.4515 17.0796 31.4093 17.017C31.3672 16.9545 31.3129 16.901 31.2498 16.8597C31.1866 16.8184 31.1159 16.7902 31.0416 16.7767C30.9674 16.7632 30.8913 16.7647 30.8176 16.7811Z" fill="#CFA935"/>
<path d="M1.47131 45.7905C1.60585 46.4183 1.95244 46.9807 2.45282 47.3831C2.9532 47.7855 3.57685 48.0033 4.21893 48H10.6442C10.7429 47.9991 10.8396 47.9724 10.9248 47.9226C11.01 47.8729 11.0807 47.8017 11.1299 47.7162C11.1792 47.6307 11.2053 47.5338 11.2056 47.4351C11.2059 47.3365 11.1804 47.2394 11.1317 47.1536C10.8318 46.6445 10.6523 46.0736 10.6067 45.4845C10.1353 39.4065 11.2899 34.3294 13.9461 30.8044C13.9953 30.7377 14.0294 30.6611 14.0459 30.5798C14.0623 30.4986 14.0607 30.4147 14.0413 30.3342C14.0218 30.2536 13.9848 30.1783 13.9331 30.1136C13.8813 30.0488 13.816 29.9962 13.7417 29.9595C10.2639 28.2769 5.96643 29.0614 3.52293 31.8244C-0.0470671 35.856 0.705183 42.3052 1.47131 45.7905Z" fill="#CFA935"/>
<path d="M35.2626 29.9595C35.1882 29.9961 35.1228 30.0486 35.071 30.1134C35.0191 30.1781 34.9821 30.2534 34.9626 30.3341C34.9431 30.4147 34.9416 30.4986 34.9581 30.5798C34.9746 30.6611 35.0088 30.7377 35.0582 30.8043C37.7144 34.3293 38.869 39.4061 38.3957 45.4845C38.3502 46.0736 38.1706 46.6445 37.8707 47.1536C37.822 47.2394 37.7966 47.3364 37.7969 47.4351C37.7972 47.5338 37.8232 47.6307 37.8725 47.7162C37.9217 47.8017 37.9925 47.8728 38.0777 47.9226C38.1629 47.9724 38.2596 47.999 38.3582 48H44.7835C45.4256 48.0033 46.0492 47.7854 46.5496 47.3831C47.05 46.9807 47.3966 46.4183 47.5311 45.7905C48.2972 42.3052 49.0495 35.856 45.4829 31.8243C43.0367 29.0625 38.7385 28.2768 35.2626 29.9595Z" fill="#CFA935"/>
<path d="M11.7251 45.398C11.7823 46.1042 12.1022 46.7633 12.6218 47.2451C13.1413 47.7269 13.8227 47.9963 14.5312 48.0001H34.4692C35.1778 47.9963 35.8591 47.7269 36.3787 47.2451C36.8982 46.7633 37.2182 46.1042 37.2754 45.398C37.6526 40.5331 37.1437 33.8667 32.5747 29.7327C30.3507 27.7537 27.4773 26.6604 24.5002 26.6604C21.5232 26.6604 18.6498 27.7537 16.4257 29.7327C11.8567 33.8667 11.3479 40.5331 11.7251 45.398Z" fill="#CFA935"/>
<path d="M9.875 28.3125C12.3603 28.3125 14.375 26.2978 14.375 23.8125C14.375 21.3272 12.3603 19.3125 9.875 19.3125C7.38972 19.3125 5.375 21.3272 5.375 23.8125C5.375 26.2978 7.38972 28.3125 9.875 28.3125Z" fill="#CFA935"/>
<path d="M39.125 28.3125C41.6103 28.3125 43.625 26.2978 43.625 23.8125C43.625 21.3272 41.6103 19.3125 39.125 19.3125C36.6397 19.3125 34.625 21.3272 34.625 23.8125C34.625 26.2978 36.6397 28.3125 39.125 28.3125Z" fill="#CFA935"/>
</g>
<defs>
<clipPath id="clip0_34704_49491">
<rect width="48" height="48" fill="white" transform="translate(0.5)"/>
</clipPath>
</defs>
</svg>
