<svg width="34" height="35" viewBox="0 0 34 35" fill="none" xmlns="http://www.w3.org/2000/svg">
<g id="Pdf" clip-path="url(#clip0_16720_19376)">
<path id="Vector" d="M24.6406 30.4492H5.38281C5.01605 30.4492 4.71875 30.1521 4.71875 29.7854V1.23067C4.71875 0.863906 5.01605 0.566406 5.38281 0.566406H19.9922C20.1683 0.566406 20.3372 0.636465 20.4617 0.760977L25.1102 5.40948C25.2347 5.53399 25.3047 5.70293 25.3047 5.87911V13.8479C25.3047 14.2146 25.0074 14.5119 24.6406 14.5119C24.2739 14.5119 23.9766 14.2146 23.9766 13.8479V6.15416L19.7171 1.89453H6.04688V29.1211H23.9766V25.801C23.9766 25.4343 24.2739 25.1369 24.6406 25.1369C25.0074 25.1369 25.3047 25.4343 25.3047 25.801V29.7854C25.3047 30.1521 25.0074 30.4492 24.6406 30.4492Z" fill="#FDF9F0"/>
<path id="Vector_2" d="M19.9922 34.4334H1.39844C1.03168 34.4334 0.734375 34.1362 0.734375 33.7695V6.54297C0.734375 6.17614 1.03168 5.87871 1.39844 5.87871H5.38281C5.74957 5.87871 6.04688 6.17601 6.04688 6.54277C6.04688 6.90953 5.74957 7.20683 5.38281 7.20683H2.0625V33.1053H19.3281V29.7852C19.3281 29.4185 19.6254 29.1211 19.9922 29.1211C20.3589 29.1211 20.6562 29.4185 20.6562 29.7852V33.7695C20.6562 34.1362 20.3589 34.4334 19.9922 34.4334ZM24.6406 6.54277H19.9922C19.6254 6.54277 19.3281 6.2456 19.3281 5.87891V1.23047C19.3281 0.863707 19.6254 0.566406 19.9922 0.566406C20.3589 0.566406 20.6562 0.863707 20.6562 1.23047V5.21465H24.6406C25.0074 5.21465 25.3047 5.51195 25.3047 5.87871C25.3047 6.24547 25.0074 6.54277 24.6406 6.54277Z" fill="#FDF9F0"/>
<path id="Vector_3" d="M32.6094 26.4648H12.0234C11.6567 26.4648 11.3594 26.1675 11.3594 25.8008V13.8477C11.3594 13.4809 11.6567 13.1836 12.0234 13.1836H32.6094C32.9761 13.1836 33.2734 13.4809 33.2734 13.8477V25.8008C33.2734 26.1675 32.9761 26.4648 32.6094 26.4648ZM12.6875 25.1367H31.9453V14.5117H12.6875V25.1367Z" fill="#CFA935"/>
<path id="Vector_4" d="M14.6797 23.8088C14.3129 23.8088 14.0156 23.5114 14.0156 23.1447V16.5041C14.0156 16.1373 14.3129 15.84 14.6797 15.84H16.3398C17.6214 15.84 18.6641 16.8827 18.6641 18.1643C18.6641 19.4458 17.6214 20.4885 16.3398 20.4885H15.3438V23.1447C15.3438 23.5114 15.0464 23.8088 14.6797 23.8088ZM15.3438 19.1604H16.3398C16.8891 19.1604 17.3359 18.7135 17.3359 18.1643C17.3359 17.6149 16.8891 17.1682 16.3398 17.1682H15.3438V19.1604ZM21.7852 23.8088H20.6562C20.2895 23.8088 19.9922 23.5114 19.9922 23.1447V16.5041C19.9922 16.1373 20.2895 15.84 20.6562 15.84H21.7852C23.7258 15.84 25.3047 17.4189 25.3047 19.3596V20.2893C25.3047 22.2299 23.7258 23.8088 21.7852 23.8088ZM21.3203 22.4807H21.7852C22.9935 22.4807 23.9766 21.4976 23.9766 20.2893V19.3596C23.9766 18.1512 22.9935 17.1682 21.7852 17.1682H21.3203V22.4807ZM27.2969 23.8088C26.9301 23.8088 26.6328 23.5114 26.6328 23.1447V16.5041C26.6328 16.1373 26.9301 15.8398 27.2969 15.8398H29.9531C30.3199 15.8398 30.6172 16.1371 30.6172 16.5039C30.6172 16.8707 30.3199 17.168 29.9531 17.168H27.9609V23.1447C27.9609 23.5114 27.6636 23.8088 27.2969 23.8088Z" fill="#CFA935"/>
<path id="Vector_5" d="M29.2812 20.4883H27.2891C26.9223 20.4883 26.625 20.1909 26.625 19.8242C26.625 19.4575 26.9223 19.1602 27.2891 19.1602H29.2812C29.648 19.1602 29.9453 19.4575 29.9453 19.8242C29.9453 20.1909 29.648 20.4883 29.2812 20.4883Z" fill="#CFA935"/>
<path id="Vector_6" d="M21.9844 11.8555H8.03906C7.6723 11.8555 7.375 11.5582 7.375 11.1914C7.375 10.8246 7.6723 10.5273 8.03906 10.5273H21.9844C22.3511 10.5273 22.6484 10.8246 22.6484 11.1914C22.6484 11.5582 22.3511 11.8555 21.9844 11.8555ZM21.9844 9.19922H8.03906C7.6723 9.19922 7.375 8.90192 7.375 8.53516C7.375 8.16839 7.6723 7.87109 8.03906 7.87109H21.9844C22.3511 7.87109 22.6484 8.16839 22.6484 8.53516C22.6484 8.90192 22.3511 9.19922 21.9844 9.19922ZM14.6797 6.54297H8.03906C7.6723 6.54297 7.375 6.24567 7.375 5.87891C7.375 5.51214 7.6723 5.21484 8.03906 5.21484H14.6797C15.0464 5.21484 15.3438 5.51214 15.3438 5.87891C15.3438 6.24567 15.0464 6.54297 14.6797 6.54297Z" fill="#FDF9F0"/>
</g>
<defs>
<clipPath id="clip0_16720_19376">
<rect width="34" height="34" fill="white" transform="translate(0 0.5)"/>
</clipPath>
</defs>
</svg>
