<svg width="95" height="97" viewBox="0 0 95 97" fill="none" xmlns="http://www.w3.org/2000/svg">
<g filter="url(#filter0_d_19983_37105)">
<path fill-rule="evenodd" clip-rule="evenodd" d="M81.7039 50.0217C81.7619 49.54 82.2014 49.1973 82.683 49.2553C83.1646 49.3133 83.5074 49.7527 83.4494 50.2344C81.4139 66.6436 68.4148 79.6426 52.0057 81.6781C51.524 81.7361 51.0863 81.3934 51.0266 80.9117C50.9686 80.4301 51.3113 79.9924 51.793 79.9326C67.3971 77.9973 79.7703 65.624 81.7057 50.0199L81.7039 50.0217ZM80.7635 13.8107L88.2184 15.4666C88.6244 15.5562 88.7721 16.059 88.4768 16.3543L80.2871 24.5439C80.0691 24.7619 79.7773 24.848 79.475 24.7812L72.4104 23.2133L49.8875 45.7361C49.2283 46.3936 48.1613 46.3936 47.5039 45.7361C46.8465 45.0787 46.8465 44.01 47.5039 43.3525L70.0268 20.8297L68.4588 13.765C68.392 13.4627 68.4764 13.1727 68.6961 12.9529L76.8857 4.76328C77.1811 4.46797 77.6838 4.61562 77.7734 5.02168L79.4293 12.4766C79.5805 13.1586 80.0814 13.6596 80.7635 13.8125V13.8107ZM47.5039 19.9244C33.2498 19.9244 21.6939 31.4803 21.6939 45.7344C21.6939 59.9885 33.2498 71.5443 47.5039 71.5443C61.758 71.5443 73.3139 59.9885 73.3139 45.7344C73.3139 39.7209 71.2572 34.1873 67.8102 29.7998L61.6227 35.9873C63.5369 38.7559 64.6584 42.115 64.6584 45.7344C64.6584 55.209 56.9768 62.8906 47.5021 62.8906C38.0275 62.8906 30.3459 55.209 30.3459 45.7344C30.3459 36.2598 38.0275 28.5781 47.5021 28.5781C51.1232 28.5781 54.4807 29.6996 57.2492 31.6139L63.4367 25.4264C59.0492 21.9775 53.5156 19.9227 47.5021 19.9227L47.5039 19.9244ZM47.5039 38.1125C48.4707 38.1125 49.3953 38.2918 50.2461 38.6205L55.9854 32.8813C53.5525 31.2729 50.6381 30.3359 47.5039 30.3359C38.9996 30.3359 32.1055 37.2301 32.1055 45.7344C32.1055 54.2387 38.9996 61.1328 47.5039 61.1328C56.0082 61.1328 62.9023 54.2387 62.9023 45.7344C62.9023 42.6002 61.9654 39.6857 60.357 37.2529L54.6178 42.9922C54.9465 43.843 55.1258 44.7676 55.1258 45.7344C55.1258 49.9443 51.7139 53.3562 47.5039 53.3562C43.2939 53.3562 39.882 49.9443 39.882 45.7344C39.882 41.5244 43.2939 38.1125 47.5039 38.1125ZM48.8434 40.0232C48.4127 39.923 47.9645 39.8703 47.5039 39.8703C44.2643 39.8703 41.6398 42.4947 41.6398 45.7344C41.6398 48.974 44.2643 51.5984 47.5039 51.5984C50.7436 51.5984 53.368 48.974 53.368 45.7344C53.368 45.2738 53.3152 44.8256 53.215 44.3949L50.8824 46.7275C49.6748 47.9352 47.7184 47.9352 46.5107 46.7275C45.3031 45.5199 45.3031 43.5635 46.5107 42.3559L48.8434 40.0232ZM48.3828 87.9219C48.3828 88.407 47.9891 88.8008 47.5039 88.8008C47.0187 88.8008 46.625 88.407 46.625 87.9219V77.5631C46.625 77.0779 47.0187 76.6842 47.5039 76.6842C47.9891 76.6842 48.3828 77.0779 48.3828 77.5631V87.9219ZM89.6914 44.8555H79.3326C78.8475 44.8555 78.4537 45.2492 78.4537 45.7344C78.4537 46.2195 78.8475 46.6133 79.3326 46.6133H89.6914C90.1766 46.6133 90.5703 46.2195 90.5703 45.7344C90.5703 45.2492 90.1766 44.8555 89.6914 44.8555ZM46.625 3.54688V13.9057C46.625 14.3908 47.0187 14.7846 47.5039 14.7846C47.9891 14.7846 48.3828 14.3908 48.3828 13.9057V3.54688C48.3828 3.06172 47.9891 2.66797 47.5039 2.66797C47.0187 2.66797 46.625 3.06172 46.625 3.54688ZM5.31641 46.6133C4.83125 46.6133 4.4375 46.2195 4.4375 45.7344C4.4375 45.2492 4.83125 44.8555 5.31641 44.8555H15.6752C16.1604 44.8555 16.5541 45.2492 16.5541 45.7344C16.5541 46.2195 16.1604 46.6133 15.6752 46.6133H5.31641ZM43.2166 79.9344C43.6982 79.9924 44.041 80.4318 43.983 80.9135C43.925 81.3951 43.4855 81.7379 43.0039 81.6799C26.5947 79.6443 13.5957 66.6453 11.5602 50.2361C11.5021 49.7545 11.8449 49.3168 12.3266 49.257C12.8082 49.1973 13.2459 49.5418 13.3057 50.0234C15.241 65.6275 27.6143 78.0008 43.2184 79.9361L43.2166 79.9344ZM13.3039 41.4471C13.2459 41.9287 12.8064 42.2715 12.3248 42.2135C11.8432 42.1555 11.5004 41.716 11.5584 41.2344C13.5939 24.8252 26.593 11.8262 43.0021 9.79063C43.4838 9.73262 43.9215 10.0754 43.9813 10.557C44.0393 11.0387 43.6965 11.4764 43.2148 11.5361C27.6107 13.4715 15.2375 25.8447 13.3021 41.4488L13.3039 41.4471ZM51.7912 11.5344C57.7959 12.2797 63.3225 14.5701 67.9596 17.9943L67.3971 15.4596C62.8725 12.4801 57.6395 10.4885 52.0057 9.79063C51.524 9.73262 51.0863 10.0754 51.0266 10.557C50.9686 11.0387 51.3113 11.4764 51.793 11.5361L51.7912 11.5344ZM77.7787 25.8412L75.2439 25.2787C78.6699 29.9158 80.9604 35.4424 81.7039 41.4471C81.7619 41.9287 82.2014 42.2715 82.683 42.2135C83.1646 42.1555 83.5074 41.716 83.4494 41.2344C82.7498 35.6006 80.7582 30.3676 77.7805 25.843L77.7787 25.8412Z" fill="#CFA935"/>
</g>
<defs>
<filter id="filter0_d_19983_37105" x="-1.5" y="0.734375" width="98" height="98" filterUnits="userSpaceOnUse" color-interpolation-filters="sRGB">
<feFlood flood-opacity="0" result="BackgroundImageFix"/>
<feColorMatrix in="SourceAlpha" type="matrix" values="0 0 0 0 0 0 0 0 0 0 0 0 0 0 0 0 0 0 127 0" result="hardAlpha"/>
<feOffset dy="4"/>
<feGaussianBlur stdDeviation="2"/>
<feComposite in2="hardAlpha" operator="out"/>
<feColorMatrix type="matrix" values="0 0 0 0 0 0 0 0 0 0 0 0 0 0 0 0 0 0 0.25 0"/>
<feBlend mode="normal" in2="BackgroundImageFix" result="effect1_dropShadow_19983_37105"/>
<feBlend mode="normal" in="SourceGraphic" in2="effect1_dropShadow_19983_37105" result="shape"/>
</filter>
</defs>
</svg>
