<svg width="32" height="32" viewBox="0 0 32 32" fill="none" xmlns="http://www.w3.org/2000/svg">
<g clip-path="url(#clip0_34737_49683)">
<path d="M18.6265 26.0984H13.4105C12.149 26.0984 11.1228 25.0723 11.1228 23.8108C11.1228 17.937 9.86702 17.0986 8.65244 16.2879C7.50826 15.5242 6.32568 14.7342 6.32568 10.4163C6.32568 5.07159 10.6741 0.723145 16.0188 0.723145C21.3636 0.723145 25.712 5.07159 25.712 10.4163C25.712 14.7342 24.5294 15.5242 23.3852 16.2872C22.1707 17.0979 20.9148 17.937 20.9148 23.8108C20.9134 25.0723 19.8873 26.0984 18.6265 26.0984ZM16.0181 1.43426C11.0652 1.43426 7.03608 5.46341 7.03608 10.4163C7.03608 14.3537 7.96764 14.9759 9.04639 15.6963C10.3527 16.5681 11.8332 17.5566 11.8332 23.8108C11.8332 24.6798 12.5401 25.3873 13.4098 25.3873H18.6258C19.4948 25.3873 20.2023 24.6805 20.2023 23.8108C20.2023 17.5566 21.6828 16.5681 22.9892 15.6963C24.0679 14.9759 24.9995 14.3537 24.9995 10.4163C25.0002 5.46341 20.971 1.43426 16.0181 1.43426Z" fill="black"/>
<path d="M17.3546 22.1383C17.1583 22.1383 16.999 21.979 16.999 21.7827V14.8473C16.999 14.651 17.1583 14.4917 17.3546 14.4917C17.5508 14.4917 17.7101 14.651 17.7101 14.8473V21.7827C17.7101 21.979 17.5515 22.1383 17.3546 22.1383ZM14.6822 22.1383C14.4859 22.1383 14.3267 21.979 14.3267 21.7827V14.8473C14.3267 14.651 14.4859 14.4917 14.6822 14.4917C14.8785 14.4917 15.0378 14.651 15.0378 14.8473V21.7827C15.0378 21.979 14.8785 22.1383 14.6822 22.1383Z" fill="black"/>
<path d="M20.5935 22.1379H11.4181C11.2218 22.1379 11.0625 21.9786 11.0625 21.7823C11.0625 21.586 11.2218 21.4268 11.4181 21.4268H20.5935C20.7898 21.4268 20.9491 21.586 20.9491 21.7823C20.9491 21.9786 20.7898 22.1379 20.5935 22.1379Z" fill="black"/>
<path d="M17.0304 29.7621H15.0058C13.6846 29.7621 12.6094 28.6869 12.6094 27.3657V25.691C12.6094 25.4947 12.7687 25.3354 12.9649 25.3354C13.1612 25.3354 13.3205 25.4947 13.3205 25.691V27.3657C13.3205 28.2951 14.0764 29.051 15.0058 29.051H17.0304C17.9598 29.051 18.7157 28.2951 18.7157 27.3657V25.691C18.7157 25.4947 18.875 25.3354 19.0712 25.3354C19.2675 25.3354 19.4268 25.4947 19.4268 25.691V27.3657C19.4268 28.6869 18.3523 29.7621 17.0304 29.7621Z" fill="black"/>
<path d="M16.0182 31.6549C15.2801 31.6549 14.6792 31.054 14.6792 30.3158V29.4063C14.6792 29.2101 14.8385 29.0508 15.0348 29.0508C15.231 29.0508 15.3903 29.2101 15.3903 29.4063V30.3158C15.3903 30.6622 15.6719 30.9438 16.0182 30.9438C16.3645 30.9438 16.6461 30.6622 16.6461 30.3158V29.4063C16.6461 29.2101 16.8054 29.0508 17.0017 29.0508C17.198 29.0508 17.3572 29.2101 17.3572 29.4063V30.3158C17.3572 31.0547 16.7564 31.6549 16.0182 31.6549Z" fill="black"/>
<path d="M27.3816 18.3193C27.1853 18.3193 27.026 18.16 27.026 17.9637V13.2526H25.1793C24.983 13.2526 24.8237 13.0933 24.8237 12.8971C24.8237 12.7008 24.983 12.5415 25.1793 12.5415H27.3816C27.5779 12.5415 27.7372 12.7008 27.7372 12.8971V17.9637C27.7372 18.16 27.5779 18.3193 27.3816 18.3193Z" fill="black"/>
<path d="M27.306 8.12282H24.9757C24.7794 8.12282 24.6201 7.96353 24.6201 7.76726C24.6201 7.571 24.7794 7.41171 24.9757 7.41171H26.9504V2.8414C26.9504 2.64513 27.1097 2.48584 27.306 2.48584C27.5022 2.48584 27.6615 2.64513 27.6615 2.8414V7.76726C27.6615 7.96353 27.5022 8.12282 27.306 8.12282Z" fill="black"/>
<path d="M27.3812 20.3561C26.6239 20.3561 26.0073 19.7396 26.0073 18.9823C26.0073 18.2249 26.6239 17.6084 27.3812 17.6084C28.1385 17.6084 28.7551 18.2249 28.7551 18.9823C28.7551 19.7396 28.1385 20.3561 27.3812 20.3561ZM27.3812 18.3195C27.0157 18.3195 26.7184 18.6168 26.7184 18.9823C26.7184 19.3478 27.0157 19.645 27.3812 19.645C27.7467 19.645 28.0439 19.3478 28.0439 18.9823C28.0439 18.6168 27.746 18.3195 27.3812 18.3195Z" fill="black"/>
<path d="M27.3812 3.19695C26.6239 3.19695 26.0073 2.58042 26.0073 1.82309C26.0073 1.06575 26.6239 0.449219 27.3812 0.449219C28.1385 0.449219 28.7551 1.06575 28.7551 1.82309C28.7551 2.58042 28.1385 3.19695 27.3812 3.19695ZM27.3812 1.16104C27.0157 1.16104 26.7184 1.45829 26.7184 1.8238C26.7184 2.18931 27.0157 2.48655 27.3812 2.48655C27.7467 2.48655 28.0439 2.18931 28.0439 1.8238C28.0439 1.45829 27.746 1.16104 27.3812 1.16104Z" fill="black"/>
<path d="M29.3418 10.7717H25.356C25.1598 10.7717 25.0005 10.6124 25.0005 10.4161C25.0005 10.2198 25.1598 10.0605 25.356 10.0605H29.3418C29.5381 10.0605 29.6974 10.2198 29.6974 10.4161C29.6974 10.6124 29.5381 10.7717 29.3418 10.7717Z" fill="black"/>
<path d="M30.3602 11.7902C29.6029 11.7902 28.9863 11.1737 28.9863 10.4163C28.9863 9.65901 29.6029 9.04248 30.3602 9.04248C31.1175 9.04248 31.7341 9.65901 31.7341 10.4163C31.7341 11.1737 31.1175 11.7902 30.3602 11.7902ZM30.3602 9.75359C29.9947 9.75359 29.6974 10.0508 29.6974 10.4163C29.6974 10.7819 29.9947 11.0791 30.3602 11.0791C30.7257 11.0791 31.023 10.7819 31.023 10.4163C31.023 10.0508 30.7257 9.75359 30.3602 9.75359Z" fill="black"/>
<path d="M4.65536 18.3193C4.45909 18.3193 4.2998 18.16 4.2998 17.9637V12.8971C4.2998 12.7008 4.45909 12.5415 4.65536 12.5415H6.85767C7.05394 12.5415 7.21323 12.7008 7.21323 12.8971C7.21323 13.0933 7.05394 13.2526 6.85767 13.2526H5.01092V17.9637C5.01092 18.16 4.85234 18.3193 4.65536 18.3193Z" fill="black"/>
<path d="M7.06207 8.12282H4.73104C4.53478 8.12282 4.37549 7.96353 4.37549 7.76726V2.8414C4.37549 2.64513 4.53478 2.48584 4.73104 2.48584C4.92731 2.48584 5.0866 2.64513 5.0866 2.8414V7.41171H7.06136C7.25762 7.41171 7.41691 7.571 7.41691 7.76726C7.41691 7.96353 7.25833 8.12282 7.06207 8.12282Z" fill="black"/>
<path d="M4.6556 20.3561C3.89827 20.3561 3.28174 19.7396 3.28174 18.9823C3.28174 18.2249 3.89827 17.6084 4.6556 17.6084C5.41294 17.6084 6.02947 18.2249 6.02947 18.9823C6.02947 19.7396 5.41365 20.3561 4.6556 20.3561ZM4.6556 18.3195C4.29009 18.3195 3.99285 18.6168 3.99285 18.9823C3.99285 19.3478 4.29009 19.645 4.6556 19.645C5.02112 19.645 5.31836 19.3478 5.31836 18.9823C5.31836 18.6168 5.02112 18.3195 4.6556 18.3195Z" fill="black"/>
<path d="M4.6556 3.19695C3.89827 3.19695 3.28174 2.58042 3.28174 1.82309C3.28174 1.06575 3.89827 0.449219 4.6556 0.449219C5.41294 0.449219 6.02947 1.06575 6.02947 1.82309C6.02947 2.58042 5.41365 3.19695 4.6556 3.19695ZM4.6556 1.16104C4.29009 1.16104 3.99285 1.45829 3.99285 1.8238C3.99285 2.18931 4.29009 2.48655 4.6556 2.48655C5.02112 2.48655 5.31836 2.18931 5.31836 1.8238C5.31836 1.45829 5.02112 1.16104 4.6556 1.16104Z" fill="black"/>
<path d="M6.68069 10.7717H2.69491C2.49864 10.7717 2.33936 10.6124 2.33936 10.4161C2.33936 10.2198 2.49864 10.0605 2.69491 10.0605H6.68069C6.87696 10.0605 7.03624 10.2198 7.03624 10.4161C7.03624 10.6124 6.87696 10.7717 6.68069 10.7717Z" fill="black"/>
<path d="M1.6766 11.7902C0.919268 11.7902 0.302734 11.1737 0.302734 10.4163C0.302734 9.65901 0.919268 9.04248 1.6766 9.04248C2.43393 9.04248 3.05047 9.65901 3.05047 10.4163C3.05047 11.1737 2.43393 11.7902 1.6766 11.7902ZM1.6766 9.75359C1.31109 9.75359 1.01385 10.0508 1.01385 10.4163C1.01385 10.7819 1.31109 11.0791 1.6766 11.0791C2.04211 11.0791 2.33936 10.7819 2.33936 10.4163C2.33936 10.0508 2.04211 9.75359 1.6766 9.75359Z" fill="black"/>
<path d="M21.0123 15.2018H11.0241C10.6266 15.2018 10.3037 14.8783 10.3037 14.4815V9.96591C10.3037 9.76964 10.463 9.61035 10.6593 9.61035C10.8555 9.61035 11.0148 9.76964 11.0148 9.96591V14.4815C11.0148 14.4857 11.0198 14.4907 11.0241 14.4907H21.0116C21.0159 14.4907 21.0209 14.4857 21.0209 14.4815V9.96591C21.0209 9.76964 21.1802 9.61035 21.3764 9.61035C21.5727 9.61035 21.732 9.76964 21.732 9.96591V14.4815C21.7327 14.879 21.4091 15.2018 21.0123 15.2018Z" fill="black"/>
<path d="M19.6299 11.186H19.3362C19.14 11.186 18.9807 11.0267 18.9807 10.8304C18.9807 10.6341 19.14 10.4748 19.3362 10.4748H19.6299C20.6489 10.4748 21.4781 9.64569 21.4781 8.62667V6.77849H10.5583V8.62667C10.5583 9.64569 11.3874 10.4748 12.4065 10.4748H12.7001C12.8964 10.4748 13.0557 10.6341 13.0557 10.8304C13.0557 11.0267 12.8964 11.186 12.7001 11.186H12.4065C10.9956 11.186 9.84717 10.0382 9.84717 8.62667V6.76214C9.84717 6.37885 10.1586 6.06738 10.5419 6.06738H21.4945C21.8777 6.06738 22.1892 6.37885 22.1892 6.76214V8.62667C22.1892 10.0382 21.0408 11.186 19.6299 11.186ZM18.111 11.186H13.9254C13.7291 11.186 13.5698 11.0267 13.5698 10.8304C13.5698 10.6341 13.7291 10.4748 13.9254 10.4748H18.111C18.3073 10.4748 18.4665 10.6341 18.4665 10.8304C18.4665 11.0267 18.3073 11.186 18.111 11.186Z" fill="black"/>
<path d="M18.2254 6.37396C18.0292 6.37396 17.8699 6.21468 17.8699 6.01841V4.96241C17.8699 4.8465 17.8244 4.73699 17.7412 4.65379C17.658 4.57059 17.5485 4.52508 17.4325 4.52508H14.603C14.4871 4.52508 14.3776 4.57059 14.2944 4.65379C14.2112 4.73699 14.1657 4.8465 14.1657 4.96241V6.01912C14.1657 6.21539 14.0064 6.37468 13.8101 6.37468C13.6139 6.37468 13.4546 6.21539 13.4546 6.01912V4.96241C13.4546 4.65592 13.5741 4.36792 13.7917 4.15103C14.0085 3.93414 14.2973 3.81396 14.603 3.81396H17.4325C17.739 3.81396 18.027 3.93343 18.2439 4.15103C18.4608 4.36792 18.581 4.65592 18.581 4.96241V6.01912C18.581 6.21539 18.4224 6.37396 18.2254 6.37396Z" fill="black"/>
<path d="M13.4687 12.0509H13.1558C12.7078 12.0509 12.3438 11.6868 12.3438 11.2388V10.4224C12.3438 9.97444 12.7078 9.61035 13.1558 9.61035H13.4687C13.9167 9.61035 14.2808 9.97444 14.2808 10.4224V11.2388C14.2808 11.6861 13.9167 12.0509 13.4687 12.0509ZM13.1558 10.3215C13.1011 10.3215 13.0549 10.3677 13.0549 10.4224V11.2388C13.0549 11.2936 13.1011 11.3398 13.1558 11.3398H13.4687C13.5235 11.3398 13.5697 11.2936 13.5697 11.2388V10.4224C13.5697 10.3677 13.5235 10.3215 13.4687 10.3215H13.1558Z" fill="black"/>
<path d="M18.8803 12.0509H18.5675C18.1202 12.0509 17.7554 11.6868 17.7554 11.2388V10.4224C17.7554 9.97444 18.1195 9.61035 18.5675 9.61035H18.8803C19.3283 9.61035 19.6924 9.97444 19.6924 10.4224V11.2388C19.6917 11.6861 19.3276 12.0509 18.8803 12.0509ZM18.5675 10.3215C18.5127 10.3215 18.4665 10.3677 18.4665 10.4224V11.2388C18.4665 11.2936 18.5127 11.3398 18.5675 11.3398H18.8803C18.9351 11.3398 18.9813 11.2936 18.9813 11.2388V10.4224C18.9813 10.3677 18.9351 10.3215 18.8803 10.3215H18.5675Z" fill="black"/>
<path d="M27.0406 31.655H4.99618C4.79991 31.655 4.64062 31.4957 4.64062 31.2994C4.64062 31.1031 4.79991 30.9438 4.99618 30.9438H27.0406C27.2369 30.9438 27.3962 31.1031 27.3962 31.2994C27.3962 31.4957 27.2369 31.655 27.0406 31.655Z" fill="black"/>
</g>
<defs>
<clipPath id="clip0_34737_49683">
<rect width="32" height="32" fill="white"/>
</clipPath>
</defs>
</svg>
