<svg width="40" height="40" viewBox="0 0 40 40" fill="none" xmlns="http://www.w3.org/2000/svg">
<path d="M20 38.8228C30.396 38.8228 38.8236 30.3953 38.8236 19.9993C38.8236 9.60336 30.396 1.17578 20 1.17578C9.60409 1.17578 1.17651 9.60336 1.17651 19.9993C1.17651 30.3953 9.60409 38.8228 20 38.8228Z" fill="#2BA1DB"/>
<path d="M14.7058 29.5273V32.8215C14.7058 33.7038 15.4117 34.4097 16.294 34.4097H24.2352C25.1176 34.4097 25.8235 33.7038 25.8235 32.8215V29.5273H14.7058Z" fill="white"/>
<path d="M24.2941 34.9983H16.2941C15.0589 34.9983 14.1177 33.9983 14.1177 32.8218V29.5277C14.1177 29.1747 14.353 28.9395 14.7059 28.9395H25.8824C26.2353 28.9395 26.4706 29.1747 26.4706 29.5277V32.8218C26.4706 33.9983 25.4706 34.9983 24.2941 34.9983ZM15.2941 30.1159V32.8218C15.2941 33.41 15.7647 33.8218 16.2941 33.8218H24.2353C24.8236 33.8218 25.2353 33.3512 25.2353 32.8218V30.1159H15.2941Z" fill="#193651"/>
<path d="M17.1765 34.4102V37.1749C17.1765 37.7631 17.6471 38.2337 18.2353 38.2337H22.353C22.9412 38.2337 23.4118 37.7631 23.4118 37.1749V34.4102H17.1765Z" fill="#E1E6E9"/>
<path d="M22.3531 38.8223H18.2354C17.2943 38.8223 16.5884 38.0576 16.5884 37.1752V34.4105C16.5884 34.0576 16.8237 33.8223 17.1766 33.8223H23.4707C23.8237 33.8223 24.059 34.0576 24.059 34.4105V37.1752C24.0001 38.0576 23.2943 38.8223 22.3531 38.8223ZM17.7648 34.9987V37.1752C17.7648 37.4693 18.0001 37.6458 18.2354 37.6458H22.3531C22.6472 37.6458 22.8237 37.4105 22.8237 37.1752V34.9987H17.7648Z" fill="#193651"/>
<path d="M19.7061 4.41121C14.1767 4.70533 9.76489 9.41121 9.76489 14.9406C9.76489 18.0583 11.1178 20.823 13.2943 22.7053C14.8825 24.1171 15.7061 26.1171 15.7061 28.2347V29.47H24.8825V28.2347C24.8825 26.1171 25.7061 24.0583 27.2943 22.7053C29.4708 20.7642 30.8237 17.9994 30.8237 14.8818C30.8237 8.94062 25.7649 4.11709 19.7061 4.41121Z" fill="white"/>
<path d="M24.8825 30.1169H15.706C15.3531 30.1169 15.1178 29.8816 15.1178 29.5286V28.2345C15.1178 26.2345 14.2942 24.411 12.9413 23.1757C10.5884 21.1169 9.23541 18.1169 9.23541 14.9404C9.17659 9.11687 13.8825 4.11687 19.706 3.82275C26.0589 3.52863 31.4119 8.58746 31.4119 14.9404C31.4119 18.1169 30.0589 21.1169 27.706 23.1757C26.2942 24.411 25.5295 26.2933 25.5295 28.2933V29.5286C25.4707 29.8228 25.2354 30.1169 24.8825 30.1169ZM16.2942 28.9404H24.2942V28.2933C24.2942 25.9404 25.2354 23.7639 26.8825 22.2933C29.0001 20.411 30.1766 17.7051 30.1766 14.8816C30.1766 9.23452 25.4119 4.70511 19.706 4.99922C14.5295 5.29334 10.2942 9.76393 10.3531 14.9404C10.3531 17.7639 11.5883 20.411 13.706 22.2933C15.3531 23.7639 16.2942 25.9404 16.2942 28.2345V28.9404Z" fill="#193651"/>
<path d="M24.8237 36.9401H23.4708C23.1179 36.9401 22.8826 36.7048 22.8826 36.3519C22.8826 35.999 23.1179 35.7637 23.4708 35.7637H24.8237C25.1767 35.7637 25.412 35.999 25.412 36.3519C25.412 36.646 25.1179 36.9401 24.8237 36.9401Z" fill="#193651"/>
<path d="M17.1765 36.6472H15.8236C15.4706 36.6472 15.2354 36.4119 15.2354 36.0589C15.2354 35.706 15.4706 35.4707 15.8236 35.4707H17.1765C17.5295 35.4707 17.7648 35.706 17.7648 36.0589C17.7648 36.3531 17.4706 36.6472 17.1765 36.6472Z" fill="#193651"/>
<path d="M20.2943 6.58789C20.1179 6.58789 20.0002 6.58789 19.8238 6.58789C15.4708 6.82318 11.9414 10.5879 11.9414 14.9408C11.9414 17.2938 13.0002 19.5291 14.7061 21.1173C16.4708 22.7055 17.5885 24.882 17.7649 27.3526V28.9997H22.6473V27.3526C22.8826 24.9408 24.0002 22.7055 25.7061 21.1173C27.4708 19.5291 28.4708 17.2938 28.4708 14.9408C28.5885 10.3526 24.8826 6.58789 20.2943 6.58789Z" fill="#FDBE5E"/>
<path d="M20.2942 18.9991C21.8861 18.9991 23.1766 17.7086 23.1766 16.1167C23.1766 14.5248 21.8861 13.2344 20.2942 13.2344C18.7023 13.2344 17.4119 14.5248 17.4119 16.1167C17.4119 17.7086 18.7023 18.9991 20.2942 18.9991Z" fill="white"/>
<path d="M20.2943 19.6463C18.3531 19.6463 16.8237 18.058 16.8237 16.1757C16.8237 14.2345 18.412 12.7051 20.2943 12.7051C22.2355 12.7051 23.7649 14.2933 23.7649 16.1757C23.7649 18.058 22.2355 19.6463 20.2943 19.6463ZM20.2943 13.8227C19.0002 13.8227 18.0002 14.8815 18.0002 16.1168C18.0002 17.411 19.059 18.411 20.2943 18.411C21.5884 18.411 22.5884 17.3521 22.5884 16.1168C22.5884 14.8815 21.5884 13.8227 20.2943 13.8227Z" fill="#193651"/>
<path d="M20.2943 30.1178C19.9413 30.1178 19.7061 29.8825 19.7061 29.5295V19.0589C19.7061 18.706 19.9413 18.4707 20.2943 18.4707C20.6472 18.4707 20.8825 18.706 20.8825 19.0589V29.5295C20.8825 29.8236 20.6472 30.1178 20.2943 30.1178Z" fill="#193651"/>
<path d="M14.7059 15.4696C14.4118 15.4696 14.1765 15.2343 14.1765 14.9401C14.1765 11.7048 16.7647 8.94014 20 8.76367C20.2942 8.76367 20.5295 8.99897 20.5883 9.29308C20.5883 9.5872 20.353 9.8225 20.0589 9.88132C17.4118 9.99897 15.2942 12.2931 15.2942 14.9401C15.2353 15.2343 15 15.4696 14.7059 15.4696Z" fill="#193651"/>
<path d="M7.05884 14.293H8.23531V15.4694H7.05884V14.293Z" fill="#193651"/>
<path d="M32.353 14.293H33.5295V15.4694H32.353V14.293Z" fill="#193651"/>
<path d="M8.55493 21.0176L9.57376 20.4293L10.162 21.4482L9.14317 22.0364L8.55493 21.0176Z" fill="#193651"/>
<path d="M30.4292 8.37305L31.448 7.78481L32.0363 8.80364L31.0174 9.39187L30.4292 8.37305Z" fill="#193651"/>
<path d="M25.7742 4.19141L26.3624 3.17258L27.3812 3.76082L26.793 4.77964L25.7742 4.19141Z" fill="#193651"/>
<path d="M19.7058 1.70508H20.8823V2.88155H19.7058V1.70508Z" fill="#193651"/>
<path d="M13.1799 3.7168L14.1988 3.12856L14.787 4.14739L13.7682 4.73562L13.1799 3.7168Z" fill="#193651"/>
<path d="M30.4421 21.4473L31.0304 20.4284L32.0492 21.0167L31.461 22.0355L30.4421 21.4473Z" fill="#193651"/>
<path d="M8.54736 8.80664L9.1356 7.78782L10.1544 8.37605L9.56619 9.39488L8.54736 8.80664Z" fill="#193651"/>
</svg>
