<svg width="45" height="48" viewBox="0 0 45 48" fill="none" xmlns="http://www.w3.org/2000/svg">
<g opacity="0.4">
<path fill-rule="evenodd" clip-rule="evenodd" d="M8.41875 15.0585C9.14105 14.8839 9.87939 14.7961 10.62 14.7965C16.485 14.7965 21.2381 20.2285 21.2381 26.9265C21.2381 33.6265 16.485 39.0585 10.62 39.0585C4.755 39.0585 0 33.6285 0 26.9265C0 26.7305 0.00375 26.5325 0.013125 26.3365H0C0 16.2265 7.2 8.00049 16.05 8.00049V12.0725C13.1794 12.0725 10.5319 13.1885 8.41875 15.0585ZM32.1825 15.0585C32.8912 14.8865 33.6263 14.7965 34.38 14.7965C40.245 14.7965 45 20.2285 45 26.9265C45 33.6265 40.245 39.0585 34.38 39.0585C28.515 39.0585 23.7619 33.6285 23.7619 26.9265C23.7619 26.7305 23.7656 26.5325 23.775 26.3365H23.7619C23.7619 16.2265 30.9619 8.00049 39.8119 8.00049V12.0725C36.9394 12.0725 34.2956 13.1885 32.1825 15.0585Z" fill="url(#paint0_linear_36701_59396)"/>
</g>
<defs>
<linearGradient id="paint0_linear_36701_59396" x1="0" y1="23.5295" x2="45" y2="23.5295" gradientUnits="userSpaceOnUse">
<stop stop-color="#FFCC30"/>
<stop offset="0.655831" stop-color="#CFA935"/>
</linearGradient>
</defs>
</svg>
