<svg width="92" height="92" viewBox="0 0 92 92" fill="none" xmlns="http://www.w3.org/2000/svg">
<g id="4" clip-path="url(#clip0_17749_2539)">
<path id="Vector" d="M91.6679 58.0175L88.6823 54.4324L89.4772 49.8367C89.5965 49.151 89.2069 48.4811 88.5557 48.2425L84.1771 46.6368L82.5714 42.2582C82.3314 41.6056 81.6586 41.216 80.9772 41.3353L76.3801 42.1302L74.75 40.7733V1.4375C74.75 0.642563 74.106 0 73.3125 0H1.4375C0.644 0 0 0.642563 0 1.4375V73.3125C0 74.1074 0.644 74.75 1.4375 74.75H57.5V90.5625C57.5 91.0498 57.7458 91.5026 58.1541 91.7686C58.5609 92.0331 59.0769 92.0733 59.5211 91.8764L71.875 86.3866L84.2289 91.8764C84.4158 91.9598 84.6141 92 84.8125 92C85.0856 92 85.3587 91.9209 85.5959 91.7686C86.0042 91.5026 86.25 91.0498 86.25 90.5625V70.4792L88.5557 69.6339C89.2084 69.3953 89.5965 68.724 89.4772 68.0397L88.6823 63.4441L91.6679 59.8589C92.1107 59.3256 92.1107 58.5494 91.6679 58.0175ZM2.875 71.875V2.875H71.875V38.8125C71.5487 38.8125 71.2209 38.9232 70.955 39.1446L67.3713 42.1288L62.7742 41.3339C62.0942 41.2146 61.4186 41.6041 61.18 42.2567L59.5743 46.6354L55.1942 48.2411C54.5416 48.4797 54.1535 49.151 54.2728 49.8353L55.0677 54.4309L52.0821 58.0161C51.6379 58.5479 51.6379 59.3228 52.0821 59.8546L55.0677 63.4398L54.2728 68.0354C54.1535 68.7211 54.5431 69.391 55.1942 69.6296L57.5 70.4792V71.875H2.875ZM72.4586 83.4986C72.0863 83.3333 71.6623 83.3333 71.2914 83.4986L60.375 88.3502V73.4261L61.1786 75.6182C61.4186 76.2709 62.0885 76.6547 62.7728 76.5411L67.3699 75.7462L70.9536 78.7304C71.2209 78.9518 71.5487 79.0625 71.875 79.0625C72.2013 79.0625 72.5291 78.9518 72.795 78.7304L76.3787 75.7462L80.9758 76.5411C81.6586 76.6547 82.3299 76.2709 82.57 75.6182L83.375 73.4232V88.3502L72.4586 83.4986ZM86.0473 62.1129C85.7771 62.4364 85.6635 62.8619 85.7354 63.2788L86.4398 67.3483L82.5599 68.77C82.1632 68.9152 81.8498 69.2271 81.7046 69.6253L80.2829 73.5023L76.2134 72.7993C75.7994 72.7274 75.3724 72.8424 75.0476 73.1113L71.875 75.7534L68.701 73.1098C68.4408 72.8942 68.1145 72.7777 67.781 72.7777C67.6991 72.7777 67.6171 72.7849 67.5366 72.7993L63.4671 73.5023L62.0454 69.6253C61.9002 69.2286 61.5868 68.9152 61.1901 68.77L57.3117 67.3483L58.0161 63.2788C58.0879 62.8633 57.9744 62.4364 57.7041 62.1129L55.0577 58.9375L57.7012 55.7621C57.9715 55.4386 58.0851 55.0131 58.0132 54.5962L57.3088 50.5267L61.1886 49.105C61.5854 48.9598 61.8988 48.6479 62.0439 48.2497L63.4656 44.3727L67.5352 45.0757C67.9492 45.1476 68.3761 45.034 68.701 44.7637L71.875 42.1216L75.049 44.7652C75.3724 45.0354 75.8008 45.149 76.2148 45.0771L80.2844 44.3742L81.7061 48.2511C81.8512 48.6479 82.1646 48.9613 82.5614 49.1064L86.4398 50.5281L85.7354 54.5977C85.6635 55.0131 85.7771 55.4401 86.0473 55.7635L88.6923 58.9375L86.0473 62.1129Z" fill="#CFA935"/>
<path id="Vector_2" d="M71.875 47.4375C65.5342 47.4375 60.375 52.5967 60.375 58.9375C60.375 65.2783 65.5342 70.4375 71.875 70.4375C78.2158 70.4375 83.375 65.2783 83.375 58.9375C83.375 52.5967 78.2158 47.4375 71.875 47.4375ZM71.875 67.5625C67.1183 67.5625 63.25 63.6942 63.25 58.9375C63.25 54.1808 67.1183 50.3125 71.875 50.3125C76.6317 50.3125 80.5 54.1808 80.5 58.9375C80.5 63.6942 76.6317 67.5625 71.875 67.5625Z" fill="#CFA935"/>
<path id="Vector_3" d="M70.4382 59.7806L68.5795 57.9219L66.5469 59.9545L69.4219 62.8295C69.7022 63.1098 70.0702 63.2507 70.4382 63.2507C70.8062 63.2507 71.1742 63.1098 71.4545 62.8295L77.2045 57.0795L75.1719 55.0469L70.4382 59.7806Z" fill="#CFA935"/>
<path id="Vector_4" d="M58.9375 30.1875C58.9375 18.2979 49.2646 8.625 37.375 8.625C25.4854 8.625 15.8125 18.2979 15.8125 30.1875C15.8125 42.0771 25.4854 51.75 37.375 51.75C49.2646 51.75 58.9375 42.0771 58.9375 30.1875ZM35.9375 23C35.9375 22.2065 36.5829 21.5625 37.375 21.5625C38.1671 21.5625 38.8125 22.2065 38.8125 23C38.8125 23.7935 38.1671 24.4375 37.375 24.4375C36.5829 24.4375 35.9375 23.7935 35.9375 23ZM44.5625 47.4332V39.4076L48.4538 35.5163C48.7241 35.2475 48.875 34.8824 48.875 34.5V31.3605C50.5439 30.7654 51.75 29.1841 51.75 27.3125C51.75 24.9349 49.8151 23 47.4375 23C45.0599 23 43.125 24.9349 43.125 27.3125C43.125 29.1841 44.3311 30.7654 46 31.3605V33.9049L42.1087 37.7962C41.8384 38.065 41.6875 38.4301 41.6875 38.8125V48.3532C40.7531 48.5746 39.7943 48.7269 38.8125 48.8031V27.048C40.4814 26.4529 41.6875 24.8716 41.6875 23C41.6875 20.6224 39.7526 18.6875 37.375 18.6875C34.9974 18.6875 33.0625 20.6224 33.0625 23C33.0625 24.8716 34.2686 26.4529 35.9375 27.048V48.8031C34.9557 48.7284 33.9969 48.576 33.0625 48.3532V38.8125C33.0625 38.4301 32.9116 38.065 32.6413 37.7962L28.75 33.9049V31.3605C30.4189 30.7654 31.625 29.1841 31.625 27.3125C31.625 24.9349 29.6901 23 27.3125 23C24.9349 23 23 24.9349 23 27.3125C23 29.1841 24.2061 30.7654 25.875 31.3605V34.5C25.875 34.8824 26.0259 35.2475 26.2962 35.5163L30.1875 39.4076V47.4332C23.4413 44.6114 18.6875 37.9457 18.6875 30.1875C18.6875 19.8835 27.071 11.5 37.375 11.5C47.679 11.5 56.0625 19.8835 56.0625 30.1875C56.0625 37.9457 51.3087 44.6114 44.5625 47.4332ZM46 27.3125C46 26.519 46.6454 25.875 47.4375 25.875C48.2296 25.875 48.875 26.519 48.875 27.3125C48.875 28.106 48.2296 28.75 47.4375 28.75C46.6454 28.75 46 28.106 46 27.3125ZM25.875 27.3125C25.875 26.519 26.5204 25.875 27.3125 25.875C28.1046 25.875 28.75 26.519 28.75 27.3125C28.75 28.106 28.1046 28.75 27.3125 28.75C26.5204 28.75 25.875 28.106 25.875 27.3125Z" fill="#CFA935"/>
<path id="Vector_5" d="M14.3757 59.533L16.2344 61.3917C16.7964 61.9537 17.7049 61.9537 18.267 61.3917L20.1257 59.533L21.9844 61.3917C22.5464 61.9537 23.4549 61.9537 24.017 61.3917L25.8757 59.533L27.7344 61.3917C28.0147 61.672 28.3827 61.8129 28.7507 61.8129C29.1187 61.8129 29.4867 61.672 29.767 61.3917L32.642 58.5167L30.6094 56.484L28.7507 58.3427L26.892 56.484C26.3299 55.922 25.4214 55.922 24.8594 56.484L23.0007 58.3427L21.142 56.484C20.5799 55.922 19.6714 55.922 19.1094 56.484L17.2507 58.3427L15.392 56.484C14.8299 55.922 13.9214 55.922 13.3594 56.484L10.4844 59.359L12.517 61.3917L14.3757 59.533Z" fill="#CFA935"/>
<path id="Vector_6" d="M8.625 64.6875H34.5V67.5625H8.625V64.6875Z" fill="#CFA935"/>
</g>
<defs>
<clipPath id="clip0_17749_2539">
<rect width="92" height="92" fill="white"/>
</clipPath>
</defs>
</svg>
