<svg width="48" height="48" viewBox="0 0 48 48" fill="none" xmlns="http://www.w3.org/2000/svg">
<path d="M44.25 31.4999H41.25C40.425 31.4999 39.75 32.1749 39.75 32.9999V33.3149L36.6675 31.8524C36.18 31.6199 35.7225 31.4324 35.2725 31.2674C33.96 30.7874 31.695 30.3449 30.33 30.2999C29.0625 30.2549 28.1325 30.3824 26.955 30.5324L21.3375 31.3124C20.4375 31.4924 19.6725 31.9874 19.1775 32.7074C19.0575 32.8799 18.9675 33.0524 18.885 33.2399L4.93501 32.7449C4.79251 32.7449 4.63501 32.7524 4.50751 32.7749C3.62251 32.9174 2.87251 33.4874 2.50501 34.3049C2.17501 35.0249 2.17501 35.8424 2.50501 36.5624C2.83501 37.2749 3.45001 37.8074 4.15501 38.0024L20.4975 43.7924C22.365 44.3174 24.2775 44.4299 26.175 44.1374L31.9275 43.2299L39.7725 44.8649V45.7574C39.7725 46.5824 40.4475 47.2574 41.2725 47.2574H44.2725C45.0975 47.2574 45.7725 46.5824 45.7725 45.7574V33.0074C45.7725 32.1824 45.0975 31.5074 44.2725 31.5074L44.25 31.4999ZM32.0775 41.7299C31.9875 41.7149 31.8975 41.7074 31.8075 41.7299L25.92 42.6599C24.24 42.9224 22.545 42.8174 20.9325 42.3749L4.59751 36.5849C4.26751 36.4949 3.99751 36.2549 3.85501 35.9474C3.71251 35.6324 3.71251 35.2649 3.85501 34.9424C4.01251 34.5824 4.34251 34.3349 4.72501 34.2749C4.78501 34.2674 4.86001 34.2599 4.89751 34.2599L18.6375 34.7474C18.6525 34.8824 18.6525 35.0174 18.6825 35.1524C18.6825 35.1749 18.6825 35.1899 18.6975 35.2124C19.0425 36.7124 20.415 37.7624 22.0275 37.7624L28.7925 37.8074V36.3074L22.035 36.2624C21.15 36.2624 20.37 35.6924 20.1675 34.9124C20.1675 34.8974 20.1675 34.8824 20.16 34.8599C20.055 34.4099 20.145 33.9599 20.4075 33.5774C20.6775 33.1799 21.1125 32.9024 21.5775 32.8124L26.7975 32.0849L27.135 32.0399C28.245 31.8974 29.13 31.7849 30.27 31.8149C31.4775 31.8524 33.57 32.2649 34.7475 32.6924C35.145 32.8424 35.58 33.0149 36.015 33.2249L39.735 34.9874V43.3424L32.0625 41.7449L32.0775 41.7299ZM41.25 45.7499V32.9999H44.25V45.7499H41.25Z" fill="black"/>
<path d="M24.75 10.5V3.75005L25.65 4.95005L26.85 4.05005L24.6 1.05005C24.315 0.675049 23.685 0.675049 23.4 1.05005L21.15 4.05005L22.35 4.95005L23.25 3.75005V10.5H24.75Z" fill="black"/>
<path d="M40.2 23.85L43.2 21.6C43.3875 21.4575 43.5 21.2325 43.5 21C43.5 20.7675 43.3875 20.5425 43.2 20.4L40.2 18.15L39.3 19.35L40.5 20.25H33.75V21.75H40.5L39.3 22.65L40.2 23.85Z" fill="black"/>
<path d="M14.25 20.25H7.5L8.7 19.35L7.8 18.15L4.8 20.4C4.6125 20.5425 4.5 20.7675 4.5 21C4.5 21.2325 4.6125 21.4575 4.8 21.6L7.8 23.85L8.7 22.65L7.5 21.75H14.25V20.25Z" fill="black"/>
<path d="M16.2825 13.8675L10.98 8.56497L12.465 8.77497L12.675 7.28997L8.96252 6.75747C8.73002 6.71997 8.49002 6.80247 8.32502 6.96747C8.16002 7.13247 8.07752 7.37247 8.11502 7.60497L8.64752 11.3175L10.1325 11.1075L9.92252 9.62247L15.225 14.925L16.2825 13.8675Z" fill="black"/>
<path d="M32.7825 14.925L38.085 9.62247L37.875 11.1075L39.36 11.3175L39.8925 7.60497C39.9225 7.37247 39.8475 7.13247 39.6825 6.96747C39.5175 6.80247 39.2775 6.71997 39.045 6.75747L35.3325 7.28997L35.5425 8.77497L37.0275 8.56497L31.725 13.8675L32.7825 14.925Z" fill="black"/>
<path d="M21.93 27.675C22.4925 28.2075 23.22 28.5 23.9925 28.5H24.15C25.7475 28.4175 26.9925 27.0525 26.9925 25.38V24.9975C26.9925 23.7225 27.6375 22.74 28.1775 22.1475C29.1075 21.1125 29.6175 19.7775 29.6175 18.3825C29.6175 16.86 29.0175 15.435 27.93 14.37C26.8425 13.305 25.4025 12.735 23.88 12.7575C22.4025 12.7875 20.955 13.44 19.9125 14.55C18.87 15.66 18.3075 17.1525 18.375 18.6375C18.435 19.9725 18.975 21.255 19.89 22.23C20.6025 22.9875 20.9925 23.9775 20.9925 24.9975V25.5075C20.9925 26.34 21.3225 27.1125 21.9225 27.6825L21.93 27.675ZM24.075 27C23.655 27.0225 23.265 26.8725 22.965 26.5875C22.665 26.3025 22.5 25.9125 22.5 25.5H25.485C25.425 26.3025 24.8175 26.9625 24.075 27ZM20.985 21.195C20.31 20.475 19.92 19.545 19.875 18.5625C19.83 17.4825 20.2425 16.3875 21.0075 15.57C21.7725 14.7525 22.8375 14.2725 23.91 14.25H23.9925C25.08 14.25 26.1 14.67 26.88 15.4275C27.675 16.2075 28.1175 17.2575 28.1175 18.375C28.1175 19.395 27.7425 20.3775 27.06 21.135C26.295 21.9825 25.7925 22.98 25.59 24H24.7425V21.3075L26.025 20.025L24.9675 18.9675L24 19.935L23.0325 18.9675L21.975 20.025L23.2575 21.3075V24H22.4175C22.23 22.9575 21.7425 21.99 21 21.195H20.985Z" fill="black"/>
</svg>
