<svg width="72" height="72" viewBox="0 0 72 72" fill="none" xmlns="http://www.w3.org/2000/svg">
<g id="Layer_1">
<path id="Vector" fill-rule="evenodd" clip-rule="evenodd" d="M46.0056 18.1743C45.0977 17.2664 43.5378 17.912 43.5378 19.1965C43.5378 20.481 45.0977 21.1266 46.0056 20.2187C46.5701 19.6542 46.5699 18.7386 46.0056 18.1742V18.1743ZM29.4002 18.1743C28.4922 17.2664 26.9324 17.9122 26.9324 19.1965C26.9324 20.4808 28.4922 21.1267 29.4 20.2187C29.9645 19.6542 29.9646 18.7388 29.4002 18.1743ZM28.378 15.9544C27.0792 15.9544 25.935 16.7229 25.4199 17.8677H24.2907V4.1267H39.6148V17.8679H31.3362C30.8209 16.723 29.6768 15.9545 28.3781 15.9545L28.378 15.9544ZM44.963 6.81377V10.112H47.8447L46.3254 7.6765C46.0111 7.17264 45.5458 6.87269 44.963 6.81377ZM48.9007 11.9085L48.9815 12.4696V17.3872C48.9815 17.5188 48.9274 17.6389 48.84 17.7263C48.6398 17.9265 48.3017 17.8676 47.9414 17.8676C46.7969 15.3244 43.1698 15.3244 42.0254 17.8676H41.4112V6.80294H43.1665V11.0102C43.1665 11.5063 43.5687 11.9085 44.0648 11.9085H48.9008H48.9007ZM50.1944 10.4901C50.5783 11.0301 50.778 11.8048 50.778 12.4696V17.3872C50.778 18.6424 49.7562 19.6642 48.501 19.6642H48.1919C47.8135 22.2831 44.5821 23.3804 42.6908 21.4891C42.2082 21.0065 41.877 20.3723 41.7746 19.6642H31.5865C31.2081 22.2831 27.9766 23.3804 26.0854 21.4891C25.6027 21.0065 25.2716 20.3724 25.1693 19.6644H23.3923C22.8961 19.6644 22.4939 19.2622 22.4939 18.766V3.22839C22.4939 2.73227 22.8961 2.33008 23.3923 2.33008H40.5128C41.0089 2.33008 41.4111 2.73227 41.4111 3.22839V5.00645H44.7472C46.0301 5.00645 47.1676 5.63814 47.8481 6.72911L50.1943 10.4903L50.1944 10.4901ZM3.98657 40.5465H19.8437C20.3186 40.5465 20.752 40.7421 21.068 41.0572L21.0698 41.0554C21.3839 41.3694 21.5788 41.8034 21.5788 42.2814V58.1385C21.5788 59.0942 20.7963 59.8735 19.8439 59.8735H3.98657C3.51548 59.8735 3.06998 59.6768 2.76229 59.3628L2.76046 59.3646C2.44645 59.0506 2.25154 58.6166 2.25154 58.1387V42.2815C2.25154 41.3255 3.03046 40.5465 3.98643 40.5465H3.98657ZM6.5129 56.6117H9.8339C10.3281 56.6117 10.7287 56.2111 10.7287 55.7169C10.7287 55.2228 10.3281 54.8222 9.8339 54.8222H6.5129C6.01874 54.8222 5.6181 55.2228 5.6181 55.7169C5.6181 56.2111 6.01874 56.6117 6.5129 56.6117ZM10.7457 42.3431V44.7423L11.3432 44.0448C11.725 43.729 12.2906 43.7824 12.6065 44.164L13.0812 44.7381V42.3431H10.7457ZM14.8777 42.3431V47.2321C14.8777 48.0632 13.8167 48.4783 13.259 47.7688L11.915 46.1438L10.5421 47.8038C10.0166 48.4392 8.92181 48.0976 8.95598 47.1654V42.3429H4.04817V58.0768H19.782V42.3429H14.8776L14.8777 42.3431ZM58.96 46.3346V46.3314C56.8146 46.3804 55.7723 49.0125 57.3252 50.5128C58.2926 51.4474 59.8303 51.4244 60.7655 50.4565C61.1996 50.0072 61.4623 49.3932 61.4507 48.7213L61.4472 48.7072H61.4504C61.4353 48.0426 61.1534 47.4455 60.7092 47.0161C60.2599 46.582 59.6461 46.3193 58.9742 46.3308L58.9601 46.3343L58.96 46.3346ZM58.8772 40.5515C64.7817 40.4501 69.6452 45.1525 69.7468 51.0562C69.8482 56.9608 65.1457 61.8243 59.2421 61.9258C53.3375 62.0274 48.474 57.3247 48.3726 51.4211C48.2712 45.5164 52.9736 40.6531 58.8773 40.5517L58.8772 40.5515ZM65.7709 57.0806C62.7218 52.1013 55.429 52.2269 52.5531 57.3083C56.1575 61.1681 62.3026 61.0639 65.7709 57.0806ZM51.4015 55.7733C49.3473 52.3133 49.8912 47.9221 52.6618 45.0545C56.077 41.5197 61.7095 41.4262 65.2437 44.841C68.11 47.6105 68.8012 51.98 66.8683 55.507C65.6166 53.7926 63.8221 52.5395 61.7709 51.9682C62.6936 51.1752 63.2583 50 63.2403 48.7074H63.2437L63.2402 48.6933C63.2201 47.5254 62.729 46.4765 61.9512 45.725C61.1783 44.9783 60.1206 44.5252 58.96 44.5413V44.538L58.9459 44.5415C57.7779 44.5616 56.729 45.0528 55.9776 45.8305C54.25 47.6185 54.438 50.5064 56.3752 52.0614C54.3445 52.7031 52.5942 54.0161 51.4018 55.7733H51.4015ZM39.768 32.2125C39.4387 32.0755 39.0981 31.9599 38.7488 31.8665L38.7494 31.8644C38.3671 31.7626 38.0856 31.4141 38.0856 30.9999L38.0863 30.4015C38.0866 30.115 37.8484 29.8727 37.5605 29.8725L35.7363 29.8704C35.4499 29.8701 35.2076 30.1083 35.2073 30.3962L35.2067 30.9429C35.2313 31.3603 34.9598 31.7509 34.5399 31.8615C33.842 32.0457 33.182 32.3186 32.5565 32.6807C32.2128 32.8797 31.7655 32.8316 31.4723 32.5369L31.0494 32.1166L31.0511 32.1147C30.8502 31.9096 30.5069 31.9065 30.3082 32.1143L30.3064 32.1126L29.017 33.4024L29.0152 33.4007C28.81 33.6017 28.8067 33.945 29.0146 34.1437L29.0129 34.1455L29.4134 34.5471C29.7128 34.8256 29.7914 35.2833 29.5778 35.652C29.2164 36.275 28.9403 36.9377 28.7534 37.6369L28.7513 37.6364C28.6495 38.0186 28.3011 38.3001 27.8868 38.3001L27.2884 38.2994C27.002 38.2991 26.7597 38.5372 26.7594 38.8254L26.7573 40.6493C26.757 40.9357 26.9951 41.1782 27.2832 41.1786L27.83 41.1793C28.2472 41.1548 28.6379 41.4262 28.7484 41.8461C28.9326 42.5443 29.2054 43.2037 29.5677 43.8295C29.7667 44.1732 29.7186 44.6205 29.4238 44.9137L29 45.3367C28.7947 45.5416 28.7962 45.876 29.0012 46.0815L30.2894 47.3727C30.4944 47.5781 30.8286 47.5765 31.0341 47.3714L31.4339 46.9726C31.7123 46.6732 32.1701 46.5946 32.5388 46.8082C33.1618 47.1696 33.8245 47.4457 34.5237 47.6326L34.5232 47.6347C34.9054 47.7365 35.1869 48.085 35.1869 48.4992L35.1862 49.0977C35.1859 49.3842 35.4241 49.6265 35.7121 49.6268L37.536 49.6289C37.8226 49.6292 38.0649 49.3911 38.0654 49.1029L38.0661 48.5563C38.0416 48.139 38.313 47.7483 38.7329 47.6379C39.4308 47.4537 40.0909 47.1806 40.7164 46.8186C41.0601 46.6196 41.5074 46.6677 41.8006 46.9625L42.2235 47.3828L42.2218 47.3846C42.4226 47.5898 42.7662 47.593 42.9647 47.3852L42.9666 47.3869L44.2595 46.0969C44.4648 45.892 44.4632 45.5576 44.2582 45.3522L43.8594 44.9525C43.56 44.6741 43.4814 44.2164 43.695 43.8476C44.0565 43.2245 44.3323 42.562 44.5193 41.8627L44.5214 41.8633C44.6233 41.4811 44.9717 41.1995 45.386 41.1995L45.9844 41.2002C46.2708 41.2005 46.5131 40.9623 46.5134 40.6743L46.5155 38.8503C46.5158 38.5637 46.2774 38.3214 45.9897 38.3211L45.443 38.3205C45.0256 38.3451 44.6349 38.0736 44.5244 37.6537C44.3402 36.9557 44.0671 36.2957 43.7051 35.6702C43.5061 35.3265 43.5542 34.8791 43.849 34.5859L44.2728 34.1631C44.4783 33.958 44.4767 33.6238 44.2716 33.4182L42.9833 32.127C42.7784 31.9215 42.444 31.9232 42.2385 32.1281L41.8387 32.5269C41.5603 32.8263 41.1026 32.9049 40.7339 32.6913C40.4243 32.5114 40.1017 32.3515 39.7682 32.213L39.768 32.2125ZM39.8751 30.3357C39.8417 29.0845 38.8149 28.0841 37.5605 28.0826L35.7363 28.0805C34.4807 28.0789 33.4554 29.0803 33.4187 30.3294L32.2719 30.803C31.3606 29.94 29.916 29.9653 29.0378 30.8435L29.0395 30.8452L27.7466 32.1316L27.7484 32.1334C27.2971 32.5846 27.071 33.1781 27.0704 33.772C27.0697 34.4096 27.2812 34.868 27.699 35.3647L27.2226 36.51C25.9713 36.5436 24.9711 37.57 24.9695 38.8245L24.9674 40.6484C24.9659 41.9041 25.9671 42.9296 27.2163 42.9662L27.6899 44.113C26.8318 45.019 26.846 46.4571 27.7304 47.3436L29.0185 48.6348C29.9036 49.522 31.3426 49.5425 32.2507 48.6854L33.3969 49.1624C33.4305 50.4136 34.4569 51.414 35.7114 51.4155L37.5353 51.4176C38.7911 51.4192 39.8164 50.4178 39.8531 49.1687L41.0001 48.6951C41.9113 49.558 43.3559 49.5328 44.2341 48.6546L44.2325 48.6529L45.5219 47.3665C46.4089 46.4814 46.4296 45.0424 45.5725 44.1345L46.0493 42.9883C47.3005 42.955 48.3009 41.9281 48.3024 40.6736C48.304 39.4191 48.3045 38.8495 48.3045 38.8495C48.3061 37.5939 47.3047 36.5685 46.0555 36.5319L45.5819 35.3851C46.4399 34.4791 46.4259 33.041 45.5414 32.1545L44.2531 30.8633C43.3679 29.9761 41.9289 29.9556 41.021 30.8127L39.8748 30.3358L39.8751 30.3357ZM38.9994 37.3893C40.3031 38.696 40.3033 40.8083 38.996 42.1125C36.888 44.2155 33.292 42.7053 33.2954 39.7443C33.2987 36.7853 36.9004 35.2854 38.9994 37.3893ZM36.641 34.6188C39.4751 34.6221 41.7696 36.9181 41.7663 39.754C41.7631 42.5882 39.4671 44.8826 36.6311 44.8794C33.797 44.8762 31.5025 42.5802 31.5058 39.7442C31.509 36.91 33.805 34.6156 36.641 34.6188ZM13.6072 20.0283C13.6072 20.0206 13.6072 20.013 13.6076 20.0054L13.6072 20.0283ZM11.0431 33.0429C12.1056 28.9753 14.1335 25.2344 16.9139 22.1245L16.9386 23.2388C16.9483 23.7329 17.3566 24.1257 17.8509 24.116C18.3451 24.1063 18.7379 23.6979 18.7281 23.2036L18.6571 19.983C18.6576 19.4416 18.2406 19.0434 17.6989 19.0681L14.4846 19.139C14.2841 19.1435 14.2155 19.1962 14.1578 19.2075L13.8722 19.3982L13.8572 19.4135L13.8424 19.4292C13.8376 19.4344 13.8329 19.4399 13.8281 19.4453L13.8142 19.4616L13.8007 19.4782L13.7874 19.4952L13.7746 19.5125L13.7623 19.5301L13.7503 19.5479C13.7464 19.554 13.7426 19.56 13.7389 19.5662C13.7351 19.5723 13.7315 19.5784 13.7278 19.5848C13.7242 19.591 13.7206 19.5973 13.7173 19.6036C13.7137 19.6099 13.7104 19.6163 13.7071 19.6227L13.6974 19.6421L13.6882 19.6617L13.6793 19.6815C13.6765 19.6881 13.6737 19.6949 13.671 19.7016L13.6631 19.722L13.6557 19.7425L13.6488 19.7634C13.6465 19.7704 13.6446 19.7774 13.6424 19.7845L13.6365 19.8057L13.6312 19.8271C13.6295 19.8342 13.628 19.8415 13.6264 19.8487C13.6249 19.8559 13.6235 19.8632 13.6222 19.8705L13.6184 19.8926L13.6152 19.9148L13.6125 19.9372C13.6117 19.9446 13.6111 19.9522 13.6104 19.9597C13.6098 19.9673 13.6093 19.9747 13.6088 19.9823C13.6084 19.9899 13.6081 19.9975 13.6079 20.0051L13.6076 20.0512C13.6077 20.059 13.6079 20.0667 13.6083 20.0743C13.6086 20.082 13.6091 20.0896 13.6095 20.0972L13.6115 20.12C13.6122 20.1276 13.6131 20.135 13.6139 20.1426L13.6169 20.1651L13.6205 20.1873C13.6218 20.1948 13.623 20.2021 13.6246 20.2094L13.6292 20.2312C13.6308 20.2384 13.6326 20.2457 13.6343 20.2529C13.6361 20.26 13.6379 20.2672 13.6399 20.2743C13.6419 20.2814 13.6439 20.2885 13.6461 20.2955L13.6529 20.3164L13.66 20.3372L13.6678 20.3578L13.6759 20.378L13.6846 20.3981L13.6938 20.4178L13.7033 20.4374L13.7133 20.4566L13.7239 20.4756L13.7348 20.4943L13.7462 20.5128L13.758 20.5309C13.762 20.5368 13.7661 20.5428 13.7701 20.5486L13.7828 20.566C13.787 20.5718 13.7914 20.5776 13.7957 20.5832C13.8001 20.5888 13.8046 20.5945 13.8091 20.6001L13.8229 20.6165L13.8371 20.6327L13.8516 20.6485L13.8666 20.6639C13.8666 20.6639 14.1034 20.8889 14.3173 20.9097C14.7433 20.9512 15.172 20.9144 15.6007 20.9048C12.6212 24.2278 10.4435 28.2357 9.30993 32.5937C9.1859 33.0724 9.47334 33.5609 9.95202 33.685C10.4307 33.809 10.9191 33.5215 11.0431 33.0429ZM43.6285 65.2662C44.1052 65.1364 44.597 65.4175 44.7268 65.8943C44.8566 66.371 44.5755 66.8627 44.0987 66.9925C39.7789 68.1711 35.2184 68.312 30.8369 67.3945L31.3941 68.312C31.6499 68.7345 31.5148 69.2843 31.0923 69.5401C30.6699 69.7959 30.12 69.6608 29.8642 69.2383L28.1974 66.4928C27.9124 66.044 28.037 65.4886 28.4742 65.2235L31.2608 63.5316C31.6832 63.2758 32.2331 63.411 32.4889 63.8334C32.7447 64.2558 32.6095 64.8057 32.1871 65.0615L31.2262 65.6449C35.3153 66.4921 39.6091 66.3647 43.6286 65.2661L43.6285 65.2662ZM55.2326 20.9439C54.8799 20.5952 54.8768 20.0263 55.2255 19.6736C55.5743 19.321 56.1431 19.3179 56.4958 19.6666C59.6706 22.8065 62.0781 26.6762 63.477 30.9439L63.991 30.0065C64.2293 29.5724 64.7745 29.4138 65.2087 29.6521C65.6428 29.8905 65.8014 30.4357 65.563 30.8698L63.9955 33.7284C63.7571 34.1625 63.2119 34.3211 62.7778 34.0828L59.9193 32.5154C59.4852 32.277 59.3266 31.7318 59.5649 31.2977C59.8033 30.8636 60.3485 30.705 60.7826 30.9433L61.7698 31.4846C60.4574 27.4915 58.2124 23.8908 55.2326 20.9439Z" fill="black"/>
</g>
</svg>
