<svg width="61" height="60" viewBox="0 0 61 60" fill="none" xmlns="http://www.w3.org/2000/svg">
<path fill-rule="evenodd" clip-rule="evenodd" d="M41.1915 3.60409H12.7949C12.6029 3.60409 12.4472 3.75974 12.4472 3.95162V13.1586C12.4472 13.613 12.0783 13.9821 11.6237 13.9821C11.1692 13.9821 10.8002 13.613 10.8002 13.1586V3.95162C10.8002 2.85009 11.6932 1.95703 12.7949 1.95703H42.0156C42.2341 1.95703 42.4435 2.04374 42.5979 2.19821L50.049 9.64927C50.2035 9.80374 50.2902 10.0131 50.2902 10.2316V21.54C50.2902 21.9944 49.9212 22.3635 49.4666 22.3635C49.0122 22.3635 48.6431 21.9944 48.6431 21.54V11.0633L42.661 11.1224C42.6549 11.1224 42.6488 11.1224 42.6425 11.1224C41.8352 11.1123 41.1863 10.4547 41.1868 9.64727L41.1915 3.60409ZM47.4979 9.4275L42.8376 4.76715L42.8339 9.47362L47.4979 9.4275ZM58.9011 14.2301C59.0752 14.4477 59.1337 14.748 59.0319 15.0269L49.6822 40.6739C49.6288 40.8206 49.5366 40.9446 49.4205 41.0368C49.4109 41.046 49.3983 41.0581 49.3876 41.0686C48.8658 41.5793 46.4132 44.1472 46.4132 44.1472C46.1851 44.386 45.8364 44.4654 45.5274 44.3489C45.2183 44.2326 45.0088 43.9427 44.9949 43.6128C44.9949 43.6128 44.8399 39.9053 44.7899 39.1477C44.7884 39.1253 44.7865 39.1003 44.7854 39.0844C44.7645 38.9502 44.7769 38.8101 44.8255 38.6767L54.1752 13.0299C54.2529 12.8167 54.415 12.645 54.6235 12.5554C54.6715 12.5347 54.721 12.5188 54.7714 12.5077L55.0768 11.6701C55.3759 10.8495 56.2689 10.4656 57.069 10.8121L58.3664 11.3739C59.1172 11.699 59.4998 12.5879 59.2191 13.358L58.9011 14.2301ZM56.339 13.0164L57.4198 13.4844L57.6483 12.8577L56.5675 12.3897L56.339 13.0164ZM48.3901 39.4095L57.2186 15.1922L55.4234 14.4148L46.5937 38.635C47.1801 38.915 47.7791 39.1726 48.3901 39.4095ZM46.5031 40.4073C46.521 40.7928 46.5398 41.2128 46.5576 41.6164C46.8301 41.3331 47.1117 41.0409 47.3682 40.7759C47.0772 40.6576 46.7888 40.5348 46.5031 40.4073ZM6.62535 51.2817C6.195 51.9866 5.34606 52.3733 4.50135 52.1801L2.72735 51.7739C1.66865 51.5323 1.00324 50.4679 1.24488 49.412L3.45159 39.7757C3.69324 38.717 4.75771 38.0516 5.81347 38.2932L7.58806 38.6995C8.32771 38.8688 8.87724 39.4407 9.05665 40.1321H14.7002C15.1876 39.686 15.6539 39.3557 16.0891 39.1929C17.1534 38.7954 18.0003 38.8791 19.0462 39.3396C19.8899 39.711 20.897 40.3697 22.4014 41.2106C22.8646 41.4687 23.3738 41.5064 23.8602 41.2957L24.3724 41.0728L24.3696 41.0607C24.1281 40.0022 24.7963 38.941 25.8517 38.6995L27.6263 38.2932C28.6821 38.0516 29.7465 38.717 29.9879 39.7752L32.1949 49.4121C32.4365 50.4677 31.7711 51.5323 30.7131 51.7737L28.9399 52.1801C28.2172 52.3449 27.4929 52.0872 27.0287 51.5696L26.0807 51.9886C26.1971 52.703 25.9815 53.4624 25.4336 54.0102C25.077 54.3668 24.6312 54.5828 24.1665 54.658C24.1682 55.2556 23.9424 55.8536 23.4892 56.307C22.7122 57.086 21.5056 57.1941 20.6083 56.6301C20.4998 56.848 20.3551 57.052 20.1742 57.2329C19.2705 58.1366 17.7914 58.1366 16.8877 57.2329L16.4677 56.813C16.3626 57.0112 16.227 57.1969 16.0607 57.3632C15.1575 58.2664 13.6795 58.2664 12.7777 57.3649L6.62535 51.2817ZM8.90559 41.7791L7.14277 49.477L13.9372 56.1953C13.9387 56.1966 13.9401 56.198 13.9415 56.1994C14.2034 56.4621 14.6334 56.4612 14.8961 56.1986C15.1592 55.9353 15.1592 55.5046 14.8961 55.2413L13.1805 53.5259C12.8591 53.2044 12.8591 52.6826 13.1805 52.3612C13.5019 52.0397 14.0238 52.0397 14.3451 52.3612L18.0523 56.0683C18.3155 56.3315 18.7463 56.3315 19.0095 56.0683C19.2717 55.8061 19.273 55.3772 19.0118 55.1152L15.6375 51.7408C15.3161 51.4194 15.3161 50.8976 15.6375 50.5762C15.9589 50.2548 16.4808 50.2548 16.8021 50.5762C16.8021 50.5762 20.1765 53.9506 20.1782 53.9522L21.3688 55.1428C21.6315 55.4055 22.0615 55.4063 22.3234 55.1436L22.3242 55.1428C22.5874 54.8796 22.5874 54.4488 22.3242 54.1856C22.3021 54.1635 22.2815 54.1403 22.2623 54.1164C22.2236 54.0826 22.1857 54.0471 22.1489 54.0102L17.9035 49.7648C17.5821 49.4434 17.5821 48.9216 17.9035 48.6002C18.2248 48.2788 18.7466 48.2788 19.0681 48.6002L23.3135 52.8456C23.5764 53.1086 24.0061 53.1086 24.2689 52.8456C24.5322 52.5824 24.5322 52.1516 24.2689 51.8884L18.7612 46.3807L18.7606 46.3801C18.1832 45.8015 17.2938 45.723 16.6229 46.187C15.0905 47.2487 13.5155 48.0377 12.0278 47.6355C11.3432 47.4504 10.6574 47.0273 9.99924 46.2367C9.709 45.8881 9.75535 45.3703 10.103 45.0788C11.2184 44.1433 12.2363 42.8792 13.1691 41.7791H8.90559ZM24.7464 42.7063L24.5166 42.8063L24.5154 42.8069C23.5434 43.2281 22.5249 43.1651 21.5991 42.649L21.5984 42.6486C20.1548 41.8417 19.1921 41.2035 18.3824 40.847C17.7749 40.5795 17.2845 40.5047 16.6663 40.7355C16.1318 40.9356 15.5784 41.5281 14.9514 42.2354C14.0084 43.2989 12.9719 44.6324 11.8401 45.7268C13.0782 46.6019 14.3821 45.7357 15.6848 44.8332L15.6855 44.8328C17.0175 43.9116 18.7814 44.0692 19.9258 45.216L25.2603 50.5504L26.425 50.0357L24.7464 42.7063ZM26.1408 41.4164L28.1818 50.3292C28.2224 50.5042 28.3979 50.6143 28.5731 50.5744L30.3456 50.1682C30.5197 50.1284 30.6291 49.953 30.5894 49.7795L28.3824 40.1424C28.3428 39.9684 28.1674 39.859 27.9937 39.8988L26.2191 40.305C26.0454 40.3448 25.9356 40.5199 25.9754 40.6942L26.1203 41.327C26.1289 41.3567 26.1356 41.3866 26.1408 41.4164ZM5.44606 39.8988C5.27241 39.859 5.09712 39.9681 5.05735 40.1424L2.85041 49.7795C2.81065 49.953 2.91971 50.1283 3.09406 50.1681L4.86877 50.5744C5.043 50.6143 5.21747 50.5037 5.25794 50.3292L7.46441 40.6942C7.50418 40.5199 7.39441 40.3448 7.22053 40.305L5.44606 39.8988ZM12.4472 38.865C12.4472 39.3195 12.0783 39.6886 11.6237 39.6886C11.1692 39.6886 10.8002 39.3195 10.8002 38.865V35.7346C10.8002 35.2801 11.1692 34.911 11.6237 34.911C12.0783 34.911 12.4472 35.2801 12.4472 35.7346V38.865ZM48.6431 43.0577C48.6431 42.6033 49.0122 42.2342 49.4666 42.2342C49.9212 42.2342 50.2902 42.6033 50.2902 43.0577V49.3397C50.2902 49.8687 50.0801 50.3761 49.7059 50.7502C49.3319 51.1242 48.8245 51.3344 48.2955 51.3344H33.5062C33.0517 51.3344 32.6826 50.9654 32.6826 50.5109C32.6826 50.0563 33.0517 49.6874 33.5062 49.6874H48.2955C48.3877 49.6874 48.4762 49.6507 48.5414 49.5855C48.6065 49.5203 48.6431 49.4319 48.6431 49.3397V43.0577ZM33.9977 46.9399C33.5431 46.9399 33.1742 46.5709 33.1742 46.1163C33.1742 45.6619 33.5431 45.2928 33.9977 45.2928H43.0225C43.477 45.2928 43.8461 45.6619 43.8461 46.1163C43.8461 46.5709 43.477 46.9399 43.0225 46.9399H33.9977ZM35.5572 41.0501C35.8712 40.5526 36.2437 39.9603 36.3706 39.7502C36.5965 39.3763 37.1641 38.7437 37.8283 38.6668C38.3081 38.6114 38.9209 38.7506 39.4959 39.5953C39.6701 39.8509 39.8837 40.2387 40.1199 40.6108C40.289 40.877 40.4589 41.1447 40.6499 41.2815C40.8011 41.3897 40.9372 41.296 41.0711 41.2469C41.2515 41.1808 41.4305 41.1079 41.6102 41.0568C42.2303 40.8803 42.8606 40.8756 43.5451 41.5989C43.8575 41.929 43.843 42.4508 43.5129 42.7631C43.1828 43.0755 42.6611 43.0611 42.3486 42.7309C42.2349 42.6107 42.1302 42.6189 42.0271 42.651C41.8765 42.698 41.727 42.7623 41.5754 42.816C40.9762 43.0277 40.3663 43.1041 39.691 42.6207C39.1049 42.2009 38.5166 41.0835 38.1345 40.5221C38.0941 40.4628 38.0366 40.3997 37.9929 40.3549C37.9243 40.4269 37.8143 40.5459 37.7803 40.602C37.5497 40.9837 36.8678 42.183 36.4595 42.7213C36.2535 42.9928 36.051 43.1497 35.9359 43.2074C35.7055 43.3226 35.2955 43.4204 34.9098 43.001C34.8186 42.902 34.653 42.6088 34.4455 42.2982C34.3732 42.19 34.2175 42.0223 34.1552 41.9567C33.7561 41.9969 33.3764 41.7397 33.275 41.3393C33.1634 40.8987 33.4304 40.4504 33.8711 40.3388C34.2996 40.2302 34.7054 40.3264 35.0697 40.5768C35.245 40.6973 35.4094 40.8675 35.5572 41.0501ZM16.481 9.2448C16.0264 9.2448 15.6575 8.87574 15.6575 8.42127C15.6575 7.96668 16.0264 7.59774 16.481 7.59774H30.4195C30.8739 7.59774 31.243 7.96668 31.243 8.42127C31.243 8.87574 30.8739 9.2448 30.4195 9.2448H16.481ZM16.481 14.4517C16.0264 14.4517 15.6575 14.0828 15.6575 13.6282C15.6575 13.1737 16.0264 12.8047 16.481 12.8047H36.6723C37.1268 12.8047 37.4958 13.1737 37.4958 13.6282C37.4958 14.0828 37.1268 14.4517 36.6723 14.4517H16.481ZM21.3937 19.6588C20.9391 19.6588 20.5702 19.2897 20.5702 18.8353C20.5702 18.3807 20.9391 18.0117 21.3937 18.0117H44.6095C45.0639 18.0117 45.433 18.3807 45.433 18.8353C45.433 19.2897 45.0639 19.6588 44.6095 19.6588H21.3937ZM21.3937 24.8657C20.9391 24.8657 20.5702 24.4967 20.5702 24.0422C20.5702 23.5877 20.9391 23.2187 21.3937 23.2187H44.6095C45.0639 23.2187 45.433 23.5877 45.433 24.0422C45.433 24.4967 45.0639 24.8657 44.6095 24.8657H21.3937ZM20.3511 30.0727C19.8965 30.0727 19.5276 29.7037 19.5276 29.2491C19.5276 28.7947 19.8965 28.4256 20.3511 28.4256H44.6095C45.0639 28.4256 45.433 28.7947 45.433 29.2491C45.433 29.7037 45.0639 30.0727 44.6095 30.0727H20.3511ZM16.481 35.2797C16.0264 35.2797 15.6575 34.9107 15.6575 34.4562C15.6575 34.0016 16.0264 33.6327 16.481 33.6327H44.6095C45.0639 33.6327 45.433 34.0016 45.433 34.4562C45.433 34.9107 45.0639 35.2797 44.6095 35.2797H16.481ZM4.27194 18.009C4.81971 17.9656 5.62183 17.6701 6.48347 17.2994C8.68265 16.3532 11.2057 14.866 11.2057 14.866C11.4637 14.714 11.7838 14.714 12.0417 14.866C12.0417 14.866 14.5649 16.3532 16.7639 17.2994C17.6256 17.6701 18.4278 17.9656 18.9756 18.009C19.4038 18.043 19.7339 18.4004 19.7339 18.83V24.9904C19.7339 27.2571 18.6082 29.3539 17.0279 30.9881C15.4846 32.5841 13.5166 33.7315 11.837 34.182C11.6972 34.2194 11.5501 34.2194 11.4103 34.1819C9.73135 33.7315 7.76335 32.5841 6.21983 30.9881C4.63947 29.354 3.51347 27.2571 3.51347 24.9904V18.83C3.51347 18.4004 3.84371 18.043 4.27194 18.009ZM5.16053 19.5147V24.9904C5.16053 26.8321 6.11983 28.5154 7.40383 29.8432C8.65994 31.142 10.2363 32.1068 11.6238 32.5299C13.0116 32.1068 14.5879 31.142 15.8439 29.8432C17.1278 28.5154 18.0869 26.8321 18.0869 24.9904C18.0869 24.9904 18.0869 19.5147 18.087 19.5147C17.5101 19.3681 16.8256 19.1189 16.113 18.8123C14.3804 18.0668 12.4539 16.9989 11.6237 16.5261C10.7935 16.9989 8.867 18.0668 7.13441 18.8123C6.42194 19.1189 5.73747 19.3681 5.16053 19.5147ZM7.95641 24.3616C7.63559 24.0396 7.63653 23.5177 7.95853 23.1969C8.28053 22.8762 8.80241 22.8771 9.12324 23.1992L10.9992 25.0821L14.3303 21.5664C14.643 21.2366 15.1646 21.2224 15.4945 21.5351C15.8245 21.8477 15.8385 22.3694 15.5259 22.6994L11.6118 26.8302C11.4588 26.9917 11.2469 27.0844 11.0244 27.0873C10.8019 27.0901 10.5877 27.0027 10.4306 26.845L7.95641 24.3616Z" fill="#CFA935"/>
</svg>
