<svg width="72" height="73" viewBox="0 0 72 73" fill="none" xmlns="http://www.w3.org/2000/svg">
<g clip-path="url(#clip0_19983_26993)">
<g clip-path="url(#clip1_19983_26993)">
<path d="M34.6567 18.3494C34.9808 18.7685 35.4703 19.0089 35.9999 19.0089H36C36.5295 19.0089 37.0191 18.7686 37.3433 18.3493L41.6066 12.832C42.0061 12.3152 42.0763 11.6316 41.7895 11.0477C41.5011 10.4606 40.9165 10.096 40.2645 10.096C40.2642 10.096 40.2637 10.096 40.2635 10.096H39.2812V2.25023C39.2812 1.21622 38.4398 0.375 37.4058 0.375H34.5942C33.56 0.375 32.7188 1.21622 32.7188 2.25038V10.0961H31.7374C31.737 10.0961 31.7367 10.0961 31.7364 10.0961C31.0836 10.0961 30.499 10.4608 30.2105 11.0477C29.9237 11.6313 29.9936 12.315 30.393 12.8318L34.6567 18.3494ZM33.8438 12.346C34.4651 12.346 34.9688 11.8423 34.9688 11.221V2.62486H37.0312V11.221C37.0312 11.8423 37.5349 12.346 38.1562 12.346H39.1386L36 16.4078L32.8612 12.346H33.8438ZM49.3765 24.5515C49.4494 24.5515 49.5229 24.5469 49.5965 24.5373L56.5127 23.6508C57.1604 23.5679 57.6934 23.134 57.9033 22.5185C58.1147 21.8993 57.959 21.2277 57.4972 20.7662L56.8027 20.0718L62.3503 14.5241C62.7041 14.1705 62.8989 13.6996 62.8989 13.1982C62.8989 12.6967 62.7041 12.2256 62.3503 11.8718L60.3622 9.88364C59.6309 9.15253 58.4412 9.15253 57.7101 9.88364L52.1623 15.4314L51.4682 14.7372C51.0065 14.2752 50.3355 14.1197 49.7156 14.3305C49.1002 14.5404 48.6664 15.0734 48.5834 15.7211L47.6968 22.6378C47.6294 23.1633 47.8056 23.6795 48.1801 24.0539C48.5021 24.3762 48.9289 24.5515 49.3765 24.5515ZM50.6721 17.1233L51.3668 17.818C51.5777 18.0291 51.8639 18.1476 52.1623 18.1476C52.4607 18.1476 52.7469 18.0291 52.9578 17.8181L59.0362 11.7396L60.4946 13.1979L54.4162 19.2764C54.2053 19.4875 54.0868 19.7735 54.0868 20.0719C54.0868 20.3703 54.2053 20.6564 54.4162 20.8674L55.1111 21.5621L50.0195 22.2149L50.6721 17.1233ZM71.8594 34.8285C71.8594 33.7944 71.0182 32.9532 69.984 32.9532L62.1383 32.953V31.9716C62.1387 31.3183 61.774 30.7333 61.1865 30.4447C60.6029 30.1578 59.9192 30.228 59.4025 30.6274L53.885 34.891C53.4658 35.215 53.2252 35.7044 53.2252 36.234C53.2252 36.7637 53.4655 37.2532 53.885 37.5776L59.4022 41.841C59.7081 42.0775 60.0723 42.1984 60.4398 42.1984C60.6932 42.1984 60.9481 42.1409 61.1864 42.0239C61.7738 41.7353 62.1385 41.1503 62.1383 40.4977V39.5154L69.984 39.5156C71.0182 39.5156 71.8594 38.6742 71.8594 37.6401V34.8285ZM61.0133 37.2656C60.7148 37.2656 60.4287 37.3841 60.2177 37.5951C60.0068 37.8061 59.8883 38.0922 59.8883 38.3906V39.3731L55.8264 36.2344L59.8883 33.0958V34.0782C59.8883 34.6995 60.392 35.2032 61.0133 35.2032H69.6094V37.2656H61.0133ZM56.8027 52.3967L57.4968 51.7026C57.9589 51.2409 58.1147 50.5693 57.9033 49.95C57.6932 49.3344 57.1604 48.9006 56.5127 48.8178L49.5962 47.9309C49.0704 47.8642 48.5543 48.0397 48.18 48.4143C47.8055 48.7888 47.6294 49.305 47.6968 49.8307L48.5834 56.7471C48.6664 57.3948 49.1003 57.9278 49.7157 58.1376C50.3355 58.3491 51.0067 58.1933 51.4678 57.7314L52.1623 57.0369L57.7098 62.5845C58.0636 62.9384 58.5345 63.1331 59.0359 63.1333H59.0361C59.5375 63.1333 60.0086 62.9382 60.3622 62.5847L62.3503 60.5965C63.0814 59.8654 63.0814 58.6757 62.3503 57.9443L56.8027 52.3967ZM59.0362 60.729L52.9578 54.6505C52.7469 54.4395 52.4607 54.321 52.1623 54.321C51.8639 54.321 51.5777 54.4395 51.3668 54.6506L50.672 55.3453L50.0192 50.2536L55.1108 50.9065L54.4161 51.601C54.2052 51.812 54.0866 52.0981 54.0866 52.3965C54.0866 52.6948 54.2052 52.981 54.4161 53.1921L60.4945 59.2704L59.0362 60.729ZM37.3433 54.1196C37.0192 53.7003 36.5297 53.4597 36 53.4597C36 53.4597 36 53.4597 35.9999 53.4597C35.4703 53.4597 34.9806 53.7001 34.6566 54.1195L30.393 59.6369C29.9936 60.1537 29.9237 60.8371 30.2103 61.4209C30.4987 62.0081 31.0833 62.3728 31.7358 62.3728H31.7362H32.7185V70.2184C32.7185 71.2525 33.5597 72.0939 34.5939 72.0939L37.4057 72.0938C38.4398 72.0938 39.2811 71.2525 39.2811 70.2184V62.3728H40.2625H40.2635C40.9162 62.3728 41.501 62.0081 41.7894 61.421C42.0761 60.8374 42.0061 60.1536 41.6067 59.6369L37.3433 54.1196ZM38.1562 60.1228C37.5349 60.1228 37.0312 60.6265 37.0312 61.2478V69.8438H34.9688V61.2476C34.9688 60.6263 34.4651 60.1226 33.8438 60.1226H32.8612L36 56.061L39.1388 60.1228H38.1562ZM22.4034 47.9313L15.4872 48.8178C14.8395 48.9007 14.3065 49.3347 14.0965 49.9501C13.8852 50.5694 14.0408 51.241 14.5027 51.7021L15.1972 52.3968L9.64927 57.9445C8.91816 58.6759 8.91816 59.8657 9.64941 60.5967L11.6376 62.5848C12.0032 62.9503 12.4833 63.133 12.9635 63.133C13.4437 63.133 13.924 62.9502 14.2897 62.5848L19.8375 57.037L20.5317 57.7313C20.9933 58.1934 21.6648 58.3491 22.2843 58.138C22.8997 57.928 23.3335 57.3951 23.4165 56.7473L24.3031 49.8307C24.3705 49.305 24.1941 48.7887 23.8196 48.4143C23.445 48.0398 22.9285 47.8634 22.4034 47.9313ZM21.3278 55.3455L20.6331 54.6508C20.4221 54.4397 20.136 54.3211 19.8375 54.3211C19.5391 54.3211 19.253 54.4397 19.042 54.6506L12.9637 60.7291L11.5052 59.2707L17.5837 53.1925C18.0231 52.7532 18.0232 52.0409 17.5837 51.6016L16.8891 50.9068L21.9807 50.254L21.3278 55.3455ZM9.86161 40.497C9.86119 41.1503 10.226 41.7353 10.8134 42.0239C11.0517 42.1409 11.3067 42.1986 11.5602 42.1986C11.9275 42.1986 12.2917 42.0776 12.5973 41.8412L18.1149 37.5776C18.5342 37.2536 18.7747 36.764 18.7747 36.2344C18.7747 35.7046 18.5342 35.215 18.1149 34.891L12.5973 30.6274C12.0805 30.228 11.3968 30.158 10.8132 30.4448C10.226 30.7334 9.86133 31.3183 9.86161 31.9708V32.953H2.016C0.981844 32.9532 0.140625 33.7944 0.140625 34.8284V37.6401C0.140625 38.6742 0.981844 39.5154 2.016 39.5154L9.86175 39.5156L9.86161 40.497ZM2.39062 37.2656V35.2032H10.9866C11.6079 35.2032 12.1116 34.6995 12.1116 34.0782V33.0958L16.1734 36.2344L12.1116 39.3731V38.3907C12.1116 37.7694 11.6079 37.2657 10.9866 37.2657L2.39062 37.2656ZM15.1973 20.0719L14.5032 20.766C14.041 21.2276 13.8852 21.8992 14.0965 22.5187C14.3065 23.1342 14.8395 23.5681 15.4872 23.651L22.4037 24.5378C22.4772 24.547 22.5506 24.5518 22.6235 24.5518C23.0711 24.5518 23.4979 24.3765 23.8199 24.0543C24.1944 23.6799 24.3705 23.1637 24.3031 22.638L23.4165 15.7217C23.3335 15.074 22.8995 14.541 22.2841 14.3312C21.6648 14.12 20.9933 14.2756 20.5321 14.7373L19.8375 15.4319L14.2897 9.88392C13.5586 9.15281 12.369 9.15309 11.6377 9.88392L9.64941 11.8724C8.91858 12.6035 8.91858 13.7932 9.64955 14.5244L15.1973 20.0719ZM12.9637 11.7396L19.042 17.8181C19.253 18.0292 19.5391 18.1478 19.8375 18.1478C20.136 18.1478 20.4221 18.0292 20.6331 17.8181L21.3279 17.1234L21.9805 22.215L16.8889 21.5623L17.5837 20.8676C18.0231 20.4281 18.0231 19.716 17.5837 19.2765L11.5054 13.198L12.9637 11.7396ZM36 20.8738C27.5302 20.8738 20.6395 27.7645 20.6395 36.2342C20.6395 44.7039 27.5302 51.5947 36 51.5947C44.4697 51.5947 51.3605 44.7039 51.3605 36.2342C51.3605 27.7645 44.4698 20.8738 36 20.8738ZM28.2213 46.781C29.9832 44.2314 32.8847 42.6822 36.0001 42.6822C39.1155 42.6822 42.0171 44.2314 43.7789 46.7808C41.6014 48.3913 38.9101 49.3448 36 49.3448C33.09 49.3448 30.3988 48.3913 28.2213 46.781ZM36 39.8801C33.4675 39.8801 31.4072 37.8199 31.4072 35.2874C31.4072 32.7549 33.4675 30.6947 36 30.6947C38.5324 30.6947 40.5927 32.7549 40.5927 35.2874C40.5927 37.8199 38.5325 39.8801 36 39.8801ZM45.4756 45.286C44.026 43.2862 41.9985 41.8096 39.7008 41.0384C41.5891 39.819 42.8427 37.6976 42.8427 35.2874C42.8427 31.5143 39.773 28.4447 36 28.4447C32.2269 28.4447 29.1572 31.5143 29.1572 35.2874C29.1572 37.6976 30.4109 39.819 32.2992 41.0384C30.0015 41.8096 27.974 43.2863 26.5244 45.2861C24.2738 42.9311 22.8895 39.7413 22.8895 36.2344C22.8895 29.0053 28.7709 23.1239 36 23.1239C43.2291 23.1239 49.1105 29.0053 49.1105 36.2344C49.1105 39.7413 47.7263 42.9309 45.4756 45.286Z" fill="#CFA935"/>
</g>
</g>
<defs>
<clipPath id="clip0_19983_26993">
<rect width="72" height="72" fill="white" transform="translate(0 0.234375)"/>
</clipPath>
<clipPath id="clip1_19983_26993">
<rect width="72" height="72" fill="white" transform="translate(0 0.234375)"/>
</clipPath>
</defs>
</svg>
