<svg width="24" height="24" viewBox="0 0 24 24" fill="none" xmlns="http://www.w3.org/2000/svg">
<path d="M20.9994 14.4H23.9993V24H11.9996V14.4H14.9995V11.2H20.9994V14.4ZM16.4995 14.4H19.4994V12.8H16.4995V14.4ZM22.4993 19.2H20.9994V20.8H19.4994V19.2H16.4995V20.8H14.9995V19.2H13.4996V22.4H22.4993V19.2ZM13.4996 16V17.6H22.4993V16H13.4996ZM10.4997 9.6C10.4997 10.375 10.3395 11.1 10.0192 11.775C9.69892 12.45 9.24191 13.0167 8.64817 13.475C8.99973 13.6667 9.33175 13.8875 9.64424 14.1375C9.95673 14.3875 10.2419 14.6667 10.4997 14.975V19.2C10.4997 18.5417 10.3825 17.9208 10.1481 17.3375C9.91376 16.7542 9.59346 16.2458 9.18722 15.8125C8.78098 15.3792 8.30053 15.0333 7.74586 14.775C7.19119 14.5167 6.60917 14.3917 5.99982 14.4C5.37484 14.4 4.79282 14.525 4.25378 14.775C3.71473 15.025 3.23818 15.3667 2.82413 15.8C2.41008 16.2333 2.08587 16.7458 1.85151 17.3375C1.61714 17.9292 1.49995 18.55 1.49995 19.2H0C0 18.5917 0.0781226 18.0042 0.234368 17.4375C0.390613 16.8708 0.613263 16.3333 0.902316 15.825C1.19137 15.3167 1.54683 14.8667 1.96869 14.475C2.39055 14.0833 2.85148 13.7458 3.35146 13.4625C2.76554 13.0125 2.31243 12.45 1.99213 11.775C1.67182 11.1 1.50777 10.375 1.49995 9.6C1.49995 8.94167 1.61714 8.32083 1.85151 7.7375C2.08587 7.15417 2.40618 6.64583 2.81241 6.2125C3.21865 5.77917 3.6952 5.43333 4.24206 5.175C4.78892 4.91667 5.37484 4.79167 5.99982 4.8C6.5623 4.8 7.09744 4.90417 7.60524 5.1125C8.11303 5.32083 8.57786 5.62917 8.99973 6.0375C9.24972 5.79583 9.52705 5.58333 9.83173 5.4C9.56611 5.10833 9.363 4.77083 9.22237 4.3875C9.08175 4.00417 9.00754 3.60833 8.99973 3.2C8.99973 2.75833 9.07785 2.34583 9.23409 1.9625C9.39034 1.57917 9.60518 1.2375 9.8786 0.9375C10.152 0.6375 10.4684 0.408333 10.8278 0.25C11.1872 0.0916667 11.5778 0.00833333 11.9996 0C12.4137 0 12.8004 0.0833333 13.1598 0.25C13.5191 0.416667 13.8394 0.645833 14.1207 0.9375C14.4019 1.22917 14.6167 1.56667 14.7652 1.95C14.9136 2.33333 14.9917 2.75 14.9995 3.2C14.9995 3.60833 14.9292 4.00417 14.7886 4.3875C14.648 4.77083 14.441 5.10833 14.1675 5.4C14.816 5.78333 15.3433 6.3 15.7495 6.95C16.1558 6.3 16.6831 5.78333 17.3315 5.4C17.0659 5.10833 16.8628 4.77083 16.7221 4.3875C16.5815 4.00417 16.5073 3.60833 16.4995 3.2C16.4995 2.75833 16.5776 2.34583 16.7339 1.9625C16.8901 1.57917 17.1049 1.2375 17.3784 0.9375C17.6518 0.6375 17.9682 0.408333 18.3276 0.25C18.6869 0.0916667 19.0775 0.00833333 19.4994 0C19.9135 0 20.3002 0.0833333 20.6595 0.25C21.0189 0.416667 21.3392 0.645833 21.6204 0.9375C21.9017 1.22917 22.1165 1.56667 22.2649 1.95C22.4134 2.33333 22.4915 2.75 22.4993 3.2C22.4993 3.60833 22.429 4.00417 22.2884 4.3875C22.1478 4.77083 21.9407 5.10833 21.6673 5.4C22.0267 5.60833 22.3509 5.8625 22.6399 6.1625C22.929 6.4625 23.1712 6.79167 23.3665 7.15C23.5618 7.50833 23.718 7.9 23.8352 8.325C23.9524 8.75 24.0071 9.175 23.9993 9.6H22.4993C22.4993 9.15833 22.4212 8.74583 22.2649 8.3625C22.1087 7.97917 21.8939 7.6375 21.6204 7.3375C21.347 7.0375 21.0306 6.80833 20.6712 6.65C20.3119 6.49167 19.9213 6.40833 19.4994 6.4C19.0854 6.4 18.6986 6.48333 18.3393 6.65C17.9799 6.81667 17.6596 7.04583 17.3784 7.3375C17.0971 7.62917 16.8823 7.96667 16.7339 8.35C16.5854 8.73333 16.5073 9.15 16.4995 9.6H14.9995C14.9995 9.15833 14.9214 8.74583 14.7652 8.3625C14.6089 7.97917 14.3941 7.6375 14.1207 7.3375C13.8472 7.0375 13.5308 6.80833 13.1715 6.65C12.8121 6.49167 12.4215 6.40833 11.9996 6.4C11.6168 6.4 11.2458 6.475 10.8864 6.625C10.527 6.775 10.2106 6.99583 9.9372 7.2875C10.1247 7.6375 10.2653 8.00833 10.3591 8.4C10.4528 8.79167 10.4997 9.19167 10.4997 9.6ZM19.4994 1.6C19.2885 1.6 19.0932 1.64167 18.9135 1.725C18.7338 1.80833 18.5776 1.92083 18.4447 2.0625C18.3119 2.20417 18.2026 2.375 18.1166 2.575C18.0307 2.775 17.9916 2.98333 17.9995 3.2C17.9995 3.425 18.0385 3.63333 18.1166 3.825C18.1948 4.01667 18.3002 4.18333 18.433 4.325C18.5658 4.46667 18.726 4.58333 18.9135 4.675C19.101 4.76667 19.2963 4.80833 19.4994 4.8C19.7103 4.8 19.9056 4.75833 20.0853 4.675C20.265 4.59167 20.4213 4.47917 20.5541 4.3375C20.6869 4.19583 20.7962 4.025 20.8822 3.825C20.9681 3.625 21.0072 3.41667 20.9994 3.2C20.9994 2.975 20.9603 2.76667 20.8822 2.575C20.8041 2.38333 20.6986 2.21667 20.5658 2.075C20.433 1.93333 20.2728 1.81667 20.0853 1.725C19.8978 1.63333 19.7025 1.59167 19.4994 1.6ZM11.9996 1.6C11.7887 1.6 11.5934 1.64167 11.4137 1.725C11.234 1.80833 11.0778 1.92083 10.945 2.0625C10.8122 2.20417 10.7028 2.375 10.6169 2.575C10.5309 2.775 10.4919 2.98333 10.4997 3.2C10.4997 3.425 10.5387 3.63333 10.6169 3.825C10.695 4.01667 10.8005 4.18333 10.9333 4.325C11.0661 4.46667 11.2262 4.58333 11.4137 4.675C11.6012 4.76667 11.7965 4.80833 11.9996 4.8C12.2106 4.8 12.4059 4.75833 12.5856 4.675C12.7652 4.59167 12.9215 4.47917 13.0543 4.3375C13.1871 4.19583 13.2965 4.025 13.3824 3.825C13.4683 3.625 13.5074 3.41667 13.4996 3.2C13.4996 2.975 13.4605 2.76667 13.3824 2.575C13.3043 2.38333 13.1988 2.21667 13.066 2.075C12.9332 1.93333 12.773 1.81667 12.5856 1.725C12.3981 1.63333 12.2028 1.59167 11.9996 1.6ZM5.99982 12.8C6.41387 12.8 6.80057 12.7167 7.15994 12.55C7.5193 12.3833 7.8396 12.1542 8.12085 11.8625C8.40209 11.5708 8.61692 11.2333 8.76536 10.85C8.91379 10.4667 8.99191 10.05 8.99973 9.6C8.99973 9.15833 8.9216 8.74583 8.76536 8.3625C8.60911 7.97917 8.39427 7.6375 8.12085 7.3375C7.84742 7.0375 7.53102 6.80833 7.17166 6.65C6.81229 6.49167 6.42168 6.40833 5.99982 6.4C5.58577 6.4 5.19906 6.48333 4.8397 6.65C4.48033 6.81667 4.16003 7.04583 3.87879 7.3375C3.59755 7.62917 3.38271 7.96667 3.23428 8.35C3.08584 8.73333 3.00772 9.15 2.99991 9.6C2.99991 10.0417 3.07803 10.4542 3.23428 10.8375C3.39052 11.2208 3.60536 11.5625 3.87879 11.8625C4.15222 12.1625 4.46861 12.3917 4.82798 12.55C5.18734 12.7083 5.57795 12.7917 5.99982 12.8Z" fill="#CFA935"/>
</svg>
