<svg width="24" height="26" viewBox="0 0 24 26" fill="none" xmlns="http://www.w3.org/2000/svg">
<path fill-rule="evenodd" clip-rule="evenodd" d="M15.3803 13.4725C15.185 12.9199 14.8232 12.4415 14.3447 12.1032C13.8662 11.7649 13.2945 11.5832 12.7085 11.5833V10.875H11.2918V11.5833C10.5404 11.5833 9.81971 11.8818 9.28836 12.4132C8.75701 12.9446 8.4585 13.6652 8.4585 14.4167C8.4585 15.1681 8.75701 15.8888 9.28836 16.4201C9.81971 16.9515 10.5404 17.25 11.2918 17.25V20.0833C10.6756 20.0833 10.1507 19.6902 9.9552 19.1391C9.9262 19.049 9.87941 18.9655 9.8176 18.8938C9.75579 18.822 9.68021 18.7634 9.59534 18.7213C9.51048 18.6793 9.41804 18.6547 9.3235 18.649C9.22896 18.6433 9.13424 18.6566 9.04494 18.6882C8.95564 18.7197 8.87357 18.7689 8.80359 18.8327C8.73361 18.8965 8.67714 18.9737 8.63752 19.0597C8.59791 19.1458 8.57594 19.2389 8.57293 19.3335C8.56992 19.4282 8.58592 19.5225 8.62 19.6109C8.81529 20.1634 9.17712 20.6418 9.65563 20.9801C10.1341 21.3185 10.7058 21.5001 11.2918 21.5V22.2083H12.7085V21.5C13.4599 21.5 14.1806 21.2015 14.712 20.6701C15.2433 20.1388 15.5418 19.4181 15.5418 18.6667C15.5418 17.9152 15.2433 17.1946 14.712 16.6632C14.1806 16.1318 13.4599 15.8333 12.7085 15.8333V13C13.0015 12.9999 13.2873 13.0907 13.5265 13.2598C13.7658 13.4289 13.9467 13.668 14.0444 13.9442C14.107 14.1214 14.2373 14.2664 14.4068 14.3474C14.4908 14.3876 14.5818 14.4108 14.6747 14.4157C14.7676 14.4207 14.8605 14.4073 14.9482 14.3763C15.036 14.3453 15.1167 14.2974 15.1859 14.2352C15.2551 14.173 15.3114 14.0978 15.3515 14.0139C15.3916 13.9299 15.4148 13.8389 15.4197 13.746C15.4247 13.6531 15.4113 13.5602 15.3803 13.4725ZM11.2918 13C10.9161 13 10.5558 13.1493 10.2901 13.4149C10.0244 13.6806 9.87516 14.0409 9.87516 14.4167C9.87516 14.7924 10.0244 15.1527 10.2901 15.4184C10.5558 15.6841 10.9161 15.8333 11.2918 15.8333V13ZM12.7085 20.0833C13.0842 20.0833 13.4446 19.9341 13.7102 19.6684C13.9759 19.4027 14.1252 19.0424 14.1252 18.6667C14.1252 18.2909 13.9759 17.9306 13.7102 17.6649C13.4446 17.3993 13.0842 17.25 12.7085 17.25V20.0833Z" fill="#CFA935"/>
<path fill-rule="evenodd" clip-rule="evenodd" d="M4.31686 2.10654C6.05511 1.25583 8.90686 0.25 12.0278 0.25C15.0835 0.25 17.8602 1.21404 19.5892 2.05342L19.687 2.10087C20.2083 2.35871 20.6291 2.60238 20.9251 2.8L18.3086 6.625C24.3407 12.7917 29.0002 25.7479 12.0278 25.7479C-4.9446 25.7479 -0.410559 13.0269 5.67402 6.625L3.07444 2.8C3.2749 2.66896 3.52919 2.51667 3.83236 2.35517C3.98252 2.27442 4.14402 2.19107 4.31686 2.10654ZM16.627 6.57471L18.7215 3.51258C16.7736 3.65283 14.4559 4.11042 12.2247 4.75642C10.6309 5.21683 8.86011 5.14671 7.22032 4.84425C6.80708 4.76774 6.39669 4.67654 5.98994 4.57083L7.34994 6.57329C10.2647 7.611 13.7115 7.611 16.627 6.57471ZM6.53182 7.77958C9.94244 9.09708 14.0416 9.09708 17.4522 7.77817C18.8755 9.27921 20.0664 10.9846 20.9854 12.8378C21.943 14.7914 22.4644 16.7442 22.3794 18.4272C22.2972 20.0515 21.6583 21.4391 20.1991 22.4704C18.6783 23.545 16.1205 24.3312 12.0271 24.3312C7.92936 24.3312 5.35952 23.5584 3.82457 22.4959C2.35477 21.478 1.70948 20.1088 1.61811 18.5066C1.52248 16.842 2.03248 14.899 2.98661 12.932C3.89682 11.0563 5.16686 9.25079 6.53182 7.77958ZM5.71723 3.02383C6.2839 3.19242 6.87607 3.33904 7.47673 3.45025C8.99965 3.73075 10.5268 3.77183 11.8301 3.39429C13.3489 2.95166 14.8937 2.60367 16.4556 2.35233C15.1522 1.95992 13.6279 1.66667 12.0271 1.66667C9.58686 1.66667 7.31098 2.34738 5.71723 3.02383Z" fill="#CFA935"/>
</svg>
