<svg width="90" height="90" viewBox="0 0 90 90" fill="none" xmlns="http://www.w3.org/2000/svg">
<path fill-rule="evenodd" clip-rule="evenodd" d="M66.576 5.07592L73.5531 23.0733C73.8904 23.9436 73.4545 24.9315 72.5842 25.269L69.1196 26.6121C68.2493 26.9494 67.2614 26.5135 66.9239 25.6434L59.9471 7.64585C59.6098 6.77555 60.0457 5.78766 60.916 5.45016L64.3807 4.10702C65.2508 3.76987 66.2387 4.20581 66.576 5.07592ZM47.9819 39.5702L47.1372 41.1498L47.9279 41.5996C48.6156 41.9777 49.4952 41.6878 49.8803 41.0199C50.315 40.3176 50.0037 39.3657 49.3029 38.9729C49.0039 38.8052 48.7033 38.6113 48.3988 38.4389C48.3143 38.8266 48.1758 39.2075 47.9819 39.5702ZM43.0721 36.3588L40.8151 40.6968C40.7803 41.3025 41.0948 41.8865 41.6328 42.1742C42.3901 42.5792 43.3499 42.2915 43.7552 41.5335L45.5102 38.252C45.9128 37.499 45.6169 36.529 44.8693 36.1296C44.2901 35.8201 43.5562 35.9192 43.0721 36.3588ZM37.9847 33.6435L35.4784 38.497C35.4626 39.0899 35.7732 39.6424 36.2987 39.9237C36.9569 40.2756 37.7932 40.0998 38.2592 39.519L40.5868 35.0457C40.6891 34.3943 40.3711 33.723 39.7857 33.4105C39.2049 33.1009 38.4688 33.2011 37.9847 33.6435ZM33.044 30.8034C33.529 30.458 34.1753 30.4106 34.7023 30.6918C35.2908 31.0059 35.609 31.6827 35.5018 32.337L32.8926 37.3894C32.4349 38.172 31.582 38.5417 30.7407 38.0919C29.9827 37.6865 29.695 36.7269 30.1 35.9695C31.036 34.2196 32.0506 32.5228 33.044 30.8034ZM29.9915 27.2771C29.2343 26.873 28.2747 27.1599 27.8693 27.9178C27.2592 29.0586 26.6492 30.1993 26.0389 31.3401C25.6341 32.097 25.9215 33.0561 26.6786 33.4618C27.2008 33.7353 27.8442 33.6935 28.3281 33.3568L30.7036 29.2455C30.9984 28.5135 30.6889 27.6492 29.9915 27.2771ZM33.4662 16.6859C35.9938 15.2108 38.3923 13.5043 40.4556 11.4192C40.7887 11.0825 41.1336 10.7531 41.4883 10.4369C39.6018 9.81815 37.8954 10.2179 36.3137 10.5886C34.4917 11.0156 32.7958 11.4128 30.9805 10.7289L25.5328 23.0545C26.1621 23.6124 26.4553 24.3577 26.6484 25.1514C28.0017 24.1521 29.8175 24.0088 31.3099 24.8053C32.4428 25.41 33.2437 26.4798 33.5172 27.7304C34.3548 27.6432 35.2258 27.7958 36.0207 28.2202C36.9606 28.7218 37.6781 29.5406 38.0511 30.5375C39.0856 30.2947 40.1661 30.4383 41.1041 30.939C42.0442 31.4407 42.7613 32.2593 43.1345 33.2563C44.169 33.0134 45.2499 33.1568 46.1875 33.6578C46.6758 33.9186 47.1068 34.2648 47.4642 34.6873C49.1925 35.665 50.9202 36.6666 52.6576 37.6253C53.3652 38.0143 54.2627 37.7468 54.6536 37.0435C54.8438 36.6999 54.8866 36.2985 54.7772 35.9215C54.6709 35.5546 54.4232 35.2265 54.0621 35.0231C51.6052 33.6455 49.1542 32.2403 46.6974 30.8579C46.0209 30.4788 45.7799 29.6229 46.1592 28.9463C46.5384 28.2697 47.3942 28.0287 48.0708 28.4081L57.1007 33.489C57.7949 33.8889 58.7189 33.5915 59.0983 32.9019C59.4947 32.1812 59.2162 31.2877 58.5057 30.8878C56.2111 29.6025 53.9161 28.3168 51.6334 27.0103C50.96 26.6249 50.7263 25.7666 51.1115 25.0932C51.4968 24.4198 52.3551 24.186 53.0286 24.5713C55.3042 25.874 57.5911 27.1567 59.8787 28.438C60.5791 28.8375 61.4826 28.5531 61.871 27.8593C62.2862 27.1386 61.976 26.2291 61.2783 25.8313L51.3092 20.1493C49.7636 19.2683 47.6041 20.1427 45.3553 21.0529C40.4665 23.0318 36.7015 24.0768 32.9668 19.2715C32.3166 18.4339 32.5606 17.2149 33.4662 16.6859ZM38.9404 16.4302C37.9978 17.1379 37.0165 17.8071 36.0013 18.4397C38.5443 20.7786 41.4929 19.5856 44.3007 18.449C47.1907 17.279 49.9661 16.1556 52.6935 17.7102L62.6626 23.3922C62.8398 23.4932 63.0069 23.6043 63.1639 23.7246L58.5621 11.8542C56.9012 12.1907 55.3615 11.5614 53.6643 10.8676C51.3243 9.91114 48.5829 8.79053 44.8806 11.3304C42.7761 12.7685 41.0731 14.829 38.9404 16.4302ZM20.9849 56.9015C21.6882 56.9015 22.3466 57.0928 22.9116 57.4257L33.7858 48.9585C33.6872 48.6205 33.6343 48.2631 33.6343 47.8932C33.6343 45.7944 35.3356 44.093 37.4345 44.093C39.3127 44.093 40.8722 45.4557 41.1795 47.2462L50.7154 49.2483C51.3961 48.2228 52.561 47.5468 53.8839 47.5468C54.4951 47.5468 55.0724 47.6913 55.5839 47.9476L66.7655 37.9468C66.615 37.538 66.5329 37.0961 66.5329 36.635C66.5329 34.5362 68.2343 32.8348 70.333 32.8348C72.4316 32.8348 74.1332 34.5362 74.1332 36.635C74.1332 38.7336 72.4318 40.435 70.333 40.435C69.7218 40.435 69.1445 40.2905 68.633 40.0342L57.4514 50.035C57.6018 50.4438 57.6839 50.8857 57.6839 51.3468C57.6839 53.4456 55.9826 55.1469 53.8839 55.1469C52.0057 55.1469 50.446 53.7842 50.1389 51.9937L40.6029 49.9915C39.9223 51.0171 38.7576 51.6931 37.4346 51.6931C36.7315 51.6931 36.0729 51.5019 35.5079 51.1689L24.6337 59.6361C24.7323 59.9742 24.7852 60.3315 24.7852 60.7014C24.7852 62.8002 23.0839 64.5014 20.985 64.5014C18.8862 64.5014 17.1848 62.8 17.1848 60.7014C17.1848 58.6029 18.8862 56.9015 20.9849 56.9015ZM17.4344 73.8575H24.5355C25.0196 73.8575 25.4144 74.2523 25.4144 74.7365V86.3083C25.4144 86.7924 25.0196 87.1872 24.5355 87.1872H17.4344C16.9503 87.1872 16.5555 86.7924 16.5555 86.3083V74.7365C16.5555 74.2523 16.9503 73.8575 17.4344 73.8575ZM66.7822 47.291C66.2981 47.291 65.9033 47.6858 65.9033 48.1699V86.3083C65.9033 86.7924 66.2981 87.1872 66.7822 87.1872H73.8832C74.3673 87.1872 74.7621 86.7924 74.7621 86.3083V48.1699C74.7621 47.6858 74.3673 47.291 73.8832 47.291H66.7822ZM50.3331 64.9532H57.4343C57.9184 64.9532 58.3132 65.348 58.3132 65.8323V86.3085C58.3132 86.7926 57.9184 87.1874 57.4343 87.1874C55.0673 87.1874 52.7002 87.1874 50.3331 87.1874C49.849 87.1874 49.4542 86.7926 49.4542 86.3085C49.4542 77.9489 49.4542 74.1921 49.4542 65.8323C49.4542 65.348 49.849 64.9532 50.3331 64.9532ZM33.8839 58.9116C33.3998 58.9116 33.005 59.3064 33.005 59.7905V86.3085C33.005 86.7926 33.3998 87.1874 33.8839 87.1874H40.9849C41.469 87.1874 41.8638 86.7926 41.8638 86.3085V59.7905C41.8638 59.3064 41.469 58.9116 40.9849 58.9116H33.8839ZM23.1849 3.8226C23.5622 2.96901 24.5694 2.5793 25.423 2.95653L28.8217 4.45858C29.6753 4.83581 30.065 5.84303 29.6878 6.69663L21.8845 24.3516C21.5073 25.2052 20.5001 25.5949 19.6465 25.2176L16.2477 23.7154C15.3941 23.3382 15.0043 22.331 15.3817 21.4774L23.1849 3.8226ZM25.7587 5.76042C25.1217 5.73089 24.5815 6.22325 24.552 6.86028C24.5225 7.49731 25.0148 8.03766 25.6518 8.06719C26.2887 8.09673 26.8291 7.60436 26.8586 6.96733C26.8881 6.33012 26.3958 5.78995 25.7587 5.76042ZM63.9152 6.89262C63.2775 6.89262 62.7607 7.4096 62.7607 8.04715C62.7607 8.68471 63.2776 9.20169 63.9152 9.20169C64.5529 9.20169 65.0697 8.68471 65.0697 8.04715C65.0699 7.40942 64.5529 6.89262 63.9152 6.89262Z" fill="#CFA935"/>
</svg>
