<svg width="61" height="60" viewBox="0 0 61 60" fill="none" xmlns="http://www.w3.org/2000/svg">
<g clip-path="url(#clip0_10769_15529)">
<g filter="url(#filter0_d_10769_15529)">
<path d="M25.8516 22.3984H34.6516V42.1984H25.8516V22.3984Z" fill="#CFA935"/>
<path d="M17.25 22.3969L30.25 0.796875L43.25 22.3969H17.25Z" fill="#CFA935"/>
</g>
<path d="M20.2539 57.6172C20.6523 57.6172 20.9805 57.4648 21.2266 57.1484C21.4844 56.832 21.6133 56.4102 21.6133 55.8477V55.3086C21.4023 55.5664 21.1562 55.7656 20.875 55.8945C20.5937 56.0234 20.3008 56.0938 19.9727 56.0938C19.1172 56.0938 18.4492 55.8008 17.957 55.2266C17.4648 54.6523 17.2188 53.8789 17.2188 52.9063C17.2188 51.9805 17.5234 51.1953 18.1328 50.5625C18.7422 49.9297 19.5391 49.6133 20.5 49.6133C21.4492 49.6133 22.2344 49.9414 22.8437 50.6094C23.4531 51.2656 23.7695 52.1797 23.7695 53.3398V55.707C23.7695 56.7969 23.4297 57.6641 22.7617 58.3203C22.0938 58.9766 21.25 59.3047 20.2305 59.3047C19.9141 59.3047 19.5742 59.2695 19.2344 59.1992C18.8828 59.1289 18.5547 59.0234 18.2383 58.8945L18.6133 57.3359C18.8945 57.4297 19.1523 57.5117 19.3984 57.5469C19.668 57.5938 19.9492 57.6172 20.2539 57.6172ZM20.4531 54.5234C20.6992 54.5234 20.9219 54.4766 21.1211 54.3828C21.3203 54.2891 21.4844 54.1602 21.6133 53.9961V52.9414C21.6133 52.4023 21.5078 52.0039 21.3086 51.7227C21.1094 51.4414 20.8398 51.3008 20.5117 51.3008C20.1719 51.3008 19.9023 51.4648 19.7031 51.7813C19.5039 52.1094 19.4102 52.4844 19.4102 52.9063C19.4102 53.3867 19.5039 53.7734 19.6797 54.0664C19.8555 54.3711 20.1133 54.5234 20.4531 54.5234Z" fill="#CFA935"/>
<path d="M32.4766 55.707C32.4766 56.832 32.1719 57.7109 31.5742 58.3437C30.9766 58.9766 30.1797 59.293 29.207 59.293C28.2109 59.293 27.4258 58.9766 26.8281 58.3437C26.2305 57.7109 25.9258 56.832 25.9258 55.707V53.2109C25.9258 52.0859 26.2187 51.207 26.8164 50.5742C27.4141 49.9414 28.1992 49.625 29.1953 49.625C30.1797 49.625 30.9648 49.9414 31.5742 50.5859C32.1719 51.2188 32.4766 52.0977 32.4766 53.2227V55.707ZM30.2969 53.0586C30.2969 52.4844 30.2031 52.0508 30.0039 51.7461C29.8047 51.4414 29.5352 51.2891 29.1953 51.2891C28.8437 51.2891 28.5742 51.4414 28.3867 51.7461C28.1992 52.0508 28.1055 52.4844 28.1055 53.0586V55.8359C28.1055 56.4219 28.1992 56.8672 28.3984 57.1602C28.5859 57.4648 28.8672 57.6055 29.2187 57.6055C29.5586 57.6055 29.8281 57.4531 30.0273 57.1602C30.2148 56.8555 30.3203 56.4219 30.3203 55.8359V53.0586H30.2969Z" fill="#CFA935"/>
<path d="M34.6094 51.5586C34.6094 50.9961 34.7852 50.5391 35.1484 50.1641C35.5117 49.8008 36.0273 49.6133 36.6953 49.6133C37.375 49.6133 37.8906 49.8008 38.2539 50.1641C38.6172 50.5273 38.793 50.9961 38.793 51.5586V52.0508C38.793 52.6133 38.6172 53.0703 38.2539 53.4336C37.8906 53.7969 37.375 53.9844 36.707 53.9844C36.0391 53.9844 35.5117 53.7969 35.1484 53.4336C34.7852 53.0703 34.5977 52.6016 34.5977 52.0508V51.5586H34.6094ZM37.0117 58.4492L35.9922 57.9336L40.5859 50.5859L41.6055 51.1016L37.0117 58.4492ZM36.0039 52.0625C36.0039 52.2734 36.0625 52.4609 36.1797 52.6016C36.2969 52.7422 36.4727 52.8125 36.707 52.8125C36.9297 52.8125 37.0937 52.7422 37.2109 52.6016C37.3281 52.4609 37.3867 52.2734 37.3867 52.0625V51.5586C37.3867 51.3477 37.3281 51.1602 37.2109 51.0078C37.0937 50.8555 36.918 50.7852 36.6953 50.7852C36.4727 50.7852 36.3086 50.8555 36.1797 51.0078C36.0625 51.1602 36.0039 51.3359 36.0039 51.5586V52.0625ZM39.0742 56.8555C39.0742 56.3047 39.2617 55.8359 39.625 55.4727C39.9883 55.1094 40.5039 54.9219 41.1719 54.9219C41.8516 54.9219 42.3672 55.1094 42.7305 55.4727C43.0937 55.8359 43.2695 56.3047 43.2695 56.8672V57.3594C43.2695 57.9219 43.0937 58.3906 42.7305 58.7539C42.3672 59.1172 41.8516 59.3047 41.1953 59.3047C40.5273 59.3047 40 59.1172 39.6367 58.7539C39.2734 58.3906 39.0859 57.9219 39.0859 57.3594V56.8555H39.0742ZM40.4805 57.3477C40.4805 57.5586 40.5508 57.7344 40.6914 57.8867C40.832 58.0391 40.9961 58.1094 41.1953 58.1094C41.4648 58.1094 41.6406 58.0391 41.7344 57.9102C41.8281 57.7813 41.875 57.5938 41.875 57.3477V56.8555C41.875 56.6445 41.8164 56.4688 41.6875 56.3164C41.5703 56.1641 41.3945 56.0938 41.1719 56.0938C40.9492 56.0938 40.7734 56.1641 40.6562 56.3164C40.5391 56.4688 40.4805 56.6445 40.4805 56.8555V57.3477Z" fill="#CFA935"/>
</g>
<defs>
<filter id="filter0_d_10769_15529" x="4.65" y="-13.0031" width="56" height="71.4023" filterUnits="userSpaceOnUse" color-interpolation-filters="sRGB">
<feFlood flood-opacity="0" result="BackgroundImageFix"/>
<feColorMatrix in="SourceAlpha" type="matrix" values="0 0 0 0 0 0 0 0 0 0 0 0 0 0 0 0 0 0 127 0" result="hardAlpha"/>
<feOffset dx="2.4" dy="1.2"/>
<feGaussianBlur stdDeviation="7.5"/>
<feComposite in2="hardAlpha" operator="out"/>
<feColorMatrix type="matrix" values="0 0 0 0 1 0 0 0 0 1 0 0 0 0 1 0 0 0 0.3 0"/>
<feBlend mode="normal" in2="BackgroundImageFix" result="effect1_dropShadow_10769_15529"/>
<feBlend mode="normal" in="SourceGraphic" in2="effect1_dropShadow_10769_15529" result="shape"/>
</filter>
<clipPath id="clip0_10769_15529">
<rect width="60" height="60" fill="white" transform="translate(0.25)"/>
</clipPath>
</defs>
</svg>
