<svg width="72" height="72" viewBox="0 0 72 72" fill="none" xmlns="http://www.w3.org/2000/svg">
<g id="Capa_1" clip-path="url(#clip0_23649_32088)">
<g id="Group">
<path id="Vector" d="M10.6539 20.7285H26.839C27.4215 20.7285 27.8937 20.2563 27.8937 19.6738C27.8937 19.0914 27.4215 18.6191 26.839 18.6191H10.6539C10.0715 18.6191 9.59924 19.0914 9.59924 19.6738C9.59924 20.2563 10.0715 20.7285 10.6539 20.7285Z" fill="black"/>
<path id="Vector_2" d="M10.6539 43.9316C10.0715 43.9316 9.59924 44.4039 9.59924 44.9863C9.59924 45.5688 10.0715 46.041 10.6539 46.041H28.2453C28.8278 46.041 29.3 45.5688 29.3 44.9863C29.3 44.4039 28.8278 43.9316 28.2453 43.9316H10.6539Z" fill="black"/>
<path id="Vector_3" d="M42.2245 29.166C42.8069 29.166 43.2791 28.6938 43.2791 28.1113C43.2791 27.5289 42.8069 27.0566 42.2245 27.0566H30.6564C30.0739 27.0566 29.6017 27.5289 29.6017 28.1113C29.6017 28.6938 30.0739 29.166 30.6564 29.166H42.2245Z" fill="black"/>
<path id="Vector_4" d="M10.3694 29.166H25.7344C26.3168 29.166 26.789 28.6938 26.789 28.1113C26.789 27.5289 26.3168 27.0566 25.7344 27.0566H10.3694C9.78692 27.0566 9.3147 27.5289 9.3147 28.1113C9.3147 28.6938 9.78692 29.166 10.3694 29.166Z" fill="black"/>
<path id="Vector_5" d="M10.3694 37.6035H35.1139C35.6964 37.6035 36.1686 37.1313 36.1686 36.5488C36.1686 35.9664 35.6964 35.4941 35.1139 35.4941H10.3694C9.78692 35.4941 9.3147 35.9664 9.3147 36.5488C9.3147 37.1313 9.78692 37.6035 10.3694 37.6035Z" fill="black"/>
<path id="Vector_6" d="M10.3694 54.4785H30.8951C31.4776 54.4785 31.9498 54.0063 31.9498 53.4238C31.9498 52.8414 31.4776 52.3691 30.8951 52.3691H10.3694C9.78692 52.3691 9.3147 52.8414 9.3147 53.4238C9.3147 54.0063 9.78692 54.4785 10.3694 54.4785Z" fill="black"/>
<path id="Vector_7" d="M71.989 60.5574C71.9191 59.5827 71.4719 58.1482 69.7395 56.8436L60.5714 49.5956L62.6559 47.5123C63.0561 47.7037 63.5049 47.8079 63.9783 47.808H63.9796C64.9802 47.808 65.9981 47.3617 66.7722 46.5835C66.7746 46.5811 66.777 46.5785 66.7794 46.576C68.2226 45.1189 68.3911 42.9226 67.1532 41.6756L56.4104 30.8759C55.4504 29.8788 53.8069 29.8053 52.5934 30.4625V21.3078C52.5934 19.8996 52.0397 18.5755 51.034 17.5795L34.8509 1.55082C33.846 0.555481 32.5097 0.00732422 31.0879 0.00732422H6.7431C3.02498 0.00732422 0 3.0025 0 6.68392V10.594C0 11.1765 0.472218 11.6487 1.05469 11.6487C1.63716 11.6487 2.10937 11.1765 2.10937 10.594V6.68392C2.10937 4.16547 4.18809 2.11656 6.7431 2.11656L31.804 2.20037V15.7545C31.804 18.4365 34.0023 20.6185 36.7044 20.6185H50.4055L50.4843 32.9307C50.2087 33.7905 50.2471 34.6895 50.6136 35.4334L41.0899 44.9522C39.8334 44.3442 38.142 44.67 36.9472 45.859C35.5985 47.1557 35.2135 49.4276 36.5599 50.7685L47.3335 61.5401C48.1479 62.3613 49.3953 62.5489 50.4843 62.2141C50.5738 63.616 50.1761 65.0188 49.1398 66.0156C48.2532 66.8959 47.0742 67.3811 45.8126 67.3666L43.6529 67.3511C43.163 66.3781 42.2747 65.6391 41.203 65.3502V64.4573C41.203 62.3249 39.4682 60.5901 37.3358 60.5901H24.3496C22.2172 60.5901 20.4824 62.3249 20.4824 64.4573V65.3502C19.4698 65.6233 18.6208 66.298 18.117 67.1925H6.7431C4.18809 67.1925 2.10937 65.1436 2.10937 62.6251V15.5122C2.10937 14.9298 1.63716 14.4575 1.05469 14.4575C0.472218 14.4575 0 14.9298 0 15.5122V62.6251C0 66.3067 3.02498 69.3019 6.7431 69.3019H17.6211V70.237C17.6211 71.2063 18.4096 71.9948 19.379 71.9948H24.1875C24.77 71.9948 25.2422 71.5226 25.2422 70.9401C25.2422 70.3577 24.77 69.8855 24.1875 69.8855H19.7305V69.0839C19.7305 68.1146 20.519 67.3261 21.4883 67.3261H40.1973C41.1667 67.3261 41.9552 68.1146 41.9552 69.0839V69.8855H29.1094C28.5269 69.8855 28.0547 70.3577 28.0547 70.9401C28.0547 71.5226 28.5269 71.9948 29.1094 71.9948H42.3067C43.2761 71.9948 44.0645 71.2063 44.0645 70.237V69.4634C44.1264 69.4637 45.7869 69.4762 45.8481 69.476C47.6543 69.476 49.3496 68.7797 50.6261 67.5123C51.895 66.2525 52.5937 64.5791 52.5937 62.8005V60.7507C53.4351 59.6779 53.7394 58.2196 53.1507 57.0126L55.1756 54.9888L62.4091 64.1854C65.0027 67.3373 67.6427 67.0202 70.233 64.6798C71.4671 63.4429 72.0908 61.9787 71.989 60.5574ZM24.3498 62.6995H37.3359C38.3052 62.6995 39.0937 63.488 39.0937 64.4573V65.2167H22.592V64.4573C22.592 63.488 23.3804 62.6995 24.3498 62.6995ZM53.009 32.7429C53.5605 32.2351 54.2939 31.8766 54.9144 32.3628L65.6572 43.1625C66.0677 43.5759 65.8902 44.479 65.2775 45.0951C64.7102 45.6295 63.8761 46.002 63.2863 45.3907L59.3071 41.3905C58.8964 40.9776 58.2286 40.9758 57.8157 41.3865C57.4027 41.7973 57.401 42.4651 57.8117 42.878L61.0509 46.1344C58.2589 48.9221 54.5611 52.6205 51.7699 55.4108L42.6913 46.334L51.9973 37.0328L54.3126 39.3604C54.7233 39.7734 55.3912 39.7752 55.804 39.3643C56.2171 38.9536 56.2187 38.2857 55.808 37.8729L52.7453 34.794C52.1853 34.3532 52.3496 33.4252 53.009 32.7429ZM33.9134 15.7547V3.59101L48.9754 18.5092H36.7044C35.1654 18.5092 33.9134 17.2735 33.9134 15.7547ZM48.8243 60.0475L38.0507 49.2759C37.5665 48.6542 37.9206 47.9179 38.4252 47.3639C39.095 46.7074 40.02 46.5345 40.4538 47.0793L51.1245 57.7478C51.6105 58.3712 51.2517 59.1133 50.7438 59.666C50.1311 60.2784 49.2339 60.4564 48.8243 60.0475ZM68.7396 63.1904C67.1425 64.7871 65.4151 64.7436 64.075 62.8916L56.6782 53.4873L59.0694 51.0972L68.4414 58.5065C70.2911 59.8512 70.3335 61.5891 68.7396 63.1904Z" fill="black"/>
</g>
</g>
<defs>
<clipPath id="clip0_23649_32088">
<rect width="72" height="72" fill="white"/>
</clipPath>
</defs>
</svg>
