<svg width="60" height="60" viewBox="0 0 60 60" fill="none" xmlns="http://www.w3.org/2000/svg">
<path d="M59.1484 43.8812H4.18719C3.71703 43.8812 3.33594 43.5002 3.33594 43.03V6.99578C3.33594 6.52562 3.71703 6.14453 4.18719 6.14453H59.1484C59.6185 6.14453 59.9996 6.52562 59.9996 6.99578V43.03C59.9996 43.5002 59.6185 43.8812 59.1484 43.8812Z" fill="#CFA935"/>
<path d="M48.9264 40.104H10.7613C10.7613 38.0892 9.12809 36.4559 7.11328 36.4559V14.7603V14.3261C7.11328 13.9309 7.38902 13.5812 7.77785 13.5096C8.20875 13.4302 8.61328 13.2752 8.9768 13.0587C9.52828 12.7304 9.9859 12.2607 10.2996 11.6997C10.4906 11.358 10.6283 10.9824 10.7014 10.5842C10.7722 10.1986 11.1138 9.92188 11.5058 9.92188H12.6144H48.9264C48.9264 11.9367 52.3836 13.5699 54.3984 13.5699V36.4561C52.3836 36.4559 48.9264 38.0893 48.9264 40.104Z" fill="#F0FCFF"/>
<path d="M17.5381 23.1074C17.5381 23.6111 17.9464 24.0195 18.4502 24.0195H44.8907C45.3944 24.0195 45.8028 23.6112 45.8028 23.1074C45.8028 22.6036 45.3945 22.1953 44.8907 22.1953H18.4502C17.9465 22.1954 17.5381 22.6037 17.5381 23.1074Z" fill="#D7ECFE"/>
<path d="M45.8027 26.8847C45.8027 26.3811 45.3944 25.9727 44.8906 25.9727H18.4502C17.9465 25.9727 17.5381 26.3809 17.5381 26.8847C17.5381 27.3884 17.9464 27.7968 18.4502 27.7968H44.8907C45.3944 27.7968 45.8027 27.3884 45.8027 26.8847Z" fill="#D7ECFE"/>
<path d="M22.2275 29.75C21.7238 29.75 21.3154 30.1583 21.3154 30.662C21.3154 31.1656 21.7237 31.574 22.2275 31.574H41.1137C41.6173 31.574 42.0257 31.1657 42.0257 30.662C42.0257 30.1583 41.6175 29.75 41.1137 29.75H22.2275Z" fill="#D7ECFE"/>
<path d="M43.0029 37.2382H48.6687C49.1723 37.2382 49.5807 36.8299 49.5807 36.3261C49.5807 35.8225 49.1725 35.4141 48.6687 35.4141H43.0029C42.4992 35.4141 42.0908 35.8223 42.0908 36.3261C42.0908 36.8298 42.4992 37.2382 43.0029 37.2382Z" fill="#9DCFFD"/>
<path d="M56.2264 10.8338C56.7157 10.8338 57.1385 10.4396 57.1385 9.92172C57.1385 9.41617 56.7264 9.00977 56.2266 9.00977C55.7273 9.00977 55.3145 9.41863 55.3145 9.92172C55.3143 10.4186 55.718 10.8338 56.2264 10.8338Z" fill="#FF9343"/>
<path d="M7.12313 9.00977C6.60797 9.00977 6.21094 9.43223 6.21094 9.92172C6.21094 10.4178 6.6143 10.8338 7.12301 10.8338C7.68293 10.8338 8.12777 10.3307 8.01809 9.7443C7.92609 9.30402 7.55051 9.00977 7.12313 9.00977Z" fill="#FF9343"/>
<path d="M56.2225 39.1914C55.7225 39.1914 55.3105 39.5973 55.3105 40.1037C55.3105 40.6159 55.7303 41.0158 56.2226 41.0158C56.706 41.0158 57.1347 40.6247 57.1347 40.1037C57.1345 39.5903 56.7164 39.1914 56.2225 39.1914Z" fill="#FF9343"/>
<path d="M52.6357 10.5897C52.564 10.2018 52.2232 9.92188 51.8288 9.92188H51.5147H48.9268C48.9268 11.7121 50.2163 13.2013 51.9173 13.5109C52.3016 13.5808 52.5748 13.9258 52.5748 14.3165V35.7096C52.5748 36.1002 52.3016 36.4453 51.9173 36.5152C50.2164 36.8248 48.9268 38.3139 48.9268 40.1042H50.7682H51.8139C52.2115 40.1042 52.5636 39.8271 52.6359 39.436C52.6759 39.2195 52.7352 39.0095 52.8118 38.8081C53.1385 37.9488 53.7805 37.2448 54.5966 36.8377C54.8904 36.6911 55.2067 36.5831 55.5391 36.52C55.932 36.4455 56.223 36.1135 56.223 35.7136V34.8549V14.5904V14.3162C56.223 13.9237 55.9466 13.5808 55.5606 13.51C55.414 13.4832 55.2704 13.4475 55.1304 13.4036C53.9347 13.0289 53.0039 12.055 52.6898 10.8337C52.669 10.7533 52.651 10.672 52.6357 10.5897Z" fill="#D7ECFE"/>
<path d="M39.3153 17.4043H24.0202C23.55 17.4043 23.1689 17.0232 23.1689 16.553V14.4782C23.1689 14.008 23.55 13.627 24.0202 13.627H39.3153C39.7854 13.627 40.1665 14.008 40.1665 14.4782V16.553C40.1665 17.0232 39.7854 17.4043 39.3153 17.4043Z" fill="#9DCFFD"/>
<path d="M1.68873 51.6599L3.16541 51.0395C3.33263 50.9692 3.50771 50.9582 3.66943 50.9952L10.3581 45.4062L4.82127 42.5098L0.634627 50.513C0.275096 51.2004 0.973533 51.9604 1.68873 51.6599Z" fill="#CFA935"/>
<path d="M6.17102 53.4103L10.3571 45.4083L10.3577 45.4071L7.61922 43.9746L3.66895 50.9963C3.97035 51.0653 4.22512 51.3011 4.29531 51.6318L4.62777 53.1986C4.78879 53.9572 5.81137 54.0976 6.17102 53.4103Z" fill="#CFA935"/>
<path d="M18.6421 51.6599L17.1654 51.0395C16.9982 50.9692 16.8231 50.9582 16.6614 50.9952L9.97266 45.4062L15.5095 42.5098L19.6962 50.513C20.0558 51.2004 19.3573 51.9604 18.6421 51.6599Z" fill="#CFA935"/>
<path d="M14.1593 53.4103L9.97324 45.4083L9.97266 45.4071L12.7111 43.9746L16.6614 50.9963C16.36 51.0653 16.1052 51.3011 16.035 51.6318L15.7025 53.1986C15.5415 53.9572 14.5189 54.0976 14.1593 53.4103Z" fill="#CFA935"/>
<path d="M20.3298 37.2815C20.3298 38.3044 18.836 39.0787 18.5363 40.0017C18.2256 40.9584 18.9682 42.4608 18.3887 43.257C17.8035 44.0612 16.1412 43.8163 15.337 44.4016C14.5407 44.981 14.2634 46.6408 13.3068 46.9513C12.3838 47.251 11.1879 46.0812 10.165 46.0812C9.14203 46.0812 7.94613 47.2511 7.02305 46.9513C6.06645 46.6407 5.78895 44.981 4.99277 44.4016C4.18852 43.8163 2.52633 44.0611 1.94109 43.257C1.3616 42.4607 2.10422 40.9584 1.79355 40.0017C1.49379 39.0787 0 38.3044 0 37.2815C0 36.2585 1.49379 35.4843 1.79355 34.5612C2.10422 33.6046 1.3616 32.1021 1.94109 31.306C2.52633 30.5017 4.18863 30.7466 4.99277 30.1614C5.78906 29.5819 6.06645 27.9222 7.02305 27.6116C7.94602 27.312 9.14192 28.4817 10.1648 28.4817C11.1878 28.4817 12.3837 27.3119 13.3068 27.6116C14.2634 27.9223 14.5409 29.5819 15.337 30.1614C16.1413 30.7466 17.8035 30.5018 18.3887 31.306C18.9682 32.1023 18.2256 33.6046 18.5363 34.5612C18.836 35.4843 20.3298 36.2585 20.3298 37.2815Z" fill="#7A6C79"/>
<path d="M13.193 37.2819C13.193 42.4024 8.91066 42.5935 8.34055 42.3899C6.24313 41.6408 4.74219 39.6367 4.74219 37.2819C4.74219 35.0359 6.10777 33.1087 8.05402 32.2856C8.70266 32.0111 13.193 31.5547 13.193 37.2819Z" fill="#F0FCFF"/>
<path d="M10.1648 31.8594C9.52488 31.8594 8.91082 31.9704 8.34082 32.1739C10.4382 32.923 11.9393 34.9271 11.9393 37.2819C11.9393 39.6366 10.4382 41.6408 8.34082 42.3898C8.91082 42.5934 9.52488 42.7044 10.1648 42.7044C13.1596 42.7044 15.5873 40.2767 15.5873 37.2819C15.5872 34.2871 13.1596 31.8594 10.1648 31.8594Z" fill="#D7ECFE"/>
</svg>
