<svg width="68" height="68" viewBox="0 0 68 68" fill="none" xmlns="http://www.w3.org/2000/svg">
<g id="Frame">
<g id="cmd">
<path id="Vector" d="M66.375 7.875H5.625C5.47725 7.87496 5.33094 7.90403 5.19444 7.96056C5.05793 8.01708 4.93389 8.09995 4.82942 8.20442C4.72495 8.30889 4.64208 8.43293 4.58556 8.56944C4.52903 8.70594 4.49996 8.85225 4.5 9V63C4.49996 63.1477 4.52903 63.2941 4.58556 63.4306C4.64208 63.5671 4.72495 63.6911 4.82942 63.7956C4.93389 63.9001 5.05793 63.9829 5.19444 64.0394C5.33094 64.096 5.47725 64.125 5.625 64.125H66.375C66.5227 64.125 66.6691 64.096 66.8056 64.0394C66.9421 63.9829 67.0661 63.9001 67.1706 63.7956C67.2751 63.6911 67.3579 63.5671 67.4144 63.4306C67.471 63.2941 67.5 63.1477 67.5 63V9C67.5 8.85225 67.471 8.70594 67.4144 8.56944C67.3579 8.43293 67.2751 8.30889 67.1706 8.20442C67.0661 8.09995 66.9421 8.01708 66.8056 7.96056C66.6691 7.90403 66.5227 7.87496 66.375 7.875ZM65.25 61.875H6.75V19.125H65.25V61.875ZM65.25 16.875H6.75V10.125H65.25V16.875ZM9 13.5C8.99996 13.3523 9.02903 13.2059 9.08556 13.0694C9.14208 12.9329 9.22495 12.8089 9.32942 12.7044C9.43389 12.5999 9.55793 12.5171 9.69444 12.4606C9.83094 12.404 9.97725 12.375 10.125 12.375H23.625C23.9234 12.375 24.2095 12.4935 24.4205 12.7045C24.6315 12.9155 24.75 13.2016 24.75 13.5C24.75 13.7984 24.6315 14.0845 24.4205 14.2955C24.2095 14.5065 23.9234 14.625 23.625 14.625H10.125C9.97725 14.625 9.83094 14.596 9.69444 14.5394C9.55793 14.4829 9.43389 14.4001 9.32942 14.2956C9.22495 14.1911 9.14208 14.0671 9.08556 13.9306C9.02903 13.7941 8.99996 13.6477 9 13.5ZM60.75 13.5C60.75 13.2775 60.816 13.06 60.9396 12.875C61.0632 12.69 61.2389 12.5458 61.4445 12.4606C61.65 12.3755 61.8762 12.3532 62.0945 12.3966C62.3127 12.44 62.5132 12.5472 62.6705 12.7045C62.8278 12.8618 62.935 13.0623 62.9784 13.2805C63.0218 13.4988 62.9995 13.725 62.9144 13.9305C62.8292 14.1361 62.685 14.3118 62.5 14.4354C62.315 14.559 62.0975 14.625 61.875 14.625C61.5766 14.625 61.2905 14.5065 61.0795 14.2955C60.8685 14.0845 60.75 13.7984 60.75 13.5ZM23.625 40.5C23.625 40.3523 23.654 40.2059 23.7106 40.0694C23.7671 39.9329 23.8499 39.8089 23.9544 39.7044C24.0589 39.5999 24.1829 39.5171 24.3194 39.4606C24.4559 39.404 24.6023 39.375 24.75 39.375H57.375C57.6734 39.375 57.9595 39.4935 58.1705 39.7045C58.3815 39.9155 58.5 40.2016 58.5 40.5C58.5 40.7984 58.3815 41.0845 58.1705 41.2955C57.9595 41.5065 57.6734 41.625 57.375 41.625H24.75C24.6023 41.625 24.4559 41.596 24.3194 41.5394C24.1829 41.4829 24.0589 41.4001 23.9544 41.2956C23.8499 41.1911 23.7671 41.0671 23.7106 40.9306C23.654 40.7941 23.625 40.6477 23.625 40.5ZM23.625 51.75C23.625 51.6023 23.654 51.4559 23.7106 51.3194C23.7671 51.1829 23.8499 51.0589 23.9544 50.9544C24.0589 50.8499 24.1829 50.7671 24.3194 50.7106C24.4559 50.654 24.6023 50.625 24.75 50.625H57.375C57.6734 50.625 57.9595 50.7435 58.1705 50.9545C58.3815 51.1655 58.5 51.4516 58.5 51.75C58.5 52.0484 58.3815 52.3345 58.1705 52.5455C57.9595 52.7565 57.6734 52.875 57.375 52.875H24.75C24.6023 52.875 24.4559 52.846 24.3194 52.7894C24.1829 52.7329 24.0589 52.6501 23.9544 52.5456C23.8499 52.4411 23.7671 52.3171 23.7106 52.1806C23.654 52.0441 23.625 51.8977 23.625 51.75ZM21.375 51.75C21.375 51.8977 21.346 52.0441 21.2894 52.1806C21.2329 52.3171 21.1501 52.4411 21.0456 52.5456C20.9411 52.6501 20.8171 52.7329 20.6806 52.7894C20.5441 52.846 20.3977 52.875 20.25 52.875H14.625C14.3266 52.875 14.0405 52.7565 13.8295 52.5455C13.6185 52.3345 13.5 52.0484 13.5 51.75C13.5 51.4516 13.6185 51.1655 13.8295 50.9545C14.0405 50.7435 14.3266 50.625 14.625 50.625H20.25C20.3977 50.625 20.5441 50.654 20.6806 50.7106C20.8171 50.7671 20.9411 50.8499 21.0456 50.9544C21.1501 51.0589 21.2329 51.1829 21.2894 51.3194C21.346 51.4559 21.375 51.6023 21.375 51.75ZM13.8296 39.7046L19.7842 33.75L13.8296 27.7954C13.6208 27.584 13.5042 27.2985 13.5051 27.0014C13.506 26.7043 13.6245 26.4197 13.8346 26.2096C14.0447 25.9995 14.3293 25.8811 14.6265 25.8801C14.9236 25.8792 15.209 25.9959 15.4204 26.2046L22.1704 32.9546C22.2749 33.0591 22.3577 33.1831 22.4143 33.3195C22.4709 33.456 22.5 33.6023 22.5 33.75C22.5 33.8978 22.4709 34.0441 22.4143 34.1805C22.3577 34.317 22.2749 34.441 22.1704 34.5454L15.4204 41.2954C15.209 41.5042 14.9235 41.6208 14.6264 41.6199C14.3293 41.619 14.0447 41.5005 13.8346 41.2904C13.6245 41.0803 13.5061 40.7957 13.5051 40.4985C13.5042 40.2014 13.6209 39.916 13.8296 39.7046Z" fill="black"/>
</g>
</g>
</svg>
