<svg width="32" height="32" viewBox="0 0 32 32" fill="none" xmlns="http://www.w3.org/2000/svg">
<g clip-path="url(#clip0_34735_49664)">
<path d="M31.2902 5.39622L16.3622 0.0628897C16.1264 -0.0203122 15.8693 -0.0203122 15.6336 0.0628897L0.709354 5.39622C0.286356 5.5487 0.00439453 5.95005 0.00439453 6.39969C0.00439453 6.84933 0.286356 7.25068 0.709354 7.40316L8.00002 10.008V13.3333C8.00002 15.4069 15.1814 15.4666 16 15.4666C16.8187 15.4666 24 15.4069 24 13.3333V10.008L25.6 9.43996V10.6666C25.6 11.2557 26.0776 11.7333 26.6667 11.7333H27.7334C28.3225 11.7333 28.8 11.2557 28.8 10.6666V9.06662C28.7984 8.81965 28.7389 8.57651 28.6262 8.35676L31.2928 7.40316C31.7158 7.25068 31.9978 6.84933 31.9978 6.39969C31.9978 5.95005 31.7158 5.5487 31.2928 5.39622H31.2902ZM22.9334 12.16C20.9019 11.2352 16.6214 11.2 16 11.2C15.3787 11.2 11.0982 11.2352 9.06669 12.16V7.51356C9.38669 7.10289 11.9019 6.39996 16 6.39996C20.0982 6.39996 22.6134 7.10289 22.9334 7.51356V12.16ZM16 14.4C12.0534 14.4 9.57495 13.7482 9.11149 13.3333C9.57495 12.9184 12.0544 12.2666 16 12.2666C19.9456 12.2666 22.4251 12.9184 22.8886 13.3333C22.4251 13.7482 19.9467 14.4 16 14.4ZM25.8502 8.21596L24 8.87569V7.46662C24 5.39302 16.8187 5.33329 16 5.33329C15.1814 5.33329 8.00002 5.39302 8.00002 7.46662V8.87516L1.06669 6.39996L16.0075 1.06662L26.6667 4.87569V7.56476C26.3295 7.6846 26.042 7.91383 25.8502 8.21596ZM27.7334 10.6666H26.6667V9.06662C26.6667 8.77207 26.9055 8.53329 27.2 8.53329C27.4946 8.53329 27.7334 8.77207 27.7334 9.06662V10.6666ZM27.7334 7.54342V5.25702L30.9334 6.39996L27.7334 7.54342Z" fill="black"/>
<path d="M30.4 16.5332C30.368 16.5331 30.336 16.536 30.3045 16.5417C25.5724 17.2774 20.7888 17.6313 16 17.5999C11.2112 17.6313 6.42756 17.2774 1.69547 16.5417C1.66392 16.5364 1.632 16.5335 1.6 16.5332C1.22667 16.5332 0 16.9561 0 22.3999C0 27.8436 1.22667 28.2665 1.6 28.2665C1.63203 28.2659 1.66395 28.2627 1.69547 28.2569C5.33157 27.681 9.00182 27.3464 12.6821 27.2553L11.6411 29.7524C11.4811 30.1522 11.5784 30.6091 11.8873 30.9091C12.1962 31.2091 12.6557 31.293 13.0507 31.1215L13.4587 30.9471L13.6352 31.3529C13.802 31.7465 14.1886 32.0015 14.616 31.9999H14.6293C15.0599 31.9965 15.446 31.7337 15.6069 31.3343L16.5333 29.1167L17.4565 31.3257C17.6161 31.7289 18.0038 31.9954 18.4373 31.9999H18.4533C18.8778 32.0016 19.2624 31.7497 19.4304 31.3599L19.6085 30.9508L20.0101 31.1231C20.4068 31.2982 20.8702 31.2148 21.1809 30.9123C21.4916 30.6098 21.5874 30.1489 21.4229 29.7476L20.4021 27.2996C23.7203 27.4171 27.0282 27.7377 30.3072 28.2596C30.3379 28.2647 30.3689 28.267 30.4 28.2665C30.7733 28.2665 32 27.8436 32 22.3999C32 16.9561 30.7733 16.5332 30.4 16.5332ZM17.7067 18.6505C17.9282 19.4649 18.0571 20.3017 18.0912 21.1449C16.8819 20.5826 15.4636 20.7145 14.3787 21.49C14.3514 20.5323 14.2286 19.5796 14.0123 18.6463C14.6583 18.6598 15.3209 18.6665 16 18.6665C16.5829 18.6665 17.1488 18.6601 17.7067 18.6505ZM16.5333 27.1999C15.0606 27.1999 13.8667 26.006 13.8667 24.5332C13.8667 23.0604 15.0606 21.8665 16.5333 21.8665C18.0061 21.8665 19.2 23.0604 19.2 24.5332C19.1982 26.0052 18.0054 27.1981 16.5333 27.1999ZM1.6 17.8665C2.00865 19.3415 2.18852 20.8704 2.13333 22.3999C2.18852 23.9294 2.00865 25.4583 1.6 26.9332C1.19135 25.4583 1.01148 23.9294 1.06667 22.3999C1.01148 20.8704 1.19135 19.3415 1.6 17.8665ZM2.67733 27.0239C2.96907 26.178 3.2 24.7625 3.2 22.3999C3.2 20.0372 2.96907 18.6217 2.6768 17.7748C6.06592 18.2429 9.47815 18.5247 12.8981 18.6191C13.218 19.853 13.3645 21.1255 13.3333 22.3999C13.3333 22.4772 13.3333 22.5508 13.3301 22.6249C12.6901 23.6871 12.6256 24.9995 13.1584 26.1193L13.1349 26.1759C9.63585 26.2616 6.14442 26.5451 2.67733 27.0249V27.0239ZM14.6171 30.9332L14.2277 30.0372C14.1106 29.7682 13.7982 29.6442 13.5285 29.7599L12.6309 30.1567L13.8816 27.1583C14.3951 27.6786 15.0501 28.0365 15.7653 28.1876L14.6171 30.9332ZM19.5381 29.7599C19.2685 29.6442 18.956 29.7682 18.8389 30.0372L18.4443 30.9241L17.3008 28.1865C18.0166 28.0354 18.6722 27.6773 19.1861 27.1567L20.4341 30.1433L19.5381 29.7599ZM30.2933 27.1732C26.8668 26.6459 23.4117 26.3253 19.9467 26.2132L19.9088 26.1215C20.5795 24.7081 20.292 23.0259 19.1899 21.9156C19.1857 20.8095 19.058 19.7074 18.8091 18.6297C22.6548 18.5436 26.491 18.2083 30.2933 17.626C30.5408 18.0463 30.9333 19.7087 30.9333 22.3999C30.9333 25.0911 30.5381 26.7529 30.2933 27.1732Z" fill="black"/>
</g>
<defs>
<clipPath id="clip0_34735_49664">
<rect width="32" height="32" fill="white"/>
</clipPath>
</defs>
</svg>
