<svg width="60" height="60" viewBox="0 0 60 60" fill="none" xmlns="http://www.w3.org/2000/svg">
<path d="M15.072 16.3139V25.9986C15.072 27.7552 16.501 29.1841 18.2576 29.1841H41.7411C43.4975 29.1841 44.9266 27.7552 44.9266 25.9986V16.314C45.8347 15.4471 46.2958 14.4397 46.2958 13.3131V7.83305C46.2958 6.68098 45.3585 5.74371 44.2065 5.74371H36.3303V4.03863C36.33 2.32863 34.9389 0.9375 33.2291 0.9375H26.7699C25.0599 0.9375 23.6686 2.32863 23.6686 4.03863V5.74371H15.7925C14.6404 5.74371 13.7031 6.68098 13.7031 7.83305V13.3132C13.703 14.4397 14.1641 15.447 15.072 16.3139ZM41.7409 27.3093H18.2576C17.5349 27.3093 16.947 26.7213 16.947 25.9988V17.5921C19.4277 18.7819 23.3913 19.2418 26.0983 19.4191V21.9336C26.0983 22.4514 26.5181 22.8711 27.0358 22.8711H32.9629C33.4806 22.8711 33.9004 22.4514 33.9004 21.9336V19.4171C36.6095 19.2387 40.5752 18.7778 43.0514 17.592V25.9989C43.0514 26.7213 42.4635 27.3093 41.7409 27.3093ZM27.9733 20.996V16.9439H32.0254V20.996H27.9733ZM22.9165 7.61871H37.0822V10.4268C37.0822 10.7014 36.8502 10.9335 36.5756 10.9335H23.4233C23.1486 10.9335 22.9165 10.7014 22.9165 10.4268V7.61871ZM25.5436 4.03863C25.5436 3.36246 26.0937 2.8125 26.7699 2.8125H33.2291C33.9052 2.8125 34.4552 3.36246 34.4552 4.03863V5.74371H25.5436V4.03863ZM15.578 7.83305C15.578 7.7168 15.6762 7.61871 15.7924 7.61871H21.0414V10.4268C21.0414 11.7401 22.1098 12.8085 23.4231 12.8085H36.5754C37.8886 12.8085 38.957 11.7401 38.957 10.4268V7.61871H44.2061C44.3222 7.61871 44.4204 7.7168 44.4204 7.83305V13.3132C44.4204 14.0048 44.0943 14.5946 43.3939 15.1696C43.2172 15.3145 43.0132 15.4605 42.7877 15.6033C41.294 16.5483 38.0125 17.2571 33.9002 17.5377V16.0065C33.9002 15.4888 33.4804 15.069 32.9627 15.069H27.0356C26.5178 15.069 26.0981 15.4888 26.0981 16.0065V17.5398C21.9911 17.2614 18.7096 16.5518 17.2107 15.6035C16.9852 15.4609 16.7812 15.3149 16.6041 15.1696C15.9039 14.5948 15.5778 14.005 15.5778 13.3134V7.83305H15.578ZM54.962 41.9024C56.3787 40.4862 57.0981 38.6998 57.0427 36.7362L56.5074 17.8386C56.4569 16.0553 54.6788 14.4577 52.7608 14.4577C52.7425 14.4577 52.724 14.4578 52.7056 14.458C51.7672 14.473 48.7073 14.9854 48.7298 20.9449L48.7689 31.2104C48.7703 31.5851 48.7335 31.9427 48.6569 32.2882C48.5269 32.0972 48.3745 31.9134 48.1996 31.7387C46.9038 30.4426 44.7796 30.4281 43.3635 31.7052C43.3321 31.7334 43.3027 31.7638 43.2755 31.796C41.6107 33.7643 39.5702 35.4841 37.9305 36.866C37.3585 37.3481 36.8182 37.8035 36.3759 38.2022C34.5572 39.8411 34.3152 42.114 34.3183 44.1212L34.3295 51.5951L33.5129 51.588C33.5063 51.588 33.4998 51.588 33.4933 51.588C32.2653 51.588 31.2607 52.5817 31.2501 53.8123L31.2255 56.6719C31.2148 57.9088 32.2125 58.9239 33.4497 58.9348L48.3053 59.0625H48.3249C49.5529 59.0625 50.5574 58.0689 50.5681 56.8383L50.5927 53.9786C50.6034 52.7415 49.6055 51.7264 48.3685 51.7158L46.6891 51.7014V50.1756L54.962 41.9024ZM48.7176 53.9624L48.693 56.8221C48.6912 57.0209 48.5228 57.1876 48.3243 57.1875C48.3232 57.1875 48.3222 57.1875 48.3213 57.1875L33.466 57.0599C33.2661 57.0581 33.0987 56.8879 33.1005 56.688L33.1251 53.8284C33.1263 53.6977 33.1953 53.6104 33.2363 53.5699C33.2771 53.5298 33.3644 53.463 33.4934 53.463C33.4946 53.463 33.4956 53.4632 33.4967 53.4632L48.3521 53.5908C48.552 53.5924 48.7193 53.7626 48.7176 53.9624ZM36.2047 51.6112L36.1934 44.1185C36.1908 42.4445 36.3632 40.7378 37.6313 39.5951C38.0505 39.2171 38.5548 38.792 39.1388 38.2998C40.818 36.8848 42.9043 35.1265 44.6618 33.0603C45.3449 32.479 46.2868 32.4775 46.8739 33.0646C47.5854 33.776 47.3622 34.5415 46.9908 35.1068C46.0257 36.2154 43.1461 39.0122 42.6765 39.4819C42.3104 39.8481 42.3104 40.4415 42.6765 40.8077C43.0427 41.1737 43.6361 41.1739 44.0023 40.8077C44.4624 40.3475 48.4431 36.3041 48.4784 36.2535C48.6695 36.0322 48.8611 35.8041 49.0536 35.5672C50.1298 34.2421 50.65 32.8147 50.6439 31.2035L50.6048 20.938C50.5939 18.0761 51.3905 16.3545 52.7356 16.3329C52.7441 16.3328 52.7526 16.3327 52.761 16.3327C53.6709 16.3327 54.6111 17.1122 54.6331 17.8917L55.1684 36.7891C55.2097 38.2448 54.6941 39.519 53.6363 40.5764L45.0886 49.1242C44.9129 49.3001 44.8141 49.5384 44.8141 49.7871V51.6851L36.2047 51.6112ZM33.9477 54.9055C34.1509 54.3945 34.73 54.1448 35.241 54.348C35.7521 54.5513 36.0017 55.1303 35.7985 55.6413C35.5953 56.1524 35.0163 56.402 34.5052 56.1988C33.9941 55.9956 33.7445 55.4166 33.9477 54.9055ZM26.5054 51.5882C26.4988 51.5882 26.4923 51.5882 26.4858 51.5882L25.6691 51.5952L25.6804 44.1214C25.6834 42.1141 25.4415 39.8413 23.6229 38.2023C23.1806 37.8036 22.6402 37.3482 22.0682 36.8661C20.4285 35.4843 18.3879 33.7644 16.7232 31.7961C16.696 31.7639 16.6666 31.7336 16.6352 31.7053C15.219 30.4284 13.0946 30.4431 11.7992 31.7387C11.6243 31.9136 11.4718 32.0974 11.3418 32.2883C11.2652 31.9429 11.2284 31.5853 11.2298 31.2105L11.2689 20.945C11.2914 14.9854 8.23141 14.4731 7.29309 14.4581C5.34895 14.4284 3.54227 16.0384 3.49153 17.8386L2.9561 36.7363C2.90067 38.6998 3.62009 40.4862 5.03665 41.9024L13.3099 50.1756V51.7014L11.6304 51.7158C10.3933 51.7264 9.39556 52.7415 9.40622 53.9786L9.43083 56.8383C9.44149 58.0689 10.4458 59.0626 11.674 59.0625H11.6936L26.5493 58.9349C27.7864 58.924 28.784 57.9089 28.7734 56.6719L28.7488 53.8124C28.7378 52.5818 27.7335 51.5882 26.5054 51.5882ZM14.9102 49.1243L6.36239 40.5765C5.30466 39.5191 4.78915 38.245 4.8304 36.7894L5.36583 17.8917C5.38786 17.1122 6.32794 16.3328 7.23778 16.3328C7.24622 16.3328 7.25477 16.3328 7.26309 16.333C8.60829 16.3546 9.40481 18.0761 9.39403 20.9381L9.35489 31.2036C9.3488 32.8148 9.86911 34.2423 10.9454 35.5675C11.1379 35.8043 15.5365 40.3478 15.9966 40.808C16.3629 41.1741 16.9564 41.1738 17.3225 40.808C17.6886 40.4418 17.6886 39.8483 17.3225 39.4821C16.8527 39.0124 13.9733 36.2157 13.0081 35.107C12.6367 34.5417 12.4135 33.7764 13.1252 33.0647C13.7122 32.4777 14.6538 32.4791 15.3371 33.0606C17.0947 35.1267 19.1809 36.885 20.8601 38.3C21.4441 38.7922 21.9484 39.2174 22.3677 39.5953C23.6356 40.738 23.8081 42.4446 23.8055 44.1189L23.7943 51.6116L15.185 51.6855V49.7876C15.1847 49.5386 15.0859 49.3002 14.9102 49.1243ZM26.5328 57.0599L11.6773 57.1875C11.4728 57.1881 11.3074 57.0219 11.3056 56.8222L11.281 53.9625C11.2792 53.7627 11.4466 53.5925 11.6463 53.5908L26.5018 53.4632C26.6327 53.46 26.7211 53.5295 26.7623 53.5699C26.8034 53.6104 26.8723 53.6977 26.8735 53.8286L26.8981 56.688C26.8998 56.8879 26.7325 57.0581 26.5328 57.0599ZM26.0509 54.9055C26.2541 55.4166 26.0045 55.9956 25.4935 56.1988C24.9824 56.402 24.4034 56.1524 24.2002 55.6413C23.9971 55.1303 24.2466 54.5513 24.7577 54.348C25.2687 54.145 25.8477 54.3945 26.0509 54.9055Z" fill="#CFA935"/>
</svg>
