<svg width="16" height="16" viewBox="0 0 16 16" fill="none" xmlns="http://www.w3.org/2000/svg">
<g clip-path="url(#clip0_223_40)">
<path fill-rule="evenodd" clip-rule="evenodd" d="M8 12C10.2091 12 12 10.2091 12 8C12 5.79086 10.2091 4 8 4C5.79086 4 4 5.79086 4 8C4 10.2091 5.79086 12 8 12ZM8 10.6667C9.47273 10.6667 10.6667 9.47273 10.6667 8C10.6667 6.52724 9.47273 5.33333 8 5.33333C6.52724 5.33333 5.33333 6.52724 5.33333 8C5.33333 9.47273 6.52724 10.6667 8 10.6667Z" fill="#D4AB4C"/>
<path d="M12.0002 3.3335C11.632 3.3335 11.3335 3.63198 11.3335 4.00016C11.3335 4.36835 11.632 4.66683 12.0002 4.66683C12.3684 4.66683 12.6668 4.36835 12.6668 4.00016C12.6668 3.63198 12.3684 3.3335 12.0002 3.3335Z" fill="#D4AB4C"/>
<path fill-rule="evenodd" clip-rule="evenodd" d="M1.10248 2.85054C0.666504 3.70619 0.666504 4.8263 0.666504 7.0665V8.93317C0.666504 11.1734 0.666504 12.2935 1.10248 13.1491C1.48597 13.9018 2.09789 14.5137 2.85054 14.8972C3.70619 15.3332 4.8263 15.3332 7.0665 15.3332H8.93317C11.1734 15.3332 12.2935 15.3332 13.1491 14.8972C13.9018 14.5137 14.5137 13.9018 14.8972 13.1491C15.3332 12.2935 15.3332 11.1734 15.3332 8.93317V7.0665C15.3332 4.8263 15.3332 3.70619 14.8972 2.85054C14.5137 2.09789 13.9018 1.48597 13.1491 1.10248C12.2935 0.666504 11.1734 0.666504 8.93317 0.666504H7.0665C4.8263 0.666504 3.70619 0.666504 2.85054 1.10248C2.09789 1.48597 1.48597 2.09789 1.10248 2.85054ZM8.93317 1.99984H7.0665C5.9244 1.99984 5.148 2.00088 4.54789 2.0499C3.96333 2.09766 3.6644 2.18423 3.45586 2.29048C2.9541 2.54615 2.54615 2.9541 2.29048 3.45586C2.18423 3.6644 2.09766 3.96333 2.0499 4.54789C2.00088 5.148 1.99984 5.9244 1.99984 7.0665V8.93317C1.99984 10.0753 2.00088 10.8516 2.0499 11.4518C2.09766 12.0364 2.18423 12.3353 2.29048 12.5438C2.54615 13.0456 2.9541 13.4535 3.45586 13.7092C3.6644 13.8154 3.96333 13.902 4.54789 13.9498C5.148 13.9988 5.9244 13.9998 7.0665 13.9998H8.93317C10.0753 13.9998 10.8516 13.9988 11.4518 13.9498C12.0364 13.902 12.3353 13.8154 12.5438 13.7092C13.0456 13.4535 13.4535 13.0456 13.7092 12.5438C13.8154 12.3353 13.902 12.0364 13.9498 11.4518C13.9988 10.8516 13.9998 10.0753 13.9998 8.93317V7.0665C13.9998 5.9244 13.9988 5.148 13.9498 4.54789C13.902 3.96333 13.8154 3.6644 13.7092 3.45586C13.4535 2.9541 13.0456 2.54615 12.5438 2.29048C12.3353 2.18423 12.0364 2.09766 11.4518 2.0499C10.8516 2.00088 10.0753 1.99984 8.93317 1.99984Z" fill="#D4AB4C"/>
</g>
<defs>
<clipPath id="clip0_223_40">
<rect width="16" height="16" fill="white"/>
</clipPath>
</defs>
</svg>
