<svg width="133" height="60" viewBox="0 0 133 60" fill="none" xmlns="http://www.w3.org/2000/svg">
<g clip-path="url(#clip0_7882_7128)">
<path d="M46.1069 14.2395L57.6146 6.87695L46.4634 14.8531L46.1069 14.2395Z" fill="#CFA931"/>
<path d="M59.0149 0H40.7605C36.9416 0 33.7592 2.68428 32.919 6.23775C32.7917 6.82574 32.7153 7.43928 32.7153 8.05283V18.0741C33.3518 17.8696 34.0138 17.6395 34.6757 17.4095V8.0784C34.6757 7.97614 34.6757 7.84832 34.6757 7.74606C34.6757 7.51598 34.7266 7.26033 34.7521 7.03025C35.2358 4.14146 37.7563 1.96847 40.7605 1.96847H59.0149C62.3756 1.96847 65.0997 4.70388 65.0997 8.0784V18.5087C65.0997 21.8833 62.3756 24.6187 59.0149 24.6187H40.7605C39.7676 24.6187 38.8256 24.363 37.9854 23.954L36.3051 25.2322C37.5781 26.0758 39.1056 26.5871 40.7605 26.5871H59.0149C63.4448 26.5871 67.0601 22.957 67.0601 18.5087V8.0784C67.0601 3.63017 63.4448 0 59.0149 0Z" fill="#CFA931"/>
<path d="M14.1299 10.5833V14.2901C14.1299 17.818 16.9813 20.6557 20.4693 20.6557C23.9827 20.6557 26.8087 17.7925 26.8087 14.2901V9.84188L31.1622 7.51551L20.3165 2.93945L8.70703 8.43583L14.079 10.6088L14.1299 10.5833Z" fill="white"/>
<path d="M11.7369 7.71973V13.6763L13.2899 18.0734H9.19092L10.7949 13.6763V7.71973H11.7369Z" fill="white"/>
<path d="M11.2278 14.4691C11.8746 14.4691 12.3989 13.9426 12.3989 13.2932C12.3989 12.6437 11.8746 12.1172 11.2278 12.1172C10.581 12.1172 10.0566 12.6437 10.0566 13.2932C10.0566 13.9426 10.581 14.4691 11.2278 14.4691Z" fill="white"/>
<path d="M46.1071 15.3386L34.3703 24.3629C28.2855 29.0412 24.263 35.9181 23.1682 43.5363L20.9787 58.5427L18.9165 40.034L7.89256 59.9743L13.1372 38.0911C14.0028 34.5121 10.6676 31.3421 7.15423 32.4158C4.71013 33.1827 2.08781 34.5887 -0.0507812 37.1196C-0.0507812 37.1196 1.19673 26.7916 17.949 23.2637C17.949 23.2637 33.6066 21.602 45.3179 14.3672L46.0308 15.2875L46.1071 15.3386Z" fill="#CFA931"/>
<path d="M39.8695 45.0964H37.8837V35.6375H34.3193V33.7969H43.4338V35.6375H39.8695V45.0964Z" fill="white"/>
<path d="M46.4887 45.0957H44.5283V36.5827H46.4887V38.5001C46.7688 37.8609 47.1252 37.3497 47.6344 36.9406C48.1181 36.5572 48.7546 36.3782 49.4929 36.4038V38.4745H49.3911C48.9583 38.4745 48.5764 38.5512 48.2199 38.679C47.8635 38.8068 47.558 39.0369 47.3034 39.3181C47.0488 39.5993 46.8451 39.9572 46.7178 40.3663C46.5905 40.8009 46.5142 41.2866 46.5142 41.849V45.0957H46.4887Z" fill="white"/>
<path d="M56.3418 45.0959V44.0477C56.0617 44.3801 55.6798 44.6869 55.2216 44.9169C54.7633 45.147 54.2287 45.2748 53.5922 45.2748C52.9557 45.2748 52.8029 45.2237 52.4465 45.0959C52.0901 44.9936 51.7591 44.8147 51.479 44.5846C51.199 44.3545 50.9953 44.0989 50.8171 43.7665C50.6389 43.4342 50.5625 43.0507 50.5625 42.6417C50.5625 42.156 50.6389 41.7469 50.8171 41.389C50.9953 41.0567 51.2244 40.7499 51.53 40.5454C51.8355 40.3153 52.1919 40.1619 52.6247 40.0341C53.0575 39.9063 53.5158 39.8552 53.9995 39.8552C54.4833 39.8552 54.9415 39.8807 55.2979 39.9574C55.6544 40.0341 56.0108 40.1108 56.3418 40.2131V40.0085C56.3418 39.4206 56.1636 38.9604 55.8071 38.6536C55.4507 38.3469 54.9415 38.1935 54.2541 38.1935C53.5667 38.1935 53.3376 38.2446 52.9811 38.3469C52.5993 38.4491 52.2174 38.5769 51.8355 38.7303L51.3008 37.1709C51.7591 36.9664 52.2428 36.7874 52.752 36.6596C53.2357 36.5318 53.8468 36.4551 54.5342 36.4551C55.8071 36.4551 56.7237 36.7619 57.3347 37.401C57.9457 38.0401 58.2512 38.9093 58.2512 40.0597V45.0959H56.3163H56.3418ZM56.3927 41.4913C56.1381 41.389 55.8581 41.3123 55.5271 41.2612C55.1961 41.1845 54.8397 41.159 54.4578 41.159C53.8468 41.159 53.363 41.2868 53.0321 41.5169C52.7011 41.7469 52.5229 42.0793 52.5229 42.5394C52.5229 42.974 52.6756 43.2808 53.0066 43.5109C53.3121 43.7154 53.7195 43.8432 54.1777 43.8432C54.636 43.8432 54.7888 43.7921 55.0688 43.7154C55.3489 43.6387 55.578 43.5109 55.7817 43.3575C55.9854 43.2041 56.1381 43.0252 56.2654 42.7951C56.3672 42.565 56.4436 42.3349 56.4436 42.0537V41.5169L56.3927 41.4913Z" fill="white"/>
<path d="M61.0264 35.2793V33.4131H63.1395V35.2793H61.0264ZM61.1027 45.0961V36.5831H63.0631V45.0961H61.1027Z" fill="white"/>
<path d="M67.9511 45.0964H65.9907V36.5834H67.9511V37.9128C68.0784 37.7083 68.2312 37.5037 68.4094 37.3248C68.5621 37.1458 68.7658 36.9925 68.9949 36.8391C69.2241 36.6857 69.4532 36.5834 69.7078 36.5067C69.9624 36.43 70.2679 36.3789 70.5989 36.3789C71.5663 36.3789 72.3047 36.6857 72.8138 37.2737C73.3485 37.8617 73.6031 38.6542 73.6031 39.6512V45.0709H71.6427V40.2392C71.6427 39.5745 71.49 39.0632 71.1844 38.7053C70.8789 38.3474 70.4207 38.1684 69.8605 38.1684C69.3004 38.1684 68.8422 38.3474 68.4857 38.7308C68.1293 39.0887 67.9511 39.6256 67.9511 40.2903V45.0964Z" fill="white"/>
<path d="M78.6441 43.1279C79.077 43.5114 79.6116 43.6904 80.2481 43.6904C80.8846 43.6904 81.1392 43.6137 81.4956 43.4347C81.852 43.2558 82.2085 43.0001 82.5394 42.6678L83.6851 43.6904C83.2778 44.1761 82.794 44.5596 82.2339 44.8408C81.6738 45.122 81.0119 45.2754 80.2226 45.2754C79.4334 45.2754 79.0515 45.1731 78.5168 44.943C77.9822 44.7129 77.5239 44.4317 77.142 44.0483C76.7601 43.6648 76.4546 43.2046 76.2255 42.6422C75.9964 42.1054 75.8945 41.4918 75.8945 40.8271C75.8945 40.1625 75.9964 39.6512 76.2 39.1143C76.4037 38.5775 76.6838 38.1173 77.0657 37.7083C77.4476 37.2992 77.8804 36.9925 78.3641 36.7368C78.8733 36.5067 79.4334 36.3789 80.0444 36.3789C80.6554 36.3789 81.3174 36.5067 81.8266 36.7624C82.3358 37.018 82.7686 37.3504 83.0995 37.7594C83.4305 38.1684 83.6851 38.6797 83.8633 39.2166C84.0415 39.779 84.1179 40.367 84.1179 40.9805C84.1179 41.5941 84.1179 41.1595 84.1179 41.2362C84.1179 41.3129 84.1179 41.4151 84.1179 41.5174H77.8804C78.0077 42.2076 78.2877 42.7445 78.7205 43.1279H78.6441ZM82.1575 40.2392C82.1321 39.9324 82.0557 39.6256 81.9539 39.37C81.852 39.0887 81.6993 38.8587 81.5211 38.6541C81.3428 38.4496 81.1137 38.2962 80.8591 38.1684C80.6045 38.0406 80.3245 37.9895 79.9935 37.9895C79.3825 37.9895 78.8987 38.194 78.5168 38.603C78.135 39.0121 77.8804 39.5489 77.804 40.2136H82.1575V40.2392Z" fill="white"/>
<path d="M88.3949 45.0957H86.4346V36.5827H88.3949V38.5001C88.675 37.8609 89.0314 37.3497 89.5406 36.9406C90.0244 36.5572 90.6608 36.3782 91.3992 36.4038V38.4745H91.2973C90.8645 38.4745 90.4826 38.5512 90.1262 38.679C89.7698 38.8068 89.4642 39.0369 89.2096 39.3181C88.9551 39.5993 88.7514 39.9572 88.6241 40.3663C88.4968 40.8009 88.4204 41.2866 88.4204 41.849V45.0957H88.3949Z" fill="white"/>
<path d="M99.292 43.7667C99.1392 44.0991 98.9101 44.3803 98.63 44.5848C98.35 44.8149 98.019 44.9682 97.6371 45.0961C97.2552 45.1983 96.8479 45.275 96.3896 45.275C95.9313 45.275 95.1675 45.1728 94.531 44.9427C93.8946 44.7382 93.3345 44.4058 92.7998 43.9968L93.6654 42.6674C94.1237 42.9998 94.582 43.281 95.0657 43.4599C95.5494 43.6389 96.0077 43.7156 96.4405 43.7156C96.8733 43.7156 97.1788 43.6389 97.408 43.4599C97.6371 43.281 97.7644 43.0765 97.7644 42.7953C97.7644 42.5907 97.7135 42.4629 97.6116 42.3351C97.5098 42.2073 97.3825 42.105 97.2043 42.0283C97.0261 41.9261 96.8224 41.8494 96.5933 41.7982C96.3641 41.7216 96.135 41.6449 95.8804 41.5682C95.5749 41.4659 95.2439 41.3636 94.9384 41.2358C94.6329 41.108 94.3274 40.9546 94.0982 40.7757C93.8436 40.5967 93.64 40.3666 93.4872 40.0854C93.3345 39.8042 93.2581 39.4719 93.2581 39.0628C93.2581 38.6282 93.3345 38.2703 93.4872 37.938C93.64 37.6057 93.8691 37.35 94.1237 37.1199C94.3783 36.8898 94.7093 36.7109 95.0912 36.6086C95.473 36.4808 95.8549 36.4297 96.2623 36.4297C96.6696 36.4297 97.3316 36.5064 97.8917 36.6853C98.4263 36.8643 98.9355 37.0944 99.3938 37.4011L98.63 38.7816C98.2227 38.526 97.8153 38.347 97.3825 38.1936C96.9751 38.0403 96.5678 37.9636 96.2368 37.9636C95.9059 37.9636 95.5749 38.0403 95.3712 38.1936C95.1675 38.347 95.0657 38.5515 95.0657 38.8072C95.0657 38.9861 95.1166 39.114 95.2184 39.2418C95.3203 39.344 95.473 39.4463 95.6513 39.5486C95.8295 39.6508 96.0332 39.7275 96.2623 39.8042C96.4914 39.8809 96.7206 39.9576 96.9751 40.0343C97.2807 40.1365 97.5862 40.2388 97.9171 40.3666C98.2227 40.4945 98.5027 40.6478 98.7573 40.8524C99.0119 41.0313 99.2156 41.2614 99.3683 41.5426C99.5211 41.8238 99.5975 42.1306 99.5975 42.5141C99.5975 42.9998 99.5211 43.3832 99.3683 43.7156L99.292 43.7667Z" fill="white"/>
<path d="M104.486 34.9471V33.8223H111.64V34.7682L108.126 38.7051C108.61 38.7562 109.094 38.8329 109.527 38.9863C109.985 39.1141 110.367 39.3186 110.698 39.5743C111.029 39.8299 111.309 40.1623 111.512 40.5457C111.716 40.9292 111.818 41.3894 111.818 41.9007C111.818 42.412 111.716 42.8721 111.512 43.2811C111.309 43.6902 111.054 44.0481 110.723 44.3549C110.392 44.6616 109.985 44.8917 109.527 45.0451C109.068 45.2241 108.585 45.3007 108.05 45.3007C107.108 45.3007 106.293 45.1218 105.606 44.7383C104.918 44.3549 104.333 43.8691 103.875 43.2811L104.791 42.4631C105.224 42.9999 105.708 43.409 106.242 43.7157C106.777 43.997 107.388 44.1503 108.075 44.1503C108.763 44.1503 108.737 44.0992 109.043 43.997C109.348 43.8947 109.603 43.7413 109.832 43.5624C110.061 43.3578 110.214 43.1278 110.341 42.8721C110.468 42.6165 110.545 42.2841 110.545 41.9518C110.545 41.236 110.265 40.6991 109.679 40.3157C109.094 39.9322 108.33 39.7532 107.413 39.7532H106.701L106.446 38.9863L109.985 34.9471H104.486Z" fill="white"/>
<path d="M121.569 35.8924C121.162 35.5345 120.729 35.2533 120.321 35.0744C119.914 34.8698 119.43 34.7932 118.921 34.7932C118.412 34.7932 117.954 34.921 117.546 35.1766C117.139 35.4323 116.783 35.7646 116.502 36.1992C116.222 36.6338 115.993 37.1707 115.841 37.7586C115.688 38.3722 115.611 39.0369 115.611 39.7782C115.764 39.5482 115.942 39.3436 116.121 39.1136C116.324 38.909 116.553 38.7301 116.808 38.5767C117.063 38.4233 117.368 38.2955 117.699 38.1932C118.03 38.091 118.386 38.0399 118.794 38.0399C119.201 38.0399 119.812 38.1165 120.296 38.2699C120.78 38.4233 121.187 38.6534 121.543 38.9602C121.9 39.267 122.18 39.6249 122.384 40.0595C122.587 40.4941 122.689 40.9798 122.689 41.4911C122.689 42.0024 122.587 42.5392 122.384 42.9994C122.18 43.4595 121.9 43.8686 121.543 44.2009C121.187 44.5332 120.754 44.7889 120.27 44.9934C119.787 45.1724 119.252 45.2746 118.692 45.2746C118.132 45.2746 117.521 45.1724 117.012 44.9678C116.502 44.7633 116.095 44.4821 115.739 44.1242C115.382 43.7663 115.306 43.6641 115.128 43.3828C114.949 43.1016 114.797 42.8204 114.695 42.4625C114.568 42.1302 114.491 41.7212 114.415 41.2866C114.338 40.852 114.313 40.3151 114.313 39.7527C114.313 38.8835 114.415 38.091 114.619 37.3496C114.822 36.6082 115.128 35.9436 115.535 35.4067C115.942 34.8443 116.426 34.4097 117.012 34.1029C117.597 33.7961 118.259 33.6172 118.998 33.6172C119.736 33.6172 120.27 33.7194 120.805 33.9495C121.34 34.1796 121.849 34.4864 122.333 34.8954L121.594 35.8669L121.569 35.8924ZM121.212 40.5963C121.085 40.2895 120.882 40.0339 120.652 39.8294C120.423 39.6249 120.118 39.4459 119.787 39.3181C119.456 39.1903 119.074 39.1391 118.667 39.1391C118.259 39.1391 117.877 39.2158 117.521 39.3436C117.164 39.4715 116.884 39.676 116.63 39.9061C116.375 40.1361 116.197 40.3918 116.07 40.6986C115.942 41.0053 115.866 41.3121 115.866 41.6189C115.866 41.9257 115.942 42.3347 116.07 42.6415C116.197 42.9482 116.401 43.2295 116.655 43.4595C116.91 43.6896 117.215 43.8686 117.546 43.9964C117.903 44.1242 118.285 44.2009 118.692 44.2009C119.099 44.2009 119.481 44.1242 119.812 43.9964C120.143 43.8686 120.423 43.6896 120.652 43.4595C120.882 43.2295 121.06 42.9482 121.187 42.6415C121.314 42.3347 121.391 41.9768 121.391 41.6189C121.391 41.261 121.314 40.9286 121.187 40.6474L121.212 40.5963Z" fill="white"/>
<path d="M126.024 33.7969H132.491V34.9728H127.145L126.915 38.5774C127.246 38.4241 127.577 38.2962 127.908 38.2195C128.239 38.1428 128.647 38.0917 129.13 38.0917C129.614 38.0917 130.174 38.1684 130.658 38.3218C131.116 38.4752 131.549 38.7053 131.88 39.012C132.236 39.3188 132.491 39.6767 132.695 40.1113C132.898 40.5459 133 41.0316 133 41.5685C133 42.1054 132.898 42.6422 132.695 43.1024C132.491 43.5625 132.236 43.946 131.88 44.2783C131.524 44.6107 131.116 44.8663 130.607 45.0453C130.123 45.2242 129.563 45.3009 128.978 45.3009C128.392 45.3009 127.425 45.122 126.763 44.7896C126.075 44.4573 125.49 44.0227 124.98 43.5114L125.821 42.5911C126.304 43.0768 126.814 43.4603 127.348 43.7159C127.883 43.9716 128.443 44.125 129.003 44.125C129.563 44.125 129.767 44.0738 130.098 43.946C130.429 43.8182 130.709 43.6392 130.963 43.4347C131.218 43.2302 131.371 42.949 131.524 42.6422C131.651 42.3354 131.727 42.0031 131.727 41.6452C131.727 41.2873 131.651 40.9805 131.524 40.6737C131.396 40.3925 131.193 40.1369 130.963 39.9324C130.709 39.7279 130.429 39.5489 130.072 39.4466C129.741 39.3188 129.359 39.2677 128.927 39.2677C128.494 39.2677 128.01 39.3188 127.628 39.4466C127.246 39.5745 126.89 39.7279 126.559 39.9068L125.719 39.3444L126.05 33.848L126.024 33.7969Z" fill="white"/>
</g>
<defs>
<clipPath id="clip0_7882_7128">
<rect width="133" height="60" fill="white"/>
</clipPath>
</defs>
</svg>
