<svg width="160" height="30" viewBox="0 0 160 30" fill="none" xmlns="http://www.w3.org/2000/svg">
<g clip-path="url(#clip0_7882_6925)">
<path d="M49.5855 21.8749C49.0977 22.2354 48.5855 22.5479 48.0489 22.8123C47.4879 23.0768 46.8781 23.2691 46.2196 23.4133C45.5611 23.5575 44.8294 23.6056 44.0245 23.6056C42.7806 23.6056 41.6098 23.3893 40.5611 22.9325C39.5123 22.4758 38.5855 21.8748 37.8294 21.0816C37.0489 20.3123 36.4635 19.3989 36.0001 18.3172C35.5611 17.2595 35.3416 16.1297 35.3416 14.9037C35.3416 13.6777 35.5611 12.572 35.9757 11.5143C36.4147 10.4566 37.0001 9.54312 37.805 8.74985C38.6098 7.95658 39.5123 7.33158 40.5855 6.87485C41.6586 6.41812 42.8537 6.17773 44.1464 6.17773C45.4391 6.17773 45.6342 6.24985 46.2928 6.37004C46.9269 6.49023 47.5123 6.68254 48.0489 6.89889C48.5855 7.13927 49.0733 7.4037 49.5367 7.7162C50.0001 8.0287 50.4147 8.38927 50.8294 8.77389L48.9025 10.9614C48.2196 10.3364 47.4879 9.83158 46.7318 9.44696C45.9757 9.06235 45.0976 8.87004 44.122 8.87004C43.1464 8.87004 42.5611 9.01427 41.8781 9.32677C41.1952 9.63927 40.5855 10.072 40.0733 10.6008C39.5611 11.1297 39.1708 11.7547 38.9025 12.4758C38.6342 13.197 38.4879 13.9662 38.4879 14.8075C38.4879 15.6489 38.6342 16.4181 38.9025 17.1633C39.1708 17.8845 39.5611 18.5335 40.0733 19.0864C40.5855 19.6393 41.1708 20.0479 41.8781 20.3604C42.5611 20.6729 43.3172 20.8412 44.122 20.8412C44.9269 20.8412 46.0489 20.6489 46.805 20.2402C47.5611 19.8556 48.2928 19.3268 49.0245 18.6297L50.9513 20.5527C50.5123 21.0095 50.0489 21.4422 49.5611 21.8027L49.5855 21.8749Z" fill="white"/>
<path d="M57.6587 20.4081C58.3173 20.9609 59.1465 21.2254 60.0977 21.2254C61.049 21.2254 61.4636 21.1052 62.0002 20.8407C62.5368 20.5763 63.0734 20.2157 63.5856 19.7109L65.3173 21.2254C64.7075 21.9465 63.9514 22.5234 63.0977 22.9561C62.2441 23.3888 61.2197 23.6052 60.049 23.6052C58.8782 23.6052 58.2685 23.4369 57.4636 23.1244C56.6587 22.8119 55.9514 22.3552 55.366 21.7782C54.7807 21.2013 54.3173 20.5042 53.9514 19.6869C53.6099 18.8696 53.4392 17.9802 53.4392 16.9946C53.4392 16.009 53.5855 15.2157 53.9026 14.4225C54.2197 13.6292 54.6587 12.9321 55.2197 12.3071C55.7807 11.6821 56.4392 11.2254 57.1953 10.8648C57.9514 10.5042 58.8051 10.3359 59.7319 10.3359C60.6587 10.3359 61.6587 10.5282 62.4148 10.8888C63.1953 11.2494 63.8294 11.7542 64.3416 12.3792C64.8538 13.0042 65.2441 13.7254 65.5124 14.5667C65.7807 15.4081 65.9026 16.2734 65.9026 17.1869C65.9026 18.1004 65.9026 17.4513 65.9026 17.5715C65.9026 17.6917 65.9026 17.8359 65.8538 17.9802H56.3904C56.5612 19.0138 57.0002 19.8071 57.6587 20.384V20.4081ZM62.9758 16.1052C62.927 15.6484 62.8294 15.1917 62.6587 14.7831C62.488 14.3744 62.2685 14.0138 62.0002 13.7254C61.7319 13.4369 61.3904 13.1965 61.0246 13.0282C60.6343 12.86 60.2197 12.7638 59.7319 12.7638C58.8295 12.7638 58.0734 13.0763 57.488 13.7013C56.9026 14.3263 56.5368 15.1196 56.3904 16.1052H63.0002H62.9758Z" fill="white"/>
<path d="M72.4634 23.3416H69.4878V10.6493H72.4634V13.5098C72.878 12.5483 73.439 11.7791 74.1951 11.2021C74.9512 10.6252 75.878 10.3608 77.0244 10.4089V13.4858H76.8536C76.1951 13.4858 75.6097 13.5819 75.0732 13.7983C74.5366 14.0146 74.0732 14.3271 73.6829 14.7358C73.2927 15.1444 73 15.6733 72.7805 16.2983C72.561 16.9233 72.4634 17.6685 72.4634 18.5098V23.3416Z" fill="white"/>
<path d="M83.7562 19.3746C83.7562 19.9275 83.9026 20.3362 84.1709 20.6006C84.4392 20.841 84.8294 20.9852 85.3416 20.9852C85.8538 20.9852 86.5855 20.841 87.1709 20.5525V22.9323C86.805 23.1487 86.3904 23.2929 85.9758 23.4131C85.5611 23.5333 85.0733 23.5814 84.5123 23.5814C83.9514 23.5814 83.4879 23.5092 83.0245 23.389C82.5611 23.2689 82.1709 23.0525 81.8294 22.764C81.4879 22.4756 81.244 22.091 81.0489 21.6102C80.8782 21.1294 80.7806 20.5525 80.7806 19.8314V13.1246H79.1465V10.6487H80.7806V7.16309H83.7562V10.6487H87.2197V13.1246H83.7562V19.3746Z" fill="white"/>
<path d="M99.6098 21.3461C99.3659 21.8509 99.0244 22.2595 98.6098 22.5961C98.1707 22.9326 97.6585 23.173 97.0976 23.3413C96.5122 23.5095 95.8781 23.5817 95.2195 23.5817C94.561 23.5817 93.3415 23.4134 92.4146 23.1009C91.4634 22.7884 90.5854 22.3076 89.7561 21.6826L91.0732 19.7115C91.7805 20.2163 92.4878 20.6249 93.2195 20.8653C93.9512 21.1297 94.6342 21.274 95.2927 21.274C95.9512 21.274 96.4146 21.1538 96.7561 20.9134C97.0976 20.673 97.2927 20.3365 97.2927 19.9038V19.8557C97.2927 19.6153 97.2195 19.399 97.0488 19.2307C96.9024 19.0624 96.6829 18.8942 96.4146 18.7499C96.1463 18.6057 95.8293 18.4855 95.4878 18.3893C95.1463 18.2932 94.7805 18.173 94.4146 18.0768C93.9512 17.9326 93.4634 17.7643 92.9756 17.5961C92.4878 17.4278 92.0732 17.1874 91.6829 16.899C91.2927 16.6105 91 16.274 90.7561 15.8653C90.5122 15.4567 90.3903 14.9518 90.3903 14.3509V14.3028C90.3903 13.7018 90.5122 13.173 90.7317 12.6922C90.9756 12.2115 91.2927 11.8028 91.7073 11.4663C92.122 11.1297 92.6098 10.8653 93.1707 10.697C93.7317 10.5288 94.3415 10.4326 94.9756 10.4326C95.6098 10.4326 96.6098 10.5528 97.439 10.8172C98.2683 11.0817 99.0244 11.4182 99.7073 11.8749L98.5366 13.9422C97.9268 13.5817 97.2927 13.2692 96.6585 13.0528C96.0244 12.8365 95.439 12.7403 94.9024 12.7403C94.3659 12.7403 93.8781 12.8605 93.561 13.1009C93.2439 13.3413 93.0732 13.6538 93.0732 14.0143V14.0624C93.0732 14.2788 93.1463 14.4951 93.3171 14.6634C93.4878 14.8317 93.6829 14.9759 93.9756 15.1201C94.2439 15.2643 94.561 15.3845 94.9024 15.5047C95.2439 15.6249 95.6098 15.7451 96 15.8413C96.4634 15.9855 96.9512 16.1538 97.4146 16.3461C97.8781 16.5384 98.3171 16.7788 98.6829 17.0672C99.0732 17.3557 99.3659 17.6922 99.6098 18.0768C99.8537 18.4855 99.9756 18.9663 99.9756 19.5432V19.5913C99.9756 20.2643 99.8537 20.8413 99.6098 21.3461Z" fill="white"/>
<path d="M103.854 8.19734V6.51465H114.732V7.90888L109.39 13.7743C110.147 13.8464 110.854 13.9666 111.537 14.1829C112.22 14.3993 112.805 14.6877 113.317 15.0723C113.829 15.457 114.22 15.9377 114.537 16.5146C114.829 17.0916 115 17.7646 115 18.5339C115 19.3031 114.854 19.9762 114.561 20.6012C114.268 21.2262 113.854 21.755 113.342 22.2118C112.829 22.6685 112.244 23.005 111.537 23.2695C110.854 23.5098 110.098 23.63 109.293 23.63C107.854 23.63 106.61 23.3416 105.561 22.7887C104.512 22.2358 103.634 21.5146 102.927 20.6252L104.317 19.3993C104.976 20.1925 105.732 20.8175 106.512 21.2502C107.317 21.6829 108.244 21.8993 109.317 21.8993C110.39 21.8993 110.317 21.8271 110.781 21.6589C111.244 21.5146 111.634 21.2983 111.951 20.9858C112.293 20.6973 112.561 20.3608 112.732 19.9521C112.903 19.5435 113.025 19.0868 113.025 18.582C113.025 17.5243 112.586 16.707 111.683 16.1541C110.805 15.6012 109.659 15.3127 108.244 15.3127H107.147L106.756 14.1829L112.147 8.1733H103.805L103.854 8.19734Z" fill="#CFA931"/>
<path d="M129.805 9.61478C129.171 9.08594 128.537 8.67728 127.902 8.38882C127.268 8.10036 126.561 7.95613 125.78 7.95613C125 7.95613 124.293 8.14844 123.683 8.50901C123.073 8.86959 122.537 9.39844 122.098 10.0475C121.659 10.6965 121.341 11.4898 121.122 12.4032C120.902 13.3167 120.78 14.3023 120.78 15.4081C121 15.0715 121.268 14.735 121.561 14.4465C121.854 14.134 122.22 13.8696 122.61 13.6292C123 13.3888 123.463 13.1965 123.951 13.0763C124.439 12.9321 125 12.86 125.634 12.86C126.268 12.86 127.195 12.9802 127.902 13.2206C128.61 13.4609 129.244 13.8215 129.78 14.2542C130.317 14.7109 130.756 15.2638 131.049 15.9129C131.366 16.5619 131.537 17.259 131.537 18.0523C131.537 18.8456 131.366 19.6148 131.049 20.3119C130.732 21.009 130.293 21.5859 129.756 22.0907C129.219 22.5956 128.561 22.9802 127.805 23.2446C127.049 23.5331 126.244 23.6773 125.39 23.6773C124.537 23.6773 123.61 23.5331 122.829 23.2206C122.073 22.9081 121.415 22.4994 120.902 21.9706C120.39 21.4417 120.244 21.2734 119.976 20.8648C119.707 20.4561 119.488 19.9994 119.293 19.4946C119.122 18.9898 118.976 18.3888 118.878 17.7398C118.78 17.0667 118.732 16.2975 118.732 15.4561C118.732 14.1821 118.902 12.9802 119.219 11.8504C119.537 10.7446 120 9.75901 120.61 8.94171C121.219 8.1244 121.951 7.47536 122.854 6.99459C123.732 6.51382 124.732 6.27344 125.854 6.27344C126.976 6.27344 127.78 6.44171 128.585 6.77825C129.39 7.11478 130.146 7.59555 130.902 8.19651L129.78 9.66286L129.805 9.61478ZM129.244 16.61C129.049 16.1773 128.756 15.7927 128.39 15.4561C128.024 15.1436 127.585 14.8792 127.073 14.7109C126.561 14.5186 126 14.4225 125.366 14.4225C124.732 14.4225 124.146 14.5186 123.61 14.735C123.073 14.9513 122.634 15.2157 122.268 15.5763C121.902 15.9129 121.61 16.3215 121.415 16.7542C121.219 17.1869 121.122 17.6677 121.122 18.1484C121.122 18.6292 121.219 19.2061 121.439 19.6629C121.659 20.1196 121.951 20.5282 122.341 20.8648C122.732 21.2013 123.171 21.4657 123.707 21.6581C124.244 21.8504 124.805 21.9465 125.463 21.9465C126.122 21.9465 126.659 21.8504 127.171 21.6581C127.683 21.4657 128.098 21.1773 128.463 20.8407C128.829 20.5042 129.098 20.0956 129.293 19.6148C129.488 19.134 129.585 18.6292 129.585 18.1004C129.585 17.5715 129.488 17.0907 129.293 16.634L129.244 16.61Z" fill="#CFA931"/>
<path d="M136.586 6.51465H146.39V8.26946H138.268L137.903 13.6541C138.415 13.4377 138.927 13.2454 139.415 13.1252C139.927 12.981 140.537 12.9329 141.244 12.9329C141.951 12.9329 142.854 13.0531 143.561 13.2935C144.268 13.5339 144.903 13.8704 145.439 14.3031C145.976 14.7358 146.39 15.2887 146.683 15.9377C146.976 16.5868 147.122 17.3079 147.122 18.1012C147.122 18.8945 146.976 19.6877 146.683 20.3608C146.39 21.0339 145.976 21.6348 145.439 22.1156C144.903 22.5964 144.268 22.981 143.512 23.2454C142.756 23.5098 141.951 23.6541 141.049 23.6541C140.147 23.6541 138.708 23.4137 137.683 22.8848C136.659 22.38 135.732 21.731 134.951 20.9858L136.22 19.6156C136.976 20.3368 137.732 20.8896 138.537 21.2983C139.342 21.707 140.195 21.8993 141.073 21.8993C141.951 21.8993 142.244 21.8031 142.732 21.6348C143.244 21.4425 143.683 21.1781 144.025 20.8656C144.39 20.5291 144.659 20.1204 144.878 19.6637C145.073 19.207 145.171 18.7021 145.171 18.1733C145.171 17.6445 145.073 17.1637 144.878 16.731C144.683 16.2983 144.39 15.9137 144.025 15.6012C143.659 15.2887 143.195 15.0483 142.683 14.88C142.171 14.7118 141.586 14.6156 140.951 14.6156C140.317 14.6156 139.561 14.7118 138.976 14.88C138.39 15.0723 137.854 15.2887 137.366 15.5772L136.073 14.7358L136.561 6.53869L136.586 6.51465Z" fill="#CFA931"/>
<mask id="mask0_7882_6925" style="mask-type:luminance" maskUnits="userSpaceOnUse" x="0" y="0" width="27" height="31">
<path d="M26.2195 11.2736C26.3659 11.2015 26.4634 11.0332 26.4634 10.8649V7.73993C26.4634 7.57166 26.3659 7.42743 26.2195 7.33128L23.4634 5.76878C23.3171 5.69666 23.122 5.69666 22.9756 5.76878L20.4634 7.18705L16.4146 4.87936V2.01878C16.4146 1.85051 16.3171 1.70628 16.1707 1.61013L13.4634 0.0716647C13.3171 -0.000450721 13.1463 -0.000450721 13 0.0716647L10.2439 1.63416C10.0976 1.70628 10 1.87455 10 2.04282V4.9034L5.95122 7.21109L3.43902 5.79282C3.29268 5.7207 3.09756 5.7207 2.95122 5.79282L0.243902 7.33128C0.097561 7.42743 0 7.57166 0 7.73993V10.8649C0 11.0332 0.097561 11.2015 0.243902 11.2736L2.7561 12.6919V17.2832L0.243902 18.7015C0.097561 18.8217 0 18.9659 0 19.1342V22.2592C0 22.4274 0.097561 22.5957 0.243902 22.6678L3 24.2303C3.07317 24.2784 3.14634 24.3024 3.2439 24.3024C3.34146 24.3024 3.41463 24.3024 3.4878 24.2303L6 22.812L10.0488 25.1197V27.9803C10.0488 28.1486 10.1463 28.2928 10.2927 28.389L13.0488 29.9515C13.122 29.9995 13.1951 30.0236 13.2927 30.0236C13.3902 30.0236 13.4634 30.0236 13.5366 29.9515L16.2927 28.389C16.439 28.3169 16.5366 28.1486 16.5366 27.9803V25.1197L20.5854 22.812L23.0976 24.2303C23.1707 24.2784 23.2439 24.3024 23.3415 24.3024C23.439 24.3024 23.5122 24.3024 23.5854 24.2303L26.3415 22.6678C26.4878 22.5957 26.5854 22.4274 26.5854 22.2592V19.1342C26.5854 18.9659 26.4878 18.8217 26.3415 18.7255L23.8293 17.3072V12.7159L26.3415 11.2976L26.2195 11.2736ZM25.5122 10.6005L23.7073 11.6101V9.56686L25.5122 8.55724V10.6005ZM20.0244 8.0284V10.6005L18.1463 11.6822L13.7317 9.1582V7.01878L16 5.7207L20.0488 8.0284H20.0244ZM9.29268 12.2111L13.2439 9.97551L17.1951 12.2111L13.2439 14.4467L9.29268 12.2111ZM13.7073 15.288L17.6585 13.0524V17.5476L13.7073 19.7832V15.288ZM15.5122 4.9034L13.7073 5.91301V3.86974L15.5122 2.86013V4.9034ZM13.2439 1.0332L15.0488 2.04282L13.2439 3.05243L11.439 2.04282L13.2439 1.0332ZM6.43902 8.0284L10.4878 5.7207L12.7561 7.01878V9.1582L8.34146 11.6822L6.46341 10.6005V8.0284H6.43902ZM3.21951 6.73032L5.02439 7.73993L3.21951 8.74955L1.41463 7.73993L3.21951 6.73032ZM5.4878 8.55724V10.6005L3.68293 11.6101V9.56686L5.4878 8.55724ZM3.21951 20.1678L1.41463 19.1582L3.21951 18.1486L5.02439 19.1582L3.21951 20.1678ZM5.4878 21.9947L3.68293 23.0044V20.9611L5.4878 19.9515V21.9947ZM3.70732 17.3072V12.7159L5.97561 11.4178L7.85366 12.4995V17.5236L5.97561 18.6053L3.70732 17.3072ZM6.43902 21.9947V19.4226L8.31707 18.3409L12.7317 20.8649V23.0044L10.4634 24.3024L6.41463 21.9947H6.43902ZM13.2439 25.8649L11.439 24.8553L13.2439 23.8457L15.0488 24.8553L13.2439 25.8649ZM15.5122 27.6919L13.7073 28.7015V26.6582L15.5122 25.6486V27.6919ZM20.0244 21.9947L15.9756 24.3024L13.7073 23.0044V20.8649L18.122 18.3409L20 19.4226V21.9947H20.0244ZM20.4878 18.6053L18.6098 17.5236V12.4995L20.4878 11.4178L22.7561 12.7159V17.3072L20.4878 18.6053ZM25.5122 21.9947L23.7073 23.0044V20.9611L25.5122 19.9515V21.9947ZM25.0244 19.1342L23.2195 20.1438L21.4146 19.1342L23.2195 18.1245L25.0244 19.1342ZM23.2439 8.77359L21.439 7.76397L23.2439 6.75436L25.0488 7.76397L23.2439 8.77359Z" fill="white"/>
</mask>
<g mask="url(#mask0_7882_6925)">
<path d="M21.439 8.55762L21.8292 8.77396H21.439V8.55762Z" fill="#B8932E"/>
<path d="M21.439 7.23535L24.1463 8.77381H21.8292L21.439 8.55747V7.23535Z" fill="#B7922E"/>
<path d="M21.439 6.77855L21.4877 6.73047H22.8536L25.0243 7.98047V8.70162L24.9999 8.77374H24.1463L21.439 7.23528V6.77855Z" fill="#B6912E"/>
<path d="M25.0245 7.98047L22.8538 6.73047H25.0245V7.98047Z" fill="#B5902E"/>
<path d="M21.439 19.0381L23.439 20.1679H21.439V19.0381Z" fill="#C19C2E"/>
<path d="M21.439 18.1731L21.4877 18.125H22.1463L25.0243 19.7596V20.0962L24.9999 20.1683H23.439L21.439 19.0385V18.1731Z" fill="#C09A2E"/>
<path d="M24.4633 18.125L25.0243 18.4615V19.7596L22.1462 18.125H24.4633Z" fill="#BF992E"/>
<path d="M25.0244 18.4615L24.4634 18.125H25.0244V18.4615Z" fill="#BE982E"/>
<path d="M23.7317 22.9326L23.8536 23.0047H23.7317V22.9326Z" fill="#C49E2E"/>
<path d="M23.7317 21.6348L25.5122 22.6444V22.9569L25.4878 23.005H23.8536L23.7317 22.9328V21.6348Z" fill="#C29D2E"/>
<path d="M23.7317 20.3125L25.5122 21.3462V22.6442L23.7317 21.6346V20.3125Z" fill="#C19C2E"/>
<path d="M23.7317 20.0243L23.7561 19.9521H25.3902L25.5122 20.0243V21.3464L23.7317 20.3127V20.0243Z" fill="#C09A2E"/>
<path d="M25.5121 20.0243L25.3901 19.9521H25.5121V20.0243Z" fill="#BF992E"/>
<path d="M18.6099 17.4043L20.683 18.6062H18.6099V17.4043Z" fill="#C19C2E"/>
<path d="M18.6099 16.1055L22.683 18.4132L22.5611 18.6055H20.683L18.6099 17.4035V16.1055Z" fill="#C09A2E"/>
<path d="M18.6099 14.7832L22.7562 17.163V18.2688L22.683 18.413L18.6099 16.1053V14.7832Z" fill="#BF992E"/>
<path d="M18.6099 13.4854L22.7562 15.8411V17.1632L18.6099 14.7834V13.4854Z" fill="#BE982E"/>
<path d="M18.6099 12.1631L22.7562 14.5429V15.841L18.6099 13.4852V12.1631Z" fill="#BD972E"/>
<path d="M18.6099 11.5382L18.683 11.418H19.5855L22.7562 13.2209V14.543L18.6099 12.1632V11.5382Z" fill="#BC962E"/>
<path d="M21.8781 11.418L22.7562 11.9228V13.2209L19.5854 11.418H21.8781Z" fill="#BA952E"/>
<path d="M22.756 11.9228L21.8779 11.418H22.756V11.9228Z" fill="#B9942E"/>
<path d="M13.7073 23.7979L14.5853 24.3027H13.7073V23.7979Z" fill="#CAA42E"/>
<path d="M13.7073 22.4756L16.9024 24.3025H14.5853L13.7073 23.7977V22.4756Z" fill="#C9A32E"/>
<path d="M13.7073 21.1777L19.1951 24.3027H16.9024L13.7073 22.4758V21.1777Z" fill="#C7A12E"/>
<path d="M13.7073 19.9039L13.7317 19.8799L19.8048 23.3414L19.2439 24.303H19.1951L13.7073 21.178V19.9039Z" fill="#C6A02E"/>
<path d="M13.7317 19.8801L14.2927 18.8945L20.0244 22.1397V22.957L19.8049 23.3416L13.7317 19.8801Z" fill="#C59F2E"/>
<path d="M14.2927 18.8947L14.6342 18.3418H15.6342L20.0244 20.8418V22.1399L14.2927 18.8947Z" fill="#C49E2E"/>
<path d="M17.9267 18.3418L20.0243 19.5197V20.8418L15.634 18.3418H17.9267Z" fill="#C29D2E"/>
<path d="M20.0243 19.5197L17.9268 18.3418H20.0243V19.5197Z" fill="#C19C2E"/>
<path d="M13.7073 27.7168L15.4634 28.7024H13.7073V27.7168Z" fill="#CEA82E"/>
<path d="M13.7073 26.418L15.5122 27.4276V28.6535L15.4634 28.7016L13.7073 27.716V26.418Z" fill="#CDA62E"/>
<path d="M13.7073 25.7215L13.7561 25.6494H14.6829L15.5122 26.1302V27.4283L13.7073 26.4186V25.7215Z" fill="#CBA52E"/>
<path d="M15.5121 26.1302L14.6829 25.6494H15.5121V26.1302Z" fill="#CAA42E"/>
<path d="M11.439 25.1201L12.7316 25.8653H11.439V25.1201Z" fill="#CDA62E"/>
<path d="M11.439 23.8703L11.4634 23.8223L14.9999 25.8415V25.8655H12.7316L11.439 25.1203V23.8703Z" fill="#CBA52E"/>
<path d="M11.4634 23.8223H13.7561L15.0244 24.5434V25.7934L15 25.8415L11.4634 23.8223Z" fill="#CAA42E"/>
<path d="M15.0244 24.5434L13.7561 23.8223H15.0244V24.5434Z" fill="#C9A32E"/>
<path d="M6.43896 23.582L7.68287 24.3032H6.43896V23.582Z" fill="#CEA82E"/>
<path d="M6.43896 22.2832L9.99994 24.3024H7.68287L6.43896 23.5813V22.2832Z" fill="#CDA62E"/>
<path d="M6.43896 20.9619L12.2926 24.3033H9.99994L6.43896 22.284V20.9619Z" fill="#CBA52E"/>
<path d="M6.43896 19.6631L12.756 23.2448V23.966L12.5609 24.3025H12.2926L6.43896 20.9612V19.6631Z" fill="#CAA42E"/>
<path d="M6.43896 18.4614L6.48775 18.3652L12.756 21.947V23.245L6.43896 19.6633V18.4614Z" fill="#C9A32E"/>
<path d="M6.48779 18.3658L6.51218 18.3418H8.73169L12.7561 20.6255V21.9476L6.48779 18.3658Z" fill="#C7A12E"/>
<path d="M11.0244 18.3418L12.7561 19.3274V20.6255L8.73169 18.3418H11.0244Z" fill="#C6A02E"/>
<path d="M12.7561 19.3274L11.0244 18.3418H12.7561V19.3274Z" fill="#C59F2E"/>
<path d="M3.70728 18.1006L4.58532 18.6054H3.70728V18.1006Z" fill="#CAA42E"/>
<path d="M3.70728 16.7793L6.87801 18.6062H4.58532L3.70728 18.1014V16.7793Z" fill="#C9A32E"/>
<path d="M3.70728 15.4805L7.85362 17.8362V18.4853L7.78045 18.6055H6.87801L3.70728 16.7785V15.4805Z" fill="#C7A12E"/>
<path d="M3.70728 14.1582L7.85362 16.538V17.8361L3.70728 15.4803V14.1582Z" fill="#C6A02E"/>
<path d="M3.70728 12.8604L7.85362 15.2161V16.5382L3.70728 14.1584V12.8604Z" fill="#C59F2E"/>
<path d="M3.70728 11.7546L3.78045 11.6104L7.85362 13.918V15.2161L3.70728 12.8604V11.7546Z" fill="#C49E2E"/>
<path d="M3.78052 11.6103L3.90247 11.418H5.78052L7.85369 12.5959V13.918L3.78052 11.6103Z" fill="#C29D2E"/>
<path d="M7.85369 12.5959L5.78052 11.418H7.85369V12.5959Z" fill="#C19C2E"/>
<path d="M3.70728 22.0195L5.43898 23.0051H3.70728V22.0195Z" fill="#CEA82E"/>
<path d="M3.70728 20.7207L5.48776 21.7303V22.9563L5.46337 23.0044H5.43898L3.70728 22.0188V20.7207Z" fill="#CDA62E"/>
<path d="M3.70728 20.0243L3.73167 19.9521H4.6585L5.48776 20.4329V21.731L3.70728 20.7214V20.0243Z" fill="#CBA52E"/>
<path d="M5.48772 20.4329L4.65845 19.9521H5.48772V20.4329Z" fill="#CAA42E"/>
<path d="M1.43896 19.4229L2.73165 20.168H1.43896V19.4229Z" fill="#CDA62E"/>
<path d="M1.43896 18.1731L1.46336 18.125L4.99994 20.1442L4.97555 20.1683H2.73165L1.43896 19.4231V18.1731Z" fill="#CBA52E"/>
<path d="M1.46338 18.125H3.73167L5.02435 18.8462V20.0962L4.99996 20.1442L1.46338 18.125Z" fill="#CAA42E"/>
<path d="M5.02437 18.8462L3.73169 18.125H5.02437V18.8462Z" fill="#C9A32E"/>
<path d="M3.70728 11.5381L3.82923 11.6342H3.70728V11.5381Z" fill="#C49E2E"/>
<path d="M3.70728 10.2402L5.48776 11.2498V11.5623L5.46337 11.6345H3.82923L3.70728 11.5383V10.2402Z" fill="#C29D2E"/>
<path d="M3.70728 8.91797L5.48776 9.95162V11.2497L3.70728 10.2401V8.91797Z" fill="#C19C2E"/>
<path d="M3.70728 8.62973L3.73167 8.55762H5.36581L5.48776 8.62973V9.95185L3.70728 8.91819V8.62973Z" fill="#C09A2E"/>
<path d="M5.48792 8.62973L5.36597 8.55762H5.48792V8.62973Z" fill="#BF992E"/>
<path d="M1.43896 7.64453L3.41457 8.77434H1.43896V7.64453Z" fill="#C19C2E"/>
<path d="M1.43896 6.77855L1.46336 6.73047H2.14628L5.02433 8.36508V8.70162L4.97555 8.77374H3.41457L1.43896 7.64393V6.77855Z" fill="#C09A2E"/>
<path d="M4.43892 6.73047L5.02429 7.06701V8.36508L2.14624 6.73047H4.43892Z" fill="#BF992E"/>
<path d="M5.02433 7.06701L4.43896 6.73047H5.02433V7.06701Z" fill="#BE982E"/>
<path d="M6.43896 10.5049L8.53653 11.6828H6.43896V10.5049Z" fill="#C19C2E"/>
<path d="M6.43896 9.18262L10.8292 11.6826H8.53653L6.43896 10.5047V9.18262Z" fill="#C09A2E"/>
<path d="M6.43896 7.88477L12.1707 11.13L11.8536 11.6828H10.8292L6.43896 9.18284V7.88477Z" fill="#BF992E"/>
<path d="M6.43896 7.06723L6.65848 6.68262L12.7316 10.1442L12.1707 11.1297L6.43896 7.88454V7.06723Z" fill="#BE982E"/>
<path d="M6.65845 6.68224L7.21942 5.7207H7.2682L12.756 8.8457V10.1197L12.7316 10.1438L6.65845 6.68224Z" fill="#BD972E"/>
<path d="M9.58538 5.7207L12.7561 7.52359V8.8457L7.26831 5.7207H9.58538Z" fill="#BC962E"/>
<path d="M11.8781 5.7207L12.7562 6.22551V7.52359L9.58545 5.7207H11.8781Z" fill="#BA952E"/>
<path d="M12.756 6.22551L11.8779 5.7207H12.756V6.22551Z" fill="#B9942E"/>
<path d="M11.439 2.86035L11.8292 3.0767H11.439V2.86035Z" fill="#B8932E"/>
<path d="M11.439 1.53809L14.1219 3.07655H11.8292L11.439 2.8602V1.53809Z" fill="#B7922E"/>
<path d="M11.439 1.08128L11.4634 1.0332H12.8292L15.0243 2.2832V3.00436L14.9999 3.07647H14.1219L11.439 1.53801V1.08128Z" fill="#B6912E"/>
<path d="M15.0245 2.2832L12.8293 1.0332H15.0245V2.2832Z" fill="#B5902E"/>
<path d="M13.7073 5.45703L14.5365 5.9378H13.7073V5.45703Z" fill="#B9942E"/>
<path d="M13.7073 4.1582L15.5122 5.16782V5.86493L15.4634 5.93705H14.5365L13.7073 5.45628V4.1582Z" fill="#B8932E"/>
<path d="M13.7073 2.93247L13.7561 2.86035L15.5122 3.86997V5.16804L13.7073 4.15843V2.93247Z" fill="#B7922E"/>
<path d="M15.5122 3.86997L13.7561 2.86035H15.5122V3.86997Z" fill="#B6912E"/>
<path d="M13.7073 18.5576L15.8536 19.7595H13.7073V18.5576Z" fill="#C59F2E"/>
<path d="M13.7073 17.2354L17.2195 19.2305L16.9024 19.7594H15.8536L13.7073 18.5575V17.2354Z" fill="#C49E2E"/>
<path d="M13.7073 15.9375L17.6585 18.1731V18.4856L17.2195 19.2308L13.7073 17.2356V15.9375Z" fill="#C29D2E"/>
<path d="M13.7073 14.6152L17.6585 16.8748V18.1729L13.7073 15.9374V14.6152Z" fill="#C19C2E"/>
<path d="M13.7073 14.3268L14.1463 13.5576L17.6585 15.5528V16.8749L13.7073 14.6153V14.3268Z" fill="#C09A2E"/>
<path d="M14.1462 13.5581L14.4633 13.0293H15.5121L17.6584 14.2553V15.5533L14.1462 13.5581Z" fill="#BF992E"/>
<path d="M17.6585 14.2553L15.5122 13.0293H17.6585V14.2553Z" fill="#BE982E"/>
<path d="M9.29272 13.4131L11.122 14.4708H9.29272V13.4131Z" fill="#C29D2E"/>
<path d="M9.29272 12.1152L13.4391 14.471H11.122L9.29272 13.4133V12.1152Z" fill="#C19C2E"/>
<path d="M9.29272 11.2496L9.48785 10.9131L15.7317 14.4708H13.4391L9.29272 12.115V11.2496Z" fill="#C09A2E"/>
<path d="M9.48779 10.9131L10.0488 9.97559H10.1463L16.8293 13.7737L16.439 14.4708H15.7317L9.48779 10.9131Z" fill="#BF992E"/>
<path d="M12.4389 9.97559L17.1706 12.6679V13.1727L16.8292 13.7737L10.1462 9.97559H12.4389Z" fill="#BE982E"/>
<path d="M14.756 9.97559L17.1707 11.3698V12.6679L12.439 9.97559H14.756Z" fill="#BD972E"/>
<path d="M17.0488 9.97559L17.1707 10.0477V11.3698L14.7561 9.97559H17.0488Z" fill="#BC962E"/>
<path d="M17.1708 10.0477L17.0488 9.97559H17.1708V10.0477Z" fill="#BA952E"/>
<path d="M13.7073 10.6973L15.439 11.6828H13.7073V10.6973Z" fill="#BE982E"/>
<path d="M13.7073 9.39941L17.7317 11.6831H15.439L13.7073 10.6975V9.39941Z" fill="#BD972E"/>
<path d="M13.7073 8.07715L19.9756 11.6348L19.9512 11.6829H17.7317L13.7073 9.39926V8.07715Z" fill="#BC962E"/>
<path d="M13.7073 6.7793L20.0243 10.361V11.563L19.9756 11.6351L13.7073 8.07737V6.7793Z" fill="#BA952E"/>
<path d="M13.7073 6.05724L13.9024 5.7207H14.1707L20.0243 9.03801V10.3601L13.7073 6.7784V6.05724Z" fill="#B9942E"/>
<path d="M16.4877 5.7207L20.0243 7.73993V9.03801L14.1707 5.7207H16.4877Z" fill="#B8932E"/>
<path d="M18.7805 5.7207L20.0244 6.41782V7.73993L16.4878 5.7207H18.7805Z" fill="#B7922E"/>
<path d="M20.0244 6.41782L18.7805 5.7207H20.0244V6.41782Z" fill="#B6912E"/>
<path d="M23.7317 11.1543L24.561 11.6351H23.7317V11.1543Z" fill="#B9942E"/>
<path d="M23.7317 9.85547L25.5122 10.8651V11.5622L25.4878 11.6343H24.561L23.7317 11.1535V9.85547Z" fill="#B8932E"/>
<path d="M23.7317 8.62973L23.7561 8.55762H23.7805L25.5122 9.54319V10.8653L23.7317 9.85569V8.62973Z" fill="#B7922E"/>
<path d="M25.5122 9.54319L23.7805 8.55762H25.5122V9.54319Z" fill="#B6912E"/>
<path d="M0 22.5479L13.0976 29.9998H0V22.5479Z" fill="#CFA92E"/>
<path d="M0 21.2256L15.4146 29.9996H13.0976L0 22.5477V21.2256Z" fill="#CFA92E"/>
<path d="M0 19.9277L17.7073 29.9998H15.4146L0 21.2258V19.9277Z" fill="#CEA82E"/>
<path d="M0 18.6055L20 29.9997H17.7073L0 19.9276V18.6055Z" fill="#CDA62E"/>
<path d="M0 17.3076L22.3171 29.9999H20L0 18.6057V17.3076Z" fill="#CBA52E"/>
<path d="M0 15.9854L23.0976 29.1344L22.6098 29.9998H22.3171L0 17.3075V15.9854Z" fill="#CAA42E"/>
<path d="M0 14.6875L23.6829 28.149L23.0976 29.1346L0 15.9856V14.6875Z" fill="#C9A32E"/>
<path d="M0 13.3652L24.2439 27.1633L23.6829 28.1489L0 14.6873V13.3652Z" fill="#C7A12E"/>
<path d="M0 12.0674L24.8293 26.202L24.2439 27.1635L0 13.3655V12.0674Z" fill="#C6A02E"/>
<path d="M0 10.7451L25.4146 25.2163L24.8293 26.2018L0 12.0672V10.7451Z" fill="#C59F2E"/>
<path d="M0 9.44727L25.9756 24.2309L25.4146 25.2165L0 10.7453V9.44727Z" fill="#C49E2E"/>
<path d="M0 8.125L26.4634 23.1971V23.3894L25.9756 24.2308L0 9.44712V8.125Z" fill="#C29D2E"/>
<path d="M0 6.82715L26.4634 21.8752V23.1973L0 8.12523V6.82715Z" fill="#C19C2E"/>
<path d="M0 6.61028L0.487805 5.79297L26.4634 20.5766V21.8747L0 6.82662V6.61028Z" fill="#C09A2E"/>
<path d="M0.487793 5.79319L1.07316 4.80762L26.4634 19.2547V20.5768L0.487793 5.79319Z" fill="#BF992E"/>
<path d="M1.07324 4.80784L1.63422 3.82227L26.4635 17.9569V19.255L1.07324 4.80784Z" fill="#BE982E"/>
<path d="M1.63403 3.82249L2.2194 2.83691L26.4633 16.635V17.9571L1.63403 3.82249Z" fill="#BD972E"/>
<path d="M2.21948 2.83616L2.78046 1.85059L26.4634 15.3362V16.6342L2.21948 2.83616Z" fill="#BC962E"/>
<path d="M2.78052 1.85119L3.36588 0.889648L26.4634 14.0387V15.3368L2.78052 1.85119Z" fill="#BA952E"/>
<path d="M3.36597 0.889423L3.87816 0H4.12206L26.4635 12.7163V14.0385L3.36597 0.889423Z" fill="#B9942E"/>
<path d="M6.41475 0L26.4635 11.4183V12.7163L4.12207 0H6.41475Z" fill="#B8932E"/>
<path d="M8.73162 0L26.4633 10.0962V11.4183L6.41455 0H8.73162Z" fill="#B7922E"/>
<path d="M11.0244 0L26.4634 8.79808V10.0962L8.73169 0H11.0244Z" fill="#B6912E"/>
<path d="M13.3171 0L26.4634 7.47596V8.79808L11.0244 0H13.3171Z" fill="#B5902E"/>
<path d="M26.4635 7.47596L13.3171 0H26.4635V7.47596Z" fill="#B5902E"/>
</g>
<path d="M152.268 7.52389V11.5383H151.146V7.52389H149.585V6.49023H153.829V7.52389H152.268Z" fill="white"/>
<path d="M158.878 11.5627V8.26946L157.439 10.4329H157.415L156 8.29349V11.5627H154.903V6.51465H156.122L157.464 8.65407L158.805 6.51465H160.025V11.5627H158.903H158.878Z" fill="white"/>
</g>
<defs>
<clipPath id="clip0_7882_6925">
<rect width="160" height="30" fill="white"/>
</clipPath>
</defs>
</svg>
