<svg width="179" height="22" viewBox="0 0 179 22" fill="none" xmlns="http://www.w3.org/2000/svg">
<g clip-path="url(#clip0_7882_7080)">
<path d="M5.54136 13.6058H3.15431V17.8593H0V3.66211H5.85394C9.26401 3.66211 11.3385 5.66211 11.3385 8.56352C11.3385 11.8875 8.7525 13.6058 5.54136 13.6058ZM8.15574 8.64803C8.15574 7.23957 7.16114 6.50718 5.59819 6.50718H3.15431V10.8452H5.65502C7.21797 10.8452 8.15574 9.91563 8.15574 8.70436V8.64803Z" fill="white"/>
<path d="M20.29 10.0277C18.2155 10.0277 16.9652 11.2671 16.9652 13.8587V17.8868H13.8677V6.98542H16.9652V9.18261C17.5903 7.68965 18.6133 6.70373 20.4605 6.78824V9.99951H20.29V10.0277Z" fill="white"/>
<path d="M53.7653 18.1122C50.4689 18.1122 48.0535 15.6051 48.0535 12.5065C48.0535 9.35162 50.4405 6.81641 53.7937 6.81641C57.147 6.81641 57.147 7.49246 58.17 8.64739L56.266 10.6756C55.584 9.94317 54.8736 9.49246 53.7653 9.49246C52.6571 9.49246 51.0941 10.8446 51.0941 12.4502C51.0941 14.1404 52.174 15.4925 53.879 15.4925C55.584 15.4925 55.6409 15.0418 56.4081 14.3375L58.2268 16.1685C57.1754 17.3234 55.925 18.1685 53.7369 18.1685L53.7653 18.1122Z" fill="white"/>
<path d="M64.4787 18.0564C62.5747 18.0564 61.296 17.2959 61.296 14.7888V9.63389H59.9888V6.986H61.296V4.19727H64.3934V6.986H66.9794V9.63389H64.3934V14.2818C64.3934 14.986 64.706 15.324 65.388 15.324C66.0701 15.324 66.4679 15.1832 66.9226 14.9297V17.4085C66.269 17.8029 65.5017 18.0282 64.4787 18.0282V18.0564Z" fill="white"/>
<path d="M74.851 18.1122C71.4409 18.1122 68.9402 15.6051 68.9402 12.5065C68.9402 9.35162 71.4693 6.81641 74.9078 6.81641C78.3463 6.81641 80.8186 9.32345 80.8186 12.422C80.8186 15.577 78.2894 18.1122 74.851 18.1122ZM77.7495 12.4502C77.7495 10.8446 76.5844 9.43612 74.851 9.43612C73.1175 9.43612 72.0092 10.7882 72.0092 12.3939C72.0092 14.0277 73.1743 15.4361 74.9078 15.4361C76.6412 15.4361 77.7495 14.084 77.7495 12.4784V12.4502Z" fill="white"/>
<path d="M90.0258 10.0277C87.9513 10.0277 86.701 11.2671 86.701 13.8587V17.8868H83.6035V6.98542H86.701V9.18261C87.3262 7.68965 88.3492 6.70373 90.1963 6.78824V9.99951H90.0258V10.0277Z" fill="white"/>
<path d="M92.697 5.80271V3.07031H95.965V5.80271H92.697ZM92.7823 17.859V6.98581H95.8797V17.859H92.7823Z" fill="white"/>
<path d="M106.28 17.8595V11.8031C106.28 10.3384 105.598 9.60596 104.405 9.60596C103.211 9.60596 102.472 10.3665 102.472 11.8031V17.8595H99.375V6.98625H102.472V8.53554C103.183 7.63413 104.121 6.78906 105.684 6.78906C108.042 6.78906 109.406 8.33836 109.406 10.8172V17.8595H106.309H106.28Z" fill="white"/>
<path d="M117.505 21.1544C115.715 21.1544 114.038 20.7601 112.646 20.0277L113.697 17.7178C114.834 18.3375 115.942 18.7037 117.391 18.7037C119.523 18.7037 120.517 17.6896 120.517 15.746V15.2108C119.608 16.3094 118.585 16.9854 116.937 16.9854C114.379 16.9854 112.077 15.1263 112.077 11.915C112.077 8.61922 114.436 6.81641 116.937 6.81641C119.437 6.81641 119.636 7.52063 120.489 8.45021V7.04176H123.586V15.4643C123.586 19.5488 121.54 21.2108 117.477 21.2108L117.505 21.1544ZM120.546 11.8587C120.546 10.3657 119.381 9.35162 117.875 9.35162C116.368 9.35162 115.203 10.3939 115.203 11.8587C115.203 13.408 116.34 14.422 117.875 14.422C119.409 14.422 120.546 13.3798 120.546 11.915V11.8587Z" fill="white"/>
<path d="M130.378 5.09888V3.69043H139.5V4.87353L135.01 9.83128C135.635 9.88761 136.232 10.0003 136.8 10.1693C137.369 10.3383 137.88 10.5918 138.307 10.9299C138.733 11.2679 139.074 11.6623 139.33 12.1411C139.585 12.62 139.727 13.1834 139.727 13.8313C139.727 14.4792 139.614 15.0425 139.358 15.5778C139.102 16.113 138.761 16.5637 138.335 16.9299C137.909 17.2961 137.397 17.6059 136.829 17.8031C136.26 18.0003 135.635 18.113 134.953 18.113C133.76 18.113 132.708 17.8876 131.827 17.4087C130.946 16.9299 130.208 16.3383 129.611 15.5778L130.776 14.5355C131.344 15.2116 131.941 15.7186 132.623 16.0848C133.305 16.451 134.072 16.62 134.953 16.62C135.834 16.62 135.806 16.5637 136.175 16.4228C136.545 16.282 136.886 16.113 137.17 15.8594C137.454 15.6059 137.681 15.3242 137.823 14.9862C137.994 14.6482 138.079 14.2538 138.079 13.8313C138.079 12.9299 137.71 12.2538 136.971 11.7749C136.232 11.2961 135.266 11.0707 134.072 11.0707H133.163L132.822 10.113L137.34 5.04254H130.35L130.378 5.09888Z" fill="white"/>
<path d="M152.146 6.28174C151.606 5.83104 151.094 5.49301 150.554 5.23949C150.014 4.98597 149.418 4.87329 148.764 4.87329C148.11 4.87329 147.514 5.04231 147.002 5.35217C146.491 5.66203 146.036 6.08456 145.695 6.64794C145.326 7.21132 145.07 7.85921 144.871 8.61977C144.672 9.38034 144.587 10.2254 144.587 11.155C144.786 10.8733 145.013 10.5916 145.24 10.3381C145.496 10.0846 145.78 9.83104 146.121 9.66203C146.462 9.46484 146.832 9.29583 147.258 9.18315C147.684 9.07048 148.139 9.01414 148.65 9.01414C149.162 9.01414 149.958 9.12682 150.554 9.324C151.151 9.52118 151.691 9.83104 152.117 10.1972C152.572 10.5916 152.913 11.0423 153.197 11.5775C153.453 12.1127 153.595 12.7324 153.595 13.3803C153.595 14.0282 153.453 14.7043 153.197 15.2958C152.941 15.8874 152.572 16.3663 152.117 16.7888C151.663 17.2113 151.123 17.5494 150.497 17.7747C149.872 18.0001 149.19 18.1409 148.48 18.1409C147.769 18.1409 146.974 18.0001 146.349 17.7465C145.723 17.493 145.183 17.1268 144.729 16.7043C144.274 16.2817 144.189 16.1127 143.961 15.7747C143.734 15.4367 143.535 15.0423 143.393 14.6198C143.251 14.1972 143.137 13.6902 143.052 13.1268C142.967 12.5634 142.938 11.9155 142.938 11.1832C142.938 10.1127 143.081 9.09865 143.336 8.1409C143.592 7.21132 143.99 6.39442 144.501 5.6902C145.013 4.98597 145.638 4.45076 146.377 4.05639C147.116 3.66203 147.94 3.46484 148.906 3.46484C149.872 3.46484 150.526 3.60569 151.208 3.88738C151.89 4.16907 152.515 4.56344 153.14 5.07048L152.202 6.30991L152.146 6.28174ZM151.691 12.1972C151.52 11.831 151.293 11.493 150.981 11.2395C150.668 10.9578 150.299 10.7606 149.872 10.5916C149.446 10.4226 148.963 10.3663 148.451 10.3663C147.94 10.3663 147.428 10.4508 147.002 10.6198C146.547 10.7888 146.178 11.0423 145.865 11.324C145.553 11.6057 145.297 11.9437 145.127 12.3099C144.956 12.6761 144.871 13.0705 144.871 13.4648C144.871 13.8592 144.956 14.3381 145.127 14.7324C145.297 15.1268 145.553 15.4648 145.865 15.7465C146.178 16.0282 146.576 16.2536 147.002 16.4226C147.457 16.5916 147.94 16.6761 148.451 16.6761C148.963 16.6761 149.474 16.5916 149.872 16.4226C150.299 16.2536 150.668 16.0282 150.952 15.7465C151.265 15.4648 151.492 15.0986 151.634 14.7043C151.805 14.3099 151.89 13.8874 151.89 13.4085C151.89 12.9296 151.805 12.5634 151.634 12.1691L151.691 12.1972Z" fill="white"/>
<path d="M157.829 3.66211H166.07V5.15507H159.25L158.937 9.69028C159.364 9.4931 159.79 9.35225 160.216 9.23957C160.643 9.1269 161.154 9.07056 161.751 9.07056C162.348 9.07056 163.086 9.18324 163.683 9.38042C164.28 9.5776 164.82 9.85929 165.246 10.2537C165.701 10.6199 166.042 11.0706 166.298 11.6339C166.553 12.1692 166.667 12.7889 166.667 13.4649C166.667 14.141 166.553 14.817 166.298 15.3804C166.042 15.9438 165.701 16.4508 165.246 16.8734C164.791 17.2959 164.251 17.6058 163.626 17.8311C163.001 18.0565 162.319 18.1692 161.552 18.1692C160.785 18.1692 159.591 17.9438 158.71 17.5213C157.858 17.0987 157.09 16.5635 156.437 15.9156L157.488 14.7607C158.113 15.3804 158.767 15.8593 159.449 16.1973C160.131 16.5353 160.841 16.7044 161.58 16.7044C162.319 16.7044 162.546 16.6199 162.973 16.479C163.399 16.31 163.768 16.1128 164.081 15.8311C164.394 15.5494 164.621 15.2114 164.791 14.817C164.962 14.4227 165.047 14.0001 165.047 13.5494C165.047 13.0987 164.962 12.7044 164.791 12.3382C164.621 11.972 164.365 11.6621 164.053 11.4086C163.74 11.1551 163.371 10.9297 162.916 10.7889C162.49 10.648 162.007 10.5635 161.467 10.5635C160.927 10.5635 160.302 10.648 159.818 10.7889C159.335 10.9579 158.881 11.1269 158.454 11.3804L157.375 10.6762L157.772 3.74662L157.829 3.66211Z" fill="white"/>
<path d="M170.418 4.78872H168.997V3.63379H173.174V4.78872H171.754V8.36618H170.418V4.78872Z" fill="white"/>
<path d="M173.913 3.63379H175.306L176.442 5.46478L177.579 3.63379H178.972V8.36618H177.664V5.66196L176.442 7.52111L175.221 5.69013V8.39435H173.913V3.63379Z" fill="white"/>
<path fill-rule="evenodd" clip-rule="evenodd" d="M34.3849 0C40.4946 0 45.4676 4.92958 45.4676 11.0141C45.4676 17.0986 40.4946 22.0282 34.3565 22.0282C28.2184 22.0282 23.2454 17.0986 23.2454 11.0141C23.2454 4.92958 28.2184 0 34.3565 0H34.3849ZM35.0953 11.4648V7.38028C35.4932 7.26761 35.7205 6.84507 35.5784 6.4507C35.4648 6.05634 35.0385 5.83099 34.6407 5.97183C34.2428 6.08451 34.0155 6.50704 34.1576 6.90141C34.2428 7.12676 34.4133 7.32394 34.6407 7.38028V11.4648C34.6407 11.5775 34.7259 11.6901 34.8396 11.6901C34.9532 11.6901 35.0669 11.6056 35.0669 11.493L35.0953 11.4648ZM35.209 6.64789C35.209 6.47887 35.0669 6.33803 34.8964 6.33803C34.7259 6.33803 34.5838 6.47887 34.5838 6.64789C34.5838 6.8169 34.7259 6.95775 34.8964 6.95775C35.0669 6.95775 35.209 6.8169 35.209 6.64789ZM37.8802 10C37.8802 9.91549 37.8518 9.83099 37.795 9.77465C37.6813 9.66197 37.4824 9.66197 37.3403 9.77465C37.2266 9.88732 37.2266 10.0845 37.3403 10.2254C37.454 10.338 37.6529 10.338 37.795 10.2254C37.8518 10.169 37.8802 10.0845 37.8802 10ZM38.1076 9.49296C37.8234 9.21127 37.3403 9.21127 37.0561 9.49296C36.914 9.6338 36.8288 9.83099 36.8288 10.0282C36.8288 10.0282 36.8288 10.0845 36.8288 10.1127L35.9194 10.5915C35.8342 10.6197 35.7774 10.7042 35.7774 10.7887V12.9014C35.7774 13.0141 35.8626 13.1268 36.0047 13.1268C36.1468 13.1268 36.232 13.0423 36.232 12.9014V10.9296L36.9993 10.5352C36.9993 10.5352 36.9993 10.5634 37.0277 10.5915C37.3119 10.8732 37.795 10.8732 38.0791 10.5915C38.3633 10.3099 38.3633 9.83099 38.0791 9.5493L38.1076 9.49296ZM37.8802 7.66197C37.8802 7.57746 37.8518 7.49296 37.795 7.43662C37.6813 7.32394 37.4824 7.32394 37.3403 7.43662C37.2266 7.54929 37.2266 7.74648 37.3403 7.88732C37.454 8 37.6529 8 37.795 7.88732C37.8518 7.83099 37.8802 7.74648 37.8802 7.66197ZM38.1076 7.15493C37.8234 6.87324 37.3403 6.87324 37.0561 7.15493C36.914 7.29577 36.8288 7.49296 36.8288 7.69014C36.8288 7.69014 36.8288 7.74648 36.8288 7.77465L35.9194 8.25352C35.8342 8.28169 35.7774 8.3662 35.7774 8.4507V9.32394C35.7774 9.43662 35.8626 9.5493 36.0047 9.5493C36.1468 9.5493 36.232 9.46479 36.232 9.32394V8.59155L36.9993 8.19718C36.9993 8.19718 36.9993 8.22535 37.0277 8.25352C37.3119 8.53521 37.795 8.53521 38.0791 8.25352C38.3633 7.97183 38.3633 7.49296 38.0791 7.21127L38.1076 7.15493ZM31.4579 10C31.4579 10.4225 31.7989 10.7324 32.1968 10.7324C32.3957 10.7324 32.5946 10.6479 32.7367 10.507C32.7367 10.507 32.7367 10.4789 32.7651 10.4507L33.5324 10.8451V12.8169C33.5324 12.9296 33.6176 13.0423 33.7313 13.0423C33.845 13.0423 33.9586 12.9577 33.9586 12.8451V10.7324C33.9586 10.6479 33.9018 10.5634 33.8166 10.5352L32.9072 10.0563C32.9072 10.0563 32.9072 10 32.9072 9.97183C32.9072 9.5493 32.5662 9.23944 32.1684 9.23944C31.7705 9.23944 31.4295 9.57746 31.4295 9.97183L31.4579 10ZM31.9979 9.77465C31.8842 9.88732 31.8842 10.0845 31.9979 10.2254C32.1115 10.338 32.3104 10.338 32.4525 10.2254C32.5662 10.1127 32.5662 9.91549 32.4525 9.77465C32.3957 9.71831 32.3105 9.69014 32.2252 9.69014C32.1399 9.69014 32.0547 9.71831 31.9979 9.77465ZM31.4579 7.66197C31.4579 8.08451 31.7989 8.39437 32.1968 8.39437C32.3957 8.39437 32.5946 8.30986 32.7367 8.16901C32.7367 8.16901 32.7367 8.14084 32.7651 8.11268L33.5324 8.50704V9.23944C33.5324 9.35211 33.6176 9.46479 33.7313 9.46479C33.845 9.46479 33.9586 9.38028 33.9586 9.26761V8.39437C33.9586 8.30986 33.9018 8.22535 33.8166 8.19718L32.9072 7.71831C32.9072 7.71831 32.9072 7.66197 32.9072 7.6338C32.9072 7.21127 32.5662 6.90141 32.1684 6.90141C31.7705 6.90141 31.4295 7.23944 31.4295 7.6338L31.4579 7.66197ZM31.9979 7.46479C31.8842 7.57746 31.8842 7.77465 31.9979 7.91549C32.1115 8.02817 32.3104 8.02817 32.4525 7.91549C32.5662 7.80282 32.5662 7.60563 32.4525 7.46479C32.3957 7.40845 32.3105 7.38028 32.2252 7.38028C32.1399 7.38028 32.0547 7.40845 31.9979 7.46479ZM38.5907 13.1549C39.1874 12.3099 39.8126 11.3521 40.182 10.3662C40.5514 9.35211 40.6935 8.28169 40.2389 7.15493C39.9263 6.33803 39.3295 5.69014 38.6191 5.1831C37.7097 4.56338 36.5446 4.22535 35.4079 4.14084C34.2428 4.05634 33.0777 4.19718 32.1115 4.56338C31.3158 4.87324 30.6338 5.32394 30.236 5.94366C29.9234 6.39437 29.6677 7.04225 29.4971 7.71831C29.3266 8.33803 29.2698 8.98592 29.3551 9.49296C29.3551 9.49296 29.3551 9.49296 29.3551 9.52113C29.4119 9.69014 29.4403 9.85915 29.4403 10.0282C29.4403 10.169 29.4403 10.2817 29.3551 10.3944C29.1277 10.7606 28.9288 11.0704 28.7583 11.3239C28.5878 11.5493 28.4741 11.7183 28.3889 11.831C28.3889 11.831 28.3889 11.8592 28.3605 11.8873C28.3036 11.9718 28.2752 12.0845 28.2752 12.1972C28.2752 12.3099 28.332 12.4225 28.4173 12.4789C28.531 12.5634 28.673 12.6197 28.8151 12.7324C28.872 12.7606 28.9288 12.8169 28.9856 12.8451C28.9572 12.9296 28.9288 13.0141 28.872 13.0986C28.8151 13.2113 28.7867 13.3239 28.7583 13.4084C28.7583 13.493 28.7583 13.5493 28.8436 13.6056L29.1846 13.831L29.0425 14.2254C29.0141 14.3099 29.0425 14.4225 29.0993 14.4789L29.4971 14.7606C29.4687 15.0141 29.4687 15.2394 29.4971 15.493C29.4971 15.662 29.6108 15.831 29.7245 15.9718C29.8382 16.1127 30.0087 16.1972 30.1792 16.2254C30.3497 16.2254 30.4917 16.2254 30.6623 16.2254L32.4525 16.169C32.481 16.169 32.5378 16.169 32.5662 16.1972C32.5946 16.1972 32.623 16.2535 32.6515 16.2817C32.7367 16.507 32.822 16.7324 32.8788 16.9577C32.9356 17.1831 32.964 17.4084 32.9925 17.6338C32.9925 17.7465 33.0777 17.831 33.2198 17.831H38.9601C38.9885 17.831 39.0169 17.831 39.0737 17.831C39.1874 17.7746 39.2158 17.6338 39.159 17.5493C38.9032 17.0423 38.7043 16.507 38.5622 15.9718C38.3917 15.2394 38.3349 14.507 38.4201 13.7465C38.4201 13.6338 38.4486 13.5211 38.477 13.4084C38.5054 13.2958 38.5622 13.2113 38.6191 13.0986L38.5907 13.1549Z" fill="url(#paint0_linear_7882_7080)"/>
</g>
<defs>
<linearGradient id="paint0_linear_7882_7080" x1="23.2738" y1="11.0141" x2="45.4676" y2="11.0141" gradientUnits="userSpaceOnUse">
<stop stop-color="#CFA931"/>
<stop offset="1" stop-color="#B6922F"/>
</linearGradient>
<clipPath id="clip0_7882_7080">
<rect width="179" height="22" fill="white"/>
</clipPath>
</defs>
</svg>
