<svg width="164" height="36" viewBox="0 0 164 36" fill="none" xmlns="http://www.w3.org/2000/svg">
<g clip-path="url(#clip0_7882_7098)">
<path d="M37.6638 18.4585H34.806V4.9585H29.7104V2.34473H42.7862V4.9585H37.6907V18.4316L37.6638 18.4585Z" fill="white"/>
<path d="M47.154 18.458H44.3501V6.30534H47.154V9.05385C47.5314 8.13768 48.0706 7.41013 48.7986 6.84427C49.4995 6.30534 50.3892 6.03588 51.4676 6.08978V9.0269H51.3059C50.6858 9.0269 50.1196 9.13469 49.6343 9.32331C49.1221 9.51193 48.6907 9.83528 48.3133 10.2125C47.9358 10.6167 47.6662 11.1018 47.4505 11.7215C47.2618 12.3143 47.154 13.0419 47.154 13.8233V18.458Z" fill="white"/>
<path d="M61.308 18.4579V16.9759C60.9036 17.4609 60.3644 17.8921 59.7173 18.2154C59.0703 18.5657 58.2884 18.7274 57.3718 18.7274C56.4551 18.7274 56.2394 18.6465 55.7272 18.4849C55.2149 18.3232 54.7566 18.0807 54.3522 17.7843C53.9478 17.4609 53.6512 17.0837 53.4086 16.5986C53.1659 16.1406 53.0581 15.6016 53.0581 14.9819V14.928C53.0581 14.2813 53.1929 13.6885 53.4355 13.2034C53.6782 12.7184 54.0287 12.3142 54.46 11.9909C54.8914 11.6675 55.4306 11.425 56.0237 11.2633C56.6169 11.1016 57.2909 11.0208 57.9919 11.0208C58.6928 11.0208 59.3668 11.0747 59.8791 11.1555C60.3913 11.2364 60.8766 11.3711 61.3619 11.5328V11.2364C61.3619 10.401 61.0923 9.75433 60.5801 9.29625C60.0678 8.86511 59.3129 8.6226 58.3693 8.6226C57.4257 8.6226 57.0752 8.70343 56.536 8.83817C55.9968 8.9729 55.4576 9.16152 54.8914 9.37709L54.1365 7.14056C54.8105 6.84415 55.5115 6.60164 56.2125 6.41302C56.9134 6.22439 57.7762 6.14355 58.7737 6.14355C60.5801 6.14355 61.9281 6.60164 62.7908 7.49086C63.6535 8.38008 64.1119 9.64655 64.1119 11.2633V18.4579H61.3619H61.308ZM61.3619 13.2843C61.0114 13.1495 60.58 13.0418 60.0948 12.934C59.6095 12.8531 59.0972 12.7992 58.558 12.7992C57.6953 12.7992 56.9943 12.9609 56.509 13.3112C56.0237 13.6615 55.7811 14.1196 55.7811 14.7663V14.8202C55.7811 15.413 55.9968 15.8442 56.4551 16.1675C56.9134 16.4639 57.4526 16.6256 58.1267 16.6256C58.8007 16.6256 59.0163 16.5717 59.3938 16.437C59.7982 16.3022 60.1217 16.1406 60.4183 15.925C60.7149 15.7094 60.9305 15.44 61.0923 15.1166C61.2541 14.7933 61.3349 14.443 61.3349 14.0657V13.3112L61.3619 13.2843Z" fill="white"/>
<path d="M67.9941 4.44638V1.80566H71.0137V4.44638H67.9941ZM68.102 18.4584V6.30566H70.9059V18.4584H68.102Z" fill="white"/>
<path d="M77.9157 18.4587H75.1118V6.30599H77.9157V8.21917C78.1044 7.92276 78.3201 7.6533 78.5627 7.38384C78.8054 7.14132 79.075 6.89881 79.3985 6.71018C79.722 6.52156 80.0456 6.35988 80.423 6.22515C80.8005 6.11737 81.2318 6.06348 81.6901 6.06348C83.0651 6.06348 84.1435 6.49461 84.8715 7.32994C85.6264 8.16527 86.0038 9.29701 86.0038 10.7252V18.4587H83.1999V11.5874C83.1999 10.6443 82.9842 9.91677 82.5259 9.40479C82.0676 8.89282 81.4475 8.62336 80.6117 8.62336C79.776 8.62336 79.1559 8.89282 78.6436 9.40479C78.1314 9.94372 77.8887 10.6713 77.8887 11.6144V18.4587H77.9157Z" fill="white"/>
<path d="M93.2561 15.6555C93.8762 16.1944 94.6581 16.4369 95.5478 16.4369C96.4375 16.4369 96.8419 16.3022 97.3541 16.0597C97.8664 15.8172 98.3517 15.4669 98.8369 14.9818L100.482 16.4369C99.8884 17.1375 99.2144 17.6765 98.4056 18.0806C97.5968 18.4848 96.6262 18.7004 95.5208 18.7004C94.4154 18.7004 93.8223 18.5387 93.0674 18.2423C92.3125 17.9459 91.6385 17.5148 91.0993 16.9489C90.5331 16.41 90.1018 15.7363 89.7783 14.9549C89.4547 14.1735 89.293 13.3112 89.293 12.3681C89.293 11.425 89.4278 10.6705 89.7243 9.91597C90.0209 9.16148 90.4253 8.48783 90.9645 7.89502C91.5037 7.32915 92.1238 6.87106 92.8517 6.52077C93.5797 6.17047 94.3615 6.00879 95.2512 6.00879C96.1409 6.00879 97.0576 6.19741 97.7855 6.54771C98.5134 6.89801 99.1335 7.38304 99.5918 7.97586C100.077 8.56867 100.428 9.26927 100.697 10.0777C100.94 10.886 101.075 11.7214 101.075 12.5836C101.075 13.4459 101.075 12.8262 101.075 12.9609C101.075 13.0956 101.075 13.2034 101.048 13.3651H92.1238C92.2856 14.3621 92.69 15.1166 93.3101 15.6555H93.2561ZM98.2708 11.5327C98.2169 11.1016 98.136 10.6705 97.9742 10.2663C97.8124 9.86208 97.6237 9.53873 97.3541 9.24232C97.0845 8.94591 96.788 8.73035 96.4105 8.56867C96.06 8.40699 95.6287 8.32615 95.1703 8.32615C94.3076 8.32615 93.6066 8.62256 93.0405 9.21538C92.4743 9.80819 92.1508 10.5896 92.016 11.5327H98.2438H98.2708Z" fill="white"/>
<path d="M107.221 18.458H104.417V6.30534H107.221V9.05385C107.599 8.13768 108.138 7.41013 108.866 6.84427C109.567 6.30534 110.457 6.03588 111.535 6.08978V9.0269H111.373C110.753 9.0269 110.187 9.13469 109.702 9.32331C109.189 9.51193 108.758 9.83528 108.381 10.2125C108.003 10.6167 107.734 11.1018 107.518 11.7215C107.329 12.3143 107.221 13.0419 107.221 13.8233V18.458Z" fill="white"/>
<path d="M122.832 16.5449C122.589 17.03 122.293 17.4072 121.888 17.7306C121.484 18.0539 120.998 18.2695 120.459 18.4312C119.92 18.5928 119.327 18.6737 118.68 18.6737C118.033 18.6737 116.927 18.512 116.011 18.2156C115.121 17.9192 114.285 17.4611 113.503 16.8683L114.744 14.9821C115.391 15.4671 116.065 15.8443 116.766 16.0869C117.44 16.3294 118.114 16.4641 118.734 16.4641C119.354 16.4641 119.785 16.3563 120.136 16.1138C120.459 15.8713 120.621 15.5479 120.621 15.1707V15.1168C120.621 14.8743 120.54 14.6857 120.405 14.524C120.27 14.3623 120.055 14.2006 119.812 14.0659C119.57 13.9312 119.273 13.8234 118.949 13.7156C118.626 13.6078 118.275 13.5 117.925 13.3922C117.467 13.2575 117.035 13.0958 116.577 12.9342C116.119 12.7725 115.714 12.5569 115.364 12.2874C115.013 12.018 114.717 11.6946 114.474 11.2904C114.231 10.8863 114.124 10.4012 114.124 9.83535V9.78146C114.124 9.21559 114.231 8.70362 114.447 8.24553C114.663 7.78745 114.986 7.38326 115.364 7.0599C115.768 6.73655 116.226 6.49404 116.739 6.33236C117.278 6.17068 117.844 6.08984 118.437 6.08984C119.03 6.08984 119.974 6.22457 120.756 6.46709C121.538 6.7096 122.239 7.0599 122.886 7.49104L121.78 9.45811C121.187 9.10781 120.594 8.83835 120.001 8.62278C119.408 8.40721 118.842 8.29942 118.356 8.29942C117.871 8.29942 117.413 8.40721 117.089 8.64972C116.766 8.89224 116.631 9.1617 116.631 9.512V9.56589C116.631 9.78146 116.712 9.97008 116.873 10.1318C117.035 10.2934 117.224 10.4282 117.494 10.5629C117.736 10.6976 118.033 10.8054 118.356 10.9401C118.68 11.0479 119.03 11.1557 119.381 11.2635C119.839 11.3982 120.27 11.5599 120.729 11.7485C121.187 11.9371 121.565 12.1527 121.942 12.4222C122.292 12.6916 122.589 13.015 122.832 13.3922C123.074 13.7695 123.182 14.2545 123.182 14.7934V14.8473C123.182 15.494 123.074 16.0599 122.832 16.518V16.5449Z" fill="white"/>
<path d="M44.6732 35.3528H42.112L40.71 32.0385H34.1856L32.7567 35.3528H30.2764L36.3425 21.4756H38.5802L44.6463 35.3528H44.6732ZM37.4478 24.3588L35.0753 29.8558H39.8203L37.4478 24.3588Z" fill="#CFA931"/>
<path d="M54.4059 33.709C54.2172 34.1132 53.9476 34.4635 53.5971 34.733C53.2467 35.0024 52.8422 35.218 52.357 35.3527C51.8717 35.4875 51.3864 35.5683 50.8472 35.5683C50.308 35.5683 49.3374 35.4336 48.5825 35.1641C47.8276 34.8946 47.0997 34.5174 46.4526 34.0054L47.5041 32.3887C48.0703 32.8198 48.6364 33.1162 49.2296 33.3318C49.8227 33.5473 50.3619 33.6551 50.9011 33.6551C51.4403 33.6551 51.8178 33.5473 52.0874 33.3587C52.357 33.1432 52.5187 32.8737 52.5187 32.5503C52.5187 32.3078 52.4648 32.1461 52.33 32.0114C52.1952 31.8767 52.0334 31.742 51.8178 31.6342C51.6021 31.5264 51.3594 31.4186 51.0629 31.3378C50.7933 31.2569 50.4967 31.1761 50.2001 31.0683C49.8227 30.9605 49.4452 30.8258 49.0408 30.6641C48.6634 30.5294 48.3129 30.3408 47.9894 30.0982C47.6928 29.8557 47.4232 29.5863 47.2345 29.2629C47.0458 28.9396 46.9379 28.5084 46.9379 28.0234C46.9379 27.5114 47.0458 27.0533 47.2345 26.6761C47.4232 26.2719 47.6928 25.9485 48.0163 25.6791C48.3399 25.4096 48.7443 25.1941 49.2026 25.0593C49.6609 24.9246 50.1462 24.8438 50.6585 24.8438C51.1707 24.8438 51.9795 24.9515 52.6535 25.1671C53.3275 25.3827 53.9207 25.6791 54.4868 26.0294L53.5432 27.727C53.031 27.4306 52.5457 27.1881 52.0334 26.9994C51.5212 26.8108 51.0359 26.73 50.6045 26.73C50.1732 26.73 49.7957 26.8378 49.5261 27.0264C49.2835 27.215 49.1487 27.4845 49.1487 27.7809C49.1487 27.9964 49.2026 28.1581 49.3374 28.2929C49.4722 28.4276 49.634 28.5623 49.8496 28.6701C50.0653 28.7779 50.308 28.8857 50.6045 28.9935C50.8741 29.1012 51.1707 29.1821 51.4673 29.2899C51.8447 29.3976 52.2222 29.5324 52.5996 29.694C52.977 29.8557 53.3275 30.0443 53.6241 30.2869C53.9207 30.5294 54.1903 30.7988 54.379 31.1222C54.5677 31.4455 54.6756 31.8497 54.6756 32.3348C54.6756 32.9276 54.5677 33.4126 54.379 33.8168L54.4059 33.709Z" fill="#CFA931"/>
<path d="M64.5432 33.709C64.3544 34.1132 64.0848 34.4635 63.7343 34.733C63.3839 35.0024 62.9795 35.218 62.4942 35.3527C62.0089 35.4875 61.5236 35.5683 60.9844 35.5683C60.4452 35.5683 59.4746 35.4336 58.7197 35.1641C57.9648 34.8946 57.2369 34.5174 56.5898 34.0054L57.6413 32.3887C58.2075 32.8198 58.7736 33.1162 59.3668 33.3318C59.9599 33.5473 60.4991 33.6551 61.0383 33.6551C61.5775 33.6551 61.955 33.5473 62.2246 33.3587C62.4942 33.1432 62.6559 32.8737 62.6559 32.5503C62.6559 32.3078 62.602 32.1461 62.4672 32.0114C62.3324 31.8767 62.1706 31.742 61.955 31.6342C61.7393 31.5264 61.4966 31.4186 61.2001 31.3378C60.9305 31.2569 60.6339 31.1761 60.3373 31.0683C59.9599 30.9605 59.5824 30.8258 59.178 30.6641C58.8006 30.5294 58.4501 30.3408 58.1266 30.0982C57.83 29.8557 57.5604 29.5863 57.3717 29.2629C57.183 28.9396 57.0751 28.5084 57.0751 28.0234C57.0751 27.5114 57.183 27.0533 57.3717 26.6761C57.5604 26.2719 57.83 25.9485 58.1535 25.6791C58.4771 25.4096 58.8815 25.1941 59.3398 25.0593C59.7981 24.9246 60.2834 24.8438 60.7957 24.8438C61.3079 24.8438 62.1167 24.9515 62.7907 25.1671C63.4647 25.3827 64.0579 25.6791 64.624 26.0294L63.6804 27.727C63.1682 27.4306 62.6829 27.1881 62.1706 26.9994C61.6584 26.8108 61.1731 26.73 60.7417 26.73C60.3104 26.73 59.9329 26.8378 59.6633 27.0264C59.4207 27.215 59.2859 27.4845 59.2859 27.7809C59.2859 27.9964 59.3398 28.1581 59.4746 28.2929C59.6094 28.4276 59.7712 28.5623 59.9869 28.6701C60.2025 28.7779 60.4452 28.8857 60.7417 28.9935C61.0113 29.1012 61.3079 29.1821 61.6045 29.2899C61.9819 29.3976 62.3594 29.5324 62.7368 29.694C63.1143 29.8557 63.4647 30.0443 63.7613 30.2869C64.0579 30.5294 64.3275 30.7988 64.5162 31.1222C64.7049 31.4455 64.8128 31.8497 64.8128 32.3348C64.8128 32.9276 64.7049 33.4126 64.5162 33.8168L64.5432 33.709Z" fill="#CFA931"/>
<path d="M67.7783 23.3621V21.0986H70.3665V23.3621H67.7783ZM67.8862 35.3531V24.9519H70.2856V35.3531H67.8862Z" fill="#CFA931"/>
<path d="M80.989 33.709C80.8002 34.1132 80.5306 34.4635 80.1801 34.733C79.8297 35.0024 79.4253 35.218 78.94 35.3527C78.4547 35.4875 77.9694 35.5683 77.4302 35.5683C76.891 35.5683 75.9204 35.4336 75.1655 35.1641C74.4106 34.8946 73.6827 34.5174 73.0356 34.0054L74.0871 32.3887C74.6533 32.8198 75.2194 33.1162 75.8126 33.3318C76.4057 33.5473 76.9449 33.6551 77.4841 33.6551C78.0233 33.6551 78.4008 33.5473 78.6704 33.3587C78.94 33.1432 79.1017 32.8737 79.1017 32.5503C79.1017 32.3078 79.0478 32.1461 78.913 32.0114C78.7782 31.8767 78.6164 31.742 78.4008 31.6342C78.1851 31.5264 77.9424 31.4186 77.6459 31.3378C77.3763 31.2569 77.0797 31.1761 76.7831 31.0683C76.4057 30.9605 76.0282 30.8258 75.6238 30.6641C75.2464 30.5294 74.8959 30.3408 74.5724 30.0982C74.2758 29.8557 74.0062 29.5863 73.8175 29.2629C73.6288 28.9396 73.5209 28.5084 73.5209 28.0234C73.5209 27.5114 73.6288 27.0533 73.8175 26.6761C74.0062 26.2719 74.2758 25.9485 74.5994 25.6791C74.9229 25.4096 75.3273 25.1941 75.7856 25.0593C76.2439 24.9246 76.7292 24.8438 77.2415 24.8438C77.7537 24.8438 78.5625 24.9515 79.2365 25.1671C79.9105 25.3827 80.5037 25.6791 81.0698 26.0294L80.1262 27.727C79.614 27.4306 79.1287 27.1881 78.6164 26.9994C78.1042 26.8108 77.6189 26.73 77.1875 26.73C76.7562 26.73 76.3787 26.8378 76.1091 27.0264C75.8665 27.215 75.7317 27.4845 75.7317 27.7809C75.7317 27.9964 75.7856 28.1581 75.9204 28.2929C76.0552 28.4276 76.217 28.5623 76.4327 28.6701C76.6483 28.7779 76.891 28.8857 77.1875 28.9935C77.4571 29.1012 77.7537 29.1821 78.0503 29.2899C78.4277 29.3976 78.8052 29.5324 79.1826 29.694C79.5601 29.8557 79.9105 30.0443 80.2071 30.2869C80.5037 30.5294 80.7733 30.7988 80.962 31.1222C81.1507 31.4455 81.2586 31.8497 81.2586 32.3348C81.2586 32.9276 81.1507 33.4126 80.962 33.8168L80.989 33.709Z" fill="#CFA931"/>
<path d="M86.893 32.0927C86.893 32.5508 87.0008 32.8741 87.2165 33.0897C87.4322 33.3053 87.7557 33.3861 88.1601 33.3861C88.5645 33.3861 89.1577 33.2783 89.643 33.0358V34.9759C89.3464 35.1376 89.0229 35.2724 88.6724 35.3801C88.3219 35.461 87.9445 35.5149 87.4861 35.5149C87.0278 35.5149 86.6504 35.461 86.2729 35.3532C85.8955 35.2454 85.5719 35.0837 85.3023 34.8412C85.0327 34.5987 84.8171 34.3023 84.6823 33.8981C84.5475 33.5209 84.4666 33.0358 84.4666 32.443V26.9729H83.1455V24.952H84.4666V22.0957H86.866V24.952H89.6699V26.9729H86.866V32.0927H86.893Z" fill="#CFA931"/>
<path d="M98.9175 35.3527V34.0863C98.567 34.5174 98.1087 34.8677 97.5695 35.1372C97.0303 35.4066 96.3563 35.5683 95.5744 35.5683C94.7926 35.5683 94.6039 35.4875 94.1455 35.3527C93.6872 35.218 93.3098 35.0024 92.9862 34.733C92.6627 34.4635 92.3931 34.1402 92.1774 33.736C91.9617 33.3318 91.8809 32.8737 91.8809 32.3617C91.8809 31.7689 91.9887 31.2569 92.2044 30.8527C92.4201 30.4216 92.7166 30.0982 93.0671 29.8018C93.4446 29.5324 93.8759 29.3168 94.4151 29.1821C94.9274 29.0473 95.4936 28.9665 96.0867 28.9665C96.6798 28.9665 97.246 28.9935 97.7043 29.0743C98.1626 29.1551 98.567 29.2629 98.9714 29.3976V29.1551C98.9714 28.4276 98.7558 27.8887 98.3244 27.5114C97.893 27.1342 97.246 26.9455 96.4372 26.9455C95.6284 26.9455 95.3318 26.9994 94.8735 27.1342C94.4151 27.242 93.9568 27.4036 93.4715 27.6192L92.8245 25.706C93.3906 25.4366 93.9838 25.221 94.6039 25.0863C95.197 24.9246 95.9249 24.8438 96.7877 24.8438C98.3244 24.8438 99.4837 25.221 100.239 26.0024C100.993 26.7839 101.371 27.8617 101.371 29.236V35.4066H98.9984L98.9175 35.3527ZM98.9984 30.9336C98.7018 30.8258 98.3514 30.718 97.92 30.6372C97.5156 30.5563 97.0573 30.5294 96.5989 30.5294C95.844 30.5294 95.2779 30.6641 94.8465 30.9605C94.4151 31.2569 94.2264 31.6611 94.2264 32.2C94.2264 32.739 94.4151 33.1162 94.8195 33.3857C95.197 33.6551 95.6823 33.7899 96.2484 33.7899C96.8146 33.7899 97.0033 33.736 97.3538 33.6282C97.6773 33.5204 97.9739 33.3857 98.2165 33.197C98.4592 33.0084 98.6479 32.7659 98.8097 32.4964C98.9445 32.227 99.0254 31.9306 99.0254 31.6072V30.9605L98.9984 30.9336Z" fill="#CFA931"/>
<path d="M107.033 35.3531H104.633V24.9519H107.033V26.5956C107.195 26.3531 107.383 26.1106 107.599 25.895C107.815 25.6794 108.03 25.4908 108.3 25.3022C108.57 25.1405 108.866 25.0058 109.19 24.898C109.513 24.7902 109.864 24.7363 110.268 24.7363C111.454 24.7363 112.344 25.0866 112.991 25.8142C113.638 26.5417 113.962 27.5118 113.962 28.7244V35.3261H111.562V29.4249C111.562 28.6166 111.373 27.9968 110.996 27.5387C110.619 27.1076 110.079 26.892 109.378 26.892C108.677 26.892 108.138 27.1076 107.707 27.5657C107.275 28.0238 107.06 28.6435 107.06 29.4519V35.2992L107.033 35.3531Z" fill="#CFA931"/>
<path d="M120.216 32.0927C120.216 32.5508 120.324 32.8741 120.54 33.0897C120.755 33.3053 121.079 33.3861 121.483 33.3861C121.888 33.3861 122.481 33.2783 122.966 33.0358V34.9759C122.67 35.1376 122.346 35.2724 121.996 35.3801C121.645 35.461 121.268 35.5149 120.809 35.5149C120.351 35.5149 119.974 35.461 119.596 35.3532C119.219 35.2454 118.895 35.0837 118.626 34.8412C118.356 34.5987 118.14 34.3023 118.005 33.8981C117.871 33.5209 117.79 33.0358 117.79 32.443V26.9729H116.469V24.952H117.79V22.0957H120.189V24.952H122.993V26.9729H120.189V32.0927H120.216Z" fill="#CFA931"/>
<path d="M129.059 22.9582V21.584H137.848V22.7157L133.534 27.5121C134.128 27.566 134.721 27.6738 135.26 27.8355C135.799 27.9972 136.284 28.2397 136.689 28.563C137.093 28.8864 137.417 29.2636 137.686 29.7487C137.929 30.2337 138.064 30.7726 138.064 31.3924C138.064 32.0121 137.956 32.578 137.713 33.09C137.471 33.6019 137.147 34.0331 136.743 34.4103C136.338 34.7876 135.853 35.057 135.287 35.2726C134.721 35.4882 134.128 35.569 133.48 35.569C132.321 35.569 131.324 35.3534 130.461 34.8954C129.598 34.4373 128.897 33.8445 128.331 33.1169L129.463 32.1199C130.003 32.7666 130.596 33.2786 131.243 33.6289C131.89 33.9792 132.645 34.1678 133.507 34.1678C134.37 34.1678 134.316 34.1139 134.694 33.9792C135.071 33.8445 135.368 33.6828 135.637 33.4403C135.907 33.1978 136.123 32.9283 136.284 32.578C136.446 32.2546 136.527 31.8774 136.527 31.4732C136.527 30.6109 136.177 29.9373 135.449 29.4792C134.721 29.0211 133.804 28.7786 132.672 28.7786H131.782L131.458 27.8624L135.799 22.9582H129.059Z" fill="white"/>
<path d="M150.007 24.1168C149.495 23.6857 148.983 23.3624 148.471 23.1198C147.958 22.8773 147.392 22.7695 146.745 22.7695C146.098 22.7695 145.559 22.9312 145.047 23.2276C144.561 23.524 144.13 23.9552 143.779 24.4941C143.429 25.033 143.159 25.6797 142.971 26.4073C142.782 27.1618 142.701 27.9701 142.701 28.8594C142.89 28.5899 143.105 28.3204 143.348 28.051C143.591 27.8085 143.86 27.5659 144.184 27.3773C144.507 27.1887 144.858 27.027 145.262 26.9192C145.667 26.8115 146.125 26.7306 146.61 26.7306C147.096 26.7306 147.85 26.8384 148.444 27.027C149.01 27.2157 149.522 27.5121 149.953 27.8893C150.385 28.2665 150.735 28.7246 150.978 29.2366C151.22 29.7486 151.355 30.3414 151.355 30.9881C151.355 31.6348 151.22 32.2815 150.978 32.8474C150.735 33.4133 150.385 33.8983 149.926 34.3025C149.495 34.7067 148.956 35.03 148.363 35.2456C147.77 35.4881 147.096 35.5959 146.422 35.5959C145.748 35.5959 144.966 35.4612 144.373 35.2186C143.779 34.9761 143.24 34.6258 142.809 34.1947C142.539 33.9252 142.297 33.6288 142.081 33.2785C141.865 32.9552 141.677 32.5779 141.542 32.1468C141.407 31.7157 141.299 31.2576 141.218 30.6917C141.137 30.1528 141.11 29.533 141.11 28.8055C141.11 27.7546 141.245 26.7845 141.488 25.8683C141.73 24.9522 142.108 24.1707 142.62 23.4971C143.105 22.8234 143.726 22.2845 144.426 21.9073C145.127 21.53 145.936 21.3145 146.853 21.3145C147.77 21.3145 148.417 21.4492 149.064 21.7186C149.711 21.9881 150.331 22.3923 150.924 22.8773L150.007 24.0899V24.1168ZM149.549 29.8564C149.387 29.5061 149.145 29.1827 148.848 28.9133C148.551 28.6438 148.201 28.4552 147.797 28.2935C147.392 28.1318 146.934 28.0779 146.422 28.0779C145.909 28.0779 145.451 28.1588 145.02 28.3204C144.588 28.4821 144.238 28.7246 143.914 28.9941C143.618 29.2636 143.375 29.5869 143.213 29.9642C143.051 30.3145 142.971 30.6917 142.971 31.0959C142.971 31.5001 143.051 31.9582 143.213 32.3354C143.375 32.7127 143.618 33.036 143.941 33.3324C144.265 33.6288 144.615 33.8174 145.047 33.9791C145.478 34.1408 145.936 34.2216 146.449 34.2216C146.961 34.2216 147.419 34.1408 147.823 33.9791C148.228 33.8174 148.578 33.6019 148.875 33.3055C149.172 33.036 149.387 32.6857 149.549 32.3085C149.711 31.9312 149.792 31.5001 149.792 31.0689C149.792 30.6378 149.711 30.2336 149.549 29.8833V29.8564Z" fill="white"/>
<path d="M155.481 21.5836H163.407V23.0117H156.856L156.559 27.4309C156.963 27.2423 157.368 27.1075 157.799 26.9998C158.204 26.892 158.716 26.8381 159.282 26.8381C159.848 26.8381 160.576 26.9459 161.142 27.1345C161.708 27.3231 162.221 27.6195 162.652 27.9698C163.083 28.3201 163.407 28.7782 163.65 29.2902C163.892 29.8021 164 30.395 164 31.0686C164 31.7423 163.892 32.362 163.65 32.9279C163.407 33.4938 163.083 33.9518 162.652 34.356C162.221 34.7602 161.708 35.0566 161.088 35.2722C160.495 35.4878 159.821 35.5956 159.093 35.5956C158.365 35.5956 157.206 35.38 156.37 34.9758C155.535 34.5716 154.807 34.0327 154.187 33.4129L155.211 32.2812C155.804 32.874 156.451 33.3321 157.098 33.6554C157.745 33.9788 158.419 34.1674 159.147 34.1674C159.875 34.1674 160.091 34.0866 160.495 33.9518C160.9 33.7902 161.25 33.5746 161.547 33.3051C161.843 33.0357 162.059 32.7123 162.221 32.3351C162.382 31.9578 162.463 31.5536 162.463 31.0956C162.463 30.6375 162.382 30.2602 162.221 29.9099C162.059 29.5596 161.816 29.2632 161.52 28.9938C161.223 28.7513 160.846 28.5357 160.441 28.401C160.01 28.2662 159.552 28.1854 159.039 28.1854C158.527 28.1854 157.907 28.2662 157.449 28.401C156.99 28.5626 156.559 28.7513 156.128 28.9668L155.076 28.2662L155.481 21.5566V21.5836Z" fill="white"/>
<path fill-rule="evenodd" clip-rule="evenodd" d="M4.15173 23.0661C4.15173 23.147 4.15173 23.2278 4.15173 23.3356C3.39684 27.108 5.41887 27.3775 9.0046 25.7068C9.30116 26.7038 9.59773 27.7008 9.92125 28.6979H19.0878C19.0339 28.4553 19.0069 28.2398 18.9799 27.9973C18.225 22.7967 20.1662 21.7188 22.4039 17.1919C25.046 11.9374 25.1269 5.1739 19.8427 1.88648C18.5486 1.0781 17.0388 0.512228 15.4751 0.21582C15.6369 1.32061 15.7717 2.39845 15.8525 3.44935C15.9334 4.68887 15.9334 5.8745 15.8525 7.03319C15.7986 7.67989 15.7177 8.29965 15.6099 8.91941C15.5021 9.43139 15.3942 9.91642 15.2594 10.4014C15.3133 10.4823 15.3403 10.5362 15.3942 10.617C15.6638 11.102 15.8525 11.641 15.9065 12.2338C15.9873 13.2847 15.6638 14.2817 15.0437 15.0362C14.4236 15.7907 13.5339 16.3026 12.5094 16.3835C12.4825 16.3835 12.4286 16.3835 12.3207 16.3835C12.2668 16.3835 12.2129 16.3835 12.159 16.3835C12.0511 16.3835 11.9433 16.3835 11.8354 16.3835C11.7006 16.6799 11.5389 16.9763 11.3771 17.2727C11.3502 17.3266 11.2962 17.4074 11.2423 17.4883C11.1884 17.5691 11.1345 17.65 11.1075 17.7038C10.8649 18.0541 10.5683 18.4314 10.2448 18.7817C9.97517 19.0781 9.67861 19.4014 9.409 19.6709C9.11244 19.9673 8.78892 20.2368 8.46539 20.5062C7.19825 21.5571 5.68847 22.4733 4.23261 23.0392L4.15173 23.0661Z" fill="#CFA92E"/>
<path fill-rule="evenodd" clip-rule="evenodd" d="M11.8894 9.40459C11.9703 9.40459 12.0781 9.40459 12.159 9.40459C12.4017 8.56926 12.5365 7.70698 12.6174 6.79082C12.7791 4.7968 12.5904 2.58722 12.186 0.269859C12.186 0.18902 12.186 0.108182 12.186 0.0542899C13.0487 0.000397643 13.9384 0.0273438 14.8011 0.135128C15.1786 2.53333 15.3673 4.8507 15.2056 6.97944C15.0977 8.21896 14.882 9.40459 14.5315 10.5363C14.9359 11.0214 15.1786 11.6142 15.2325 12.2878C15.3673 14.0393 14.1271 15.5752 12.4286 15.71C12.0781 15.7369 11.7277 15.71 11.4041 15.6291C11.2693 16.0603 11.0537 16.4914 10.784 16.9226C10.4875 17.4076 10.137 17.8926 9.73259 18.3507C7.92625 20.3986 5.12237 22.2848 2.58809 22.8776C2.50721 23.3088 2.15673 23.6591 1.6984 23.6591H0.916548C0.431261 23.6591 0.0268555 23.2549 0.0268555 22.7429C0.0268555 22.2309 0.431261 21.8267 0.916548 21.8267H1.6984C2.02192 21.8267 2.29153 21.9884 2.45329 22.2579C4.8258 21.719 7.52184 19.9136 9.24731 17.9465C9.62475 17.5154 9.97524 17.0573 10.2448 16.5992C10.4875 16.195 10.6762 15.8178 10.811 15.4405C9.86739 14.9555 9.19339 14.0124 9.1125 12.8806C8.9777 11.1291 10.2179 9.59321 11.9164 9.45848L11.8894 9.40459Z" fill="white"/>
<path fill-rule="evenodd" clip-rule="evenodd" d="M2.58823 13.5277C2.10294 14.9559 1.1054 16.6535 0.620117 18.0816C1.24021 18.2703 1.86029 18.4319 2.48038 18.6206C2.58823 19.5637 1.48285 20.2912 2.99263 20.6146C2.85783 20.9649 2.77695 21.2343 2.77695 21.4499C2.93871 21.396 3.07351 21.3421 3.23527 21.2882C3.5588 21.1804 3.88232 21.0457 4.20585 20.884C5.90435 20.0756 7.54894 18.8092 8.73519 17.4619C8.76215 17.4349 8.81607 17.381 8.89695 17.2733C8.95088 17.1924 9.0048 17.1385 9.03176 17.0846C9.2744 16.7882 9.49008 16.4918 9.65184 16.1954C9.70577 16.1146 9.73273 16.0607 9.73273 16.0337C9.73273 16.0337 9.78665 15.9529 9.81361 15.8721C9.86753 15.7912 9.89449 15.7104 9.94841 15.6295C9.81361 15.5487 9.70577 15.4409 9.59792 15.3331C8.92391 14.7134 8.49255 13.8241 8.41167 12.8541C8.41167 12.5577 8.41167 12.2613 8.41167 11.9918C8.43863 11.7224 8.51951 11.4259 8.62735 11.1834C9.11264 9.89002 10.218 8.91996 11.62 8.73133C11.6739 8.48882 11.7278 8.21936 11.7817 7.97684C11.8626 7.54571 11.9165 7.14151 11.9435 6.68343C12.0244 5.71337 12.0244 4.68942 11.9435 3.63852C11.8626 2.56068 11.7278 1.45589 11.5391 0.324149C11.5391 0.24331 11.5391 0.135526 11.5391 0.0546875C10.2719 0.216364 9.05872 0.566664 7.95334 1.15948C5.04162 2.72235 3.72056 4.87804 3.15439 7.43792C2.66911 9.6475 3.34312 11.3182 2.61519 13.4739L2.58823 13.5277Z" fill="#E2C065"/>
<path fill-rule="evenodd" clip-rule="evenodd" d="M11.9701 10.4286C12.9137 10.3477 13.7495 10.9136 14.073 11.7759V11.8298C14.127 11.9914 14.1539 12.1801 14.1809 12.3417C14.1809 12.6381 14.1809 12.9615 14.073 13.231V13.2849C13.8034 14.0124 13.1294 14.5783 12.3206 14.6322C11.377 14.713 10.5412 14.1471 10.2177 13.2849V13.231C10.1638 13.0693 10.1368 12.8807 10.1099 12.719C10.1099 12.4226 10.1099 12.0992 10.2177 11.8298V11.7759C10.4873 11.0483 11.1613 10.4825 11.9701 10.4286ZM13.9922 12.692H13.5608V13.0962H13.9382C13.9652 12.9615 13.9922 12.8268 13.9922 12.692ZM13.2912 12.692H12.8868V13.0962H13.2912V12.692ZM12.6711 12.692H12.2667V13.0962H12.6711V12.692ZM12.024 12.692H11.6196V13.0962H12.024V12.692ZM11.377 12.692H10.9726V13.0962H11.377V12.692ZM10.7569 12.692H10.3255C10.3255 12.692 10.3255 12.692 10.3255 12.719C10.3255 12.8537 10.3525 12.9615 10.3795 13.0693H10.7569V12.6651V12.692ZM10.3255 12.4226H10.7569V12.0184H10.3795C10.3525 12.1531 10.3255 12.2878 10.3255 12.4226ZM10.9996 12.4226H11.404V12.0184H10.9996V12.4226ZM11.6466 12.4226H12.051V12.0184H11.6466V12.4226ZM12.2667 12.4226H12.6711V12.0184H12.2667V12.4226ZM12.9137 12.4226H13.3181V12.0184H12.9137V12.4226ZM13.5608 12.4226H13.9922C13.9922 12.4226 13.9922 12.4226 13.9922 12.3956C13.9922 12.2609 13.9652 12.1531 13.9382 12.0453H13.5608V12.4495V12.4226ZM13.8304 13.3118H13.5608V13.716H13.6147C13.6956 13.6082 13.7765 13.4735 13.8304 13.3118ZM13.2912 13.3118H12.8868V13.716H13.2912V13.3118ZM12.6711 13.3118H12.2667V13.716H12.6711V13.3118ZM12.024 13.3118H11.6196V13.716H12.024V13.3118ZM11.377 13.3118H10.9726V13.716H11.377V13.3118ZM10.7569 13.3118H10.4873C10.5412 13.4465 10.6221 13.5813 10.703 13.716H10.7569V13.3118ZM13.8304 11.8028C13.7765 11.6681 13.6956 11.5334 13.6147 11.3986H13.5608V11.8028H13.8304ZM13.2912 11.8028V11.3986H12.8868V11.8028H13.2912ZM12.6711 11.8028V11.3986H12.2667V11.8028H12.6711ZM12.024 11.8028V11.3986H11.6196V11.8028H12.024ZM11.377 11.8028V11.3986H10.9726V11.8028H11.377ZM10.7569 11.8028V11.3986H10.703C10.6221 11.5064 10.5412 11.6411 10.4873 11.8028H10.7569ZM13.2912 13.9585H12.8868V14.2819C13.0216 14.228 13.1564 14.1202 13.2912 14.0393V13.9855V13.9585ZM12.6711 13.9585H12.2667V14.4435C12.2667 14.4435 12.2667 14.4435 12.2937 14.4435C12.4285 14.4435 12.5363 14.4166 12.6441 14.3627V13.9585H12.6711ZM12.024 13.9585H11.6196V14.3627C11.7544 14.3896 11.8892 14.4166 12.024 14.4435V13.9585ZM11.377 13.9585H10.9726V14.0124C11.0804 14.1202 11.2152 14.201 11.377 14.2549V13.9316V13.9585ZM13.2912 11.1561V11.1022C13.1833 10.9944 13.0485 10.9136 12.8868 10.8597V11.1831H13.2912V11.1561ZM12.6711 11.1561V10.7519C12.5363 10.725 12.4015 10.698 12.2667 10.6711V11.1561H12.6711ZM12.024 11.1561V10.6711C12.024 10.6711 12.0241 10.6711 11.9971 10.6711C11.8623 10.6711 11.7544 10.698 11.6466 10.7519V11.1561H12.051H12.024ZM11.377 11.1561V10.8328C11.2422 10.8866 11.1074 10.9944 10.9726 11.0753V11.1292H11.377V11.1561Z" fill="#A7A9AC"/>
<path fill-rule="evenodd" clip-rule="evenodd" d="M9.92139 28.6712C12.4017 36.9976 16.8502 36.5395 26.9873 35.3269C24.1834 35.3 20.3281 33.5215 19.0879 28.6712C18.5217 24.9527 9.92139 28.6712 9.92139 28.6712Z" fill="#CFA92E"/>
</g>
<defs>
<clipPath id="clip0_7882_7098">
<rect width="164" height="36" fill="white"/>
</clipPath>
</defs>
</svg>
