<svg width="175" height="38" viewBox="0 0 175 38" fill="none" xmlns="http://www.w3.org/2000/svg">
<g clip-path="url(#clip0_7882_7151)">
<path d="M43.6313 0.412109H45.7181V10.4504H51.9782V12.3504H43.663V0.412109H43.6313Z" fill="white"/>
<path d="M56.6261 10.2599C57.1003 10.6399 57.6694 10.8616 58.3334 10.8616C58.9973 10.8616 59.2819 10.7666 59.6613 10.5766C60.0407 10.3866 60.3885 10.1332 60.7679 9.78491L61.9693 10.8616C61.5267 11.3682 61.0208 11.7799 60.4201 12.0966C59.8194 12.4132 59.1238 12.5716 58.3017 12.5716C57.4797 12.5716 57.0687 12.4449 56.4996 12.2232C55.9305 12.0016 55.4562 11.6849 55.0452 11.2732C54.6342 10.8616 54.318 10.3866 54.0651 9.81658C53.8121 9.24658 53.7173 8.61324 53.7173 7.91658C53.7173 7.21991 53.8121 6.64991 54.0335 6.07991C54.2548 5.50991 54.5393 5.00324 54.9504 4.59158C55.3614 4.17991 55.804 3.83158 56.3415 3.57824C56.879 3.32491 57.4481 3.19824 58.112 3.19824C58.776 3.19824 59.44 3.32491 59.9774 3.57824C60.5149 3.83158 60.9576 4.17991 61.3054 4.62324C61.6531 5.06658 61.9377 5.57324 62.1274 6.17491C62.3171 6.77658 62.412 7.37824 62.412 8.04324C62.412 8.70824 62.412 8.23324 62.412 8.32824C62.412 8.42324 62.412 8.51824 62.412 8.61324H55.804C55.9305 9.34158 56.215 9.91158 56.6893 10.2916L56.6261 10.2599ZM60.3252 7.18824C60.2936 6.87158 60.2304 6.55491 60.1039 6.26991C59.9775 5.98491 59.851 5.73158 59.6297 5.50991C59.44 5.28824 59.2186 5.12991 58.9341 5.00324C58.6812 4.87658 58.365 4.81324 58.0172 4.81324C57.3849 4.81324 56.8474 5.03491 56.4363 5.47824C56.0253 5.92158 55.7724 6.49158 55.6775 7.18824H60.2936H60.3252Z" fill="white"/>
<path d="M70.3477 12.3188V11.2105C70.0315 11.5588 69.6521 11.8755 69.1779 12.1288C68.7036 12.3821 68.1345 12.5088 67.4389 12.5088C66.7433 12.5088 66.5853 12.4455 66.2059 12.3188C65.8265 12.1921 65.4787 12.0338 65.1941 11.7805C64.9096 11.5588 64.6882 11.2738 64.4985 10.9255C64.3088 10.5771 64.2456 10.1655 64.2456 9.72214C64.2456 9.21547 64.3405 8.77214 64.5302 8.4238C64.7199 8.07547 64.9728 7.7588 65.289 7.53714C65.6051 7.2838 65.9845 7.12547 66.4588 6.9988C66.9014 6.87214 67.3757 6.8088 67.9132 6.8088C68.4507 6.8088 68.9249 6.84047 69.3043 6.9038C69.6837 6.96714 70.0631 7.06214 70.4109 7.1888V6.96714C70.4109 6.3338 70.2212 5.8588 69.8418 5.54214C69.4624 5.22547 68.9249 5.03547 68.1977 5.03547C67.4705 5.03547 67.2492 5.0988 66.8382 5.1938C66.4272 5.2888 66.0478 5.44714 65.6368 5.60547L65.0676 3.9588C65.5735 3.73714 66.0794 3.54714 66.5853 3.42047C67.0911 3.2938 67.7235 3.23047 68.4823 3.23047C69.8102 3.23047 70.8219 3.54714 71.4543 4.21214C72.0866 4.87714 72.4344 5.79547 72.4344 6.9988V12.3188H70.4109H70.3477ZM70.4109 8.5188C70.158 8.4238 69.8418 8.3288 69.494 8.26547C69.1462 8.20214 68.7668 8.17047 68.3558 8.17047C67.7235 8.17047 67.2176 8.29713 66.8382 8.55047C66.4904 8.8038 66.3007 9.15214 66.3007 9.62714C66.3007 10.1021 66.4588 10.4188 66.8066 10.6405C67.1544 10.8621 67.5654 10.9888 68.0396 10.9888C68.5139 10.9888 68.7036 10.9571 68.9882 10.8621C69.2727 10.7671 69.5256 10.6405 69.747 10.4821C69.9683 10.3238 70.1264 10.1338 70.2528 9.88047C70.3793 9.6588 70.4425 9.40547 70.4425 9.12047V8.55047L70.4109 8.5188Z" fill="white"/>
<path d="M77.3353 12.3186H75.2485V3.32523H77.3353V5.3519C77.6198 4.6869 78.0308 4.1169 78.5367 3.70523C79.0426 3.29356 79.7065 3.10356 80.497 3.13523V5.32023H80.3705C79.9278 5.32023 79.5168 5.38356 79.1374 5.5419C78.758 5.70023 78.4418 5.9219 78.1573 6.2069C77.8727 6.4919 77.683 6.8719 77.525 7.31523C77.3669 7.75856 77.3036 8.2969 77.3036 8.8669V12.2869L77.3353 12.3186Z" fill="white"/>
<path d="M84.7649 12.3187H82.6782V3.32533H84.7649V4.75033C84.923 4.52866 85.0811 4.33866 85.2392 4.14866C85.4289 3.95866 85.6186 3.80033 85.8399 3.64199C86.0612 3.48366 86.3142 3.38866 86.5987 3.29366C86.8833 3.19866 87.1994 3.16699 87.5472 3.16699C88.559 3.16699 89.3494 3.48366 89.8869 4.11699C90.456 4.75033 90.7089 5.57366 90.7089 6.65033V12.382H88.6222V7.28366C88.6222 6.58699 88.4641 6.04866 88.1163 5.66866C87.7686 5.28866 87.3259 5.09866 86.7252 5.09866C86.1245 5.09866 85.6502 5.28866 85.2708 5.66866C84.8914 6.04866 84.7017 6.61866 84.7017 7.31533V12.382L84.7649 12.3187Z" fill="white"/>
<path d="M93.7129 1.96333V0H95.9261V1.96333H93.7129ZM93.7761 12.3183V3.325H95.8629V12.3183H93.7761Z" fill="white"/>
<path d="M101.016 12.3187H98.9297V3.32533H101.016V4.75033C101.174 4.52866 101.333 4.33866 101.491 4.14866C101.68 3.95866 101.87 3.80033 102.091 3.64199C102.313 3.48366 102.566 3.38866 102.85 3.29366C103.135 3.19866 103.451 3.16699 103.799 3.16699C104.81 3.16699 105.601 3.48366 106.138 4.11699C106.707 4.75033 106.96 5.57366 106.96 6.65033V12.382H104.874V7.28366C104.874 6.58699 104.716 6.04866 104.368 5.66866C104.02 5.28866 103.577 5.09866 102.977 5.09866C102.376 5.09866 101.902 5.28866 101.522 5.66866C101.143 6.04866 100.953 6.61866 100.953 7.31533V12.382L101.016 12.3187Z" fill="white"/>
<path d="M117.457 13.9649C116.603 14.6932 115.433 15.0732 113.884 15.0732C112.335 15.0732 111.039 14.7249 109.869 13.9966L110.628 12.4449C111.102 12.7299 111.608 12.9832 112.114 13.1416C112.62 13.2999 113.189 13.3949 113.821 13.3949C114.738 13.3949 115.433 13.1732 115.939 12.6982C116.414 12.2232 116.667 11.5266 116.667 10.6399V9.94324C116.287 10.4499 115.845 10.8299 115.37 11.1466C114.864 11.4632 114.264 11.6216 113.505 11.6216C112.746 11.6216 112.462 11.5266 111.987 11.3366C111.513 11.1466 111.07 10.8616 110.691 10.5132C110.312 10.1649 109.995 9.72158 109.774 9.18324C109.553 8.67658 109.426 8.07491 109.426 7.40991C109.426 6.74491 109.553 6.14324 109.774 5.63658C109.995 5.12991 110.312 4.68658 110.691 4.30658C111.07 3.95824 111.513 3.67324 111.987 3.48324C112.493 3.29324 112.999 3.19824 113.505 3.19824C114.264 3.19824 114.896 3.35658 115.37 3.64158C115.876 3.95824 116.287 4.30658 116.635 4.71824V3.35658H118.69V10.5132C118.69 12.0966 118.279 13.2682 117.425 13.9966L117.457 13.9649ZM116.477 6.36491C116.35 6.04824 116.161 5.79491 115.908 5.57324C115.655 5.35158 115.402 5.19324 115.054 5.06658C114.738 4.93991 114.39 4.87658 114.042 4.87658C113.695 4.87658 113.347 4.93991 113.031 5.06658C112.714 5.19324 112.461 5.35158 112.209 5.57324C111.987 5.79491 111.798 6.04824 111.671 6.36491C111.545 6.68158 111.481 6.99824 111.481 7.37824C111.481 7.75824 111.545 8.07491 111.671 8.39158C111.798 8.70824 111.987 8.96158 112.209 9.18324C112.43 9.40491 112.714 9.56324 113.031 9.68991C113.347 9.81658 113.663 9.87991 114.011 9.87991C114.359 9.87991 114.706 9.81658 115.022 9.68991C115.339 9.56324 115.623 9.40491 115.876 9.18324C116.129 8.96158 116.319 8.70824 116.445 8.39158C116.572 8.07491 116.667 7.75824 116.667 7.37824C116.667 6.99824 116.603 6.68158 116.445 6.36491H116.477Z" fill="white"/>
<path d="M43.6945 37.652V35.2453C43.157 36.0053 42.5247 36.6387 41.7342 37.1453C40.9438 37.6837 39.9637 37.937 38.7939 37.937C37.624 37.937 37.1182 37.7787 36.3277 37.4303C35.5373 37.1137 34.8101 36.607 34.2094 35.9737C33.5771 35.3403 33.1028 34.5487 32.7234 33.5987C32.344 32.6803 32.1543 31.6037 32.1543 30.4003C32.1543 29.197 32.344 28.1203 32.7234 27.202C33.1028 26.2837 33.5771 25.492 34.2094 24.827C34.8417 24.1937 35.5373 23.687 36.3594 23.3703C37.1814 23.0537 38.0034 22.8637 38.8571 22.8637C39.7108 22.8637 41.0071 23.117 41.7975 23.6237C42.5879 24.1303 43.2202 24.732 43.7577 25.397V17.6387H47.0775V37.5887H43.7577L43.6945 37.652ZM43.4099 28.532C43.1886 27.962 42.8725 27.487 42.493 27.0753C42.1136 26.6637 41.671 26.347 41.1651 26.1253C40.6593 25.9037 40.1218 25.8087 39.5843 25.8087C39.0468 25.8087 38.4777 25.9037 38.0034 26.1253C37.4976 26.347 37.0549 26.632 36.6755 27.0437C36.2961 27.4553 35.98 27.9303 35.7902 28.5003C35.5689 29.0703 35.4741 29.7353 35.4741 30.4637C35.4741 31.192 35.5689 31.8253 35.7902 32.3953C36.0116 32.9653 36.2961 33.472 36.6755 33.852C37.0549 34.2637 37.4976 34.5487 38.0034 34.7703C38.5093 34.992 39.0468 35.087 39.5843 35.087C40.1218 35.087 40.6593 34.992 41.1651 34.7703C41.671 34.5487 42.1136 34.232 42.493 33.8203C42.8725 33.4087 43.1886 32.9337 43.4099 32.3637C43.6313 31.7937 43.7577 31.1603 43.7577 30.4637C43.7577 29.767 43.6313 29.102 43.4099 28.5637V28.532Z" fill="white"/>
<path d="M61.8112 23.2119H65.2891L59.4083 37.7469H56.4363L50.5239 23.2119H54.065L57.9539 33.8202L61.8428 23.2119H61.8112Z" fill="white"/>
<path d="M68.8301 21.0266V17.8916H72.4028V21.0266H68.8301ZM68.9565 37.6516V23.2116H72.2763V37.6516H68.9565Z" fill="white"/>
<path d="M87.1363 35.404C86.8517 35.974 86.4723 36.449 85.998 36.7973C85.5238 37.1773 84.9547 37.4623 84.2907 37.6523C83.6268 37.8423 82.9312 37.9373 82.204 37.9373C81.4768 37.9373 80.1173 37.7473 79.0423 37.399C77.9673 37.019 76.9872 36.5123 76.0703 35.784L77.5563 33.5357C78.3467 34.1057 79.1372 34.549 79.9592 34.8657C80.7812 35.1507 81.54 35.309 82.2989 35.309C83.0577 35.309 83.5635 35.1823 83.9429 34.8973C84.3223 34.6123 84.5437 34.2323 84.5437 33.7573V33.694C84.5437 33.409 84.4488 33.1873 84.2907 32.9973C84.1326 32.8073 83.8797 32.6173 83.5952 32.459C83.3106 32.3007 82.9628 32.174 82.5518 32.0473C82.1724 31.9206 81.7614 31.794 81.3503 31.6673C80.8129 31.509 80.2754 31.319 79.7379 31.129C79.2004 30.939 78.7261 30.654 78.2835 30.3373C77.8409 30.0207 77.4931 29.6407 77.2401 29.1657C76.9556 28.6907 76.8291 28.1207 76.8291 27.424V27.3607C76.8291 26.6957 76.9556 26.0623 77.2401 25.524C77.4931 24.9857 77.8725 24.5107 78.3467 24.1307C78.821 23.7507 79.3585 23.4657 79.9908 23.244C80.6232 23.054 81.2871 22.959 81.9827 22.959C82.6783 22.959 83.8165 23.1173 84.7334 23.4023C85.6503 23.6873 86.5039 24.099 87.2627 24.6057L85.9664 26.949C85.2709 26.5373 84.5753 26.189 83.8797 25.9357C83.1841 25.6823 82.5202 25.5556 81.9195 25.5556C81.3187 25.5556 80.7812 25.6823 80.4335 25.9673C80.0857 26.2523 79.896 26.6007 79.896 27.0123V27.0757C79.896 27.329 79.9908 27.5507 80.1805 27.7407C80.3702 27.9307 80.5915 28.1206 80.9077 28.2473C81.1923 28.4057 81.5401 28.5323 81.9511 28.6907C82.3305 28.8173 82.7415 28.9757 83.1525 29.1023C83.69 29.2607 84.1959 29.4507 84.7334 29.6723C85.2709 29.894 85.7451 30.1473 86.1561 30.464C86.5988 30.7807 86.9465 31.1607 87.1995 31.6357C87.484 32.079 87.6105 32.649 87.6105 33.314V33.3773C87.6105 34.1373 87.484 34.8023 87.1995 35.3723L87.1363 35.404Z" fill="white"/>
<path d="M105.569 33.3768C105.189 34.2951 104.652 35.0868 103.956 35.7834C103.261 36.4801 102.47 37.0184 101.522 37.3984C100.573 37.8101 99.5615 38.0001 98.4233 38.0001C97.2851 38.0001 96.3049 37.8101 95.3881 37.3984C94.4395 37.0184 93.6491 36.4801 92.9535 35.7834C92.258 35.0868 91.7521 34.2951 91.3411 33.4084C90.9617 32.5218 90.772 31.5401 90.772 30.4951C90.772 29.4501 90.9617 28.4684 91.3727 27.5501C91.7521 26.6318 92.2896 25.8401 92.9852 25.1434C93.6807 24.4468 94.4712 23.9084 95.4197 23.5284C96.3682 23.1168 97.3799 22.9268 98.4865 22.9268C99.5931 22.9268 100.605 23.1168 101.553 23.5284C102.502 23.9084 103.292 24.4468 103.988 25.1434C104.683 25.8401 105.189 26.6318 105.6 27.5501C105.98 28.4684 106.169 29.4501 106.169 30.4634C106.169 31.4768 105.98 32.4901 105.569 33.3768ZM102.502 28.6901C102.281 28.1201 101.996 27.6134 101.585 27.2018C101.206 26.7584 100.731 26.4418 100.194 26.1884C99.6563 25.9351 99.0556 25.8084 98.4233 25.8084C97.7909 25.8084 97.1902 25.9351 96.6527 26.1884C96.1152 26.4418 95.6726 26.7584 95.2932 27.2018C94.9138 27.6134 94.6292 28.1201 94.4395 28.6584C94.2498 29.2284 94.155 29.7984 94.155 30.4634C94.155 31.1284 94.2498 31.6984 94.4712 32.2684C94.6925 32.8384 94.977 33.3451 95.3881 33.7568C95.7675 34.1684 96.2417 34.5168 96.7792 34.7701C97.3167 35.0234 97.8858 35.1501 98.5181 35.1501C99.1505 35.1501 99.7828 35.0234 100.32 34.7701C100.858 34.5168 101.3 34.2001 101.68 33.7568C102.059 33.3451 102.344 32.8384 102.533 32.3001C102.723 31.7301 102.818 31.1601 102.818 30.4951C102.818 29.8301 102.723 29.2601 102.502 28.6901Z" fill="white"/>
<path d="M113.537 37.6521H110.217V23.2121H113.537V26.4738C113.979 25.3655 114.643 24.5105 115.465 23.8455C116.287 23.1805 117.362 22.8955 118.627 22.9588V26.4738H118.437C117.71 26.4738 117.046 26.6005 116.445 26.8221C115.845 27.0438 115.339 27.4238 114.896 27.8988C114.453 28.3738 114.137 28.9755 113.884 29.7038C113.663 30.4321 113.537 31.2555 113.537 32.2055V37.7155V37.6521Z" fill="white"/>
<path d="M126.562 20.4254V18.5254H138.735V20.1087L132.759 26.7904C133.581 26.8537 134.403 27.0121 135.162 27.2654C135.921 27.4871 136.585 27.8354 137.154 28.2787C137.723 28.7221 138.166 29.2604 138.514 29.9254C138.861 30.5904 139.019 31.3504 139.019 32.2371C139.019 33.1237 138.861 33.8837 138.514 34.5804C138.166 35.2771 137.723 35.9104 137.154 36.4171C136.585 36.9237 135.921 37.3354 135.131 37.6204C134.34 37.9054 133.518 38.0321 132.633 38.0321C131.02 38.0321 129.629 37.7154 128.459 37.0821C127.29 36.4487 126.278 35.6254 125.519 34.6121L127.068 33.2187C127.827 34.1371 128.649 34.8337 129.534 35.3087C130.42 35.8154 131.463 36.0371 132.664 36.0371C133.866 36.0371 133.803 35.9421 134.309 35.7837C134.814 35.6254 135.257 35.3721 135.636 35.0237C136.016 34.7071 136.3 34.2954 136.522 33.8204C136.743 33.3454 136.838 32.8387 136.838 32.2687C136.838 31.0654 136.332 30.1471 135.352 29.5137C134.372 28.8804 133.076 28.5637 131.495 28.5637H130.262L129.819 27.2654L135.858 20.4254H126.531H126.562Z" fill="#CFA931"/>
<path d="M155.587 22.0402C154.892 21.4386 154.164 20.9636 153.469 20.6469C152.773 20.3302 151.983 20.1402 151.098 20.1402C150.212 20.1402 149.454 20.3619 148.758 20.7736C148.062 21.1852 147.493 21.7869 146.987 22.5152C146.513 23.2752 146.134 24.1619 145.881 25.1752C145.628 26.2202 145.501 27.3286 145.501 28.5636C145.754 28.1836 146.039 27.8036 146.387 27.4552C146.734 27.1069 147.114 26.7902 147.557 26.5369C147.999 26.2836 148.505 26.0619 149.043 25.9036C149.58 25.7452 150.212 25.6502 150.908 25.6502C151.603 25.6502 152.647 25.7769 153.437 26.0619C154.228 26.3469 154.923 26.7269 155.524 27.2652C156.125 27.7719 156.599 28.4052 156.947 29.1336C157.295 29.8619 157.484 30.6852 157.484 31.5719C157.484 32.4586 157.295 33.3452 156.947 34.1369C156.599 34.9286 156.125 35.5936 155.492 36.1636C154.892 36.7336 154.164 37.1769 153.311 37.4936C152.489 37.8102 151.572 37.9686 150.623 37.9686C149.675 37.9686 148.631 37.8102 147.778 37.4619C146.924 37.1136 146.197 36.6386 145.596 36.0369C145.217 35.6569 144.869 35.2452 144.585 34.7702C144.268 34.3269 144.047 33.7886 143.826 33.2186C143.636 32.6486 143.478 31.9519 143.351 31.2236C143.257 30.4636 143.193 29.6086 143.193 28.6269C143.193 27.1702 143.383 25.8086 143.731 24.5419C144.079 23.2752 144.616 22.1669 145.28 21.2486C145.976 20.2986 146.798 19.5702 147.778 19.0319C148.758 18.4936 149.865 18.2402 151.129 18.2402C152.394 18.2402 153.279 18.4302 154.196 18.8102C155.081 19.1902 155.967 19.7286 156.789 20.4252L155.524 22.1036L155.587 22.0402ZM154.986 30.0202C154.765 29.5136 154.449 29.1019 154.038 28.7219C153.627 28.3419 153.153 28.0569 152.552 27.8669C151.983 27.6452 151.351 27.5502 150.655 27.5502C149.959 27.5502 149.295 27.6769 148.695 27.8986C148.094 28.1202 147.588 28.4369 147.177 28.8486C146.766 29.2286 146.45 29.6719 146.197 30.1786C145.976 30.6852 145.849 31.1919 145.849 31.7619C145.849 32.3319 145.976 32.9652 146.197 33.4719C146.418 34.0102 146.766 34.4536 147.209 34.8336C147.651 35.2136 148.157 35.5302 148.726 35.7202C149.327 35.9419 149.959 36.0369 150.687 36.0369C151.414 36.0369 152.046 35.9102 152.584 35.6886C153.153 35.4669 153.627 35.1502 154.038 34.7702C154.449 34.3902 154.734 33.9152 154.955 33.3769C155.176 32.8386 155.271 32.2686 155.271 31.6352C155.271 31.0019 155.145 30.4952 154.923 29.9886L154.986 30.0202Z" fill="#CFA931"/>
<path d="M163.175 18.5254H174.146V20.5204H165.04L164.629 26.6321C165.199 26.3787 165.768 26.1571 166.337 26.0304C166.906 25.8721 167.601 25.8087 168.392 25.8087C169.182 25.8087 170.194 25.9354 170.984 26.2204C171.775 26.5054 172.47 26.8854 173.071 27.3921C173.672 27.8987 174.146 28.5004 174.462 29.2287C174.81 29.9571 174.968 30.7804 174.968 31.6987C174.968 32.6171 174.81 33.5037 174.462 34.2954C174.115 35.0554 173.672 35.7204 173.071 36.2904C172.47 36.8604 171.743 37.2721 170.921 37.5887C170.099 37.8737 169.151 38.0321 168.171 38.0321C167.19 38.0321 165.546 37.7471 164.377 37.1771C163.207 36.6071 162.195 35.8787 161.341 34.9921L162.764 33.4404C163.586 34.2637 164.471 34.8971 165.357 35.3721C166.242 35.8471 167.19 36.0687 168.171 36.0687C169.151 36.0687 169.467 35.9737 170.036 35.7521C170.605 35.5304 171.111 35.2454 171.49 34.8654C171.901 34.4854 172.218 34.0421 172.439 33.5037C172.66 32.9971 172.787 32.4271 172.787 31.7937C172.787 31.1604 172.66 30.6537 172.439 30.1471C172.218 29.6404 171.901 29.2287 171.459 28.8804C171.048 28.5321 170.542 28.2471 169.973 28.0571C169.404 27.8671 168.74 27.7721 168.044 27.7721C167.349 27.7721 166.495 27.8671 165.831 28.0887C165.199 28.3104 164.566 28.5637 164.029 28.8804L162.574 27.9304L163.112 18.6204L163.175 18.5254Z" fill="#CFA931"/>
<path d="M24.0294 20.4883C23.7448 20.7099 23.4919 20.9949 23.2389 21.2799C22.9228 21.6283 22.6066 21.9449 22.322 22.2933C22.1323 22.5149 21.9426 22.7366 21.7529 22.9583L23.1125 26.0933C23.8396 25.3649 24.5985 24.6049 25.3256 23.8766C25.3256 23.7816 25.3573 23.7183 25.4521 23.6549L24.061 20.4883H24.0294Z" fill="white"/>
<path d="M23.3335 18.9051L23.1122 18.3984H20.0138L16.7256 25.9034" fill="white"/>
<path d="M20.3299 24.5732C20.2035 24.6999 20.077 24.8582 19.9189 24.9849C19.8241 25.1116 19.6976 25.2382 19.6027 25.3649C19.3182 25.6815 18.9704 25.9665 18.7175 26.3149C18.4329 26.6632 18.2432 27.0749 17.927 27.4232C17.6741 27.7399 17.3263 27.9616 17.105 28.3099C17.0101 28.4682 16.8521 28.5315 16.7256 28.5632C16.5043 28.8165 16.2513 29.1016 16.03 29.3866C15.7771 29.6716 15.4293 29.6082 15.2396 29.3866L11.6353 34.9282L15.0815 37.6516L17.0418 33.0282H17.9587C17.9587 33.0282 17.9587 33.0282 17.9903 33.0282C17.9587 32.9332 17.9587 32.8382 17.9903 32.7749C18.1484 32.5532 18.2748 32.3632 18.4013 32.1416C18.5278 31.9516 18.6858 31.8249 18.8123 31.6349C18.9388 31.4449 19.002 31.2232 19.1285 31.0649C19.2866 30.8749 19.4446 30.6849 19.6027 30.4949C19.6976 30.3682 19.9189 30.3999 20.0138 30.4949C20.0138 30.4949 20.0138 30.4949 20.0454 30.4632C20.077 30.3999 20.1402 30.3365 20.1718 30.2732C20.1718 30.2732 20.1718 30.2416 20.1718 30.2099C20.1718 30.1782 20.1718 30.1465 20.1718 30.1149H18.18L20.7409 24.1299C20.5829 24.2882 20.4248 24.4782 20.2667 24.6366L20.3299 24.5732Z" fill="white"/>
<path d="M23.6811 27.4551L24.8193 30.0517H21.5628L19.3496 33.0284H26.0208L27.981 37.6517H31.5221L26.084 24.6367" fill="white"/>
<path d="M20.4248 29.988C19.5395 31.128 18.6859 32.268 17.8322 33.408C17.2947 34.1363 16.7572 34.8963 16.283 35.6563C15.872 36.2897 15.5242 36.923 15.1448 37.588C15.1448 37.588 15.1132 37.6513 15.0815 37.683C15.0183 37.6513 14.9867 37.6197 14.9551 37.588C13.5639 36.4797 12.1728 35.3713 10.75 34.263C9.29564 33.1547 7.84125 32.0463 6.38687 30.9697C5.09058 30.0197 3.76266 29.133 2.3399 28.3413C1.64433 27.9613 0.917135 27.613 0.221561 27.2647C0.189944 27.2647 0.126711 27.233 0.0634766 27.1697C0.411263 26.853 0.695816 26.5047 1.0436 26.2197C1.80241 25.5547 2.68769 25.048 3.66781 24.7313C4.36339 24.5097 5.05896 24.3513 5.81777 24.478C6.38687 24.573 6.92436 24.7313 7.43023 24.9847C8.69491 25.5547 9.80151 26.3147 10.8765 27.1697C12.0463 28.088 13.1845 29.038 14.3227 29.9563C14.5757 30.1463 14.5757 30.178 14.7654 29.893C15.872 28.373 17.0102 26.9163 18.2749 25.5547C19.0653 24.668 19.8557 23.8447 20.6461 22.9897C21.6895 21.8813 22.8277 20.8363 23.9659 19.823C25.5468 18.4297 27.1908 17.1313 28.8982 15.928C30.0996 15.1047 31.3011 14.3447 32.5657 13.6163C33.9569 12.8247 35.4113 12.0963 36.9289 11.4947C37.498 11.273 38.0355 11.083 38.6046 10.8613C38.6046 10.8613 38.6678 10.8613 38.6994 10.8613C38.5097 11.0197 38.2884 11.1463 38.0987 11.3047C36.9289 12.1913 35.8223 13.173 34.7473 14.1863C34.0517 14.8197 33.3878 15.4847 32.6922 16.1497C31.9018 16.9413 31.143 17.733 30.3842 18.5247C29.6886 19.253 28.993 19.9813 28.3291 20.7097C27.507 21.628 26.685 22.5463 25.8629 23.4963C25.0409 24.4463 24.1872 25.428 23.3968 26.4097C22.4167 27.613 21.4049 28.8163 20.4564 30.0513" fill="#CFA931"/>
</g>
<defs>
<clipPath id="clip0_7882_7151">
<rect width="175" height="38" fill="white"/>
</clipPath>
</defs>
</svg>
