<svg width="70" height="70" viewBox="0 0 70 70" fill="none" xmlns="http://www.w3.org/2000/svg">
<g clip-path="url(#clip0_8913_2450)">
<g clip-path="url(#clip1_8913_2450)">
<path fill-rule="evenodd" clip-rule="evenodd" d="M29.668 69.9992C29.668 69.9992 29.668 69.9992 29.5312 69.9992C28.9844 69.8624 28.7109 69.4523 28.7109 68.9054L31.3086 52.3624C31.4453 51.8156 31.9922 51.4054 32.4023 51.5421C32.9492 51.6788 33.3594 52.089 33.2227 52.6359L30.625 69.1788C30.625 69.7257 30.2148 69.9992 29.668 69.9992Z" fill="#CFA935"/>
<path fill-rule="evenodd" clip-rule="evenodd" d="M39.375 69.9992C38.9648 69.9992 38.5547 69.589 38.418 69.1788L35.8203 52.6359C35.8203 52.089 36.0938 51.6788 36.6406 51.5421C37.1875 51.4054 37.5977 51.8156 37.7344 52.3624L40.332 68.9054C40.4688 69.4523 40.0586 69.8624 39.5117 69.9992H39.375Z" fill="#CFA935"/>
<path fill-rule="evenodd" clip-rule="evenodd" d="M42.793 47.4411H26.25C25.9766 47.4411 25.7031 47.3044 25.4297 47.0309C25.293 46.7575 25.293 46.4841 25.293 46.2106L27.4805 38.8278C27.6172 38.2809 28.1641 38.0075 28.7109 38.1442C29.1211 38.2809 29.3945 38.8278 29.2578 39.3747L27.4805 45.527H41.5625L39.7852 39.3747C39.6484 38.8278 39.9219 38.2809 40.4687 38.1442C41.0156 38.0075 41.4258 38.2809 41.6992 38.8278L43.75 46.2106C43.8867 46.4841 43.75 46.7575 43.6133 47.0309C43.4766 47.3044 43.2031 47.4411 42.793 47.4411Z" fill="#CFA935"/>
<path fill-rule="evenodd" clip-rule="evenodd" d="M36.9146 40.6055H32.2661C28.8482 40.6055 26.1138 39.6484 24.1997 37.5977C21.7388 35.1367 20.5083 31.3086 20.645 26.5234C20.645 25.9766 21.0552 25.5664 21.6021 25.5664C22.1489 25.5664 22.5591 25.9766 22.5591 26.5234C22.4224 29.5312 22.9693 33.6328 25.4302 36.2305C27.0708 37.8711 29.395 38.6914 32.2661 38.6914H36.7778C39.6489 38.6914 41.9732 37.8711 43.6138 36.2305C46.2114 33.6328 46.6216 29.5312 46.6216 26.5234C46.6216 25.9766 47.0318 25.5664 47.4419 25.5664H47.5786C47.9888 25.5664 48.5357 25.9766 48.5357 26.5234C48.5357 31.3086 47.3052 35.1367 44.981 37.5977C42.9302 39.6484 40.1958 40.6055 36.9146 40.6055Z" fill="#CFA935"/>
<path fill-rule="evenodd" clip-rule="evenodd" d="M47.5785 27.4801C47.4418 27.4801 47.1683 27.4801 47.0316 27.3433C46.7582 27.2066 46.6215 26.9332 46.6215 26.523C46.6215 24.609 46.2113 21.4644 45.391 20.0972C43.2035 20.6441 41.1527 20.9176 39.5121 20.9176C35.0004 20.9176 32.266 19.2769 30.4886 18.1832C30.0785 17.9097 29.5316 17.4996 29.2582 17.4996C26.2504 17.4996 24.0629 19.5504 24.0629 19.6871C22.9691 20.7808 22.559 24.4722 22.559 26.523C22.559 26.9332 22.2855 27.2066 22.0121 27.3433C21.7386 27.4801 21.3285 27.4801 21.055 27.3433C17.9105 25.4293 16.2699 22.148 16.1332 18.1832C15.8597 12.8511 18.7308 7.24568 23.516 3.82771C27.0707 1.23005 31.0355 -0.137137 35.1371 -0.000418052C39.1019 0.136301 43.0668 1.64021 46.348 4.37458C50.723 8.06599 53.3207 13.398 53.0472 18.4566C52.7738 22.2847 50.9964 25.4293 48.1254 27.3433C47.8519 27.4801 47.7152 27.4801 47.5785 27.4801ZM34.5902 1.91364C31.1722 1.91364 27.7543 3.00739 24.6097 5.33161C20.3715 8.47614 17.7738 13.398 18.0472 18.0465C18.0472 20.7808 19.0043 22.9683 20.6449 24.609C20.9183 22.6949 21.3285 19.6871 22.6957 18.3199C22.8324 18.1832 25.43 15.5855 29.2582 15.5855C29.9418 15.5855 30.6254 15.9957 31.4457 16.5426C33.9066 17.9097 37.8715 20.3707 45.391 18.0465C45.8011 17.9097 46.0746 18.0465 46.348 18.3199C47.7152 19.6871 48.2621 22.6949 48.3988 24.609C50.0394 23.1051 50.9965 20.9176 51.1332 18.4566C51.4066 13.9449 49.0824 9.15974 45.1175 5.87849C41.973 3.28083 38.2816 1.91364 34.5902 1.91364Z" fill="#CFA935"/>
<path fill-rule="evenodd" clip-rule="evenodd" d="M21.0537 17.4992C20.7803 17.4992 20.5068 17.4992 20.3701 17.2257C19.96 16.9523 19.96 16.2687 20.3701 15.8586C22.5576 13.6711 26.1123 12.3039 29.2568 12.3039C30.8975 12.3039 31.9912 12.9875 33.2217 13.6711C34.042 14.2179 34.8623 14.6281 35.6826 14.9015C36.2295 15.175 36.3662 15.7218 36.2295 16.2687C36.0928 16.6789 35.5459 16.9523 34.999 16.8156C33.9053 16.4054 33.085 15.8586 32.2646 15.3117C31.1709 14.7648 30.3506 14.2179 29.2568 14.2179C26.5225 14.2179 23.5146 15.4484 21.7373 17.2257C21.6006 17.4992 21.3271 17.4992 21.0537 17.4992ZM48.3975 15.8586C47.9873 15.8586 47.5771 15.5851 47.4404 15.0382C46.7568 12.5773 45.2529 10.2531 43.0654 8.47574C38.1436 4.37418 31.7178 4.23746 26.6592 7.92886C26.249 8.33902 25.5654 8.2023 25.292 7.79214C25.0186 7.38199 25.0186 6.69839 25.4287 6.42496C31.4443 2.04996 38.5537 2.32339 44.2959 6.97183C46.7568 9.02261 48.5342 11.6203 49.3545 14.6281C49.4912 15.0382 49.0811 15.5851 48.6709 15.7218C48.5342 15.8586 48.3975 15.8586 48.3975 15.8586Z" fill="#CFA935"/>
<path fill-rule="evenodd" clip-rule="evenodd" d="M60.0195 70H9.16016C8.61328 70 8.20312 69.5898 8.20312 69.043V57.6953C8.20312 50.9961 13.6719 45.5273 20.3711 45.5273H48.6719C55.3711 45.5273 60.9766 50.9961 60.9766 57.6953V69.043C60.9766 69.5898 60.4297 70 60.0195 70ZM10.1172 68.0859H59.0625V57.6953C59.0625 52.0898 54.4141 47.4414 48.6719 47.4414H20.3711C14.7656 47.4414 10.1172 51.9531 10.1172 57.6953V68.0859Z" fill="#CFA935"/>
<path fill-rule="evenodd" clip-rule="evenodd" d="M42.793 56.875C42.6562 56.875 42.5195 56.875 42.3828 56.875L34.043 52.0898C33.7695 51.8164 33.6328 51.543 33.6328 51.2695C33.6328 50.8594 33.7695 50.5859 34.043 50.3125L42.3828 45.6641C42.6562 45.3906 43.0664 45.3906 43.3398 45.6641C43.6133 45.8008 43.75 46.0742 43.75 46.4844V55.918C43.75 56.3281 43.6133 56.6016 43.3398 56.875C43.2031 56.875 43.0664 56.875 42.793 56.875ZM36.5039 51.2695L41.8359 54.2773V48.125L36.5039 51.2695Z" fill="#CFA935"/>
<path fill-rule="evenodd" clip-rule="evenodd" d="M26.25 56.875C26.1133 56.875 25.9766 56.875 25.7031 56.875C25.4297 56.6016 25.293 56.3281 25.293 55.918V46.4844C25.293 46.0742 25.4297 45.8008 25.7031 45.6641C26.1133 45.3906 26.3867 45.3906 26.6602 45.6641L35 50.3125C35.2734 50.5859 35.5469 50.8594 35.5469 51.2695C35.5469 51.543 35.2734 51.8164 35 52.0898L26.6602 56.875C26.5234 56.875 26.3867 56.875 26.25 56.875ZM27.207 48.125V54.2773L32.6758 51.2695L27.207 48.125Z" fill="#CFA935"/>
<path fill-rule="evenodd" clip-rule="evenodd" d="M52.5 70C51.9531 70 51.543 69.5898 51.543 69.043V59.8828C51.543 59.3359 51.9531 58.9258 52.5 58.9258C53.0469 58.9258 53.457 59.3359 53.457 59.8828V69.043C53.457 69.5898 53.0469 70 52.5 70Z" fill="#CFA935"/>
<path fill-rule="evenodd" clip-rule="evenodd" d="M16.543 70C16.1328 70 15.5859 69.5898 15.5859 69.043V59.8828C15.5859 59.3359 16.1328 58.9258 16.543 58.9258C17.0898 58.9258 17.5 59.3359 17.5 59.8828V69.043C17.5 69.5898 17.0898 70 16.543 70Z" fill="#CFA935"/>
<path fill-rule="evenodd" clip-rule="evenodd" d="M12.4414 35.4102C12.3047 35.4102 12.168 35.4102 12.0312 35.2734L9.29687 34.1797L6.42577 35.2734C6.15233 35.4102 5.8789 35.4102 5.60546 35.1367C5.33202 35 5.05858 34.7266 5.1953 34.3164L5.46874 31.3086L3.41796 28.9844C3.28124 28.7109 3.14452 28.4375 3.28124 28.1641C3.41796 27.7539 3.55468 27.4805 3.96483 27.4805L6.97265 26.7969L8.47655 24.1992C8.61327 23.9258 8.88671 23.6523 9.29687 23.6523C9.5703 23.6523 9.98046 23.9258 10.1172 24.1992L11.6211 26.7969L14.6289 27.4805C14.9023 27.4805 15.1758 27.7539 15.3125 28.1641C15.4492 28.4375 15.3125 28.7109 15.1758 28.9844L13.125 31.3086L13.3984 34.3164C13.3984 34.7266 13.2617 35 12.9883 35.2734C12.8516 35.2734 12.5781 35.4102 12.4414 35.4102ZM9.29687 32.1289C9.43358 32.1289 9.5703 32.1289 9.5703 32.2656L11.3476 32.9492L11.2109 31.0352C11.0742 30.7617 11.2109 30.625 11.3476 30.3516L12.5781 28.9844L10.8008 28.5742C10.5273 28.5742 10.3906 28.3008 10.2539 28.1641L9.29687 26.5234L8.33983 28.1641C8.20312 28.3008 7.92968 28.5742 7.65624 28.5742L5.8789 28.9844L7.10936 30.3516C7.24608 30.625 7.3828 30.7617 7.3828 31.0352L7.24608 32.9492L8.88671 32.2656C9.02343 32.1289 9.16015 32.1289 9.29687 32.1289Z" fill="#CFA935"/>
<path fill-rule="evenodd" clip-rule="evenodd" d="M57.5586 43.6133C57.2851 43.6133 57.1484 43.6133 57.0117 43.4766C56.7383 43.3398 56.6016 42.9297 56.6016 42.6562L56.875 39.6484L54.8242 37.3242C54.6875 37.0508 54.5508 36.6406 54.6875 36.3672C54.8242 36.0938 55.0976 35.8203 55.3711 35.6836L58.3789 35L59.8828 32.4023C60.0195 32.1289 60.4297 31.9922 60.7031 31.9922C61.1133 31.9922 61.3867 32.1289 61.5234 32.4023L63.0273 35L66.0351 35.6836C66.4453 35.8203 66.582 36.0938 66.7187 36.3672C66.8555 36.6406 66.7187 37.0508 66.582 37.3242L64.5312 39.6484L64.8047 42.6562C64.8047 42.9297 64.668 43.2031 64.3945 43.4766C64.1211 43.6133 63.8476 43.75 63.5742 43.6133L60.7031 42.3828L57.9687 43.6133C57.832 43.6133 57.6953 43.6133 57.5586 43.6133ZM57.4219 37.1875L58.5156 38.6914C58.7891 38.8281 58.7891 39.1016 58.7891 39.375L58.6523 41.1523L60.293 40.4688C60.5664 40.332 60.8398 40.332 61.1133 40.4688L62.7539 41.1523L62.6172 39.375C62.6172 39.1016 62.6172 38.8281 62.8906 38.5547L64.1211 37.1875L62.207 36.7773C62.0703 36.7773 61.7969 36.6406 61.6601 36.3672L60.7031 34.8633L59.7461 36.3672C59.6094 36.6406 59.4726 36.7773 59.1992 36.7773L57.4219 37.1875Z" fill="#CFA935"/>
</g>
</g>
<defs>
<clipPath id="clip0_8913_2450">
<rect width="70" height="70" fill="white"/>
</clipPath>
<clipPath id="clip1_8913_2450">
<rect width="70" height="70" fill="white"/>
</clipPath>
</defs>
</svg>
