<svg width="46" height="11" viewBox="0 0 46 11" fill="none" xmlns="http://www.w3.org/2000/svg">
<path id="Line 97" d="M34.6667 5.50391C34.6667 8.44943 37.0545 10.8372 40 10.8372C42.9455 10.8372 45.3333 8.44943 45.3333 5.50391C45.3333 2.55839 42.9455 0.170577 40 0.170576C37.0545 0.170576 34.6667 2.55839 34.6667 5.50391ZM-8.74228e-08 6.50391L3.33333 6.50391L3.33333 4.50391L8.74228e-08 4.50391L-8.74228e-08 6.50391ZM10 6.50391L16.6667 6.50391L16.6667 4.50391L10 4.50391L10 6.50391ZM23.3333 6.50391L30 6.50391L30 4.50391L23.3333 4.50391L23.3333 6.50391ZM36.6667 6.50391L40 6.50391L40 4.50391L36.6667 4.50391L36.6667 6.50391Z" fill="black"/>
</svg>
