<svg width="16" height="16" viewBox="0 0 16 16" fill="none" xmlns="http://www.w3.org/2000/svg">
<g clip-path="url(#clip0_223_44)">
<path fill-rule="evenodd" clip-rule="evenodd" d="M3.64075 15.6319V5.33298H0.217969V15.6319H3.64075V15.6319ZM1.92972 3.92735C3.12294 3.92735 3.86622 3.13585 3.86622 2.14757C3.84366 1.13732 3.12294 0.368164 1.95209 0.368164C0.781062 0.368195 0.015625 1.13735 0.015625 2.1476C0.015625 3.13588 0.7585 3.92738 1.90719 3.92738L1.92972 3.92735ZM5.53512 15.6319C5.53512 15.6319 5.58003 6.29929 5.53512 5.33301H8.95844V6.82657H8.93572C9.38584 6.12376 10.1968 5.09116 12.0432 5.09116C14.2959 5.09116 15.9843 6.56313 15.9843 9.72657V15.6319H12.5616V10.1223C12.5616 8.73788 12.0663 7.7932 10.8273 7.7932C9.88187 7.7932 9.31844 8.43007 9.071 9.0457C8.98047 9.26482 8.95844 9.5726 8.95844 9.88041V15.6319H5.53512Z" fill="#D4AB4C"/>
</g>
<defs>
<clipPath id="clip0_223_44">
<rect width="16" height="16" fill="white"/>
</clipPath>
</defs>
</svg>
