<svg width="245" height="49" viewBox="0 0 245 49" fill="none" xmlns="http://www.w3.org/2000/svg">
<g clip-path="url(#clip0_619_39)">
<path d="M23.6228 48.8328H22.7791L21.9355 46.9932H18.0968L17.2531 48.8328H16.4517L19.6998 41.7671H20.4591L23.7072 48.8328H23.6228ZM19.995 42.6869L18.3921 46.2824H21.6402L20.0372 42.6869H19.995Z" fill="#333333"/>
<path d="M26.5334 41.8086V48.8325H25.7319V41.8086H26.5334Z" fill="#333333"/>
<path d="M38.0915 49L36.9947 47.8711C36.6573 48.2056 36.3198 48.4983 35.9402 48.6655C35.5605 48.8745 35.1387 48.9582 34.6747 48.9582C34.2107 48.9582 34.0419 48.9163 33.7888 48.8327C33.5357 48.7491 33.2826 48.6237 33.0717 48.4146C32.8608 48.2474 32.7342 48.0384 32.6077 47.7875C32.4811 47.5367 32.439 47.2858 32.439 46.9931C32.439 46.5332 32.6077 46.1152 32.903 45.7807C33.1983 45.4462 33.6201 45.1535 34.1685 44.9445C33.9154 44.6518 33.7466 44.401 33.6201 44.1501C33.4935 43.8993 33.4514 43.6484 33.4514 43.3558C33.4514 43.0631 33.4935 42.8959 33.5779 42.6868C33.6623 42.4778 33.7888 42.3105 33.9576 42.1433C34.1263 41.9761 34.295 41.8925 34.5481 41.767C34.8012 41.6416 35.0543 41.6416 35.3074 41.6416C35.5605 41.6416 35.7714 41.6834 35.9824 41.767C36.1933 41.8506 36.362 41.9761 36.5307 42.1015C36.6995 42.2269 36.7838 42.3942 36.9104 42.6032C37.0369 42.8123 37.0369 43.0213 37.0369 43.2303C37.0369 43.6902 36.8682 44.0665 36.5729 44.3592C36.2776 44.6518 35.8558 44.9027 35.3496 45.0699L36.9526 46.7005C37.1213 46.4914 37.2478 46.2406 37.4166 45.9479C37.5853 45.6553 37.7119 45.4044 37.8384 45.1117L38.5133 45.4044C38.3446 45.7389 38.2181 46.0733 38.0493 46.366C37.8806 46.6587 37.7119 46.9513 37.5009 47.2022L38.7243 48.4564L38.1337 48.9163L38.0915 49ZM34.5903 45.4044C34.1263 45.5716 33.7888 45.7807 33.5779 46.0733C33.367 46.3242 33.2404 46.6169 33.2404 46.9095C33.2404 47.2022 33.2404 47.2858 33.367 47.453C33.4514 47.6203 33.5357 47.7457 33.6623 47.8711C33.7888 47.9966 33.9576 48.0802 34.1263 48.1638C34.295 48.2474 34.5059 48.2474 34.7169 48.2474C35.0543 48.2474 35.3496 48.1638 35.6449 47.9966C35.9402 47.8293 36.1933 47.6203 36.4886 47.3276L34.5903 45.4044ZM35.9824 42.645C35.8136 42.4778 35.5605 42.3524 35.2652 42.3524C34.97 42.3524 34.6747 42.436 34.5059 42.645C34.295 42.8541 34.2107 43.0631 34.2107 43.3976C34.2107 43.732 34.2107 43.6066 34.2107 43.6902C34.2107 43.7739 34.2528 43.8993 34.3372 43.9829C34.3794 44.0665 34.4638 44.1919 34.5481 44.3174C34.6325 44.4428 34.759 44.5682 34.8856 44.6937C35.3496 44.5264 35.6871 44.3592 35.898 44.1501C36.1089 43.9411 36.2355 43.6902 36.2355 43.3558C36.2355 43.0213 36.1511 42.8123 35.9402 42.645H35.9824Z" fill="#333333"/>
<path d="M48.342 41.9343C48.6373 42.0179 48.8482 42.1434 49.0591 42.2688C49.27 42.436 49.3966 42.6033 49.5231 42.8123C49.6497 43.0214 49.6918 43.2722 49.6918 43.5231C49.6918 43.7739 49.6918 43.9411 49.6075 44.1502C49.5231 44.3174 49.4387 44.4847 49.3544 44.6101C49.2278 44.7355 49.1435 44.8609 49.0169 44.9446C48.8904 45.0282 48.7638 45.1118 48.5951 45.1536C48.806 45.1954 49.0169 45.279 49.1856 45.4045C49.3544 45.5299 49.5231 45.6135 49.6497 45.7389C49.7762 45.8644 49.9028 46.0316 49.9871 46.2406C50.0715 46.4079 50.1137 46.6587 50.1137 46.8678C50.1137 47.0768 50.0715 47.4531 49.9449 47.6621C49.8184 47.8712 49.6497 48.122 49.4387 48.2893C49.2278 48.4565 48.9325 48.5819 48.6373 48.6656C48.2998 48.7492 47.9623 48.791 47.5827 48.791H44.4189V41.7671H47.414C47.7514 41.7671 48.0889 41.8089 48.3842 41.8925L48.342 41.9343ZM48.4263 44.6519C48.7216 44.4429 48.8904 44.1084 48.8904 43.6903C48.8904 43.2722 48.7638 43.0632 48.4685 42.8541C48.2154 42.6451 47.7936 42.5615 47.2874 42.5615H45.1361V44.9864H47.2452C47.7092 44.9864 48.1311 44.8609 48.4263 44.6519ZM48.806 47.8294C49.1013 47.6203 49.27 47.2859 49.27 46.9096C49.27 46.5333 49.1013 46.1988 48.806 45.9898C48.4685 45.7807 48.0045 45.6553 47.414 45.6553H45.1782V48.1638H47.5405C48.0889 48.1638 48.5107 48.0384 48.806 47.8294Z" fill="#333333"/>
<path d="M52.3496 41.8086H53.1511V48.0799H57.1585V48.8325H52.3496V41.8086Z" fill="#333333"/>
<path d="M65.5105 46.7007C65.3418 47.1187 65.0887 47.5368 64.7512 47.8713C64.4138 48.2058 64.0341 48.4566 63.6123 48.6657C63.1483 48.8747 62.6842 48.9583 62.1359 48.9583C61.5875 48.9583 61.1235 48.8747 60.6595 48.6657C60.1954 48.4566 59.858 48.2058 59.5205 47.8713C59.183 47.5368 58.9721 47.1606 58.8034 46.7007C58.6347 46.2408 58.5503 45.7809 58.5503 45.321C58.5503 44.8611 58.6347 44.3594 58.8034 43.9413C58.9721 43.5232 59.2252 43.1051 59.5627 42.7706C59.9002 42.4362 60.2798 42.1853 60.7016 41.9763C61.1656 41.7672 61.6297 41.6836 62.178 41.6836C62.7264 41.6836 63.1904 41.7672 63.6545 41.9763C64.0763 42.1853 64.4559 42.4362 64.7934 42.7706C65.1309 43.1051 65.3418 43.4814 65.5105 43.9413C65.6793 44.3594 65.7636 44.8611 65.7636 45.321C65.7636 45.7809 65.6793 46.2826 65.5105 46.7007ZM64.7512 44.1921C64.6247 43.8577 64.4138 43.5232 64.1607 43.2723C63.9076 43.0215 63.6123 42.8124 63.2748 42.6452C62.9373 42.478 62.5577 42.3943 62.1359 42.3943C61.714 42.3943 61.3766 42.478 60.9969 42.6034C60.6595 42.7706 60.3642 42.9797 60.1111 43.2305C59.858 43.4814 59.6892 43.8158 59.5205 44.1503C59.3518 44.4848 59.3096 44.8611 59.3096 45.2792C59.3096 45.6972 59.394 46.0735 59.5205 46.408C59.6471 46.7425 59.858 47.0769 60.1111 47.3278C60.3642 47.5786 60.6595 47.7877 60.9969 47.9549C61.3344 48.1222 61.714 48.2058 62.1359 48.2058C62.5577 48.2058 62.8952 48.1222 63.2748 47.9967C63.6545 47.8713 63.9076 47.6205 64.1607 47.3696C64.4138 47.1188 64.5825 46.7843 64.7512 46.4498C64.8778 46.1153 64.9621 45.7391 64.9621 45.321C64.9621 44.9029 64.8778 44.5266 64.7512 44.1921Z" fill="#333333"/>
<path d="M73.61 48.2476C73.3991 48.4148 73.1882 48.5403 72.9773 48.6239C72.7664 48.7493 72.5133 48.8329 72.218 48.8747C71.9649 48.9165 71.6696 48.9583 71.3322 48.9583C70.826 48.9583 70.3619 48.8747 69.8979 48.6657C69.4761 48.4984 69.0964 48.2058 68.759 47.9131C68.4215 47.5786 68.2106 47.2024 67.9997 46.7843C67.8309 46.3244 67.7466 45.8645 67.7466 45.3628C67.7466 44.8611 67.8309 44.4012 67.9997 43.9413C68.1684 43.4814 68.4215 43.1051 68.759 42.7706C69.0964 42.4362 69.4339 42.1853 69.8979 41.9763C70.3198 41.7672 70.826 41.6836 71.3322 41.6836C71.8384 41.6836 71.9649 41.6836 72.218 41.7672C72.4711 41.809 72.7242 41.8926 72.9351 41.9763C73.146 42.0599 73.3569 42.1853 73.5679 42.3107C73.7366 42.4362 73.9475 42.6034 74.1162 42.7706L73.5679 43.3559C73.2726 43.0633 72.9351 42.8542 72.5976 42.6452C72.2602 42.478 71.8384 42.3943 71.3322 42.3943C70.826 42.3943 70.5729 42.478 70.2354 42.6034C69.8979 42.7706 69.6026 42.9379 69.3495 43.2305C69.0964 43.4814 68.9277 43.8158 68.759 44.1503C68.5902 44.4848 68.5481 44.8611 68.5481 45.2792C68.5481 45.6972 68.6324 46.0735 68.759 46.408C68.8855 46.7425 69.0964 47.0769 69.3495 47.3278C69.6026 47.5786 69.8979 47.7877 70.2354 47.9549C70.5729 48.1222 70.9525 48.164 71.3322 48.164C71.7118 48.164 72.218 48.0804 72.5976 47.9131C72.9351 47.7459 73.2726 47.495 73.61 47.1606L74.1162 47.6623C73.9475 47.8295 73.7366 48.0385 73.5257 48.164L73.61 48.2476Z" fill="#333333"/>
<path d="M82.2995 48.8325H81.2871L78.5452 45.446L77.0266 46.9511V48.8325H76.2251V41.8086H77.0266V45.9895L81.0762 41.8086H82.0886L79.0514 44.8606L82.2151 48.8325H82.2995Z" fill="#333333"/>
<path d="M89.1755 48.2476C88.9646 48.4148 88.7536 48.5403 88.5427 48.6239C88.3318 48.7493 88.0787 48.8329 87.7834 48.8747C87.5303 48.9165 87.235 48.9583 86.8976 48.9583C86.3914 48.9583 85.9274 48.8747 85.4634 48.6657C85.0415 48.4984 84.6619 48.2058 84.3244 47.9131C83.9869 47.5786 83.776 47.2024 83.5651 46.7843C83.3964 46.3244 83.312 45.8645 83.312 45.3628C83.312 44.8611 83.3964 44.4012 83.5651 43.9413C83.7338 43.4814 83.9869 43.1051 84.3244 42.7706C84.6619 42.4362 84.9993 42.1853 85.4634 41.9763C85.8852 41.7672 86.3914 41.6836 86.8976 41.6836C87.4038 41.6836 87.5303 41.6836 87.7834 41.7672C88.0365 41.809 88.2896 41.8926 88.5005 41.9763C88.7115 42.0599 88.9224 42.1853 89.1333 42.3107C89.302 42.4362 89.5129 42.6034 89.6817 42.7706L89.1333 43.3559C88.838 43.0633 88.5005 42.8542 88.1631 42.6452C87.8256 42.478 87.4038 42.3943 86.8976 42.3943C86.3914 42.3943 86.1383 42.478 85.8008 42.6034C85.4634 42.7706 85.1681 42.9379 84.915 43.2305C84.6619 43.4814 84.4931 43.8158 84.3244 44.1503C84.1557 44.4848 84.1135 44.8611 84.1135 45.2792C84.1135 45.6972 84.1979 46.0735 84.3244 46.408C84.451 46.7425 84.6619 47.0769 84.915 47.3278C85.1681 47.5786 85.4634 47.7877 85.8008 47.9549C86.1383 48.1222 86.5179 48.164 86.8976 48.164C87.2772 48.164 87.7834 48.0804 88.1631 47.9131C88.5005 47.7459 88.838 47.495 89.1755 47.1606L89.6817 47.6623C89.5129 47.8295 89.302 48.0385 89.0911 48.164L89.1755 48.2476Z" fill="#333333"/>
<path d="M92.5925 45.697V48.8745H91.791V41.8506H92.5925V44.9863H96.6843V41.8506H97.4857V48.8745H96.6843V45.697H92.5925Z" fill="#333333"/>
<path d="M106.766 48.8328H105.922L105.079 46.9932H101.24L100.396 48.8328H99.5947L102.843 41.7671H103.602L106.85 48.8328H106.766ZM103.138 42.6869L101.535 46.2824H104.783L103.18 42.6869H103.138Z" fill="#333333"/>
<path d="M109.676 41.8086V48.8325H108.875V41.8086H109.676Z" fill="#333333"/>
<path d="M117.607 41.8086H118.366V48.8325H117.734L113.178 43.0629V48.8325H112.418V41.8086H113.178L117.649 47.4528V41.8086H117.607Z" fill="#333333"/>
<path d="M130.262 48.2476C130.051 48.4148 129.84 48.5403 129.629 48.6239C129.418 48.7493 129.165 48.8329 128.87 48.8747C128.617 48.9165 128.321 48.9583 127.984 48.9583C127.478 48.9583 127.014 48.8747 126.55 48.6657C126.128 48.4984 125.748 48.2058 125.411 47.9131C125.073 47.5786 124.862 47.2024 124.652 46.7843C124.483 46.3244 124.398 45.8645 124.398 45.3628C124.398 44.8611 124.483 44.4012 124.652 43.9413C124.82 43.4814 125.073 43.1051 125.411 42.7706C125.748 42.4362 126.086 42.1853 126.55 41.9763C126.972 41.7672 127.478 41.6836 127.984 41.6836C128.49 41.6836 128.617 41.6836 128.87 41.7672C129.123 41.809 129.376 41.8926 129.587 41.9763C129.798 42.0599 130.009 42.1853 130.22 42.3107C130.388 42.4362 130.599 42.6034 130.768 42.7706L130.22 43.3559C129.924 43.0633 129.587 42.8542 129.25 42.6452C128.912 42.478 128.49 42.3943 127.984 42.3943C127.478 42.3943 127.225 42.478 126.887 42.6034C126.55 42.7706 126.255 42.9379 126.001 43.2305C125.748 43.4814 125.58 43.8158 125.411 44.1503C125.242 44.4848 125.2 44.8611 125.2 45.2792C125.2 45.6972 125.284 46.0735 125.411 46.408C125.537 46.7425 125.748 47.0769 126.001 47.3278C126.255 47.5786 126.55 47.7877 126.887 47.9549C127.225 48.1222 127.604 48.164 127.984 48.164C128.364 48.164 128.87 48.0804 129.25 47.9131C129.587 47.7459 129.924 47.495 130.262 47.1606L130.768 47.6623C130.599 47.8295 130.388 48.0385 130.178 48.164L130.262 48.2476Z" fill="#333333"/>
<path d="M138.024 42.5612H133.721V44.9443H137.602V45.655H133.721V48.1217H138.108V48.8325H132.919V41.8086H138.024V42.5193V42.5612Z" fill="#333333"/>
<path d="M145.195 48.8325L143.128 46.1149H141.103V48.8325H140.302V41.8086H143.339C143.719 41.8086 144.098 41.8504 144.394 41.9758C144.689 42.0594 144.984 42.2267 145.195 42.3939C145.406 42.5612 145.575 42.812 145.701 43.0629C145.828 43.3137 145.87 43.6064 145.87 43.9408C145.87 44.2753 145.828 44.4844 145.743 44.7352C145.659 44.9861 145.532 45.1533 145.364 45.3205C145.195 45.4878 144.984 45.6132 144.731 45.7386C144.478 45.8641 144.225 45.9477 143.972 45.9895L146.165 48.8743H145.195V48.8325ZM144.647 42.9374C144.309 42.6866 143.887 42.5612 143.297 42.5612H141.103V45.4042H143.297C143.55 45.4042 143.803 45.4042 144.014 45.3205C144.225 45.2369 144.436 45.1533 144.604 45.0279C144.773 44.9024 144.9 44.7352 144.984 44.568C145.068 44.4007 145.111 44.1917 145.111 43.9408C145.111 43.4809 144.942 43.1465 144.647 42.8956V42.9374Z" fill="#333333"/>
<path d="M150.932 48.8325H150.13V42.5612H147.768V41.8086H153.336V42.5612H150.974V48.8325H150.932Z" fill="#333333"/>
<path d="M156.331 41.8086V48.8325H155.53V41.8086H156.331Z" fill="#333333"/>
<path d="M164.177 42.5612H159.875V45.0697H163.713V45.7804H159.875V48.8325H159.073V41.8086H164.177V42.5612Z" fill="#333333"/>
<path d="M167.215 41.8086V48.8325H166.413V41.8086H167.215Z" fill="#333333"/>
<path d="M175.482 48.2476C175.271 48.4148 175.06 48.5403 174.849 48.6239C174.638 48.7493 174.385 48.8329 174.09 48.8747C173.837 48.9165 173.542 48.9583 173.204 48.9583C172.698 48.9583 172.234 48.8747 171.77 48.6657C171.348 48.4984 170.969 48.2058 170.631 47.9131C170.294 47.5786 170.083 47.2024 169.872 46.7843C169.703 46.3244 169.619 45.8645 169.619 45.3628C169.619 44.8611 169.703 44.4012 169.872 43.9413C170.04 43.4814 170.294 43.1051 170.631 42.7706C170.969 42.4362 171.306 42.1853 171.77 41.9763C172.192 41.7672 172.698 41.6836 173.204 41.6836C173.71 41.6836 173.837 41.6836 174.09 41.7672C174.343 41.809 174.596 41.8926 174.807 41.9763C175.018 42.0599 175.229 42.1853 175.44 42.3107C175.609 42.4362 175.82 42.6034 175.988 42.7706L175.44 43.3559C175.145 43.0633 174.807 42.8542 174.47 42.6452C174.132 42.478 173.71 42.3943 173.204 42.3943C172.698 42.3943 172.445 42.478 172.107 42.6034C171.77 42.7706 171.475 42.9379 171.222 43.2305C170.969 43.4814 170.8 43.8158 170.631 44.1503C170.462 44.4848 170.42 44.8611 170.42 45.2792C170.42 45.6972 170.504 46.0735 170.631 46.408C170.758 46.7425 170.969 47.0769 171.222 47.3278C171.475 47.5786 171.77 47.7877 172.107 47.9549C172.445 48.1222 172.825 48.164 173.204 48.164C173.584 48.164 174.09 48.0804 174.47 47.9131C174.807 47.7459 175.145 47.495 175.482 47.1606L175.988 47.6623C175.82 47.8295 175.609 48.0385 175.398 48.164L175.482 48.2476Z" fill="#333333"/>
<path d="M184.678 48.8328H183.835L182.991 46.9932H179.152L178.309 48.8328H177.507L180.755 41.7671H181.515L184.763 48.8328H184.678ZM181.093 42.6869L179.49 46.2824H182.738L181.135 42.6869H181.093Z" fill="#333333"/>
<path d="M188.517 48.8325H187.715V42.5612H185.353V41.8086H190.921V42.5612H188.559V48.8325H188.517Z" fill="#333333"/>
<path d="M193.916 41.8086V48.8325H193.115V41.8086H193.916Z" fill="#333333"/>
<path d="M203.323 46.7007C203.154 47.1187 202.901 47.5368 202.564 47.8713C202.226 48.2058 201.847 48.4566 201.425 48.6657C200.961 48.8747 200.497 48.9583 199.948 48.9583C199.4 48.9583 198.936 48.8747 198.472 48.6657C198.008 48.4566 197.67 48.2058 197.333 47.8713C196.996 47.5368 196.785 47.1606 196.616 46.7007C196.447 46.2408 196.363 45.7809 196.363 45.321C196.363 44.8611 196.447 44.3594 196.616 43.9413C196.785 43.5232 197.038 43.1051 197.375 42.7706C197.713 42.4362 198.092 42.1853 198.514 41.9763C198.978 41.7672 199.442 41.6836 199.991 41.6836C200.539 41.6836 201.003 41.7672 201.467 41.9763C201.889 42.1853 202.268 42.4362 202.606 42.7706C202.943 43.1051 203.154 43.4814 203.323 43.9413C203.492 44.3594 203.576 44.8611 203.576 45.321C203.576 45.7809 203.492 46.2826 203.323 46.7007ZM202.522 44.1921C202.395 43.8577 202.184 43.5232 201.931 43.2723C201.678 43.0215 201.383 42.8124 201.045 42.6452C200.708 42.478 200.328 42.3943 199.906 42.3943C199.484 42.3943 199.147 42.478 198.767 42.6034C198.43 42.7706 198.134 42.9797 197.881 43.2305C197.628 43.4814 197.46 43.8158 197.291 44.1503C197.122 44.4848 197.08 44.8611 197.08 45.2792C197.08 45.6972 197.164 46.0735 197.291 46.408C197.417 46.7425 197.628 47.0769 197.881 47.3278C198.134 47.5786 198.43 47.7877 198.767 47.9549C199.105 48.1222 199.484 48.2058 199.906 48.2058C200.328 48.2058 200.665 48.1222 201.045 47.9967C201.425 47.8713 201.678 47.6205 201.931 47.3696C202.184 47.1188 202.353 46.7843 202.522 46.4498C202.648 46.1153 202.732 45.7391 202.732 45.321C202.732 44.9029 202.648 44.5266 202.522 44.1921Z" fill="#333333"/>
<path d="M211.127 41.8086H211.886V48.8325H211.254L206.698 43.0629V48.8325H205.938V41.8086H206.698L211.169 47.4528V41.8086H211.127Z" fill="#333333"/>
<path d="M215.261 44.0249C215.303 44.1503 215.43 44.2757 215.556 44.4012C215.683 44.5266 215.894 44.6102 216.147 44.6938C216.4 44.7775 216.738 44.8611 217.117 44.9447C217.919 45.1119 218.509 45.3628 218.847 45.6554C219.226 45.9481 219.395 46.408 219.395 46.9515C219.395 47.495 219.353 47.5368 219.226 47.7877C219.1 48.0385 218.931 48.2476 218.72 48.4148C218.509 48.5821 218.256 48.7075 217.961 48.8329C217.666 48.9165 217.328 48.9583 216.991 48.9583C216.442 48.9583 215.894 48.8747 215.43 48.6657C214.966 48.4566 214.502 48.2058 214.08 47.8295L214.586 47.2442C214.966 47.5786 215.346 47.8295 215.725 47.9967C216.105 48.164 216.527 48.2476 217.033 48.2476C217.539 48.2476 217.877 48.1222 218.172 47.9131C218.467 47.7041 218.594 47.4114 218.594 47.0351C218.594 46.6589 218.594 46.7007 218.509 46.5752C218.467 46.4498 218.341 46.3244 218.214 46.199C218.087 46.0735 217.877 45.9899 217.666 45.9063C217.455 45.8227 217.117 45.7391 216.738 45.6554C216.316 45.5718 215.978 45.4882 215.683 45.3628C215.388 45.2373 215.135 45.1119 214.924 44.9447C214.713 44.7775 214.586 44.6102 214.502 44.4012C214.418 44.1921 214.375 43.9413 214.375 43.6486C214.375 43.356 214.418 43.1051 214.544 42.8542C214.671 42.6034 214.839 42.4362 215.05 42.2271C215.261 42.0599 215.514 41.9344 215.81 41.809C216.105 41.6836 216.4 41.6836 216.738 41.6836C217.244 41.6836 217.708 41.7672 218.087 41.8926C218.467 42.0181 218.847 42.2271 219.226 42.5198L218.762 43.1469C218.425 42.8961 218.087 42.687 217.75 42.5616C217.413 42.4362 217.075 42.3943 216.695 42.3943C216.316 42.3943 216.274 42.3943 216.063 42.478C215.894 42.5198 215.725 42.6034 215.599 42.7288C215.472 42.8124 215.346 42.9379 215.303 43.1051C215.261 43.2723 215.177 43.3978 215.177 43.565C215.177 43.7322 215.177 43.8995 215.261 44.0249Z" fill="#333333"/>
<path d="M221.631 48.8325V47.7873H222.559V48.8325H221.631ZM222.559 41.8086V42.3939L222.306 46.8675H221.884L221.631 42.3939V41.8086H222.559Z" fill="#333333"/>
<path d="M103.012 30.8966C102.084 31.6073 101.071 32.2345 99.9744 32.7362C98.8776 33.2379 97.6965 33.656 96.3888 33.9068C95.0812 34.1577 93.6469 34.3249 92.0861 34.3249C89.6395 34.3249 87.3616 33.865 85.2947 32.987C83.2277 32.109 81.4138 30.8966 79.8952 29.3496C78.3766 27.8027 77.1955 26.0049 76.3096 23.9145C75.466 21.824 75.002 19.5664 75.002 17.1833C75.002 14.8002 75.4238 12.5843 76.2674 10.4938C77.1111 8.4034 78.2922 6.56381 79.853 5.01688C81.4138 3.46995 83.1855 2.21569 85.2947 1.29589C87.4038 0.376096 89.7239 -0.0419922 92.2971 -0.0419922C94.8702 -0.0419922 95.2077 0.0834344 96.4732 0.334288C97.7387 0.585141 98.8776 0.961421 99.9322 1.42132C100.987 1.88122 101.957 2.42473 102.843 3.05186C103.729 3.679 104.572 4.38975 105.374 5.14231L101.577 9.44862C100.228 8.19436 98.8355 7.23275 97.3169 6.48019C95.7983 5.72763 94.1109 5.35135 92.2127 5.35135C90.3145 5.35135 89.1333 5.64401 87.7835 6.27115C86.4336 6.89828 85.2525 7.73446 84.2823 8.77968C83.312 9.8249 82.5106 11.0792 82.0044 12.5007C81.456 13.9222 81.2029 15.4691 81.2029 17.0996C81.2029 18.7302 81.456 20.2771 82.0044 21.7404C82.5527 23.1619 83.312 24.458 84.2823 25.5032C85.2525 26.5903 86.4336 27.4264 87.7835 28.0536C89.1333 28.6807 90.6097 28.9734 92.2127 28.9734C93.8157 28.9734 96.0092 28.5971 97.4856 27.8027C98.962 27.0083 100.396 25.9631 101.83 24.6671L105.627 28.4717C104.783 29.3915 103.855 30.1858 102.927 30.8966H103.012Z" fill="black"/>
<path d="M137.855 5.85288H118.915V14.3819H135.704V19.6498H118.915V28.5133H138.108V33.7812H113.051V0.584961H137.855V5.85288Z" fill="black"/>
<path d="M167.847 33.7812L159.579 22.2001H152.197V33.7812H146.376V0.584961H161.309C163.207 0.584961 164.937 0.835814 166.497 1.33752C168.058 1.83923 169.366 2.50817 170.42 3.42796C171.475 4.34776 172.319 5.43479 172.867 6.73087C173.458 8.02694 173.711 9.49025 173.711 11.1208C173.711 12.7513 173.5 13.7548 173.12 14.8418C172.74 15.9288 172.15 16.8904 171.475 17.7266C170.758 18.5628 169.914 19.2735 168.944 19.8589C167.974 20.4442 166.877 20.9041 165.696 21.1967L174.765 33.7812H167.805H167.847ZM165.907 7.23257C164.683 6.31278 162.996 5.81107 160.76 5.81107H152.155V17.0158H160.803C162.912 17.0158 164.599 16.5141 165.865 15.5107C167.13 14.5073 167.721 13.1276 167.721 11.4135C167.721 9.6993 167.13 8.19418 165.907 7.23257Z" fill="black"/>
<path d="M196.194 33.7812H190.246V5.97831H179.616V0.584961H206.824V5.97831H196.194V33.7812Z" fill="black"/>
<path d="M226.186 29.8514C225.722 30.813 225.047 31.6492 224.204 32.2763C223.36 32.9453 222.348 33.4051 221.209 33.7396C220.07 34.0741 218.846 34.2413 217.539 34.2413C216.231 34.2413 213.869 33.9069 212.013 33.2797C210.157 32.6526 208.427 31.7328 206.824 30.4785L209.397 26.5903C210.789 27.5937 212.181 28.3881 213.574 28.8898C215.008 29.3915 216.358 29.6842 217.665 29.6842C218.973 29.6842 219.859 29.4333 220.576 28.9316C221.251 28.4299 221.588 27.8028 221.588 26.9666V26.883C221.588 26.4231 221.42 26.005 221.124 25.6287C220.829 25.2942 220.407 24.9598 219.859 24.7089C219.353 24.458 218.72 24.2072 218.045 23.9982C217.37 23.7891 216.653 23.5801 215.894 23.371C214.966 23.0784 214.038 22.7857 213.11 22.4094C212.181 22.0749 211.338 21.615 210.579 21.0715C209.819 20.528 209.229 19.8173 208.722 19.0229C208.258 18.2285 208.005 17.2251 208.005 16.0127V15.929C208.005 14.7584 208.216 13.7132 208.68 12.7516C209.144 11.79 209.777 10.9956 210.579 10.3267C211.38 9.65771 212.35 9.156 213.447 8.82153C214.544 8.48706 215.725 8.31982 216.948 8.31982C218.171 8.31982 220.154 8.57068 221.799 9.07238C223.444 9.57409 224.921 10.2848 226.271 11.1628L223.993 15.2601C222.769 14.5493 221.546 13.964 220.323 13.5459C219.057 13.1278 217.918 12.9188 216.864 12.9188C215.809 12.9188 214.881 13.1697 214.248 13.6296C213.616 14.0894 213.32 14.7166 213.32 15.4273V15.511C213.32 15.9708 213.489 16.3471 213.784 16.6816C214.122 17.0161 214.544 17.3087 215.05 17.6014C215.556 17.8522 216.189 18.1031 216.864 18.354C217.539 18.6048 218.256 18.8139 219.015 19.0229C219.943 19.3156 220.871 19.65 221.799 20.0263C222.727 20.4026 223.571 20.8625 224.33 21.406C225.09 21.9495 225.68 22.6185 226.186 23.4128C226.65 24.2072 226.903 25.1688 226.903 26.2976V26.3813C226.903 27.7191 226.65 28.848 226.186 29.8514Z" fill="black"/>
<path d="M33.4936 0.961426H26.7022L21.598 12.8351H12.7817L5.06217 5.18412C5.39964 4.76603 5.56837 4.22252 5.56837 3.63719C5.56837 2.17388 4.38724 1.00323 2.91083 1.00323C1.43442 1.00323 0.25329 2.17388 0.25329 3.59538C0.25329 5.01689 1.43442 6.22934 2.91083 6.22934C4.38724 6.22934 3.58576 6.14573 3.88104 6.06211L12.1911 14.2985H20.9652L19.8263 16.9742H5.35746C5.01999 15.8872 4.00759 15.051 2.78428 15.051C1.56097 15.051 0.126741 16.2217 0.126741 17.685C0.126741 19.1483 1.30787 20.3189 2.78428 20.3189C4.26069 20.3189 5.01999 19.5246 5.35746 18.3957H19.1935L18.0546 21.0715H11.8959L3.58576 29.3078C3.29048 29.1824 2.95301 29.1406 2.61555 29.1406C1.13914 29.1406 -0.0419922 30.3113 -0.0419922 31.7746C-0.0419922 33.2379 1.13914 34.4085 2.61555 34.4085C4.09196 34.4085 5.27309 33.2379 5.27309 31.7746C5.27309 30.3113 5.06217 30.6457 4.76689 30.2276L12.4864 22.5766H17.3797L12.2755 34.4503H19.7841L22.8635 27.0084H37.037L40.1164 34.4503H47.8359L33.4936 0.961426ZM25.5632 20.4862L30.0346 9.69948L34.506 20.4862H25.6054H25.5632Z" fill="#CFA935"/>
<path d="M54.6694 34.2412V1.04492H62.0515V34.2412H54.6694Z" fill="#CFA935"/>
<path d="M231.628 2.34093V9.32302H229.688V2.34093H226.988V0.584961H234.328V2.38274H231.628V2.34093Z" fill="black"/>
<path d="M243.059 9.36482V3.63701L240.571 7.39981H240.528L238.082 3.67882V9.36482H236.184V0.584961H238.293L240.613 4.30595L242.933 0.584961H245.042V9.36482H243.102H243.059Z" fill="black"/>
</g>
<defs>
<clipPath id="clip0_619_39">
<rect width="245" height="49" fill="white"/>
</clipPath>
</defs>
</svg>
