<svg width="176" height="24" viewBox="0 0 176 24" fill="none" xmlns="http://www.w3.org/2000/svg">
<g clip-path="url(#clip0_528_41)">
<path d="M70.0937 19.4098C69.0391 19.9493 67.7784 20.2205 66.3116 20.2205C65.166 20.2205 64.1053 20.0047 63.1295 19.5761C62.1537 19.1445 61.3112 18.5554 60.602 17.8059C59.8898 17.0565 59.3413 16.1787 58.9504 15.1756C58.5594 14.1724 58.3655 13.0963 58.3655 11.9474C58.3655 10.7984 58.5594 9.73109 58.9504 8.73668C59.3413 7.74519 59.8898 6.87909 60.602 6.13838C61.3112 5.4006 62.1537 4.81445 63.1295 4.38286C64.1023 3.95126 65.163 3.73838 66.3116 3.73838C67.6875 3.73838 68.9148 4.00376 69.9907 4.53158C71.0696 5.06232 72.0879 5.75637 73.0516 6.61664L75.77 3.60424C75.1972 3.0735 74.5881 2.58942 73.9486 2.14908C73.3061 1.70874 72.6061 1.32672 71.8515 1.00594C71.0938 0.685165 70.2635 0.437291 69.3573 0.262322C68.4512 0.0873521 67.4481 -0.0030489 66.348 -0.0030489C64.5145 -0.0030489 62.8386 0.311896 61.3263 0.938871C59.8141 1.56876 58.5049 2.42903 57.4048 3.51967C56.3047 4.61032 55.4501 5.88468 54.8409 7.34276C54.2348 8.79792 53.9287 10.3552 53.9287 12.0086C53.9287 13.6621 54.2378 15.2514 54.8561 16.7095C55.4743 18.1646 56.3289 19.4302 57.4199 20.4976C58.5079 21.5678 59.7989 22.4106 61.29 23.0288C62.781 23.647 64.4084 23.9561 66.1752 23.9561C67.2996 23.9561 68.3239 23.8628 69.2543 23.6762C70.1816 23.4895 71.0362 23.2125 71.8181 22.848C72.597 22.4835 73.3243 22.0548 74.0032 21.5561C74.679 21.0604 75.3275 20.4917 75.9458 19.8531L73.2273 17.2052C72.197 18.1326 71.1514 18.8645 70.0968 19.4069L70.0937 19.4098Z" fill="black"/>
<path d="M85.4316 13.703H97.5054V10.0287H85.4316V4.07096H99.051V0.396598H81.2373V23.5655H99.2237V19.8911H85.4316V13.703Z" fill="black"/>
<path d="M121.392 13.8518C122.092 13.4435 122.692 12.9478 123.199 12.3616C123.702 11.7784 124.099 11.1047 124.387 10.3436C124.674 9.5825 124.817 8.7164 124.817 7.74532C124.817 6.61968 124.611 5.59903 124.199 4.68335C123.787 3.76768 123.196 2.9949 122.429 2.36792C121.659 1.73803 120.72 1.25395 119.607 0.912758C118.495 0.571567 117.253 0.399514 115.877 0.399514H105.146V23.5655H109.343V15.4906H114.655L120.589 23.5655H125.578L119.077 14.7937C119.926 14.5721 120.698 14.26 121.398 13.8518H121.392ZM109.337 11.8834V4.07096H115.513C117.101 4.07096 118.331 4.39757 119.204 5.05079C120.077 5.70401 120.517 6.67509 120.517 7.9582C120.517 9.15383 120.068 10.1074 119.171 10.816C118.274 11.5247 117.068 11.8804 115.549 11.8804H109.34L109.337 11.8834Z" fill="black"/>
<path d="M129.044 4.17011H136.678V23.5655H140.945V4.17011H148.579V0.396598H129.044V4.17011Z" fill="black"/>
<path d="M161.187 14.9103C160.647 14.5254 160.047 14.1988 159.381 13.9334C158.714 13.668 158.05 13.4377 157.386 13.2394C156.859 13.0848 156.35 12.9244 155.856 12.7582C155.362 12.592 154.929 12.417 154.55 12.2275C154.171 12.0408 153.868 11.8309 153.638 11.5976C153.407 11.3672 153.292 11.096 153.292 10.7869V10.7198C153.292 10.2124 153.516 9.79247 153.962 9.46294C154.407 9.13341 155.035 8.96719 155.835 8.96719C156.592 8.96719 157.417 9.11592 158.311 9.41336C159.205 9.71081 160.087 10.1132 160.959 10.6207L162.611 7.77448C161.647 7.15626 160.581 6.67217 159.414 6.31932C158.244 5.96646 157.086 5.78858 155.941 5.78858C155.047 5.78858 154.204 5.91106 153.413 6.1531C152.622 6.39514 151.934 6.74799 151.35 7.21166C150.765 7.67533 150.307 8.23815 149.974 8.90012C149.64 9.56209 149.474 10.3028 149.474 11.1164V11.1835C149.474 12.0233 149.646 12.7232 149.989 13.286C150.331 13.8488 150.774 14.3242 151.313 14.7091C151.853 15.094 152.459 15.409 153.138 15.651C153.813 15.8931 154.483 16.1147 155.15 16.313C155.677 16.4676 156.186 16.6163 156.68 16.7592C157.174 16.9021 157.608 17.0683 157.986 17.2549C158.365 17.4416 158.662 17.6573 158.88 17.8994C159.099 18.1414 159.208 18.4301 159.208 18.7597V18.8267C159.208 19.4012 158.962 19.8591 158.468 20.2002C157.974 20.5414 157.28 20.7135 156.386 20.7135C155.447 20.7135 154.465 20.5327 153.447 20.1682C152.425 19.8036 151.422 19.27 150.437 18.5643L148.58 21.2792C149.725 22.1395 150.971 22.7898 152.31 23.233C153.653 23.6734 154.977 23.895 156.283 23.895C157.223 23.895 158.108 23.7784 158.932 23.548C159.756 23.3176 160.475 22.9735 161.081 22.5215C161.687 22.0695 162.166 21.5008 162.508 20.8185C162.851 20.1361 163.023 19.3283 163.023 18.4039V18.3368C163.023 17.5436 162.851 16.87 162.508 16.3188C162.166 15.7677 161.723 15.2982 161.184 14.9132L161.187 14.9103Z" fill="black"/>
<path d="M19.1835 0.667801L15.5195 8.9497H9.19473L3.64274 3.60729C3.87609 3.30109 4.0155 2.92491 4.0155 2.51956C4.0155 1.50765 3.15785 0.682381 2.10624 0.682381C1.05464 0.682381 0.193956 1.50474 0.193956 2.51956C0.193956 3.53439 1.05161 4.35674 2.10321 4.35674C2.34566 4.35674 2.57901 4.313 2.79418 4.23135L8.7553 9.96744H15.068L14.2437 11.8309H3.84276C3.61243 11.0639 2.87904 10.5011 2.00926 10.5011C0.957658 10.5011 0.100009 11.3264 0.100009 12.3383C0.100009 13.3502 0.957658 14.1755 2.00926 14.1755C2.87904 14.1755 3.61546 13.6126 3.84276 12.8457H13.7951L12.9708 14.7091H8.56134L2.60022 20.4452C2.38505 20.3635 2.15473 20.3198 1.90926 20.3198C0.85765 20.3198 0 21.1451 0 22.157C0 23.1689 0.85765 23.9942 1.90926 23.9942C2.96086 23.9942 3.81851 23.1689 3.81851 22.157C3.81851 21.7487 3.6791 21.3725 3.44575 21.0693L8.99775 15.7269H12.5193L8.86137 23.9971H14.2618L16.462 18.8005H26.6417L28.8419 23.9971H34.3787L24.0657 0.667801H19.1835ZM18.3592 14.3038L21.5564 6.79174L24.7536 14.3038H18.3561H18.3592Z" fill="#CFA935"/>
<path d="M44.5797 0.72904H39.2822V23.8979H44.5797V0.72904Z" fill="#CFA935"/>
<path d="M163.065 1.63597H165.002V6.51762H166.399V1.63597H168.339V0.393682H163.065V1.63597Z" fill="black"/>
<path d="M174.491 0.393682L172.821 2.98323L171.148 0.393682H169.639V6.51762H171.012V2.54581L172.784 5.13536H172.821L174.609 2.51956V6.51762H176V0.393682H174.491Z" fill="black"/>
</g>
<defs>
<clipPath id="clip0_528_41">
<rect width="176" height="24" fill="white"/>
</clipPath>
</defs>
</svg>
