<svg width="40" height="41" viewBox="0 0 40 41" fill="none" xmlns="http://www.w3.org/2000/svg">
<path d="M36.8748 19.3268L36.8752 19.2892C36.8528 14.814 35.0972 10.6072 31.9328 7.4424C28.7688 4.2788 24.5604 2.5236 20.0816 2.5H19.914C10.6672 2.5476 3.13598 10.1096 3.12518 19.3752L3.31078 19.3824L3.12518 19.424V19.4616C3.14598 23.6008 4.65078 27.5048 7.37838 30.5708C8.06158 28.2824 9.46078 27.7988 11.3804 27.428C12.5716 27.1976 13.9216 26.9364 15.4636 25.7384L15.5044 25.7064C15.2564 25.4272 15.0244 25.132 14.8092 24.8268C14.3464 24.938 13.8876 25.064 13.4332 25.2048C13.0324 23.9124 12.7772 22.5796 12.6544 21.2324C12.526 20.9052 12.4236 20.5404 12.3532 20.1408C12.1556 19.0212 12.2892 18.0608 12.684 17.398C12.716 17.0984 12.7584 16.8008 12.804 16.5032C12.8788 15.5932 13.052 14.6256 13.4312 13.7464C13.45 13.6852 13.4644 13.6224 13.4836 13.5616C13.492 13.564 13.5004 13.5664 13.5088 13.5692C13.8132 12.922 14.2404 12.3328 14.8332 11.8596C14.618 11.8028 14.4016 11.7512 14.1888 11.6872C15.3024 9.136 16.9196 6.9016 19.0012 5.0396V10.0624C19.3324 10.0244 19.672 10.0008 20.0248 10.0008C20.3604 10.0008 20.6836 10.0236 21 10.0588V5.0396C21.6736 5.6424 22.3032 6.2896 22.8752 6.9684C24.082 8.3972 25.07 9.9832 25.816 11.6848C25.6012 11.7496 25.3828 11.8016 25.166 11.8588C25.7144 12.298 26.1516 12.8676 26.4816 13.572C26.4952 13.568 26.5084 13.5644 26.5224 13.5604C26.5536 13.6584 26.5772 13.7588 26.6068 13.8572C26.8996 14.576 27.0932 15.4212 27.1856 16.4C27.238 16.7312 27.2844 17.0632 27.32 17.3972C27.7188 18.0584 27.846 19.0152 27.6484 20.1408C27.6096 20.3576 27.5212 20.77 27.3452 21.2176C27.2216 22.5684 26.9648 23.9048 26.5636 25.2028C26.124 25.0668 25.6804 24.9444 25.2332 24.8364C25.0136 25.1468 24.778 25.4456 24.5252 25.7288L24.5368 25.7376C26.0792 26.9356 27.4288 27.1964 28.6204 27.4272C30.5344 27.7972 31.9308 28.278 32.616 30.5488C35.2576 27.5692 36.87 23.6552 36.8752 19.3744L36.6896 19.366L36.8748 19.3268ZM7.80078 27.8696C6.24918 25.6508 5.33838 23.0672 5.15798 20.3748H10.576C10.6528 22.2516 10.976 24.1044 11.5376 25.8876C10.2376 26.424 8.98278 27.09 7.80078 27.8696ZM10.6332 17.6628C10.6136 17.9004 10.5984 18.138 10.5864 18.3752H5.15878C5.33758 15.6816 6.24678 13.0972 7.79638 10.878C8.99118 11.6668 10.2648 12.3404 11.588 12.8836C11.0916 14.4284 10.7704 16.0356 10.6332 17.6628ZM12.2896 11.0104C11.166 10.5448 10.0796 9.9744 9.05358 9.312C10.996 7.198 13.4536 5.7144 16.202 4.99C14.556 6.7688 13.2416 8.7912 12.2896 11.0104ZM27.7096 11.0104C26.8792 9.088 25.7672 7.2956 24.4028 5.68C24.21 5.4512 24.0076 5.2224 23.7976 4.9948C26.536 5.7204 28.9892 7.2052 30.9344 9.3192C29.9136 9.9784 28.8304 10.5464 27.7096 11.0104ZM32.2032 27.872C31.0196 27.0908 29.7616 26.4232 28.4572 25.8852C28.9272 24.3856 29.2332 22.8272 29.3664 21.2496C29.3916 20.9448 29.41 20.6572 29.4224 20.3748H34.8416C34.6612 23.0688 33.7524 25.6532 32.2032 27.872ZM29.418 18.3752C29.3264 16.5064 28.9896 14.6604 28.4144 12.882C29.7268 12.3436 30.9964 11.6728 32.1936 10.8844C33.748 13.1044 34.6604 15.6864 34.842 18.3752H29.418Z" fill="#CFA935"/>
<path d="M25.2776 21.5432C25.638 21.436 26.016 20.7528 26.17 19.88C26.3368 18.9308 26.1784 18.1032 25.816 17.968C25.7992 17.6596 25.7704 17.348 25.7276 17.0368C25.5816 14.3544 24.762 13.1548 23.5508 12.6192C22.6928 11.9308 21.5456 11.5008 20.0236 11.5008C18.5056 11.5008 17.362 11.9196 16.5076 12.5936C15.1736 13.1536 14.3004 14.4876 14.2504 17.6524C14.2424 17.7536 14.236 17.8532 14.2304 17.9528C13.8344 18.03 13.6548 18.8896 13.8296 19.88C13.9908 20.7948 14.398 21.4992 14.7728 21.5528C15.7068 24.098 17.7064 26.5016 20.0232 26.5016C22.3432 26.5016 24.3448 24.0916 25.2776 21.5432Z" fill="#CFA935"/>
<path d="M23.8464 26.6264L21.3336 32.0128L20.6904 30.0496C20.826 29.9504 20.9156 29.7912 20.9408 29.5736L21.4152 28.4424C21.4152 28.1136 21.1264 27.8468 20.7712 27.8468H20H19.2288C18.8736 27.8468 18.5856 28.1136 18.5856 28.4424L19.0596 29.5736C19.0848 29.7916 19.1744 29.9504 19.3096 30.0496L18.666 32.0128L16.1536 26.6264C11.2928 30.402 8.034 26.0132 8.034 34.8988C8.034 37.33 14.5236 38.5 19.976 38.5H20C20 38.5 20.016 38.5 20.024 38.5C25.476 38.5 31.966 37.33 31.966 34.8988C31.966 26.0132 28.7076 30.4024 23.8464 26.6264Z" fill="#CFA935"/>
</svg>
