<svg width="72" height="73" viewBox="0 0 72 73" fill="none" xmlns="http://www.w3.org/2000/svg">
<g clip-path="url(#clip0_27139_271)">
<path d="M71.3079 31.9069L67.8075 29.893C67.5585 28.6966 67.2425 27.5153 66.8607 26.3545L68.8823 22.8688C69.0758 22.5346 69.0966 22.1278 68.9385 21.7754C67.9314 19.5333 66.6977 17.4002 65.2565 15.4093C65.0311 15.0976 64.6697 14.9129 64.285 14.9129H64.2815L60.2491 14.9246C59.4371 14.0153 58.5743 13.1526 57.665 12.3405L57.6767 8.3081C57.6776 7.92215 57.4932 7.5593 57.1809 7.3325C55.1898 5.89145 53.0564 4.65785 50.8142 3.65105C50.462 3.49205 50.0547 3.51305 49.7208 3.7073L46.2357 5.72885C45.0791 5.34815 43.9019 5.03315 42.7096 4.7855L40.694 1.12175C40.4831 0.7385 40.0803 0.5003 39.6428 0.5H32.5365C32.099 0.5003 31.6962 0.73835 31.4853 1.12175L29.4698 4.7855C28.2779 5.03315 27.101 5.34815 25.9448 5.72885L22.4595 3.70745C22.1255 3.5132 21.7184 3.49235 21.3662 3.6512C19.1235 4.65785 16.9898 5.89145 14.9982 7.33265C14.6861 7.55945 14.5017 7.9223 14.5025 8.30825L14.5142 12.3401C13.6053 13.1524 12.7425 14.015 11.9303 14.924L7.89785 14.9129C7.5059 14.8846 7.1306 15.0757 6.92285 15.4093C5.48105 17.3999 4.2473 19.5331 3.2408 21.7756C3.0827 22.1279 3.10355 22.5347 3.29705 22.8689L5.3186 26.3546C4.93805 27.511 4.62305 28.6877 4.37525 29.8796L0.71075 31.8958C0.3275 32.1066 0.0895997 32.5096 0.0895997 32.947V40.0532C0.0894497 40.4906 0.3275 40.8935 0.71075 41.1044L4.37525 43.1206C4.62305 44.3123 4.93805 45.4892 5.3186 46.6455L3.29705 50.1313C3.10355 50.4655 3.0827 50.8723 3.2408 51.2246C4.2479 53.4667 5.48165 55.5998 6.92285 57.5908C7.1483 57.9025 7.50965 58.0871 7.8944 58.0871H7.89785L11.9303 58.0754C12.7422 58.9847 13.605 59.8474 14.5143 60.6595L14.5026 64.6919C14.5017 65.0779 14.6861 65.4407 14.9984 65.6675C16.9895 67.1086 19.1229 68.3422 21.3651 69.349C21.7176 69.506 22.124 69.4852 22.4585 69.2927L25.9436 67.2707C27.1002 67.6517 28.2774 67.9669 29.4698 68.2147L31.4855 71.8786C31.6964 72.2618 32.0991 72.5 32.5367 72.5003H39.643C40.0805 72.5 40.4832 72.262 40.6941 71.8786L42.7099 68.2147C43.9017 67.967 45.0786 67.652 46.2348 67.2713L49.7199 69.2929C50.0545 69.4853 50.4608 69.5063 50.8133 69.3491C53.0556 68.3417 55.1894 67.1083 57.1813 65.6676C57.4935 65.4408 57.6779 65.078 57.677 64.6921L57.6653 60.6602C58.5744 59.8481 59.4371 58.9855 60.2492 58.0763L64.2816 58.0874H64.2851C64.6698 58.0874 65.0312 57.9029 65.2566 57.5911C66.6984 55.6004 67.9322 53.4673 68.9387 51.2248C69.0968 50.8724 69.076 50.4656 68.8824 50.1314L66.8609 46.6457C67.2427 45.4849 67.5588 44.3036 67.8077 43.1072L71.3081 41.0933C71.6807 40.8796 71.9105 40.4828 71.9105 40.0532V32.947C71.9103 32.5174 71.6805 32.1206 71.3079 31.9069ZM69.5103 39.3588L66.1389 41.2982C65.8354 41.4727 65.6231 41.771 65.5577 42.115C65.2831 43.5631 64.9014 44.9888 64.4163 46.3807C64.3011 46.711 64.3358 47.0752 64.5113 47.3779L66.4941 50.7968C65.6901 52.5023 64.7446 54.1376 63.6675 55.6853L59.7113 55.6742H59.7078C59.3589 55.6739 59.0273 55.8259 58.7996 56.0902C57.8369 57.2045 56.7943 58.2473 55.68 59.2103C55.4149 59.4389 55.2629 59.7719 55.2641 60.122L55.2758 64.077C53.728 65.1544 52.0925 66.1001 50.3867 66.9043L46.9683 64.9214C46.6654 64.7468 46.3016 64.7122 45.9711 64.8265C44.579 65.3114 43.1528 65.6927 41.7044 65.9672C41.3526 66.0335 41.049 66.2539 40.877 66.5678L38.9338 70.1H33.2454L31.3025 66.568C31.1304 66.254 30.8268 66.0337 30.4751 65.9674C29.027 65.6932 27.6011 65.3119 26.2094 64.8266C25.8788 64.711 25.5141 64.7455 25.211 64.921L21.7926 66.9044C20.0867 66.1006 18.4512 65.155 16.9035 64.0774L16.9152 60.1217C16.9161 59.7716 16.7642 59.4386 16.4993 59.21C15.3851 58.2472 14.3424 57.2044 13.3797 56.0899C13.152 55.8256 12.8204 55.6736 12.4715 55.6739H12.468L8.513 55.6856C7.4348 54.1384 6.4889 52.5032 5.6852 50.7971L7.66805 47.3782C7.84355 47.0755 7.8782 46.7113 7.763 46.381C7.27775 44.9893 6.8963 43.5634 6.62165 42.1152C6.55505 41.7637 6.335 41.4601 6.02165 41.2873L2.4896 39.3436V33.6565L6.02165 31.7129C6.335 31.5401 6.55505 31.2367 6.62165 30.8851C6.8963 29.437 7.2779 28.0112 7.763 26.6194C7.8782 26.2891 7.84355 25.9249 7.66805 25.6222L5.6852 22.2032C6.4892 20.4977 7.4348 18.8624 8.5118 17.3147L12.468 17.3258H12.4715C12.8204 17.3258 13.1519 17.1739 13.3797 16.9099C14.3427 15.7958 15.3854 14.753 16.4993 13.7897C16.7642 13.561 16.9161 13.228 16.9152 12.878L16.9035 8.9228C18.4514 7.84535 20.0867 6.89975 21.7926 6.0956L25.211 8.07845C25.5137 8.2541 25.8779 8.28875 26.2082 8.1734C27.6003 7.68845 29.0265 7.30715 30.4749 7.03265C30.8265 6.96605 31.13 6.74585 31.3023 6.43205L33.2456 2.9H38.9339L40.8769 6.43205C41.049 6.7463 41.3531 6.96665 41.7053 7.03265C43.1534 7.30715 44.5791 7.68845 45.971 8.1734C46.3013 8.2886 46.6655 8.25395 46.9682 8.07845L50.3866 6.0956C52.0925 6.89945 53.7279 7.8452 55.2757 8.9228L55.2639 12.8785C55.263 13.2286 55.415 13.5616 55.6799 13.7902C56.7941 14.7531 57.8368 15.796 58.7994 16.9103C59.0271 17.1746 59.3588 17.3266 59.7077 17.3263H59.7111L63.6662 17.3146C64.7444 18.8618 65.6903 20.497 66.494 22.2031L64.5111 25.622C64.3356 25.9247 64.301 26.2889 64.4162 26.6192C64.9015 28.0109 65.2829 29.4368 65.5575 30.8849C65.6229 31.2288 65.8352 31.5272 66.1388 31.7017L69.5103 33.6412V39.3588Z" fill="#CFA935"/>
<path d="M36.0895 10.1001C21.5092 10.1001 9.68945 21.9198 9.68945 36.5001C9.70595 51.0736 21.5159 62.8836 36.0895 62.9001C50.6698 62.9001 62.4894 51.0804 62.4894 36.5001C62.4894 21.9198 50.6699 10.1001 36.0895 10.1001ZM36.0895 60.5001C22.8346 60.5001 12.0895 49.755 12.0895 36.5001C12.1045 23.2515 22.8409 12.5151 36.0895 12.5001C49.3443 12.5001 60.0895 23.2452 60.0895 36.5001C60.0895 49.755 49.3443 60.5001 36.0895 60.5001Z" fill="#CFA935"/>
<path d="M50.4894 30.4998C50.2224 30.4998 49.9632 30.5887 49.7524 30.7527L40.8895 37.6468V31.7001C40.8895 31.0372 40.3522 30.4998 39.6894 30.4998C39.4224 30.4998 39.1632 30.5887 38.9524 30.7527L30.0895 37.6468V23.3001C30.0897 22.6375 29.5527 22.1002 28.8901 22.1001H28.8895H21.6895C21.027 22.0999 20.4897 22.6369 20.4895 23.2995V23.3001V49.7001C20.4894 50.3626 21.0264 50.8999 21.6889 50.9001H21.6895H50.4895C51.1521 50.9002 51.6894 50.3632 51.6895 49.7007V49.7001V31.7001C51.6897 31.0372 51.1524 30.4998 50.4894 30.4998ZM49.2895 48.5001H22.8895V24.5001H27.6895V40.1001C27.6895 40.7629 28.2268 41.3004 28.8897 41.3004C29.1567 41.3004 29.4159 41.2115 29.6266 41.0475L38.4895 34.1533V40.1001C38.4895 40.7629 39.0268 41.3004 39.6897 41.3004C39.9567 41.3004 40.2159 41.2115 40.4266 41.0475L49.2895 34.1533V48.5001Z" fill="white"/>
<path d="M35.4076 17.689C34.8791 18.2662 34.6435 18.4999 34.0939 18.4999C33.5431 18.4999 33.3064 18.2654 32.7779 17.689C31.5616 15.9845 29.194 15.5888 27.4895 16.8052C27.148 17.0489 26.8493 17.3476 26.6057 17.689C26.0773 18.2656 25.8406 18.4999 25.2898 18.4999V20.8999C26.509 20.8775 27.6487 20.2907 28.3753 19.3114C28.9037 18.7342 29.1406 18.4999 29.6926 18.4999C30.2434 18.4999 30.4801 18.7343 31.0085 19.3108C32.2226 21.0142 34.5878 21.4106 36.2911 20.1965C36.6337 19.9523 36.9331 19.6528 37.1773 19.3102C37.7057 18.7336 37.9414 18.4999 38.4898 18.4999V16.0999C37.2712 16.1224 36.1325 16.7095 35.4076 17.689Z" fill="white"/>
</g>
<defs>
<clipPath id="clip0_27139_271">
<rect width="72" height="72" fill="white" transform="translate(0 0.5)"/>
</clipPath>
</defs>
</svg>
