<svg width="42" height="42" viewBox="0 0 42 42" fill="none" xmlns="http://www.w3.org/2000/svg">
<path d="M21 0C12.6127 0 5.78918 6.82352 5.78918 15.2107C5.78918 25.6195 19.4014 40.9002 19.9809 41.5456C20.5253 42.1519 21.4757 42.1509 22.0191 41.5456C22.5986 40.9002 36.2108 25.6195 36.2108 15.2107C36.2106 6.82352 29.3872 0 21 0ZM21 22.8637C16.7801 22.8637 13.3471 19.4306 13.3471 15.2107C13.3471 10.9909 16.7802 7.55787 21 7.55787C25.2198 7.55787 28.6528 10.991 28.6528 15.2108C28.6528 19.4307 25.2198 22.8637 21 22.8637Z" fill="#CDCECF"/>
</svg>
