<svg width="88" height="88" viewBox="0 0 88 88" fill="none" xmlns="http://www.w3.org/2000/svg">
<path fill-rule="evenodd" clip-rule="evenodd" d="M78.2 48.2873C78.258 47.8057 78.6975 47.4629 79.1791 47.5209C79.6607 47.5789 80.0035 48.0184 79.9455 48.5C77.91 64.9092 64.9109 77.9082 48.5018 79.9437C48.0201 80.0018 47.5824 79.659 47.5227 79.1773C47.4646 78.6957 47.8074 78.258 48.2891 78.1982C63.8932 76.2629 76.2664 63.8896 78.2018 48.2855L78.2 48.2873ZM77.2596 12.0764L84.7145 13.7322C85.1205 13.8219 85.2682 14.3246 84.9729 14.6199L76.7832 22.8096C76.5652 23.0275 76.2734 23.1137 75.9711 23.0469L68.9064 21.4789L46.3836 44.0018C45.7244 44.6592 44.6574 44.6592 44 44.0018C43.3426 43.3443 43.3426 42.2756 44 41.6182L66.5229 19.0953L64.9549 12.0307C64.8881 11.7283 64.9725 11.4383 65.1922 11.2186L73.3818 3.02891C73.6771 2.73359 74.1799 2.88125 74.2695 3.2873L75.9254 10.7422C76.0766 11.4242 76.5775 11.9252 77.2596 12.0781V12.0764ZM44 18.19C29.7459 18.19 18.19 29.7459 18.19 44C18.19 58.2541 29.7459 69.81 44 69.81C58.2541 69.81 69.81 58.2541 69.81 44C69.81 37.9865 67.7533 32.4529 64.3062 28.0654L58.1188 34.2529C60.033 37.0215 61.1545 40.3807 61.1545 44C61.1545 53.4746 53.4729 61.1562 43.9982 61.1562C34.5236 61.1562 26.842 53.4746 26.842 44C26.842 34.5254 34.5236 26.8437 43.9982 26.8437C47.6193 26.8437 50.9768 27.9652 53.7453 29.8795L59.9328 23.692C55.5453 20.2432 50.0117 18.1883 43.9982 18.1883L44 18.19ZM44 36.3781C44.9668 36.3781 45.8914 36.5574 46.7422 36.8861L52.4814 31.1469C50.0486 29.5385 47.1342 28.6016 44 28.6016C35.4957 28.6016 28.6016 35.4957 28.6016 44C28.6016 52.5043 35.4957 59.3984 44 59.3984C52.5043 59.3984 59.3984 52.5043 59.3984 44C59.3984 40.8658 58.4615 37.9514 56.8531 35.5186L51.1139 41.2578C51.4426 42.1086 51.6219 43.0332 51.6219 44C51.6219 48.21 48.21 51.6219 44 51.6219C39.79 51.6219 36.3781 48.21 36.3781 44C36.3781 39.79 39.79 36.3781 44 36.3781ZM45.3395 38.2889C44.9088 38.1887 44.4605 38.1359 44 38.1359C40.7604 38.1359 38.1359 40.7604 38.1359 44C38.1359 47.2396 40.7604 49.8641 44 49.8641C47.2396 49.8641 49.8641 47.2396 49.8641 44C49.8641 43.5395 49.8113 43.0912 49.7111 42.6605L47.3785 44.9932C46.1709 46.2008 44.2145 46.2008 43.0068 44.9932C41.7992 43.7855 41.7992 41.8291 43.0068 40.6215L45.3395 38.2889ZM44.8789 86.1875C44.8789 86.6727 44.4852 87.0664 44 87.0664C43.5148 87.0664 43.1211 86.6727 43.1211 86.1875V75.8287C43.1211 75.3436 43.5148 74.9498 44 74.9498C44.4852 74.9498 44.8789 75.3436 44.8789 75.8287V86.1875ZM86.1875 43.1211H75.8287C75.3436 43.1211 74.9498 43.5148 74.9498 44C74.9498 44.4852 75.3436 44.8789 75.8287 44.8789H86.1875C86.6727 44.8789 87.0664 44.4852 87.0664 44C87.0664 43.5148 86.6727 43.1211 86.1875 43.1211ZM43.1211 1.8125V12.1713C43.1211 12.6564 43.5148 13.0502 44 13.0502C44.4852 13.0502 44.8789 12.6564 44.8789 12.1713V1.8125C44.8789 1.32734 44.4852 0.933594 44 0.933594C43.5148 0.933594 43.1211 1.32734 43.1211 1.8125ZM1.8125 44.8789C1.32734 44.8789 0.933594 44.4852 0.933594 44C0.933594 43.5148 1.32734 43.1211 1.8125 43.1211H12.1713C12.6564 43.1211 13.0502 43.5148 13.0502 44C13.0502 44.4852 12.6564 44.8789 12.1713 44.8789H1.8125ZM39.7127 78.2C40.1943 78.258 40.5371 78.6975 40.4791 79.1791C40.4211 79.6607 39.9816 80.0035 39.5 79.9455C23.0908 77.91 10.0918 64.9109 8.05625 48.5018C7.99824 48.0201 8.34102 47.5824 8.82266 47.5227C9.3043 47.4629 9.74199 47.8074 9.80176 48.2891C11.7371 63.8932 24.1104 76.2664 39.7145 78.2018L39.7127 78.2ZM9.8 39.7127C9.74199 40.1943 9.30254 40.5371 8.8209 40.4791C8.33926 40.4211 7.99648 39.9816 8.05449 39.5C10.09 23.0908 23.0891 10.0918 39.4982 8.05625C39.9799 7.99824 40.4176 8.34102 40.4773 8.82266C40.5354 9.3043 40.1926 9.74199 39.7109 9.80176C24.1068 11.7371 11.7336 24.1104 9.79824 39.7145L9.8 39.7127ZM48.2873 9.8C54.292 10.5453 59.8186 12.8357 64.4557 16.26L63.8932 13.7252C59.3686 10.7457 54.1355 8.7541 48.5018 8.05625C48.0201 7.99824 47.5824 8.34102 47.5227 8.82266C47.4646 9.3043 47.8074 9.74199 48.2891 9.80176L48.2873 9.8ZM74.2748 24.1068L71.74 23.5443C75.166 28.1814 77.4564 33.708 78.2 39.7127C78.258 40.1943 78.6975 40.5371 79.1791 40.4791C79.6607 40.4211 80.0035 39.9816 79.9455 39.5C79.2459 33.8662 77.2543 28.6332 74.2766 24.1086L74.2748 24.1068Z" fill="#CFA935"/>
</svg>
