<svg width="71" height="70" viewBox="0 0 71 70" fill="none" xmlns="http://www.w3.org/2000/svg">
<g id="idea 1" clip-path="url(#clip0_21800_30564)">
<path id="Vector" d="M69.3379 5.25391H65.25V1.16602C65.25 0.59959 64.791 0.140625 64.2246 0.140625H26.7192C26.4473 0.140625 26.1866 0.248633 25.9941 0.440859L14.0517 12.3832C13.8595 12.5756 13.7515 12.8363 13.7515 13.1084V63.7285C13.7515 64.2949 14.2104 64.7539 14.7769 64.7539H18.8647V68.8418C18.8647 69.4082 19.3237 69.8672 19.8901 69.8672H69.3379C69.9043 69.8672 70.3633 69.4082 70.3633 68.8418V6.2793C70.3633 5.71301 69.9043 5.25391 69.3379 5.25391ZM25.6938 3.64145V12.083H17.2524L25.6938 3.64145ZM15.8024 14.1338H26.7194C27.2858 14.1338 27.7448 13.6748 27.7448 13.1084V2.19141H63.1992V62.7031H15.8024V14.1338ZM68.3125 67.8164H20.9157V64.7539H64.2246C64.791 64.7539 65.25 64.2949 65.25 63.7285V7.30469H68.3125V67.8164ZM6.31068 14.4778C4.80021 14.4778 3.37684 15.0694 2.30264 16.1437C1.22816 17.2179 0.636582 18.6413 0.636719 20.1517V55.5629C0.636719 55.7614 0.694414 55.9556 0.802695 56.122L5.45113 63.2671C5.64035 63.5579 5.96383 63.7333 6.31068 63.7333C6.65754 63.7333 6.98088 63.5579 7.1701 63.2671L11.8188 56.122C11.9271 55.9556 11.9848 55.7614 11.9848 55.5629L11.9846 20.1517C11.9846 17.0231 9.43936 14.4778 6.31068 14.4778ZM3.75268 17.5937C4.43955 16.9069 5.34805 16.5286 6.31068 16.5286C8.30842 16.5286 9.93387 18.154 9.93387 20.1517V21.5248H2.6875V20.1517C2.6875 19.1891 3.0658 18.2807 3.75268 17.5937ZM2.6875 54.5375V23.5756H5.28543V54.5375H2.6875ZM7.33621 23.5756H9.93387L9.934 54.5375H7.33621V23.5756ZM6.31068 60.8276L3.55252 56.5882H9.06885L6.31068 60.8276ZM25.8846 25.8008C25.6947 26.1298 25.35 26.3137 24.9956 26.3137C24.8217 26.3137 24.6454 26.2694 24.4839 26.1761L21.4085 24.4005C20.9181 24.1174 20.7501 23.4903 21.0332 22.9999C21.3163 22.5092 21.9437 22.3416 22.4339 22.6246L25.5093 24.4001C25.9997 24.6833 26.1677 25.3104 25.8846 25.8008ZM22.7529 34.6874H19.2016C18.6352 34.6874 18.1762 34.2284 18.1762 33.662C18.1762 33.0956 18.6352 32.6366 19.2016 32.6366H22.7529C23.3193 32.6366 23.7783 33.0956 23.7783 33.662C23.7783 34.2284 23.3192 34.6874 22.7529 34.6874ZM25.8846 41.5233C26.1677 42.0137 25.9997 42.6409 25.5093 42.924L22.4339 44.6996C22.2725 44.7928 22.0961 44.8371 21.9222 44.8371C21.5678 44.8371 21.2233 44.6532 21.0332 44.3243C20.7501 43.8339 20.9181 43.2068 21.4085 42.9236L24.4839 41.148C24.9742 40.865 25.6013 41.0328 25.8846 41.5233ZM53.1168 25.8008C52.8336 25.3104 53.0016 24.6833 53.4921 24.4001L56.5674 22.6246C57.0577 22.3417 57.6848 22.5093 57.9681 22.9999C58.2512 23.4903 58.0832 24.1174 57.5928 24.4005L54.5176 26.1761C54.3561 26.2694 54.1797 26.3137 54.0058 26.3137C53.6515 26.3137 53.3068 26.1298 53.1168 25.8008ZM46.9867 18.6452L48.7623 15.5697C49.0453 15.0792 49.6723 14.9114 50.1629 15.1945C50.6534 15.4776 50.8214 16.1047 50.5382 16.5951L48.7627 19.6706C48.5728 19.9996 48.2281 20.1835 47.8737 20.1835C47.6998 20.1835 47.5235 20.1392 47.362 20.0459C46.8716 19.7626 46.7034 19.1356 46.9867 18.6452ZM38.4753 16.9141V13.3628C38.4753 12.7964 38.9342 12.3374 39.5007 12.3374C40.0671 12.3374 40.5261 12.7964 40.5261 13.3628V16.9141C40.5261 17.4805 40.0671 17.9395 39.5007 17.9395C38.9342 17.9395 38.4753 17.4804 38.4753 16.9141ZM28.4631 16.5951C28.1799 16.1047 28.348 15.4776 28.8384 15.1945C29.3285 14.9116 29.9558 15.0792 30.2391 15.5697L32.0146 18.6451C32.2978 19.1355 32.1297 19.7626 31.6393 20.0458C31.4779 20.139 31.3015 20.1833 31.1276 20.1833C30.7732 20.1833 30.4287 19.9994 30.2387 19.6705L28.4631 16.5951ZM60.8251 33.662C60.8251 34.2284 60.3661 34.6874 59.7997 34.6874H56.2484C55.682 34.6874 55.223 34.2284 55.223 33.662C55.223 33.0956 55.682 32.6366 56.2484 32.6366H59.7997C60.3661 32.6366 60.8251 33.0956 60.8251 33.662ZM57.9682 44.3242C57.7783 44.6531 57.4337 44.837 57.0793 44.837C56.9054 44.837 56.729 44.7927 56.5675 44.6995L53.4922 42.9239C53.0018 42.6407 52.8338 42.0136 53.1169 41.5232C53.3998 41.0327 54.0272 40.8648 54.5176 41.1479L57.5929 42.9235C58.0833 43.2066 58.2514 43.8337 57.9682 44.3242ZM52.3412 33.114C52.3412 29.8469 51.001 26.7708 48.5679 24.453C46.1538 22.1533 42.938 20.8636 39.5131 20.8215C39.5048 20.8213 39.4963 20.8213 39.4879 20.8215C36.0631 20.8636 32.8475 22.1532 30.4333 24.453C28.0002 26.771 26.6602 29.8467 26.6602 33.114C26.6602 36.7998 28.1812 40.5223 31.0587 43.8787C31.3829 44.2568 31.7011 44.8325 31.9567 45.4896C31.3342 45.9961 30.9354 46.7675 30.9354 47.6306C30.9354 48.2876 31.167 48.891 31.5517 49.3655C31.167 49.8399 30.9354 50.4434 30.9354 51.1005C30.9354 52.5769 32.1014 53.7828 33.5606 53.854C34.2225 56.4753 36.6137 58.3549 39.4654 58.3549C42.3089 58.3549 44.7066 56.4729 45.3704 53.8537C46.8277 53.7806 47.9917 52.5754 47.9917 51.1004C47.9917 50.4433 47.7601 49.8399 47.3754 49.3654C47.7601 48.8908 47.9917 48.2874 47.9917 47.6304C47.9917 46.7934 47.6159 46.0438 47.0258 45.5371C47.2843 44.8604 47.6101 44.2656 47.9422 43.8783C50.8202 40.5219 52.3412 36.7996 52.3412 33.114ZM28.7112 33.114C28.7112 27.544 33.5505 22.9521 39.5007 22.8724C45.4511 22.9521 50.2904 27.544 50.2904 33.114C50.2904 36.3031 48.9401 39.564 46.3855 42.5441C45.8906 43.1214 45.4337 43.9449 45.0863 44.8703H42.099L45.1634 32.1428C45.2709 31.696 45.0683 31.2324 44.6671 31.0079C44.2667 30.7835 43.7651 30.8533 43.4404 31.1785L39.5007 35.1287L35.5608 31.1785C35.2368 30.8538 34.7366 30.7835 34.3363 31.0067C33.9354 31.2296 33.7315 31.6916 33.8368 32.1379L36.8377 44.8702H33.9152C33.5678 43.9446 33.1108 43.1212 32.6159 42.5438C30.0615 39.5642 28.7112 36.3034 28.7112 33.114ZM45.2318 48.3403H33.6963C33.3115 48.3403 32.9866 48.0153 32.9866 47.6307C32.9866 47.2394 33.305 46.9211 33.6963 46.9211H45.2318C45.6231 46.9211 45.9413 47.2394 45.9413 47.6307C45.9413 48.022 45.6231 48.3403 45.2318 48.3403ZM38.9445 44.8702L36.6624 35.1868L38.7747 37.3047C38.9671 37.4975 39.2283 37.6059 39.5008 37.6059C39.7733 37.6059 40.0344 37.4975 40.2269 37.3047L42.3154 35.2106L39.9896 44.8702H38.9445ZM39.4658 56.3043C37.7982 56.3043 36.3304 55.2937 35.7252 53.861H43.2134C42.6166 55.3084 41.161 56.3043 39.4658 56.3043ZM45.2318 51.8102H33.6963C33.305 51.8102 32.9866 51.4919 32.9866 51.1006C32.9866 50.7095 33.305 50.3912 33.6963 50.3912H45.2318C45.6231 50.3912 45.9413 50.7095 45.9413 51.1006C45.9413 51.4919 45.6231 51.8102 45.2318 51.8102Z" fill="#CFA935" stroke="#CFA935" stroke-width="0.3"/>
</g>
<defs>
<clipPath id="clip0_21800_30564">
<rect width="70" height="70" fill="white" transform="translate(0.5)"/>
</clipPath>
</defs>
</svg>
