<svg width="123" height="50" viewBox="0 0 123 50" fill="none" xmlns="http://www.w3.org/2000/svg">
<g clip-path="url(#clip0_7809_4102)">
<path d="M30.1203 31.0805V17.6847C28.91 16.4224 28.1212 14.3968 28.1212 12.123V6.99653C28.1212 3.19274 25.0082 0.0820313 21.2044 0.0820313H6.91622C3.11249 0.0820312 0 3.19274 0 6.99653V31.0805C0 34.8832 3.11249 37.9949 6.91622 37.9949H31.0114C32.0898 37.9949 33.1123 37.7446 34.0245 37.2998C31.7189 36.175 30.1203 33.8049 30.1203 31.0805Z" fill="#E95328"/>
<path d="M60.2374 31.0168V17.6795C59.0289 16.4172 58.2416 14.3934 58.2416 12.1216V6.99471C58.2416 3.19132 55.1287 0.0800781 51.3243 0.0800781H37.0367C33.2329 0.0800781 30.1204 3.19132 30.1204 6.99471V17.6833C30.9348 18.5326 31.94 19.0366 33.0249 19.0366C35.7219 19.0366 37.9292 22.1478 37.9292 25.9511V31.079C37.9292 33.8041 36.3305 36.1736 34.0245 37.2984C34.9364 37.7432 35.9587 37.9935 37.0367 37.9935H61.1317C62.2348 37.9935 63.2789 37.7305 64.2065 37.2663C61.8661 36.155 60.2374 33.7675 60.2374 31.0168Z" fill="#7FBB42"/>
<path d="M63.1453 19.0363C62.0587 19.0363 61.0524 18.5311 60.2373 17.6797V31.0171C60.2373 33.7679 61.8661 36.1553 64.2064 37.2666C66.4786 36.1298 68.0485 33.7792 68.0485 31.0791V25.9512C68.0485 22.148 65.8417 19.0363 63.1453 19.0363Z" fill="#0079A4"/>
<path d="M83.445 31.2903L95.3611 9.57707C93.0905 3.9786 87.6177 0.0195312 81.2064 0.0195312C80.3394 0.0195312 67.154 0.0195312 67.154 0.0195312C63.3498 0.0195312 60.2373 3.13078 60.2373 6.93365V17.6808C61.0524 18.5322 62.0587 19.0374 63.1453 19.0374C65.8417 19.0374 68.0485 22.1492 68.0485 25.9524V31.0804C68.0485 33.7802 66.4786 36.1308 64.2064 37.2676C65.1018 37.693 66.1011 37.9321 67.154 37.9321H80.629C81.8577 37.9321 83.0134 37.606 84.0164 37.0383C82.4339 35.8628 82.1098 33.7226 83.445 31.2903Z" fill="#32A0DA"/>
<path d="M122.162 31.2939L106.464 2.76264C104.436 -0.92226 101.122 -0.920809 99.0985 2.76657L95.3613 9.57623C96.0843 11.3587 96.4857 13.3058 96.4857 15.3462C96.4857 21.5211 92.8562 26.8283 87.5459 29.2659V31.0172C87.5459 33.592 86.1185 35.8478 84.0166 37.0374C84.833 37.6438 85.9839 37.994 87.4158 37.994H118.199C122.407 37.994 124.191 34.9789 122.162 31.2939Z" fill="#FDB717"/>
<path d="M37.9292 25.9515C37.9292 22.1481 35.7219 19.0369 33.0249 19.0369C31.94 19.0369 30.9348 18.5329 30.1204 17.6836V31.0795C30.1204 33.804 31.7189 36.1738 34.0245 37.2985C36.3305 36.174 37.9292 33.8042 37.9292 31.0795V25.9515Z" fill="#74401A"/>
<path d="M87.5459 29.2657C92.8561 26.8281 96.4856 21.521 96.4856 15.3461C96.4856 13.3057 96.0843 11.3587 95.3612 9.57617L83.4451 31.2892C82.1099 33.7218 82.434 35.8618 84.0165 37.0372C86.1184 35.8476 87.5459 33.5918 87.5459 31.017L87.5459 29.2657Z" fill="#347439"/>
<path d="M0.466309 42.9246C0.495353 42.9202 0.533057 42.9162 0.579723 42.9136C0.625823 42.9115 0.673277 42.9102 0.722042 42.9102C0.766043 42.9102 0.809807 42.9115 0.853841 42.9136C0.897604 42.9162 0.936628 42.9202 0.970674 42.9246V47.7205H3.21581C3.22079 47.7491 3.22448 47.7872 3.22712 47.8334C3.22935 47.8802 3.23067 47.9201 3.23067 47.9543C3.23067 47.9935 3.22935 48.0334 3.22712 48.0746C3.22448 48.1159 3.2208 48.1513 3.21581 48.1808H0.466309V42.9246Z" fill="white"/>
<path d="M4.31252 46.3901C4.31252 46.8874 4.42712 47.2526 4.65643 47.487C4.88536 47.721 5.22902 47.8374 5.6874 47.8374C5.87271 47.8374 6.04472 47.8219 6.20295 47.7902C6.36144 47.7581 6.51612 47.7158 6.66738 47.6619C6.69154 47.7158 6.71127 47.782 6.726 47.8595C6.74046 47.9375 6.7503 48.0085 6.75518 48.0718C6.61364 48.1348 6.44806 48.184 6.25802 48.2179C6.06774 48.252 5.8606 48.2691 5.63628 48.2691C5.31444 48.2691 5.03782 48.2213 4.80613 48.1265C4.57443 48.0313 4.38455 47.8984 4.23577 47.7282C4.08715 47.5579 3.97742 47.354 3.90658 47.1178C3.83588 46.8814 3.80078 46.6218 3.80078 46.3391C3.80078 46.0661 3.83351 45.8108 3.89948 45.5717C3.96531 45.3326 4.06519 45.1229 4.19911 44.943C4.33304 44.763 4.50505 44.6214 4.71465 44.5194C4.92439 44.4165 5.17567 44.3652 5.46819 44.3652C5.71185 44.3652 5.92883 44.4067 6.11911 44.4898C6.30912 44.5731 6.46854 44.6884 6.59799 44.8368C6.72691 44.9855 6.82469 45.1637 6.89052 45.3707C6.95635 45.5775 6.98907 45.8026 6.98907 46.047C6.98907 46.0903 6.98775 46.1465 6.98538 46.2146C6.98291 46.2834 6.97922 46.3417 6.97462 46.3901H4.31252ZM6.50651 45.9881C6.50651 45.8373 6.48681 45.6888 6.44805 45.5422C6.409 45.3962 6.34791 45.2685 6.26512 45.1584C6.18231 45.0488 6.07508 44.96 5.94352 44.892C5.81186 44.8237 5.65323 44.7898 5.46819 44.7898C5.12679 44.7898 4.8612 44.8946 4.67089 45.1043C4.48088 45.3137 4.36628 45.6082 4.32725 45.9881H6.50651Z" fill="white"/>
<path d="M10.1046 45.7178C10.1046 45.3962 10.029 45.161 9.87789 45.0124C9.72663 44.8639 9.50257 44.7898 9.20504 44.7898C9.01029 44.7898 8.83196 44.8027 8.67109 44.8298C8.51038 44.8565 8.36647 44.8894 8.23965 44.9285C8.21522 44.8847 8.19457 44.8211 8.17748 44.738C8.16042 44.6556 8.152 44.5775 8.152 44.5042C8.27868 44.4656 8.43467 44.4328 8.61998 44.406C8.80515 44.3791 8.99556 44.3652 9.19031 44.3652C9.66341 44.3652 10.0142 44.4688 10.2435 44.6763C10.4728 44.8833 10.5872 45.2088 10.5872 45.6523V48.1157C10.4164 48.1498 10.2094 48.184 9.96568 48.2179C9.72162 48.252 9.49048 48.2691 9.271 48.2691C8.81763 48.2691 8.46029 48.1787 8.19944 47.9985C7.9387 47.8185 7.80835 47.5258 7.80835 47.121C7.80835 46.9266 7.84592 46.7524 7.92163 46.5984C7.99745 46.4452 8.10193 46.316 8.23623 46.2114C8.37016 46.1066 8.531 46.0275 8.71867 45.9736C8.90632 45.9201 9.1124 45.8933 9.33686 45.8933C9.51242 45.8933 9.66341 45.8995 9.79009 45.9114C9.91691 45.924 10.0217 45.9342 10.1046 45.9442V45.7178ZM10.1046 46.3686C10.0217 46.3588 9.91823 46.3475 9.79365 46.3352C9.66947 46.3234 9.55132 46.3176 9.43895 46.3176C9.07335 46.3176 8.7907 46.3856 8.59094 46.5217C8.39078 46.6586 8.2909 46.8533 8.2909 47.1065C8.2909 47.2679 8.3214 47.3968 8.38225 47.4943C8.44321 47.5918 8.52247 47.6659 8.61999 47.7171C8.71776 47.7681 8.82472 47.802 8.94183 47.8193C9.05866 47.8369 9.17587 47.8453 9.29284 47.8453C9.44397 47.8453 9.58537 47.8375 9.71717 47.8233C9.84872 47.8088 9.97791 47.7891 10.1046 47.7647L10.1046 46.3686Z" fill="white"/>
<path d="M14.3098 42.8074C14.3389 42.8027 14.3806 42.7998 14.4343 42.7972C14.4877 42.7943 14.5266 42.793 14.5513 42.793C14.5803 42.793 14.6207 42.7943 14.6718 42.7972C14.7232 42.7998 14.7631 42.8027 14.7927 42.8074V48.093C14.6414 48.1421 14.4535 48.1834 14.2296 48.2173C14.0052 48.2514 13.7709 48.2685 13.5271 48.2685C13.2593 48.2685 13.008 48.2364 12.7741 48.1734C12.5399 48.1098 12.3378 48.0052 12.1671 47.8589C11.9965 47.7131 11.8612 47.5205 11.7613 47.2814C11.6614 47.0423 11.6113 46.7478 11.6113 46.3968C11.6113 46.0752 11.6551 45.7891 11.743 45.5382C11.8308 45.2873 11.955 45.0753 12.116 44.9021C12.277 44.7293 12.4705 44.5966 12.6972 44.5036C12.9242 44.4114 13.1738 44.3646 13.447 44.3646C13.6078 44.3646 13.7674 44.3785 13.9259 44.4053C14.0845 44.4321 14.2122 44.4623 14.3098 44.4962V42.8074ZM14.3098 44.9494C14.2122 44.9108 14.088 44.8753 13.937 44.8433C13.7856 44.812 13.6298 44.7966 13.4689 44.7966C13.2396 44.7966 13.0411 44.8349 12.8727 44.9129C12.7047 44.991 12.5645 45.0995 12.4525 45.2384C12.3401 45.3772 12.2559 45.5443 12.1998 45.7392C12.144 45.9336 12.116 46.1486 12.116 46.3824C12.116 46.8895 12.2366 47.2586 12.478 47.4898C12.7191 47.7218 13.0616 47.8368 13.5053 47.8368C13.6664 47.8368 13.8197 47.8282 13.9662 47.8114C14.1122 47.7943 14.2269 47.774 14.3098 47.7491V44.9494Z" fill="white"/>
<path d="M16.3063 44.862H15.8382C15.8332 44.8376 15.8298 44.8081 15.8272 44.774C15.8248 44.7401 15.8235 44.7033 15.8235 44.6647C15.8235 44.6253 15.8248 44.5869 15.8272 44.5475C15.8298 44.5089 15.8332 44.4768 15.8382 44.4524H16.7889V48.1808C16.7596 48.1853 16.7194 48.1892 16.6684 48.1918C16.6173 48.1939 16.5769 48.1952 16.5475 48.1952C16.5232 48.1952 16.4841 48.1939 16.4305 48.1918C16.3768 48.1892 16.3355 48.1853 16.3063 48.1808V44.862ZM16.0649 43.5389C16.0599 43.495 16.0564 43.4414 16.0539 43.3778C16.0515 43.315 16.0502 43.2612 16.0502 43.2173C16.0502 43.1781 16.0515 43.1296 16.0539 43.0707C16.0564 43.0124 16.0599 42.964 16.0649 42.9246C16.1088 42.9202 16.1626 42.9162 16.2258 42.9136C16.289 42.9115 16.3427 42.9102 16.3866 42.9102C16.4255 42.9102 16.4744 42.9115 16.533 42.9136C16.5913 42.9162 16.6401 42.9202 16.679 42.9246C16.684 42.964 16.6877 43.0124 16.6903 43.0707C16.6924 43.1296 16.6937 43.1781 16.6937 43.2173C16.6937 43.2612 16.6924 43.315 16.6903 43.3778C16.6877 43.4414 16.684 43.495 16.679 43.5389C16.6401 43.5436 16.5913 43.5476 16.533 43.5494C16.4744 43.552 16.4255 43.5533 16.3866 43.5533C16.3427 43.5533 16.289 43.552 16.2258 43.5494C16.1626 43.5476 16.1088 43.5436 16.0649 43.5389Z" fill="white"/>
<path d="M18.0757 44.453C18.1147 44.4485 18.1524 44.4446 18.189 44.4419C18.2254 44.4401 18.2607 44.4388 18.2948 44.4388C18.3338 44.4388 18.3706 44.4401 18.4046 44.4419C18.4386 44.4446 18.4753 44.4485 18.5144 44.453C18.5241 44.541 18.5314 44.6503 18.5362 44.7819C18.5412 44.9136 18.5435 45.0281 18.5435 45.1256C18.5923 45.0378 18.6558 44.9487 18.7338 44.8592C18.8118 44.7688 18.9031 44.6871 19.008 44.6143C19.1128 44.541 19.2333 44.4814 19.37 44.4349C19.5066 44.3889 19.6552 44.3652 19.816 44.3652C20.2452 44.3652 20.5571 44.4929 20.7524 44.7491C20.9471 45.005 21.0449 45.3646 21.0449 45.8278V48.1814C21.0152 48.1858 20.9754 48.1898 20.924 48.1924C20.8728 48.1945 20.8325 48.1958 20.8034 48.1958C20.7788 48.1958 20.7397 48.1945 20.6864 48.1924C20.6327 48.1898 20.5911 48.1858 20.562 48.1814V45.9737C20.562 45.5591 20.4974 45.2619 20.3684 45.0817C20.2389 44.9015 20.0451 44.8114 19.787 44.8114C19.6161 44.8114 19.4552 44.8453 19.3042 44.9136C19.153 44.9821 19.0227 45.0804 18.9129 45.2097C18.8032 45.3392 18.7167 45.4984 18.6531 45.6889C18.5899 45.8788 18.5583 46.0956 18.5583 46.3391V48.1814C18.5291 48.1858 18.4887 48.1898 18.4376 48.1924C18.3862 48.1945 18.3463 48.1958 18.3168 48.1958C18.2925 48.1958 18.2536 48.1945 18.1999 48.1924C18.1461 48.1898 18.1049 48.1858 18.0757 48.1814L18.0757 44.453Z" fill="white"/>
<path d="M24.182 47.8088C24.6112 47.8185 24.9173 47.9068 25.1 48.0752C25.2828 48.2433 25.3741 48.4662 25.3741 48.7446C25.3741 48.9343 25.3253 49.1059 25.228 49.2593C25.1304 49.413 24.9938 49.5446 24.8182 49.654C24.6429 49.764 24.4343 49.8494 24.1933 49.9101C23.9519 49.9711 23.6897 50.0013 23.4071 50.0013C23.1876 50.0013 22.9865 49.9842 22.8036 49.9503C22.6209 49.9162 22.4623 49.861 22.3284 49.7858C22.1941 49.7104 22.0906 49.6103 22.0176 49.4863C21.9444 49.3621 21.9077 49.2094 21.9077 49.0292C21.9077 48.844 21.9615 48.6658 22.0686 48.4956C22.1758 48.3248 22.315 48.1984 22.4857 48.1157C22.3929 48.0568 22.315 47.983 22.2514 47.8926C22.1882 47.802 22.1565 47.6914 22.1565 47.5597C22.1565 47.37 22.2016 47.2114 22.2917 47.085C22.3819 46.9581 22.5026 46.8433 22.6536 46.7413C22.4831 46.6339 22.3468 46.4904 22.2443 46.3097C22.1416 46.1297 22.0906 45.9153 22.0906 45.6665C22.0906 45.4863 22.121 45.3168 22.1818 45.1584C22.243 45.0008 22.3343 44.8626 22.4563 44.7459C22.5779 44.6285 22.728 44.5363 22.9058 44.4674C23.084 44.3994 23.2898 44.3652 23.524 44.3652C23.7239 44.3652 23.9017 44.3907 24.058 44.4419C24.2138 44.4929 24.3504 44.5604 24.4674 44.6429C24.5159 44.624 24.5771 44.6017 24.6502 44.5775C24.7233 44.5533 24.8039 44.5323 24.8917 44.5155C24.9795 44.4982 25.0695 44.484 25.1621 44.4714C25.2546 44.459 25.3451 44.453 25.4329 44.453C25.452 44.5263 25.4619 44.6064 25.4619 44.6941C25.4619 44.7872 25.452 44.8694 25.4329 44.943H24.738C24.8061 45.0504 24.8586 45.1637 24.8952 45.2827C24.9316 45.4019 24.95 45.5304 24.95 45.6665C24.95 45.8762 24.9136 46.0617 24.8402 46.2219C24.7671 46.383 24.6659 46.5185 24.537 46.6278C24.4074 46.7374 24.2565 46.822 24.0835 46.88C23.9102 46.9384 23.7239 46.9678 23.524 46.9678C23.3144 46.9678 23.1316 46.941 22.9754 46.8874C22.8391 46.9749 22.7427 47.0595 22.6868 47.1394C22.6304 47.22 22.6025 47.3115 22.6025 47.4137C22.6025 47.4623 22.6099 47.5088 22.6246 47.5524C22.6393 47.5965 22.6694 47.6365 22.7158 47.6732C22.7622 47.7098 22.8266 47.7392 22.9098 47.7607C22.9923 47.7833 23.0998 47.7936 23.2315 47.7936L24.182 47.8088ZM23.1438 48.2468C22.9144 48.242 22.7306 48.3072 22.5915 48.4407C22.4526 48.5749 22.3832 48.7517 22.3832 48.9711C22.3832 49.0878 22.41 49.1852 22.4636 49.2633C22.5171 49.341 22.5915 49.402 22.6867 49.4459C22.7818 49.4897 22.8924 49.5197 23.0192 49.5376C23.1459 49.5546 23.28 49.563 23.4214 49.563C23.8749 49.563 24.2284 49.4863 24.4819 49.3326C24.7354 49.1792 24.8622 48.9955 24.8622 48.7806C24.8622 48.5951 24.7989 48.4643 24.6722 48.3863C24.5454 48.3074 24.338 48.2665 24.0505 48.262L23.1438 48.2468ZM22.6025 45.6665C22.6025 45.9201 22.6769 46.1336 22.8256 46.3065C22.9743 46.4794 23.2069 46.5656 23.524 46.5656C23.8407 46.5656 24.0749 46.4794 24.226 46.3065C24.377 46.1336 24.4527 45.9201 24.4527 45.6665C24.4527 45.4133 24.377 45.2004 24.226 45.0268C24.0749 44.8539 23.8407 44.7672 23.524 44.7672C23.2069 44.7672 22.9743 44.8539 22.8256 45.0268C22.6769 45.2004 22.6025 45.4133 22.6025 45.6665Z" fill="white"/>
<path d="M28.1021 42.9246C28.1314 42.9202 28.1691 42.9162 28.2155 42.9136C28.2616 42.9115 28.3092 42.9102 28.3581 42.9102C28.4018 42.9102 28.4457 42.9115 28.4896 42.9136C28.5335 42.9162 28.5725 42.9202 28.6065 42.9246V47.7205H30.8518C30.8567 47.7491 30.8602 47.7872 30.8629 47.8334C30.8652 47.8802 30.8665 47.9201 30.8665 47.9543C30.8665 47.9935 30.8652 48.0334 30.8629 48.0746C30.8602 48.1159 30.8567 48.1513 30.8518 48.1808H28.1021V42.9246Z" fill="white"/>
<path d="M31.9483 46.3901C31.9483 46.8874 32.0629 47.2526 32.2923 47.487C32.5213 47.721 32.8648 47.8374 33.3231 47.8374C33.5085 47.8374 33.6804 47.8219 33.8387 47.7902C33.9973 47.7581 34.1519 47.7158 34.3032 47.6619C34.3275 47.7158 34.3472 47.782 34.3619 47.8595C34.3763 47.9375 34.386 48.0085 34.391 48.0718C34.2495 48.1348 34.0837 48.184 33.8937 48.2179C33.7034 48.252 33.4964 48.2691 33.272 48.2691C32.9504 48.2691 32.6737 48.2213 32.442 48.1265C32.2104 48.0313 32.0204 47.8984 31.8716 47.7282C31.723 47.5579 31.6131 47.354 31.5425 47.1178C31.4717 46.8814 31.4368 46.6218 31.4368 46.3391C31.4368 46.0661 31.4695 45.8108 31.5353 45.5717C31.601 45.3326 31.701 45.1229 31.8351 44.943C31.969 44.763 32.141 44.6214 32.3506 44.5194C32.5602 44.4165 32.8115 44.3652 33.104 44.3652C33.3478 44.3652 33.5645 44.4067 33.7548 44.4898C33.9448 44.5731 34.1044 44.6884 34.2337 44.8368C34.3629 44.9855 34.4605 45.1637 34.5262 45.3707C34.5921 45.5775 34.6248 45.8026 34.6248 46.047C34.6248 46.0903 34.6236 46.1465 34.6214 46.2146C34.6187 46.2834 34.6151 46.3417 34.6104 46.3901H31.9483ZM34.1425 45.9881C34.1425 45.8373 34.1228 45.6888 34.0837 45.5422C34.0447 45.3962 33.9839 45.2685 33.9011 45.1584C33.818 45.0488 33.7111 44.96 33.5792 44.892C33.4477 44.8237 33.2891 44.7898 33.104 44.7898C32.7627 44.7898 32.497 44.8946 32.3067 45.1043C32.1167 45.3137 32.0021 45.6082 31.9631 45.9881H34.1425Z" fill="white"/>
<path d="M37.7403 45.7178C37.7403 45.3962 37.6647 45.161 37.5137 45.0124C37.3623 44.8639 37.1382 44.7898 36.8409 44.7898C36.6459 44.7898 36.4677 44.8027 36.307 44.8298C36.146 44.8565 36.0022 44.8894 35.8755 44.9285C35.8508 44.8847 35.8302 44.8211 35.8133 44.738C35.7962 44.6556 35.7878 44.5775 35.7878 44.5042C35.9146 44.4656 36.0703 44.4328 36.2559 44.406C36.4409 44.3791 36.6312 44.3652 36.8262 44.3652C37.299 44.3652 37.6499 44.4688 37.8791 44.6763C38.1086 44.8833 38.2228 45.2088 38.2228 45.6523V48.1157C38.0522 48.1498 37.8451 48.184 37.6016 48.2179C37.3574 48.252 37.1261 48.2691 36.9066 48.2691C36.4532 48.2691 36.0959 48.1787 35.8352 47.9985C35.5745 47.8185 35.4441 47.5258 35.4441 47.121C35.4441 46.9266 35.4818 46.7524 35.5574 46.5984C35.6331 46.4452 35.7375 46.316 35.8719 46.2114C36.0058 46.1066 36.1668 46.0275 36.3544 45.9736C36.5421 45.9201 36.7481 45.8933 36.9725 45.8933C37.1482 45.8933 37.2991 45.8995 37.4259 45.9114C37.5526 45.924 37.6574 45.9342 37.7403 45.9442L37.7403 45.7178ZM37.7403 46.3686C37.6574 46.3588 37.5539 46.3475 37.4296 46.3352C37.3053 46.3234 37.1871 46.3176 37.0747 46.3176C36.7091 46.3176 36.4264 46.3856 36.2265 46.5217C36.0265 46.6586 35.9267 46.8533 35.9267 47.1065C35.9267 47.2679 35.957 47.3968 36.018 47.4943C36.079 47.5918 36.1581 47.6659 36.2558 47.7171C36.3533 47.7681 36.4606 47.802 36.5774 47.8193C36.6944 47.8369 36.8116 47.8453 36.9287 47.8453C37.0797 47.8453 37.2212 47.8375 37.3528 47.8233C37.4845 47.8088 37.6136 47.7891 37.7403 47.7647L37.7403 46.3686Z" fill="white"/>
<path d="M39.437 44.4517C39.476 44.4472 39.5136 44.4433 39.5503 44.4406C39.5867 44.4388 39.6221 44.4375 39.6562 44.4375C39.6951 44.4375 39.7319 44.4388 39.7659 44.4406C39.8 44.4433 39.8366 44.4472 39.8756 44.4517C39.8855 44.5397 39.8926 44.643 39.8976 44.762C39.9025 44.882 39.9048 44.9903 39.9048 45.0878C40.0024 44.9075 40.139 44.7551 40.3146 44.6311C40.4899 44.5069 40.7213 44.4446 41.0094 44.4446C41.0336 44.4446 41.0592 44.4446 41.086 44.4446C41.113 44.4446 41.1433 44.4472 41.1775 44.4517C41.1922 44.535 41.1994 44.613 41.1994 44.6858C41.1994 44.7633 41.1922 44.8395 41.1775 44.9123C41.1384 44.9075 41.108 44.9049 41.086 44.9049C41.0641 44.9049 41.0408 44.9049 41.0165 44.9049C40.6851 44.9049 40.4195 45.0097 40.2192 45.2194C40.0194 45.4288 39.9196 45.7771 39.9196 46.2645V48.1801C39.8904 48.1845 39.85 48.1885 39.7991 48.1911C39.7476 48.1932 39.7076 48.1945 39.6782 48.1945C39.6538 48.1945 39.6149 48.1932 39.5612 48.1911C39.5075 48.1885 39.4662 48.1845 39.437 48.1801L39.437 44.4517Z" fill="white"/>
<path d="M41.9966 44.453C42.0356 44.4485 42.0733 44.4446 42.11 44.4419C42.1464 44.4401 42.1816 44.4388 42.2158 44.4388C42.2547 44.4388 42.2915 44.4401 42.3255 44.4419C42.3596 44.4446 42.3962 44.4485 42.4353 44.453C42.4451 44.541 42.4523 44.6503 42.4572 44.7819C42.4621 44.9136 42.4644 45.0281 42.4644 45.1256C42.5132 45.0378 42.5767 44.9487 42.6547 44.8592C42.7327 44.7688 42.8241 44.6871 42.9289 44.6143C43.0337 44.541 43.1542 44.4814 43.2909 44.4349C43.4274 44.3889 43.5761 44.3652 43.7371 44.3652C44.1662 44.3652 44.478 44.4929 44.6733 44.7491C44.868 45.005 44.9658 45.3646 44.9658 45.8278V48.1814C44.9363 48.1858 44.8963 48.1898 44.8449 48.1924C44.7938 48.1945 44.7534 48.1958 44.7244 48.1958C44.6997 48.1958 44.6607 48.1945 44.6073 48.1924C44.5537 48.1898 44.512 48.1858 44.483 48.1814V45.9737C44.483 45.5591 44.4183 45.2619 44.2893 45.0817C44.16 44.9015 43.966 44.8114 43.7079 44.8114C43.5372 44.8114 43.3761 44.8453 43.2251 44.9136C43.0741 44.9821 42.9436 45.0804 42.834 45.2097C42.7242 45.3392 42.6378 45.4984 42.5742 45.6889C42.511 45.8788 42.4792 46.0956 42.4792 46.3391V48.1814C42.45 48.1858 42.4096 48.1898 42.3586 48.1924C42.3071 48.1945 42.2672 48.1958 42.2377 48.1958C42.2136 48.1958 42.1745 48.1945 42.1208 48.1924C42.067 48.1898 42.0258 48.1858 41.9966 48.1814L41.9966 44.453Z" fill="white"/>
<path d="M46.4064 44.862H45.9383C45.9333 44.8376 45.9298 44.8081 45.9271 44.774C45.9249 44.7401 45.9236 44.7033 45.9236 44.6647C45.9236 44.6253 45.9249 44.5869 45.9271 44.5475C45.9298 44.5089 45.9333 44.4768 45.9383 44.4524H46.889V48.1808C46.8598 48.1853 46.8195 48.1892 46.7683 48.1918C46.7172 48.1939 46.6769 48.1952 46.6474 48.1952C46.6232 48.1952 46.5844 48.1939 46.5306 48.1918C46.4769 48.1892 46.4355 48.1853 46.4064 48.1808L46.4064 44.862ZM46.165 43.5389C46.16 43.495 46.1565 43.4414 46.1538 43.3778C46.1516 43.315 46.1503 43.2612 46.1503 43.2173C46.1503 43.1781 46.1516 43.1296 46.1538 43.0707C46.1565 43.0124 46.16 42.964 46.165 42.9246C46.2088 42.9202 46.2625 42.9162 46.3259 42.9136C46.3891 42.9115 46.4428 42.9102 46.4866 42.9102C46.5256 42.9102 46.5744 42.9115 46.6331 42.9136C46.6913 42.9162 46.7402 42.9202 46.7791 42.9246C46.7841 42.964 46.7877 43.0124 46.7904 43.0707C46.7926 43.1296 46.7938 43.1781 46.7938 43.2173C46.7938 43.2612 46.7926 43.315 46.7904 43.3778C46.7876 43.4414 46.7841 43.495 46.7791 43.5389C46.7402 43.5436 46.6913 43.5476 46.6331 43.5494C46.5744 43.552 46.5256 43.5533 46.4866 43.5533C46.4428 43.5533 46.3891 43.552 46.3259 43.5494C46.2625 43.5476 46.2088 43.5436 46.165 43.5389Z" fill="white"/>
<path d="M48.1758 44.453C48.2148 44.4485 48.2524 44.4446 48.2892 44.4419C48.3254 44.4401 48.3608 44.4388 48.3949 44.4388C48.4339 44.4388 48.4705 44.4401 48.5046 44.4419C48.5387 44.4446 48.5754 44.4485 48.6145 44.453C48.6242 44.541 48.6314 44.6503 48.6363 44.7819C48.6413 44.9136 48.6435 45.0281 48.6435 45.1256C48.6924 45.0378 48.7559 44.9487 48.8339 44.8592C48.9117 44.7688 49.0032 44.6871 49.1081 44.6143C49.2129 44.541 49.3334 44.4814 49.47 44.4349C49.6066 44.3889 49.7553 44.3652 49.9161 44.3652C50.3452 44.3652 50.6571 44.4929 50.8523 44.7491C51.0472 45.005 51.1449 45.3646 51.1449 45.8278V48.1814C51.1153 48.1858 51.0755 48.1898 51.024 48.1924C50.973 48.1945 50.9327 48.1958 50.9035 48.1958C50.8789 48.1958 50.8399 48.1945 50.7864 48.1924C50.7329 48.1898 50.6912 48.1858 50.6621 48.1814V45.9737C50.6621 45.5591 50.5974 45.2619 50.4685 45.0817C50.339 44.9015 50.1452 44.8114 49.887 44.8114C49.7164 44.8114 49.5551 44.8453 49.4041 44.9136C49.2531 44.9821 49.1228 45.0804 49.013 45.2097C48.9033 45.3392 48.8168 45.4984 48.7534 45.6889C48.69 45.8788 48.6582 46.0956 48.6582 46.3391V48.1814C48.6292 48.1858 48.5888 48.1898 48.5377 48.1924C48.4863 48.1945 48.4462 48.1958 48.4168 48.1958C48.3926 48.1958 48.3537 48.1945 48.3 48.1924C48.2462 48.1898 48.2048 48.1858 48.1758 48.1814V44.453Z" fill="white"/>
<path d="M54.282 47.8088C54.7111 47.8185 55.0171 47.9068 55.1999 48.0752C55.3826 48.2433 55.4741 48.4662 55.4741 48.7446C55.4741 48.9343 55.4253 49.1059 55.3281 49.2593C55.2303 49.413 55.0938 49.5446 54.9182 49.654C54.743 49.764 54.5343 49.8494 54.2932 49.9101C54.0517 49.9711 53.7897 50.0013 53.507 50.0013C53.2876 50.0013 53.0865 49.9842 52.9035 49.9503C52.7209 49.9162 52.5622 49.861 52.4284 49.7858C52.2941 49.7104 52.1905 49.6103 52.1174 49.4863C52.0443 49.3621 52.0078 49.2094 52.0078 49.0292C52.0078 48.844 52.0614 48.6658 52.1685 48.4956C52.2756 48.3248 52.4149 48.1984 52.5855 48.1157C52.4929 48.0568 52.4149 47.983 52.3515 47.8926C52.2881 47.802 52.2563 47.6914 52.2563 47.5597C52.2563 47.37 52.3015 47.2114 52.3915 47.085C52.4817 46.9581 52.6026 46.8433 52.7536 46.7413C52.5829 46.6339 52.4466 46.4904 52.3441 46.3097C52.2416 46.1297 52.1905 45.9153 52.1905 45.6665C52.1905 45.4863 52.221 45.3168 52.2819 45.1584C52.3428 45.0008 52.4343 44.8626 52.5561 44.7459C52.678 44.6285 52.828 44.5363 53.0059 44.4674C53.184 44.3994 53.3897 44.3652 53.624 44.3652C53.8237 44.3652 54.0016 44.3907 54.1579 44.4419C54.3139 44.4929 54.4504 44.5604 54.5674 44.6429C54.6158 44.624 54.677 44.6017 54.7501 44.5775C54.8231 44.5533 54.9037 44.5323 54.9915 44.5155C55.0793 44.4982 55.1694 44.484 55.2621 44.4714C55.3545 44.459 55.4449 44.453 55.5328 44.453C55.5521 44.5263 55.5618 44.6064 55.5618 44.6941C55.5618 44.7872 55.5521 44.8694 55.5328 44.943H54.8378C54.906 45.0504 54.9585 45.1637 54.9952 45.2827C55.0315 45.4019 55.0498 45.5304 55.0498 45.6665C55.0498 45.8762 55.0136 46.0617 54.9401 46.2219C54.867 46.383 54.7658 46.5185 54.6368 46.6278C54.5073 46.7374 54.3564 46.822 54.1834 46.88C54.01 46.9384 53.8237 46.9678 53.624 46.9678C53.4144 46.9678 53.2314 46.941 53.0752 46.8874C52.9389 46.9749 52.8427 47.0595 52.7867 47.1394C52.7305 47.22 52.7025 47.3115 52.7025 47.4137C52.7025 47.4623 52.7097 47.5088 52.7244 47.5524C52.7391 47.5965 52.7692 47.6365 52.8159 47.6732C52.862 47.7098 52.9265 47.7392 53.0097 47.7607C53.0923 47.7833 53.1997 47.7936 53.3314 47.7936L54.282 47.8088ZM53.2437 48.2468C53.0143 48.242 52.8306 48.3072 52.6914 48.4407C52.5525 48.5749 52.483 48.7517 52.483 48.9711C52.483 49.0878 52.5098 49.1852 52.5636 49.2633C52.6169 49.341 52.6914 49.402 52.7867 49.4459C52.8817 49.4897 52.9924 49.5197 53.1192 49.5376C53.246 49.5546 53.3799 49.563 53.5215 49.563C53.9747 49.563 54.3282 49.4863 54.5818 49.3326C54.8353 49.1792 54.9621 48.9955 54.9621 48.7806C54.9621 48.5951 54.899 48.4643 54.7722 48.3863C54.6452 48.3074 54.438 48.2665 54.1503 48.262L53.2437 48.2468ZM52.7025 45.6665C52.7025 45.9201 52.7769 46.1336 52.9255 46.3065C53.0744 46.4794 53.3069 46.5656 53.624 46.5656C53.9407 46.5656 54.175 46.4794 54.326 46.3065C54.477 46.1336 54.5527 45.9201 54.5527 45.6665C54.5527 45.4133 54.477 45.2004 54.326 45.0268C54.175 44.8539 53.9407 44.7672 53.624 44.7672C53.3069 44.7672 53.0744 44.8539 52.9255 45.0268C52.7769 45.2004 52.7025 45.4133 52.7025 45.6665Z" fill="white"/>
<path d="M58.2019 42.9237C58.2504 42.9192 58.3188 42.9105 58.4066 42.8982C58.4944 42.8864 58.5908 42.8764 58.6955 42.8688C58.8004 42.8617 58.9075 42.8543 59.0172 42.847C59.1269 42.8399 59.2255 42.8359 59.3133 42.8359C59.601 42.8359 59.8619 42.8656 60.096 42.9237C60.3298 42.982 60.5309 43.0748 60.6994 43.2014C60.8673 43.3283 60.9977 43.4928 61.0904 43.6951C61.1831 43.8976 61.2294 44.1422 61.2294 44.4299C61.2294 44.7365 61.1769 44.9998 61.072 45.2192C60.9673 45.4385 60.826 45.6166 60.6481 45.753C60.47 45.8891 60.2631 45.9892 60.0265 46.0528C59.7899 46.1156 59.5426 46.1476 59.2842 46.1476C59.1718 46.1476 59.0745 46.145 58.9917 46.1403C58.9088 46.1353 58.8135 46.1282 58.7063 46.1182V48.1798C58.6722 48.1843 58.6333 48.1882 58.5894 48.1909C58.5456 48.193 58.5015 48.1943 58.4577 48.1943C58.409 48.1943 58.3613 48.193 58.3152 48.1909C58.2688 48.1882 58.2311 48.1843 58.2019 48.1798V42.9237ZM58.7063 45.6508C58.7551 45.6553 58.7977 45.6589 58.8344 45.6611C58.8712 45.6637 58.9074 45.6663 58.9441 45.669C58.9805 45.6711 59.022 45.6737 59.0683 45.6763C59.1148 45.6789 59.1744 45.6794 59.2474 45.6794C59.4231 45.6794 59.5961 45.665 59.7667 45.6356C59.9374 45.6067 60.0923 45.5473 60.2312 45.4567C60.3701 45.3665 60.4821 45.2402 60.5675 45.0762C60.6527 44.9133 60.6957 44.6976 60.6957 44.4299C60.6957 44.215 60.6627 44.0366 60.5968 43.8924C60.5309 43.7489 60.4373 43.6328 60.3153 43.5453C60.1935 43.4573 60.0449 43.394 59.8693 43.3551C59.6936 43.316 59.4987 43.2962 59.2842 43.2962C59.1574 43.2962 59.0454 43.3002 58.9477 43.3075C58.8502 43.3149 58.7699 43.323 58.7063 43.333L58.7063 45.6508Z" fill="white"/>
<path d="M64.067 45.7178C64.067 45.3962 63.9916 45.161 63.8402 45.0124C63.6888 44.8639 63.4651 44.7898 63.1676 44.7898C62.9726 44.7898 62.7941 44.8027 62.6335 44.8298C62.4727 44.8565 62.3289 44.8894 62.2021 44.9285C62.1776 44.8847 62.157 44.8211 62.1399 44.738C62.123 44.6556 62.1143 44.5775 62.1143 44.5042C62.2411 44.4656 62.3971 44.4328 62.5824 44.406C62.7676 44.3791 62.9581 44.3652 63.1526 44.3652C63.6257 44.3652 63.9766 44.4688 64.2058 44.6763C64.4352 44.8833 64.5496 45.2088 64.5496 45.6523V48.1157C64.3787 48.1498 64.1719 48.184 63.928 48.2179C63.6843 48.252 63.4528 48.2691 63.2336 48.2691C62.7802 48.2691 62.4226 48.1787 62.1618 47.9985C61.9011 47.8185 61.7708 47.5258 61.7708 47.121C61.7708 46.9266 61.8084 46.7524 61.8842 46.5984C61.9597 46.4452 62.0642 46.316 62.1985 46.2114C62.3326 46.1066 62.4933 46.0275 62.6811 45.9736C62.8687 45.9201 63.0748 45.8933 63.2993 45.8933C63.4748 45.8933 63.6257 45.8995 63.7527 45.9114C63.8794 45.924 63.9842 45.9342 64.067 45.9442L64.067 45.7178ZM64.067 46.3686C63.9842 46.3588 63.8807 46.3475 63.7561 46.3352C63.632 46.3234 63.5138 46.3176 63.4015 46.3176C63.0356 46.3176 62.7531 46.3856 62.5533 46.5217C62.3531 46.6586 62.2532 46.8533 62.2532 47.1065C62.2532 47.2679 62.2837 47.3968 62.3446 47.4943C62.4055 47.5918 62.4849 47.6659 62.5824 47.7171C62.68 47.7681 62.7873 47.802 62.9042 47.8193C63.0212 47.8369 63.1384 47.8453 63.2554 47.8453C63.4063 47.8453 63.5479 47.8375 63.6796 47.8233C63.8113 47.8088 63.9403 47.7891 64.067 47.7647V46.3686Z" fill="white"/>
<path d="M65.7634 44.4517C65.8023 44.4472 65.8402 44.4433 65.8767 44.4406C65.9132 44.4388 65.9485 44.4375 65.9826 44.4375C66.0215 44.4375 66.0583 44.4388 66.0922 44.4406C66.1264 44.4433 66.1632 44.4472 66.2018 44.4517C66.2116 44.5397 66.2189 44.643 66.2239 44.762C66.2289 44.882 66.2313 44.9903 66.2313 45.0878C66.3288 44.9075 66.4652 44.7551 66.641 44.6311C66.8163 44.5069 67.0479 44.4446 67.3357 44.4446C67.3599 44.4446 67.3854 44.4446 67.4124 44.4446C67.439 44.4446 67.4697 44.4472 67.5039 44.4517C67.5184 44.535 67.5257 44.613 67.5257 44.6858C67.5257 44.7633 67.5184 44.8395 67.5039 44.9123C67.4647 44.9075 67.4345 44.9049 67.4124 44.9049C67.3904 44.9049 67.3672 44.9049 67.3428 44.9049C67.0114 44.9049 66.7459 45.0097 66.5453 45.2194C66.3456 45.4288 66.246 45.7771 66.246 46.2645V48.1801C66.2168 48.1845 66.1763 48.1885 66.1253 48.1911C66.0738 48.1932 66.0339 48.1945 66.0044 48.1945C65.9803 48.1945 65.9414 48.1932 65.8877 48.1911C65.8339 48.1885 65.7923 48.1845 65.7634 48.1801V44.4517Z" fill="white"/>
<path d="M68.4908 44.8616H67.8548C67.8501 44.8372 67.8464 44.8057 67.8437 44.7662C67.8414 44.7279 67.8403 44.6887 67.8403 44.6493C67.8403 44.6107 67.8414 44.5739 67.8437 44.54C67.8464 44.5059 67.8501 44.4765 67.8548 44.452H68.4908V43.75L68.9442 43.3047H68.9739V44.452H69.983C69.9874 44.4765 69.9911 44.5059 69.9937 44.54C69.9961 44.5739 69.9974 44.6107 69.9974 44.6493C69.9974 44.6887 69.9961 44.7279 69.9937 44.7662C69.9911 44.8057 69.9874 44.8372 69.983 44.8616H68.9739V47.2884C68.9739 47.4104 68.9894 47.5065 69.0215 47.5772C69.0528 47.6481 69.0943 47.703 69.1456 47.7417C69.1965 47.7811 69.2552 47.8065 69.3211 47.8184C69.3871 47.8305 69.4539 47.8365 69.5222 47.8365C69.6928 47.8365 69.8415 47.815 69.9682 47.7711C70.0024 47.8975 70.0266 48.0343 70.0413 48.1804C69.866 48.2343 69.661 48.2611 69.4273 48.2611C69.1492 48.2611 68.9237 48.1862 68.7505 48.0375C68.5773 47.8891 68.4908 47.6468 68.4908 47.3105L68.4908 44.8616Z" fill="white"/>
<path d="M70.802 44.453C70.8412 44.4485 70.8787 44.4446 70.9155 44.4419C70.9515 44.4401 70.987 44.4388 71.0209 44.4388C71.0601 44.4388 71.0966 44.4401 71.1311 44.4419C71.165 44.4446 71.2015 44.4485 71.2407 44.453C71.2507 44.541 71.258 44.6503 71.2625 44.7819C71.2675 44.9136 71.2698 45.0281 71.2698 45.1256C71.3187 45.0378 71.3821 44.9487 71.4604 44.8592C71.5379 44.7688 71.6294 44.6871 71.7343 44.6143C71.8392 44.541 71.9595 44.4814 72.0962 44.4349C72.2329 44.3889 72.3816 44.3652 72.5422 44.3652C72.9717 44.3652 73.2837 44.4929 73.4787 44.7491C73.6735 45.005 73.7712 45.3646 73.7712 45.8278V48.1814C73.7415 48.1858 73.7018 48.1898 73.6503 48.1924C73.5993 48.1945 73.5591 48.1958 73.5299 48.1958C73.5052 48.1958 73.4661 48.1945 73.413 48.1924C73.3594 48.1898 73.3176 48.1858 73.2884 48.1814V45.9737C73.2884 45.5591 73.2235 45.2619 73.0947 45.0817C72.9654 44.9015 72.7714 44.8114 72.5133 44.8114C72.3425 44.8114 72.1814 44.8453 72.0305 44.9136C71.8793 44.9821 71.749 45.0804 71.6391 45.2097C71.5298 45.3392 71.4431 45.4984 71.3795 45.6889C71.3164 45.8788 71.2846 46.0956 71.2846 46.3391V48.1814C71.2554 48.1858 71.2152 48.1898 71.1639 48.1924C71.1127 48.1945 71.0727 48.1958 71.043 48.1958C71.0188 48.1958 70.9799 48.1945 70.9261 48.1924C70.8724 48.1898 70.8312 48.1858 70.802 48.1814L70.802 44.453Z" fill="white"/>
<path d="M75.292 46.3901C75.292 46.8874 75.4068 47.2526 75.6358 47.487C75.865 47.721 76.2088 47.8374 76.6666 47.8374C76.8524 47.8374 77.0241 47.8219 77.1826 47.7902C77.3411 47.7581 77.4956 47.7158 77.647 47.6619C77.6712 47.7158 77.6909 47.782 77.7056 47.8595C77.7201 47.9375 77.7301 48.0085 77.7345 48.0718C77.5931 48.1348 77.4273 48.184 77.2375 48.2179C77.047 48.252 76.8401 48.2691 76.6156 48.2691C76.2942 48.2691 76.0172 48.2213 75.7856 48.1265C75.5541 48.0313 75.364 47.8984 75.2155 47.7282C75.0668 47.5579 74.9569 47.354 74.8862 47.1178C74.8152 46.8814 74.7803 46.6218 74.7803 46.3391C74.7803 46.0661 74.8131 45.8108 74.8788 45.5717C74.9448 45.3326 75.0449 45.1229 75.179 44.943C75.3128 44.763 75.4847 44.6214 75.6944 44.5194C75.9041 44.4165 76.1551 44.3652 76.4477 44.3652C76.6916 44.3652 76.9082 44.4067 77.0987 44.4898C77.2885 44.5731 77.4483 44.6884 77.5776 44.8368C77.7064 44.9855 77.8042 45.1637 77.8699 45.3707C77.9361 45.5775 77.9687 45.8026 77.9687 46.047C77.9687 46.0903 77.9674 46.1465 77.9653 46.2146C77.9627 46.2834 77.959 46.3417 77.9543 46.3901H75.292ZM77.4864 45.9881C77.4864 45.8373 77.4664 45.6888 77.4273 45.5422C77.3884 45.3962 77.3277 45.2685 77.2449 45.1584C77.1618 45.0488 77.0548 44.96 76.9229 44.892C76.7915 44.8237 76.6327 44.7898 76.4477 44.7898C76.1065 44.7898 75.8408 44.8946 75.6505 45.1043C75.4605 45.3137 75.3459 45.6082 75.3067 45.9881H77.4864Z" fill="white"/>
<path d="M79.0295 44.4517C79.0684 44.4472 79.1063 44.4433 79.1426 44.4406C79.1791 44.4388 79.2143 44.4375 79.2485 44.4375C79.2874 44.4375 79.3242 44.4388 79.3581 44.4406C79.3923 44.4433 79.4291 44.4472 79.4679 44.4517C79.4779 44.5397 79.485 44.643 79.49 44.762C79.4948 44.882 79.4971 44.9903 79.4971 45.0878C79.5946 44.9075 79.7313 44.7551 79.9069 44.6311C80.0822 44.5069 80.3138 44.4446 80.6018 44.4446C80.6257 44.4446 80.6515 44.4446 80.6786 44.4446C80.7051 44.4446 80.7356 44.4472 80.7698 44.4517C80.7845 44.535 80.7919 44.613 80.7919 44.6858C80.7919 44.7633 80.7845 44.8395 80.7698 44.9123C80.7306 44.9075 80.7004 44.9049 80.6786 44.9049C80.6562 44.9049 80.6331 44.9049 80.6089 44.9049C80.2775 44.9049 80.0118 45.0097 79.8115 45.2194C79.6117 45.4288 79.5121 45.7771 79.5121 46.2645V48.1801C79.4829 48.1845 79.4425 48.1885 79.3915 48.1911C79.34 48.1932 79.3 48.1945 79.2706 48.1945C79.2461 48.1945 79.2075 48.1932 79.1536 48.1911C79.1 48.1885 79.0587 48.1845 79.0295 48.1801L79.0295 44.4517Z" fill="white"/>
<path d="M81.4059 47.6698C81.5131 47.7137 81.6521 47.7513 81.823 47.7833C81.9933 47.8146 82.1568 47.8301 82.3124 47.8301C82.6052 47.8301 82.8367 47.766 83.0073 47.6365C83.1779 47.5075 83.2636 47.3475 83.2636 47.1578C83.2636 47.0261 83.2378 46.9182 83.1866 46.8328C83.1353 46.7471 83.067 46.6757 82.9818 46.6168C82.8967 46.5585 82.8002 46.5107 82.6927 46.4747C82.5857 46.4382 82.4764 46.4001 82.3642 46.3614C82.2419 46.322 82.1213 46.2781 82.002 46.2298C81.8827 46.1807 81.7765 46.1184 81.6839 46.043C81.5915 45.9676 81.5168 45.8762 81.4611 45.7687C81.4048 45.6618 81.3767 45.5275 81.3767 45.3667C81.3767 45.0701 81.485 44.8284 81.7021 44.6429C81.9189 44.4582 82.2543 44.3652 82.7077 44.3652C82.8977 44.3652 83.0819 44.3826 83.2596 44.4165C83.4378 44.4506 83.5756 44.4871 83.6731 44.5263C83.6486 44.6679 83.6147 44.8066 83.5706 44.943C83.4683 44.9088 83.3377 44.8746 83.1795 44.8408C83.021 44.8066 82.8567 44.7898 82.6859 44.7898C82.3881 44.7898 82.1773 44.8421 82.0532 44.9469C81.9289 45.0517 81.8669 45.1891 81.8669 45.3594C81.8669 45.4524 81.8874 45.5317 81.9289 45.5972C81.9702 45.6626 82.0264 45.7191 82.0971 45.7653C82.1676 45.8121 82.248 45.852 82.3387 45.8859C82.4286 45.9201 82.5247 45.9516 82.627 45.981C82.7587 46.0249 82.8919 46.0724 83.0257 46.1237C83.1598 46.1746 83.2817 46.2416 83.3913 46.3247C83.5009 46.4074 83.5911 46.5123 83.662 46.6391C83.7325 46.7655 83.768 46.9239 83.768 47.1139C83.768 47.2894 83.7325 47.4491 83.662 47.5926C83.591 47.7366 83.4925 47.8585 83.3658 47.9588C83.2389 48.0582 83.088 48.1349 82.9124 48.1885C82.7369 48.242 82.5442 48.2691 82.3347 48.2691C82.1008 48.2691 81.8926 48.2547 81.7094 48.2252C81.5262 48.1958 81.3791 48.1572 81.2671 48.1078C81.2963 47.962 81.3425 47.8159 81.4059 47.6698Z" fill="white"/>
<path d="M87.9 42.9246C87.9336 42.9202 87.9804 42.9162 88.039 42.9136C88.0971 42.9115 88.151 42.9102 88.1996 42.9102C88.2532 42.9102 88.3082 42.9115 88.3641 42.9136C88.4204 42.9162 88.4653 42.9202 88.4998 42.9246L90.2547 48.1808C90.2255 48.1852 90.1838 48.1892 90.1304 48.1918C90.0768 48.1939 90.0255 48.1952 89.9769 48.1952C89.9327 48.1952 89.8862 48.1939 89.8379 48.1918C89.7892 48.1892 89.7475 48.1852 89.7135 48.1808L89.2749 46.8427H87.1099L86.693 48.1808C86.6542 48.1852 86.6092 48.1892 86.558 48.1918C86.507 48.1939 86.4591 48.1952 86.4155 48.1952C86.3666 48.1952 86.3164 48.1939 86.2654 48.1918C86.2142 48.1892 86.174 48.1852 86.1448 48.1808L87.9 42.9246ZM89.1282 46.3753L88.1852 43.4514L87.2566 46.3753H89.1282Z" fill="white"/>
<path d="M90.9422 47.6698C91.0492 47.7137 91.1883 47.7513 91.3591 47.7833C91.5297 47.8146 91.6929 47.8301 91.8488 47.8301C92.1416 47.8301 92.3731 47.766 92.5437 47.6365C92.7143 47.5075 92.8 47.3475 92.8 47.1578C92.8 47.0261 92.7742 46.9182 92.7227 46.8328C92.6714 46.7471 92.6031 46.6757 92.5182 46.6168C92.4328 46.5585 92.336 46.5107 92.2291 46.4747C92.1221 46.4382 92.0122 46.4001 91.9003 46.3614C91.7778 46.322 91.6574 46.2781 91.5384 46.2298C91.4188 46.1807 91.3126 46.1184 91.2201 46.043C91.1273 45.9676 91.0529 45.8762 90.9972 45.7687C90.9409 45.6618 90.9131 45.5275 90.9131 45.3667C90.9131 45.0701 91.0214 44.8284 91.2382 44.6429C91.455 44.4582 91.7904 44.3652 92.2438 44.3652C92.4338 44.3652 92.6178 44.3826 92.7957 44.4165C92.9742 44.4506 93.1117 44.4871 93.2094 44.5263C93.1847 44.6679 93.1506 44.8066 93.1067 44.943C93.0044 44.9088 92.8741 44.8746 92.7156 44.8408C92.5571 44.8066 92.3926 44.7898 92.222 44.7898C91.9245 44.7898 91.7137 44.8421 91.5896 44.9469C91.465 45.0517 91.403 45.1891 91.403 45.3594C91.403 45.4524 91.4238 45.5317 91.465 45.5972C91.5066 45.6626 91.5625 45.7191 91.6335 45.7653C91.704 45.8121 91.7841 45.852 91.8748 45.8859C91.9647 45.9201 92.0611 45.9516 92.1634 45.981C92.2948 46.0249 92.428 46.0724 92.5621 46.1237C92.6961 46.1746 92.8176 46.2416 92.9277 46.3247C93.0373 46.4074 93.1275 46.5123 93.1979 46.6391C93.2688 46.7655 93.3043 46.9239 93.3043 47.1139C93.3043 47.2894 93.2688 47.4491 93.1979 47.5926C93.1275 47.7366 93.0289 47.8585 92.9022 47.9588C92.7753 48.0582 92.6241 48.1349 92.4488 48.1885C92.273 48.242 92.0806 48.2691 91.8708 48.2691C91.6369 48.2691 91.4287 48.2547 91.2458 48.2252C91.0626 48.1958 90.9152 48.1572 90.8035 48.1078C90.8324 47.962 90.8786 47.8159 90.9422 47.6698Z" fill="white"/>
<path d="M94.0282 47.6698C94.1354 47.7137 94.2742 47.7513 94.4453 47.7833C94.6154 47.8146 94.7791 47.8301 94.935 47.8301C95.2272 47.8301 95.4591 47.766 95.6296 47.6365C95.8005 47.5075 95.8856 47.3475 95.8856 47.1578C95.8856 47.0261 95.8602 46.9182 95.8089 46.8328C95.7579 46.7471 95.6893 46.6757 95.6039 46.6168C95.519 46.5585 95.4228 46.5107 95.3153 46.4747C95.2081 46.4382 95.0985 46.4001 94.9862 46.3614C94.8643 46.322 94.7436 46.2781 94.6243 46.2298C94.5047 46.1807 94.3988 46.1184 94.306 46.043C94.2138 45.9676 94.1391 45.8762 94.0831 45.7687C94.0269 45.6618 93.999 45.5275 93.999 45.3667C93.999 45.0701 94.1076 44.8284 94.3241 44.6429C94.5413 44.4582 94.8766 44.3652 95.33 44.3652C95.52 44.3652 95.704 44.3826 95.882 44.4165C96.0602 44.4506 96.1976 44.4871 96.2951 44.5263C96.2707 44.6679 96.2368 44.8066 96.1929 44.943C96.0907 44.9088 95.9598 44.8746 95.8018 44.8408C95.643 44.8066 95.4788 44.7898 95.3082 44.7898C95.0107 44.7898 94.7996 44.8421 94.6753 44.9469C94.551 45.0517 94.4892 45.1891 94.4892 45.3594C94.4892 45.4524 94.5097 45.5317 94.551 45.5972C94.5925 45.6626 94.6488 45.7191 94.7192 45.7653C94.7896 45.8121 94.8706 45.852 94.9607 45.8859C95.0509 45.9201 95.1473 45.9516 95.2493 45.981C95.3813 46.0249 95.5143 46.0724 95.6481 46.1237C95.7818 46.1746 95.9041 46.2416 96.0134 46.3247C96.1233 46.4074 96.2134 46.5123 96.2844 46.6391C96.3548 46.7655 96.39 46.9239 96.39 47.1139C96.39 47.2894 96.3548 47.4491 96.2844 47.5926C96.2134 47.7366 96.1146 47.8585 95.9879 47.9588C95.8612 48.0582 95.7103 48.1349 95.5345 48.1885C95.3592 48.242 95.1665 48.2691 94.9568 48.2691C94.7229 48.2691 94.5147 48.2547 94.3318 48.2252C94.1489 48.1958 94.0014 48.1572 93.8892 48.1078C93.9183 47.962 93.9649 47.8159 94.0282 47.6698Z" fill="white"/>
<path d="M98.8913 48.2691C98.6135 48.2691 98.3699 48.2192 98.1601 48.1191C97.9504 48.0195 97.7761 47.8813 97.6373 47.7058C97.498 47.5311 97.3945 47.3233 97.3264 47.085C97.258 46.8459 97.2236 46.5897 97.2236 46.3176C97.2236 46.0443 97.2581 45.7884 97.3264 45.5494C97.3945 45.311 97.498 45.1043 97.6373 44.9285C97.7761 44.753 97.9504 44.6156 98.1601 44.5155C98.3699 44.4159 98.6135 44.3652 98.8913 44.3652C99.1691 44.3652 99.4117 44.4159 99.6194 44.5155C99.8259 44.6156 99.9997 44.753 100.138 44.9285C100.277 45.1043 100.382 45.311 100.453 45.5494C100.523 45.7884 100.558 46.0443 100.558 46.3176C100.558 46.5897 100.523 46.8459 100.453 47.085C100.382 47.3233 100.277 47.5311 100.138 47.7058C99.9997 47.8813 99.8259 48.0195 99.6194 48.1191C99.4117 48.2192 99.1691 48.2691 98.8913 48.2691ZM98.8913 47.8453C99.2811 47.8453 99.5723 47.7084 99.7652 47.4355C99.9579 47.163 100.054 46.7897 100.054 46.3176C100.054 45.8446 99.9579 45.4721 99.7652 45.1991C99.5723 44.9259 99.2811 44.7898 98.8913 44.7898C98.501 44.7898 98.2098 44.9259 98.0171 45.1991C97.8247 45.4721 97.7288 45.8447 97.7288 46.3176C97.7288 46.7897 97.8247 47.163 98.0171 47.4355C98.2098 47.7084 98.501 47.8453 98.8913 47.8453Z" fill="white"/>
<path d="M104.105 47.7137C104.13 47.7621 104.153 47.8283 104.175 47.9108C104.197 47.994 104.213 48.0623 104.223 48.1157C104.1 48.1598 103.961 48.1958 103.805 48.2252C103.649 48.2547 103.477 48.2691 103.286 48.2691C102.677 48.2691 102.214 48.102 101.896 47.7681C101.58 47.4347 101.421 46.9507 101.421 46.3176C101.421 46.0391 101.46 45.7826 101.539 45.5462C101.616 45.3097 101.731 45.1043 101.882 44.9285C102.033 44.753 102.222 44.6156 102.449 44.5155C102.676 44.4159 102.938 44.3652 103.235 44.3652C103.42 44.3652 103.597 44.3791 103.765 44.406C103.934 44.4328 104.066 44.463 104.164 44.4968C104.164 44.5604 104.155 44.6332 104.138 44.7165C104.121 44.7995 104.103 44.8652 104.083 44.9135C103.986 44.8794 103.863 44.8508 103.714 44.8258C103.565 44.8014 103.406 44.7898 103.235 44.7898C103.015 44.7898 102.825 44.8271 102.661 44.9028C102.497 44.9782 102.361 45.0843 102.251 45.2207C102.142 45.3576 102.06 45.5181 102.006 45.7033C101.953 45.8885 101.926 46.0929 101.926 46.3176C101.926 46.8433 102.051 47.2298 102.302 47.4762C102.554 47.7224 102.894 47.8453 103.323 47.8453C103.469 47.8453 103.609 47.8327 103.743 47.8088C103.877 47.7847 103.998 47.7526 104.105 47.7137Z" fill="white"/>
<path d="M105.371 44.862H104.902C104.898 44.8376 104.894 44.8081 104.891 44.774C104.889 44.7401 104.888 44.7033 104.888 44.6647C104.888 44.6253 104.889 44.5869 104.891 44.5475C104.894 44.5089 104.898 44.4768 104.902 44.4524H105.853V48.1808C105.824 48.1853 105.784 48.1892 105.732 48.1918C105.681 48.1939 105.641 48.1952 105.612 48.1952C105.587 48.1952 105.548 48.1939 105.495 48.1918C105.441 48.1892 105.4 48.1853 105.371 48.1808V44.862ZM105.13 43.5389C105.124 43.495 105.121 43.4414 105.118 43.3778C105.116 43.315 105.114 43.2612 105.114 43.2173C105.114 43.1781 105.116 43.1296 105.118 43.0707C105.121 43.0124 105.124 42.964 105.13 42.9246C105.173 42.9202 105.227 42.9162 105.29 42.9136C105.353 42.9115 105.407 42.9102 105.451 42.9102C105.49 42.9102 105.539 42.9115 105.597 42.9136C105.656 42.9162 105.704 42.9202 105.744 42.9246C105.748 42.964 105.752 43.0124 105.754 43.0707C105.757 43.1296 105.758 43.1781 105.758 43.2173C105.758 43.2612 105.757 43.315 105.754 43.3778C105.752 43.4414 105.748 43.495 105.744 43.5389C105.704 43.5436 105.656 43.5476 105.597 43.5494C105.539 43.552 105.49 43.5533 105.451 43.5533C105.407 43.5533 105.353 43.552 105.29 43.5494C105.227 43.5476 105.173 43.5436 105.13 43.5389Z" fill="white"/>
<path d="M109.195 45.7178C109.195 45.3962 109.12 45.161 108.968 45.0124C108.817 44.8639 108.593 44.7898 108.296 44.7898C108.101 44.7898 107.922 44.8027 107.762 44.8298C107.601 44.8565 107.457 44.8894 107.33 44.9285C107.306 44.8847 107.285 44.8211 107.268 44.738C107.251 44.6556 107.242 44.5775 107.242 44.5042C107.369 44.4656 107.525 44.4328 107.711 44.406C107.896 44.3791 108.086 44.3652 108.281 44.3652C108.754 44.3652 109.105 44.4688 109.334 44.6763C109.564 44.8833 109.678 45.2088 109.678 45.6523V48.1157C109.507 48.1498 109.3 48.184 109.056 48.2179C108.812 48.252 108.581 48.2691 108.362 48.2691C107.908 48.2691 107.551 48.1787 107.29 47.9985C107.029 47.8185 106.899 47.5258 106.899 47.121C106.899 46.9266 106.936 46.7524 107.013 46.5984C107.088 46.4452 107.193 46.316 107.327 46.2114C107.461 46.1066 107.621 46.0275 107.809 45.9736C107.997 45.9201 108.203 45.8933 108.427 45.8933C108.603 45.8933 108.754 45.8995 108.881 45.9114C109.007 45.924 109.112 45.9342 109.195 45.9442L109.195 45.7178ZM109.195 46.3686C109.112 46.3588 109.009 46.3475 108.884 46.3352C108.76 46.3234 108.642 46.3176 108.53 46.3176C108.164 46.3176 107.881 46.3856 107.681 46.5217C107.481 46.6586 107.381 46.8533 107.381 47.1065C107.381 47.2679 107.412 47.3968 107.472 47.4943C107.534 47.5918 107.613 47.6659 107.711 47.7171C107.808 47.7681 107.916 47.802 108.032 47.8193C108.149 47.8369 108.266 47.8453 108.383 47.8453C108.534 47.8453 108.676 47.8375 108.808 47.8233C108.94 47.8088 109.068 47.7891 109.195 47.7647V46.3686Z" fill="white"/>
<path d="M111.06 44.8616H110.424C110.419 44.8372 110.415 44.8057 110.412 44.7662C110.41 44.7279 110.409 44.6887 110.409 44.6493C110.409 44.6107 110.41 44.5739 110.412 44.54C110.415 44.5059 110.419 44.4765 110.424 44.452H111.06V43.75L111.513 43.3047H111.542V44.452H112.551C112.557 44.4765 112.56 44.5059 112.563 44.54C112.565 44.5739 112.566 44.6107 112.566 44.6493C112.566 44.6887 112.565 44.7279 112.563 44.7662C112.56 44.8057 112.557 44.8372 112.551 44.8616H111.542V47.2884C111.542 47.4104 111.559 47.5065 111.59 47.5772C111.622 47.6481 111.663 47.703 111.714 47.7417C111.765 47.7811 111.824 47.8065 111.89 47.8184C111.955 47.8305 112.022 47.8365 112.091 47.8365C112.262 47.8365 112.41 47.815 112.537 47.7711C112.571 47.8975 112.596 48.0343 112.61 48.1804C112.434 48.2343 112.23 48.2611 111.996 48.2611C111.718 48.2611 111.492 48.1862 111.32 48.0375C111.147 47.8891 111.06 47.6468 111.06 47.3105V44.8616Z" fill="white"/>
<path d="M113.597 44.862H113.129C113.125 44.8376 113.121 44.8081 113.118 44.774C113.116 44.7401 113.115 44.7033 113.115 44.6647C113.115 44.6253 113.116 44.5869 113.118 44.5475C113.121 44.5089 113.125 44.4768 113.129 44.4524H114.08V48.1808C114.05 48.1853 114.011 48.1892 113.959 48.1918C113.908 48.1939 113.868 48.1952 113.839 48.1952C113.814 48.1952 113.775 48.1939 113.721 48.1918C113.668 48.1892 113.627 48.1853 113.597 48.1808V44.862ZM113.356 43.5389C113.351 43.495 113.347 43.4414 113.345 43.3778C113.343 43.315 113.341 43.2612 113.341 43.2173C113.341 43.1781 113.343 43.1296 113.345 43.0707C113.347 43.0124 113.351 42.964 113.356 42.9246C113.4 42.9202 113.454 42.9162 113.517 42.9136C113.58 42.9115 113.634 42.9102 113.678 42.9102C113.717 42.9102 113.765 42.9115 113.824 42.9136C113.883 42.9162 113.931 42.9202 113.97 42.9246C113.975 42.964 113.978 43.0124 113.981 43.0707C113.984 43.1296 113.985 43.1781 113.985 43.2173C113.985 43.2612 113.984 43.315 113.981 43.3778C113.978 43.4414 113.975 43.495 113.97 43.5389C113.931 43.5436 113.883 43.5476 113.824 43.5494C113.765 43.552 113.717 43.5533 113.678 43.5533C113.634 43.5533 113.58 43.552 113.517 43.5494C113.454 43.5476 113.4 43.5436 113.356 43.5389Z" fill="white"/>
<path d="M116.822 48.2691C116.545 48.2691 116.301 48.2192 116.092 48.1191C115.882 48.0195 115.708 47.8813 115.568 47.7058C115.429 47.5311 115.326 47.3233 115.258 47.085C115.189 46.8459 115.155 46.5897 115.155 46.3176C115.155 46.0443 115.189 45.7884 115.258 45.5494C115.326 45.311 115.429 45.1043 115.568 44.9285C115.708 44.753 115.882 44.6156 116.092 44.5155C116.301 44.4159 116.545 44.3652 116.822 44.3652C117.101 44.3652 117.343 44.4159 117.55 44.5155C117.757 44.6156 117.931 44.753 118.07 44.9285C118.209 45.1043 118.314 45.311 118.384 45.5494C118.454 45.7884 118.49 46.0443 118.49 46.3176C118.49 46.5897 118.454 46.8459 118.384 47.085C118.314 47.3233 118.209 47.5311 118.07 47.7058C117.931 47.8813 117.757 48.0195 117.55 48.1191C117.343 48.2192 117.101 48.2691 116.822 48.2691ZM116.822 47.8453C117.213 47.8453 117.504 47.7084 117.696 47.4355C117.889 47.163 117.985 46.7897 117.985 46.3176C117.985 45.8446 117.889 45.4721 117.696 45.1991C117.504 44.9259 117.213 44.7898 116.822 44.7898C116.432 44.7898 116.141 44.9259 115.949 45.1991C115.756 45.4721 115.66 45.8447 115.66 46.3176C115.66 46.7897 115.756 47.163 115.949 47.4355C116.141 47.7084 116.432 47.8453 116.822 47.8453Z" fill="white"/>
<path d="M119.565 44.453C119.604 44.4485 119.641 44.4446 119.678 44.4419C119.715 44.4401 119.75 44.4388 119.784 44.4388C119.823 44.4388 119.86 44.4401 119.894 44.4419C119.928 44.4446 119.964 44.4485 120.003 44.453C120.013 44.541 120.02 44.6503 120.025 44.7819C120.03 44.9136 120.033 45.0281 120.033 45.1256C120.081 45.0378 120.145 44.9487 120.223 44.8592C120.301 44.7688 120.392 44.6871 120.497 44.6143C120.602 44.541 120.722 44.4814 120.859 44.4349C120.996 44.3889 121.144 44.3652 121.305 44.3652C121.734 44.3652 122.046 44.4929 122.241 44.7491C122.436 45.005 122.534 45.3646 122.534 45.8278V48.1814C122.504 48.1858 122.464 48.1898 122.413 48.1924C122.362 48.1945 122.321 48.1958 122.293 48.1958C122.268 48.1958 122.229 48.1945 122.175 48.1924C122.122 48.1898 122.08 48.1858 122.051 48.1814V45.9737C122.051 45.5591 121.986 45.2619 121.858 45.0817C121.728 44.9015 121.534 44.8114 121.276 44.8114C121.105 44.8114 120.944 44.8453 120.793 44.9136C120.642 44.9821 120.512 45.0804 120.402 45.2097C120.292 45.3392 120.206 45.4984 120.142 45.6889C120.079 45.8788 120.047 46.0956 120.047 46.3391V48.1814C120.018 48.1858 119.978 48.1898 119.927 48.1924C119.875 48.1945 119.835 48.1958 119.806 48.1958C119.782 48.1958 119.743 48.1945 119.689 48.1924C119.635 48.1898 119.594 48.1858 119.565 48.1814V44.453Z" fill="white"/>
</g>
<defs>
<clipPath id="clip0_7809_4102">
<rect width="123" height="50" fill="white"/>
</clipPath>
</defs>
</svg>
