<svg width="49" height="49" viewBox="0 0 49 49" fill="none" xmlns="http://www.w3.org/2000/svg">
<g clip-path="url(#clip0_9439_10324)">
<path d="M38 11L11 38" stroke="#CFA935" stroke-width="3" stroke-linecap="round" stroke-linejoin="round"/>
<path d="M14.75 20C17.6495 20 20 17.6495 20 14.75C20 11.8505 17.6495 9.5 14.75 9.5C11.8505 9.5 9.5 11.8505 9.5 14.75C9.5 17.6495 11.8505 20 14.75 20Z" stroke="#CFA935" stroke-width="3" stroke-miterlimit="10"/>
<path d="M34.25 39.5C37.1495 39.5 39.5 37.1495 39.5 34.25C39.5 31.3505 37.1495 29 34.25 29C31.3505 29 29 31.3505 29 34.25C29 37.1495 31.3505 39.5 34.25 39.5Z" stroke="#CFA935" stroke-width="3" stroke-miterlimit="10"/>
</g>
<defs>
<clipPath id="clip0_9439_10324">
<rect width="48" height="48" fill="white" transform="translate(0.5 0.5)"/>
</clipPath>
</defs>
</svg>
