<svg width="100" height="100" viewBox="0 0 100 100" fill="none" xmlns="http://www.w3.org/2000/svg">
<path d="M61.5513 6.16113H18.2419C17.5631 6.16113 17.0133 6.71099 17.0133 7.38975V12.863H9.23773C7.86307 12.863 6.58646 13.4129 5.64375 14.4118C4.7024 15.4087 4.20808 16.7696 4.28761 18.147C4.56939 23.0466 6.65434 32.2029 17.3175 38.8156C18.7499 47.9488 25.5861 55.2909 34.4539 57.4664V61.9274H26.291C22.4083 61.9274 19.249 65.0868 19.249 68.9694V81.0375H18.9755C16.3701 81.0375 14.2502 83.1506 14.2502 85.7484V87.8827C14.2502 88.5614 14.8001 89.1113 15.4789 89.1113H51.0032C54.2098 92.0366 58.4585 93.8379 63.1303 93.8379C71.2486 93.8379 78.4043 88.3729 80.5311 80.5473C80.7094 79.8925 80.3227 79.2172 79.6679 79.0396C79.0159 78.86 78.3385 79.2474 78.1602 79.9028C76.3235 86.6609 70.1427 91.3807 63.1303 91.3807C56.7364 91.3807 51.2352 87.5046 48.8394 81.9812C48.8092 81.8576 48.765 81.7453 48.7005 81.6396C47.9686 79.8359 47.5566 77.8695 47.5566 75.8063C47.5566 67.219 54.543 60.2326 63.1303 60.2326C69.9788 60.2326 76.1199 64.8132 78.0643 71.3717C78.2569 72.0224 78.9405 72.3906 79.5911 72.2007C80.2418 72.008 80.6127 71.3244 80.42 70.6738C78.1685 63.0793 71.0587 57.7754 63.1303 57.7754C58.765 57.7754 54.7583 59.3363 51.6353 61.9274H45.3393V57.4663C54.2068 55.2906 61.0433 47.9485 62.4757 38.8156C73.1388 32.2022 75.2238 23.046 75.5056 18.147C75.5851 16.7696 75.0908 15.4087 74.1494 14.4118C73.2067 13.4129 71.9301 12.863 70.5554 12.863H62.7799V7.38975C62.7799 6.71099 62.23 6.16113 61.5513 6.16113ZM16.7075 85.7484C16.7075 84.506 17.7249 83.4948 18.9755 83.4948H46.8449C47.377 84.6168 48.0192 85.6732 48.7615 86.654H16.7075V85.7484ZM45.8792 81.0375H21.7063V68.9694C21.7063 66.4415 23.7631 64.3847 26.291 64.3847H49.1913C46.6365 67.4969 45.0993 71.475 45.0993 75.8063C45.0993 77.6256 45.3757 79.3806 45.8792 81.0375ZM39.8962 32.1561C43.8502 32.1561 47.0671 35.3723 47.0671 39.3262C47.0671 43.2802 43.8502 46.4971 39.8962 46.4971C35.9423 46.4971 32.7261 43.2802 32.7261 39.3262C32.7261 35.3723 35.9423 32.1561 39.8962 32.1561ZM39.8956 29.1257L34.3352 23.1588V8.62522H45.4559V23.1588L39.8956 29.1257ZM17.0133 35.6795C8.67004 29.7709 6.98069 22.175 6.74073 18.0058C6.69959 17.2907 6.94435 16.6133 7.43045 16.0984C7.90421 15.5965 8.54594 15.3202 9.23773 15.3202H17.0133V35.2647V35.6795ZM42.8821 61.9254H36.9111V57.93C37.8907 58.0585 38.8822 58.1477 39.8962 58.1477C40.9106 58.1477 41.9023 58.0585 42.8821 57.9299V61.9254ZM39.8962 55.6904C28.6337 55.6904 19.4705 46.5272 19.4705 35.2647V14.0916V8.61837H31.878V23.6429C31.878 23.9535 31.9959 24.2531 32.2078 24.4807L37.39 30.0413C33.2948 31.1484 30.2689 34.8857 30.2689 39.3262C30.2689 44.6349 34.5875 48.9543 39.8962 48.9543C45.2049 48.9543 49.5243 44.6349 49.5243 39.3262C49.5243 34.8853 46.4973 31.1477 42.4015 30.041L47.5833 24.4807C47.7952 24.2531 47.9131 23.9535 47.9131 23.6429V8.61837H60.3227V14.0916V35.2647C60.3227 46.5272 51.1595 55.6904 39.8962 55.6904ZM70.5554 15.3202C71.2472 15.3202 71.889 15.5965 72.3627 16.0984C72.8488 16.6133 73.0936 17.2907 73.0524 18.0058C72.8125 22.175 71.1231 29.7709 62.7799 35.6795V35.2647V15.3202H70.5554Z" fill="#CFA935"/>
<path d="M71.8829 72.0998C72.1476 72.7237 72.8682 73.0171 73.4941 72.7511C74.1187 72.4865 74.4101 71.7652 74.1455 71.1399C72.2662 66.7088 67.9427 63.8457 63.1297 63.8457C56.5348 63.8457 51.1699 69.2106 51.1699 75.8055C51.1699 82.4004 56.5348 87.766 63.1297 87.766C68.0565 87.766 72.5473 84.6753 74.3052 80.0748C74.5472 79.4406 74.2298 78.7303 73.5963 78.4883C72.9648 78.249 72.2532 78.5637 72.0098 79.1972C70.6132 82.8529 67.0446 85.3088 63.1297 85.3088C57.8903 85.3088 53.6272 81.0457 53.6272 75.8055C53.6272 70.5661 57.8903 66.3029 63.1297 66.3029C66.9541 66.3029 70.3904 68.5785 71.8829 72.0998Z" fill="#CFA935"/>
<path d="M63.1295 72.2473C64.0592 72.2473 64.9389 72.6038 65.606 73.2503C66.0948 73.7241 66.8716 73.7117 67.3433 73.2243C67.8157 72.7368 67.804 71.9593 67.3172 71.4869C66.1887 70.3927 64.7016 69.79 63.1295 69.79C59.8119 69.79 57.1133 72.4886 57.1133 75.8063C57.1133 79.124 59.8119 81.8232 63.1295 81.8232C64.7174 81.8232 66.2155 81.2096 67.3481 80.0962C67.8321 79.6203 67.839 78.8422 67.3632 78.3588C66.8874 77.8748 66.1085 77.8679 65.6258 78.3437C64.9553 79.0033 64.0688 79.366 63.1295 79.366C61.1673 79.366 59.5705 77.7692 59.5705 75.8063C59.5705 73.8441 61.1673 72.2473 63.1295 72.2473Z" fill="#CFA935"/>
<path d="M64.2267 74.5775C63.5479 74.5775 62.998 75.1274 62.998 75.8061C62.998 76.4849 63.5479 77.0347 64.2267 77.0347H86.893L90.5048 80.6466C90.7448 80.8865 91.0588 81.0065 91.3735 81.0065C91.6882 81.0065 92.0022 80.8865 92.2421 80.6466C92.7221 80.1666 92.7221 79.3891 92.2421 78.9092L89.1391 75.8061L92.2421 72.7037C92.7221 72.2238 92.7221 71.4463 92.2421 70.9664C91.7622 70.4865 90.9847 70.4865 90.5048 70.9664L86.893 74.5775H64.2267Z" fill="#CFA935"/>
<path d="M39.8943 43.3628C42.1205 43.3628 43.9312 41.5521 43.9312 39.3259C43.9312 37.0998 42.1205 35.2891 39.8943 35.2891C37.6681 35.2891 35.8574 37.0998 35.8574 39.3259C35.8574 41.5521 37.6681 43.3628 39.8943 43.3628ZM39.8943 37.7463C40.765 37.7463 41.474 38.4552 41.474 39.3259C41.474 40.1967 40.765 40.9056 39.8943 40.9056C39.0236 40.9056 38.3147 40.1967 38.3147 39.3259C38.3147 38.4552 39.0236 37.7463 39.8943 37.7463Z" fill="#CFA935"/>
<path d="M81.424 55.6393V52.672C81.424 51.9932 80.8742 51.4434 80.1954 51.4434C79.5167 51.4434 78.9668 51.9932 78.9668 52.672V55.6393C78.9668 56.3181 79.5167 56.8679 80.1954 56.8679C80.8742 56.8679 81.424 56.3181 81.424 55.6393Z" fill="#CFA935"/>
<path d="M81.0679 31.9891C80.9546 31.8754 80.8185 31.7853 80.6677 31.723C80.3675 31.5989 80.0294 31.5989 79.7291 31.723C79.5784 31.7853 79.4423 31.8754 79.3288 31.9891L74.9459 36.3713C74.466 36.8512 74.466 37.6287 74.9459 38.1087C75.4258 38.5886 76.2033 38.5886 76.6832 38.1087L78.9697 35.8226V47.4796C78.9697 48.1584 79.5196 48.7082 80.1984 48.7082C80.8771 48.7082 81.427 48.1584 81.427 47.4796V35.8226L83.7135 38.1087C83.9535 38.3486 84.2675 38.4686 84.5822 38.4686C84.8969 38.4686 85.2109 38.3486 85.4508 38.1087C85.9308 37.6287 85.9308 36.8512 85.4508 36.3713L81.0679 31.9891Z" fill="#CFA935"/>
<path d="M91.34 39.3261V36.3595C91.34 35.6807 90.7902 35.1309 90.1114 35.1309C89.4327 35.1309 88.8828 35.6807 88.8828 36.3595V39.3261C88.8828 40.0049 89.4327 40.5547 90.1114 40.5547C90.7902 40.5547 91.34 40.0049 91.34 39.3261Z" fill="#CFA935"/>
<path d="M90.9813 15.6753C90.759 15.4524 90.4515 15.3145 90.1117 15.3145C89.772 15.3145 89.4645 15.4524 89.2422 15.6753L84.8599 20.0582C84.38 20.5381 84.38 21.3156 84.8599 21.7955C85.0999 22.0355 85.4139 22.1555 85.7286 22.1555C86.0433 22.1555 86.3573 22.0355 86.5973 21.7955L88.8831 19.5093V31.1665C88.8831 31.8452 89.433 32.3951 90.1117 32.3951C90.7905 32.3951 91.3404 31.8452 91.3404 31.1665V19.509L93.6269 21.7955C94.1068 22.2755 94.8843 22.2755 95.3642 21.7955C95.8441 21.3156 95.8441 20.5381 95.3642 20.0582L90.9813 15.6753Z" fill="#CFA935"/>
</svg>
