<svg width="100" height="100" viewBox="0 0 100 100" fill="none" xmlns="http://www.w3.org/2000/svg">
<g clip-path="url(#clip0_10215_8008)">
<path d="M99.2227 52.2176V5.72461C99.2227 2.99844 97.0047 0.780273 94.2783 0.780273H38.6123C35.8859 0.780273 33.6678 2.99824 33.6678 5.72461V31.9469L29.2537 36.3609C27.323 38.2916 25.0572 39.2301 22.3271 39.2301H11.1625C5.44043 39.2301 0.785156 43.8853 0.785156 49.6074V63.8379C0.785156 66.7686 3.16953 69.1529 6.1002 69.1529C6.97656 69.1529 7.8043 68.9396 8.53379 68.5623L6.0834 97.7363C6.05137 98.1174 6.18047 98.4947 6.43945 98.7762C6.69824 99.0576 7.06328 99.218 7.4457 99.218H15.5916C16.2887 99.218 16.874 98.6934 16.9506 98.0008L19.0326 79.1215L21.1146 98.0008C21.191 98.6936 21.7766 99.218 22.4736 99.218H30.6193C31.0018 99.218 31.3668 99.0578 31.6258 98.7762C31.8846 98.4947 32.0137 98.1174 31.9816 97.7363L29.3846 66.8129V53.7426C29.3846 52.0744 29.9578 50.6904 31.1373 49.5109L33.6682 46.9801V52.2178C33.6682 54.9441 35.8863 57.1621 38.6127 57.1621H94.2783C97.0045 57.1621 99.2227 54.9439 99.2227 52.2176ZM23.698 96.4834L21.2656 74.4271C21.1398 73.2867 20.1797 72.4268 19.0324 72.4268C17.8852 72.4268 16.925 73.2867 16.7992 74.4271L14.3668 96.4834H8.93242L11.4102 66.9844C11.4135 66.9463 11.415 66.908 11.415 66.8699V65.2051H26.6498V66.8699C26.6498 66.908 26.6514 66.9463 26.6547 66.9844L29.1322 96.4834H23.698ZM29.2035 47.5773C27.509 49.2717 26.6498 51.3459 26.6498 53.7424V62.4707H11.415V50.3635C11.415 49.6084 10.8029 48.9963 10.0479 48.9963C9.29277 48.9963 8.68066 49.6084 8.68066 50.3635V63.8379C8.68066 65.2609 7.52305 66.4185 6.1002 66.4185C4.67734 66.4185 3.51953 65.2609 3.51953 63.8379V49.6074C3.51953 45.393 6.94805 41.9645 11.1625 41.9645H22.3273C25.7711 41.9645 28.7521 40.7297 31.1875 38.2943L40.8164 28.6654C41.8227 27.6592 43.4598 27.6592 44.466 28.6654C45.4721 29.6717 45.4721 31.309 44.466 32.3152L29.2037 47.5775L29.2035 47.5773ZM48.4781 12.2447L47.8703 11.3381L49.1904 10.018L50.0969 10.6258C50.4768 10.8807 50.9592 10.9283 51.3816 10.7533L54.3387 9.52832C54.7613 9.35332 55.0682 8.97851 55.1566 8.52969L55.3678 7.45918H57.2348L57.4459 8.52969C57.5344 8.97851 57.8414 9.35312 58.2639 9.52832L61.2209 10.7533C61.6434 10.9283 62.1256 10.8807 62.5057 10.6258L63.4121 10.018L64.7324 11.3381L64.1244 12.2445C63.8695 12.6244 63.8217 13.1066 63.9969 13.5293L65.2219 16.4863C65.3969 16.909 65.7717 17.2158 66.2205 17.3043L67.291 17.5154V19.3826L66.2205 19.5937C65.7719 19.6822 65.3971 19.9893 65.2219 20.4117L63.9969 23.3687C63.8219 23.7914 63.8697 24.2736 64.1244 24.6535L64.7324 25.56L63.4121 26.8801L62.5055 26.2723C62.1256 26.0174 61.6434 25.9697 61.2207 26.1447L58.2637 27.3697C57.841 27.5447 57.5342 27.9195 57.4457 28.3682L57.2346 29.4389H55.3676L55.1564 28.3682C55.068 27.9195 54.7609 27.5447 54.3385 27.3697L51.3814 26.1447C50.9588 25.9695 50.4768 26.0174 50.0967 26.2723L49.19 26.8801L47.8699 25.56L48.4777 24.6535C48.7326 24.2736 48.7805 23.7914 48.6053 23.3687L47.3803 20.4117C47.2053 19.9891 46.8305 19.6822 46.3816 19.5937L45.3111 19.3826V17.5154L46.3816 17.3043C46.8305 17.2158 47.2051 16.9088 47.3803 16.4863L48.6053 13.5293C48.7803 13.1066 48.7324 12.6246 48.4777 12.2445L48.4781 12.2447ZM36.4021 52.2176V44.2455L46.3994 34.2482C47.7182 32.9291 48.1963 31.0838 47.8361 29.382C48.4951 29.9353 49.4545 29.9949 50.1803 29.5086L51.0117 28.9512L52.6156 29.6158L52.8094 30.5978C52.9895 31.5107 53.7955 32.1734 54.726 32.1734H57.8768C58.8072 32.1734 59.6133 31.5107 59.7934 30.5978L59.9871 29.6158L61.591 28.9512L62.4225 29.5086C63.1955 30.0271 64.234 29.9258 64.892 29.2676L67.1201 27.0395C67.7779 26.3814 67.8793 25.343 67.3611 24.5701L66.8035 23.7387L67.468 22.1348L68.45 21.9412C69.3629 21.7611 70.0256 20.9551 70.0256 20.0244V16.8736C70.0256 15.9432 69.3629 15.1371 68.4498 14.957L67.468 14.7635L66.8033 13.1596L67.3609 12.3279C67.8791 11.5551 67.7775 10.5166 67.1197 9.85859L64.892 7.63105C64.234 6.97246 63.1953 6.87109 62.4223 7.38965L61.591 7.94707L59.9869 7.28242L59.7932 6.30039C59.6131 5.3875 58.807 4.7248 57.8766 4.7248H54.7258C53.7953 4.7248 52.9891 5.3875 52.8092 6.30039L52.6154 7.28242L51.0113 7.94707L50.1799 7.38945C49.4068 6.87129 48.3684 6.97266 47.7105 7.63066L45.4826 9.85859C44.8246 10.5166 44.7232 11.5553 45.2416 12.3279L45.799 13.1594L45.1344 14.7635L44.1525 14.957C43.2395 15.1371 42.5768 15.9432 42.5768 16.8736V20.0244C42.5768 20.9551 43.2395 21.7611 44.1525 21.9412L45.1346 22.1348L45.799 23.7389L45.2414 24.5703C45.0143 24.909 44.9062 25.2988 44.9119 25.6854C42.94 24.7557 40.5104 25.1039 38.8824 26.7318L36.4018 29.2125V5.72461C36.4018 4.50605 37.3932 3.51465 38.6119 3.51465H94.2783C95.4969 3.51465 96.4883 4.50605 96.4883 5.72461V52.2176C96.4883 53.4361 95.4969 54.4275 94.2783 54.4275H38.6123C37.3936 54.4275 36.4021 53.4361 36.4021 52.2176ZM19.0324 39.1758C23.8938 39.1758 27.8486 35.2207 27.8486 30.3596C27.8486 25.4984 23.8936 21.5434 19.0324 21.5434C14.1713 21.5434 10.2162 25.4984 10.2162 30.3596C10.2162 35.2207 14.1713 39.1758 19.0324 39.1758ZM19.0324 24.2777C22.3859 24.2777 25.1143 27.0061 25.1143 30.3596C25.1143 33.7131 22.3859 36.4414 19.0324 36.4414C15.6789 36.4414 12.9506 33.7131 12.9506 30.3596C12.9506 27.0061 15.6789 24.2777 19.0324 24.2777ZM99.2172 94.6482C98.8641 90.7299 97.0686 87.1006 94.1611 84.4293C92.5662 82.9639 90.7102 81.8604 88.7084 81.1568C90.7531 79.5801 92.074 77.1084 92.074 74.3326C92.074 69.582 88.209 65.717 83.4584 65.717C78.7078 65.717 74.8428 69.582 74.8428 74.3326C74.8428 77.1084 76.1637 79.5801 78.2084 81.1568C76.2068 81.8604 74.3506 82.9639 72.7557 84.4293C71.1783 85.8787 69.9314 87.6115 69.0613 89.518C68.1912 87.6115 66.9443 85.8787 65.367 84.4293C63.7721 82.9639 61.9158 81.8604 59.9143 81.1568C61.959 79.5801 63.2797 77.1084 63.2797 74.3326C63.2797 69.582 59.4146 65.717 54.6643 65.717C49.9139 65.717 46.0486 69.582 46.0486 74.3326C46.0486 77.1084 47.3695 79.5801 49.4141 81.1568C47.4125 81.8604 45.5562 82.9639 43.9613 84.4293C41.0539 87.1008 39.2582 90.7301 38.9053 94.6482C38.9016 94.6891 38.8998 94.7299 38.8998 94.7709V97.8506C38.8998 98.6057 39.5119 99.2178 40.267 99.2178H97.8555C98.6105 99.2178 99.2227 98.6057 99.2227 97.8506V94.7709C99.2227 94.7299 99.2207 94.6891 99.2172 94.6482ZM83.4584 68.4512C86.7014 68.4512 89.3396 71.0894 89.3396 74.3324C89.3396 77.5754 86.7014 80.2135 83.4584 80.2135C80.2154 80.2135 77.5771 77.5752 77.5771 74.3324C77.5771 71.0896 80.2154 68.4512 83.4584 68.4512ZM54.6643 68.4512C57.9072 68.4512 60.5453 71.0894 60.5453 74.3324C60.5453 77.5754 57.907 80.2135 54.6643 80.2135C51.4215 80.2135 48.783 77.5752 48.783 74.3324C48.783 71.0896 51.4213 68.4512 54.6643 68.4512ZM41.6342 94.8338C42.2727 88.0799 47.8639 82.9945 54.6641 82.9945C61.4643 82.9945 67.0547 88.0791 67.6939 94.8322V96.4834H41.6342V94.834V94.8338ZM96.4885 96.4832H70.4287V94.832C71.068 88.0789 76.6586 82.9943 83.4584 82.9943C90.2582 82.9943 95.8498 88.0797 96.4885 94.8336V96.483V96.4832ZM56.3012 26.1533C60.5492 26.1533 64.0055 22.6973 64.0055 18.449C64.0055 14.2008 60.5494 10.7447 56.3012 10.7447C52.0529 10.7447 48.5969 14.2008 48.5969 18.449C48.5969 22.6973 52.0529 26.1533 56.3012 26.1533ZM56.3012 13.4791C59.0416 13.4791 61.2711 15.7086 61.2711 18.449C61.2711 21.1895 59.0416 23.4189 56.3012 23.4189C53.5607 23.4189 51.3312 21.1895 51.3312 18.449C51.3312 15.7086 53.5607 13.4791 56.3012 13.4791ZM88.7377 36.001L87.7559 35.8074L87.0912 34.2033L87.649 33.3717C88.167 32.5988 88.0654 31.5603 87.4076 30.9025L85.1799 28.675C84.5221 28.0166 83.4834 27.9152 82.7102 28.4336L81.8789 28.991L80.2748 28.3264L80.0813 27.3447C79.9016 26.4314 79.0955 25.7687 78.1646 25.7687H75.0139C74.0832 25.7687 73.2772 26.4314 73.0973 27.3443L72.9037 28.3264L71.2996 28.9908L70.4682 28.4332C69.6953 27.915 68.6568 28.0166 67.9988 28.6744L65.7709 30.9023C65.1129 31.5604 65.0115 32.5988 65.5299 33.3717L66.0873 34.2031L65.4227 35.8072L64.441 36.0008C63.5279 36.1807 62.8652 36.9867 62.8652 37.9174V41.0682C62.8652 41.9988 63.5279 42.8049 64.4408 42.9848L65.4229 43.1783L66.0875 44.7824L65.5299 45.6141C65.0119 46.3867 65.1133 47.425 65.7711 48.0834L67.999 50.3113C68.6568 50.9693 69.6955 51.0705 70.4686 50.5523L71.2998 49.9949L72.9039 50.6594L73.0975 51.6416C73.2775 52.5545 74.0836 53.2172 75.0141 53.2172H78.1648C79.0957 53.2172 79.9018 52.5543 80.0814 51.6416L80.2752 50.6596L81.8793 49.9949L82.7107 50.5525C83.4838 51.0707 84.5223 50.9693 85.1801 50.3113L87.4082 48.0832C88.066 47.425 88.1674 46.3865 87.649 45.6141L87.0916 44.7826L87.7562 43.1785L88.7381 42.985C89.651 42.8049 90.3137 41.9988 90.3137 41.0684V37.9176C90.3137 36.9871 89.651 36.1811 88.7379 36.001H88.7377ZM87.5791 40.4266L86.5086 40.6377C86.06 40.7262 85.6852 41.0332 85.5102 41.4557L84.2852 44.4127C84.1102 44.8353 84.158 45.3174 84.4127 45.6975L85.0205 46.6041L83.7004 47.9242L82.7939 47.3164C82.4141 47.0617 81.9316 47.0139 81.5092 47.1889L78.5521 48.4139C78.1295 48.5889 77.8227 48.9637 77.7342 49.4123L77.523 50.483H75.6561L75.4449 49.4125C75.3564 48.9639 75.0494 48.5891 74.627 48.4139L71.6699 47.1889C71.2475 47.0137 70.765 47.0615 70.3852 47.3164L69.4787 47.9242L68.1586 46.6041L68.7664 45.6975C69.0213 45.3176 69.0691 44.8353 68.8939 44.4127L67.6689 41.4557C67.4939 41.033 67.1191 40.7262 66.6705 40.6377L65.6 40.4266V38.5596L66.6705 38.3484C67.1193 38.26 67.4939 37.9529 67.6691 37.5305L68.8941 34.5734C69.0691 34.1508 69.0213 33.6687 68.7666 33.2887L68.1588 32.382L69.4789 31.0619L70.3854 31.6697C70.7652 31.9244 71.2477 31.9723 71.6701 31.7973L74.6272 30.5723C75.0498 30.3973 75.3566 30.0225 75.4451 29.5736L75.6562 28.5031H77.5232L77.7344 29.5736C77.8229 30.0225 78.1299 30.3971 78.5523 30.5723L81.5094 31.7973C81.9318 31.9723 82.4141 31.9244 82.7941 31.6697L83.7006 31.0619L85.0207 32.382L84.4129 33.2885C84.158 33.6684 84.1102 34.1506 84.2854 34.5732L85.5104 37.5303C85.6853 37.9529 86.0602 38.2598 86.509 38.3482L87.5795 38.5594V40.4264L87.5791 40.4266ZM76.5893 31.7889C72.3412 31.7889 68.885 35.2449 68.885 39.493C68.885 43.741 72.341 47.1973 76.5893 47.1973C80.8375 47.1973 84.2934 43.741 84.2934 39.493C84.2934 35.2449 80.8373 31.7889 76.5893 31.7889ZM76.5893 44.4631C73.8488 44.4631 71.6193 42.2336 71.6193 39.4932C71.6193 36.7527 73.8488 34.5234 76.5893 34.5234C79.3297 34.5234 81.559 36.7529 81.559 39.4932C81.559 42.2334 79.3295 44.4631 76.5893 44.4631ZM90.4883 10.842C90.4883 11.5971 89.8762 12.2092 89.1211 12.2092H77.2559C76.5008 12.2092 75.8887 11.5971 75.8887 10.842C75.8887 10.0869 76.5008 9.4748 77.2559 9.4748H89.1211C89.8762 9.4748 90.4883 10.0869 90.4883 10.842ZM90.4883 16.1887C90.4883 16.9437 89.8762 17.5559 89.1211 17.5559H73.8867C73.1316 17.5559 72.5195 16.9437 72.5195 16.1887C72.5195 15.4336 73.1316 14.8215 73.8867 14.8215H89.1211C89.8762 14.8215 90.4883 15.4336 90.4883 16.1887ZM90.4883 21.5353C90.4883 22.2904 89.8762 22.9025 89.1211 22.9025H80.7715C80.0164 22.9025 79.4043 22.2904 79.4043 21.5353C79.4043 20.7803 80.0164 20.1682 80.7715 20.1682H89.1211C89.8762 20.1682 90.4883 20.7803 90.4883 21.5353Z" fill="#CFA935"/>
</g>
<defs>
<clipPath id="clip0_10215_8008">
<rect width="100" height="100" fill="white" transform="translate(0.00195312)"/>
</clipPath>
</defs>
</svg>
