<svg width="100" height="100" viewBox="0 0 100 100" fill="none" xmlns="http://www.w3.org/2000/svg">
<path d="M67.6501 90.0458H28.8089C28.0324 90.0458 27.3972 89.4164 27.3972 88.64C27.3854 85.5635 27.5148 77.8753 28.9089 72.9047C29.2854 71.5576 29.7442 70.4576 30.356 69.44C30.8736 68.5811 32.356 66.4164 35.0148 64.9164C37.4736 63.5341 39.8266 63.3282 41.3677 63.3988C41.6442 63.4105 41.9089 63.5047 42.1324 63.6694L48.0736 67.9988L54.356 63.6458C54.5736 63.4929 54.8324 63.4105 55.0972 63.3988C56.6383 63.3282 58.9913 63.5341 61.4501 64.9164C64.1089 66.4105 65.5913 68.5752 66.1089 69.44C66.7148 70.4576 67.1795 71.5576 67.556 72.9047C68.9501 77.8753 69.0795 85.5635 69.0677 88.64C69.056 89.4164 68.4266 90.0458 67.6501 90.0458ZM48.1795 87.2223H66.2324C66.1913 83.9988 65.9619 77.7047 64.8324 73.6635C64.5207 72.5517 64.1677 71.6929 63.6795 70.8811C63.2795 70.2105 62.1266 68.5341 60.0619 67.3694C58.3913 66.4282 56.7854 66.1988 55.6266 66.1988C55.6207 66.1988 55.6207 66.1988 55.6148 66.1988L48.856 70.8811C48.3619 71.2223 47.703 71.2164 47.2207 70.8635L40.8266 66.2047C39.6677 66.2047 38.0619 66.4341 36.3972 67.3753C34.3266 68.54 33.1795 70.2164 32.7795 70.887C32.2972 71.6988 31.9383 72.5517 31.6266 73.6694C30.4972 77.7047 30.2677 83.9988 30.2266 87.2282L48.1795 87.2223Z" fill="#CFA935"/>
<path d="M36.9938 90.0458C36.2114 90.0458 35.582 89.4164 35.582 88.6341V77.7282C35.582 76.9458 36.2114 76.3164 36.9938 76.3164C37.7761 76.3164 38.4056 76.9458 38.4056 77.7282V88.6341C38.4056 89.4105 37.7703 90.0458 36.9938 90.0458Z" fill="#CFA935"/>
<path d="M59.4625 90.0458C58.6802 90.0458 58.0508 89.4164 58.0508 88.6341V77.7282C58.0508 76.9458 58.6802 76.3164 59.4625 76.3164C60.2449 76.3164 60.8743 76.9458 60.8743 77.7282V88.6341C60.8743 89.4105 60.2449 90.0458 59.4625 90.0458Z" fill="#CFA935"/>
<path d="M48.2748 63.3632C45.4807 63.3632 42.8689 62.1691 40.9101 59.9985C38.9866 57.8691 37.9277 55.0515 37.9277 52.0573V47.8809C37.9277 47.2809 38.3101 46.7456 38.8807 46.5456C39.363 46.375 40.7983 45.7456 41.5748 44.8868C42.0807 44.3279 42.9101 44.2515 43.4924 44.722C43.5689 44.775 44.616 45.5338 46.4042 45.9162C48.8866 46.4456 51.5748 46.0397 54.3807 44.7162C54.816 44.5103 55.3277 44.5397 55.7395 44.7985C55.8454 44.8632 55.9336 44.9397 56.016 45.0279C56.3042 45.3279 57.1983 46.1985 57.9571 46.6691C58.3748 46.9279 58.6277 47.3809 58.6277 47.8691V52.0573C58.6277 55.0515 57.5689 57.8691 55.6454 59.9985C53.6866 62.1691 51.0689 63.3632 48.2748 63.3632ZM40.7513 48.822V52.0573C40.7513 56.7338 44.1277 60.5397 48.2748 60.5397C52.4219 60.5397 55.7983 56.7338 55.7983 52.0573V48.6162C55.4571 48.3632 55.1042 48.0632 54.7336 47.722C54.716 47.7044 54.6924 47.6868 54.6748 47.6691C50.7924 49.2691 47.6395 49.0926 45.6277 48.6338C44.3983 48.3515 43.4395 47.9397 42.7807 47.5926C42.0807 48.1397 41.3277 48.5515 40.7513 48.822Z" fill="#CFA935"/>
<path d="M39.3414 49.2933C38.7943 49.2933 38.2767 48.9756 38.0472 48.4404C37.5472 47.2756 37.4649 46.0521 37.4002 44.9698C37.3472 44.0874 37.2767 42.9874 37.5355 41.8992C37.7649 40.9404 38.3237 39.9286 39.2414 38.8109C39.3825 38.6345 39.5355 38.4639 39.6884 38.2992C42.1414 35.6698 46.1708 34.6404 46.9531 34.4639C48.4825 34.1109 49.9531 33.9874 51.3178 34.0933C52.2767 34.1698 53.0943 34.2992 53.812 34.5051C54.8355 34.7933 55.6414 35.3521 56.1355 36.1168C56.3825 36.4992 56.5296 36.8756 56.659 37.2109C56.759 37.4756 56.8531 37.7227 56.959 37.8404C57.1237 38.0345 57.3531 38.2168 57.6178 38.4227C57.9296 38.6698 58.2884 38.9521 58.6178 39.3227C59.4002 40.2051 60.2825 41.6874 60.4178 43.1874C60.5472 44.5933 60.0002 45.7992 59.5061 46.6992C59.4943 46.7227 59.4649 46.7815 59.4237 46.858C58.5943 48.4639 58.412 48.7109 58.1767 48.9227C57.6002 49.4462 56.7061 49.4109 56.1825 48.8345C55.6943 48.2992 55.6943 47.4992 56.1531 46.9639C56.2355 46.8404 56.4355 46.4874 56.9178 45.558C56.9767 45.4462 57.0178 45.3698 57.0296 45.3404C57.4708 44.5345 57.6472 43.9462 57.6002 43.4404C57.5414 42.7874 57.0884 41.8639 56.4943 41.1933C56.3296 41.0109 56.112 40.8404 55.859 40.6404C55.5237 40.3756 55.1414 40.0756 54.7943 39.6639C54.3884 39.1815 54.1825 38.6521 54.0178 38.2286C53.9296 37.9992 53.8472 37.7874 53.759 37.6521C53.6002 37.4109 53.2414 37.2815 53.0414 37.2227C52.5061 37.0698 51.8708 36.9698 51.0943 36.9109C50.012 36.8286 48.8296 36.9345 47.5767 37.2227C45.8061 37.6286 43.212 38.6639 41.7414 40.2345C41.6296 40.3521 41.5237 40.4756 41.4178 40.6051C40.6296 41.5698 40.359 42.1992 40.2767 42.5639C40.1178 43.2404 40.1649 44.0345 40.212 44.7992C40.2708 45.6933 40.3237 46.6168 40.6355 47.3227C40.9472 48.0404 40.6178 48.8698 39.9002 49.1815C39.7178 49.2521 39.5296 49.2933 39.3414 49.2933Z" fill="#CFA935"/>
<path d="M42.9032 67.3866C42.7032 67.3866 42.4973 67.3454 42.3032 67.2513C41.5973 66.9219 41.2914 66.0807 41.6208 65.3748C41.9032 64.7689 42.2796 63.0748 42.3032 61.9631C42.3149 61.5395 42.262 61.3631 42.1679 61.0101C42.1443 60.9278 42.1208 60.8454 42.0973 60.7513C41.8973 59.9984 42.3502 59.2278 43.1032 59.0278C43.8561 58.8278 44.6267 59.2807 44.8267 60.0336C44.8443 60.1101 44.8679 60.1807 44.8855 60.2513C45.009 60.6925 45.1443 61.1866 45.1208 62.0336C45.0855 63.316 44.6973 65.4454 44.1679 66.5689C43.9443 67.0866 43.4385 67.3866 42.9032 67.3866Z" fill="#CFA935"/>
<path d="M53.4568 67.3989C52.945 67.3989 52.4509 67.1165 52.198 66.6342C51.6333 65.5283 51.1392 63.3871 51.098 61.8577C51.0803 61.1695 51.1686 60.7224 51.2568 60.3695C51.4509 59.6165 52.2156 59.1577 52.9744 59.3459C53.7274 59.5401 54.1862 60.3048 53.998 61.0636C53.9509 61.2459 53.9156 61.4283 53.9215 61.7871C53.9509 62.9871 54.3686 64.6871 54.7097 65.3459C55.0686 66.0401 54.7921 66.893 54.098 67.2459C53.8921 67.3459 53.6744 67.3989 53.4568 67.3989Z" fill="#CFA935"/>
<path d="M78.8042 39.6687C78.0219 39.6687 77.3924 39.0393 77.3924 38.2569C77.3924 37.4687 76.7513 36.8275 75.963 36.8275H63.8395C63.0571 36.8275 62.4277 36.1981 62.4277 35.4157V12.3981C62.4277 11.6157 63.0571 10.9863 63.8395 10.9863H75.963C77.0572 10.9863 78.0513 11.3981 78.8042 12.0746C79.5571 11.3981 80.5571 10.9863 81.6454 10.9863H93.763C94.5454 10.9863 95.1748 11.6157 95.1748 12.3981V35.4157C95.1748 36.1981 94.5454 36.8275 93.763 36.8275H81.6395C80.8513 36.8275 80.2101 37.4687 80.2101 38.2569C80.216 39.0393 79.5866 39.6687 78.8042 39.6687ZM80.216 15.2393V34.251C80.663 34.0922 81.1454 34.004 81.6454 34.004H92.3513V13.8099H81.6395C80.8572 13.8099 80.216 14.451 80.216 15.2393ZM65.2572 34.004H75.9689C76.4689 34.004 76.9513 34.0922 77.3983 34.251V15.2393C77.3983 14.451 76.7572 13.8099 75.9689 13.8099H65.2572V34.004Z" fill="#CFA935"/>
<path d="M88.4147 19.4993H84.1559C83.3736 19.4993 82.7441 18.8699 82.7441 18.0875C82.7441 17.3052 83.3736 16.6758 84.1559 16.6758H88.4147C89.1971 16.6758 89.8265 17.3052 89.8265 18.0875C89.8265 18.8699 89.1971 19.4993 88.4147 19.4993Z" fill="#CFA935"/>
<path d="M88.4147 25.3226H84.1559C83.3736 25.3226 82.7441 24.6931 82.7441 23.9108C82.7441 23.1284 83.3736 22.499 84.1559 22.499H88.4147C89.1971 22.499 89.8265 23.1284 89.8265 23.9108C89.8265 24.6931 89.1971 25.3226 88.4147 25.3226Z" fill="#CFA935"/>
<path d="M88.4147 31.1468H84.1559C83.3736 31.1468 82.7441 30.5174 82.7441 29.735C82.7441 28.9527 83.3736 28.3232 84.1559 28.3232H88.4147C89.1971 28.3232 89.8265 28.9527 89.8265 29.735C89.8265 30.5174 89.1971 31.1468 88.4147 31.1468Z" fill="#CFA935"/>
<path d="M73.4596 19.4993H69.2008C68.4185 19.4993 67.7891 18.8699 67.7891 18.0875C67.7891 17.3052 68.4185 16.6758 69.2008 16.6758H73.4596C74.242 16.6758 74.8714 17.3052 74.8714 18.0875C74.8714 18.8699 74.2361 19.4993 73.4596 19.4993Z" fill="#CFA935"/>
<path d="M73.4596 25.3226H69.2008C68.4185 25.3226 67.7891 24.6931 67.7891 23.9108C67.7891 23.1284 68.4185 22.499 69.2008 22.499H73.4596C74.242 22.499 74.8714 23.1284 74.8714 23.9108C74.8714 24.6931 74.2361 25.3226 73.4596 25.3226Z" fill="#CFA935"/>
<path d="M73.4596 31.1468H69.2008C68.4185 31.1468 67.7891 30.5174 67.7891 29.735C67.7891 28.9527 68.4185 28.3232 69.2008 28.3232H73.4596C74.242 28.3232 74.8714 28.9527 74.8714 29.735C74.8714 30.5174 74.2361 31.1468 73.4596 31.1468Z" fill="#CFA935"/>
<path d="M20.2008 31.2346C16.9479 31.2346 14.2949 28.5876 14.2949 25.3287C14.2949 22.0699 16.942 19.4229 20.2008 19.4229C23.4596 19.4229 26.1067 22.0699 26.1067 25.3287C26.1067 28.5876 23.4596 31.2346 20.2008 31.2346ZM20.2008 22.2464C18.5008 22.2464 17.1185 23.6287 17.1185 25.3287C17.1185 27.0287 18.5008 28.4111 20.2008 28.4111C21.9008 28.4111 23.2832 27.0287 23.2832 25.3287C23.2832 23.6287 21.9008 22.2464 20.2008 22.2464Z" fill="#CFA935"/>
<path d="M23.085 40.71H17.3203C16.5379 40.71 15.9085 40.0806 15.9085 39.2982V36.5865C15.6968 36.5041 15.485 36.4159 15.2791 36.3276L13.3615 38.2453C13.0968 38.51 12.7379 38.6571 12.3615 38.6571C11.985 38.6571 11.6262 38.51 11.3615 38.2453L7.285 34.1688C6.73205 33.6159 6.73205 32.7218 7.285 32.1747L9.20264 30.2571C9.10852 30.0512 9.02029 29.8394 8.94382 29.6276H6.23794C5.45558 29.6276 4.82617 28.9982 4.82617 28.2159V22.4512C4.82617 21.6688 5.45558 21.0394 6.23794 21.0394H8.9497C9.03205 20.8276 9.12029 20.6159 9.20853 20.41L7.29088 18.4923C7.02617 18.2276 6.87911 17.8688 6.87911 17.4923C6.87911 17.1159 7.02617 16.7571 7.29088 16.4923L11.3673 12.4159C11.9203 11.8629 12.8144 11.8629 13.3615 12.4159L15.2791 14.3335C15.485 14.2394 15.6968 14.1512 15.9085 14.0747V11.3629C15.9085 10.5806 16.5379 9.95117 17.3203 9.95117H23.085C23.8673 9.95117 24.4968 10.5806 24.4968 11.3629V14.0747C24.7085 14.1571 24.9203 14.2453 25.1262 14.3335L27.0438 12.4159C27.5968 11.8629 28.4909 11.8629 29.0379 12.4159L33.1144 16.4923C33.6674 17.0453 33.6674 17.9394 33.1144 18.4865L31.1968 20.4041C31.2909 20.61 31.3791 20.8218 31.4556 21.0335H34.1673C34.9497 21.0335 35.5791 21.6629 35.5791 22.4453V28.21C35.5791 28.9923 34.9497 29.6218 34.1673 29.6218H31.4556C31.3732 29.8335 31.285 30.0453 31.1968 30.2512L33.1144 32.1688C33.6674 32.7218 33.6674 33.6159 33.1144 34.1629L29.0379 38.2394C28.485 38.7923 27.5909 38.7923 27.0438 38.2394L25.1262 36.3218C24.9203 36.4159 24.7085 36.5041 24.4968 36.5806V39.2923C24.4968 40.0747 23.8673 40.71 23.085 40.71ZM18.7321 37.8865H21.6732V35.5688C21.6732 34.9335 22.0968 34.3806 22.7026 34.21C23.3968 34.0159 24.0732 33.7335 24.7144 33.3747C25.2673 33.0629 25.9556 33.1571 26.4026 33.61L28.0438 35.2512L30.1203 33.1747L28.485 31.5276C28.0379 31.0806 27.9438 30.3923 28.2497 29.8394C28.6085 29.2041 28.885 28.5276 29.085 27.8276C29.2556 27.2159 29.8085 26.7982 30.4438 26.7982H32.7615V23.8571H30.4438C29.8085 23.8571 29.2556 23.4335 29.085 22.8276C28.8909 22.1335 28.6085 21.4571 28.2497 20.8159C27.9379 20.2629 28.0321 19.5747 28.485 19.1276L30.1262 17.4865L28.0438 15.41L26.4026 17.0512C25.9556 17.4982 25.2673 17.5923 24.7144 17.2865C24.0791 16.9276 23.4026 16.6512 22.7026 16.4512C22.0909 16.2806 21.6732 15.7218 21.6732 15.0923V12.7747H18.7321V15.0923C18.7321 15.7276 18.3085 16.2806 17.7026 16.4512C17.0085 16.6453 16.3321 16.9276 15.6909 17.2865C15.1379 17.5982 14.4497 17.5041 14.0026 17.0512L12.3673 15.41L10.2909 17.4865L11.9321 19.1276C12.3791 19.5747 12.4732 20.2629 12.1673 20.8159C11.8085 21.4512 11.5321 22.1276 11.3321 22.8276C11.1615 23.4394 10.6026 23.8571 9.97323 23.8571H7.6497V26.7982H9.96735C10.6026 26.7982 11.1556 27.2218 11.3262 27.8276C11.5203 28.5218 11.8026 29.1982 12.1615 29.8394C12.4732 30.3923 12.3791 31.0806 11.9262 31.5276L10.285 33.1688L12.3615 35.2453L14.0026 33.6041C14.4497 33.1571 15.1379 33.0629 15.6909 33.3688C16.3262 33.7276 17.0026 34.0041 17.7026 34.2041C18.3144 34.3747 18.7321 34.9276 18.7321 35.5629V37.8865Z" fill="#CFA935"/>
<path d="M78.7992 56.3399H69.6051C68.8228 56.3399 68.1934 55.7105 68.1934 54.9281C68.1934 54.1458 68.8228 53.5164 69.6051 53.5164H77.3875V45.7399C77.3875 44.9575 78.0169 44.3281 78.7992 44.3281C79.5816 44.3281 80.211 44.9575 80.211 45.7399V54.934C80.211 55.7105 79.5816 56.3399 78.7992 56.3399Z" fill="#CFA935"/>
<path d="M29.393 56.3399H20.1989C19.4165 56.3399 18.7871 55.7105 18.7871 54.9281V45.7399C18.7871 44.9575 19.4165 44.3281 20.1989 44.3281C20.9812 44.3281 21.6106 44.9575 21.6106 45.7399V53.5222H29.393C30.1753 53.5222 30.8048 54.1517 30.8048 54.934C30.8048 55.7164 30.1695 56.3399 29.393 56.3399Z" fill="#CFA935"/>
<path d="M54.8606 25.6517H43.9665C43.1841 25.6517 42.5547 25.0222 42.5547 24.2399C42.5547 23.4575 43.1841 22.8281 43.9665 22.8281H54.8606C55.6429 22.8281 56.2723 23.4575 56.2723 24.2399C56.2723 25.0222 55.637 25.6517 54.8606 25.6517Z" fill="#CFA935"/>
</svg>
