<svg width="16" height="16" viewBox="0 0 16 16" fill="none" xmlns="http://www.w3.org/2000/svg">
<path d="M6.89525 10.5773C6.47578 12.7758 5.96388 14.8834 4.44694 15.9844C3.97831 12.6616 5.13425 10.166 5.67109 7.51652C4.75569 5.97615 5.78103 2.87596 7.71125 3.63968C10.0863 4.57924 5.65472 9.36715 8.62938 9.96521C11.7358 10.5894 13.004 4.57533 11.0781 2.61977C8.29488 -0.204353 2.97672 2.55546 3.63053 6.59877C3.78959 7.58708 4.81069 7.8869 4.03872 9.2514C2.25744 8.85608 1.72606 7.4514 1.79428 5.57849C1.90459 2.51262 4.54869 0.366397 7.20128 0.0693346C10.5557 -0.306103 13.7038 1.30052 14.1385 4.45608C14.6282 8.0179 12.6247 11.8752 9.03756 11.5976C8.06522 11.522 7.65703 11.0401 6.89525 10.5773Z" fill="#D4AB4C"/>
</svg>
