<svg width="145" height="235" viewBox="0 0 145 235" fill="none" xmlns="http://www.w3.org/2000/svg">
<g opacity="0.1" clip-path="url(#clip0_7839_4312)">
<path fill-rule="evenodd" clip-rule="evenodd" d="M166.611 94.5505C164.775 94.5505 162.939 93.1735 162.939 90.8786V61.0446L118.418 78.027C117.041 78.486 114.746 77.568 114.287 76.1911C113.369 74.3552 114.287 72.5192 116.123 71.6012L165.234 52.7829C166.152 52.3239 167.07 52.7829 167.988 53.2419C169.365 53.7009 169.824 55.0778 169.824 55.9958V90.8786C169.824 93.1735 168.447 94.5505 166.611 94.5505Z" fill="white"/>
<path fill-rule="evenodd" clip-rule="evenodd" d="M117.5 128.057C115.664 128.057 113.828 126.68 113.828 124.844V77.1099L71.6016 61.0454V90.8794C71.6016 93.1743 70.2246 94.5513 67.9297 94.5513C66.0938 94.5513 65.1758 93.1743 65.1758 91.3384V55.9966C65.1758 55.0786 65.6348 54.1606 66.5527 53.2427C67.4707 52.7837 68.8477 52.7837 69.7656 53.2427L118.418 71.6021C119.795 72.52 120.713 73.438 120.713 74.8149V124.844C120.713 126.68 119.336 128.057 117.5 128.057Z" fill="white"/>
<path fill-rule="evenodd" clip-rule="evenodd" d="M166.611 59.209C166.152 59.209 165.693 59.209 165.234 59.209L117.5 40.8496L69.3062 59.209C67.9292 59.668 65.6343 59.209 65.1753 57.373C64.7163 55.5371 65.1753 53.7012 67.0112 52.7832L116.123 33.9648H118.417L167.529 52.7832C169.365 53.2422 170.283 55.5371 169.365 57.373C169.365 58.75 167.988 59.209 166.611 59.209Z" fill="white"/>
<path fill-rule="evenodd" clip-rule="evenodd" d="M52.324 184.97C50.947 184.97 50.0291 184.052 49.5701 182.675C48.6521 181.299 49.5701 179.463 51.406 178.545L67.4705 172.578C69.3064 171.66 71.1423 172.578 71.6013 174.414C72.5193 175.791 71.6013 178.086 69.7654 178.545L53.7009 184.97C53.242 184.97 52.783 184.97 52.324 184.97ZM101.435 134.023C99.5994 134.023 98.2224 132.646 98.2224 130.81V108.779L53.7009 125.761C51.865 126.22 50.0291 125.302 49.1111 123.925C48.6521 122.09 49.5701 120.254 50.947 119.336L100.058 100.517C100.976 100.058 102.353 100.517 103.271 100.976C104.189 101.435 104.648 102.812 104.648 103.73V130.81C104.648 132.646 103.271 134.023 101.435 134.023Z" fill="white"/>
<path fill-rule="evenodd" clip-rule="evenodd" d="M52.3242 184.971C52.3242 184.971 51.8652 184.971 51.4062 184.971L2.29492 166.153C0.917969 165.694 0 164.317 0 162.94V103.731C0 102.813 0.458984 101.895 1.37695 100.977C2.29492 100.518 3.67188 100.518 4.58984 100.977L53.7012 119.336C55.0781 119.795 55.5371 121.172 55.5371 122.549V181.758C55.5371 182.676 55.0781 183.594 54.1602 184.053C53.7012 184.971 53.2422 184.971 52.3242 184.971ZM6.88477 160.645L49.1113 176.709V124.844L6.88477 108.78V160.645Z" fill="white"/>
<path fill-rule="evenodd" clip-rule="evenodd" d="M101.435 106.943C100.976 106.943 100.976 106.943 100.517 106.943L52.324 88.584L4.58962 106.943C2.75368 107.402 0.917746 106.484 -0.000222668 105.107C-0.459207 103.271 0.458762 101.436 2.2947 100.518L50.947 81.6992H53.242L102.353 100.518C104.189 100.977 105.107 103.271 104.648 105.107C104.189 106.484 102.812 106.943 101.435 106.943Z" fill="white"/>
<path fill-rule="evenodd" clip-rule="evenodd" d="M182.676 184.971C182.217 184.971 181.758 184.971 181.299 184.971L165.234 178.545C163.398 178.086 162.48 175.792 163.398 174.415C163.857 172.579 166.152 171.661 167.988 172.579L179.463 176.709V124.844L136.777 108.78V130.811C136.777 132.647 135.4 134.024 133.564 134.024C131.729 134.024 129.893 132.647 129.893 130.811V103.731C129.893 102.813 130.352 101.895 131.729 100.977C132.646 100.518 133.564 100.518 134.482 100.977L183.594 119.336C184.971 120.254 185.889 121.172 185.889 122.549V181.758C185.889 182.676 184.971 184.053 184.053 184.512C184.053 184.971 183.135 184.971 182.676 184.971Z" fill="white"/>
<path fill-rule="evenodd" clip-rule="evenodd" d="M231.787 106.943C231.328 106.943 230.869 106.943 230.41 106.943L182.676 88.584L134.482 106.943C132.646 107.402 130.81 106.484 130.351 105.107C129.433 103.271 130.351 101.436 132.187 100.518L181.299 81.6992H183.594L232.705 100.518C234.082 100.977 235 103.271 234.541 105.107C234.082 106.484 232.705 106.943 231.787 106.943Z" fill="white"/>
<path fill-rule="evenodd" clip-rule="evenodd" d="M117.5 224.902C116.123 224.902 114.746 223.984 114.287 222.607C113.828 220.771 114.746 218.935 116.123 218.017L163.398 200.117V148.252L118.418 165.234C117.041 165.693 114.746 164.775 114.287 163.398C113.369 161.562 114.287 159.726 116.123 158.808L165.234 139.99C166.152 139.531 167.07 139.99 167.988 140.449C169.365 140.908 169.824 142.285 169.824 143.203V202.412C169.824 203.789 168.906 205.166 167.529 205.625L118.418 224.443C117.959 224.443 117.959 224.902 117.5 224.902Z" fill="white"/>
<path fill-rule="evenodd" clip-rule="evenodd" d="M117.5 224.902C117.041 224.902 116.582 224.902 116.123 224.443L67.0117 205.625C65.6348 205.166 65.1758 204.248 65.1758 202.871V143.203C65.1758 142.285 65.6348 141.367 66.5527 140.908C67.4707 139.99 68.8477 139.99 69.7656 140.449L118.418 158.808C119.795 159.726 120.713 160.644 120.713 162.021V221.23C120.713 222.607 120.254 223.525 119.336 223.984C118.877 224.443 117.959 224.902 117.5 224.902ZM71.6016 200.117L114.287 216.64V164.316L71.6016 148.252V200.117Z" fill="white"/>
<path fill-rule="evenodd" clip-rule="evenodd" d="M166.611 146.875C166.152 146.875 165.693 146.875 165.234 146.417L117.5 128.057L69.3062 146.417C67.9292 147.334 65.6343 146.417 65.1753 144.581C64.7163 143.204 65.1753 140.909 67.0112 140.45L116.123 121.631C117.041 121.172 117.5 121.172 118.417 121.631L167.529 140.45C169.365 140.909 170.283 143.204 169.365 144.581C169.365 145.958 167.988 146.875 166.611 146.875Z" fill="white"/>
<path fill-rule="evenodd" clip-rule="evenodd" d="M13.7695 51.4062C6.88477 51.4062 0.917969 45.8984 0.917969 38.5547C0.917969 31.6699 6.88477 26.1621 13.7695 26.1621C20.6543 26.1621 26.6211 31.6699 26.6211 38.5547C26.6211 45.8984 20.6543 51.4062 13.7695 51.4062ZM13.7695 32.5879C10.0977 32.5879 7.80273 35.3418 7.80273 38.5547C7.80273 42.2266 10.0977 44.9805 13.7695 44.9805C16.9824 44.9805 20.1953 42.2266 20.1953 38.5547C19.7363 35.3418 16.9824 32.5879 13.7695 32.5879Z" fill="white"/>
<path fill-rule="evenodd" clip-rule="evenodd" d="M54.1602 48.6523C47.2754 48.6523 41.3086 42.6855 41.3086 35.8008C41.3086 28.457 47.2754 22.4902 54.1602 22.4902C61.5039 22.4902 67.0117 28.457 67.0117 35.8008C67.0117 42.6855 61.5039 48.6523 54.1602 48.6523ZM54.1602 29.375C50.9473 29.375 48.1934 32.1289 48.1934 35.8008C48.1934 39.0137 50.9473 41.7676 54.1602 41.7676C57.832 41.7676 60.5859 39.0137 60.5859 35.8008C60.5859 32.1289 57.832 29.375 54.1602 29.375Z" fill="white"/>
<path fill-rule="evenodd" clip-rule="evenodd" d="M117.5 40.8496C115.664 40.8496 113.828 39.4727 113.828 37.6367V13.7695C113.828 11.9336 115.664 10.0977 117.5 10.0977C119.336 10.0977 120.713 11.9336 120.713 13.7695V37.6367C120.713 39.4727 119.336 40.8496 117.5 40.8496Z" fill="white"/>
<path fill-rule="evenodd" clip-rule="evenodd" d="M28.9156 157.891C27.5386 157.891 26.6206 157.432 26.1617 156.514L14.6871 136.319C13.7691 134.942 14.2281 132.647 15.605 131.729C16.982 130.811 19.2769 131.729 20.1949 133.106L31.6695 152.842C32.5874 154.219 32.1285 156.514 30.7515 157.432C29.8335 157.891 29.3746 157.891 28.9156 157.891Z" fill="white"/>
<path fill-rule="evenodd" clip-rule="evenodd" d="M38.0956 153.76C37.1776 153.76 35.8007 153.301 35.3417 151.924L23.8671 132.188C22.9491 130.811 23.8671 128.516 25.244 127.598C26.621 126.68 28.9159 127.139 29.8339 128.975L40.8495 148.711C42.2264 150.088 41.3085 151.924 39.9315 153.301C39.4725 153.76 38.5546 153.76 38.0956 153.76Z" fill="white"/>
<path fill-rule="evenodd" clip-rule="evenodd" d="M124.384 54.6191C123.466 54.6191 122.089 54.1602 121.63 52.7832C120.712 51.4062 121.171 49.1113 122.548 48.1934L150.087 32.5879C150.546 32.1289 151.005 32.1289 151.923 32.1289H180.38C182.675 32.1289 184.052 33.9648 184.052 35.8008C184.052 37.6367 182.675 39.0137 180.38 39.0137H152.841L126.22 54.6191C125.761 54.6191 124.843 54.6191 124.384 54.6191Z" fill="white"/>
<path fill-rule="evenodd" clip-rule="evenodd" d="M110.156 54.6191C109.697 54.6191 109.238 54.6191 108.779 54.1602L82.1582 39.0137H54.1602C52.3242 39.0137 50.9473 37.6367 50.9473 35.3418C50.9473 33.5059 52.3242 32.1289 54.1602 32.1289H83.0762C83.5352 32.1289 83.9941 32.1289 84.9121 32.5879L111.992 48.1934C113.369 49.1113 114.287 50.9473 113.369 52.7832C112.451 54.1602 111.533 54.6191 110.156 54.6191Z" fill="white"/>
<path fill-rule="evenodd" clip-rule="evenodd" d="M37.6367 108.32C35.8008 108.32 33.9648 106.943 33.9648 105.107V78.9453H13.7695C11.9336 78.9453 10.0977 77.5684 10.0977 75.7324V38.5547C10.0977 36.7188 11.9336 35.3418 13.7695 35.3418C15.6055 35.3418 16.9824 36.7188 16.9824 38.5547V72.5195H37.6367C39.9316 72.5195 41.3086 73.8965 41.3086 75.7324V105.107C40.8496 106.943 39.4727 108.32 37.6367 108.32Z" fill="white"/>
</g>
<defs>
<clipPath id="clip0_7839_4312">
<rect width="235" height="235" fill="white"/>
</clipPath>
</defs>
</svg>
