<svg width="103" height="135" viewBox="0 0 103 135" fill="none" xmlns="http://www.w3.org/2000/svg">
<path d="M53 0C25.3857 0 3 22.3857 3 50C3 77.6143 25.3857 100 53 100C80.6143 100 103 77.6143 103 50C103 22.3857 80.6143 0 53 0ZM39.3385 71.7471V28.2529L77.0055 50L39.3385 71.7471Z" fill="#CFA935"/>
<path d="M1.84239 127V114.4H7.02639C8.14239 114.4 9.09639 114.58 9.88839 114.94C10.6924 115.3 11.3104 115.816 11.7424 116.488C12.1744 117.16 12.3904 117.958 12.3904 118.882C12.3904 119.806 12.1744 120.604 11.7424 121.276C11.3104 121.948 10.6924 122.464 9.88839 122.824C9.09639 123.184 8.14239 123.364 7.02639 123.364H3.13839L4.18239 122.266V127H1.84239ZM4.18239 122.518L3.13839 121.384H6.91839C7.95039 121.384 8.72439 121.168 9.24039 120.736C9.76839 120.292 10.0324 119.674 10.0324 118.882C10.0324 118.078 9.76839 117.46 9.24039 117.028C8.72439 116.596 7.95039 116.38 6.91839 116.38H3.13839L4.18239 115.228V122.518ZM14.6869 127V113.644H16.9369V127H14.6869ZM25.8121 127V125.056L25.6861 124.642V121.24C25.6861 120.58 25.4881 120.07 25.0921 119.71C24.6961 119.338 24.0961 119.152 23.2921 119.152C22.7521 119.152 22.2181 119.236 21.6901 119.404C21.1741 119.572 20.7361 119.806 20.3761 120.106L19.4941 118.468C20.0101 118.072 20.6221 117.778 21.3301 117.586C22.0501 117.382 22.7941 117.28 23.5621 117.28C24.9541 117.28 26.0281 117.616 26.7841 118.288C27.5521 118.948 27.9361 119.974 27.9361 121.366V127H25.8121ZM22.7881 127.126C22.0681 127.126 21.4381 127.006 20.8981 126.766C20.3581 126.514 19.9381 126.172 19.6381 125.74C19.3501 125.296 19.2061 124.798 19.2061 124.246C19.2061 123.706 19.3321 123.22 19.5841 122.788C19.8481 122.356 20.2741 122.014 20.8621 121.762C21.4501 121.51 22.2301 121.384 23.2021 121.384H25.9921V122.878H23.3641C22.5961 122.878 22.0801 123.004 21.8161 123.256C21.5521 123.496 21.4201 123.796 21.4201 124.156C21.4201 124.564 21.5821 124.888 21.9061 125.128C22.2301 125.368 22.6801 125.488 23.2561 125.488C23.8081 125.488 24.3001 125.362 24.7321 125.11C25.1761 124.858 25.4941 124.486 25.6861 123.994L26.0641 125.344C25.8481 125.908 25.4581 126.346 24.8941 126.658C24.3421 126.97 23.6401 127.126 22.7881 127.126ZM31.4399 130.618C30.9719 130.618 30.5039 130.54 30.0359 130.384C29.5679 130.228 29.1779 130.012 28.8659 129.736L29.7659 128.08C29.9939 128.284 30.2519 128.446 30.5399 128.566C30.8279 128.686 31.1219 128.746 31.4219 128.746C31.8299 128.746 32.1599 128.644 32.4119 128.44C32.6639 128.236 32.8979 127.894 33.1139 127.414L33.6719 126.154L33.8519 125.884L37.4879 117.388H39.6479L35.1479 127.774C34.8479 128.494 34.5119 129.064 34.1399 129.484C33.7799 129.904 33.3719 130.198 32.9159 130.366C32.4719 130.534 31.9799 130.618 31.4399 130.618ZM33.4199 127.342L29.0819 117.388H31.4219L34.9499 125.686L33.4199 127.342ZM49.9707 127L44.4627 114.4H47.0007L51.9147 125.794H50.4567L55.4247 114.4H57.7647L52.2747 127H49.9707ZM58.9662 127V117.388H61.2162V127H58.9662ZM60.1002 115.804C59.6802 115.804 59.3322 115.672 59.0562 115.408C58.7922 115.144 58.6602 114.826 58.6602 114.454C58.6602 114.07 58.7922 113.752 59.0562 113.5C59.3322 113.236 59.6802 113.104 60.1002 113.104C60.5202 113.104 60.8622 113.23 61.1262 113.482C61.4022 113.722 61.5402 114.028 61.5402 114.4C61.5402 114.796 61.4082 115.132 61.1442 115.408C60.8802 115.672 60.5322 115.804 60.1002 115.804ZM68.2374 127.126C67.3134 127.126 66.4794 126.922 65.7354 126.514C65.0034 126.094 64.4274 125.518 64.0074 124.786C63.5874 124.054 63.3774 123.19 63.3774 122.194C63.3774 121.198 63.5874 120.334 64.0074 119.602C64.4274 118.87 65.0034 118.3 65.7354 117.892C66.4794 117.484 67.3134 117.28 68.2374 117.28C69.0414 117.28 69.7614 117.46 70.3974 117.82C71.0334 118.168 71.5374 118.702 71.9094 119.422C72.2814 120.142 72.4674 121.066 72.4674 122.194C72.4674 123.31 72.2874 124.234 71.9274 124.966C71.5674 125.686 71.0694 126.226 70.4334 126.586C69.7974 126.946 69.0654 127.126 68.2374 127.126ZM68.5074 125.2C69.0474 125.2 69.5274 125.08 69.9474 124.84C70.3794 124.6 70.7214 124.252 70.9734 123.796C71.2374 123.34 71.3694 122.806 71.3694 122.194C71.3694 121.57 71.2374 121.036 70.9734 120.592C70.7214 120.136 70.3794 119.788 69.9474 119.548C69.5274 119.308 69.0474 119.188 68.5074 119.188C67.9674 119.188 67.4814 119.308 67.0494 119.548C66.6294 119.788 66.2874 120.136 66.0234 120.592C65.7714 121.036 65.6454 121.57 65.6454 122.194C65.6454 122.806 65.7714 123.34 66.0234 123.796C66.2874 124.252 66.6294 124.6 67.0494 124.84C67.4814 125.08 67.9674 125.2 68.5074 125.2ZM71.4234 127V124.732L71.5134 122.176L71.3334 119.62V113.644H73.5654V127H71.4234ZM81.0448 127.126C79.9768 127.126 79.0408 126.916 78.2368 126.496C77.4448 126.064 76.8268 125.476 76.3828 124.732C75.9508 123.988 75.7348 123.142 75.7348 122.194C75.7348 121.234 75.9448 120.388 76.3648 119.656C76.7968 118.912 77.3848 118.33 78.1288 117.91C78.8848 117.49 79.7428 117.28 80.7028 117.28C81.6388 117.28 82.4728 117.484 83.2048 117.892C83.9368 118.3 84.5128 118.876 84.9328 119.62C85.3528 120.364 85.5628 121.24 85.5628 122.248C85.5628 122.344 85.5568 122.452 85.5448 122.572C85.5448 122.692 85.5388 122.806 85.5268 122.914H77.5168V121.42H84.3388L83.4568 121.888C83.4688 121.336 83.3548 120.85 83.1148 120.43C82.8748 120.01 82.5448 119.68 82.1248 119.44C81.7168 119.2 81.2428 119.08 80.7028 119.08C80.1508 119.08 79.6648 119.2 79.2448 119.44C78.8368 119.68 78.5128 120.016 78.2728 120.448C78.0448 120.868 77.9308 121.366 77.9308 121.942V122.302C77.9308 122.878 78.0628 123.388 78.3268 123.832C78.5908 124.276 78.9628 124.618 79.4428 124.858C79.9228 125.098 80.4748 125.218 81.0988 125.218C81.6388 125.218 82.1248 125.134 82.5568 124.966C82.9888 124.798 83.3728 124.534 83.7088 124.174L84.9148 125.56C84.4828 126.064 83.9368 126.454 83.2768 126.73C82.6288 126.994 81.8848 127.126 81.0448 127.126ZM92.044 127.126C91.06 127.126 90.184 126.916 89.416 126.496C88.648 126.064 88.042 125.476 87.598 124.732C87.154 123.988 86.932 123.142 86.932 122.194C86.932 121.234 87.154 120.388 87.598 119.656C88.042 118.912 88.648 118.33 89.416 117.91C90.184 117.49 91.06 117.28 92.044 117.28C93.04 117.28 93.922 117.49 94.69 117.91C95.47 118.33 96.076 118.906 96.508 119.638C96.952 120.37 97.174 121.222 97.174 122.194C97.174 123.142 96.952 123.988 96.508 124.732C96.076 125.476 95.47 126.064 94.69 126.496C93.922 126.916 93.04 127.126 92.044 127.126ZM92.044 125.2C92.596 125.2 93.088 125.08 93.52 124.84C93.952 124.6 94.288 124.252 94.528 123.796C94.78 123.34 94.906 122.806 94.906 122.194C94.906 121.57 94.78 121.036 94.528 120.592C94.288 120.136 93.952 119.788 93.52 119.548C93.088 119.308 92.602 119.188 92.062 119.188C91.51 119.188 91.018 119.308 90.586 119.548C90.166 119.788 89.83 120.136 89.578 120.592C89.326 121.036 89.2 121.57 89.2 122.194C89.2 122.806 89.326 123.34 89.578 123.796C89.83 124.252 90.166 124.6 90.586 124.84C91.018 125.08 91.504 125.2 92.044 125.2Z" fill="white"/>
</svg>
