<svg width="25" height="25" viewBox="0 0 25 25" fill="none" xmlns="http://www.w3.org/2000/svg">
<g clip-path="url(#clip0_8419_5282)">
<path d="M22.5627 11.0229L7.5279 0.894621C7.01575 0.550281 6.36883 0.484329 5.79762 0.718186C4.93668 1.07054 4.47937 2.00583 4.69204 2.89105L3.50063 2.08847C3.02898 1.77145 2.43311 1.71061 1.9069 1.926C1.03532 2.28271 0.612933 3.28798 0.965569 4.16754L4.35417 12.5793L0.993506 20.9219C0.746572 21.4682 0.795649 22.0913 1.12555 22.5913C1.37947 22.9762 1.76717 23.2378 2.21716 23.3278C2.32938 23.3502 2.44197 23.3613 2.55382 23.3613C2.88878 23.3613 3.21639 23.2618 3.5011 23.07L4.68932 22.2696C4.56815 22.7716 4.65773 23.3022 4.94924 23.744C5.225 24.162 5.64589 24.446 6.13451 24.5437C6.25629 24.5681 6.37849 24.5801 6.4999 24.5801C6.86355 24.5801 7.21918 24.4721 7.52827 24.2639L22.5378 14.1525C22.7533 14.0125 22.9348 13.832 23.0772 13.6159C23.643 12.7584 23.4122 11.5952 22.5627 11.0229ZM2.97728 22.2925C2.80656 22.4075 2.60182 22.4487 2.40101 22.4085C2.19827 22.368 2.02315 22.2495 1.90803 22.075C1.75559 21.844 1.73393 21.5553 1.85018 21.3027C1.85332 21.2958 1.85637 21.2888 1.85914 21.2819L5.29428 12.7545C5.33956 12.6422 5.33956 12.5166 5.29428 12.4042L1.83547 3.81795C1.67408 3.41543 1.86546 2.95592 2.26207 2.7936C2.49822 2.6969 2.76592 2.72408 2.97733 2.86625L5.28688 4.42216L8.57292 12.5793L5.28683 20.7367L2.97728 22.2925ZM22.2947 13.0997C22.2233 13.2081 22.1325 13.2982 22.025 13.3677C22.0225 13.3693 22.0201 13.3709 22.0176 13.3726L7.0045 23.4863C6.8013 23.6233 6.5575 23.6722 6.3183 23.6244C6.07699 23.5761 5.86864 23.4352 5.73167 23.2277C5.55064 22.9533 5.52491 22.6103 5.6629 22.3104C5.66605 22.3035 5.66909 22.2966 5.67186 22.2896L9.51294 12.7545C9.55822 12.6421 9.55822 12.5166 9.51294 12.4042L5.64533 2.80316C5.45361 2.3249 5.68128 1.77881 6.15274 1.58583C6.26416 1.54022 6.3813 1.51777 6.49788 1.51777C6.67581 1.51777 6.85234 1.57013 7.0045 1.67241L22.039 11.8004C22.4638 12.0866 22.5785 12.6695 22.2947 13.0997Z" fill="#A9A7B0"/>
<path fill-rule="evenodd" clip-rule="evenodd" d="M9.54492 18.9494L19.001 12.5792L9.54492 6.20898L12.1111 12.5792L9.54492 18.9494Z" fill="#A9A7B0"/>
</g>
<defs>
<clipPath id="clip0_8419_5282">
<rect width="24" height="24" fill="white" transform="translate(0.113281 0.580078)"/>
</clipPath>
</defs>
</svg>
