<svg width="70" height="70" viewBox="0 0 70 70" fill="none" xmlns="http://www.w3.org/2000/svg">
<g clip-path="url(#clip0_8913_8193)">
<path d="M19.7885 69.5011C19.6869 69.5019 19.5858 69.487 19.4885 69.4572L14.2674 67.8432C13.8132 67.7029 13.5206 67.2622 13.5675 66.7892L14.1064 61.3892C12.6585 60.4947 11.3436 59.401 10.2005 58.1401L5.05546 59.6891C4.59802 59.8275 4.10662 59.6232 3.88245 59.2011L1.32353 54.3411C1.10138 53.9211 1.20545 53.4028 1.57255 53.1012L5.73548 49.6681C5.33874 47.9988 5.17644 46.2822 5.25347 44.5682L0.522536 42.0012C0.105275 41.7744 -0.0949003 41.2855 0.0435605 40.8312L1.64352 35.5673C1.78415 35.1114 2.22699 34.8184 2.70149 34.8673L8.04249 35.4103C8.92962 33.9513 10.0165 32.6233 11.2715 31.4653L9.73046 26.2654C9.59576 25.8101 9.7997 25.3229 10.2184 25.0995L15.0394 22.5204C15.462 22.2945 15.9855 22.4002 16.2874 22.7725L19.6874 26.9635C21.3367 26.565 23.0343 26.4024 24.7293 26.4805L27.2793 21.7125C27.5052 21.2896 27.9993 21.0867 28.4572 21.2285L33.6772 22.8415C34.1318 22.9818 34.4246 23.423 34.3772 23.8964L33.8382 29.2964C35.2882 30.1924 36.6053 31.2874 37.7513 32.5493L42.8943 30.9994C43.3526 30.8615 43.8444 31.0677 44.0673 31.4913L46.6264 36.3503C46.8473 36.7699 46.7434 37.2869 46.3773 37.5884L42.2144 41.0214C42.6113 42.6908 42.7734 44.4074 42.6964 46.1214L47.4273 48.6933C47.8446 48.9201 48.0448 49.409 47.9063 49.8633L46.3064 55.1262C46.1659 55.5816 45.7235 55.8746 45.2494 55.8262L39.9084 55.2832C39.0214 56.7429 37.9343 58.0712 36.6784 59.2292L38.2194 64.4291C38.3541 64.8844 38.1502 65.3716 37.7315 65.595L32.9115 68.174C32.4889 68.3999 31.9654 68.2943 31.6635 67.922L28.2635 63.731C26.6139 64.1275 24.9165 64.2901 23.2216 64.214L20.6716 68.982C20.4949 69.3041 20.1559 69.5034 19.7885 69.5011ZM15.6445 66.1742L19.3006 67.3012L21.7646 62.6943C21.9524 62.3432 22.3307 62.137 22.7276 62.1694C24.6254 62.3249 26.5358 62.1416 28.3696 61.6284C28.7535 61.521 29.1645 61.6518 29.4156 61.9614L32.7006 66.0114L36.0746 64.2114L34.5806 59.1825C34.4684 58.8047 34.5887 58.3962 34.8875 58.1395C36.3404 56.892 37.5624 55.3985 38.4975 53.7276C38.6925 53.3806 39.0746 53.1823 39.4705 53.2226L44.6324 53.7465L45.7564 50.0465L41.1824 47.5596C40.835 47.3711 40.6312 46.9956 40.6624 46.6016C40.8171 44.6849 40.6354 42.7558 40.1255 40.9016C40.0213 40.5218 40.1496 40.1162 40.4534 39.8656L44.4795 36.5456L42.6795 33.1355L37.7095 34.6355C37.3279 34.7504 36.9147 34.6278 36.6575 34.3234C35.4242 32.8628 33.9427 31.6313 32.2815 30.6854C31.9382 30.4899 31.7424 30.1105 31.7816 29.7175L32.3026 24.5015L28.6506 23.3726L26.1866 27.9795C25.9989 28.3303 25.6212 28.5364 25.2246 28.5045C23.3265 28.3489 21.4157 28.5322 19.5817 29.0454C19.1981 29.1524 18.7876 29.0216 18.5367 28.7124L15.2507 24.6634L11.8768 26.4634L13.3718 31.5015C13.4836 31.8794 13.3631 32.2879 13.0638 32.5444C11.6112 33.7916 10.3897 35.2847 9.45484 36.9553C9.25814 37.3011 8.87687 37.4992 8.48085 37.4613L3.31892 36.9373L2.19491 40.6373L6.76989 43.1242C7.11662 43.3128 7.31998 43.6877 7.2889 44.0812C7.1344 45.9979 7.31607 47.927 7.82584 49.7812C7.92643 50.1572 7.79967 50.5576 7.50078 50.8072L3.47285 54.1262L5.27284 57.5371L10.2428 56.0372C10.6244 55.9223 11.0376 56.0449 11.2949 56.3492C12.5276 57.8099 14.0087 59.0411 15.6698 59.9862C16.0131 60.1818 16.2089 60.5612 16.1698 60.9543L15.6445 66.1742Z" fill="#CFA935"/>
<path d="M23.9883 56.943C19.7122 56.9357 15.7918 54.5607 13.8053 50.7739C10.8361 45.1248 12.9624 38.1382 18.5753 35.101C24.1624 32.1167 31.1109 34.2269 34.095 39.8139C34.1119 39.8455 34.1287 39.8772 34.1452 39.909C37.117 45.5588 34.9902 52.5481 29.3752 55.5849C27.719 56.475 25.8683 56.9415 23.9883 56.943ZM23.9653 35.743C22.4133 35.7446 20.8859 36.1303 19.5192 36.866C14.871 39.3824 13.1126 45.1702 15.5753 49.8469C17.9917 54.4841 23.7097 56.2843 28.347 53.8679C28.3755 53.853 28.404 53.8381 28.4323 53.823C33.0797 51.3058 34.8375 45.5186 32.3753 40.8421C30.7363 37.7125 27.4981 35.7488 23.9653 35.7421V35.743Z" fill="#CFA935"/>
<path d="M50.9855 33.2223C50.8855 33.2226 50.7859 33.2074 50.6906 33.1773L47.2286 32.1074C46.7741 31.967 46.4812 31.5258 46.5286 31.0525L46.8657 27.6814C46.007 27.1312 45.2198 26.4769 44.5217 25.7334L41.3116 26.7005C40.8535 26.8385 40.3618 26.6327 40.1386 26.2095L38.4387 22.9865C38.2183 22.5672 38.3222 22.0508 38.6877 21.7494L41.2877 19.6054C41.0668 18.6014 40.9701 17.5741 40.9996 16.5464L38.0457 14.9404C37.629 14.7136 37.4288 14.2254 37.5667 13.7714L38.6277 10.2804C38.7682 9.82503 39.2106 9.53207 39.6847 9.58048L43.0177 9.91955C43.5634 9.05497 44.2137 8.26092 44.9537 7.5556L43.9937 4.30163C43.8589 3.84665 44.0622 3.35958 44.4808 3.1357L47.6808 1.42575C48.1035 1.19985 48.6269 1.3055 48.9289 1.67781L51.0519 4.29383C52.0418 4.07371 53.0551 3.97658 54.0688 4.00476L55.6608 1.02771C55.8866 0.605394 56.3802 0.402328 56.8379 0.543679L60.2999 1.61567C60.7544 1.75601 61.0472 2.19726 60.9998 2.6706L60.6628 6.04265C61.519 6.59288 62.3039 7.24688 62.9998 7.98963L66.2089 7.02257C66.6675 6.88411 67.1599 7.0905 67.3829 7.51456L69.0829 10.7376C69.3033 11.1569 69.1994 11.6733 68.8338 11.9746L66.2339 14.1186C66.4546 15.1224 66.5514 16.1493 66.5219 17.1766L69.4769 18.7826C69.8941 19.0094 70.0943 19.4983 69.9558 19.9526L68.8999 23.4426C68.7613 23.9003 68.3177 24.1959 67.8419 24.1476L64.5099 23.8086C63.9628 24.673 63.3113 25.4668 62.5699 26.1715L63.5319 29.4195C63.6667 29.8745 63.4634 30.3617 63.0448 30.5855L59.8447 32.2964C59.4221 32.5223 58.8986 32.4167 58.5967 32.0444L56.4737 29.4284C55.4838 29.6485 54.4705 29.7456 53.4567 29.7174L51.8647 32.6935C51.6912 33.0179 51.3535 33.2211 50.9855 33.2223ZM48.5995 30.4382L50.4934 31.0233L51.9994 28.2123C52.186 27.8605 52.5647 27.6542 52.9614 27.6882C54.1806 27.7873 55.4075 27.6696 56.5854 27.3402C56.969 27.2332 57.3795 27.364 57.6304 27.6732L59.6353 30.1432L61.3853 29.2072L60.4753 26.1372C60.3634 25.7593 60.484 25.3508 60.7833 25.0943C61.7154 24.2922 62.4993 23.3326 63.0993 22.2593C63.294 21.912 63.6761 21.7133 64.0723 21.7533L67.2203 22.0733L67.8054 20.1503L65.0133 18.6313C64.6663 18.443 64.4625 18.0679 64.4933 17.6744C64.5929 16.443 64.4762 15.2036 64.1483 14.0124C64.0441 13.6326 64.1724 13.227 64.4762 12.9764L66.9353 10.9493L65.9993 9.17536L62.9695 10.0882C62.5876 10.2036 62.1738 10.0808 61.9164 9.77618C61.1247 8.8373 60.1731 8.04614 59.1054 7.43911C58.7619 7.24342 58.5659 6.86359 58.6055 6.47017L58.9235 3.28514L57.0324 2.70124L55.5325 5.51121C55.3446 5.86228 54.9664 6.06852 54.5695 6.03615C53.3504 5.93816 52.1236 6.05595 50.9455 6.38418C50.5612 6.49113 50.1502 6.35946 49.8995 6.04916L47.8995 3.58028L46.1485 4.51626L47.0585 7.58624C47.1707 7.96405 47.0504 8.37249 46.7515 8.62918C45.8178 9.43032 45.0325 10.3897 44.4315 11.4631C44.2354 11.8089 43.8542 12.0072 43.4585 11.9691L40.3105 11.6492L39.7254 13.5732L42.5185 15.0912C42.8652 15.2798 43.0686 15.6547 43.0375 16.0481C42.9388 17.2795 43.0556 18.5187 43.3825 19.7101C43.4871 20.0902 43.3586 20.4963 43.0546 20.7471L40.5965 22.7741L41.5305 24.5471L44.5604 23.6351C44.942 23.5202 45.3552 23.6428 45.6125 23.9472C46.4049 24.8853 47.3564 25.6763 48.4234 26.2842C48.7667 26.4798 48.9625 26.8592 48.9234 27.2523L48.5995 30.4382Z" fill="#CFA935"/>
<path d="M53.771 24.0612C51.1162 24.0575 48.682 22.5832 47.449 20.2322C45.6063 16.7263 46.9263 12.3903 50.41 10.5062C53.8791 8.65335 58.1933 9.96366 60.0461 13.4327C60.0565 13.4522 60.0667 13.4717 60.077 13.4912C61.9202 16.9967 60.6001 21.3328 57.116 23.2161C56.0879 23.7698 54.9386 24.0602 53.771 24.0612ZM53.7569 11.6612C52.9191 11.6626 52.0947 11.8712 51.357 12.2682C48.8401 13.6314 47.8887 16.7659 49.223 19.2982C49.8578 20.518 50.9567 21.4312 52.272 21.8323C53.5721 22.2348 54.9794 22.0975 56.177 21.4513C58.6943 20.0879 59.6461 16.9532 58.312 14.4203C57.4254 12.7265 55.6727 11.6639 53.761 11.6613L53.7569 11.6612Z" fill="#CFA935"/>
</g>
<defs>
<clipPath id="clip0_8913_8193">
<rect width="70" height="70" fill="white"/>
</clipPath>
</defs>
</svg>
