<svg width="35" height="35" viewBox="0 0 35 35" fill="none" xmlns="http://www.w3.org/2000/svg">
<path fill-rule="evenodd" clip-rule="evenodd" d="M25.155 15.3112C25.155 16.6039 24.9004 17.884 24.4056 19.0782C23.911 20.2726 23.1858 21.3577 22.2719 22.2718C21.3577 23.1858 20.2726 23.9109 19.0782 24.4057C17.884 24.9003 16.6039 25.155 15.3112 25.155C14.0185 25.155 12.7385 24.9003 11.5442 24.4057C10.3499 23.9109 9.2647 23.1858 8.35064 22.2718C7.43655 21.3577 6.71148 20.2726 6.21677 19.0782C5.72207 17.884 5.46747 16.6039 5.46747 15.3112C5.46747 12.7005 6.50456 10.1967 8.35064 8.35064C10.1967 6.50456 12.7005 5.46747 15.3112 5.46747C17.9219 5.46747 20.4257 6.50456 22.2719 8.35064C24.1179 10.1967 25.155 12.7005 25.155 15.3112ZM23.3612 25.68C20.7239 27.7275 17.4055 28.6928 14.0814 28.3796C10.7573 28.0665 7.67759 26.4983 5.46911 23.9943C3.26061 21.4903 2.08942 18.2387 2.19394 14.9016C2.29848 11.5645 3.67087 8.39259 6.03173 6.03173C8.39261 3.67087 11.5645 2.29848 14.9016 2.19394C18.2387 2.08941 21.4903 3.26061 23.9943 5.46911C26.4983 7.67759 28.0666 10.7573 28.3796 14.0814C28.6928 17.4054 27.7275 20.7239 25.68 23.3612L32.33 30.0112C32.4912 30.1615 32.6205 30.3426 32.7102 30.5439C32.7999 30.7451 32.848 30.9623 32.8519 31.1826C32.8559 31.4029 32.8152 31.6217 32.7327 31.826C32.6502 32.0303 32.5273 32.2158 32.3715 32.3715C32.2158 32.5275 32.0303 32.6502 31.826 32.7327C31.6217 32.8152 31.4029 32.8558 31.1826 32.8519C30.9624 32.848 30.7449 32.7998 30.5439 32.7102C30.3426 32.6205 30.1615 32.4912 30.0112 32.33L23.3612 25.68Z" fill="#CFA935"/>
</svg>
