<svg width="1722" height="4" viewBox="0 0 1722 4" fill="none" xmlns="http://www.w3.org/2000/svg">
<path opacity="0.5" d="M2 0C0.895431 -9.65645e-08 9.65645e-08 0.89543 0 2C-9.65645e-08 3.10457 0.89543 4 2 4L2 0ZM5.98148 4C7.08605 4 7.98148 3.10457 7.98148 2C7.98148 0.895431 7.08605 4.44637e-07 5.98148 3.48072e-07L5.98148 4ZM13.9444 1.04422e-06C12.8399 9.47652e-07 11.9444 0.895431 11.9444 2C11.9444 3.10457 12.8399 4 13.9444 4L13.9444 1.04422e-06ZM21.9074 4C23.012 4 23.9074 3.10457 23.9074 2C23.9074 0.895432 23.012 1.83693e-06 21.9074 1.74036e-06L21.9074 4ZM29.8704 2.43651e-06C28.7658 2.33994e-06 27.8704 0.895433 27.8704 2C27.8704 3.10457 28.7658 4 29.8704 4L29.8704 2.43651e-06ZM37.8333 4C38.9379 4 39.8333 3.10457 39.8333 2C39.8333 0.895434 38.9379 3.22921e-06 37.8333 3.13265e-06L37.8333 4ZM45.7963 3.82879e-06C44.6917 3.73223e-06 43.7963 0.895434 43.7963 2C43.7963 3.10457 44.6917 4 45.7963 4L45.7963 3.82879e-06ZM53.7593 4C54.8638 4 55.7593 3.10457 55.7593 2C55.7593 0.895435 54.8638 4.6215e-06 53.7593 4.52494e-06L53.7593 4ZM61.7222 5.22108e-06C60.6177 5.12452e-06 59.7222 0.895435 59.7222 2.00001C59.7222 3.10457 60.6177 4.00001 61.7222 4.00001L61.7222 5.22108e-06ZM69.6852 4.00001C70.7898 4.00001 71.6852 3.10458 71.6852 2.00001C71.6852 0.895437 70.7898 6.01379e-06 69.6852 5.91723e-06L69.6852 4.00001ZM77.6481 6.61337e-06C76.5436 6.51681e-06 75.6481 0.895437 75.6481 2.00001C75.6481 3.10458 76.5436 4.00001 77.6481 4.00001L77.6481 6.61337e-06ZM85.6111 4.00001C86.7157 4.00001 87.6111 3.10458 87.6111 2.00001C87.6111 0.895438 86.7157 7.40608e-06 85.6111 7.30952e-06L85.6111 4.00001ZM93.5741 8.00566e-06C92.4695 7.9091e-06 91.5741 0.895438 91.5741 2.00001C91.5741 3.10458 92.4695 4.00001 93.5741 4.00001L93.5741 8.00566e-06ZM101.537 4.00001C102.642 4.00001 103.537 3.10458 103.537 2.00001C103.537 0.895439 102.642 8.79837e-06 101.537 8.70181e-06L101.537 4.00001ZM109.5 9.39795e-06C108.395 9.30139e-06 107.5 0.89544 107.5 2.00001C107.5 3.10458 108.395 4.00001 109.5 4.00001L109.5 9.39795e-06ZM117.463 4.00001C118.568 4.00001 119.463 3.10458 119.463 2.00001C119.463 0.895441 118.568 1.01907e-05 117.463 1.00941e-05L117.463 4.00001ZM125.426 1.07902e-05C124.321 1.06937e-05 123.426 0.895441 123.426 2.00001C123.426 3.10458 124.321 4.00001 125.426 4.00001L125.426 1.07902e-05ZM133.389 4.00001C134.493 4.00001 135.389 3.10458 135.389 2.00001C135.389 0.895442 134.493 1.15829e-05 133.389 1.14864e-05L133.389 4.00001ZM141.352 1.21825e-05C140.247 1.2086e-05 139.352 0.895442 139.352 2.00001C139.352 3.10458 140.247 4.00001 141.352 4.00001L141.352 1.21825e-05ZM149.315 4.00001C150.419 4.00001 151.315 3.10458 151.315 2.00001C151.315 0.895443 150.419 1.29752e-05 149.315 1.28787e-05L149.315 4.00001ZM157.278 1.35748e-05C156.173 1.34783e-05 155.278 0.895444 155.278 2.00001C155.278 3.10458 156.173 4.00001 157.278 4.00001L157.278 1.35748e-05ZM165.241 4.00001C166.345 4.00001 167.241 3.10458 167.241 2.00001C167.241 0.895445 166.345 1.43675e-05 165.241 1.4271e-05L165.241 4.00001ZM173.204 1.49671e-05C172.099 1.48705e-05 171.204 0.895445 171.204 2.00001C171.204 3.10458 172.099 4.00001 173.204 4.00001L173.204 1.49671e-05ZM181.167 4.00002C182.271 4.00002 183.167 3.10459 183.167 2.00002C183.167 0.895446 182.271 1.57598e-05 181.167 1.56633e-05L181.167 4.00002ZM189.13 1.63594e-05C188.025 1.62628e-05 187.13 0.895447 187.13 2.00002C187.13 3.10459 188.025 4.00002 189.13 4.00002L189.13 1.63594e-05ZM197.093 4.00002C198.197 4.00002 199.093 3.10459 199.093 2.00002C199.093 0.895448 198.197 1.71521e-05 197.093 1.70555e-05L197.093 4.00002ZM205.056 1.77517e-05C203.951 1.76551e-05 203.056 0.895448 203.056 2.00002C203.056 3.10459 203.951 4.00002 205.056 4.00002L205.056 1.77517e-05ZM213.019 4.00002C214.123 4.00002 215.019 3.10459 215.019 2.00002C215.019 0.895449 214.123 1.85444e-05 213.019 1.84478e-05L213.019 4.00002ZM220.982 1.9144e-05C219.877 1.90474e-05 218.982 0.895449 218.982 2.00002C218.982 3.10459 219.877 4.00002 220.982 4.00002L220.982 1.9144e-05ZM228.945 4.00002C230.049 4.00002 230.945 3.10459 230.945 2.00002C230.945 0.89545 230.049 1.99367e-05 228.945 1.98401e-05L228.945 4.00002ZM236.907 2.05363e-05C235.803 2.04397e-05 234.907 0.895451 234.907 2.00002C234.907 3.10459 235.803 4.00002 236.907 4.00002L236.907 2.05363e-05ZM244.87 4.00002C245.975 4.00002 246.87 3.10459 246.87 2.00002C246.87 0.895452 245.975 2.1329e-05 244.87 2.12324e-05L244.87 4.00002ZM252.833 2.19286e-05C251.729 2.1832e-05 250.833 0.895452 250.833 2.00002C250.833 3.10459 251.729 4.00002 252.833 4.00002L252.833 2.19286e-05ZM260.796 4.00002C261.901 4.00002 262.796 3.10459 262.796 2.00002C262.796 0.895453 261.901 2.27213e-05 260.796 2.26247e-05L260.796 4.00002ZM268.759 2.33208e-05C267.655 2.32243e-05 266.759 0.895454 266.759 2.00002C266.759 3.10459 267.655 4.00002 268.759 4.00002L268.759 2.33208e-05ZM276.722 4.00002C277.827 4.00002 278.722 3.10459 278.722 2.00002C278.722 0.895455 277.827 2.41136e-05 276.722 2.4017e-05L276.722 4.00002ZM284.685 2.47131e-05C283.581 2.46166e-05 282.685 0.895455 282.685 2.00002C282.685 3.10459 283.581 4.00002 284.685 4.00002L284.685 2.47131e-05ZM292.648 4.00003C293.753 4.00003 294.648 3.1046 294.648 2.00003C294.648 0.895456 293.753 2.55058e-05 292.648 2.54093e-05L292.648 4.00003ZM300.611 2.61054e-05C299.507 2.60089e-05 298.611 0.895456 298.611 2.00003C298.611 3.1046 299.507 4.00003 300.611 4.00003L300.611 2.61054e-05ZM308.574 4.00003C309.679 4.00003 310.574 3.1046 310.574 2.00003C310.574 0.895457 309.679 2.68981e-05 308.574 2.68016e-05L308.574 4.00003ZM316.537 2.74977e-05C315.432 2.74011e-05 314.537 0.895458 314.537 2.00003C314.537 3.1046 315.432 4.00003 316.537 4.00003L316.537 2.74977e-05ZM324.5 4.00003C325.605 4.00003 326.5 3.1046 326.5 2.00003C326.5 0.895459 325.605 2.82904e-05 324.5 2.81938e-05L324.5 4.00003ZM332.463 2.889e-05C331.358 2.87934e-05 330.463 0.895459 330.463 2.00003C330.463 3.1046 331.358 4.00003 332.463 4.00003L332.463 2.889e-05ZM340.426 4.00003C341.53 4.00003 342.426 3.1046 342.426 2.00003C342.426 0.89546 341.53 2.96827e-05 340.426 2.95861e-05L340.426 4.00003ZM348.389 3.02823e-05C347.284 3.01857e-05 346.389 0.895461 346.389 2.00003C346.389 3.1046 347.284 4.00003 348.389 4.00003L348.389 3.02823e-05ZM356.352 4.00003C357.456 4.00003 358.352 3.1046 358.352 2.00003C358.352 0.895462 357.456 3.1075e-05 356.352 3.09784e-05L356.352 4.00003ZM364.315 3.16746e-05C363.21 3.1578e-05 362.315 0.895462 362.315 2.00003C362.315 3.1046 363.21 4.00003 364.315 4.00003L364.315 3.16746e-05ZM372.278 4.00003C373.382 4.00003 374.278 3.1046 374.278 2.00003C374.278 0.895463 373.382 3.24673e-05 372.278 3.23707e-05L372.278 4.00003ZM380.241 3.30669e-05C379.136 3.29703e-05 378.241 0.895463 378.241 2.00003C378.241 3.1046 379.136 4.00003 380.241 4.00003L380.241 3.30669e-05ZM388.204 4.00003C389.308 4.00003 390.204 3.1046 390.204 2.00003C390.204 0.895464 389.308 3.38596e-05 388.204 3.3763e-05L388.204 4.00003ZM396.167 3.44591e-05C395.062 3.43626e-05 394.167 0.895465 394.167 2.00003C394.167 3.1046 395.062 4.00003 396.167 4.00003L396.167 3.44591e-05ZM404.13 4.00004C405.234 4.00004 406.13 3.1046 406.13 2.00004C406.13 0.895466 405.234 3.52518e-05 404.13 3.51553e-05L404.13 4.00004ZM412.092 3.58514e-05C410.988 3.57549e-05 410.092 0.895466 410.092 2.00004C410.092 3.10461 410.988 4.00004 412.092 4.00004L412.092 3.58514e-05ZM420.055 4.00004C421.16 4.00004 422.055 3.10461 422.055 2.00004C422.055 0.895467 421.16 3.66441e-05 420.055 3.65476e-05L420.055 4.00004ZM428.018 3.72437e-05C426.914 3.71471e-05 426.018 0.895468 426.018 2.00004C426.018 3.10461 426.914 4.00004 428.018 4.00004L428.018 3.72437e-05ZM435.981 4.00004C437.086 4.00004 437.981 3.10461 437.981 2.00004C437.981 0.895469 437.086 3.80364e-05 435.981 3.79399e-05L435.981 4.00004ZM443.944 3.8636e-05C442.84 3.85394e-05 441.944 0.895469 441.944 2.00004C441.944 3.10461 442.84 4.00004 443.944 4.00004L443.944 3.8636e-05ZM451.907 4.00004C453.012 4.00004 453.907 3.10461 453.907 2.00004C453.907 0.89547 453.012 3.94287e-05 451.907 3.93321e-05L451.907 4.00004ZM459.87 4.00283e-05C458.766 3.99317e-05 457.87 0.89547 457.87 2.00004C457.87 3.10461 458.766 4.00004 459.87 4.00004L459.87 4.00283e-05ZM467.833 4.00004C468.938 4.00004 469.833 3.10461 469.833 2.00004C469.833 0.895471 468.938 4.0821e-05 467.833 4.07244e-05L467.833 4.00004ZM475.796 4.14206e-05C474.691 4.1324e-05 473.796 0.895472 473.796 2.00004C473.796 3.10461 474.691 4.00004 475.796 4.00004L475.796 4.14206e-05ZM483.759 4.00004C484.864 4.00004 485.759 3.10461 485.759 2.00004C485.759 0.895473 484.864 4.22133e-05 483.759 4.21167e-05L483.759 4.00004ZM491.722 4.28129e-05C490.617 4.27163e-05 489.722 0.895473 489.722 2.00004C489.722 3.10461 490.617 4.00004 491.722 4.00004L491.722 4.28129e-05ZM499.685 4.00004C500.789 4.00004 501.685 3.10461 501.685 2.00004C501.685 0.895474 500.789 4.36056e-05 499.685 4.3509e-05L499.685 4.00004ZM507.648 4.42051e-05C506.543 4.41086e-05 505.648 0.895474 505.648 2.00004C505.648 3.10461 506.543 4.00004 507.648 4.00004L507.648 4.42051e-05ZM515.611 4.00004C516.715 4.00004 517.611 3.10461 517.611 2.00005C517.611 0.895476 516.715 4.49979e-05 515.611 4.49013e-05L515.611 4.00004ZM523.574 4.55974e-05C522.469 4.55009e-05 521.574 0.895476 521.574 2.00005C521.574 3.10461 522.469 4.00005 523.574 4.00005L523.574 4.55974e-05ZM531.537 4.00005C532.641 4.00005 533.537 3.10462 533.537 2.00005C533.537 0.895477 532.641 4.63901e-05 531.537 4.62936e-05L531.537 4.00005ZM539.5 4.69897e-05C538.395 4.68932e-05 537.5 0.895477 537.5 2.00005C537.5 3.10462 538.395 4.00005 539.5 4.00005L539.5 4.69897e-05ZM547.463 4.00005C548.567 4.00005 549.463 3.10462 549.463 2.00005C549.463 0.895478 548.567 4.77824e-05 547.463 4.76859e-05L547.463 4.00005ZM555.426 4.8382e-05C554.321 4.82854e-05 553.426 0.895479 553.426 2.00005C553.426 3.10462 554.321 4.00005 555.426 4.00005L555.426 4.8382e-05ZM563.389 4.00005C564.493 4.00005 565.389 3.10462 565.389 2.00005C565.389 0.89548 564.493 4.91747e-05 563.389 4.90781e-05L563.389 4.00005ZM571.352 4.97743e-05C570.247 4.96777e-05 569.352 0.89548 569.352 2.00005C569.352 3.10462 570.247 4.00005 571.352 4.00005L571.352 4.97743e-05ZM579.314 4.00005C580.419 4.00005 581.314 3.10462 581.314 2.00005C581.314 0.895481 580.419 5.0567e-05 579.314 5.04704e-05L579.314 4.00005ZM587.277 5.11666e-05C586.173 5.107e-05 585.277 0.895481 585.277 2.00005C585.277 3.10462 586.173 4.00005 587.277 4.00005L587.277 5.11666e-05ZM595.24 4.00005C596.345 4.00005 597.24 3.10462 597.24 2.00005C597.24 0.895482 596.345 5.19593e-05 595.24 5.18627e-05L595.24 4.00005ZM603.203 5.25589e-05C602.099 5.24623e-05 601.203 0.895483 601.203 2.00005C601.203 3.10462 602.099 4.00005 603.203 4.00005L603.203 5.25589e-05ZM611.166 4.00005C612.271 4.00005 613.166 3.10462 613.166 2.00005C613.166 0.895484 612.271 5.33516e-05 611.166 5.3255e-05L611.166 4.00005ZM619.129 5.39512e-05C618.025 5.38546e-05 617.129 0.895484 617.129 2.00005C617.129 3.10462 618.025 4.00005 619.129 4.00005L619.129 5.39512e-05ZM627.092 4.00005C628.197 4.00005 629.092 3.10462 629.092 2.00005C629.092 0.895485 628.197 5.47439e-05 627.092 5.46473e-05L627.092 4.00005ZM635.055 5.53434e-05C633.951 5.52469e-05 633.055 0.895486 633.055 2.00006C633.055 3.10462 633.951 4.00006 635.055 4.00006L635.055 5.53434e-05ZM643.018 4.00006C644.123 4.00006 645.018 3.10463 645.018 2.00006C645.018 0.895487 644.123 5.61361e-05 643.018 5.60396e-05L643.018 4.00006ZM650.981 5.67357e-05C649.876 5.66392e-05 648.981 0.895487 648.981 2.00006C648.981 3.10463 649.876 4.00006 650.981 4.00006L650.981 5.67357e-05ZM658.944 4.00006C660.049 4.00006 660.944 3.10463 660.944 2.00006C660.944 0.895488 660.049 5.75284e-05 658.944 5.74319e-05L658.944 4.00006ZM666.907 5.8128e-05C665.802 5.80315e-05 664.907 0.895488 664.907 2.00006C664.907 3.10463 665.802 4.00006 666.907 4.00006L666.907 5.8128e-05ZM674.87 4.00006C675.974 4.00006 676.87 3.10463 676.87 2.00006C676.87 0.895489 675.974 5.89207e-05 674.87 5.88242e-05L674.87 4.00006ZM682.833 5.95203e-05C681.728 5.94237e-05 680.833 0.89549 680.833 2.00006C680.833 3.10463 681.728 4.00006 682.833 4.00006L682.833 5.95203e-05ZM690.796 4.00006C691.9 4.00006 692.796 3.10463 692.796 2.00006C692.796 0.895491 691.9 6.0313e-05 690.796 6.02164e-05L690.796 4.00006ZM698.759 6.09126e-05C697.654 6.0816e-05 696.759 0.895491 696.759 2.00006C696.759 3.10463 697.654 4.00006 698.759 4.00006L698.759 6.09126e-05ZM706.722 4.00006C707.826 4.00006 708.722 3.10463 708.722 2.00006C708.722 0.895492 707.826 6.17053e-05 706.722 6.16087e-05L706.722 4.00006ZM714.685 6.23049e-05C713.58 6.22083e-05 712.685 0.895493 712.685 2.00006C712.685 3.10463 713.58 4.00006 714.685 4.00006L714.685 6.23049e-05ZM722.648 4.00006C723.752 4.00006 724.648 3.10463 724.648 2.00006C724.648 0.895494 723.752 6.30976e-05 722.648 6.3001e-05L722.648 4.00006ZM730.611 6.36972e-05C729.506 6.36006e-05 728.611 0.895494 728.611 2.00006C728.611 3.10463 729.506 4.00006 730.611 4.00006L730.611 6.36972e-05ZM738.573 4.00006C739.678 4.00006 740.573 3.10463 740.573 2.00006C740.573 0.895495 739.678 6.44899e-05 738.573 6.43933e-05L738.573 4.00006ZM746.536 6.50894e-05C745.432 6.49929e-05 744.536 0.895495 744.536 2.00006C744.536 3.10463 745.432 4.00006 746.536 4.00007L746.536 6.50894e-05ZM754.499 4.00007C755.604 4.00007 756.499 3.10464 756.499 2.00007C756.499 0.895496 755.604 6.58822e-05 754.499 6.57856e-05L754.499 4.00007ZM762.462 6.64817e-05C761.358 6.63852e-05 760.462 0.895497 760.462 2.00007C760.462 3.10464 761.358 4.00007 762.462 4.00007L762.462 6.64817e-05ZM770.425 4.00007C771.53 4.00007 772.425 3.10464 772.425 2.00007C772.425 0.895498 771.53 6.72744e-05 770.425 6.71779e-05L770.425 4.00007ZM778.388 6.7874e-05C777.284 6.77775e-05 776.388 0.895498 776.388 2.00007C776.388 3.10464 777.284 4.00007 778.388 4.00007L778.388 6.7874e-05ZM786.351 4.00007C787.456 4.00007 788.351 3.10464 788.351 2.00007C788.351 0.895499 787.456 6.86667e-05 786.351 6.85702e-05L786.351 4.00007ZM794.314 6.92663e-05C793.21 6.91697e-05 792.314 0.8955 792.314 2.00007C792.314 3.10464 793.21 4.00007 794.314 4.00007L794.314 6.92663e-05ZM802.277 4.00007C803.382 4.00007 804.277 3.10464 804.277 2.00007C804.277 0.895501 803.382 7.0059e-05 802.277 6.99625e-05L802.277 4.00007ZM810.24 7.06586e-05C809.135 7.0562e-05 808.24 0.895501 808.24 2.00007C808.24 3.10464 809.135 4.00007 810.24 4.00007L810.24 7.06586e-05ZM818.203 4.00007C819.308 4.00007 820.203 3.10464 820.203 2.00007C820.203 0.895502 819.308 7.14513e-05 818.203 7.13547e-05L818.203 4.00007ZM826.166 7.20509e-05C825.061 7.19543e-05 824.166 0.895502 824.166 2.00007C824.166 3.10464 825.061 4.00007 826.166 4.00007L826.166 7.20509e-05ZM834.129 4.00007C835.233 4.00007 836.129 3.10464 836.129 2.00007C836.129 0.895503 835.233 7.28436e-05 834.129 7.2747e-05L834.129 4.00007ZM842.092 7.34432e-05C840.987 7.33466e-05 840.092 0.895504 840.092 2.00007C840.092 3.10464 840.987 4.00007 842.092 4.00007L842.092 7.34432e-05ZM850.055 4.00007C851.159 4.00007 852.055 3.10464 852.055 2.00007C852.055 0.895505 851.159 7.42359e-05 850.055 7.41393e-05L850.055 4.00007ZM858.018 7.48355e-05C856.913 7.47389e-05 856.018 0.895505 856.018 2.00007C856.018 3.10464 856.913 4.00007 858.018 4.00007L858.018 7.48355e-05ZM865.981 4.00008C867.085 4.00008 867.981 3.10465 867.981 2.00008C867.981 0.895506 867.085 7.56282e-05 865.981 7.55316e-05L865.981 4.00008ZM873.944 7.62277e-05C872.839 7.61312e-05 871.944 0.895506 871.944 2.00008C871.944 3.10465 872.839 4.00008 873.944 4.00008L873.944 7.62277e-05ZM881.907 4.00008C883.011 4.00008 883.907 3.10465 883.907 2.00008C883.907 0.895508 883.011 7.70204e-05 881.907 7.69239e-05L881.907 4.00008ZM889.87 7.762e-05C888.765 7.75235e-05 887.87 0.895508 887.87 2.00008C887.87 3.10465 888.765 4.00008 889.87 4.00008L889.87 7.762e-05ZM897.832 4.00008C898.937 4.00008 899.832 3.10465 899.832 2.00008C899.832 0.895509 898.937 7.84127e-05 897.832 7.83162e-05L897.832 4.00008ZM905.796 7.90123e-05C904.691 7.89158e-05 903.796 0.895509 903.796 2.00008C903.796 3.10465 904.691 4.00008 905.796 4.00008L905.796 7.90123e-05ZM913.758 4.00008C914.863 4.00008 915.758 3.10465 915.758 2.00008C915.758 0.89551 914.863 7.9805e-05 913.758 7.97085e-05L913.758 4.00008ZM921.721 8.04046e-05C920.617 8.0308e-05 919.721 0.895511 919.721 2.00008C919.721 3.10465 920.617 4.00008 921.721 4.00008L921.721 8.04046e-05ZM929.684 4.00008C930.789 4.00008 931.684 3.10465 931.684 2.00008C931.684 0.895512 930.789 8.11973e-05 929.684 8.11007e-05L929.684 4.00008ZM937.647 8.17969e-05C936.543 8.17003e-05 935.647 0.895512 935.647 2.00008C935.647 3.10465 936.543 4.00008 937.647 4.00008L937.647 8.17969e-05ZM945.61 4.00008C946.715 4.00008 947.61 3.10465 947.61 2.00008C947.61 0.895513 946.715 8.25896e-05 945.61 8.2493e-05L945.61 4.00008ZM953.573 8.31892e-05C952.469 8.30926e-05 951.573 0.895513 951.573 2.00008C951.573 3.10465 952.469 4.00008 953.573 4.00008L953.573 8.31892e-05ZM961.536 4.00008C962.641 4.00008 963.536 3.10465 963.536 2.00008C963.536 0.895515 962.641 8.39819e-05 961.536 8.38853e-05L961.536 4.00008ZM969.499 8.45815e-05C968.395 8.44849e-05 967.499 0.895515 967.499 2.00008C967.499 3.10465 968.395 4.00008 969.499 4.00008L969.499 8.45815e-05ZM977.462 4.00009C978.567 4.00009 979.462 3.10466 979.462 2.00009C979.462 0.895516 978.567 8.53742e-05 977.462 8.52776e-05L977.462 4.00009ZM985.425 8.59737e-05C984.32 8.58772e-05 983.425 0.895516 983.425 2.00009C983.425 3.10466 984.32 4.00009 985.425 4.00009L985.425 8.59737e-05ZM993.388 4.00009C994.493 4.00009 995.388 3.10466 995.388 2.00009C995.388 0.895517 994.493 8.67665e-05 993.388 8.66699e-05L993.388 4.00009ZM1001.35 8.7366e-05C1000.25 8.72695e-05 999.351 0.895518 999.351 2.00009C999.351 3.10466 1000.25 4.00009 1001.35 4.00009L1001.35 8.7366e-05ZM1009.31 4.00009C1010.42 4.00009 1011.31 3.10466 1011.31 2.00009C1011.31 0.895519 1010.42 8.81587e-05 1009.31 8.80622e-05L1009.31 4.00009ZM1017.28 8.87583e-05C1016.17 8.86618e-05 1015.28 0.895519 1015.28 2.00009C1015.28 3.10466 1016.17 4.00009 1017.28 4.00009L1017.28 8.87583e-05ZM1025.24 4.00009C1026.34 4.00009 1027.24 3.10466 1027.24 2.00009C1027.24 0.89552 1026.34 8.9551e-05 1025.24 8.94545e-05L1025.24 4.00009ZM1033.2 9.01506e-05C1032.1 9.0054e-05 1031.2 0.89552 1031.2 2.00009C1031.2 3.10466 1032.1 4.00009 1033.2 4.00009L1033.2 9.01506e-05ZM1041.17 4.00009C1042.27 4.00009 1043.17 3.10466 1043.17 2.00009C1043.17 0.895521 1042.27 9.09433e-05 1041.17 9.08468e-05L1041.17 4.00009ZM1049.13 9.15429e-05C1048.02 9.14464e-05 1047.13 0.895522 1047.13 2.00009C1047.13 3.10466 1048.02 4.00009 1049.13 4.00009L1049.13 9.15429e-05ZM1057.09 4.00009C1058.2 4.00009 1059.09 3.10466 1059.09 2.00009C1059.09 0.895523 1058.2 9.23356e-05 1057.09 9.22391e-05L1057.09 4.00009ZM1065.05 9.29352e-05C1063.95 9.28386e-05 1063.05 0.895523 1063.05 2.00009C1063.05 3.10466 1063.95 4.00009 1065.05 4.00009L1065.05 9.29352e-05ZM1073.02 4.00009C1074.12 4.00009 1075.02 3.10466 1075.02 2.00009C1075.02 0.895524 1074.12 9.37279e-05 1073.02 9.36314e-05L1073.02 4.00009ZM1080.98 9.43275e-05C1079.88 9.4231e-05 1078.98 0.895525 1078.98 2.00009C1078.98 3.10466 1079.88 4.00009 1080.98 4.00009L1080.98 9.43275e-05ZM1088.94 4.0001C1090.05 4.0001 1090.94 3.10466 1090.94 2.0001C1090.94 0.895526 1090.05 9.51202e-05 1088.94 9.50237e-05L1088.94 4.0001ZM1096.91 9.57198e-05C1095.8 9.56232e-05 1094.91 0.895526 1094.91 2.0001C1094.91 3.10467 1095.8 4.0001 1096.91 4.0001L1096.91 9.57198e-05ZM1104.87 4.0001C1105.97 4.0001 1106.87 3.10467 1106.87 2.0001C1106.87 0.895527 1105.97 9.65125e-05 1104.87 9.6416e-05L1104.87 4.0001ZM1112.83 9.71121e-05C1111.73 9.70155e-05 1110.83 0.895527 1110.83 2.0001C1110.83 3.10467 1111.73 4.0001 1112.83 4.0001L1112.83 9.71121e-05ZM1120.8 4.0001C1121.9 4.0001 1122.8 3.10467 1122.8 2.0001C1122.8 0.895528 1121.9 9.79048e-05 1120.8 9.78083e-05L1120.8 4.0001ZM1128.76 9.85044e-05C1127.65 9.84078e-05 1126.76 0.895529 1126.76 2.0001C1126.76 3.10467 1127.65 4.0001 1128.76 4.0001L1128.76 9.85044e-05ZM1136.72 4.0001C1137.83 4.0001 1138.72 3.10467 1138.72 2.0001C1138.72 0.89553 1137.83 9.92971e-05 1136.72 9.92005e-05L1136.72 4.0001ZM1144.68 9.98967e-05C1143.58 9.98001e-05 1142.68 0.89553 1142.68 2.0001C1142.68 3.10467 1143.58 4.0001 1144.68 4.0001L1144.68 9.98967e-05ZM1152.65 4.0001C1153.75 4.0001 1154.65 3.10467 1154.65 2.0001C1154.65 0.895531 1153.75 0.000100689 1152.65 0.000100593L1152.65 4.0001ZM1160.61 0.000101289C1159.51 0.000101192 1158.61 0.895532 1158.61 2.0001C1158.61 3.10467 1159.51 4.0001 1160.61 4.0001L1160.61 0.000101289ZM1168.57 4.0001C1169.68 4.0001 1170.57 3.10467 1170.57 2.0001C1170.57 0.895533 1169.68 0.000102082 1168.57 0.000101985L1168.57 4.0001ZM1176.54 0.000102681C1175.43 0.000102585 1174.54 0.895533 1174.54 2.0001C1174.54 3.10467 1175.43 4.0001 1176.54 4.0001L1176.54 0.000102681ZM1184.5 4.0001C1185.6 4.0001 1186.5 3.10467 1186.5 2.0001C1186.5 0.895534 1185.6 0.000103474 1184.5 0.000103377L1184.5 4.0001ZM1192.46 0.000104074C1191.36 0.000103977 1190.46 0.895534 1190.46 2.0001C1190.46 3.10467 1191.36 4.0001 1192.46 4.0001L1192.46 0.000104074ZM1200.43 4.0001C1201.53 4.0001 1202.43 3.10467 1202.43 2.0001C1202.43 0.895535 1201.53 0.000104866 1200.43 0.00010477L1200.43 4.0001ZM1208.39 0.000105466C1207.28 0.000105369 1206.39 0.895536 1206.39 2.00011C1206.39 3.10467 1207.28 4.00011 1208.39 4.00011L1208.39 0.000105466ZM1216.35 4.00011C1217.46 4.00011 1218.35 3.10468 1218.35 2.00011C1218.35 0.895537 1217.46 0.000106259 1216.35 0.000106162L1216.35 4.00011ZM1224.32 0.000106858C1223.21 0.000106762 1222.32 0.895537 1222.32 2.00011C1222.32 3.10468 1223.21 4.00011 1224.32 4.00011L1224.32 0.000106858ZM1232.28 4.00011C1233.38 4.00011 1234.28 3.10468 1234.28 2.00011C1234.28 0.895538 1233.38 0.000107651 1232.28 0.000107554L1232.28 4.00011ZM1240.24 0.00010825C1239.14 0.000108154 1238.24 0.895539 1238.24 2.00011C1238.24 3.10468 1239.14 4.00011 1240.24 4.00011L1240.24 0.00010825ZM1248.2 4.00011C1249.31 4.00011 1250.2 3.10468 1250.2 2.00011C1250.2 0.89554 1249.31 0.000109043 1248.2 0.000108947L1248.2 4.00011ZM1256.17 0.000109643C1255.06 0.000109546 1254.17 0.89554 1254.17 2.00011C1254.17 3.10468 1255.06 4.00011 1256.17 4.00011L1256.17 0.000109643ZM1264.13 4.00011C1265.23 4.00011 1266.13 3.10468 1266.13 2.00011C1266.13 0.895541 1265.23 0.000110435 1264.13 0.000110339L1264.13 4.00011ZM1272.09 0.000111035C1270.99 0.000110939 1270.09 0.895541 1270.09 2.00011C1270.09 3.10468 1270.99 4.00011 1272.09 4.00011L1272.09 0.000111035ZM1280.06 4.00011C1281.16 4.00011 1282.06 3.10468 1282.06 2.00011C1282.06 0.895542 1281.16 0.000111828 1280.06 0.000111731L1280.06 4.00011ZM1288.02 0.000112427C1286.91 0.000112331 1286.02 0.895543 1286.02 2.00011C1286.02 3.10468 1286.91 4.00011 1288.02 4.00011L1288.02 0.000112427ZM1295.98 4.00011C1297.09 4.00011 1297.98 3.10468 1297.98 2.00011C1297.98 0.895544 1297.09 0.00011322 1295.98 0.000113124L1295.98 4.00011ZM1303.95 0.00011382C1302.84 0.000113723 1301.95 0.895544 1301.95 2.00011C1301.95 3.10468 1302.84 4.00011 1303.95 4.00011L1303.95 0.00011382ZM1311.91 4.00011C1313.01 4.00011 1313.91 3.10468 1313.91 2.00011C1313.91 0.895545 1313.01 0.000114612 1311.91 0.000114516L1311.91 4.00011ZM1319.87 0.000115212C1318.77 0.000115115 1317.87 0.895545 1317.87 2.00012C1317.87 3.10468 1318.77 4.00012 1319.87 4.00012L1319.87 0.000115212ZM1327.83 4.00012C1328.94 4.00012 1329.83 3.10469 1329.83 2.00012C1329.83 0.895547 1328.94 0.000116005 1327.83 0.000115908L1327.83 4.00012ZM1335.8 0.000116604C1334.69 0.000116508 1333.8 0.895547 1333.8 2.00012C1333.8 3.10469 1334.69 4.00012 1335.8 4.00012L1335.8 0.000116604ZM1343.76 4.00012C1344.86 4.00012 1345.76 3.10469 1345.76 2.00012C1345.76 0.895548 1344.86 0.000117397 1343.76 0.0001173L1343.76 4.00012ZM1351.72 0.000117997C1350.62 0.0001179 1349.72 0.895548 1349.72 2.00012C1349.72 3.10469 1350.62 4.00012 1351.72 4.00012L1351.72 0.000117997ZM1359.69 4.00012C1360.79 4.00012 1361.69 3.10469 1361.69 2.00012C1361.69 0.895549 1360.79 0.000118789 1359.69 0.000118693L1359.69 4.00012ZM1367.65 0.000119389C1366.54 0.000119292 1365.65 0.89555 1365.65 2.00012C1365.65 3.10469 1366.54 4.00012 1367.65 4.00012L1367.65 0.000119389ZM1375.61 4.00012C1376.72 4.00012 1377.61 3.10469 1377.61 2.00012C1377.61 0.895551 1376.72 0.000120182 1375.61 0.000120085L1375.61 4.00012ZM1383.58 0.000120781C1382.47 0.000120685 1381.58 0.895551 1381.58 2.00012C1381.58 3.10469 1382.47 4.00012 1383.58 4.00012L1383.58 0.000120781ZM1391.54 4.00012C1392.64 4.00012 1393.54 3.10469 1393.54 2.00012C1393.54 0.895552 1392.64 0.000121574 1391.54 0.000121477L1391.54 4.00012ZM1399.5 0.000122173C1398.4 0.000122077 1397.5 0.895552 1397.5 2.00012C1397.5 3.10469 1398.4 4.00012 1399.5 4.00012L1399.5 0.000122173ZM1407.46 4.00012C1408.57 4.00012 1409.46 3.10469 1409.46 2.00012C1409.46 0.895553 1408.57 0.000122966 1407.46 0.00012287L1407.46 4.00012ZM1415.43 0.000123566C1414.32 0.000123469 1413.43 0.895554 1413.43 2.00012C1413.43 3.10469 1414.32 4.00012 1415.43 4.00012L1415.43 0.000123566ZM1423.39 4.00012C1424.49 4.00012 1425.39 3.10469 1425.39 2.00012C1425.39 0.895555 1424.49 0.000124358 1423.39 0.000124262L1423.39 4.00012ZM1431.35 0.000124958C1430.25 0.000124861 1429.35 0.895555 1429.35 2.00012C1429.35 3.10469 1430.25 4.00012 1431.35 4.00012L1431.35 0.000124958ZM1439.32 4.00013C1440.42 4.00013 1441.32 3.1047 1441.32 2.00013C1441.32 0.895556 1440.42 0.000125751 1439.32 0.000125654L1439.32 4.00013ZM1447.28 0.00012635C1446.17 0.000126254 1445.28 0.895557 1445.28 2.00013C1445.28 3.1047 1446.17 4.00013 1447.28 4.00013L1447.28 0.00012635ZM1455.24 4.00013C1456.35 4.00013 1457.24 3.1047 1457.24 2.00013C1457.24 0.895558 1456.35 0.000127143 1455.24 0.000127046L1455.24 4.00013ZM1463.21 0.000127743C1462.1 0.000127646 1461.21 0.895558 1461.21 2.00013C1461.21 3.1047 1462.1 4.00013 1463.21 4.00013L1463.21 0.000127743ZM1471.17 4.00013C1472.27 4.00013 1473.17 3.1047 1473.17 2.00013C1473.17 0.895559 1472.27 0.000128535 1471.17 0.000128439L1471.17 4.00013ZM1479.13 0.000129135C1478.03 0.000129038 1477.13 0.895559 1477.13 2.00013C1477.13 3.1047 1478.03 4.00013 1479.13 4.00013L1479.13 0.000129135ZM1487.09 4.00013C1488.2 4.00013 1489.09 3.1047 1489.09 2.00013C1489.09 0.89556 1488.2 0.000129928 1487.09 0.000129831L1487.09 4.00013ZM1495.06 0.000130527C1493.95 0.000130431 1493.06 0.895561 1493.06 2.00013C1493.06 3.1047 1493.95 4.00013 1495.06 4.00013L1495.06 0.000130527ZM1503.02 4.00013C1504.12 4.00013 1505.02 3.1047 1505.02 2.00013C1505.02 0.895562 1504.13 0.00013132 1503.02 0.000131223L1503.02 4.00013ZM1510.98 0.00013192C1509.88 0.000131823 1508.98 0.895562 1508.98 2.00013C1508.98 3.1047 1509.88 4.00013 1510.98 4.00013L1510.98 0.00013192ZM1518.95 4.00013C1520.05 4.00013 1520.95 3.1047 1520.95 2.00013C1520.95 0.895563 1520.05 0.000132712 1518.95 0.000132616L1518.95 4.00013ZM1526.91 0.000133312C1525.81 0.000133215 1524.91 0.895564 1524.91 2.00013C1524.91 3.1047 1525.81 4.00013 1526.91 4.00013L1526.91 0.000133312ZM1534.87 4.00013C1535.98 4.00013 1536.87 3.1047 1536.87 2.00013C1536.87 0.895565 1535.98 0.000134105 1534.87 0.000134008L1534.87 4.00013ZM1542.84 0.000134704C1541.73 0.000134608 1540.84 0.895565 1540.84 2.00013C1540.84 3.1047 1541.73 4.00013 1542.84 4.00013L1542.84 0.000134704ZM1550.8 4.00014C1551.9 4.00014 1552.8 3.10471 1552.8 2.00014C1552.8 0.895566 1551.9 0.000135497 1550.8 0.0001354L1550.8 4.00014ZM1558.76 0.000136096C1557.66 0.000136 1556.76 0.895566 1556.76 2.00014C1556.76 3.10471 1557.66 4.00014 1558.76 4.00014L1558.76 0.000136096ZM1566.72 4.00014C1567.83 4.00014 1568.72 3.10471 1568.72 2.00014C1568.72 0.895567 1567.83 0.000136889 1566.72 0.000136793L1566.72 4.00014ZM1574.69 0.000137489C1573.58 0.000137392 1572.69 0.895568 1572.69 2.00014C1572.69 3.10471 1573.58 4.00014 1574.69 4.00014L1574.69 0.000137489ZM1582.65 4.00014C1583.76 4.00014 1584.65 3.10471 1584.65 2.00014C1584.65 0.895569 1583.76 0.000138281 1582.65 0.000138185L1582.65 4.00014ZM1590.61 0.000138881C1589.51 0.000138784 1588.61 0.895569 1588.61 2.00014C1588.61 3.10471 1589.51 4.00014 1590.61 4.00014L1590.61 0.000138881ZM1598.58 4.00014C1599.68 4.00014 1600.58 3.10471 1600.58 2.00014C1600.58 0.89557 1599.68 0.000139674 1598.58 0.000139577L1598.58 4.00014ZM1606.54 0.000140273C1605.44 0.000140177 1604.54 0.895571 1604.54 2.00014C1604.54 3.10471 1605.44 4.00014 1606.54 4.00014L1606.54 0.000140273ZM1614.5 4.00014C1615.61 4.00014 1616.5 3.10471 1616.5 2.00014C1616.5 0.895572 1615.61 0.000141066 1614.5 0.000140969L1614.5 4.00014ZM1622.47 0.000141666C1621.36 0.000141569 1620.47 0.895572 1620.47 2.00014C1620.47 3.10471 1621.36 4.00014 1622.47 4.00014L1622.47 0.000141666ZM1630.43 4.00014C1631.53 4.00014 1632.43 3.10471 1632.43 2.00014C1632.43 0.895573 1631.53 0.000142458 1630.43 0.000142362L1630.43 4.00014ZM1638.39 0.000143058C1637.29 0.000142961 1636.39 0.895573 1636.39 2.00014C1636.39 3.10471 1637.29 4.00014 1638.39 4.00014L1638.39 0.000143058ZM1646.35 4.00014C1647.46 4.00014 1648.35 3.10471 1648.35 2.00014C1648.35 0.895574 1647.46 0.000143851 1646.35 0.000143754L1646.35 4.00014ZM1654.32 0.00014445C1653.21 0.000144354 1652.32 0.895575 1652.32 2.00014C1652.32 3.10471 1653.21 4.00014 1654.32 4.00014L1654.32 0.00014445ZM1662.28 4.00015C1663.39 4.00015 1664.28 3.10471 1664.28 2.00015C1664.28 0.895576 1663.39 0.000145243 1662.28 0.000145146L1662.28 4.00015ZM1670.24 0.000145843C1669.14 0.000145746 1668.24 0.895576 1668.24 2.00015C1668.24 3.10472 1669.14 4.00015 1670.24 4.00015L1670.24 0.000145843ZM1678.21 4.00015C1679.31 4.00015 1680.21 3.10472 1680.21 2.00015C1680.21 0.895577 1679.31 0.000146635 1678.21 0.000146539L1678.21 4.00015ZM1686.17 0.000147235C1685.07 0.000147138 1684.17 0.895578 1684.17 2.00015C1684.17 3.10472 1685.07 4.00015 1686.17 4.00015L1686.17 0.000147235ZM1694.13 4.00015C1695.24 4.00015 1696.13 3.10472 1696.13 2.00015C1696.13 0.895579 1695.24 0.000148028 1694.13 0.000147931L1694.13 4.00015ZM1702.1 0.000148627C1700.99 0.000148531 1700.1 0.895579 1700.1 2.00015C1700.1 3.10472 1700.99 4.00015 1702.1 4.00015L1702.1 0.000148627ZM1710.06 4.00015C1711.16 4.00015 1712.06 3.10472 1712.06 2.00015C1712.06 0.89558 1711.16 0.00014942 1710.06 0.000149323L1710.06 4.00015ZM1718.02 0.000150019C1716.92 0.000149923 1716.02 0.89558 1716.02 2.00015C1716.02 3.10472 1716.92 4.00015 1718.02 4.00015L1718.02 0.000150019ZM2 4L5.98148 4L5.98148 3.48072e-07L2 0L2 4ZM13.9444 4L21.9074 4L21.9074 1.74036e-06L13.9444 1.04422e-06L13.9444 4ZM29.8704 4L37.8333 4L37.8333 3.13265e-06L29.8704 2.43651e-06L29.8704 4ZM45.7963 4L53.7593 4L53.7593 4.52494e-06L45.7963 3.82879e-06L45.7963 4ZM61.7222 4.00001L69.6852 4.00001L69.6852 5.91723e-06L61.7222 5.22108e-06L61.7222 4.00001ZM77.6481 4.00001L85.6111 4.00001L85.6111 7.30952e-06L77.6481 6.61337e-06L77.6481 4.00001ZM93.5741 4.00001L101.537 4.00001L101.537 8.70181e-06L93.5741 8.00566e-06L93.5741 4.00001ZM109.5 4.00001L117.463 4.00001L117.463 1.00941e-05L109.5 9.39795e-06L109.5 4.00001ZM125.426 4.00001L133.389 4.00001L133.389 1.14864e-05L125.426 1.07902e-05L125.426 4.00001ZM141.352 4.00001L149.315 4.00001L149.315 1.28787e-05L141.352 1.21825e-05L141.352 4.00001ZM157.278 4.00001L165.241 4.00001L165.241 1.4271e-05L157.278 1.35748e-05L157.278 4.00001ZM173.204 4.00001L181.167 4.00002L181.167 1.56633e-05L173.204 1.49671e-05L173.204 4.00001ZM189.13 4.00002L197.093 4.00002L197.093 1.70555e-05L189.13 1.63594e-05L189.13 4.00002ZM205.056 4.00002L213.019 4.00002L213.019 1.84478e-05L205.056 1.77517e-05L205.056 4.00002ZM220.982 4.00002L228.945 4.00002L228.945 1.98401e-05L220.982 1.9144e-05L220.982 4.00002ZM236.907 4.00002L244.87 4.00002L244.87 2.12324e-05L236.907 2.05363e-05L236.907 4.00002ZM252.833 4.00002L260.796 4.00002L260.796 2.26247e-05L252.833 2.19286e-05L252.833 4.00002ZM268.759 4.00002L276.722 4.00002L276.722 2.4017e-05L268.759 2.33208e-05L268.759 4.00002ZM284.685 4.00002L292.648 4.00003L292.648 2.54093e-05L284.685 2.47131e-05L284.685 4.00002ZM300.611 4.00003L308.574 4.00003L308.574 2.68016e-05L300.611 2.61054e-05L300.611 4.00003ZM316.537 4.00003L324.5 4.00003L324.5 2.81938e-05L316.537 2.74977e-05L316.537 4.00003ZM332.463 4.00003L340.426 4.00003L340.426 2.95861e-05L332.463 2.889e-05L332.463 4.00003ZM348.389 4.00003L356.352 4.00003L356.352 3.09784e-05L348.389 3.02823e-05L348.389 4.00003ZM364.315 4.00003L372.278 4.00003L372.278 3.23707e-05L364.315 3.16746e-05L364.315 4.00003ZM380.241 4.00003L388.204 4.00003L388.204 3.3763e-05L380.241 3.30669e-05L380.241 4.00003ZM396.167 4.00003L404.13 4.00004L404.13 3.51553e-05L396.167 3.44591e-05L396.167 4.00003ZM412.092 4.00004L420.055 4.00004L420.055 3.65476e-05L412.092 3.58514e-05L412.092 4.00004ZM428.018 4.00004L435.981 4.00004L435.981 3.79399e-05L428.018 3.72437e-05L428.018 4.00004ZM443.944 4.00004L451.907 4.00004L451.907 3.93321e-05L443.944 3.8636e-05L443.944 4.00004ZM459.87 4.00004L467.833 4.00004L467.833 4.07244e-05L459.87 4.00283e-05L459.87 4.00004ZM475.796 4.00004L483.759 4.00004L483.759 4.21167e-05L475.796 4.14206e-05L475.796 4.00004ZM491.722 4.00004L499.685 4.00004L499.685 4.3509e-05L491.722 4.28129e-05L491.722 4.00004ZM507.648 4.00004L515.611 4.00004L515.611 4.49013e-05L507.648 4.42051e-05L507.648 4.00004ZM523.574 4.00005L531.537 4.00005L531.537 4.62936e-05L523.574 4.55974e-05L523.574 4.00005ZM539.5 4.00005L547.463 4.00005L547.463 4.76859e-05L539.5 4.69897e-05L539.5 4.00005ZM555.426 4.00005L563.389 4.00005L563.389 4.90781e-05L555.426 4.8382e-05L555.426 4.00005ZM571.352 4.00005L579.314 4.00005L579.314 5.04704e-05L571.352 4.97743e-05L571.352 4.00005ZM587.277 4.00005L595.24 4.00005L595.24 5.18627e-05L587.277 5.11666e-05L587.277 4.00005ZM603.203 4.00005L611.166 4.00005L611.166 5.3255e-05L603.203 5.25589e-05L603.203 4.00005ZM619.129 4.00005L627.092 4.00005L627.092 5.46473e-05L619.129 5.39512e-05L619.129 4.00005ZM635.055 4.00006L643.018 4.00006L643.018 5.60396e-05L635.055 5.53434e-05L635.055 4.00006ZM650.981 4.00006L658.944 4.00006L658.944 5.74319e-05L650.981 5.67357e-05L650.981 4.00006ZM666.907 4.00006L674.87 4.00006L674.87 5.88242e-05L666.907 5.8128e-05L666.907 4.00006ZM682.833 4.00006L690.796 4.00006L690.796 6.02164e-05L682.833 5.95203e-05L682.833 4.00006ZM698.759 4.00006L706.722 4.00006L706.722 6.16087e-05L698.759 6.09126e-05L698.759 4.00006ZM714.685 4.00006L722.648 4.00006L722.648 6.3001e-05L714.685 6.23049e-05L714.685 4.00006ZM730.611 4.00006L738.573 4.00006L738.573 6.43933e-05L730.611 6.36972e-05L730.611 4.00006ZM746.536 4.00007L754.499 4.00007L754.499 6.57856e-05L746.536 6.50894e-05L746.536 4.00007ZM762.462 4.00007L770.425 4.00007L770.425 6.71779e-05L762.462 6.64817e-05L762.462 4.00007ZM778.388 4.00007L786.351 4.00007L786.351 6.85702e-05L778.388 6.7874e-05L778.388 4.00007ZM794.314 4.00007L802.277 4.00007L802.277 6.99625e-05L794.314 6.92663e-05L794.314 4.00007ZM810.24 4.00007L818.203 4.00007L818.203 7.13547e-05L810.24 7.06586e-05L810.24 4.00007ZM826.166 4.00007L834.129 4.00007L834.129 7.2747e-05L826.166 7.20509e-05L826.166 4.00007ZM842.092 4.00007L850.055 4.00007L850.055 7.41393e-05L842.092 7.34432e-05L842.092 4.00007ZM858.018 4.00007L865.981 4.00008L865.981 7.55316e-05L858.018 7.48355e-05L858.018 4.00007ZM873.944 4.00008L881.907 4.00008L881.907 7.69239e-05L873.944 7.62277e-05L873.944 4.00008ZM889.87 4.00008L897.832 4.00008L897.832 7.83162e-05L889.87 7.762e-05L889.87 4.00008ZM905.796 4.00008L913.758 4.00008L913.758 7.97085e-05L905.796 7.90123e-05L905.796 4.00008ZM921.721 4.00008L929.684 4.00008L929.684 8.11007e-05L921.721 8.04046e-05L921.721 4.00008ZM937.647 4.00008L945.61 4.00008L945.61 8.2493e-05L937.647 8.17969e-05L937.647 4.00008ZM953.573 4.00008L961.536 4.00008L961.536 8.38853e-05L953.573 8.31892e-05L953.573 4.00008ZM969.499 4.00008L977.462 4.00009L977.462 8.52776e-05L969.499 8.45815e-05L969.499 4.00008ZM985.425 4.00009L993.388 4.00009L993.388 8.66699e-05L985.425 8.59737e-05L985.425 4.00009ZM1001.35 4.00009L1009.31 4.00009L1009.31 8.80622e-05L1001.35 8.7366e-05L1001.35 4.00009ZM1017.28 4.00009L1025.24 4.00009L1025.24 8.94545e-05L1017.28 8.87583e-05L1017.28 4.00009ZM1033.2 4.00009L1041.17 4.00009L1041.17 9.08468e-05L1033.2 9.01506e-05L1033.2 4.00009ZM1049.13 4.00009L1057.09 4.00009L1057.09 9.22391e-05L1049.13 9.15429e-05L1049.13 4.00009ZM1065.05 4.00009L1073.02 4.00009L1073.02 9.36314e-05L1065.05 9.29352e-05L1065.05 4.00009ZM1080.98 4.00009L1088.94 4.0001L1088.94 9.50237e-05L1080.98 9.43275e-05L1080.98 4.00009ZM1096.91 4.0001L1104.87 4.0001L1104.87 9.6416e-05L1096.91 9.57198e-05L1096.91 4.0001ZM1112.83 4.0001L1120.8 4.0001L1120.8 9.78083e-05L1112.83 9.71121e-05L1112.83 4.0001ZM1128.76 4.0001L1136.72 4.0001L1136.72 9.92005e-05L1128.76 9.85044e-05L1128.76 4.0001ZM1144.68 4.0001L1152.65 4.0001L1152.65 0.000100593L1144.68 9.98967e-05L1144.68 4.0001ZM1160.61 4.0001L1168.57 4.0001L1168.57 0.000101985L1160.61 0.000101289L1160.61 4.0001ZM1176.54 4.0001L1184.5 4.0001L1184.5 0.000103377L1176.54 0.000102681L1176.54 4.0001ZM1192.46 4.0001L1200.43 4.0001L1200.43 0.00010477L1192.46 0.000104074L1192.46 4.0001ZM1208.39 4.00011L1216.35 4.00011L1216.35 0.000106162L1208.39 0.000105466L1208.39 4.00011ZM1224.32 4.00011L1232.28 4.00011L1232.28 0.000107554L1224.32 0.000106858L1224.32 4.00011ZM1240.24 4.00011L1248.2 4.00011L1248.2 0.000108947L1240.24 0.00010825L1240.24 4.00011ZM1256.17 4.00011L1264.13 4.00011L1264.13 0.000110339L1256.17 0.000109643L1256.17 4.00011ZM1272.09 4.00011L1280.06 4.00011L1280.06 0.000111731L1272.09 0.000111035L1272.09 4.00011ZM1288.02 4.00011L1295.98 4.00011L1295.98 0.000113124L1288.02 0.000112427L1288.02 4.00011ZM1303.95 4.00011L1311.91 4.00011L1311.91 0.000114516L1303.95 0.00011382L1303.95 4.00011ZM1319.87 4.00012L1327.83 4.00012L1327.83 0.000115908L1319.87 0.000115212L1319.87 4.00012ZM1335.8 4.00012L1343.76 4.00012L1343.76 0.0001173L1335.8 0.000116604L1335.8 4.00012ZM1351.72 4.00012L1359.69 4.00012L1359.69 0.000118693L1351.72 0.000117997L1351.72 4.00012ZM1367.65 4.00012L1375.61 4.00012L1375.61 0.000120085L1367.65 0.000119389L1367.65 4.00012ZM1383.58 4.00012L1391.54 4.00012L1391.54 0.000121477L1383.58 0.000120781L1383.58 4.00012ZM1399.5 4.00012L1407.46 4.00012L1407.46 0.00012287L1399.5 0.000122173L1399.5 4.00012ZM1415.43 4.00012L1423.39 4.00012L1423.39 0.000124262L1415.43 0.000123566L1415.43 4.00012ZM1431.35 4.00012L1439.32 4.00013L1439.32 0.000125654L1431.35 0.000124958L1431.35 4.00012ZM1447.28 4.00013L1455.24 4.00013L1455.24 0.000127046L1447.28 0.00012635L1447.28 4.00013ZM1463.21 4.00013L1471.17 4.00013L1471.17 0.000128439L1463.21 0.000127743L1463.21 4.00013ZM1479.13 4.00013L1487.09 4.00013L1487.09 0.000129831L1479.13 0.000129135L1479.13 4.00013ZM1495.06 4.00013L1503.02 4.00013L1503.02 0.000131223L1495.06 0.000130527L1495.06 4.00013ZM1510.98 4.00013L1518.95 4.00013L1518.95 0.000132616L1510.98 0.00013192L1510.98 4.00013ZM1526.91 4.00013L1534.87 4.00013L1534.87 0.000134008L1526.91 0.000133312L1526.91 4.00013ZM1542.84 4.00013L1550.8 4.00014L1550.8 0.0001354L1542.84 0.000134704L1542.84 4.00013ZM1558.76 4.00014L1566.72 4.00014L1566.72 0.000136793L1558.76 0.000136096L1558.76 4.00014ZM1574.69 4.00014L1582.65 4.00014L1582.65 0.000138185L1574.69 0.000137489L1574.69 4.00014ZM1590.61 4.00014L1598.58 4.00014L1598.58 0.000139577L1590.61 0.000138881L1590.61 4.00014ZM1606.54 4.00014L1614.5 4.00014L1614.5 0.000140969L1606.54 0.000140273L1606.54 4.00014ZM1622.47 4.00014L1630.43 4.00014L1630.43 0.000142362L1622.47 0.000141666L1622.47 4.00014ZM1638.39 4.00014L1646.35 4.00014L1646.35 0.000143754L1638.39 0.000143058L1638.39 4.00014ZM1654.32 4.00014L1662.28 4.00015L1662.28 0.000145146L1654.32 0.00014445L1654.32 4.00014ZM1670.24 4.00015L1678.21 4.00015L1678.21 0.000146539L1670.24 0.000145843L1670.24 4.00015ZM1686.17 4.00015L1694.13 4.00015L1694.13 0.000147931L1686.17 0.000147235L1686.17 4.00015ZM1702.1 4.00015L1710.06 4.00015L1710.06 0.000149323L1702.1 0.000148627L1702.1 4.00015ZM1718.02 4.00015L1722 4.00015L1722 0.000150367L1718.02 0.000150019L1718.02 4.00015Z" fill="url(#paint0_linear_16265_20497)"/>
<defs>
<linearGradient id="paint0_linear_16265_20497" x1="13.9722" y1="2.4465" x2="14.7788" y2="39.4368" gradientUnits="userSpaceOnUse">
<stop stop-color="#CFA935"/>
<stop offset="0.5" stop-color="#FAF59E"/>
<stop offset="1" stop-color="#CFA935" stop-opacity="0"/>
</linearGradient>
</defs>
</svg>
