<svg width="48" height="48" viewBox="0 0 48 48" fill="none" xmlns="http://www.w3.org/2000/svg">
<path d="M6.16386 45.3506H23.3345C23.7051 46.4564 24.7394 47.2605 25.9686 47.2605C27.1973 47.2605 28.2314 46.4563 28.6021 45.3506H30.3869C32.7508 45.3506 34.6738 43.4272 34.6738 41.0633V39.6654L40.1171 40.8719V42.4665C40.1171 42.8679 40.4422 43.1934 40.844 43.1934C41.2459 43.1934 41.571 42.8679 41.571 42.4665C41.571 42.3059 41.571 37.1701 41.571 37.489L44.3288 36.5909C45.4014 36.2417 46.1226 35.2485 46.1226 34.1198V32.5361C46.1226 31.4075 45.4014 30.4143 44.3288 30.0651L41.571 29.1669C41.571 29.0742 41.571 23.8614 41.571 24.1898C41.571 23.7884 41.2459 23.4629 40.844 23.4629C40.4422 23.4629 40.1171 23.7884 40.1171 24.1898V25.7841L34.6738 26.9905V10.1377C34.6738 9.99272 34.596 9.75853 34.4608 9.62344L25.7805 0.950906C25.6496 0.8205 25.4117 0.738281 25.2665 0.738281H6.16386C3.79995 0.738281 1.87695 2.66166 1.87695 5.02556V41.0633C1.87695 43.4272 3.80005 45.3506 6.16386 45.3506ZM27.3039 36.7218C27.2075 36.7218 22.9664 36.7218 23.0823 36.7218C21.6633 36.7218 20.5083 35.5668 20.5083 34.1474V32.5087C20.5083 31.0889 21.6633 29.9339 23.0823 29.9339H27.3039V36.7218ZM27.3039 44.4714C27.3039 45.2076 26.7048 45.8067 25.9686 45.8067C25.2318 45.8067 24.6327 45.2076 24.6327 44.4714V38.1756H27.3039V44.4714ZM33.22 41.0633C33.22 42.6258 31.9493 43.8968 30.3869 43.8968H28.7577V38.3542L33.2199 39.3432V41.0633H33.22ZM43.8787 31.447C44.3515 31.6011 44.6689 32.0387 44.6689 32.5359V34.1197C44.6689 34.6169 44.3515 35.0545 43.8787 35.2086L41.5709 35.96V30.6955L43.8787 31.447ZM40.1171 39.3828L28.7577 36.8652V29.7907L40.1171 27.2731V39.3828ZM32.1906 9.41081H27.1605C26.5166 9.41081 25.9935 8.88731 25.9935 8.24409V3.21909C28.1307 5.35444 29.9701 7.19222 32.1906 9.41081ZM3.33073 5.02556C3.33073 3.46312 4.60142 2.19206 6.16386 2.19206H24.5396V8.24409C24.5396 9.68906 25.7151 10.8646 27.1605 10.8646H33.2199V27.3125L27.9516 28.4801H23.0823C20.861 28.4801 19.0545 30.2874 19.0545 32.5087V34.1474C19.0545 36.3686 20.8611 38.1756 23.0823 38.1756H23.1788V43.8967H6.16386C4.60142 43.8967 3.33073 42.6257 3.33073 41.0632V5.02556Z" fill="#A9A7B0"/>
<path d="M8.85291 37.9578H15.5662C15.968 37.9578 16.2931 37.6323 16.2931 37.2308C16.2931 36.8294 15.968 36.5039 15.5662 36.5039H8.85291C8.4511 36.5039 8.12598 36.8294 8.12598 37.2308C8.12598 37.6323 8.4511 37.9578 8.85291 37.9578Z" fill="#A9A7B0"/>
<path d="M8.85291 31.8211H15.5662C15.968 31.8211 16.2931 31.4956 16.2931 31.0941C16.2931 30.6927 15.968 30.3672 15.5662 30.3672H8.85291C8.4511 30.3672 8.12598 30.6927 8.12598 31.0941C8.12598 31.4956 8.4511 31.8211 8.85291 31.8211Z" fill="#A9A7B0"/>
<path d="M8.85291 25.6843H27.6979C28.0997 25.6843 28.4248 25.3588 28.4248 24.9574C28.4248 24.556 28.0997 24.2305 27.6979 24.2305H8.85291C8.4511 24.2305 8.12598 24.556 8.12598 24.9574C8.12598 25.3588 8.4511 25.6843 8.85291 25.6843Z" fill="#A9A7B0"/>
<path d="M8.85291 19.5476H20.6219C21.0237 19.5476 21.3489 19.2221 21.3489 18.8207C21.3489 18.4192 21.0237 18.0938 20.6219 18.0938H8.85291C8.4511 18.0938 8.12598 18.4192 8.12598 18.8207C8.12598 19.2221 8.4511 19.5476 8.85291 19.5476Z" fill="#A9A7B0"/>
<path d="M8.85291 13.409H20.6219C21.0237 13.409 21.3489 13.0835 21.3489 12.682C21.3489 12.2806 21.0237 11.9551 20.6219 11.9551H8.85291C8.4511 11.9551 8.12598 12.2806 8.12598 12.682C8.12598 13.0835 8.4511 13.409 8.85291 13.409Z" fill="#A9A7B0"/>
</svg>
