<svg width="48" height="48" viewBox="0 0 48 48" fill="none" xmlns="http://www.w3.org/2000/svg">
<g clip-path="url(#clip0_8313_7013)">
<rect width="48" height="48" rx="24" fill="#CFA935"/>
<path d="M20.352 23.016C21.152 23.368 21.776 23.896 22.224 24.6C22.672 25.304 22.896 26.136 22.896 27.096C22.896 28.472 22.464 29.592 21.6 30.456C20.736 31.288 19.632 31.704 18.288 31.704C16.944 31.704 15.824 31.272 14.928 30.408C14.064 29.544 13.632 28.44 13.632 27.096C13.632 26.456 13.712 25.816 13.872 25.176C14.032 24.536 14.384 23.576 14.928 22.296L17.712 15.384H22.464L20.352 23.016ZM31.68 23.016C32.48 23.368 33.104 23.896 33.552 24.6C34 25.304 34.224 26.136 34.224 27.096C34.224 28.472 33.792 29.592 32.928 30.456C32.064 31.288 30.96 31.704 29.616 31.704C28.272 31.704 27.152 31.272 26.256 30.408C25.392 29.544 24.96 28.44 24.96 27.096C24.96 26.456 25.04 25.816 25.2 25.176C25.36 24.536 25.712 23.576 26.256 22.296L29.04 15.384H33.792L31.68 23.016Z" fill="white"/>
</g>
<defs>
<clipPath id="clip0_8313_7013">
<rect width="48" height="48" rx="24" fill="white"/>
</clipPath>
</defs>
</svg>
