<svg width="65" height="50" viewBox="0 0 65 50" fill="none" xmlns="http://www.w3.org/2000/svg">
<path d="M58.3605 45.6168C61.956 41.6536 64.1133 37.3301 64.1133 30.1242C64.1133 17.5139 55.1245 6.34478 42.5402 0.580078L39.3043 5.2639C51.1695 11.7492 53.6863 20.036 54.4054 25.4404C52.6077 24.3595 50.0908 23.9992 47.574 24.3595C41.102 25.0801 36.0683 30.1242 36.0683 36.9698C36.0683 40.2124 37.5065 43.4551 39.6638 45.9771C42.1807 48.4992 45.0571 49.5801 48.6526 49.5801C52.6077 49.5801 56.2032 47.7786 58.3605 45.6168ZM22.4054 45.6168C26.0009 41.6536 28.1582 37.3301 28.1582 30.1242C28.1582 17.5139 19.1695 6.34478 6.58519 0.580078L3.34924 5.2639C15.2144 11.7492 17.7313 20.036 18.4504 25.4404C16.6526 24.3595 14.1358 23.9992 11.6189 24.3595C5.14699 25.0801 0.113282 30.1242 0.113282 36.9698C0.113282 40.2124 1.55148 43.4551 3.70879 45.9771C5.86609 48.4992 9.10205 49.5801 12.6976 49.5801C16.6526 49.5801 20.2481 47.7786 22.4054 45.6168Z" fill="white"/>
</svg>
