<svg width="40" height="40" viewBox="0 0 40 40" fill="none" xmlns="http://www.w3.org/2000/svg">
<mask id="path-1-inside-1_10026_12440" fill="white">
<path fill-rule="evenodd" clip-rule="evenodd" d="M33.3227 34.7946H6.67691C6.33055 34.7946 6.04946 34.5134 6.04946 34.1671C6.04946 33.8208 6.33055 33.5397 6.67691 33.5397H16.1003C14.4146 32.3266 13.3172 30.3476 13.3172 28.112C13.3172 24.4209 16.3088 21.4294 19.9998 21.4294C20.1677 21.4294 20.3342 21.4356 20.4991 21.4477L23.8811 17.1397C24.0048 16.9822 24.1961 16.8932 24.3962 16.9001L27.3045 16.9998C27.6342 17.0111 27.8987 17.2757 27.9101 17.6054L28.0098 20.5137C28.0168 20.7138 27.9277 20.9052 27.7702 21.0288L24.7435 23.4048C25.9421 24.6126 26.6824 26.2757 26.6824 28.112C26.6824 30.3476 25.585 32.3266 23.8993 33.5397H33.3227C33.6691 33.5397 33.9502 33.8208 33.9502 34.1671C33.9502 34.5134 33.6691 34.7946 33.3227 34.7946ZM21.895 21.7019C22.5655 21.8997 23.192 22.1999 23.7565 22.5843L26.7447 20.2384L26.676 18.2339L24.6715 18.1652L21.895 21.7019ZM19.9998 33.5397C21.3492 33.5397 22.5836 33.0473 23.533 32.2326C23.2104 30.5752 21.7507 29.324 19.9998 29.324C18.2489 29.324 16.7892 30.5752 16.4666 32.2326C17.416 33.0473 18.6504 33.5397 19.9998 33.5397ZM24.5117 31.1304C25.0901 30.2674 25.4275 29.2292 25.4275 28.112C25.4275 25.114 22.9978 22.6843 19.9998 22.6843C17.0018 22.6843 14.5721 25.114 14.5721 28.112C14.5721 29.2292 14.9095 30.2674 15.488 31.1304C15.9564 29.9537 16.8714 29.0032 18.0235 28.4886C17.5356 27.9893 17.2339 27.3074 17.2339 26.5581C17.2339 25.0364 18.4781 23.7922 19.9998 23.7922C21.5215 23.7922 22.7657 25.0364 22.7657 26.5581C22.7657 27.3074 22.464 27.9893 21.9761 28.4886C23.1282 29.0032 24.0433 29.9537 24.5117 31.1304ZM19.9998 28.0691C20.8311 28.0691 21.5108 27.3894 21.5108 26.5581C21.5108 25.7268 20.8311 25.0471 19.9998 25.0471C19.1685 25.0471 18.4888 25.7268 18.4888 26.5581C18.4888 27.3894 19.1685 28.0691 19.9998 28.0691ZM19.9998 5.20508C30.7422 5.20508 39.4508 13.9137 39.4508 24.6561C39.4508 25.0026 39.1698 25.2836 38.8233 25.2836H31.8062C31.4597 25.2836 31.1788 25.0026 31.1788 24.6561C31.1788 18.4823 26.1736 13.4772 19.9998 13.4772C13.8259 13.4772 8.82083 18.4823 8.82083 24.6561C8.82083 25.0026 8.53989 25.2836 8.19338 25.2836H1.17628C0.829769 25.2836 0.548828 25.0026 0.548828 24.6561C0.548828 13.9137 9.25738 5.20508 19.9998 5.20508ZM3.93408 16.1051C2.66679 18.4812 1.91118 21.1714 1.81432 24.0287H7.58153C7.67142 22.2202 8.14765 20.5135 8.92953 18.9892L3.93408 16.1051ZM9.558 17.903C10.5134 16.4288 11.7725 15.1697 13.2467 14.2143L10.3626 9.2188C8.01706 10.6862 6.02993 12.6733 4.56255 15.0189L9.558 17.903ZM14.3329 13.5858C15.8571 12.804 17.5639 12.3277 19.3724 12.2378V6.47065C16.515 6.56743 13.8248 7.32304 11.4488 8.59033L14.3329 13.5858ZM20.6273 12.2378C22.4357 12.3277 24.1426 12.804 25.6668 13.5859L28.5509 8.59033C26.1748 7.32304 23.4846 6.56743 20.6273 6.47065V12.2378ZM26.7529 14.2143C28.2271 15.1697 29.4862 16.4288 30.4416 17.903L35.4371 15.0189C33.9697 12.6733 31.9826 10.6862 29.6371 9.2188L26.7529 14.2143ZM31.0701 18.9892C31.852 20.5135 32.3282 22.2202 32.4181 24.0287H38.1853C38.0884 21.1714 37.3328 18.4812 36.0655 16.1051L31.0701 18.9892Z"/>
</mask>
<path fill-rule="evenodd" clip-rule="evenodd" d="M33.3227 34.7946H6.67691C6.33055 34.7946 6.04946 34.5134 6.04946 34.1671C6.04946 33.8208 6.33055 33.5397 6.67691 33.5397H16.1003C14.4146 32.3266 13.3172 30.3476 13.3172 28.112C13.3172 24.4209 16.3088 21.4294 19.9998 21.4294C20.1677 21.4294 20.3342 21.4356 20.4991 21.4477L23.8811 17.1397C24.0048 16.9822 24.1961 16.8932 24.3962 16.9001L27.3045 16.9998C27.6342 17.0111 27.8987 17.2757 27.9101 17.6054L28.0098 20.5137C28.0168 20.7138 27.9277 20.9052 27.7702 21.0288L24.7435 23.4048C25.9421 24.6126 26.6824 26.2757 26.6824 28.112C26.6824 30.3476 25.585 32.3266 23.8993 33.5397H33.3227C33.6691 33.5397 33.9502 33.8208 33.9502 34.1671C33.9502 34.5134 33.6691 34.7946 33.3227 34.7946ZM21.895 21.7019C22.5655 21.8997 23.192 22.1999 23.7565 22.5843L26.7447 20.2384L26.676 18.2339L24.6715 18.1652L21.895 21.7019ZM19.9998 33.5397C21.3492 33.5397 22.5836 33.0473 23.533 32.2326C23.2104 30.5752 21.7507 29.324 19.9998 29.324C18.2489 29.324 16.7892 30.5752 16.4666 32.2326C17.416 33.0473 18.6504 33.5397 19.9998 33.5397ZM24.5117 31.1304C25.0901 30.2674 25.4275 29.2292 25.4275 28.112C25.4275 25.114 22.9978 22.6843 19.9998 22.6843C17.0018 22.6843 14.5721 25.114 14.5721 28.112C14.5721 29.2292 14.9095 30.2674 15.488 31.1304C15.9564 29.9537 16.8714 29.0032 18.0235 28.4886C17.5356 27.9893 17.2339 27.3074 17.2339 26.5581C17.2339 25.0364 18.4781 23.7922 19.9998 23.7922C21.5215 23.7922 22.7657 25.0364 22.7657 26.5581C22.7657 27.3074 22.464 27.9893 21.9761 28.4886C23.1282 29.0032 24.0433 29.9537 24.5117 31.1304ZM19.9998 28.0691C20.8311 28.0691 21.5108 27.3894 21.5108 26.5581C21.5108 25.7268 20.8311 25.0471 19.9998 25.0471C19.1685 25.0471 18.4888 25.7268 18.4888 26.5581C18.4888 27.3894 19.1685 28.0691 19.9998 28.0691ZM19.9998 5.20508C30.7422 5.20508 39.4508 13.9137 39.4508 24.6561C39.4508 25.0026 39.1698 25.2836 38.8233 25.2836H31.8062C31.4597 25.2836 31.1788 25.0026 31.1788 24.6561C31.1788 18.4823 26.1736 13.4772 19.9998 13.4772C13.8259 13.4772 8.82083 18.4823 8.82083 24.6561C8.82083 25.0026 8.53989 25.2836 8.19338 25.2836H1.17628C0.829769 25.2836 0.548828 25.0026 0.548828 24.6561C0.548828 13.9137 9.25738 5.20508 19.9998 5.20508ZM3.93408 16.1051C2.66679 18.4812 1.91118 21.1714 1.81432 24.0287H7.58153C7.67142 22.2202 8.14765 20.5135 8.92953 18.9892L3.93408 16.1051ZM9.558 17.903C10.5134 16.4288 11.7725 15.1697 13.2467 14.2143L10.3626 9.2188C8.01706 10.6862 6.02993 12.6733 4.56255 15.0189L9.558 17.903ZM14.3329 13.5858C15.8571 12.804 17.5639 12.3277 19.3724 12.2378V6.47065C16.515 6.56743 13.8248 7.32304 11.4488 8.59033L14.3329 13.5858ZM20.6273 12.2378C22.4357 12.3277 24.1426 12.804 25.6668 13.5859L28.5509 8.59033C26.1748 7.32304 23.4846 6.56743 20.6273 6.47065V12.2378ZM26.7529 14.2143C28.2271 15.1697 29.4862 16.4288 30.4416 17.903L35.4371 15.0189C33.9697 12.6733 31.9826 10.6862 29.6371 9.2188L26.7529 14.2143ZM31.0701 18.9892C31.852 20.5135 32.3282 22.2202 32.4181 24.0287H38.1853C38.0884 21.1714 37.3328 18.4812 36.0655 16.1051L31.0701 18.9892Z" fill="#CFA935"/>
<path d="M16.1003 33.5397V35.5397H22.3033L17.2685 31.9163L16.1003 33.5397ZM20.4991 21.4477L20.352 23.4423L21.4144 23.5207L22.0723 22.6827L20.4991 21.4477ZM23.8811 17.1397L25.4543 18.3747L25.4544 18.3745L23.8811 17.1397ZM24.3962 16.9001L24.3272 18.8989L24.3276 18.8989L24.3962 16.9001ZM27.3045 16.9998L27.236 18.9986L27.236 18.9987L27.3045 16.9998ZM27.9101 17.6054L29.9089 17.5368L29.9089 17.5364L27.9101 17.6054ZM28.0098 20.5137L26.011 20.5823L26.011 20.5827L28.0098 20.5137ZM27.7702 21.0288L26.5354 19.4555L26.5353 19.4556L27.7702 21.0288ZM24.7435 23.4048L23.5085 21.8317L21.7413 23.219L23.3239 24.8137L24.7435 23.4048ZM23.8993 33.5397L22.7311 31.9163L17.6963 35.5397H23.8993V33.5397ZM21.895 21.7019L20.3219 20.4669L18.5016 22.7856L21.3289 23.6201L21.895 21.7019ZM23.7565 22.5843L22.6309 24.2375L23.8405 25.061L24.9915 24.1574L23.7565 22.5843ZM26.7447 20.2384L27.9797 21.8116L28.7784 21.1846L28.7436 20.1698L26.7447 20.2384ZM26.676 18.2339L28.6748 18.1654L28.6108 16.2992L26.7446 16.2351L26.676 18.2339ZM24.6715 18.1652L24.7401 16.1663L23.7253 16.1315L23.0983 16.9302L24.6715 18.1652ZM23.533 32.2326L24.8355 33.7504L25.7184 32.9926L25.4961 31.8505L23.533 32.2326ZM16.4666 32.2326L14.5035 31.8505L14.2812 32.9926L15.1642 33.7504L16.4666 32.2326ZM24.5117 31.1304L22.6535 31.8701L24.0583 35.3993L26.173 32.2439L24.5117 31.1304ZM15.488 31.1304L13.8266 32.2439L15.9414 35.3993L17.3462 31.8701L15.488 31.1304ZM18.0235 28.4886L18.8392 30.3147L21.4603 29.144L19.4539 27.0908L18.0235 28.4886ZM21.9761 28.4886L20.5457 27.0908L18.5393 29.144L21.1605 30.3147L21.9761 28.4886ZM3.93408 16.1051L4.93409 14.373L3.1428 13.3388L2.16939 15.1639L3.93408 16.1051ZM1.81432 24.0287L-0.184533 23.9609L-0.25463 26.0287H1.81432V24.0287ZM7.58153 24.0287V26.0287H9.4846L9.57907 24.128L7.58153 24.0287ZM8.92953 18.9892L10.7091 19.9021L11.5777 18.2088L9.92954 17.2572L8.92953 18.9892ZM9.558 17.903L8.558 19.6351L10.2033 20.585L11.2364 18.9907L9.558 17.903ZM13.2467 14.2143L14.3345 15.8926L15.9286 14.8594L14.9788 13.2143L13.2467 14.2143ZM10.3626 9.2188L12.0947 8.21882L11.0586 6.42427L9.30191 7.52326L10.3626 9.2188ZM4.56255 15.0189L2.86701 13.9582L1.76803 15.7149L3.56255 16.7509L4.56255 15.0189ZM14.3329 13.5858L12.6009 14.5858L13.5524 16.2339L15.2457 15.3653L14.3329 13.5858ZM19.3724 12.2378L19.4716 14.2353L21.3724 14.1409V12.2378H19.3724ZM19.3724 6.47065H21.3724V4.40176L19.3047 4.47179L19.3724 6.47065ZM11.4488 8.59033L10.5075 6.82564L8.68249 7.79905L9.7167 9.59034L11.4488 8.59033ZM20.6273 12.2378H18.6273V14.1409L20.528 14.2353L20.6273 12.2378ZM25.6668 13.5859L24.754 15.3654L26.4473 16.234L27.3989 14.5858L25.6668 13.5859ZM28.5509 8.59033L30.2829 9.59031L31.3171 7.79903L29.4921 6.82564L28.5509 8.59033ZM20.6273 6.47065L20.695 4.47179L18.6273 4.40176V6.47065H20.6273ZM26.7529 14.2143L25.0209 13.2143L24.071 14.8595L25.6652 15.8927L26.7529 14.2143ZM30.4416 17.903L28.7632 18.9907L29.7964 20.585L31.4416 19.6351L30.4416 17.903ZM35.4371 15.0189L36.4371 16.7509L38.2316 15.7149L37.1326 13.9582L35.4371 15.0189ZM29.6371 9.2188L30.6978 7.52328L28.9411 6.42425L27.905 8.21881L29.6371 9.2188ZM31.0701 18.9892L30.0701 17.2572L28.4219 18.2088L29.2906 19.9021L31.0701 18.9892ZM32.4181 24.0287L30.4206 24.128L30.515 26.0287H32.4181V24.0287ZM38.1853 24.0287V26.0287H40.2542L40.1842 23.9609L38.1853 24.0287ZM36.0655 16.1051L37.8302 15.1639L36.8568 13.3388L35.0655 14.373L36.0655 16.1051ZM33.3227 32.7946H6.67691V36.7946H33.3227V32.7946ZM6.67691 32.7946C7.43529 32.7946 8.04946 33.409 8.04946 34.1671H4.04946C4.04946 35.6178 5.22582 36.7946 6.67691 36.7946V32.7946ZM8.04946 34.1671C8.04946 34.9253 7.43512 35.5397 6.67691 35.5397V31.5397C5.22598 31.5397 4.04946 32.7162 4.04946 34.1671H8.04946ZM6.67691 35.5397H16.1003V31.5397H6.67691V35.5397ZM17.2685 31.9163C16.0828 31.063 15.3172 29.6772 15.3172 28.112H11.3172C11.3172 31.018 12.7465 33.5901 14.932 35.163L17.2685 31.9163ZM15.3172 28.112C15.3172 25.5255 17.4133 23.4294 19.9998 23.4294V19.4294C15.2042 19.4294 11.3172 23.3164 11.3172 28.112H15.3172ZM19.9998 23.4294C20.1185 23.4294 20.236 23.4338 20.352 23.4423L20.6462 19.4532C20.4325 19.4374 20.2169 19.4294 19.9998 19.4294V23.4294ZM22.0723 22.6827L25.4543 18.3747L22.308 15.9047L18.926 20.2128L22.0723 22.6827ZM25.4544 18.3745C25.1839 18.7192 24.7651 18.914 24.3272 18.8989L24.4652 14.9012C23.6271 14.8723 22.8256 15.2452 22.3079 15.9049L25.4544 18.3745ZM24.3276 18.8989L27.236 18.9986L27.3731 15.001L24.4648 14.9012L24.3276 18.8989ZM27.236 18.9987C26.5144 18.9739 25.9361 18.3947 25.9113 17.6743L29.9089 17.5364C29.8613 16.1568 28.7539 15.0483 27.373 15.001L27.236 18.9987ZM25.9113 17.674L26.011 20.5823L30.0087 20.4451L29.9089 17.5368L25.9113 17.674ZM26.011 20.5827C25.9959 20.1448 26.1907 19.726 26.5354 19.4555L29.0051 22.6021C29.6647 22.0843 30.0376 21.2827 30.0087 20.4448L26.011 20.5827ZM26.5353 19.4556L23.5085 21.8317L25.9785 24.978L29.0052 22.6019L26.5353 19.4556ZM23.3239 24.8137C24.1657 25.6619 24.6824 26.8245 24.6824 28.112H28.6824C28.6824 25.727 27.7184 23.5633 26.1631 21.996L23.3239 24.8137ZM24.6824 28.112C24.6824 29.6772 23.9168 31.063 22.7311 31.9163L25.0676 35.163C27.2531 33.5901 28.6824 31.018 28.6824 28.112H24.6824ZM23.8993 35.5397H33.3227V31.5397H23.8993V35.5397ZM33.3227 35.5397C32.5645 35.5397 31.9502 34.9253 31.9502 34.1671H35.9502C35.9502 32.7162 34.7736 31.5397 33.3227 31.5397V35.5397ZM31.9502 34.1671C31.9502 33.409 32.5643 32.7946 33.3227 32.7946V36.7946C34.7738 36.7946 35.9502 35.6178 35.9502 34.1671H31.9502ZM21.3289 23.6201C21.7968 23.7582 22.235 23.9679 22.6309 24.2375L24.8821 20.9311C24.1489 20.4319 23.3341 20.0413 22.4612 19.7837L21.3289 23.6201ZM24.9915 24.1574L27.9797 21.8116L25.5098 18.6653L22.5215 21.0111L24.9915 24.1574ZM28.7436 20.1698L28.6748 18.1654L24.6771 18.3025L24.7459 20.307L28.7436 20.1698ZM26.7446 16.2351L24.7401 16.1663L24.6029 20.164L26.6074 20.2328L26.7446 16.2351ZM23.0983 16.9302L20.3219 20.4669L23.4682 22.9369L26.2446 19.4001L23.0983 16.9302ZM19.9998 35.5397C21.8448 35.5397 23.5371 34.8645 24.8355 33.7504L22.2305 30.7149C21.63 31.2302 20.8537 31.5397 19.9998 31.5397V35.5397ZM25.4961 31.8505C24.9942 29.2717 22.7264 27.324 19.9998 27.324V31.324C20.775 31.324 21.4266 31.8787 21.5698 32.6147L25.4961 31.8505ZM19.9998 27.324C17.2732 27.324 15.0054 29.2717 14.5035 31.8505L18.4298 32.6147C18.573 31.8787 19.2246 31.324 19.9998 31.324V27.324ZM15.1642 33.7504C16.4625 34.8645 18.1548 35.5397 19.9998 35.5397V31.5397C19.146 31.5397 18.3696 31.2302 17.7691 30.7149L15.1642 33.7504ZM26.173 32.2439C26.9653 31.0617 27.4275 29.6379 27.4275 28.112H23.4275C23.4275 28.8204 23.2148 29.473 22.8503 30.0169L26.173 32.2439ZM27.4275 28.112C27.4275 24.0094 24.1023 20.6843 19.9998 20.6843V24.6843C21.8932 24.6843 23.4275 26.2186 23.4275 28.112H27.4275ZM19.9998 20.6843C15.8973 20.6843 12.5721 24.0094 12.5721 28.112H16.5721C16.5721 26.2186 18.1064 24.6843 19.9998 24.6843V20.6843ZM12.5721 28.112C12.5721 29.6379 13.0343 31.0617 13.8266 32.2439L17.1493 30.0169C16.7848 29.473 16.5721 28.8204 16.5721 28.112H12.5721ZM17.3462 31.8701C17.6213 31.1788 18.1615 30.6174 18.8392 30.3147L17.2078 26.6625C15.5813 27.389 14.2914 28.7286 13.6298 30.3907L17.3462 31.8701ZM19.4539 27.0908C19.3134 26.947 19.2339 26.76 19.2339 26.5581H15.2339C15.2339 27.8547 15.7578 29.0316 16.5931 29.8864L19.4539 27.0908ZM19.2339 26.5581C19.2339 26.1409 19.5827 25.7922 19.9998 25.7922V21.7922C17.3735 21.7922 15.2339 23.9318 15.2339 26.5581H19.2339ZM19.9998 25.7922C20.417 25.7922 20.7657 26.1409 20.7657 26.5581H24.7657C24.7657 23.9318 22.6261 21.7922 19.9998 21.7922V25.7922ZM20.7657 26.5581C20.7657 26.76 20.6862 26.947 20.5457 27.0908L23.4065 29.8864C24.2419 29.0316 24.7657 27.8547 24.7657 26.5581H20.7657ZM21.1605 30.3147C21.8381 30.6174 22.3783 31.1788 22.6535 31.8701L26.3699 30.3907C25.7082 28.7286 24.4183 27.389 22.7918 26.6625L21.1605 30.3147ZM19.9998 30.0691C21.9357 30.0691 23.5108 28.494 23.5108 26.5581H19.5108C19.5108 26.2848 19.7265 26.0691 19.9998 26.0691V30.0691ZM23.5108 26.5581C23.5108 24.6222 21.9357 23.0471 19.9998 23.0471V27.0471C19.7265 27.0471 19.5108 26.8314 19.5108 26.5581H23.5108ZM19.9998 23.0471C18.0639 23.0471 16.4888 24.6222 16.4888 26.5581H20.4888C20.4888 26.8314 20.2731 27.0471 19.9998 27.0471V23.0471ZM16.4888 26.5581C16.4888 28.494 18.0639 30.0691 19.9998 30.0691V26.0691C20.2731 26.0691 20.4888 26.2848 20.4888 26.5581H16.4888ZM19.9998 7.20508C29.6377 7.20508 37.4508 15.0183 37.4508 24.6561H41.4508C41.4508 12.8091 31.8468 3.20508 19.9998 3.20508V7.20508ZM37.4508 24.6561C37.4508 23.8981 38.0653 23.2836 38.8233 23.2836V27.2836C40.2744 27.2836 41.4508 26.1072 41.4508 24.6561H37.4508ZM38.8233 23.2836H31.8062V27.2836H38.8233V23.2836ZM31.8062 23.2836C32.5643 23.2836 33.1788 23.8981 33.1788 24.6561H29.1788C29.1788 26.1072 30.3552 27.2836 31.8062 27.2836V23.2836ZM33.1788 24.6561C33.1788 17.3777 27.2782 11.4772 19.9998 11.4772V15.4772C25.0691 15.4772 29.1788 19.5868 29.1788 24.6561H33.1788ZM19.9998 11.4772C12.7214 11.4772 6.82083 17.3777 6.82083 24.6561H10.8208C10.8208 19.5868 14.9305 15.4772 19.9998 15.4772V11.4772ZM6.82083 24.6561C6.82083 23.8981 7.43532 23.2836 8.19338 23.2836V27.2836C9.64446 27.2836 10.8208 26.1072 10.8208 24.6561H6.82083ZM8.19338 23.2836H1.17628V27.2836H8.19338V23.2836ZM1.17628 23.2836C1.93434 23.2836 2.54883 23.8981 2.54883 24.6561H-1.45117C-1.45117 26.1072 -0.2748 27.2836 1.17628 27.2836V23.2836ZM2.54883 24.6561C2.54883 15.0183 10.362 7.20508 19.9998 7.20508V3.20508C8.1528 3.20508 -1.45117 12.8091 -1.45117 24.6561H2.54883ZM2.16939 15.1639C0.76179 17.803 -0.0770818 20.7912 -0.184533 23.9609L3.81317 24.0964C3.89944 21.5515 4.57179 19.1593 5.69877 17.0463L2.16939 15.1639ZM1.81432 26.0287H7.58153V22.0287H1.81432V26.0287ZM9.57907 24.128C9.65455 22.6093 10.0539 21.1792 10.7091 19.9021L7.15 18.0764C6.24138 19.8477 5.68828 21.8312 5.584 23.9294L9.57907 24.128ZM9.92954 17.2572L4.93409 14.373L2.93407 17.8371L7.92953 20.7213L9.92954 17.2572ZM11.2364 18.9907C12.0386 17.7528 13.0965 16.695 14.3345 15.8926L12.159 12.5359C10.4486 13.6445 8.98814 15.1048 7.87961 16.8154L11.2364 18.9907ZM14.9788 13.2143L12.0947 8.21882L8.63058 10.2188L11.5147 15.2142L14.9788 13.2143ZM9.30191 7.52326C6.69936 9.1514 4.49515 11.3556 2.86701 13.9582L6.2581 16.0796C7.5647 13.991 9.33477 12.221 11.4234 10.9143L9.30191 7.52326ZM3.56255 16.7509L8.558 19.6351L10.558 16.171L5.56256 13.2868L3.56255 16.7509ZM15.2457 15.3653C16.5229 14.7102 17.953 14.3108 19.4716 14.2353L19.2731 10.2402C17.1748 10.3445 15.1914 10.8977 13.4201 11.8062L15.2457 15.3653ZM21.3724 12.2378V6.47065H17.3724V12.2378H21.3724ZM19.3047 4.47179C16.1349 4.57916 13.1467 5.41804 10.5075 6.82564L12.39 10.355C14.503 9.22804 16.8951 8.5557 19.4401 8.4695L19.3047 4.47179ZM9.7167 9.59034L12.6009 14.5858L16.065 12.5858L13.1808 7.59033L9.7167 9.59034ZM20.528 14.2353C22.0466 14.3108 23.4768 14.7102 24.754 15.3654L26.5796 11.8063C24.8084 10.8977 22.8248 10.3445 20.7265 10.2402L20.528 14.2353ZM27.3989 14.5858L30.2829 9.59031L26.8188 7.59036L23.9347 12.5859L27.3989 14.5858ZM29.4921 6.82564C26.8529 5.41804 23.8647 4.57916 20.695 4.47179L20.5596 8.4695C23.1045 8.5557 25.4967 9.22804 27.6097 10.355L29.4921 6.82564ZM18.6273 6.47065V12.2378H22.6273V6.47065H18.6273ZM25.6652 15.8927C26.9031 16.695 27.961 17.7528 28.7632 18.9907L32.12 16.8153C31.0115 15.1049 29.5511 13.6445 27.8406 12.536L25.6652 15.8927ZM31.4416 19.6351L36.4371 16.7509L34.4371 13.2868L29.4416 16.171L31.4416 19.6351ZM37.1326 13.9582C35.5045 11.3556 33.3003 9.15141 30.6978 7.52328L28.5763 10.9143C30.6648 12.2209 32.4349 13.991 33.7415 16.0796L37.1326 13.9582ZM27.905 8.21881L25.0209 13.2143L28.485 15.2143L31.3691 10.2188L27.905 8.21881ZM29.2906 19.9021C29.9457 21.1792 30.3451 22.6093 30.4206 24.128L34.4156 23.9294C34.3113 21.8312 33.7582 19.8477 32.8496 18.0764L29.2906 19.9021ZM32.4181 26.0287H38.1853V22.0287H32.4181V26.0287ZM40.1842 23.9609C40.0767 20.7912 39.2378 17.803 37.8302 15.1639L34.3008 17.0463C35.4278 19.1593 36.1002 21.5515 36.1864 24.0964L40.1842 23.9609ZM35.0655 14.373L30.0701 17.2572L32.0701 20.7213L37.0655 17.8371L35.0655 14.373Z" fill="#CFA935" mask="url(#path-1-inside-1_10026_12440)"/>
</svg>
