<svg width="50" height="50" viewBox="0 0 50 50" fill="none" xmlns="http://www.w3.org/2000/svg">
<g id="Layer_1">
<path id="Vector" fill-rule="evenodd" clip-rule="evenodd" d="M10.2285 10.3838C11.4502 10.3838 12.4434 11.377 12.4434 12.5986C12.4434 13.582 11.7998 14.417 10.9121 14.7051V14.8838C10.9121 15.2607 10.6055 15.5674 10.2285 15.5674C9.85059 15.5674 9.54492 15.2607 9.54492 14.8838V14.7041C9.02246 14.5332 8.57129 14.1709 8.29395 13.6758C8.10938 13.3457 8.22754 12.9297 8.55664 12.7451C8.88672 12.5605 9.30273 12.6787 9.4873 13.0078C9.63867 13.2783 9.92285 13.4463 10.2285 13.4463C10.6963 13.4463 11.0762 13.0664 11.0762 12.5986C11.0762 12.1309 10.6963 11.751 10.2285 11.751C9.00684 11.751 8.01367 10.7568 8.01367 9.53613C8.01367 8.55273 8.65723 7.71777 9.54492 7.42871V7.25098C9.54492 6.87305 9.85059 6.56738 10.2285 6.56738C10.6055 6.56738 10.9121 6.87305 10.9121 7.25098V7.43066C11.4346 7.60156 11.8857 7.96387 12.1621 8.45898C12.3467 8.78809 12.2295 9.20508 11.8994 9.38867C11.5703 9.57324 11.1533 9.45605 10.9697 9.12598C10.8184 8.85547 10.5342 8.6875 10.2285 8.6875C9.76074 8.6875 9.38086 9.06836 9.38086 9.53613C9.38086 10.0029 9.75977 10.3838 10.2285 10.3838ZM3.12598 7.5293V47.1621L4.4707 45.1162C4.59766 44.9238 4.8125 44.8086 5.04199 44.8086C5.27246 44.8086 5.4873 44.9238 5.61328 45.1162L7.57617 48.1016C7.7168 48.3164 7.91895 48.4248 8.17578 48.4248C8.43164 48.4248 8.63379 48.3164 8.77539 48.1016L10.7373 45.1162C10.8643 44.9238 11.0781 44.8086 11.3086 44.8086C11.5391 44.8086 11.7539 44.9238 11.8799 45.1162L13.8428 48.1016C13.9834 48.3164 14.1846 48.4248 14.4414 48.4248C14.6982 48.4248 14.9004 48.3164 15.041 48.1016L17.0039 45.1162C17.1299 44.9238 17.3447 44.8086 17.5752 44.8086C17.8057 44.8086 18.0195 44.9238 18.1465 45.1162L20.1094 48.1016C20.25 48.3164 20.4512 48.4248 20.708 48.4248C20.9648 48.4248 21.167 48.3164 21.3076 48.1016L23.2705 45.1162C23.3965 44.9238 23.6113 44.8086 23.8418 44.8086C24.0713 44.8086 24.2861 44.9238 24.4131 45.1162L26.375 48.1016C26.5166 48.3164 26.7178 48.4248 26.9746 48.4248C27.2314 48.4248 27.4336 48.3164 27.5742 48.1016L29.5371 45.1162C29.6631 44.9238 29.8779 44.8086 30.1084 44.8086C30.3379 44.8086 30.5527 44.9238 30.6797 45.1162L32.0244 47.1621V40.0781C30.6416 39.7373 29.3447 39.1768 28.1728 38.4346C28.1699 38.4346 28.167 38.4355 28.1641 38.4355H7.65723C7.28027 38.4355 6.97363 38.1289 6.97363 37.752C6.97363 37.374 7.28027 37.0684 7.65723 37.0684H26.374C24.8301 35.6709 23.6191 33.9131 22.876 31.9287H7.65723C7.28027 31.9287 6.97363 31.6221 6.97363 31.2451C6.97363 30.8672 7.28027 30.5615 7.65723 30.5615H22.4473C22.1865 29.5293 22.0469 28.4502 22.0469 27.3389C22.0469 26.6875 22.0947 26.0479 22.1875 25.4209H7.65723C7.28027 25.4209 6.97363 25.1152 6.97363 24.7373C6.97363 24.3604 7.28027 24.0537 7.65723 24.0537H22.4629C22.959 22.1367 23.8789 20.3887 25.1162 18.9141H7.65723C7.28027 18.9141 6.97363 18.6084 6.97363 18.2305C6.97363 17.8535 7.28027 17.5469 7.65723 17.5469H26.4434C28.0127 16.1475 29.9189 15.1191 32.0244 14.5996V4.63281C32.0244 3.99805 32.2168 3.4082 32.5469 2.91699H7.73828C5.19629 2.91699 3.12598 4.98633 3.12598 7.5293ZM15.0801 11.7236C15.0801 11.3467 15.3857 11.04 15.7637 11.04H27.4932C27.8711 11.04 28.1768 11.3467 28.1768 11.7236C28.1768 12.1016 27.8711 12.4072 27.4932 12.4072H15.7637C15.3857 12.4072 15.0801 12.1016 15.0801 11.7236ZM33.3916 4.63281V6.34863H36.8232V4.63281C36.8232 3.68652 36.0537 2.91699 35.1074 2.91699C34.1611 2.91699 33.3916 3.68652 33.3916 4.63281ZM46.9209 27.3389C46.9209 33.8193 41.6494 39.0928 35.168 39.0928C28.6875 39.0928 23.415 33.8193 23.415 27.3389C23.415 20.8574 28.6875 15.585 35.168 15.585C41.6494 15.585 46.9209 20.8574 46.9209 27.3389ZM35.168 17.3848C40.6562 17.3848 45.123 21.8506 45.123 27.3389C45.123 32.8272 40.6562 37.292 35.168 37.292C29.6797 37.292 25.2148 32.8272 25.2148 27.3389C25.2148 21.8506 29.6797 17.3848 35.168 17.3848ZM43.7559 27.3389C43.7559 32.0732 39.9014 35.9248 35.167 35.9248C30.4326 35.9248 26.5811 32.0732 26.5811 27.3389C26.5811 22.6045 30.4326 18.752 35.167 18.752C39.9014 18.752 43.7559 22.6045 43.7559 27.3389ZM33.2148 24.7012C33.2148 25.7783 34.0908 26.6553 35.168 26.6553C37 26.6553 38.4893 28.1445 38.4893 29.9766C38.4893 31.5732 37.3564 32.9102 35.8516 33.2266V33.9111C35.8516 34.2891 35.5459 34.5947 35.168 34.5947C34.791 34.5947 34.4844 34.2891 34.4844 33.9111V33.2246C33.5576 33.0283 32.7432 32.4395 32.2676 31.5898C32.084 31.2607 32.2012 30.8438 32.5312 30.6592C32.8603 30.4756 33.2764 30.5928 33.4609 30.9219C33.8086 31.5439 34.4629 31.9297 35.168 31.9297C36.2461 31.9297 37.1221 31.0537 37.1221 29.9766C37.1221 28.8984 36.2461 28.0225 35.168 28.0225C33.3369 28.0225 31.8477 26.5322 31.8477 24.7012C31.8477 23.1045 32.9805 21.7676 34.4844 21.4512V20.7656C34.4844 20.3887 34.791 20.082 35.168 20.082C35.5459 20.082 35.8516 20.3887 35.8516 20.7656V21.4521C36.7783 21.6484 37.5938 22.2383 38.0684 23.0879C38.2529 23.417 38.1348 23.834 37.8057 24.0176C37.4766 24.2021 37.0596 24.085 36.875 23.7549C36.5273 23.1338 35.874 22.7471 35.168 22.7471C34.0908 22.7471 33.2148 23.624 33.2148 24.7012Z" fill="white"/>
</g>
</svg>
