<svg width="50" height="50" viewBox="0 0 50 50" fill="none" xmlns="http://www.w3.org/2000/svg">
<g id="Layer_1">
<path id="Vector" d="M43.8873 30.6648C43.6896 30.4804 43.4873 30.3039 43.2771 30.1383C43.2162 30.0906 43.1537 30.0476 43.092 30.0023C42.9099 29.8656 42.7248 29.7336 42.5334 29.6109C42.4357 29.5484 42.3349 29.4937 42.2357 29.4351C42.0732 29.339 41.9092 29.2445 41.7412 29.1594C41.6201 29.0984 41.4967 29.0445 41.374 28.989C41.217 28.9179 41.0592 28.8468 40.8974 28.7836C40.7162 28.7133 40.5334 28.65 40.3482 28.5922C40.2756 28.5687 40.2037 28.5429 40.131 28.5211C39.2763 28.2734 38.3927 28.1469 37.5092 28.1469C36.9302 28.1469 36.3521 28.2031 35.7818 28.3094C35.7592 28.3133 35.7357 28.3156 35.7131 28.3195C35.4881 28.3633 35.2662 28.4226 35.0451 28.482C34.967 28.5031 34.8873 28.5195 34.8099 28.5422C34.6357 28.5945 34.4654 28.6601 34.2935 28.7226C34.1709 28.7679 34.0459 28.8078 33.9263 28.857C33.8029 28.9078 33.6826 28.9695 33.5615 29.0265C33.3998 29.1023 33.2365 29.1742 33.0802 29.2586C33.0052 29.2992 32.9326 29.3469 32.8584 29.3898C32.6638 29.5015 32.4685 29.614 32.2834 29.7398C32.2599 29.7554 32.2381 29.7742 32.2146 29.7906C31.0092 30.6203 30.006 31.7226 29.2982 33.0109C29.2646 33.0719 29.2357 33.1351 29.2037 33.1969C29.1123 33.3726 29.0256 33.5515 28.9451 33.7336C28.8756 33.8914 28.8146 34.0523 28.7537 34.2133C28.706 34.3406 28.656 34.4664 28.6131 34.5969C28.5552 34.7734 28.5076 34.9531 28.4607 35.132C28.4302 35.2476 28.3974 35.3625 28.3709 35.4797C28.3232 35.6961 28.2873 35.9148 28.2552 36.1351C28.2435 36.2164 28.2279 36.2961 28.2185 36.3773C28.1873 36.6445 28.1685 36.914 28.1599 37.1859C28.1584 37.2242 28.1552 37.2625 28.1545 37.3008C28.1467 37.6101 28.1537 37.9164 28.1748 38.2203C28.1748 38.2273 28.1748 38.2336 28.1756 38.2406C28.2201 38.8492 28.3271 39.4453 28.4865 40.0242C28.5412 40.2203 28.6076 40.4125 28.6763 40.6047C28.699 40.6703 28.7193 40.7367 28.7435 40.8023C28.8404 41.0601 28.9506 41.3117 29.0685 41.5578C29.0865 41.5945 29.1013 41.6328 29.1201 41.6695C29.2365 41.9047 29.367 42.132 29.5029 42.3562C29.531 42.4031 29.5568 42.4515 29.5865 42.4976C29.724 42.714 29.8732 42.9234 30.0295 43.1289C30.0646 43.175 30.0967 43.2226 30.1318 43.2679C30.2982 43.4797 30.4771 43.6843 30.6631 43.8828C30.7388 43.964 30.8076 44.0508 30.8873 44.1304C34.5396 47.7812 40.4802 47.7804 44.1326 44.1304C45.967 42.2961 46.9373 39.8625 46.8654 37.2773C46.8365 35.9937 46.5545 34.7633 46.0279 33.6156C45.5732 32.6062 44.9365 31.689 44.1326 30.8851C44.0537 30.8062 43.9685 30.739 43.8881 30.664L43.8873 30.6648ZM42.5521 42.5515C41.1623 43.9414 39.3357 44.6367 37.5092 44.6367C35.6826 44.6367 33.856 43.9414 32.4662 42.5515C31.0763 41.1617 30.3302 39.3 30.3834 37.3297C30.406 36.3586 30.6217 35.4203 31.0232 34.5437C31.3677 33.7781 31.8537 33.0773 32.4662 32.4656C33.8146 31.1179 35.6052 30.3758 37.5092 30.3758C39.4131 30.3758 41.2037 31.1179 42.5521 32.4664C43.1631 33.0765 43.649 33.7773 43.9974 34.5476C44.3974 35.4195 44.6123 36.3578 44.6349 37.3328C44.6881 39.3 43.949 41.1547 42.5521 42.5515Z" fill="white"/>
<path id="Vector_2" d="M41.9509 34.1727L34.1665 41.9563C36.347 43.5953 39.4642 43.4297 41.447 41.4477C42.5376 40.357 43.1142 38.9102 43.072 37.3734C43.0548 36.6086 42.8876 35.8766 42.5743 35.1953C42.4095 34.8297 42.1931 34.4938 41.9509 34.1727Z" fill="white"/>
<path id="Vector_3" d="M37.5092 31.9383C36.0225 31.9383 34.624 32.518 33.5709 33.5711C33.0936 34.0484 32.7147 34.593 32.4467 35.1899C32.1319 35.8774 31.9639 36.6086 31.9459 37.3695C31.9115 38.6453 32.3069 39.8539 33.0615 40.8524L40.8522 33.0617C39.892 32.3367 38.7319 31.9383 37.5092 31.9383Z" fill="white"/>
<path id="Vector_4" d="M23.8859 44.6461C25.532 44.6461 27.1703 44.4516 28.7711 44.0672C28.7086 43.9844 28.6531 43.8969 28.593 43.8125C28.4352 43.5906 28.2867 43.3633 28.1461 43.1312C28.0648 42.9961 27.9813 42.8617 27.9055 42.7234C27.8141 42.5563 27.732 42.3859 27.6508 42.2148C27.6094 42.1273 27.5672 42.0406 27.5281 41.9523C26.35 42.1945 25.1297 42.3242 23.8867 42.3242C13.7195 42.3242 5.44766 34.0531 5.44766 23.8859C5.44766 13.7188 13.7195 5.44766 23.8859 5.44766C34.0523 5.44766 42.3242 13.7188 42.3242 23.8859C42.3242 25.1313 42.1945 26.3516 41.9523 27.5281C42.1109 27.5984 42.2656 27.6758 42.4203 27.7539C42.5031 27.7953 42.5867 27.8344 42.668 27.8781C42.9359 28.0219 43.1992 28.1758 43.4539 28.3422C43.5523 28.4062 43.6477 28.4781 43.7445 28.5453C43.8516 28.6203 43.9617 28.6914 44.0664 28.7711C44.4508 27.1719 44.6453 25.5336 44.6453 23.8859C44.6453 12.4383 35.332 3.125 23.8852 3.125C12.4383 3.125 3.125 12.4383 3.125 23.8859C3.125 35.3336 12.4383 44.6461 23.8859 44.6461Z" fill="white"/>
<path id="Vector_5" d="M26.6657 36.2063C26.6798 36.0891 26.7017 35.9742 26.7188 35.8578C26.7548 35.6211 26.7915 35.3852 26.8431 35.1539C26.8759 35.0031 26.9188 34.8547 26.9587 34.7055C27.011 34.5094 27.0618 34.3133 27.1243 34.1211C27.1767 33.9602 27.2392 33.8016 27.2993 33.643C27.3673 33.4649 27.4337 33.2867 27.5103 33.1133C27.5321 33.0641 27.547 33.0133 27.5696 32.9649C27.6454 32.7977 27.7345 32.6367 27.8188 32.4734C27.8556 32.4031 27.8884 32.3305 27.9267 32.2602C28.4173 31.3602 29.0353 30.5266 29.7806 29.7805C30.2649 29.2961 30.7884 28.8734 31.3337 28.4992C31.3595 28.4813 31.3829 28.4617 31.4087 28.4438C31.6298 28.2945 31.8587 28.1617 32.0876 28.0305C32.172 27.982 32.2524 27.9289 32.3376 27.8828C32.5243 27.7828 32.7165 27.6961 32.9079 27.6078C33.047 27.543 33.1837 27.4734 33.3267 27.4141C33.4704 27.3547 33.6173 27.307 33.7634 27.2539C33.9603 27.182 34.1556 27.1078 34.3571 27.0469C34.4517 27.0188 34.547 26.9992 34.6423 26.9734C34.8962 26.9039 35.1509 26.8367 35.4118 26.7859C35.4423 26.7797 35.4735 26.7774 35.5048 26.7719C36.1548 26.6508 36.8228 26.5797 37.5079 26.5797C37.8079 26.5797 38.1048 26.5953 38.4001 26.6188C38.4892 26.6258 38.5774 26.6367 38.6657 26.6461C38.879 26.6688 39.0899 26.6969 39.3001 26.7313C39.3915 26.7461 39.4837 26.761 39.5743 26.7789C39.8142 26.825 40.0517 26.8789 40.2876 26.9414C40.336 26.9539 40.3853 26.9641 40.4337 26.9774C40.4462 26.9813 40.4595 26.9836 40.4728 26.9867C40.6642 25.9836 40.7603 24.9438 40.7603 23.8844C40.7603 14.5789 33.1899 7.00861 23.8845 7.00861C14.579 7.00861 7.01025 14.5805 7.01025 23.886C7.01025 33.1914 14.5806 40.7617 23.8868 40.7617C24.9438 40.7617 25.9837 40.6649 26.9876 40.4742C26.9837 40.4602 26.9813 40.4461 26.9782 40.4328C26.9649 40.3844 26.9548 40.3352 26.9423 40.2867C26.8806 40.0524 26.8267 39.8156 26.7806 39.5766C26.7634 39.4852 26.7485 39.393 26.7329 39.3016C26.6985 39.0922 26.6704 38.8805 26.6478 38.668C26.6384 38.5789 26.6274 38.4906 26.6204 38.4016C26.597 38.1063 26.5813 37.8094 26.5813 37.5094C26.5813 37.4352 26.5907 37.3633 26.5923 37.2899C26.5923 37.2719 26.5907 37.2539 26.5907 37.2359C26.5923 37.1766 26.6017 37.1188 26.604 37.0594C26.6157 36.7727 26.6329 36.4875 26.6665 36.207L26.6657 36.2063ZM39.7509 23.886C39.7509 24.3172 39.4017 24.6672 38.9696 24.6672H37.7478C37.3157 24.6672 36.9665 24.3172 36.9665 23.886C36.9665 23.4547 37.3157 23.1047 37.7478 23.1047H38.9696C39.4017 23.1047 39.7509 23.4547 39.7509 23.886ZM35.6017 16.4375L36.6681 15.8406C37.0438 15.6289 37.5212 15.7641 37.7313 16.1406C37.9415 16.5172 37.8071 16.993 37.4306 17.2039L36.3642 17.8008C36.2438 17.868 36.1126 17.9 35.9837 17.9C35.7095 17.9 35.4446 17.7563 35.3009 17.5C35.0899 17.1234 35.2251 16.6477 35.6017 16.4367V16.4375ZM29.9696 11.4063L30.5657 10.3399C30.7767 9.96329 31.2509 9.82736 31.6282 10.0391C32.0048 10.25 32.1399 10.725 31.9298 11.1024L31.3337 12.1688C31.1899 12.425 30.9251 12.5688 30.6509 12.5688C30.522 12.5688 30.3915 12.5367 30.2712 12.4695C29.8946 12.2586 29.7595 11.7836 29.9696 11.4063ZM16.1407 10.0391C16.5165 9.82736 16.9938 9.96251 17.204 10.3391L17.8009 11.4055C18.0118 11.782 17.8767 12.2578 17.5001 12.4688C17.3798 12.536 17.2485 12.568 17.1196 12.568C16.8454 12.568 16.5806 12.4242 16.4368 12.168L15.8399 11.1016C15.629 10.725 15.7642 10.2492 16.1407 10.0383V10.0391ZM8.02041 23.886C8.02041 23.4547 8.36963 23.1047 8.80166 23.1047H10.0235C10.4556 23.1047 10.8048 23.4547 10.8048 23.886C10.8048 24.3172 10.4556 24.6672 10.0235 24.6672H8.80166C8.36963 24.6672 8.02041 24.3172 8.02041 23.886ZM12.1696 31.3344L11.1032 31.9313C10.9829 31.9985 10.8517 32.0305 10.7228 32.0305C10.4485 32.0305 10.1837 31.8867 10.0399 31.6305C9.829 31.2539 9.96416 30.7781 10.3407 30.5672L11.4071 29.9703C11.7837 29.7594 12.2595 29.8938 12.4704 30.2703C12.6813 30.6469 12.5462 31.1227 12.1696 31.3336V31.3344ZM12.4704 17.5008C12.3267 17.757 12.0618 17.9008 11.7876 17.9008C11.6587 17.9008 11.5274 17.8688 11.4071 17.8016L10.3407 17.2047C9.96494 16.9938 9.82979 16.518 10.0399 16.1414C10.2501 15.7649 10.7259 15.6297 11.1032 15.8414L12.1696 16.4383C12.5454 16.6492 12.6806 17.125 12.4704 17.5016V17.5008ZM17.8024 36.3656L17.2056 37.432C17.0618 37.6883 16.797 37.832 16.5228 37.832C16.3938 37.832 16.2626 37.8 16.1423 37.7328C15.7665 37.5219 15.6313 37.0461 15.8415 36.6695L16.4384 35.6031C16.6493 35.2266 17.1243 35.0922 17.5017 35.3031C17.8774 35.5141 18.0126 35.9891 17.8024 36.3656ZM24.6681 38.9695C24.6681 39.4008 24.3188 39.7508 23.8868 39.7508C23.4548 39.7508 23.1056 39.4008 23.1056 38.9695V37.7477C23.1056 37.3164 23.4548 36.9664 23.8868 36.9664C24.3188 36.9664 24.6681 37.3164 24.6681 37.7477V38.9695ZM24.6681 23.8852C24.6681 24.1524 24.5313 24.4008 24.3063 24.5445L17.9087 28.618C17.779 28.7008 17.6329 28.7399 17.4899 28.7399C17.2321 28.7399 16.979 28.6117 16.8298 28.3781C16.5978 28.0141 16.7056 27.5313 17.0696 27.2992L23.1063 23.4563V14.4438C23.1063 14.0125 23.4556 13.6625 23.8876 13.6625C24.3196 13.6625 24.6688 14.0125 24.6688 14.4438V23.8844L24.6681 23.8852ZM24.6681 10.0227C24.6681 10.4539 24.3188 10.8039 23.8868 10.8039C23.4548 10.8039 23.1056 10.4539 23.1056 10.0227V8.80079C23.1056 8.36954 23.4548 8.01954 23.8868 8.01954C24.3188 8.01954 24.6681 8.36954 24.6681 8.80079V10.0227Z" fill="white"/>
</g>
</svg>
