<svg width="50" height="50" viewBox="0 0 50 50" fill="none" xmlns="http://www.w3.org/2000/svg">
<g id="Capa_1" clip-path="url(#clip0_25201_37352)">
<g id="Group">
<path id="Vector" d="M0 11.8164H8.78906V32.3242H0V11.8164Z" fill="white"/>
<path id="Vector_2" d="M7.32422 3.02734H1.46484C0.655176 3.02734 0 3.68252 0 4.49219V8.88672H8.78906V4.49219C8.78906 3.68252 8.13389 3.02734 7.32422 3.02734Z" fill="white"/>
<path id="Vector_3" d="M0.409668 35.2539L2.92969 42.8142V45.6055C2.92969 46.4151 3.58486 47.0703 4.39453 47.0703C5.2042 47.0703 5.85938 46.4151 5.85938 45.6055V42.8142L8.37939 35.2539H0.409668Z" fill="white"/>
<path id="Vector_4" d="M41.2109 0.858276V8.78904H49.1417L41.2109 0.858276Z" fill="white"/>
<path id="Vector_5" d="M39.7461 11.7188C38.9364 11.7188 38.2812 11.0636 38.2812 10.2539V0H13.2812C12.4716 0 11.8164 0.655176 11.8164 1.46484V48.5352C11.8164 49.3448 12.4716 50 13.2812 50H48.5352C49.3448 50 50 49.3448 50 48.5352V11.7188H39.7461ZM28.9653 34.8247L23.106 40.6841C22.8198 40.9702 22.445 41.1133 22.0703 41.1133C21.6956 41.1133 21.3207 40.9702 21.0347 40.6841L18.105 37.7544C17.5328 37.1822 17.5328 36.2552 18.105 35.683C18.6771 35.1108 19.6042 35.1108 20.1764 35.683L22.0703 37.577L26.894 32.7533C27.4662 32.1812 28.3933 32.1812 28.9654 32.7533C29.5376 33.3255 29.5376 34.2525 28.9653 34.8247ZM28.9653 26.0356L23.106 31.895C22.8198 32.1812 22.445 32.3242 22.0703 32.3242C21.6956 32.3242 21.3207 32.1812 21.0347 31.895L18.105 28.9653C17.5328 28.3932 17.5328 27.4661 18.105 26.8939C18.6771 26.3218 19.6042 26.3218 20.1764 26.8939L22.0703 28.788L26.894 23.9643C27.4662 23.3921 28.3933 23.3921 28.9654 23.9643C29.5376 24.5364 29.5376 25.4635 28.9653 26.0356ZM28.9653 17.2466L23.106 23.106C22.8198 23.3921 22.445 23.5352 22.0703 23.5352C21.6956 23.5352 21.3207 23.3921 21.0347 23.106L18.105 20.1763C17.5328 19.6041 17.5328 18.677 18.105 18.1049C18.6771 17.5327 19.6042 17.5327 20.1764 18.1049L22.0703 19.9989L26.894 15.1752C27.4662 14.603 28.3933 14.603 28.9654 15.1752C29.5376 15.7474 29.5376 16.6744 28.9653 17.2466ZM42.6758 38.1836H33.8867C33.0771 38.1836 32.4219 37.5284 32.4219 36.7188C32.4219 35.9091 33.0771 35.2539 33.8867 35.2539H42.6758C43.4854 35.2539 44.1406 35.9091 44.1406 36.7188C44.1406 37.5284 43.4854 38.1836 42.6758 38.1836ZM42.6758 29.3945H33.8867C33.0771 29.3945 32.4219 28.7394 32.4219 27.9297C32.4219 27.12 33.0771 26.4648 33.8867 26.4648H42.6758C43.4854 26.4648 44.1406 27.12 44.1406 27.9297C44.1406 28.7394 43.4854 29.3945 42.6758 29.3945ZM42.6758 20.6055H33.8867C33.0771 20.6055 32.4219 19.9503 32.4219 19.1406C32.4219 18.331 33.0771 17.6758 33.8867 17.6758H42.6758C43.4854 17.6758 44.1406 18.331 44.1406 19.1406C44.1406 19.9503 43.4854 20.6055 42.6758 20.6055Z" fill="white"/>
</g>
</g>
<defs>
<clipPath id="clip0_25201_37352">
<rect width="50" height="50" fill="white"/>
</clipPath>
</defs>
</svg>
