<svg width="50" height="50" viewBox="0 0 50 50" fill="none" xmlns="http://www.w3.org/2000/svg">
<g id="Layer_1">
<path id="Vector" fill-rule="evenodd" clip-rule="evenodd" d="M44.4241 19.8359L44.1943 13.8096C44.1196 11.9078 47.0815 11.6392 47.3806 13.5244L48.9363 23.2906C49.2464 25.2256 48.7315 27.0332 47.3473 28.4174L39.4026 36.3621C38.7383 37.0265 38.4255 37.8597 38.4919 38.8009L38.503 38.9587H28.0171L28.0752 34.0617C28.0945 32.5474 28.615 31.2436 29.6863 30.1751L31.8843 27.9771C32.5984 27.263 33.3735 26.8144 34.3479 26.5543L35.4109 26.2691L40.7619 20.9182C42.0657 19.6143 44.3883 20.3922 44.5212 22.3549C44.5571 22.9611 44.344 23.5784 43.8817 24.038L39.3197 28.6C39.0928 28.8298 39.0928 29.2007 39.3197 29.4305C39.5495 29.6574 39.9204 29.6574 40.1502 29.4305L44.7122 24.8684C46.1323 23.4456 45.9994 21.0871 44.4243 19.8358L44.4241 19.8359ZM5.57508 19.8359L5.8076 13.8096C5.88231 11.9078 2.9204 11.6392 2.61864 13.5244L1.06288 23.2906C0.75565 25.2256 1.27049 27.0332 2.65184 28.4174L10.5966 36.3621C11.2638 37.0265 11.5737 37.8597 11.51 38.8009L11.4989 38.9587H21.9821L21.924 34.0617C21.9074 32.5474 21.3843 31.2436 20.3157 30.1751L18.1178 27.9771C17.4036 27.263 16.6285 26.8144 15.6541 26.5543L14.5884 26.2691L9.24022 20.9182C7.93358 19.6143 5.61385 20.3922 5.47821 22.3549C5.44501 22.9611 5.65819 23.5784 6.11766 24.038L10.6797 28.6C10.9095 28.8298 10.9095 29.2007 10.6797 29.4305C10.4499 29.6574 10.079 29.6574 9.85194 29.4305L5.28993 24.8684C3.86708 23.4456 3.99999 21.0871 5.57508 19.8358V19.8359ZM23.9173 44.7193H9.49754V40.1296H23.9172L23.9173 44.7193ZM13.4949 10.1223C11.8561 11.7639 11.8561 14.4462 13.4949 16.0878C15.5711 17.1259 17.8217 17.7265 19.4604 16.0878L27.9838 7.56444C31.0288 4.51942 36.0143 4.51942 39.0621 7.56444C42.1071 10.6122 42.1071 15.5977 39.0621 18.6429C36.0143 21.6906 31.0288 21.6906 27.9838 18.6429L25.8302 16.4892L28.3852 13.9342L30.539 16.0878C32.1805 17.7265 34.8629 17.7265 36.5045 16.0878C38.146 14.4463 38.146 11.7639 36.5045 10.1223C34.8629 8.48075 32.1806 8.48075 30.539 10.1223L22.0184 18.6428C18.9707 21.6905 13.9851 21.6905 10.94 18.6428C7.89227 15.5977 7.89227 10.6122 10.94 7.56434C13.985 4.51932 18.9706 4.51932 22.0184 7.56434L24.1721 9.72079L21.6142 12.2759L19.4606 10.1222C17.8219 8.48065 15.1367 8.48065 13.4951 10.1222L13.4949 10.1223ZM26.0819 44.7193H40.5015V40.1296H26.0819V44.7193Z" fill="white"/>
</g>
</svg>
