<svg width="12" height="13" viewBox="0 0 12 13" fill="none" xmlns="http://www.w3.org/2000/svg">
<path fill-rule="evenodd" clip-rule="evenodd" d="M11.3335 1.33334V2.66666L9.18768 2.66656C10.3151 3.65591 11.0061 5.10378 11.0047 6.68137C11.0027 9.12447 9.34093 11.2538 6.97156 11.8494C4.60218 12.4449 2.13106 11.3544 0.974058 9.20266C-0.18291 7.05094 0.27009 4.38812 2.07353 2.74C2.32832 3.14539 2.68756 3.4747 3.11353 3.69334C2.66116 4.05881 2.2964 4.52097 2.04606 5.04587C1.79571 5.57078 1.66613 6.14511 1.66684 6.72666C1.69965 8.91234 3.48093 10.6669 5.66684 10.6667C7.66909 10.6997 9.37653 9.22306 9.63265 7.237C9.82403 5.75316 9.15968 4.33887 8.00028 3.51991L8.00018 6H6.66684V1.33334H11.3335ZM4.33353 0C5.0699 0 5.66684 0.596969 5.66684 1.33334C5.66684 2.06972 5.0699 2.66666 4.33353 2.66666C3.59715 2.66666 3.00018 2.06972 3.00018 1.33334C3.00018 0.596969 3.59715 0 4.33353 0Z" fill="#CFA935"/>
</svg>
