<svg width="72" height="72" viewBox="0 0 72 72" fill="none" xmlns="http://www.w3.org/2000/svg">
<path d="M60.75 61.875H45C44.685 61.875 44.3813 61.74 44.1675 61.5038C43.9538 61.2675 43.8525 60.9525 43.875 60.6375L45 48.2625C45.0563 47.6888 45.54 47.2388 46.125 47.2388H59.625C60.21 47.2388 60.6938 47.6775 60.75 48.2625L61.875 60.6375C61.9088 60.9525 61.7963 61.2675 61.5825 61.5038C61.3688 61.74 61.065 61.875 60.75 61.875ZM46.2263 59.625H59.5125L58.59 49.5H47.1488L46.2263 59.625Z" fill="white"/>
<path d="M56.25 49.5H49.5C48.8812 49.5 48.375 48.9937 48.375 48.375V45C48.375 42.5138 50.3888 40.5 52.875 40.5C55.3612 40.5 57.375 42.5138 57.375 45V48.375C57.375 48.9937 56.8687 49.5 56.25 49.5ZM50.625 47.25H55.125V45C55.125 43.7625 54.1125 42.75 52.875 42.75C51.6375 42.75 50.625 43.7625 50.625 45V47.25Z" fill="white"/>
<path d="M52.875 69.75C43.5712 69.75 36 62.1788 36 52.875C36 43.5712 43.5712 36 52.875 36C62.1788 36 69.75 43.5712 69.75 52.875C69.75 56.2275 68.76 59.4788 66.8925 62.28C66.5437 62.7975 65.8463 62.9325 65.3288 62.595C64.8112 62.2463 64.6763 61.5487 65.0138 61.0312C66.6338 58.6125 67.4888 55.7887 67.4888 52.8862C67.4888 44.82 60.93 38.2612 52.8638 38.2612C44.7975 38.2612 38.2388 44.82 38.2388 52.8862C38.2388 60.9525 44.7975 67.5112 52.8638 67.5112C56.25 67.5112 59.5688 66.3075 62.2013 64.1362C62.685 63.7425 63.3938 63.81 63.7875 64.2825C64.1813 64.7662 64.1138 65.475 63.6413 65.8687C60.6038 68.3775 56.7788 69.7612 52.8638 69.7612L52.875 69.75Z" fill="#CFA935"/>
<path d="M10.125 27C5.7825 27 2.25 23.4675 2.25 19.125C2.25 18.5062 2.75625 18 3.375 18H16.875C17.4937 18 18 18.5062 18 19.125C18 23.4675 14.4675 27 10.125 27ZM4.6125 20.25C5.13 22.815 7.4025 24.75 10.125 24.75C12.8475 24.75 15.12 22.815 15.6375 20.25H4.6125Z" fill="#CFA935"/>
<path d="M23.625 27C19.2825 27 15.75 23.4675 15.75 19.125C15.75 18.5062 16.2562 18 16.875 18H30.375C30.9937 18 31.5 18.5062 31.5 19.125C31.5 23.4675 27.9675 27 23.625 27ZM18.1125 20.25C18.63 22.815 20.9025 24.75 23.625 24.75C26.3475 24.75 28.62 22.815 29.1375 20.25H18.1125Z" fill="#CFA935"/>
<path d="M37.125 27C32.7825 27 29.25 23.4675 29.25 19.125C29.25 18.5062 29.7562 18 30.375 18H43.875C44.4937 18 45 18.5062 45 19.125C45 23.4675 41.4675 27 37.125 27ZM31.6125 20.25C32.13 22.815 34.4025 24.75 37.125 24.75C39.8475 24.75 42.1088 22.815 42.6375 20.25H31.6125Z" fill="#CFA935"/>
<path d="M50.625 27C46.2825 27 42.75 23.4675 42.75 19.125C42.75 18.5062 43.2562 18 43.875 18H57.375C57.9937 18 58.5 18.5062 58.5 19.125C58.5 23.4675 54.9675 27 50.625 27ZM45.1125 20.25C45.63 22.815 47.9025 24.75 50.625 24.75C53.3475 24.75 55.6088 22.815 56.1375 20.25H45.1125Z" fill="#CFA935"/>
<path d="M18.1575 15.75C18.0562 15.75 17.955 15.7388 17.8425 15.705C17.2462 15.5363 16.8975 14.9062 17.0663 14.31L19.8788 4.5H18C17.3812 4.5 16.875 3.99375 16.875 3.375C16.875 2.75625 17.3812 2.25 18 2.25H21.375C21.7238 2.25 22.0612 2.41875 22.275 2.7C22.4887 2.98125 22.5562 3.3525 22.455 3.69L19.2375 14.94C19.0913 15.435 18.6412 15.75 18.1575 15.75Z" fill="#CFA935"/>
<path d="M5.95131 15.75C5.76006 15.75 5.56881 15.705 5.38881 15.6038C4.84881 15.3 4.65756 14.6138 4.97256 14.0738L11.3963 2.8125C11.5988 2.46375 11.9701 2.25 12.3751 2.25H13.5001C14.1188 2.25 14.6251 2.75625 14.6251 3.375C14.6251 3.99375 14.1188 4.5 13.5001 4.5H13.0276L6.93006 15.1875C6.72756 15.5475 6.34506 15.75 5.95131 15.75Z" fill="#CFA935"/>
<path d="M18.1575 15.75C18.0562 15.75 17.955 15.7388 17.8425 15.705C17.2462 15.5363 16.8975 14.9062 17.0662 14.31L20.2837 3.06C20.4187 2.57625 20.8687 2.25 21.3637 2.25H30.3637C30.9825 2.25 31.4887 2.75625 31.4887 3.375V14.625C31.4887 15.2437 30.9825 15.75 30.3637 15.75C29.745 15.75 29.2387 15.2437 29.2387 14.625V4.5H22.2075L19.2262 14.94C19.08 15.435 18.63 15.75 18.1462 15.75H18.1575Z" fill="#CFA935"/>
<path d="M42.5925 15.75C42.1088 15.75 41.6588 15.4237 41.5125 14.94L38.5312 4.5H31.5V14.625C31.5 15.2437 30.9937 15.75 30.375 15.75C29.7562 15.75 29.25 15.2437 29.25 14.625V3.375C29.25 2.75625 29.7562 2.25 30.375 2.25H39.375C39.8813 2.25 40.32 2.5875 40.455 3.06L43.6725 14.31C43.8412 14.9062 43.4925 15.525 42.8963 15.705C42.795 15.7388 42.6937 15.75 42.5812 15.75H42.5925Z" fill="#CFA935"/>
<path d="M42.5925 15.75C42.1087 15.75 41.6587 15.4237 41.5125 14.94L38.295 3.69C38.1937 3.3525 38.2612 2.98125 38.475 2.7C38.6887 2.41875 39.0262 2.25 39.375 2.25H48.375C48.78 2.25 49.1512 2.46375 49.3537 2.8125L55.7775 14.0625C56.0812 14.6025 55.9012 15.2887 55.3612 15.5925C54.8212 15.9075 54.135 15.7162 53.8312 15.1762L47.7337 4.48875H40.8825L43.695 14.2987C43.8637 14.895 43.515 15.5138 42.9187 15.6937C42.8175 15.7275 42.7162 15.7387 42.6037 15.7387L42.5925 15.75Z" fill="#CFA935"/>
<path d="M54 33.7839C53.3812 33.7839 52.875 33.2776 52.875 32.6589V29.4639C52.875 28.8451 53.3812 28.3389 54 28.3389C54.6187 28.3389 55.125 28.8451 55.125 29.4639V32.6589C55.125 33.2776 54.6187 33.7839 54 33.7839Z" fill="#CFA935"/>
<path d="M6.75 56.2501C6.13125 56.2501 5.625 55.7439 5.625 55.1251V29.4639C5.625 28.8451 6.13125 28.3389 6.75 28.3389C7.36875 28.3389 7.875 28.8451 7.875 29.4639V55.1251C7.875 55.7439 7.36875 56.2501 6.75 56.2501Z" fill="#CFA935"/>
<path d="M33.7838 60.75H18C17.3812 60.75 16.875 60.2437 16.875 59.625C16.875 59.0062 17.3812 58.5 18 58.5H33.7838C34.4025 58.5 34.9088 59.0062 34.9088 59.625C34.9088 60.2437 34.4025 60.75 33.7838 60.75Z" fill="#CFA935"/>
<path d="M13.5 60.75H3.375C2.75625 60.75 2.25 60.2438 2.25 59.625V55.125C2.25 54.5062 2.75625 54 3.375 54H32.7488C33.3675 54 33.8738 54.5062 33.8738 55.125C33.8738 55.7437 33.3675 56.25 32.7488 56.25H4.5V58.5H13.5C14.1187 58.5 14.625 59.0062 14.625 59.625C14.625 60.2438 14.1187 60.75 13.5 60.75Z" fill="#CFA935"/>
<path d="M25.875 51.75C25.2563 51.75 24.75 51.2437 24.75 50.625V33.75H13.5V50.625C13.5 51.2437 12.9937 51.75 12.375 51.75C11.7562 51.75 11.25 51.2437 11.25 50.625V32.625C11.25 32.0062 11.7562 31.5 12.375 31.5H25.875C26.4937 31.5 27 32.0062 27 32.625V50.625C27 51.2437 26.4937 51.75 25.875 51.75Z" fill="#CFA935"/>
<path d="M34.74 45H31.5C30.8812 45 30.375 44.4937 30.375 43.875V32.625C30.375 32.0062 30.8812 31.5 31.5 31.5H48.375C48.9937 31.5 49.5 32.0062 49.5 32.625V33.1425C49.5 33.7612 48.9937 34.2675 48.375 34.2675C47.9813 34.2675 47.6325 34.065 47.43 33.75H32.625V42.75H34.74C35.3587 42.75 35.865 43.2563 35.865 43.875C35.865 44.4937 35.3587 45 34.74 45Z" fill="#CFA935"/>
</svg>
