<svg width="145" height="235" viewBox="0 0 145 235" fill="none" xmlns="http://www.w3.org/2000/svg">
<g opacity="0.1">
<path d="M108.242 67.6518C107.53 66.5836 106.462 66.2275 105.038 66.2275C98.2728 66.9397 92.2198 68.0078 86.8789 69.7881C81.1819 71.5684 76.9092 76.1972 76.197 81.1821L68.7198 119.637C68.3637 120.705 68.7198 121.773 69.4319 122.485C70.144 123.197 71.2122 123.909 72.2804 123.909H163.432C164.5 123.909 165.568 123.553 166.28 122.485C166.992 121.773 167.349 120.705 166.992 119.637L159.515 81.5381C158.803 76.1972 154.53 71.5684 148.477 69.7881C142.78 68.0078 136.727 66.9397 130.318 66.2275C129.25 66.2275 127.826 66.5836 127.114 67.6518C126.402 68.72 126.046 69.7881 126.402 70.8563C128.182 77.2654 130.318 84.3866 117.856 97.5609C109.311 88.3033 106.462 79.7578 109.311 70.8563C109.311 69.7881 108.955 68.72 108.242 67.6518ZM115.008 105.038C116.432 106.462 118.568 106.462 119.992 105.038C134.235 91.5078 135.659 82.2503 134.235 74.0609C138.508 74.773 142.424 75.4851 145.985 76.5533C149.189 77.6215 151.682 79.7578 152.038 82.6063L158.803 116.432H76.197L82.9622 82.2503C83.3182 79.7578 85.8107 77.2654 88.6592 76.5533C92.2198 75.4851 96.4925 74.4169 100.765 74.0609C99.341 84.7427 104.326 94.7124 115.008 105.038Z" fill="white"/>
<path d="M100.053 40.5909C103.257 47.356 108.954 56.6136 117.5 56.6136C125.689 56.6136 131.742 47.356 134.947 40.5909C141.356 38.0984 142.068 24.9242 136.727 20.2954C134.235 10.3257 126.401 3.56055 117.5 3.56055C108.598 3.56055 100.765 10.3257 98.2726 20.2954C92.9317 25.2802 93.6439 38.0984 100.053 40.5909ZM102.901 25.6363C103.97 25.2802 104.682 24.2121 104.682 23.1439C106.462 16.0227 111.447 10.6818 117.5 10.6818C124.265 10.6818 128.894 17.0909 130.318 23.1439C130.674 24.2121 131.386 24.9242 132.098 25.6363C133.523 26.7045 133.523 32.4015 132.098 33.8257C130.674 33.8257 129.606 34.8939 128.894 35.9621C125.333 44.1515 120.704 49.1363 117.144 49.1363C113.583 49.1363 108.954 43.7954 105.394 35.9621C105.038 34.8939 103.614 33.8257 102.189 33.8257C101.477 32.4015 101.477 27.0605 102.901 25.6363Z" fill="white"/>
<path d="M196.902 173.758C193.697 170.553 189.424 168.773 184.439 168.773C180.879 168.773 177.674 169.841 174.826 171.621L156.667 153.462C172.689 141.356 182.303 122.129 182.303 101.834C182.303 77.6214 169.129 55.5456 147.765 44.5077C145.985 43.4396 143.848 44.1517 142.78 45.932C141.712 47.7123 142.424 49.8487 144.205 50.9168C163.076 60.8865 175.182 80.4699 175.182 102.19C175.182 134.235 149.189 160.227 117.144 160.227C85.4546 160.227 59.1061 134.591 59.1061 102.19C59.1061 80.4699 71.2121 60.5305 90.4394 50.5608C92.2197 49.4926 92.9318 47.3562 91.8636 45.932C90.7955 44.1517 88.6591 43.4396 87.2349 44.5077C65.5152 55.5456 51.9849 77.9774 51.9849 102.546C51.9849 122.841 61.5985 142.068 77.6212 154.174L59.4621 172.334C52.697 168.061 43.4394 168.417 37.3864 174.47C30.6212 181.235 30.6212 192.273 37.3864 199.038C44.1515 205.803 55.1894 205.803 61.9545 199.038C68.0076 192.985 68.7197 183.727 64.0909 177.318L83.3182 158.091C92.2197 163.432 102.545 166.637 113.227 167.349V197.614C105.394 199.394 99.3409 206.159 99.3409 214.705C99.3409 224.318 107.174 232.152 116.788 232.152C126.402 232.152 134.235 224.318 134.235 214.705C134.235 206.159 128.182 199.394 120.348 197.614V167.349C131.03 166.637 141 163.788 150.258 158.091L169.485 177.318C162.008 188.712 170.197 204.379 184.083 204.379C200.106 203.667 207.939 184.796 196.902 173.758ZM57.6818 193.341C53.7652 197.258 47 197.258 43.0833 193.341C39.1667 189.424 39.1667 182.659 43.0833 178.743C47 174.826 53.7652 174.826 57.6818 178.743C61.5985 183.015 61.5985 189.424 57.6818 193.341ZM127.826 213.993C127.826 219.69 123.197 224.318 117.5 224.318C111.803 224.318 107.174 219.69 107.174 213.993C107.174 208.296 111.803 203.667 117.5 203.667C123.197 203.667 127.826 208.296 127.826 213.993ZM184.795 196.546C171.265 196.546 170.909 175.894 184.795 175.894C187.644 175.894 190.136 176.962 191.917 179.099C198.326 185.508 193.697 196.546 184.795 196.546Z" fill="white"/>
</g>
</svg>
