<svg width="46" height="42" viewBox="0 0 46 42" fill="none" xmlns="http://www.w3.org/2000/svg">
<path d="M45.4999 16.5078C45.5025 16.2745 45.3962 16.0479 45.2033 15.9016L41 12.7132V11.2491V8.24915C41 7.83496 40.6642 7.49915 40.25 7.49915H34.1274L25.2881 0.793867C23.941 -0.228102 22.0592 -0.228195 20.712 0.793773L11.8726 7.49915H5.75C5.33581 7.49915 5 7.83496 5 8.24915V11.2491V12.7132L0.796719 15.9016C0.606688 16.0458 0.501125 16.2679 0.500563 16.4975C0.500375 16.4975 0.500281 16.4975 0.500094 16.4975C0.500094 16.498 0.5 16.4986 0.5 16.4991V16.506C0.5 16.5061 0.5 16.5062 0.5 16.5063V40.4991C0.5 40.9133 0.835812 41.2491 1.25 41.2491H4.2425H40.1588H44.75C45.1642 41.2491 45.5 40.9133 45.5 40.4991V16.5078H45.4999ZM41 14.5959L42.5202 15.7491H41V14.5959ZM41 17.2491H42.4437L41 18.2991V17.2491ZM21.6187 1.9888C22.432 1.37165 23.568 1.37174 24.3814 1.9889L31.6453 7.49915H14.3547L21.6187 1.9888ZM6.5 8.99915H39.5V10.4991H6.5V8.99915ZM6.5 11.9991H39.5V13.4991H6.5V11.9991ZM6.5 16.4991V14.9991H39.5V16.4991V19.3899L37.8691 20.5761C37.734 20.3787 37.5073 20.2491 37.25 20.2491C36.5601 20.2491 35.9117 20.0212 35.3745 19.59C34.6599 19.0168 34.25 18.1637 34.25 17.2491C34.25 16.835 33.9142 16.4991 33.5 16.4991H12.5C12.0858 16.4991 11.75 16.835 11.75 17.2491C11.75 18.0292 11.4515 18.7683 10.9088 19.3305C10.3383 19.9229 9.57172 20.2491 8.75 20.2491C8.49275 20.2491 8.26597 20.3787 8.13088 20.5761L6.5 19.3899V16.4991ZM30.2743 22.1702C30.048 21.2644 29.6571 20.4171 29.1121 19.6518C28.6572 19.0131 28.1098 18.4583 27.4961 17.9991H32.8122C32.9931 19.0802 33.5628 20.0598 34.4358 20.7599C35.0012 21.2138 35.6709 21.5206 36.3776 21.6608L30.1814 26.167C30.3917 25.4696 30.5 24.7406 30.5 23.9991C30.5 23.3785 30.4239 22.7626 30.2743 22.1702ZM25.3658 24.1726C25.0905 24.0575 24.7993 23.9991 24.5 23.9991H23.75V21.7491H24.1916C24.6545 21.7491 25.0708 22.0576 25.2049 22.5015C25.2348 22.5997 25.25 22.7027 25.25 22.8076V23.2491C25.25 23.6633 25.5858 23.9991 26 23.9991C26.4142 23.9991 26.75 23.6633 26.75 23.2491V22.8076C26.75 22.5542 26.7129 22.304 26.6402 22.0659C26.3174 20.9962 25.3106 20.2491 24.1916 20.2491H23.75V19.4991C23.75 19.085 23.4142 18.7491 23 18.7491C22.5858 18.7491 22.25 19.085 22.25 19.4991V20.2491H21.8084C20.7494 20.2491 19.787 20.9151 19.4129 21.9081C19.3048 22.1968 19.25 22.4995 19.25 22.8076V23.2491C19.25 24.4897 20.2593 25.4991 21.5 25.4991H22.25V26.9991H20.7958C20.7658 26.9003 20.75 26.7968 20.75 26.6907V26.2491C20.75 25.835 20.4142 25.4991 20 25.4991C19.5858 25.4991 19.25 25.835 19.25 26.2491V26.6907C19.25 26.7947 19.2581 26.8973 19.2703 26.9991H17.8038C17.2772 26.0897 17 25.0607 17 23.9991C17 23.426 17.081 22.8588 17.241 22.3122C17.4434 21.6169 17.7689 20.9697 18.2089 20.3879C19.3546 18.8698 21.1009 17.9991 23 17.9991C24.9369 17.9991 26.765 18.9424 27.8903 20.5219C28.3258 21.1337 28.6383 21.8105 28.8194 22.5356C28.9393 23.0099 29 23.5023 29 23.9991C29 25.0607 28.7227 26.0897 28.1962 26.9991H26.7297C26.7419 26.8973 26.75 26.7947 26.75 26.6907V26.2491C26.75 25.3361 26.2059 24.5206 25.3658 24.1726ZM25.25 26.2491V26.6907C25.25 26.7968 25.2341 26.9003 25.2042 26.9991H23.75V25.4991H24.5C24.5996 25.4991 24.6963 25.5185 24.7894 25.5574C25.0693 25.6732 25.25 25.9448 25.25 26.2491ZM22.25 21.7491V23.9991H21.5C21.0865 23.9991 20.75 23.6627 20.75 23.2491V22.8076C20.75 22.6797 20.7728 22.554 20.8171 22.4354C20.9717 22.0249 21.3702 21.7491 21.8084 21.7491H22.25ZM15.8186 26.1671L9.62666 21.6638C10.5219 21.4884 11.3403 21.0449 11.9888 20.3715C12.6259 19.7113 13.0389 18.8878 13.1878 17.9991H18.4939C17.9422 18.4158 17.443 18.9127 17.0121 19.4836C16.4621 20.211 16.0545 21.0216 15.8011 21.8917C15.6013 22.5742 15.5 23.2832 15.5 23.9991C15.5 24.7406 15.6083 25.4696 15.8186 26.1671ZM5 14.5959V15.7491H3.47975L5 14.5959ZM5 17.2491V18.2991L3.55644 17.2491H5ZM2 17.9721L14.8542 27.3205L2 38.8217V17.9721ZM3.21303 39.7491L15.7866 28.4991H30.2135L42.7871 39.7491H3.21303ZM44 18.1117V38.8217L31.1458 27.3204L44 17.9721V18.1117Z" fill="#CFA935"/>
</svg>
