<svg width="49" height="49" viewBox="0 0 49 49" fill="none" xmlns="http://www.w3.org/2000/svg">
<path d="M46.9979 23.3593C46.9976 23.3442 46.9932 23.3301 46.9919 23.315C46.986 23.2422 46.9694 23.1727 46.9435 23.106C46.9353 23.0846 46.9275 23.0644 46.9172 23.0437C46.8784 22.9654 46.8296 22.8931 46.7658 22.8324C46.7638 22.8305 46.7632 22.8279 46.7612 22.826L35.75 12.5708V8.375C35.75 7.96082 35.4146 7.625 35 7.625H30.4349L25.0112 2.57605C24.7227 2.30798 24.2773 2.30798 23.9888 2.57605L18.5651 7.625H14C13.5854 7.625 13.25 7.96082 13.25 8.375V12.5708L2.23877 22.826C2.2368 22.8279 2.23621 22.8305 2.23424 22.8324C2.17038 22.8931 2.12154 22.9655 2.08272 23.0438C2.07256 23.0644 2.06477 23.0845 2.05658 23.1057C2.03062 23.1725 2.01401 23.2421 2.00806 23.3151C2.00682 23.3301 2.00243 23.3442 2.00211 23.3593C2.00201 23.3647 2 23.3696 2 23.375V45.875C2 46.2892 2.33545 46.625 2.75 46.625H46.25C46.6646 46.625 47 46.2892 47 45.875V23.375C47 23.3696 46.998 23.3647 46.9979 23.3593ZM45.0208 23.2552L35.75 29.0094V14.6209L45.0208 23.2552ZM17.75 31.8004V14.7764L21.7271 12.125H27.2729L31.25 14.7764V31.8004L24.5 35.9921L17.75 31.8004ZM24.5 4.14966L28.2331 7.625H20.7669L24.5 4.14966ZM14.75 9.125H34.25V29.9401L32.75 30.8712V14.375C32.75 14.1241 32.6248 13.8901 32.416 13.751L27.916 10.751C27.793 10.6689 27.6479 10.625 27.5 10.625H21.5C21.3521 10.625 21.207 10.6689 21.084 10.751L16.584 13.751C16.3752 13.8901 16.25 14.1241 16.25 14.375V30.8712L14.75 29.9401V9.125ZM13.25 29.0094L3.97923 23.2552L13.25 14.6209V29.0094ZM45.5 45.125H3.5V24.7234L13.6042 30.9948C13.604 30.9948 13.6043 30.9949 13.6042 30.9948L24.1045 37.5122C24.2253 37.5873 24.363 37.625 24.5 37.625C24.637 37.625 24.7747 37.5873 24.8955 37.5122L35.3955 30.9951C35.3954 30.9952 35.3956 30.995 35.3955 30.9951L45.5 24.7234V45.125Z" fill="#CFA935"/>
<path d="M24.5 21.125C22.4324 21.125 20.75 22.8074 20.75 24.875C20.75 26.9426 22.4324 28.625 24.5 28.625C26.5676 28.625 28.25 26.9426 28.25 24.875C28.25 22.8074 26.5676 21.125 24.5 21.125ZM24.5 27.125C23.2593 27.125 22.25 26.1157 22.25 24.875C22.25 23.6343 23.2593 22.625 24.5 22.625C25.7407 22.625 26.75 23.6343 26.75 24.875C26.75 26.1157 25.7407 27.125 24.5 27.125Z" fill="#CFA935"/>
</svg>
