<svg width="24" height="24" viewBox="0 0 24 24" fill="none" xmlns="http://www.w3.org/2000/svg">
<g clip-path="url(#clip0_571_432)">
<path d="M17.6134 15.5158C19.0658 13.5338 19.7163 11.0765 19.4348 8.63548C19.1533 6.19447 17.9605 3.94976 16.095 2.35045C14.2295 0.751136 11.829 -0.0848406 9.37362 0.00976908C6.91825 0.104379 4.58915 1.1226 2.85227 2.86072C1.1154 4.59883 0.098846 6.92867 0.00599324 9.3841C-0.0868595 11.8395 0.750834 14.2395 2.35148 16.1038C3.95213 17.9681 6.19769 19.1594 8.6389 19.4391C11.0801 19.7189 13.5369 19.0666 15.5179 17.6128H15.5164C15.5614 17.6728 15.6094 17.7298 15.6634 17.7853L21.4384 23.5603C21.7196 23.8417 22.1012 23.9999 22.4991 24.0001C22.897 24.0002 23.2787 23.8423 23.5601 23.561C23.8416 23.2797 23.9998 22.8982 23.9999 22.5003C24.0001 22.1024 23.8421 21.7207 23.5609 21.4393L17.7859 15.6643C17.7322 15.61 17.6746 15.5613 17.6134 15.5158ZM18.0004 9.74975C18.0004 10.8332 17.787 11.906 17.3724 12.9069C16.9578 13.9078 16.3501 14.8173 15.584 15.5834C14.8179 16.3495 13.9084 16.9572 12.9075 17.3718C11.9066 17.7864 10.8338 17.9998 9.75037 17.9998C8.66696 17.9998 7.59417 17.7864 6.59323 17.3718C5.5923 16.9572 4.68282 16.3495 3.91674 15.5834C3.15066 14.8173 2.54297 13.9078 2.12836 12.9069C1.71376 11.906 1.50037 10.8332 1.50037 9.74975C1.50037 7.56172 2.36956 5.4633 3.91674 3.91612C5.46391 2.36895 7.56233 1.49975 9.75037 1.49975C11.9384 1.49975 14.0368 2.36895 15.584 3.91612C17.1312 5.4633 18.0004 7.56172 18.0004 9.74975Z" fill="white"/>
</g>
<defs>
<clipPath id="clip0_571_432">
<rect width="24" height="24" fill="white"/>
</clipPath>
</defs>
</svg>
