<?xml version="1.0" encoding="UTF-8"?>
<svg xmlns="http://www.w3.org/2000/svg" version="1.1" viewBox="0 0 30 30">
  <defs>
    <style>
      .cls-1 {
        fill: #fff;
        fill-rule: evenodd;
      }
    </style>
  </defs>
  <!-- Generator: Adobe Illustrator 28.6.0, SVG Export Plug-In . SVG Version: 1.2.0 Build 709)  -->
  <g>
    <g id="Layer_1">
      <path class="cls-1" d="M6,13.5c0-2,.8-3.9,2.2-5.3s3.3-2.2,5.3-2.2,3.9.8,5.3,2.2c1.4,1.4,2.2,3.3,2.2,5.3s-.8,3.9-2.2,5.3c-1.4,1.4-3.3,2.2-5.3,2.2s-3.9-.8-5.3-2.2c-1.4-1.4-2.2-3.3-2.2-5.3ZM13.5,3c-1.7,0-3.3.4-4.8,1.2-1.5.8-2.8,1.9-3.7,3.2-1,1.3-1.6,2.9-1.9,4.6s-.1,3.3.4,4.9c.5,1.6,1.4,3,2.6,4.2,1.2,1.2,2.6,2,4.2,2.5,1.6.5,3.3.6,4.9.3,1.6-.3,3.2-.9,4.5-1.9,0,0,0,.1.1.2l4.5,4.5c.3.3.7.4,1.1.4.4,0,.8-.2,1-.4.3-.3.4-.7.4-1,0-.4-.1-.8-.4-1.1l-4.5-4.5c0,0-.1,0-.2-.1,1.2-1.6,1.9-3.4,2.1-5.4s-.2-3.9-1.1-5.6c-.9-1.7-2.2-3.2-3.9-4.2-1.7-1-3.6-1.6-5.5-1.6Z"/>
    </g>
  </g>
</svg>