<svg width="24" height="24" viewBox="0 0 24 24" fill="none" xmlns="http://www.w3.org/2000/svg">
<g id="ICON">
<g id="Group">
<path id="Vector" d="M2.25 4.5H12.8565C13.1918 5.79 14.3565 6.75 15.75 6.75C17.1435 6.75 18.3083 5.79 18.6435 4.5H21.75C22.164 4.5 22.5 4.164 22.5 3.75C22.5 3.336 22.164 3 21.75 3H18.6435C18.3083 1.71 17.1435 0.75 15.75 0.75C14.3565 0.75 13.1918 1.71 12.8565 3H2.25C1.836 3 1.5 3.336 1.5 3.75C1.5 4.164 1.836 4.5 2.25 4.5ZM15.75 2.25C16.5773 2.25 17.25 2.92275 17.25 3.75C17.25 4.57725 16.5773 5.25 15.75 5.25C14.9227 5.25 14.25 4.57725 14.25 3.75C14.25 2.92275 14.9227 2.25 15.75 2.25ZM21.75 19.5H18.6435C18.3083 18.21 17.1435 17.25 15.75 17.25C14.3565 17.25 13.1918 18.21 12.8565 19.5H2.25C1.836 19.5 1.5 19.836 1.5 20.25C1.5 20.664 1.836 21 2.25 21H12.8565C13.1918 22.29 14.3565 23.25 15.75 23.25C17.1435 23.25 18.3083 22.29 18.6435 21H21.75C22.164 21 22.5 20.664 22.5 20.25C22.5 19.836 22.164 19.5 21.75 19.5ZM15.75 21.75C14.9227 21.75 14.25 21.0772 14.25 20.25C14.25 19.4228 14.9227 18.75 15.75 18.75C16.5773 18.75 17.25 19.4228 17.25 20.25C17.25 21.0772 16.5773 21.75 15.75 21.75ZM21.75 11.25H10.3935C10.0582 9.96 8.8935 9 7.5 9C6.1065 9 4.94175 9.96 4.6065 11.25H2.25C1.836 11.25 1.5 11.586 1.5 12C1.5 12.414 1.836 12.75 2.25 12.75H4.6065C4.94175 14.04 6.1065 15 7.5 15C8.8935 15 10.0582 14.04 10.3935 12.75H21.75C22.164 12.75 22.5 12.414 22.5 12C22.5 11.586 22.164 11.25 21.75 11.25ZM7.5 13.5C6.67275 13.5 6 12.8273 6 12C6 11.1727 6.67275 10.5 7.5 10.5C8.32725 10.5 9 11.1727 9 12C9 12.8273 8.32725 13.5 7.5 13.5Z" fill="#CFA935"/>
</g>
</g>
</svg>
