<svg width="91" height="91" viewBox="0 0 91 91" fill="none" xmlns="http://www.w3.org/2000/svg">
<g clip-path="url(#clip0_83_1725)">
<path d="M11.6162 40.4084L14.2222 40.0074C13.9734 38.3914 13.8474 36.7361 13.8474 35.0873C13.8474 17.3982 28.2384 3.0072 45.9275 3.0072C46.9078 3.0072 47.8964 3.05185 48.8662 3.13992L49.1047 0.514097C48.056 0.418823 46.9871 0.370483 45.9275 0.370483C26.7846 0.370483 11.2107 15.9444 11.2107 35.0873C11.2107 36.8699 11.3471 38.6602 11.6162 40.4084Z" fill="#CFA935"/>
<path d="M76.1654 45.8287C73.8704 52.2885 69.4534 57.9532 63.728 61.7791C61.8721 63.0193 60.3419 64.6238 59.2048 66.464H32.6504C31.5133 64.6236 29.9831 63.0193 28.1272 61.7791C21.3391 57.2431 16.5727 50.3934 14.7061 42.4917L12.1399 43.0978C14.1603 51.6504 19.3177 59.0635 26.6621 63.9713C30.1951 66.3324 32.3045 70.2876 32.3045 74.5519V80.0873C32.3045 82.6045 34.2388 84.6774 36.699 84.9003V85.3607C36.699 88.0262 38.8674 90.1947 41.533 90.1947H50.322C52.9874 90.1947 55.156 88.0262 55.156 85.3607V84.9003C57.6161 84.6774 59.5506 82.6045 59.5506 80.0873V74.5519C59.5506 70.2878 61.6597 66.3326 65.193 63.9716C71.3871 59.8323 76.1663 53.7027 78.6501 46.7117L76.1654 45.8287ZM56.9138 80.0873C56.9138 81.2989 55.9282 82.2845 54.7166 82.2845H45.4322V84.9212H52.5193V85.3607C52.5193 86.5724 51.5337 87.558 50.322 87.558H41.533C40.3213 87.558 39.3357 86.5724 39.3357 85.3607V84.9212H42.7954V82.2845H37.1384C35.9268 82.2845 34.9412 81.2989 34.9412 80.0873V79.6478H56.9138V80.0873ZM56.9138 74.5519V77.0111H34.9412V74.5519C34.9412 74.4927 34.9391 74.4336 34.9384 74.3744H56.9165C56.9159 74.4336 56.9138 74.4925 56.9138 74.5519ZM57.1717 71.7377H34.6833C34.5161 70.8336 34.2686 69.9517 33.9471 69.1009H57.9079C57.5864 69.9517 57.3389 70.8336 57.1717 71.7377Z" fill="#CFA935"/>
<path d="M78.0077 35.0873C78.0077 37.9103 77.6408 40.7109 76.9175 43.4112L79.4642 44.0936C80.2473 41.1709 80.6444 38.1408 80.6444 35.0874C80.6444 26.8461 77.706 18.8569 72.3704 12.591C67.0952 6.39625 59.7973 2.23323 51.821 0.868988L51.3765 3.46791C66.8078 6.10727 78.0079 19.4051 78.0077 35.0873Z" fill="#CFA935"/>
<path d="M0.92749 34.2963H7.60718V36.933H0.92749V34.2963Z" fill="#CFA935"/>
<path d="M84.2478 34.2963H90.9275V36.933H84.2478V34.2963Z" fill="#CFA935"/>
<path d="M3.19165 49.7809L9.47056 47.4964L10.3723 49.9749L4.09341 52.2594L3.19165 49.7809Z" fill="#CFA935"/>
<path d="M81.5105 21.2794L87.7896 18.9949L88.6913 21.4735L82.4123 23.758L81.5105 21.2794Z" fill="#CFA935"/>
<path d="M10.6218 63.5237L15.7385 59.2287L17.4339 61.2484L12.3172 65.5435L10.6218 63.5237Z" fill="#CFA935"/>
<path d="M74.4358 9.96063L79.5524 5.66559L81.2478 7.68532L76.1312 11.9804L74.4358 9.96063Z" fill="#CFA935"/>
<path d="M81.4993 49.9342L82.401 47.4557L88.6801 49.7402L87.7783 52.2187L81.4993 49.9342Z" fill="#CFA935"/>
<path d="M3.1958 21.461L4.09756 18.9825L10.3765 21.2669L9.47471 23.7454L3.1958 21.461Z" fill="#CFA935"/>
<path d="M74.4485 61.2719L76.1439 59.2522L81.2605 63.5473L79.5651 65.567L74.4485 61.2719Z" fill="#CFA935"/>
<path d="M10.6104 7.70081L12.3058 5.68108L17.4224 9.97612L15.727 11.9958L10.6104 7.70081Z" fill="#CFA935"/>
<path d="M41.4868 12.1478C38.4247 12.1478 35.6593 13.9014 34.3311 16.5986C31.3864 16.85 29.0666 19.3225 29.0666 22.3256C29.0666 22.3832 29.0677 22.4409 29.0698 22.4985C25.8264 23.5351 23.5156 26.5884 23.5156 30.0775C23.5156 32.3231 24.4415 34.4051 26.0511 35.8945C25.1326 37.0789 24.6259 38.5277 24.6259 40.0443C24.6259 42.1779 25.6185 44.1481 27.2821 45.4325C26.995 46.194 26.8463 46.9943 26.8463 47.7963C26.8463 51.1208 29.2735 53.9389 32.4975 54.5183C34.1068 57.3129 37.1232 59.0814 40.3769 59.0814C42.4139 59.0814 44.3445 58.418 45.9279 57.1919C47.5113 58.418 49.4418 59.0814 51.4789 59.0814C54.7326 59.0814 57.7488 57.3127 59.3581 54.5183C62.5823 53.9389 65.0093 51.1208 65.0093 47.7963C65.0093 46.9943 64.8604 46.194 64.5736 45.4325C66.237 44.1481 67.2298 42.1778 67.2298 40.0443C67.2298 38.5278 66.7228 37.0789 65.8046 35.8945C67.4142 34.4051 68.34 32.3233 68.34 30.0775C68.34 26.5883 66.0295 23.5351 62.7859 22.4985C62.788 22.4407 62.789 22.3832 62.789 22.3256C62.789 19.3223 60.4696 16.8496 57.5245 16.5986C56.1962 13.9014 53.431 12.1478 50.3687 12.1478C48.7793 12.1478 47.2375 12.623 45.9279 13.5024C44.6182 12.623 43.0762 12.1478 41.4868 12.1478ZM44.6092 54.8611C43.4341 55.885 41.9505 56.4447 40.3766 56.4447C38.5082 56.4447 36.75 55.6224 35.5415 54.2575C36.2383 54.0135 36.9901 53.6072 37.6367 52.9312C38.7896 51.7257 39.2705 50.0269 39.0663 47.8822L36.4413 48.1322C36.569 49.4713 36.3339 50.4687 35.743 51.0962C34.9233 51.967 33.5809 51.9816 33.419 51.9793C31.2106 51.8241 29.4827 49.9897 29.4827 47.7963C29.4827 47.0432 29.6917 46.3158 30.1037 45.634L30.8355 44.4235L29.5766 43.7786C28.149 43.0474 27.2622 41.6165 27.2622 40.0443C27.2622 38.8017 27.8263 37.6293 28.8107 36.8161C29.0352 36.6832 30.1579 36.0759 31.4172 36.4039C32.5698 36.7041 33.5986 37.7082 34.4752 39.3885L36.8129 38.1689C35.566 35.779 33.9574 34.3225 32.0317 33.8396C30.42 33.4355 28.9938 33.8408 28.1362 34.2115C26.8827 33.2054 26.152 31.7054 26.152 30.0775C26.152 27.4413 28.1272 25.1773 30.7467 24.8109L30.7546 24.8099C30.868 24.7948 33.4198 24.4914 35.027 27.3039L37.3162 25.9957C35.6393 23.0609 33.2107 22.3384 31.7098 22.1927C31.7803 20.543 33.1421 19.2207 34.8133 19.2142C34.8359 19.2163 34.8581 19.22 34.8806 19.223C34.9495 19.2323 35.0184 19.2413 35.0884 19.2471L36.1079 19.3331L36.4442 18.3668C37.1898 16.2242 39.2164 14.7845 41.4868 14.7845C42.6113 14.7845 43.7006 15.1419 44.6092 15.7985V54.8611ZM47.2459 15.7985C48.1545 15.1419 49.2438 14.7845 50.3683 14.7845C52.6387 14.7845 54.6653 16.2242 55.4111 18.3668L55.7474 19.3331L56.7671 19.2471C56.8369 19.2411 56.9058 19.2323 56.9745 19.223C56.997 19.2199 57.0194 19.2162 57.042 19.2142C58.713 19.2207 60.075 20.543 60.1453 22.1927C58.6445 22.3384 56.2159 23.0609 54.5389 25.9957L56.8281 27.3039C58.4332 24.4951 60.9801 24.7937 61.0998 24.8097L61.1082 24.8109C63.7275 25.1773 65.7029 27.4413 65.7029 30.0775C65.7029 31.7052 64.9724 33.2052 63.7187 34.2114C62.8611 33.8406 61.4348 33.4351 59.8229 33.8396C57.8974 34.3225 56.2888 35.779 55.0418 38.1689L57.3795 39.3885C58.2561 37.7082 59.285 36.7041 60.4376 36.4039C61.6967 36.0759 62.8193 36.683 63.0441 36.8159C64.0285 37.6291 64.5927 38.8015 64.5927 40.0441C64.5927 41.6163 63.7059 43.0472 62.2784 43.7784L61.0193 44.4234L61.7514 45.6342C62.1636 46.3157 62.3724 47.043 62.3724 47.7963C62.3724 49.9895 60.645 51.8238 58.437 51.9793C58.2813 51.9814 56.9345 51.9697 56.1123 51.0964C55.5213 50.4687 55.2863 49.4715 55.4138 48.1324L52.789 47.8824C52.5847 50.0271 53.0657 51.7259 54.2185 52.9314C54.865 53.6074 55.6168 54.0138 56.3136 54.2576C55.1049 55.6224 53.3469 56.4449 51.4786 56.4449C49.9048 56.4449 48.421 55.885 47.2459 54.8611V15.7985Z" fill="#CFA935"/>
<path d="M72.7341 37.0209H75.3708V39.6576H72.7341V37.0209Z" fill="#CFA935"/>
<path d="M72.7341 31.5717H75.3708V34.2084H72.7341V31.5717Z" fill="#CFA935"/>
</g>
<defs>
<clipPath id="clip0_83_1725">
<rect width="90" height="90" fill="white" transform="translate(0.92749 0.282593)"/>
</clipPath>
</defs>
</svg>
