<svg width="16" height="16" viewBox="0 0 16 16" fill="none" xmlns="http://www.w3.org/2000/svg">
<g clip-path="url(#clip0_223_52)">
<path fill-rule="evenodd" clip-rule="evenodd" d="M8.10042 15.5998C7.07082 15.5998 6.62203 15.3682 5.74683 14.7416C4.95484 14.175 4.44683 13.8635 2.97643 14.1541C2.40283 14.2675 2.41403 14.2155 2.29083 13.6424C2.22523 13.3405 2.17802 13.1567 2.06602 13.1389C0.871625 12.9527 0.165223 12.6774 0.0244234 12.3448C-0.0427766 12.1845 0.0372341 12.0584 0.160434 12.0373C1.71803 11.7783 2.97724 10.4709 3.52364 9.18303C3.52524 9.17979 3.52605 9.17647 3.52765 9.17405C3.66605 8.89073 3.69324 8.64623 3.61004 8.4471C3.42204 7.99864 2.81644 7.90476 2.38204 7.72991C2.08284 7.6101 1.59083 7.35767 1.65643 7.0096C1.71643 6.69066 2.22763 6.48828 2.50123 6.6178C3.18843 6.94402 3.73882 6.84425 3.90362 6.69045C3.89562 6.53422 3.99964 6.36513 3.99964 6.20647C3.99964 5.10314 3.72124 3.7304 4.06844 2.94358C5.56684 -0.456252 10.5652 -0.439199 12.0556 2.94202C12.4028 3.72965 12.3172 5.10309 12.2484 6.20803L12.2452 6.26077C12.2356 6.41052 12.2268 6.55207 12.2196 6.68967C12.2516 6.71963 12.3804 6.82329 12.6436 6.83381C12.8668 6.82491 13.1244 6.75217 13.4076 6.6178C13.7412 6.45995 14.342 6.70203 14.3484 7.06467C14.3516 7.23386 14.2276 7.48625 13.6172 7.72991C13.1844 7.90313 12.5772 7.99864 12.39 8.4471C12.306 8.64623 12.3332 8.89076 12.4716 9.17327C12.4732 9.1765 12.474 9.17979 12.4756 9.18303C12.518 9.28422 13.546 11.6553 15.8388 12.0373C15.9356 12.0535 16.0052 12.1409 15.9996 12.2397C15.9972 12.2753 15.9892 12.3107 15.974 12.3455C15.834 12.6766 15.1284 12.9512 13.9332 13.1373C13.8212 13.1551 13.774 13.339 13.7092 13.6393C13.6108 14.0958 13.626 14.2528 13.0228 14.133C11.5684 13.8465 11.0172 14.1929 10.2532 14.7393C9.69003 15.1424 9.05322 15.5998 8.10042 15.5998Z" fill="#D4AB4C"/>
</g>
<defs>
<clipPath id="clip0_223_52">
<rect width="16" height="16" fill="white"/>
</clipPath>
</defs>
</svg>
