<svg width="145" height="235" viewBox="0 0 145 235" fill="none" xmlns="http://www.w3.org/2000/svg">
<g opacity="0.1" clip-path="url(#clip0_7839_4340)">
<path fill-rule="evenodd" clip-rule="evenodd" d="M107.402 219.853C106.943 219.853 106.484 219.853 106.025 219.394L53.7009 197.822C51.865 196.904 50.947 195.068 51.865 193.232C52.783 191.396 54.6189 190.937 55.9959 191.396L108.779 213.427C110.615 213.886 111.074 216.181 110.615 217.558C109.697 218.935 108.779 219.853 107.402 219.853ZM127.597 219.853C126.679 219.853 125.303 218.935 124.844 217.558C123.926 215.722 124.844 213.886 126.679 212.969L179.004 191.396C180.381 190.478 182.217 191.396 183.135 193.232C184.053 194.609 183.135 196.904 181.299 197.363L128.974 219.394C128.974 219.853 128.056 219.853 127.597 219.853ZM40.3904 183.594C39.0134 183.594 38.0955 182.676 37.1775 181.299L15.6052 128.974C14.6873 127.597 15.6052 125.302 17.4412 124.844C18.8181 123.926 21.1131 124.844 21.572 126.679L43.6033 179.004C44.0623 180.381 43.1443 182.217 41.7674 183.135C41.3084 183.135 40.8494 183.594 40.3904 183.594ZM194.609 183.594C194.15 183.594 193.691 183.594 193.232 183.135C191.396 182.676 190.937 180.84 191.396 179.004L213.428 126.679C213.886 124.844 216.181 124.385 217.558 124.844C219.394 125.761 220.312 127.597 219.394 129.433L197.822 181.758C196.904 182.676 195.986 183.594 194.609 183.594ZM18.8181 110.615C18.3591 110.615 17.9002 110.615 17.4412 110.615C15.6052 109.697 14.6873 107.861 15.6052 106.025L37.1775 53.7009C38.0955 51.865 39.9314 50.947 41.7674 51.865C43.6033 52.783 44.0623 54.6189 43.6033 55.9959L22.031 108.32C21.1131 109.697 19.7361 110.615 18.8181 110.615ZM216.181 110.615C215.263 110.615 213.886 109.697 213.428 108.32L191.396 55.9959C190.937 54.1599 191.855 52.324 193.232 51.865C195.068 50.947 196.904 51.865 197.822 53.242L219.394 106.025C220.312 107.402 219.394 109.697 217.558 110.156C217.099 110.615 216.64 110.615 216.181 110.615ZM179.922 43.6033C179.922 43.6033 179.463 43.6033 179.004 43.6033L126.679 22.031C124.844 21.1131 123.926 19.2771 124.844 17.4412C125.303 15.6052 127.597 15.1463 128.974 15.6052L181.299 37.6365C183.135 38.0955 184.053 40.3904 183.135 41.7673C182.676 43.1443 181.299 43.6033 179.922 43.6033ZM55.0779 43.6033C53.7009 43.6033 52.324 43.1443 51.865 41.7673C50.947 39.9314 51.865 38.0955 53.7009 37.1775L106.025 15.6052C107.861 14.6873 109.697 15.6052 110.615 17.4412C111.074 18.8181 110.156 21.1131 108.779 21.572L55.9959 43.6033C55.5369 43.6033 55.0779 43.6033 55.0779 43.6033Z" fill="white"/>
<path fill-rule="evenodd" clip-rule="evenodd" d="M117.5 192.314C76.6504 192.314 43.1445 158.809 43.1445 117.5C43.1445 76.6504 76.6504 43.1445 117.5 43.1445C158.809 43.1445 192.314 76.6504 192.314 117.5C192.314 158.809 158.809 192.314 117.5 192.314ZM117.5 49.5703C79.8633 49.5703 49.5703 79.8633 49.5703 117.5C49.5703 155.137 79.8633 185.43 117.5 185.43C155.137 185.43 185.43 155.137 185.43 117.5C185.43 79.8633 155.137 49.5703 117.5 49.5703Z" fill="white"/>
<path fill-rule="evenodd" clip-rule="evenodd" d="M117.5 192.314C98.2227 192.314 83.0762 159.268 83.0762 117.5C83.0762 75.7324 98.2227 43.1445 117.5 43.1445C136.777 43.1445 151.924 75.7324 151.924 117.5C151.924 159.268 136.777 192.314 117.5 192.314ZM117.5 49.5703C104.189 49.5703 89.9609 77.1094 89.9609 117.5C89.9609 158.35 104.189 185.43 117.5 185.43C130.811 185.43 145.498 158.35 145.498 117.5C145.498 76.6504 131.27 49.5703 117.5 49.5703Z" fill="white"/>
<path fill-rule="evenodd" clip-rule="evenodd" d="M117.5 151.924C75.7324 151.924 43.1445 136.777 43.1445 117.5C43.1445 98.2227 75.7324 83.0762 117.5 83.0762C159.268 83.0762 192.314 98.2227 192.314 117.5C192.314 136.777 159.268 151.924 117.5 151.924ZM117.5 89.9609C76.6504 89.9609 49.5703 104.189 49.5703 117.5C49.5703 130.811 77.1094 145.498 117.5 145.498C158.35 145.498 185.43 130.811 185.43 117.5C185.43 104.189 158.35 89.9609 117.5 89.9609Z" fill="white"/>
<path fill-rule="evenodd" clip-rule="evenodd" d="M117.5 28.916C109.697 28.916 103.271 22.4902 103.271 14.6875C103.271 6.42578 109.697 0 117.5 0C125.303 0 132.188 6.42578 132.188 14.6875C132.188 22.4902 125.303 28.916 117.5 28.916ZM117.5 6.88477C113.369 6.88477 109.697 10.0977 109.697 14.6875C109.697 18.8184 113.369 22.0312 117.5 22.0312C122.09 22.0312 125.303 18.8184 125.303 14.6875C125.303 10.0977 122.09 6.88477 117.5 6.88477Z" fill="white"/>
<path fill-rule="evenodd" clip-rule="evenodd" d="M117.5 235C109.697 235 103.271 228.574 103.271 220.771C103.271 212.969 109.697 206.084 117.5 206.084C125.303 206.084 132.188 212.969 132.188 220.771C132.188 228.574 125.303 235 117.5 235ZM117.5 212.969C113.369 212.969 109.697 216.182 109.697 220.771C109.697 224.902 113.369 228.115 117.5 228.115C122.09 228.115 125.303 224.902 125.303 220.771C125.303 216.182 122.09 212.969 117.5 212.969Z" fill="white"/>
<path fill-rule="evenodd" clip-rule="evenodd" d="M44.9805 204.707C40.8496 204.707 37.1777 203.33 34.4238 200.576C28.916 195.068 28.916 185.889 34.4238 180.381C37.1777 177.627 40.8496 175.791 44.9805 176.25C48.6523 176.25 52.3242 177.627 55.0781 180.381C60.5859 185.889 60.5859 195.068 55.0781 200.576C52.3242 203.33 48.6523 204.707 44.9805 204.707ZM44.9805 182.676C42.6855 182.676 40.8496 183.135 39.0137 184.971C36.2598 187.725 36.2598 192.773 39.0137 195.986C40.8496 197.363 42.6855 198.281 44.9805 198.281C46.8164 198.281 48.6523 197.363 50.0293 195.986C53.2422 192.773 53.2422 187.725 50.0293 184.971C48.6523 183.594 46.8164 182.676 44.9805 182.676Z" fill="white"/>
<path fill-rule="evenodd" clip-rule="evenodd" d="M14.6875 132.188C6.42578 132.188 0 125.303 0 117.5C0 109.697 6.42578 103.271 14.6875 103.271C22.4902 103.271 28.916 109.697 28.916 117.5C28.916 125.303 22.4902 132.188 14.6875 132.188ZM14.6875 109.697C10.0977 109.697 6.88477 113.369 6.88477 117.5C6.88477 122.09 10.0977 125.303 14.6875 125.303C18.8184 125.303 22.0312 122.09 22.0312 117.5C22.0312 113.369 18.8184 109.697 14.6875 109.697Z" fill="white"/>
<path fill-rule="evenodd" clip-rule="evenodd" d="M44.9805 59.209C41.3086 59.209 37.1777 57.832 34.4238 55.0781C28.916 49.5703 28.916 40.3906 34.4238 34.4238C40.3906 28.916 49.5703 28.916 55.0781 34.4238C60.5859 40.3906 60.5859 49.5703 55.0781 55.0781C51.8652 57.373 48.1934 59.209 44.9805 59.209ZM39.0137 39.0137C36.2598 42.2266 36.2598 47.2754 39.0137 50.0293C42.2266 52.7832 47.2754 53.2422 50.0293 50.0293C53.2422 47.2754 52.7832 42.2266 50.0293 39.0137C47.2754 36.2598 42.2266 36.2598 39.0137 39.0137Z" fill="white"/>
</g>
<defs>
<clipPath id="clip0_7839_4340">
<rect width="235" height="235" fill="white"/>
</clipPath>
</defs>
</svg>
