<svg width="23" height="22" viewBox="0 0 23 22" fill="none" xmlns="http://www.w3.org/2000/svg">
<path d="M11.5943 17.4389L16.6287 20.6354C17.278 21.0449 18.0771 20.4356 17.8873 19.6864L16.4289 13.9528C16.3895 13.7939 16.3958 13.6271 16.447 13.4715C16.4983 13.316 16.5924 13.1781 16.7186 13.0738L21.2336 9.30801C21.8229 8.81855 21.5232 7.82966 20.7541 7.77971L14.8607 7.40014C14.6999 7.39078 14.5453 7.33479 14.4158 7.23899C14.2863 7.1432 14.1875 7.01176 14.1315 6.86074L11.9339 1.32692C11.8758 1.167 11.7698 1.02885 11.6304 0.931233C11.491 0.833614 11.325 0.78125 11.1548 0.78125C10.9846 0.78125 10.8186 0.833614 10.6792 0.931233C10.5398 1.02885 10.4338 1.167 10.3757 1.32692L8.17813 6.86074C8.12212 7.01176 8.02333 7.1432 7.89384 7.23899C7.76434 7.33479 7.60975 7.39078 7.44894 7.40014L1.55552 7.77971C0.786379 7.82966 0.486713 8.81855 1.07606 9.30801L5.59102 13.0738C5.71721 13.1781 5.81136 13.316 5.86261 13.4715C5.91386 13.6271 5.92013 13.7939 5.88069 13.9528L4.5322 19.2669C4.30245 20.1659 5.26138 20.8951 6.03053 20.4056L10.7153 17.4389C10.8467 17.3554 10.9991 17.311 11.1548 17.311C11.3105 17.311 11.4629 17.3554 11.5943 17.4389Z" stroke="#CFA935" stroke-width="1.21237" stroke-linecap="round" stroke-linejoin="round"/>
</svg>
