<svg width="22" height="21" viewBox="0 0 22 21" fill="none" xmlns="http://www.w3.org/2000/svg">
<path d="M11.2506 17.4389L16.2849 20.6354C16.9342 21.0449 17.7333 20.4356 17.5435 19.6864L16.0852 13.9528C16.0457 13.7939 16.052 13.6271 16.1033 13.4715C16.1545 13.316 16.2487 13.1781 16.3748 13.0738L20.8898 9.30801C21.4791 8.81855 21.1795 7.82966 20.4103 7.77971L14.5169 7.40014C14.3561 7.39078 14.2015 7.33479 14.072 7.23899C13.9425 7.1432 13.8437 7.01177 13.7877 6.86074L11.5902 1.32692C11.532 1.167 11.426 1.02885 11.2867 0.931233C11.1473 0.833614 10.9812 0.78125 10.8111 0.78125C10.6409 0.78125 10.4748 0.833614 10.3355 0.931233C10.1961 1.02885 10.0901 1.167 10.0319 1.32692L7.83438 6.86074C7.77837 7.01177 7.67958 7.1432 7.55009 7.23899C7.42059 7.33479 7.266 7.39078 7.10519 7.40014L1.21177 7.77971C0.442629 7.82966 0.142963 8.81855 0.732305 9.30801L5.24727 13.0738C5.37346 13.1781 5.46761 13.316 5.51886 13.4715C5.57011 13.6271 5.57638 13.7939 5.53694 13.9528L4.18845 19.2669C3.9587 20.1659 4.91763 20.8951 5.68678 20.4056L10.3715 17.4389C10.5029 17.3554 10.6554 17.311 10.8111 17.311C10.9667 17.311 11.1192 17.3554 11.2506 17.4389Z" fill="#CFA935"/>
</svg>
