<svg width="20" height="20" viewBox="0 0 20 20" fill="none" xmlns="http://www.w3.org/2000/svg">
<g clip-path="url(#clip0_3_599)">
<path d="M19.5662 9.10305C19.9599 8.71939 20.0988 8.15632 19.929 7.63289C19.7588 7.10946 19.3155 6.73581 18.7708 6.65652L13.9282 5.95287C13.722 5.92284 13.5438 5.79348 13.4517 5.60646L11.2867 1.21879C11.0436 0.725801 10.5502 0.419434 10.0003 0.419434C9.45086 0.419434 8.95747 0.725801 8.71437 1.21879L6.54898 5.60686C6.45686 5.79388 6.27825 5.92324 6.072 5.95327L1.22939 6.65692C0.685139 6.73581 0.241407 7.10986 0.0712024 7.63329C-0.0986013 8.15672 0.0403654 8.71979 0.434038 9.10345L3.93784 12.5188C4.08722 12.6645 4.1557 12.8744 4.12046 13.0794L3.29387 17.902C3.22058 18.3265 3.33192 18.7394 3.60665 19.065C4.03356 19.5724 4.77885 19.727 5.37477 19.4138L9.70556 17.1367C9.88658 17.0418 10.1145 17.0426 10.2951 17.1367L14.6263 19.4138C14.8369 19.5248 15.0616 19.5808 15.2935 19.5808C15.7168 19.5808 16.1181 19.3926 16.394 19.065C16.6691 18.7394 16.7801 18.3257 16.7068 17.902L15.8798 13.0794C15.8445 12.874 15.913 12.6645 16.0624 12.5188L19.5662 9.10305Z" fill="#D4AB4C"/>
</g>
<defs>
<clipPath id="clip0_3_599">
<rect width="20" height="20" fill="white"/>
</clipPath>
</defs>
</svg>
