<svg width="80" height="80" viewBox="0 0 80 80" fill="none" xmlns="http://www.w3.org/2000/svg">
<rect width="80" height="80" rx="10" transform="matrix(1 0 0 -1 0 80)" fill="#CFA935"/>
<g clip-path="url(#clip0_36_59)">
<path d="M34.1406 35.6055H45.8594C46.6692 35.6055 47.3242 34.9505 47.3242 34.1406C47.3242 33.3311 46.6692 32.6758 45.8594 32.6758H34.1406C33.3311 32.6758 32.6758 33.3311 32.6758 34.1406C32.6758 34.9505 33.3311 35.6055 34.1406 35.6055Z" fill="white"/>
<path d="M34.1406 41.4648H45.8594C46.6692 41.4648 47.3242 40.8099 47.3242 40C47.3242 39.1905 46.6692 38.5352 45.8594 38.5352H34.1406C33.3311 38.5352 32.6758 39.1905 32.6758 40C32.6758 40.8099 33.3311 41.4648 34.1406 41.4648Z" fill="white"/>
<path d="M34.1406 47.3242H45.8594C46.6692 47.3242 47.3242 46.6692 47.3242 45.8594C47.3242 45.0499 46.6692 44.3945 45.8594 44.3945H34.1406C33.3311 44.3945 32.6758 45.0499 32.6758 45.8594C32.6758 46.6692 33.3311 47.3242 34.1406 47.3242Z" fill="white"/>
<path d="M47.4265 25.7548C51.3045 27.7827 54.2696 31.3162 55.4888 35.6055H53.1836C52.6427 35.6055 52.1464 35.903 51.8916 36.3795C51.6371 36.8555 51.6657 37.4335 51.9648 37.8828C52.1368 38.1796 57.4248 47.2864 57.0917 46.7127C57.6353 47.5279 58.9857 47.5279 59.5293 46.7127C60.0878 45.7514 64.9458 37.5529 64.7543 37.8828C65.0534 37.4335 65.0816 36.8555 64.8272 36.3795C64.5727 35.903 64.0761 35.6055 63.5355 35.6055H61.5317C60.1954 29.0236 55.8901 23.5594 50.1009 20.5527C50.1974 20.92 50.2524 21.2996 50.2524 21.6895C50.2554 24.8236 47.7206 25.5595 47.4265 25.7548Z" fill="white"/>
<path d="M37.8829 15.2457C37.4335 14.947 36.8556 14.9184 36.3795 15.1728C35.903 15.4276 35.6055 15.9239 35.6055 16.4648V18.4683C27.6641 20.0808 21.2947 25.9825 18.9799 33.6439C19.7627 33.0256 20.692 32.6773 21.6895 32.6773C23.0025 32.6773 24.1973 33.2575 25.0151 34.2116C26.829 29.5351 30.7311 25.8967 35.6055 24.5112V26.8164C35.6055 27.3573 35.903 27.8536 36.3795 28.1084C36.856 28.3629 37.4339 28.3343 37.8829 28.0356C38.1797 27.8631 47.2865 22.5752 46.7127 22.9082C47.5283 22.3646 47.5283 21.0142 46.7127 20.4706C45.7514 19.9126 37.5529 15.0542 37.8829 15.2457Z" fill="white"/>
<path d="M15.1728 46.5502C15.4276 47.0266 15.9239 47.3242 16.4648 47.3242H19.3041C21.1684 52.5892 25.0021 56.8827 29.8933 59.4324C29.7991 59.07 29.7476 58.695 29.7476 58.3105C29.7445 55.1897 32.2592 54.4504 32.5525 54.2559C29.6038 52.7117 27.1872 50.2897 25.6655 47.3242H26.8164C27.3573 47.3242 27.8536 47.0266 28.1084 46.5502C28.3629 46.0741 28.3343 45.4962 28.0352 45.0468C27.8631 44.75 22.5752 35.6432 22.9082 36.2169C22.3646 35.4017 21.0142 35.4017 20.4706 36.2169C20.0846 36.8818 14.9302 45.5908 15.2457 45.0468C14.947 45.4962 14.9184 46.0741 15.1728 46.5502Z" fill="white"/>
<path d="M44.3945 53.1835C44.3945 52.6426 44.097 52.1463 43.6205 51.8915C43.1445 51.6371 42.5665 51.6657 42.1172 51.9647C41.8204 52.1368 32.7136 57.4247 33.2873 57.0917C32.4721 57.6353 32.4721 58.9857 33.2873 59.5293C34.2486 60.0874 42.4471 64.9458 42.1172 64.7543C42.5665 65.0533 43.1445 65.0816 43.6205 64.8271C44.097 64.5727 44.3945 64.076 44.3945 63.5355V61.5316C50.976 60.1953 56.4398 55.8908 59.4466 50.102C59.08 50.1989 58.7004 50.2539 58.3105 50.2539C55.8222 50.2539 54.88 48.6685 54.1953 47.5283C52.159 51.3571 48.6464 54.2803 44.3945 55.4888V53.1835Z" fill="white"/>
</g>
<defs>
<clipPath id="clip0_36_59">
<rect width="50" height="50" fill="white" transform="translate(15 15)"/>
</clipPath>
</defs>
</svg>
