<svg width="80" height="81" viewBox="0 0 80 81" fill="none" xmlns="http://www.w3.org/2000/svg">
<rect width="80" height="80" rx="10" transform="matrix(1 0 0 -1 0 80.6478)" fill="#CFA935"/>
<path d="M51.7031 33.9994C51.3902 34.2174 51.0287 34.3555 50.6502 34.4018C50.2716 34.4481 49.8875 34.4011 49.5313 34.265C47.6603 33.4808 48.5077 31.44 48 28.765C47.7435 27.4532 47.3322 26.6787 47.6719 25.3197C47.8903 24.4361 48.3533 23.6319 49.0078 22.9994C46.6066 20.7724 43.4623 19.5191 40.1875 19.4838C40.1769 19.5139 39.8453 20.4056 39.8516 20.4369C39.8672 20.5463 40.0391 20.6791 40.2735 20.851C40.5734 21.0244 40.8281 21.2662 41.0168 21.5567C41.2055 21.8473 41.3229 22.1783 41.3594 22.5228C41.3985 24.476 39.0625 25.7416 37.8672 25.9603C36.7546 26.0799 35.6508 26.2704 34.5625 26.5306C34.6778 26.7865 34.8455 27.0154 35.0547 27.2025C35.6409 27.7122 36.2735 28.9026 37.0547 28.8197C37.836 28.7658 38.5545 28.4722 39.5547 28.9213C39.899 29.0704 40.251 29.2008 40.6094 29.3119C42.1097 29.1867 42.7969 30.1286 43.5781 30.8275C44.0835 31.2524 44.6367 31.6168 45.2266 31.9135C47.2077 33.027 47.1131 34.7599 46.1563 36.7806C45.578 38.0318 44.7326 39.1411 43.6797 40.0306C42.3048 41.2043 41.1563 42.0559 40.8594 43.5072C40.4964 45.2619 39.2171 45.4448 38.2656 44.8041C37.4001 44.133 36.8153 43.1639 36.625 42.0853C36.4521 41.0732 36.6431 40.0326 37.1641 39.1478C37.4375 38.601 37.4922 38.4291 37.4297 38.2103C37.3594 37.9525 37.1641 37.8041 36.6641 37.476C35.8428 37.0177 35.1929 36.3048 34.8125 35.4447C34.5196 34.7749 34.4644 34.0251 34.6563 33.3197C34.8682 32.2604 34.1268 31.7557 32.5313 30.7885C31.0078 29.8822 29.1719 28.7728 28.3125 26.4681C27.2595 28.3966 26.7112 30.56 26.7188 32.7572C26.7177 36.0987 27.9767 39.3178 30.2445 41.772C32.5123 44.2262 35.6221 45.735 38.9533 45.9973C42.2845 46.2596 45.5922 45.2562 48.2162 43.1872C50.8401 41.1182 52.5874 38.1359 53.1094 34.8353L51.7031 33.9994ZM27.7891 35.0072C27.7156 34.6174 27.6661 34.2234 27.6406 33.8275C27.6271 33.6219 27.6956 33.4193 27.8311 33.2641C27.9666 33.1088 28.158 33.0135 28.3635 32.9991C28.5691 32.9846 28.772 33.0522 28.9279 33.1869C29.0838 33.3217 29.1799 33.5127 29.1953 33.7181C29.2188 34.0619 29.2656 34.3978 29.3203 34.726C29.3394 34.8268 29.3384 34.9304 29.3174 35.0308C29.2963 35.1312 29.2556 35.2265 29.1976 35.3111C29.1396 35.3957 29.0654 35.468 28.9794 35.5239C28.8933 35.5798 28.7971 35.6181 28.6961 35.6366C28.5952 35.6552 28.4916 35.6536 28.3913 35.6319C28.291 35.6103 28.196 35.569 28.1117 35.5105C28.0274 35.452 27.9555 35.3775 27.9002 35.2911C27.8448 35.2047 27.807 35.1082 27.7891 35.0072ZM31.875 41.7181C30.4523 40.6236 29.3202 39.1963 28.5781 37.5619C28.4952 37.3738 28.4897 37.1606 28.5628 36.9685C28.6359 36.7764 28.7818 36.6208 28.9689 36.5355C29.1559 36.4502 29.369 36.4421 29.562 36.5128C29.755 36.5836 29.9124 36.7275 30 36.9135C30.6363 38.3171 31.6074 39.5431 32.8281 40.4838C32.9903 40.6107 33.0957 40.7966 33.1212 41.0009C33.1468 41.2052 33.0905 41.4114 32.9647 41.5744C32.8389 41.7374 32.6536 41.844 32.4495 41.8709C32.2453 41.8978 32.0388 41.8429 31.875 41.7181Z" fill="white"/>
<path d="M37.0172 56.351H27.2516C26.8201 56.351 26.4703 56.7007 26.4703 57.1322V61.0385C26.4703 61.4699 26.8201 61.8197 27.2516 61.8197H37.0172C37.4487 61.8197 37.7984 61.4699 37.7984 61.0385V57.1322C37.7984 56.7007 37.4487 56.351 37.0172 56.351Z" fill="white"/>
<path d="M36.7356 55.5697H27.4466C27.2081 54.8177 27.0846 54.8912 20.1653 48.14C19.6216 47.6021 19.2725 46.8984 19.1731 46.14C18.5137 41.0715 18.6534 35.9309 19.5872 30.9057C19.6048 30.8127 19.6438 30.7252 19.7011 30.6499C19.7583 30.5746 19.8324 30.5138 19.9173 30.4721C20.0022 30.4304 20.0956 30.409 20.1902 30.4097C20.2848 30.4104 20.3779 30.433 20.4622 30.4759C21.7018 31.0574 22.6806 32.0796 23.2078 33.3434C23.7349 34.6071 23.7727 36.0218 23.3138 37.3119C23.1452 37.8114 23.1618 38.3548 23.3606 38.8431C23.4345 39.2131 23.539 39.5764 23.6731 39.9291C21.9758 40.2925 21.4818 42.578 22.8216 44.0853L26.7122 48.4759C26.8497 48.6287 27.0418 48.7211 27.247 48.7331C27.4522 48.745 27.6538 48.6756 27.8081 48.5398C27.9624 48.404 28.0569 48.2129 28.0711 48.0079C28.0854 47.8028 28.0181 47.6005 27.8841 47.4447L23.9856 43.0462C22.9544 41.8822 24.2981 40.1087 26.095 41.89C27.1809 42.9603 28.3137 43.9837 29.4231 45.0306C29.9109 45.5186 30.6501 45.4057 31.3684 45.5462C32.656 45.7854 33.8409 46.4092 34.7669 47.3353C37.1059 49.6596 36.7356 52.3771 36.7356 55.5697Z" fill="white"/>
<path d="M52.7484 56.351H42.9828C42.5513 56.351 42.2016 56.7007 42.2016 57.1322V61.0385C42.2016 61.4699 42.5513 61.8197 42.9828 61.8197H52.7484C53.1799 61.8197 53.5297 61.4699 53.5297 61.0385V57.1322C53.5297 56.7007 53.1799 56.351 52.7484 56.351Z" fill="white"/>
<path d="M43.2644 55.5697H52.5534C52.7919 54.8177 52.9154 54.8912 59.8347 48.14C60.3784 47.6021 60.7275 46.8984 60.8269 46.14C61.4863 41.0715 61.3466 35.9309 60.4128 30.9057C60.3952 30.8127 60.3562 30.7252 60.2989 30.6499C60.2416 30.5746 60.1676 30.5138 60.0827 30.4721C59.9978 30.4304 59.9044 30.409 59.8098 30.4097C59.7152 30.4104 59.6221 30.433 59.5378 30.4759C58.2982 31.0574 57.3194 32.0796 56.7922 33.3434C56.2651 34.6071 56.2273 36.0218 56.6862 37.3119C56.8548 37.8114 56.8382 38.3548 56.6394 38.8431C56.5655 39.2131 56.461 39.5764 56.3269 39.9291C58.0242 40.2925 58.5182 42.578 57.1784 44.0853L53.2878 48.4759C53.1503 48.6287 52.9582 48.7211 52.753 48.7331C52.5478 48.745 52.3462 48.6756 52.1919 48.5398C52.0376 48.404 51.9431 48.2129 51.9289 48.0079C51.9146 47.8028 51.9819 47.6005 52.1159 47.4447L56.0144 43.0462C57.0456 41.8822 55.7019 40.1087 53.905 41.89C52.8191 42.9603 51.6862 43.9837 50.5769 45.0306C50.0911 45.5166 49.329 45.4097 48.6316 45.5462C47.344 45.7854 46.1591 46.4092 45.2331 47.3353C42.8941 49.6596 43.2644 52.3771 43.2644 55.5697Z" fill="white"/>
<path d="M45.0938 36.2885C44.5856 37.3855 43.8445 38.3586 42.9219 39.14C41.9078 39.8815 41.0167 40.7778 40.2812 41.7963C39.5547 42.8197 39.8203 43.8588 39.3594 43.9603C38.8672 44.0619 37.9922 43.0306 37.7734 41.8666C37.4297 40.0385 38.9531 39.3119 38.5625 37.8978C38.1797 36.4994 36.5156 36.5385 35.8984 35.0072C35.375 33.7025 36.1953 33.4681 35.7344 32.1791C34.8125 29.64 30.0234 29.5463 29.1406 25.1166C30.26 23.5212 31.7179 22.1926 33.41 21.2257C35.1021 20.2587 36.9869 19.6773 38.9297 19.5228C38.7472 19.8598 38.6658 20.2423 38.6953 20.6244C38.8516 21.7025 40.1641 21.851 40.1875 22.5619C40.2109 23.6791 38.5234 24.6478 37.6562 24.8041C35.7109 25.1322 33.8828 25.2103 33.5156 25.8978C33.0469 26.765 33.875 27.7103 34.2734 28.0697C34.7734 28.5228 35.6406 30.101 37.1407 29.9916C38.0079 29.9291 38.4297 29.7025 39.086 29.9916C40.9532 30.7572 40.3516 30.3666 41.1329 30.515C41.8282 30.6322 42.1329 31.1088 42.8047 31.7025C43.3743 32.1873 43.9982 32.6041 44.6641 32.9447C46.4531 33.9447 45.3672 35.6947 45.0938 36.2885Z" fill="white"/>
<path d="M53.2734 33.1166L52.0156 32.3744C51.2031 32.1713 50.6953 33.0619 50.1484 32.8275C49.4766 32.5463 50.0313 31.1088 49.5313 28.476C49.2656 27.101 48.9531 26.6244 49.1875 25.7025C49.3395 25.1052 49.6499 24.56 50.0859 24.1244C52.2344 26.6184 53.3715 29.8262 53.2734 33.1166Z" fill="white"/>
</svg>
