<svg width="80" height="80" viewBox="0 0 80 80" fill="none" xmlns="http://www.w3.org/2000/svg">
<rect width="80" height="80" rx="10" fill="#CFA935"/>
<path d="M49.403 22.6996C41.953 15.2496 29.883 15.2496 22.443 22.6896C14.993 30.1396 14.993 42.2096 22.443 49.6596C29.883 57.0996 41.953 57.0996 49.403 49.6496C56.842 42.2096 56.842 30.1396 49.403 22.6996ZM45.583 45.8296C40.243 51.1696 31.593 51.1696 26.263 45.8396C20.923 40.4996 20.923 31.8496 26.263 26.5096C31.593 21.1796 40.243 21.1796 45.583 26.5196C50.912 31.8496 50.912 40.4996 45.583 45.8296Z" fill="white"/>
<path d="M62.403 60.0996L60.013 62.4796C59.023 63.4696 57.413 63.4696 56.423 62.4796L49.433 55.4496C49.013 55.0296 49.013 54.3496 49.433 53.9296L49.453 53.9096L48.193 52.6696C48.993 52.0796 49.743 51.4196 50.463 50.7096C51.183 49.9896 51.843 49.2296 52.413 48.4396L53.683 49.6896L53.893 49.4796C54.313 49.0596 54.993 49.0596 55.413 49.4796L62.403 56.5096C63.393 57.4996 63.393 59.1096 62.403 60.0996Z" fill="white"/>
<path d="M30.798 33.9906V40.4986C30.798 40.7336 30.607 40.9246 30.372 40.9246H27.129C26.894 40.9246 26.703 40.7336 26.703 40.4986V33.9906C26.703 33.7556 26.894 33.5646 27.129 33.5646H30.372C30.607 33.5646 30.798 33.7546 30.798 33.9906Z" fill="white"/>
<path d="M37.967 29.2406V40.4986C37.967 40.7336 37.776 40.9246 37.541 40.9246H34.298C34.063 40.9246 33.872 40.7336 33.872 40.4986V29.2406C33.872 29.0056 34.063 28.8146 34.298 28.8146H37.541C37.776 28.8146 37.967 29.0046 37.967 29.2406Z" fill="white"/>
<path d="M45.135 35.1156V40.4976C45.135 40.7326 44.944 40.9236 44.709 40.9236H41.466C41.231 40.9236 41.04 40.7326 41.04 40.4976V35.1156C41.04 34.8806 41.231 34.6896 41.466 34.6896H44.709C44.944 34.6896 45.135 34.8806 45.135 35.1156Z" fill="white"/>
</svg>
