<svg width="42" height="42" viewBox="0 0 42 42" fill="none" xmlns="http://www.w3.org/2000/svg">
<g clip-path="url(#clip0_3_328)">
<path d="M26.25 11.375C25.284 11.375 24.5 10.591 24.5 9.625V7H17.5V9.625C17.5 10.591 16.716 11.375 15.75 11.375C14.784 11.375 14 10.591 14 9.625V7C14 5.06975 15.5697 3.5 17.5 3.5H24.5C26.4303 3.5 28 5.06975 28 7V9.625C28 10.591 27.216 11.375 26.25 11.375Z" fill="#CDCECF"/>
<path d="M22.2425 26.915C21.9275 27.0375 21.4725 27.125 21 27.125C20.5275 27.125 20.0725 27.0375 19.6525 26.88L0 20.335V33.6875C0 36.3475 2.1525 38.5 4.8125 38.5H37.1875C39.8475 38.5 42 36.3475 42 33.6875V20.335L22.2425 26.915Z" fill="#CDCECF"/>
<path d="M42 13.5625V17.57L21.42 24.43C21.28 24.4825 21.14 24.5 21 24.5C20.86 24.5 20.72 24.4825 20.58 24.43L0 17.57V13.5625C0 10.9025 2.1525 8.75 4.8125 8.75H37.1875C39.8475 8.75 42 10.9025 42 13.5625Z" fill="#CDCECF"/>
</g>
<defs>
<clipPath id="clip0_3_328">
<rect width="42" height="42" fill="white"/>
</clipPath>
</defs>
</svg>
