<svg width="72" height="73" viewBox="0 0 72 73" fill="none" xmlns="http://www.w3.org/2000/svg">
<path d="M62.8695 2.75H9.1305C5.337 2.75 2.25 5.837 2.25 9.6305V51.6031C2.25 55.3966 5.337 58.4836 9.1305 58.4836H26.1562L24.9908 62.2175H24.5059C21.708 62.2175 19.431 64.4979 19.431 67.3014V69.1261C19.431 69.7471 19.9339 70.2511 20.556 70.2511H51.4429C52.065 70.2511 52.5679 69.7471 52.5679 69.1261V67.3014C52.5679 64.4979 50.292 62.2175 47.493 62.2175H47.0081L45.8426 58.4836H62.8684C66.6619 58.4836 69.7489 55.3966 69.7489 51.6031V9.6305C69.7489 5.83588 66.663 2.75 62.8695 2.75ZM9.1305 5H62.8695C65.4232 5 67.5 7.07788 67.5 9.6305V47.3214H4.5V9.6305C4.5 7.07675 6.57788 5 9.1305 5ZM50.319 67.3002V68H21.6821V67.3002C21.6821 65.7376 22.9489 64.4664 24.507 64.4664H47.4952C49.0534 64.4664 50.319 65.7376 50.319 67.3002ZM44.6512 62.2164H27.3476L28.5131 58.4825H43.4869L44.6524 62.2164H44.6512ZM62.8695 56.2336H44.3239C44.3239 56.2336 44.3171 56.2325 44.3138 56.2325H27.6874C27.6874 56.2325 27.6806 56.2336 27.6772 56.2336H9.1305C6.57675 56.2336 4.5 54.1569 4.5 51.6031V49.5725H67.5V51.6031C67.5 54.1569 65.4221 56.2336 62.8695 56.2336Z" fill="#CFA935"/>
<path d="M30.212 51.7437H29.2085C28.5864 51.7437 28.0835 52.2477 28.0835 52.8687C28.0835 53.4897 28.5864 53.9937 29.2085 53.9937H30.212C30.8341 53.9937 31.337 53.4897 31.337 52.8687C31.337 52.2477 30.8341 51.7437 30.212 51.7437Z" fill="#CFA935"/>
<path d="M36.4522 51.7437H35.4487C34.8266 51.7437 34.3237 52.2477 34.3237 52.8687C34.3237 53.4897 34.8266 53.9937 35.4487 53.9937H36.4522C37.0744 53.9937 37.5772 53.4897 37.5772 52.8687C37.5772 52.2477 37.0744 51.7437 36.4522 51.7437Z" fill="#CFA935"/>
<path d="M42.6937 51.7437H41.6902C41.0681 51.7437 40.5652 52.2477 40.5652 52.8687C40.5652 53.4897 41.0681 53.9937 41.6902 53.9937H42.6937C43.3158 53.9937 43.8187 53.4897 43.8187 52.8687C43.8187 52.2477 43.3158 51.7437 42.6937 51.7437Z" fill="#CFA935"/>
<path d="M8.24951 30.5261H11.0834C11.3286 31.3395 11.6549 32.1248 12.061 32.8763L10.0551 34.8821C9.84364 35.0936 9.72551 35.3794 9.72551 35.6775C9.72551 35.9756 9.84364 36.2625 10.0551 36.4729L13.6248 40.0425C13.8363 40.254 14.1209 40.3721 14.4201 40.3721C14.7194 40.3721 15.0051 40.254 15.2155 40.0425L17.2214 38.0366C17.9729 38.4416 18.7581 38.769 19.5726 39.0131V41.847C19.5726 42.468 20.0755 42.972 20.6976 42.972H25.7455C26.3676 42.972 26.8705 42.468 26.8705 41.847V39.0131C27.6839 38.7679 28.4703 38.4416 29.2206 38.0366L31.2265 40.0425C31.6484 40.4644 32.3954 40.4644 32.8173 40.0425L36.3869 36.4729C36.5984 36.2614 36.7165 35.9756 36.7165 35.6775C36.7165 35.3794 36.5984 35.0925 36.3869 34.8821L34.381 32.8763C34.7871 32.1248 35.1134 31.3384 35.3586 30.5261H38.1925C38.8146 30.5261 39.3175 30.0221 39.3175 29.4011V24.3533C39.3175 23.7323 38.8146 23.2283 38.1925 23.2283H35.3586C35.1134 22.4149 34.7871 21.6296 34.381 20.877L36.3869 18.8711C36.5984 18.6596 36.7165 18.3739 36.7165 18.0758C36.7165 17.7776 36.5984 17.4908 36.3869 17.2804L32.8173 13.7108C32.6058 13.4993 32.3211 13.3811 32.0219 13.3811C31.7226 13.3811 31.4369 13.4993 31.2265 13.7108L29.2206 15.7166C28.4703 15.3116 27.6839 14.9854 26.8705 14.7401V11.9063C26.8705 11.2853 26.3676 10.7812 25.7455 10.7812H20.6976C20.0755 10.7812 19.5726 11.2853 19.5726 11.9063V14.7401C18.7581 14.9843 17.9729 15.3116 17.2214 15.7166L15.2155 13.7108C14.7936 13.2889 14.0466 13.2889 13.6248 13.7108L10.0551 17.2804C9.84364 17.4919 9.72551 17.7776 9.72551 18.0758C9.72551 18.3739 9.84364 18.6608 10.0551 18.8711L12.061 20.877C11.6549 21.6285 11.3286 22.4149 11.0834 23.2283H8.24951C7.62739 23.2283 7.12451 23.7323 7.12451 24.3533V29.4011C7.12451 30.0221 7.62739 30.5261 8.24951 30.5261ZM9.37451 25.4783H11.9508C12.4784 25.4783 12.934 25.1126 13.0488 24.5985C13.3086 23.4319 13.771 22.3215 14.4201 21.2989C14.7036 20.8534 14.6384 20.2729 14.266 19.9005L12.4413 18.0758L14.4201 16.0969L16.2449 17.9216C16.6195 18.2951 17.2 18.3581 17.6433 18.0758C18.6636 17.4278 19.774 16.9665 20.9429 16.7055C21.457 16.5908 21.8226 16.134 21.8226 15.6075V13.0313H24.6205V15.6075C24.6205 16.134 24.9861 16.5908 25.5003 16.7055C26.668 16.9665 27.7773 17.4278 28.7988 18.0758C29.2431 18.3581 29.8236 18.2951 30.1971 17.9216L32.0219 16.0969L34.0008 18.0758L32.176 19.9005C31.8036 20.2729 31.7384 20.8545 32.0219 21.2989C32.671 22.3215 33.1323 23.4319 33.3933 24.5985C33.508 25.1126 33.9636 25.4783 34.4913 25.4783H37.0675V28.2761H34.4913C33.9636 28.2761 33.508 28.6418 33.3933 29.1559C33.1334 30.3225 32.671 31.4318 32.0219 32.4544C31.7384 32.8999 31.8036 33.4804 32.176 33.8528L34.0008 35.6775L32.0219 37.6564L30.1971 35.8316C29.8236 35.457 29.242 35.3963 28.7988 35.6775C27.7784 36.3255 26.668 36.7868 25.5003 37.0478C24.9861 37.1625 24.6205 37.6193 24.6205 38.1458V40.722H21.8226V38.1458C21.8226 37.6193 21.457 37.1625 20.9429 37.0478C19.774 36.7868 18.6648 36.3255 17.6433 35.6775C17.1989 35.3963 16.6195 35.4581 16.2449 35.8316L14.4201 37.6564L12.4413 35.6775L14.266 33.8528C14.6384 33.4804 14.7036 32.8988 14.4201 32.4544C13.771 31.4318 13.3098 30.3225 13.0488 29.1559C12.934 28.6418 12.4784 28.2761 11.9508 28.2761H9.37451V25.4783Z" fill="white"/>
<path d="M23.2212 34.3456C27.3398 34.3456 30.6912 30.9942 30.6912 26.8767C30.6912 22.7592 27.3398 19.4067 23.2212 19.4067C19.1026 19.4067 15.7512 22.7581 15.7512 26.8767C15.7512 30.9954 19.1026 34.3456 23.2212 34.3456ZM23.2212 21.6579C26.1001 21.6579 28.4412 24.0001 28.4412 26.8779C28.4412 29.7556 26.1001 32.0967 23.2212 32.0967C20.3423 32.0967 18.0012 29.7556 18.0012 26.8779C18.0012 24.0001 20.3423 21.6579 23.2212 21.6579Z" fill="white"/>
<path d="M41.2617 27.0004H43.1843C43.3441 27.4931 43.5421 27.9712 43.7795 28.4336L42.4193 29.7937C41.9795 30.2336 41.9795 30.9446 42.4193 31.3845L45.1002 34.0653C45.3117 34.2768 45.5963 34.395 45.8956 34.395C46.1948 34.395 46.4806 34.2768 46.691 34.0653L48.0511 32.7052C48.5146 32.9426 48.9927 33.1417 49.4843 33.3015V35.223C49.4843 35.844 49.9872 36.348 50.6093 36.348H54.4017C55.0238 36.348 55.5267 35.844 55.5267 35.223V33.3015C56.0195 33.1417 56.4965 32.9426 56.96 32.7052L58.3201 34.0653C58.742 34.4872 59.489 34.4872 59.9108 34.0653L62.5917 31.3845C63.0316 30.9446 63.0316 30.2336 62.5917 29.7937L61.2316 28.4336C61.469 27.9712 61.6681 27.492 61.8267 27.0004H63.7493C64.3715 27.0004 64.8743 26.4964 64.8743 25.8754V22.083C64.8743 21.462 64.3715 20.958 63.7493 20.958H61.8267C61.667 20.4652 61.469 19.9871 61.2316 19.5247L62.5917 18.1646C63.0316 17.7247 63.0316 17.0137 62.5917 16.5739L59.9108 13.893C59.489 13.4711 58.742 13.4711 58.3201 13.893L56.96 15.2531C56.4976 15.0169 56.0183 14.8177 55.5267 14.658V12.7354C55.5267 12.1144 55.0238 11.6104 54.4017 11.6104H50.6093C49.9872 11.6104 49.4843 12.1144 49.4843 12.7354V14.658C48.9916 14.8177 48.5135 15.0169 48.0511 15.2531L46.691 13.893C46.2691 13.4711 45.5221 13.4711 45.1002 13.893L42.4193 16.5739C41.9795 17.0137 41.9795 17.7247 42.4193 18.1646L43.7795 19.5247C43.5421 19.9871 43.343 20.4664 43.1843 20.958H41.2617C40.6396 20.958 40.1367 21.462 40.1367 22.083V25.8754C40.1367 26.4964 40.6396 27.0004 41.2617 27.0004ZM42.3867 23.208H44.0427C44.5703 23.208 45.026 22.8424 45.1407 22.3271C45.3297 21.4822 45.6638 20.6779 46.133 19.9399C46.4165 19.4944 46.3512 18.9127 45.9788 18.5404L44.8066 17.3681L45.8967 16.278L47.069 17.4502C47.4425 17.8237 48.0241 17.8856 48.4673 17.6044C49.2065 17.1352 50.0097 16.8011 50.8557 16.6121C51.3698 16.4974 51.7355 16.0406 51.7355 15.5141V13.8592H53.2778V15.5141C53.2778 16.0406 53.6435 16.4974 54.1576 16.6121C55.0036 16.8011 55.8068 17.1352 56.546 17.6044C56.9903 17.8856 57.5697 17.8237 57.9443 17.4502L59.1166 16.278L60.2067 17.3681L59.0345 18.5404C58.6621 18.9127 58.5968 19.4944 58.8803 19.9399C59.3495 20.6779 59.6836 21.4822 59.8726 22.3271C59.9873 22.8424 60.443 23.208 60.9706 23.208H62.6266V24.7504H60.9706C60.443 24.7504 59.9873 25.116 59.8726 25.6312C59.6836 26.4761 59.3495 27.2805 58.8803 28.0185C58.5968 28.464 58.6621 29.0456 59.0345 29.418L60.2067 30.5902L59.1166 31.6804L57.9443 30.5081C57.5697 30.1346 56.9892 30.0727 56.546 30.354C55.8057 30.8242 55.0013 31.1583 54.1576 31.3462C53.6435 31.461 53.2778 31.9177 53.2778 32.4442V34.0991H51.7355V32.4442C51.7355 31.9177 51.3698 31.461 50.8557 31.3462C50.012 31.1583 49.2076 30.8242 48.4673 30.354C48.023 30.0727 47.4425 30.1346 47.069 30.5081L45.8967 31.6804L44.8066 30.5902L45.9788 29.418C46.3512 29.0456 46.4165 28.464 46.133 28.0185C45.6638 27.2805 45.3297 26.4761 45.1407 25.6312C45.026 25.116 44.5703 24.7504 44.0427 24.7504H42.3867V23.208Z" fill="white"/>
<path d="M52.5061 29.5362C55.5706 29.5362 58.0625 27.0432 58.0625 23.9799C58.0625 20.9165 55.5695 18.4224 52.5061 18.4224C49.4427 18.4224 46.9497 20.9154 46.9497 23.9799C46.9497 27.0444 49.4427 29.5362 52.5061 29.5362ZM52.5061 20.6724C54.3297 20.6724 55.8125 22.1562 55.8125 23.9799C55.8125 25.8035 54.3297 27.2862 52.5061 27.2862C50.6825 27.2862 49.1997 25.8024 49.1997 23.9799C49.1997 22.1574 50.6825 20.6724 52.5061 20.6724Z" fill="white"/>
</svg>
