<svg width="42" height="42" viewBox="0 0 42 42" fill="none" xmlns="http://www.w3.org/2000/svg">
<path d="M36.6977 32.2C37.4806 31.4173 37.8782 30.4296 37.8475 29.3438L37.5636 19.3241C37.5343 18.2873 36.4986 17.3565 35.3863 17.377C34.8518 17.3856 33.1091 17.6705 33.1217 20.9762L33.1424 26.4191C33.1427 26.4838 33.1406 26.5475 33.1363 26.6103C33.1283 26.6021 33.1204 26.5941 33.1123 26.5859C32.3655 25.8391 31.1429 25.829 30.3291 26.5626C30.3071 26.5824 30.2865 26.6037 30.2674 26.6262C29.3934 27.6597 28.3171 28.5667 27.4523 29.2955C27.148 29.5519 26.8606 29.7942 26.6241 30.0074C25.6141 30.9177 25.4792 32.1645 25.4806 33.2639L25.4853 37.066L25.0568 37.0623C25.0528 37.0623 25.0488 37.0623 25.0449 37.0623C24.3066 37.0623 23.7028 37.6597 23.6964 38.3995L23.6835 39.9156C23.6771 40.6591 24.2768 41.2695 25.0206 41.276L32.8971 41.3436H32.909C33.6472 41.3436 34.251 40.7463 34.2574 40.0065L34.2704 38.4903C34.2768 37.7467 33.677 37.1364 32.9332 37.13L32.358 37.1251V36.5399L36.6977 32.2ZM32.9578 38.479L32.9448 39.9952C32.9448 39.9986 32.9447 40.009 32.9334 40.0201C32.9221 40.0313 32.9122 40.032 32.9082 40.0311L25.0318 39.9635C25.0131 39.9634 24.9957 39.9456 24.9959 39.9269L25.0089 38.4108C25.009 38.3925 25.0269 38.3749 25.045 38.3749L32.9218 38.4426C32.9401 38.4427 32.9579 38.4606 32.9578 38.479ZM26.7977 37.0772L26.793 33.2623C26.7916 32.0984 26.9972 31.4379 27.5028 30.9822C27.723 30.7836 27.9896 30.5591 28.298 30.2991C29.1901 29.5473 30.2977 28.6137 31.2363 27.5127C31.5335 27.2667 31.9353 27.2651 32.1841 27.514C32.2834 27.6133 32.5826 27.9139 32.18 28.4613C31.7193 28.9787 31.2342 29.4487 30.7209 29.9454C30.4731 30.1851 30.217 30.4329 29.9585 30.6915C29.7023 30.9478 29.7023 31.3633 29.9586 31.6195C30.0868 31.7477 30.2547 31.8117 30.4226 31.8117C30.5906 31.8117 30.7585 31.7477 30.8867 31.6195C31.1376 31.3685 31.3897 31.1245 31.6335 30.8885C32.1733 30.3662 32.6831 29.8728 33.1834 29.3083C33.1863 29.3051 33.1977 29.2917 33.2007 29.2881L33.5758 28.8287C34.1705 28.0965 34.458 27.3068 34.4548 26.414L34.434 20.9711C34.4288 19.5733 34.8016 18.6989 35.4071 18.6892C35.8304 18.6826 36.243 19.062 36.2514 19.361L36.5353 29.3807C36.5558 30.107 36.2982 30.7431 35.7696 31.2717L31.2375 35.8038C31.1144 35.9269 31.0453 36.0938 31.0453 36.2678V37.1136L26.7977 37.0772ZM25.4961 39.0028C25.5922 38.761 25.8662 38.6429 26.108 38.739C26.3498 38.8352 26.4679 39.1091 26.3717 39.3509C26.2756 39.5927 26.0017 39.7108 25.7599 39.6146C25.5181 39.5185 25.4 39.2446 25.4961 39.0028ZM16.955 37.0623C16.9511 37.0623 16.9472 37.0623 16.9434 37.0623L16.5147 37.066L16.5194 33.2639C16.5208 32.1645 16.3859 30.9176 15.3759 30.0074C15.1394 29.7942 14.852 29.5519 14.5477 29.2955C13.6829 28.5667 12.6066 27.6597 11.7326 26.6262C11.7135 26.6037 11.6929 26.5824 11.6709 26.5626C10.8572 25.8289 9.63465 25.8391 8.88767 26.5859C8.87963 26.5941 8.87168 26.6022 8.86372 26.6103C8.85929 26.5476 8.85732 26.4839 8.85757 26.4192L8.87832 20.9762C8.89079 17.6705 7.14812 17.3856 6.61376 17.3771C6.60318 17.3769 6.59276 17.3768 6.58226 17.3768C5.48395 17.3768 4.46537 18.2972 4.43641 19.3241L4.1525 29.3438C4.12182 30.4296 4.51942 31.4173 5.30217 32.2L9.64203 36.5398V37.125L9.06675 37.1299C8.32313 37.1363 7.72324 37.7466 7.72964 38.4902L7.74268 40.0065C7.74908 40.7463 8.35283 41.3436 9.09111 41.3435H9.10292L16.9796 41.2759C17.7232 41.2695 18.323 40.6592 18.3166 39.9156L18.3036 38.3993C18.2972 37.6597 17.6933 37.0623 16.955 37.0623ZM10.9545 36.268C10.9545 36.0939 10.8854 35.9271 10.7623 35.804L6.23019 31.2719C5.70166 30.7434 5.444 30.1071 5.46451 29.3809L5.74842 19.3612C5.75678 19.0647 6.16054 18.6893 6.58136 18.6893C6.58514 18.6893 6.58891 18.6894 6.59268 18.6894C7.19824 18.6991 7.57115 19.5734 7.56582 20.9712L7.54507 26.4142C7.5417 27.3068 7.82922 28.0966 8.4251 28.8302L8.79924 29.2882C8.80219 29.2918 8.8136 29.3052 8.81647 29.3084C9.31678 29.8729 9.82652 30.3663 10.3664 30.8886C10.6102 31.1246 10.8624 31.3687 11.1133 31.6195C11.2414 31.7477 11.4093 31.8118 11.5773 31.8118C11.7452 31.8118 11.9132 31.7478 12.0413 31.6196C12.2976 31.3634 12.2976 30.9479 12.0414 30.6916C11.7829 30.433 11.5268 30.1851 11.279 29.9455C10.7657 29.4487 10.2806 28.9788 9.81987 28.4614C9.41735 27.914 9.71652 27.6134 9.81586 27.5141C10.0646 27.2653 10.4663 27.2669 10.7636 27.5127C11.7022 28.6138 12.8098 29.5474 13.7019 30.2992C14.0104 30.5592 14.277 30.7837 14.4972 30.9823C15.0027 31.438 15.2083 32.0985 15.2069 33.2624L15.2022 37.0773L10.9544 37.1138L10.9545 36.268ZM16.9683 39.9635L9.09168 40.0311C9.07347 40.0311 9.05543 40.0134 9.05526 39.9952L9.04222 38.4789C9.04214 38.4756 9.04205 38.4651 9.05321 38.4539C9.06437 38.4425 9.07478 38.4424 9.07815 38.4424L16.9547 38.3747C16.973 38.3747 16.991 38.3925 16.9912 38.4107L17.0042 39.9269C17.0043 39.9452 16.9865 39.9634 16.9683 39.9635ZM16.5039 39.0028C16.6 39.2446 16.4819 39.5185 16.2401 39.6146C15.9983 39.7108 15.7244 39.5927 15.6283 39.3509C15.5321 39.1091 15.6502 38.8352 15.892 38.739C16.1338 38.6429 16.4077 38.761 16.5039 39.0028ZM22.214 22.5867L24.6236 27.7624C24.7587 28.0525 25.041 28.2418 25.3605 28.2563C25.3737 28.2569 25.3869 28.2572 25.4 28.2572C25.7046 28.2572 25.9853 28.0965 26.1395 27.8313L27.4528 25.5712L30.0279 26.0212C30.3431 26.076 30.66 25.9527 30.8546 25.6987C31.0492 25.4448 31.086 25.1068 30.951 24.8168L28.4506 19.4463C28.5852 19.3883 28.7361 19.3246 28.9079 19.2523C29.0882 19.1762 29.289 19.0917 29.514 18.9953C30.7067 18.4844 31.4045 17.2756 31.2505 15.9875C31.2214 15.7445 31.1943 15.5283 31.17 15.3341C31.0717 14.5504 31.0223 14.1571 31.0762 13.8513C31.1301 13.5456 31.311 13.1929 31.6714 12.4901C31.7608 12.316 31.8602 12.122 31.9706 11.9035C32.5559 10.7457 32.3135 9.3712 31.3674 8.48321C31.189 8.3157 31.0293 8.16747 30.8858 8.03441C30.3067 7.49719 30.0161 7.22764 29.8609 6.95882C29.7056 6.69009 29.6175 6.30355 29.4419 5.53361C29.3984 5.3428 29.3499 5.13026 29.294 4.89196C28.9981 3.62876 27.9289 2.7315 26.6334 2.6594C26.389 2.64578 26.1714 2.63495 25.9759 2.62519C25.1871 2.5859 24.7912 2.56621 24.4995 2.46006C24.2077 2.35383 23.8918 2.11446 23.2622 1.63754C23.1062 1.51941 22.9324 1.38775 22.7365 1.24108C21.698 0.463586 20.3022 0.463586 19.2634 1.24108C19.0674 1.38775 18.8937 1.51941 18.7377 1.63754C18.1081 2.11446 17.7922 2.35383 17.5005 2.46006C17.2088 2.56621 16.8129 2.5859 16.0241 2.62519C15.8286 2.63495 15.611 2.64578 15.3666 2.6594C14.0711 2.7315 13.0019 3.62868 12.706 4.89188C12.6501 5.13026 12.6017 5.3428 12.5581 5.53361C12.3824 6.30355 12.2943 6.69009 12.1391 6.95882C11.9839 7.22764 11.6932 7.49719 11.1142 8.03441C10.9707 8.16747 10.811 8.3157 10.6326 8.48321C9.68657 9.3712 9.44417 10.7457 10.0294 11.9036C10.1399 12.122 10.2393 12.316 10.3286 12.4901C10.689 13.1929 10.8699 13.5456 10.9238 13.8513C10.9776 14.1571 10.9283 14.5504 10.8299 15.3341C10.8056 15.5283 10.7785 15.7444 10.7495 15.9875C10.5956 17.2757 11.2934 18.4844 12.4861 18.9953C12.7111 19.0917 12.9119 19.1763 13.0923 19.2524C13.264 19.3247 13.4149 19.3884 13.5493 19.4463L11.0489 24.8171C10.9139 25.1072 10.9511 25.4452 11.1457 25.6989C11.3402 25.9527 11.6571 26.0759 11.9723 26.0212L14.5473 25.5712L15.8605 27.8313C16.0147 28.0965 16.2954 28.2572 16.6 28.2572C16.6131 28.2572 16.6263 28.2569 16.6395 28.2563C16.9591 28.2417 17.2416 28.0524 17.3763 27.7624L19.7845 22.5901C20.3556 22.4214 20.7024 22.3354 20.9929 22.3302C21.2963 22.3243 21.6348 22.4118 22.214 22.5867ZM27.2282 24.1996C26.9573 24.1524 26.686 24.2787 26.5479 24.5163L25.4443 26.4153L23.8414 22.9723C23.869 22.9731 23.8966 22.9753 23.9241 22.9753C24.8811 22.9753 25.7886 22.4996 26.3371 21.6609C26.4711 21.456 26.5893 21.2729 26.6954 21.1086C26.9809 20.6666 27.1715 20.3717 27.3372 20.1648L29.3918 24.5777L27.2282 24.1996ZM16.5557 26.4154L15.4522 24.5164C15.3141 24.2788 15.0426 24.1525 14.7719 24.1997L12.6082 24.5777L14.6627 20.1649C14.8285 20.3718 15.0191 20.6667 15.3046 21.1088C15.4108 21.2732 15.5289 21.4562 15.6629 21.661C16.227 22.5237 17.171 23.0018 18.158 22.9737L16.5557 26.4154ZM18.823 21.5087L18.5469 21.5924C17.8571 21.8011 17.156 21.546 16.7614 20.9425C16.629 20.7402 16.5121 20.5592 16.4073 20.3968C15.4067 18.8472 15.3018 18.7592 13.6021 18.043C13.4238 17.9678 13.2253 17.8842 13.0029 17.7889C12.3402 17.505 11.9672 16.8591 12.0528 16.1433C12.0815 15.9031 12.1083 15.6895 12.1324 15.4975C12.362 13.6673 12.3382 13.5325 11.4966 11.8912C11.4083 11.7191 11.3101 11.5274 11.2009 11.3115C10.8757 10.6681 11.0052 9.9336 11.5308 9.44018C11.7072 9.27464 11.8651 9.12814 12.0069 8.99664C13.3591 7.74222 13.4275 7.62368 13.8378 5.82564C13.8808 5.63697 13.9287 5.42697 13.9839 5.19129C14.1483 4.48935 14.7198 4.01004 15.4395 3.96985C15.681 3.95648 15.8961 3.94573 16.0894 3.93613C17.9315 3.84442 18.0602 3.79758 19.5303 2.68368C19.6845 2.56687 19.8562 2.43677 20.0499 2.29182C20.3386 2.07583 20.6692 1.96788 21 1.96788C21.3307 1.96788 21.6614 2.07583 21.95 2.29182C22.1437 2.43685 22.3154 2.56695 22.4696 2.68368C23.9398 3.7975 24.0685 3.84434 25.9106 3.93613C26.1038 3.94573 26.319 3.95648 26.5605 3.96985C27.2802 4.00996 27.8517 4.48935 28.016 5.19137C28.0713 5.42697 28.1192 5.63705 28.1621 5.82564C28.5725 7.62368 28.6409 7.74222 29.9931 8.99664C30.1349 9.12822 30.2927 9.27473 30.4691 9.44018C30.9948 9.9336 31.1243 10.6681 30.7991 11.3115C30.6899 11.5275 30.5917 11.7192 30.5034 11.8913C29.6618 13.5325 29.638 13.6673 29.8676 15.4975C29.8916 15.6895 29.9184 15.9031 29.9471 16.1434C30.0327 16.8591 29.6598 17.505 28.9971 17.7889C28.7748 17.8841 28.5763 17.9677 28.3981 18.0428C26.6982 18.7591 26.5934 18.8471 25.5928 20.3967C25.4878 20.5591 25.371 20.7402 25.2386 20.9425C24.844 21.5459 24.1432 21.8009 23.4531 21.5924C23.2743 21.5384 23.1109 21.4882 22.9604 21.4421C21.0671 20.8617 20.9511 20.8637 18.823 21.5087ZM21.0057 19.5147C20.7374 19.5147 20.4667 19.5007 20.194 19.4719C19.1439 19.3615 18.1409 19.0413 17.2351 18.5329C17.1613 18.7123 17.0096 18.8576 16.8085 18.915C16.7484 18.9322 16.6877 18.9404 16.6281 18.9404C16.3425 18.9404 16.0797 18.7525 15.9975 18.464L15.641 17.2148C15.5855 17.0208 15.6225 16.8121 15.7411 16.6489C15.8598 16.4858 16.0469 16.3862 16.2485 16.3789L17.5468 16.3323C17.9098 16.3229 18.2132 16.6024 18.2262 16.9646C18.2332 17.161 18.1528 17.3398 18.0204 17.4649C18.7336 17.8415 19.5151 18.0808 20.3315 18.1667C20.5574 18.1905 20.7824 18.2022 21.0048 18.2022C24.2285 18.2025 27.0057 15.7605 27.3504 12.4848C27.4935 11.1262 27.2069 9.78586 26.5216 8.6088C26.3392 8.2956 26.4452 7.89381 26.7585 7.71154C27.0719 7.52902 27.4735 7.63525 27.6558 7.94845C28.4825 9.36824 28.8282 10.9844 28.6557 12.6223C28.2401 16.5708 24.8917 19.5147 21.0057 19.5147ZM15.4785 15.0238C15.6608 15.337 15.5547 15.7388 15.2414 15.9211C15.1376 15.9814 15.024 16.0102 14.9119 16.0102C14.6859 16.0102 14.466 15.8934 14.3441 15.684C13.5176 14.2641 13.1718 12.6479 13.3442 11.0103C13.5594 8.96522 14.5582 7.12649 16.1564 5.83278C17.7545 4.53906 19.7607 3.94499 21.8059 4.16032C22.8567 4.27098 23.859 4.59156 24.7646 5.09999C24.8382 4.92026 24.9902 4.77466 25.1915 4.71715C25.5398 4.61765 25.9032 4.81961 26.0026 5.16824L26.359 6.4175C26.4144 6.61142 26.3774 6.82011 26.2588 6.98327C26.1402 7.14643 25.953 7.24601 25.7514 7.25331L24.4532 7.29991C24.4451 7.30015 24.4372 7.30032 24.4292 7.30032C24.0776 7.30032 23.7865 7.02174 23.7738 6.66761C23.7667 6.47114 23.8473 6.29232 23.9799 6.16714C23.2668 5.79053 22.4854 5.55149 21.6684 5.46552C19.9717 5.28702 18.3078 5.77962 16.9821 6.85275C15.6564 7.92597 14.828 9.45118 14.6494 11.1475C14.5066 12.5063 14.7932 13.8466 15.4785 15.0238ZM25.8379 13.0514C26.0913 12.954 26.2584 12.7105 26.2584 12.439V11.1933C26.2584 10.9218 26.0913 10.6784 25.8379 10.5808L25.3825 10.4055C25.3061 10.168 25.2104 9.93705 25.0962 9.71482L25.2944 9.26866C25.4046 9.02059 25.3507 8.73028 25.1587 8.53825L24.2779 7.65756C24.0858 7.46569 23.7957 7.4118 23.5475 7.52188L23.101 7.72023C22.8788 7.60596 22.6481 7.51032 22.4107 7.43403L22.2353 6.97843C22.1378 6.72503 21.8944 6.55785 21.6229 6.55785H20.3772C20.1057 6.55785 19.8623 6.72503 19.7648 6.97834L19.5893 7.43403C19.3518 7.51048 19.1212 7.60605 18.899 7.72023L18.4525 7.52188C18.2044 7.41155 17.9141 7.46553 17.7221 7.65756L16.8413 8.53833C16.6494 8.73037 16.5955 9.02068 16.7057 9.26874L16.9039 9.71515C16.7897 9.93729 16.6941 10.168 16.6177 10.4055L16.1622 10.5809C15.9089 10.6784 15.7417 10.9218 15.7417 11.1934V12.4391C15.7417 12.7106 15.9089 12.954 16.1622 13.0515L16.6176 13.2268C16.694 13.4644 16.7897 13.6952 16.9038 13.9174L16.7057 14.3637C16.5955 14.6118 16.6494 14.9022 16.8414 15.0941L17.7223 15.9749C17.9142 16.1667 18.2044 16.2206 18.4526 16.1106L18.8991 15.9123C19.1212 16.0265 19.3519 16.122 19.5893 16.1984L19.7648 16.6541C19.8622 16.9074 20.1057 17.0746 20.3772 17.0746H21.6229C21.8944 17.0746 22.1378 16.9074 22.2353 16.6541L22.4106 16.1987C22.6482 16.1222 22.879 16.0266 23.1013 15.9124L23.5475 16.1106C23.7957 16.2209 24.0858 16.1667 24.2779 15.9749L25.1587 15.0941C25.3506 14.9021 25.4045 14.6118 25.2943 14.3637L25.0961 13.9172C25.2103 13.6951 25.3059 13.4644 25.3823 13.2269L25.8379 13.0514ZM24.9459 11.9885L24.6039 12.1201C24.4018 12.1978 24.2512 12.3702 24.2012 12.5807C24.1206 12.919 23.987 13.2413 23.804 13.5385C23.6905 13.7227 23.6752 13.9511 23.763 14.1489L23.9119 14.4845L23.6684 14.7282L23.333 14.5793C23.1354 14.4914 22.9069 14.5067 22.7227 14.6202C22.4253 14.8033 22.1029 14.9369 21.7644 15.0176C21.554 15.0676 21.3816 15.2182 21.3039 15.4202L21.1723 15.7622H20.8279L20.6962 15.4199C20.6185 15.218 20.4461 15.0674 20.2357 15.0173C19.8973 14.9368 19.575 14.8031 19.2778 14.6201C19.0933 14.5066 18.865 14.4913 18.6674 14.5792L18.3318 14.7282L18.0881 14.4845L18.237 14.1493C18.3248 13.9515 18.3095 13.7232 18.1961 13.5389C18.0131 13.2416 17.8794 12.9191 17.7987 12.5805C17.7487 12.37 17.598 12.1977 17.3961 12.1201L17.0542 11.9885V11.644L17.3963 11.5124C17.5982 11.4347 17.7489 11.2623 17.7989 11.0519C17.8794 10.7134 18.0131 10.391 18.1961 10.094C18.3096 9.90973 18.3249 9.68127 18.2371 9.4835L18.0881 9.14791L18.3317 8.90436L18.6673 9.05332C18.8649 9.14118 19.0933 9.12592 19.2776 9.01239C19.575 8.82946 19.8973 8.69583 20.2357 8.6152C20.4461 8.56516 20.6185 8.41455 20.6962 8.21259L20.8279 7.87035H21.1723L21.3039 8.2125C21.3816 8.41446 21.554 8.56516 21.7644 8.6152C22.1027 8.69567 22.4251 8.8293 22.7225 9.01239C22.9067 9.12592 23.1352 9.14118 23.3328 9.05332L23.6684 8.90436L23.9119 9.14791L23.7631 9.48325C23.6753 9.68103 23.6905 9.9094 23.8041 10.0937C23.9871 10.3909 24.1207 10.7133 24.2013 11.0519C24.2514 11.2624 24.402 11.4348 24.604 11.5125L24.9459 11.644V11.9885ZM21 8.98754C19.4403 8.98754 18.1714 10.2565 18.1714 11.8161C18.1714 13.3758 19.4403 14.6447 21 14.6447C22.5597 14.6447 23.8286 13.3758 23.8286 11.8161C23.8286 10.2565 22.5597 8.98754 21 8.98754ZM21 13.3323C20.164 13.3323 19.4839 12.6522 19.4839 11.8162C19.4839 10.9802 20.164 10.3001 21 10.3001C21.836 10.3001 22.5161 10.9802 22.5161 11.8162C22.5161 12.6522 21.836 13.3323 21 13.3323Z" fill="white"/>
</svg>
