<svg width="42" height="42" viewBox="0 0 42 42" fill="none" xmlns="http://www.w3.org/2000/svg">
<path d="M20.5645 7.88656H22.7425C23.6036 7.87364 23.606 6.58781 22.7425 6.57406H21.6563C21.7043 6.09846 21.553 5.62647 21 5.60828C20.6376 5.60828 20.3438 5.90179 20.3438 6.26452V6.59637C17.9173 6.9133 18.1108 10.4495 20.5646 10.5C20.5645 10.5 21.4355 10.5 21.4355 10.5C22.2902 10.5144 22.2909 11.7863 21.4354 11.801H19.2575C18.3964 11.8139 18.3941 13.0997 19.2575 13.1135C19.2575 13.1135 20.3438 13.1135 20.3438 13.1135C20.2957 13.5891 20.447 14.0611 21 14.0793C21.3624 14.0793 21.6563 13.7858 21.6563 13.423V13.0912C24.0827 12.7742 23.8893 9.23807 21.4354 9.18752H20.5645C19.7098 9.17312 19.7091 7.90121 20.5645 7.88656Z" fill="white"/>
<path d="M33.9327 15.2988C33.6764 15.0425 33.2611 15.0425 33.0048 15.2988L27.7548 20.5488C27.567 20.7366 27.5109 21.0186 27.6125 21.264C27.7141 21.5095 27.9534 21.6691 28.2188 21.6691H30.6271V23.3167C30.6426 24.1796 31.9247 24.1794 31.9396 23.3167V21.0128C31.9396 20.6501 31.6458 20.3566 31.2834 20.3566H29.803L33.4688 16.6908L37.1345 20.3566H35.6605C35.2981 20.3566 35.0043 20.6501 35.0043 21.0128V38.7187C35.0142 39.5693 36.3021 39.5908 36.3168 38.7187V21.6691H38.7188C39.2843 21.6887 39.5983 20.9359 39.1827 20.5488C39.1827 20.5488 33.9327 15.2988 33.9327 15.2988Z" fill="white"/>
<path d="M11.3729 23.3167V21.6691H13.7812C14.3468 21.6887 14.6608 20.9359 14.2452 20.5488C14.2452 20.5488 8.99524 15.2988 8.99524 15.2988C8.7389 15.0425 8.32361 15.0425 8.06727 15.2988L2.81727 20.5488C2.40426 20.9368 2.71317 21.6879 3.28129 21.669C3.28126 21.6691 5.68324 21.6691 5.68324 21.6691V38.7187C5.68324 39.0815 5.97707 39.375 6.33949 39.375C6.7019 39.375 6.99574 39.0815 6.99574 38.7187V21.0128C6.99574 20.6501 6.7019 20.3566 6.33949 20.3566H4.86549L8.53126 16.6908L12.197 20.3566H10.7166C10.3542 20.3566 10.0604 20.6501 10.0604 21.0128V23.3167C10.0739 24.1788 11.359 24.1795 11.3729 23.3167Z" fill="white"/>
<path d="M29.5312 25.5938H25.5938V23.625C25.5938 22.5394 24.7106 21.6562 23.625 21.6562H18.375C17.2894 21.6562 16.4062 22.5394 16.4062 23.625V25.5938H12.4688C11.3831 25.5938 10.5 26.4769 10.5 27.5625V37.4062C10.5 38.4919 11.3831 39.375 12.4688 39.375H29.5312C30.6169 39.375 31.5 38.4919 31.5 37.4062V27.5625C31.5 26.4769 30.6169 25.5938 29.5312 25.5938ZM17.7188 23.625C17.7188 23.2629 18.0132 22.9688 18.375 22.9688H23.625C23.9868 22.9688 24.2812 23.2629 24.2812 23.625V25.5938H17.7188V23.625ZM30.1875 37.4062C30.1875 37.7683 29.893 38.0625 29.5312 38.0625H12.4688C12.107 38.0625 11.8125 37.7683 11.8125 37.4062V30.8438H18.7031V32.4844C18.7031 33.7507 19.7336 34.7812 21 34.7812C22.2664 34.7812 23.2969 33.7507 23.2969 32.4844V30.8438H27.5625C28.4207 30.8313 28.4284 29.5456 27.5625 29.5312H22.6406C20.4966 29.531 14.0491 29.5314 11.8125 29.5312V27.5625C11.8125 27.2004 12.107 26.9062 12.4688 26.9062H29.5312C29.893 26.9062 30.1875 27.2004 30.1875 27.5625V37.4062ZM20.0156 30.8438H21.9844V32.4844C21.9844 33.0272 21.5428 33.4688 21 33.4688C20.4572 33.4688 20.0156 33.0272 20.0156 32.4844V30.8438Z" fill="white"/>
<path d="M23.625 19.6875C23.9874 19.6875 24.2813 19.394 24.2813 19.0312V16.2656C30.9388 12.8004 28.6081 2.72335 20.9999 2.625C13.3908 2.72625 11.0609 12.7979 17.7189 16.2656C17.7188 16.2656 17.7188 19.0312 17.7188 19.0312C17.7338 19.8924 19.016 19.8953 19.0313 19.0312V16.7826C20.2738 17.1519 21.7262 17.1519 22.9688 16.7826V19.0312C22.9688 19.394 23.2626 19.6875 23.625 19.6875ZM15.0938 9.84374C15.0938 6.58684 17.7434 3.93749 21 3.93749C28.8355 4.26191 28.8332 15.4268 21 15.75C17.7434 15.75 15.0938 13.1006 15.0938 9.84374Z" fill="white"/>
</svg>
