<svg width="43" height="42" viewBox="0 0 43 42" fill="none" xmlns="http://www.w3.org/2000/svg">
<path d="M30.6 18.2V16.03C30.8206 15.8344 30.9971 15.5941 31.1177 15.3251C31.2384 15.0561 31.3005 14.7645 31.3 14.4697V7.7C31.3 7.14304 31.0787 6.6089 30.6849 6.21508C30.2911 5.82125 29.757 5.6 29.2 5.6H24.3V3.5C24.2989 2.57208 23.9298 1.68249 23.2736 1.02635C22.6175 0.370217 21.7279 0.0011115 20.8 0L11 0C10.0721 0.0011115 9.18249 0.370217 8.52635 1.02635C7.87022 1.68249 7.50111 2.57208 7.5 3.5V5.6H2.6C2.04305 5.6 1.5089 5.82125 1.11508 6.21508C0.72125 6.6089 0.5 7.14304 0.5 7.7V14.4725C0.499853 14.7669 0.562172 15.0579 0.68284 15.3264C0.803508 15.5949 0.979777 15.8347 1.2 16.03V26.6C1.2 27.157 1.42125 27.6911 1.81508 28.0849C2.2089 28.4787 2.74305 28.7 3.3 28.7H18.7896C18.5064 31.096 18.9584 33.5215 20.0856 35.6547C21.2129 37.7879 22.9621 39.5279 25.1012 40.6439C27.2403 41.7599 29.6682 42.1991 32.0627 41.9032C34.4572 41.6074 36.7051 40.5904 38.5082 38.9874C40.3114 37.3843 41.5845 35.2708 42.1586 32.9274C42.7327 30.584 42.5808 28.1215 41.7229 25.8664C40.865 23.6114 39.3417 21.6705 37.3552 20.3013C35.3686 18.9321 33.0127 18.1992 30.6 18.2ZM8.9 3.5C8.9 2.94305 9.12125 2.4089 9.51508 2.01508C9.9089 1.62125 10.443 1.4 11 1.4H20.8C21.357 1.4 21.8911 1.62125 22.2849 2.01508C22.6788 2.4089 22.9 2.94305 22.9 3.5V5.6H21.5V4.2C21.5 3.8287 21.3525 3.4726 21.0899 3.21005C20.8274 2.9475 20.4713 2.8 20.1 2.8H11.7C11.3287 2.8 10.9726 2.9475 10.7101 3.21005C10.4475 3.4726 10.3 3.8287 10.3 4.2V5.6H8.9V3.5ZM20.1 5.6H11.7V4.2H20.1V5.6ZM1.9 7.7C1.9 7.51435 1.97375 7.3363 2.10503 7.20502C2.2363 7.07375 2.41435 7 2.6 7H29.2C29.3857 7 29.5637 7.07375 29.695 7.20502C29.8263 7.3363 29.9 7.51435 29.9 7.7V14.4725C29.9 14.6256 29.8499 14.7745 29.7572 14.8964C29.6645 15.0183 29.5345 15.1064 29.3869 15.1473C28.2102 15.4931 25.2471 16.0657 18.5698 16.0972C18.4257 15.6896 18.159 15.3365 17.8064 15.0864C17.4537 14.8362 17.0324 14.7013 16.6 14.7H15.2C14.7673 14.7015 14.3457 14.8368 13.993 15.0875C13.6403 15.3382 13.3739 15.6918 13.2302 16.1C6.5536 16.0685 3.5898 15.4959 2.4131 15.1501C2.26508 15.1091 2.13466 15.0205 2.04194 14.8981C1.94921 14.7756 1.89934 14.6261 1.9 14.4725V7.7ZM17.3 16.8V18.2C17.3 18.3856 17.2262 18.5637 17.095 18.695C16.9637 18.8262 16.7857 18.9 16.6 18.9H15.2C15.0143 18.9 14.8363 18.8262 14.705 18.695C14.5737 18.5637 14.5 18.3856 14.5 18.2V16.8C14.5 16.6143 14.5737 16.4363 14.705 16.305C14.8363 16.1737 15.0143 16.1 15.2 16.1H16.6C16.7857 16.1 16.9637 16.1737 17.095 16.305C17.2262 16.4363 17.3 16.6143 17.3 16.8ZM3.3 27.3C3.11435 27.3 2.9363 27.2262 2.80503 27.095C2.67375 26.9637 2.6 26.7856 2.6 26.6V16.6439C4.2863 17.0478 7.4069 17.4643 13.1 17.4965V18.1965C13.1 18.7535 13.3212 19.2876 13.7151 19.6814C14.1089 20.0752 14.643 20.2965 15.2 20.2965H16.6C17.157 20.2965 17.6911 20.0752 18.0849 19.6814C18.4788 19.2876 18.7 18.7535 18.7 18.1965V17.5C24.3931 17.4678 27.5137 17.0513 29.2 16.6474V18.2931C26.7927 18.5835 24.5314 19.6013 22.7178 21.2107C20.9041 22.8201 19.6246 24.9444 19.05 27.3H3.3ZM30.6 40.6C28.5233 40.6 26.4932 39.9842 24.7665 38.8304C23.0398 37.6767 21.694 36.0368 20.8993 34.1182C20.1045 32.1995 19.8966 30.0884 20.3018 28.0515C20.7069 26.0147 21.7069 24.1438 23.1754 22.6754C24.6438 21.2069 26.5148 20.2069 28.5516 19.8018C30.5884 19.3966 32.6996 19.6045 34.6182 20.3993C36.5368 21.194 38.1767 22.5398 39.3304 24.2665C40.4842 25.9932 41.1 28.0233 41.1 30.1C41.0969 32.8838 39.9896 35.5527 38.0211 37.5211C36.0527 39.4896 33.3838 40.5968 30.6 40.6Z" fill="white"/>
</svg>
