<svg width="72" height="337" viewBox="0 0 72 337" fill="none" xmlns="http://www.w3.org/2000/svg">
<path opacity="0.3" d="M47 264.92L29.3 264.92L29.3 271.88L26 271.88L26 254.06L29.3 254.06L29.3 261.02L47 261.02L47 264.92ZM34.73 247.533L34.73 237.093L37.94 237.093L37.94 247.533L34.73 247.533ZM43.73 247.233L43.73 235.383L47 235.383L47 251.133L26 251.133L26 235.803L29.27 235.803L29.27 247.233L43.73 247.233ZM47.3 224.525C47.3 226.165 47.07 227.735 46.61 229.235C46.13 230.735 45.52 231.925 44.78 232.805L41.75 231.455C42.41 230.615 42.96 229.575 43.4 228.335C43.84 227.095 44.06 225.825 44.06 224.525C44.06 223.425 43.94 222.535 43.7 221.855C43.46 221.175 43.14 220.675 42.74 220.355C42.32 220.035 41.85 219.875 41.33 219.875C40.69 219.875 40.18 220.105 39.8 220.565C39.4 221.025 39.09 221.625 38.87 222.365C38.63 223.085 38.41 223.895 38.21 224.795C38.01 225.675 37.78 226.565 37.52 227.465C37.24 228.345 36.89 229.155 36.47 229.895C36.03 230.615 35.45 231.205 34.73 231.665C34.01 232.125 33.09 232.355 31.97 232.355C30.83 232.355 29.79 232.055 28.85 231.455C27.89 230.835 27.13 229.905 26.57 228.665C25.99 227.405 25.7 225.815 25.7 223.895C25.7 222.635 25.86 221.385 26.18 220.145C26.5 218.905 26.96 217.825 27.56 216.905L30.59 218.135C30.03 219.075 29.62 220.045 29.36 221.045C29.08 222.045 28.94 223.005 28.94 223.925C28.94 225.005 29.07 225.885 29.33 226.565C29.59 227.225 29.93 227.715 30.35 228.035C30.77 228.335 31.25 228.485 31.79 228.485C32.43 228.485 32.95 228.265 33.35 227.825C33.73 227.365 34.03 226.775 34.25 226.055C34.47 225.315 34.69 224.495 34.91 223.595C35.11 222.695 35.34 221.805 35.6 220.925C35.86 220.025 36.2 219.215 36.62 218.495C37.04 217.755 37.61 217.165 38.33 216.725C39.05 216.265 39.96 216.035 41.06 216.035C42.18 216.035 43.22 216.345 44.18 216.965C45.12 217.565 45.88 218.495 46.46 219.755C47.02 221.015 47.3 222.605 47.3 224.525ZM47 208.201L29.3 208.201L29.3 215.161L26 215.161L26 197.341L29.3 197.341L29.3 204.301L47 204.301L47 208.201ZM47 194.414L26 194.414L26 190.514L47 190.514L47 194.414ZM47 184.834L26 184.834L26 181.624L41.33 172.444L41.33 174.124L26 165.094L26 161.884L47 161.854L47 165.544L31.79 165.574L31.79 164.794L44.6 172.474L44.6 174.214L31.79 182.014L31.79 181.114L47 181.114L47 184.834ZM47.3 146.342C47.3 147.982 47.03 149.492 46.49 150.872C45.95 152.252 45.2 153.452 44.24 154.472C43.26 155.492 42.12 156.282 40.82 156.842C39.5 157.402 38.06 157.682 36.5 157.682C34.94 157.682 33.51 157.402 32.21 156.842C30.89 156.282 29.75 155.492 28.79 154.472C27.81 153.452 27.05 152.252 26.51 150.872C25.97 149.492 25.7 147.992 25.7 146.372C25.7 144.732 25.97 143.232 26.51 141.872C27.05 140.492 27.81 139.292 28.79 138.272C29.75 137.252 30.89 136.462 32.21 135.902C33.51 135.342 34.94 135.062 36.5 135.062C38.06 135.062 39.5 135.342 40.82 135.902C42.14 136.462 43.28 137.252 44.24 138.272C45.2 139.292 45.95 140.492 46.49 141.872C47.03 143.232 47.3 144.722 47.3 146.342ZM43.88 146.372C43.88 145.312 43.7 144.332 43.34 143.432C42.98 142.532 42.47 141.752 41.81 141.092C41.13 140.432 40.35 139.922 39.47 139.562C38.57 139.182 37.58 138.992 36.5 138.992C35.42 138.992 34.44 139.182 33.56 139.562C32.66 139.922 31.88 140.432 31.22 141.092C30.54 141.752 30.02 142.532 29.66 143.432C29.3 144.332 29.12 145.312 29.12 146.372C29.12 147.432 29.3 148.412 29.66 149.312C30.02 150.192 30.54 150.972 31.22 151.652C31.88 152.312 32.66 152.832 33.56 153.212C34.44 153.572 35.42 153.752 36.5 153.752C37.56 153.752 38.54 153.572 39.44 153.212C40.34 152.832 41.13 152.312 41.81 151.652C42.47 150.992 42.98 150.212 43.34 149.312C43.7 148.412 43.88 147.432 43.88 146.372ZM47 130.928L26 130.928L26 127.718L42.17 114.548L42.17 116.138L26 116.138L26 112.268L47 112.268L47 115.478L30.83 128.648L30.83 127.058L47 127.058L47 130.928ZM47 106.641L26 106.641L26 102.741L47 102.741L47 106.641ZM47 100.031L26 90.5809L26 86.7409L47 77.2609L47 81.3409L28.07 89.4709L28.07 87.9109L47 96.0109L47 100.031ZM42.14 95.6809L39.08 94.6309L39.08 83.2909L42.14 82.2409L42.14 95.6809ZM47 74.5902L26 74.5902L26 70.6902L43.7 70.6902L43.7 59.7102L47 59.7102L47 74.5902Z" fill="white"/>
<g opacity="0.3">
<path d="M38.2347 311.912C38.2347 308.828 40.3525 306.75 43.4905 306.75C46.3142 306.75 48.6667 309.139 48.6667 312.374C48.6667 315.917 45.8429 318.536 41.5297 318.536C31.7261 318.536 27.8046 311.295 27.3334 306.75L31.6466 306.75C32.1954 309.832 35.2539 313.297 38.6284 313.452C38.5508 313.297 38.2347 312.682 38.2347 311.912ZM38.2347 327.624C38.2347 324.544 40.3525 322.464 43.4905 322.464C46.3142 322.464 48.6667 324.853 48.6667 328.088C48.6667 331.632 45.8429 334.25 41.5297 334.25C31.7261 334.25 27.8046 327.01 27.3334 322.464L31.6466 322.464C32.1954 325.546 35.2539 329.011 38.6284 329.166C38.5508 329.011 38.2347 328.396 38.2347 327.624Z" fill="white"/>
</g>
<g opacity="0.3">
<path d="M37.7653 25.848C37.7653 29.0254 35.6475 31.1666 32.5095 31.1666C29.6858 31.1666 27.3333 28.7056 27.3333 25.3724C27.3333 21.7215 30.1571 19.0237 34.4703 19.0237C44.2739 19.0237 48.1954 26.4835 48.6666 31.1666L44.3534 31.1666C43.8046 27.9912 40.7461 24.4212 37.3716 24.2613C37.4492 24.4212 37.7653 25.0547 37.7653 25.848ZM37.7653 9.65956C37.7653 12.8329 35.6475 14.9761 32.5095 14.9761C29.6858 14.9761 27.3333 12.5152 27.3333 9.18194C27.3333 5.53099 30.1571 2.83325 34.4703 2.83325C44.2739 2.83325 48.1954 10.293 48.6666 14.9761L44.3534 14.9761C43.8046 11.8008 40.7461 8.23075 37.3716 8.07087C37.4492 8.23075 37.7653 8.86421 37.7653 9.65956Z" fill="white"/>
</g>
</svg>
