<svg width="750" height="500" viewBox="0 0 750 500" fill="none" xmlns="http://www.w3.org/2000/svg">
<path opacity="0.42" d="M184.135 425.308H260.974C302.861 417.892 334.016 408.328 361.28 424.686C361.626 424.893 361.992 425.101 362.367 425.308H536.753C581.192 425.308 627.785 387.179 639.278 346.719C675.628 218.746 583.042 160.824 495.478 183.91C437.794 199.118 420.7 101.37 330.366 77.837C330.366 77.837 278.103 60.985 242.222 105.3C210.039 145.048 258.972 214.99 203.172 233.644C168.261 245.315 95.738 248.723 91.124 327.938C88.195 378.221 129.11 421.758 184.135 425.308Z" fill="#EAEAE8"/>
<path d="M573.024 281.984L502.648 265.469C494.508 263.559 489.458 255.411 491.368 247.271L507.883 176.895C509.793 168.755 517.941 163.705 526.081 165.615L596.457 182.13C604.597 184.04 609.647 192.188 607.737 200.328L591.222 270.704C589.311 278.844 581.164 283.894 573.024 281.984Z" fill="#EAEAE8"/>
<path d="M547.528 232.426C542.234 231.184 538.95 225.885 540.192 220.591L546.34 194.391C547.582 189.097 552.881 185.812 558.175 187.055C563.469 188.297 566.753 193.596 565.511 198.89L559.363 225.091C558.12 230.384 552.822 233.669 547.528 232.426Z" fill="#CFA935"/>
<path d="M531.923 221.348C531.923 221.348 531.18 236.007 545.878 239.456C560.576 242.905 566.431 229.446 566.431 229.446" stroke="#CFA935" stroke-width="5" stroke-miterlimit="10" stroke-linecap="round" stroke-linejoin="round"/>
<path d="M531.344 258.295L540.93 260.544L550.515 262.793" stroke="#CFA935" stroke-width="5" stroke-miterlimit="10" stroke-linecap="round" stroke-linejoin="round"/>
<path d="M545.878 239.456L540.93 260.544" stroke="#CFA935" stroke-width="5" stroke-miterlimit="10" stroke-linecap="round" stroke-linejoin="round"/>
<path d="M265.847 209.16H193.56C185.199 209.16 178.421 202.382 178.421 194.021V121.734C178.421 113.373 185.199 106.595 193.56 106.595H265.848C274.209 106.595 280.987 113.373 280.987 121.734V194.021C280.986 202.381 274.208 209.16 265.847 209.16Z" fill="#EAEAE8"/>
<path d="M243.48 140.724H202.321C200.865 140.724 199.686 141.904 199.686 143.36V172.393C199.686 173.849 200.866 175.029 202.321 175.029H243.48C244.936 175.029 246.115 173.849 246.115 172.393V143.36C246.116 141.904 244.936 140.724 243.48 140.724Z" fill="#CFA935"/>
<path d="M266.357 141.776L252.307 149.536C251.467 150 250.946 150.884 250.946 151.843V163.91C250.946 164.87 251.467 165.753 252.307 166.217L266.357 173.977C268.114 174.947 270.267 173.677 270.267 171.67V144.083C270.267 142.076 268.114 140.805 266.357 141.776Z" fill="#CFA935"/>
<path d="M544.144 184.552C533.334 184.552 524.571 175.789 524.571 164.979C524.571 175.789 515.808 184.552 504.998 184.552C515.808 184.552 524.571 193.315 524.571 204.125C524.571 193.315 533.334 184.552 544.144 184.552Z" fill="#CFA935"/>
<path d="M505.473 176.818C500.911 176.818 497.213 173.12 497.213 168.558C497.213 173.12 493.515 176.818 488.953 176.818C493.515 176.818 497.213 180.516 497.213 185.078C497.213 180.516 500.912 176.818 505.473 176.818Z" fill="#CFA935"/>
<path d="M59.2681 424.531L138.201 424.045L217.134 423.765L375 423.532L532.866 423.762L611.799 424.042L690.732 424.531L611.799 425.02L532.866 425.3L375 425.53L217.134 425.297L138.201 425.017L59.2681 424.531Z" fill="#283034"/>
<path d="M624.786 345.048C627.16 345.048 627.164 341.358 624.786 341.358C622.412 341.358 622.408 345.048 624.786 345.048Z" fill="#283034"/>
<path d="M299.195 108.438C301.569 108.438 301.573 104.748 299.195 104.748C296.821 104.748 296.817 108.438 299.195 108.438Z" fill="#283034"/>
<path d="M140.012 305.309C139.468 305.309 139.028 304.869 139.028 304.325V297.923C139.028 297.379 139.468 296.939 140.012 296.939C140.556 296.939 140.996 297.379 140.996 297.923V304.325C140.996 304.869 140.556 305.309 140.012 305.309Z" fill="#283034"/>
<path d="M143.213 302.107H136.812C136.268 302.107 135.828 301.667 135.828 301.123C135.828 300.579 136.268 300.139 136.812 300.139H143.213C143.757 300.139 144.197 300.579 144.197 301.123C144.197 301.667 143.757 302.107 143.213 302.107Z" fill="#283034"/>
<path d="M478.941 145.628C478.397 145.628 477.957 145.188 477.957 144.644V138.242C477.957 137.698 478.397 137.258 478.941 137.258C479.485 137.258 479.925 137.698 479.925 138.242V144.644C479.925 145.188 479.485 145.628 478.941 145.628Z" fill="#283034"/>
<path d="M482.141 142.427H475.74C475.196 142.427 474.756 141.987 474.756 141.443C474.756 140.899 475.196 140.459 475.74 140.459H482.141C482.685 140.459 483.125 140.899 483.125 141.443C483.125 141.987 482.685 142.427 482.141 142.427Z" fill="#283034"/>
<path d="M184.742 337.06C184.742 337.06 165.5 331.297 159.552 315.332C153.604 299.367 159.219 278.559 146.577 266.157C133.935 253.755 145.517 240.349 156.952 240.901C168.387 241.453 183.289 261.027 192.057 289.673C198.163 309.618 195.559 324.741 184.742 337.06Z" fill="#CFA935"/>
<path d="M213.686 328.76C213.686 328.76 226.03 322.295 232.077 307.203C238.123 292.111 233.281 278.035 247.722 271.829C262.163 265.623 264.439 250.329 254.896 243.854C245.354 237.379 225.892 240.872 210.218 266.034C197.736 286.074 191.048 309.482 213.686 328.76Z" fill="#CFA935"/>
<path d="M193.355 302.707C193.355 302.707 181.136 291.389 183.94 269.756C186.744 248.122 171.78 204.366 195.157 200.849C217.792 197.444 219.697 222.883 219.697 234.101C219.699 245.318 220.998 294.694 193.355 302.707Z" fill="#CFA935"/>
<path d="M151.891 248.723C156.156 252.123 159.789 256.301 162.822 260.852C165.831 265.425 168.212 270.432 169.769 275.7C170.215 277.001 170.492 278.348 170.797 279.687C170.937 280.359 171.132 281.022 171.226 281.702L171.526 283.741L171.824 285.781L172.051 287.805C172.189 289.156 172.396 290.499 172.569 291.846C173.34 297.224 174.388 302.562 175.648 307.847C178.207 318.407 181.615 328.779 186.064 338.685C188.301 343.628 190.799 348.46 193.726 353.01C195.195 355.279 196.779 357.476 198.557 359.494C200.336 361.501 202.32 363.354 204.61 364.664L204.132 365.542C201.67 364.158 199.609 362.245 197.765 360.198C195.924 358.139 194.297 355.914 192.788 353.621C189.764 349.035 187.267 344.14 185.025 339.152C180.565 329.156 177.167 318.72 174.62 308.093C173.366 302.774 172.325 297.402 171.563 291.988C171.393 290.632 171.188 289.28 171.052 287.919C170.912 286.554 170.75 285.204 170.561 283.872L170.293 281.864C170.21 281.193 170.026 280.54 169.898 279.878C169.615 278.557 169.361 277.228 168.939 275.942C165.938 265.573 160.067 255.942 151.891 248.723Z" fill="#263138"/>
<path d="M199.966 221.281C200.704 227.145 201.212 233.041 201.483 238.95C201.789 244.858 201.844 250.78 201.666 256.699C201.385 268.548 199.624 280.342 196.894 291.863C196.21 294.746 195.457 297.612 194.619 300.457C194.214 301.886 193.718 303.294 193.323 304.69C192.921 306.098 192.561 307.522 192.245 308.955C190.962 314.684 190.192 320.536 190.023 326.404C189.623 338.121 191.761 350.004 197.104 360.464L196.22 360.931C190.736 350.325 188.39 338.244 188.876 326.368C189.061 320.422 189.854 314.507 191.166 308.71C191.49 307.259 191.858 305.818 192.27 304.387C192.683 302.941 193.174 301.562 193.578 300.149C194.416 297.329 195.171 294.48 195.858 291.615C197.228 285.886 198.362 280.096 199.185 274.262C200.015 268.429 200.496 262.557 200.755 256.666C201.222 244.882 200.893 233.06 199.966 221.281Z" fill="#263138"/>
<path d="M245.937 252.229C243.696 253.787 241.578 255.511 239.552 257.328C237.532 259.151 235.575 261.046 233.791 263.095C230.174 267.14 227.088 271.67 224.893 276.601C222.697 281.541 221.809 286.93 221.304 292.335C220.782 297.747 220.574 303.208 219.974 308.661C219.375 314.098 218.463 319.598 216.306 324.727C216.024 325.36 215.813 326.024 215.473 326.632L214.505 328.478L212.562 332.057C211.927 333.25 211.399 334.497 210.812 335.714C210.276 336.954 209.803 338.222 209.296 339.475C207.463 344.565 206.266 349.876 205.633 355.252C205.079 360.623 204.986 366.113 205.865 371.421L204.882 371.605C203.938 366.136 204 360.606 204.521 355.132C205.112 349.663 206.313 344.253 208.186 339.071C208.701 337.794 209.182 336.503 209.727 335.239C210.324 333.998 210.861 332.728 211.507 331.512L213.467 327.895L214.399 326.115C214.727 325.53 214.931 324.884 215.203 324.271C217.275 319.304 218.228 313.922 218.841 308.536C219.462 303.139 219.697 297.682 220.249 292.231C220.529 289.507 220.873 286.777 221.47 284.083C221.629 283.412 221.74 282.731 221.939 282.068L222.521 280.076C222.71 279.411 223.007 278.782 223.244 278.134C223.509 277.497 223.717 276.834 224.03 276.218C224.654 274.988 225.193 273.712 225.929 272.545L226.975 270.764L228.131 269.054C228.87 267.892 229.772 266.849 230.589 265.745C231.499 264.716 232.353 263.639 233.32 262.665C237.073 258.668 241.31 255.129 245.937 252.229Z" fill="#263138"/>
<path d="M176.251 357.005H226.496V410.813C226.496 417.723 220.894 423.326 213.984 423.326H188.764C181.854 423.326 176.252 417.724 176.252 410.813L176.251 357.005Z" fill="#CFA935"/>
<path d="M226.496 367.315H176.251V375.822H226.496V367.315Z" fill="#CFA935"/>
<path d="M169.979 341.325C149.467 323.984 118.924 324.999 99.6553 343.83L106.169 349.981C122.053 334.722 146.904 333.866 163.828 347.839L169.979 341.325Z" fill="#CFA935"/>
<path d="M158.382 353.607C151.616 348.944 143.606 346.496 135.235 346.736C126.6 346.984 118.497 350.044 111.893 355.387L118.432 361.561C123.346 357.903 129.239 355.818 135.49 355.639C141.473 355.467 147.216 357.08 152.182 360.173L158.382 353.607Z" fill="#CFA935"/>
<path d="M145.771 366.963C139.086 363.786 131.283 364.01 124.792 367.565L128.958 371.499L135.604 377.732L145.771 366.963Z" fill="#CFA935"/>
<path d="M643.108 365.719H487.044V394.791H643.108V365.719Z" fill="#FDF9F0"/>
<path d="M606.136 336.648H492.06V365.719H606.136V336.648Z" fill="#CFA935"/>
<path d="M606.137 341.882H497.481V360.476H606.137V341.882Z" fill="#EAEAE8"/>
<path d="M624.786 394.79H468.722V423.862H624.786V394.79Z" fill="#CFA935"/>
<path d="M492.061 396.895H476.138V421.758H492.061V396.895Z" fill="#FDF9F0"/>
<path d="M617.37 396.895H601.447V421.758H617.37V396.895Z" fill="#FDF9F0"/>
<path opacity="0.5" d="M638.09 369.234H492.061V391.276H638.09V369.234Z" fill="#CFA935"/>
<path d="M545.65 292.397C545.65 292.397 553.11 301.968 548.184 309.851" stroke="#263138" stroke-miterlimit="10"/>
<path d="M549.337 299.98C549.337 299.98 551.051 288.333 561.819 287.013C561.819 287.013 564.883 299.17 549.337 299.98Z" fill="#263138"/>
<path d="M562.47 303.625C555.432 300.801 550.718 304.827 549.098 306.404C547.478 304.828 542.764 300.801 535.726 303.625C525.439 307.753 527.042 324.228 531.574 330.19C535.586 335.468 541.075 338.002 548.254 335.68C548.254 335.68 548.624 335.466 549.098 335.56C549.573 335.466 549.942 335.68 549.942 335.68C557.121 338.003 562.61 335.469 566.622 330.19C571.154 324.228 572.757 307.753 562.47 303.625Z" fill="#CFA935"/>
<path d="M437.983 423.919H312.017C299.926 423.919 290.125 414.118 290.125 402.027V138.32C290.125 123.32 302.285 111.16 317.285 111.16H432.715C447.715 111.16 459.875 123.32 459.875 138.32V402.026C459.875 414.117 450.073 423.919 437.983 423.919Z" fill="#455862"/>
<path d="M434.441 120.139H422.54C420.812 120.139 419.412 121.54 419.412 123.267C419.412 129.781 414.131 135.063 407.616 135.063H342.385C335.871 135.063 330.589 129.782 330.589 123.267C330.589 121.539 329.188 120.139 327.461 120.139H315.56C306.522 120.139 299.196 127.465 299.196 136.503V398.576C299.196 407.614 306.522 414.94 315.56 414.94H434.442C443.48 414.94 450.806 407.614 450.806 398.576V136.503C450.805 127.466 443.478 120.139 434.441 120.139Z" fill="#EAEAE8"/>
<path d="M443.201 149.321H304.329V162.667H443.201V149.321Z" fill="#EAEAE8"/>
<path d="M443.201 169.34H304.329V195.908H443.201V169.34Z" fill="#EAEAE8"/>
<path d="M443.201 372.105H304.329V398.673H443.201V372.105Z" fill="#EAEAE8"/>
<path d="M406.121 127.992H342.867C340.699 127.992 338.941 126.234 338.941 124.066C338.941 121.898 340.699 120.14 342.867 120.14H406.121C408.289 120.14 410.047 121.898 410.047 124.066C410.047 126.234 408.29 127.992 406.121 127.992Z" fill="#263138"/>
<path d="M512.081 193.298H237.92V359.948H512.081V193.298Z" fill="#F3F3F3"/>
<path opacity="0.2" d="M246.175 221.335V333.593C257.148 333.593 266.127 342.056 266.985 352.808H483.014C483.872 342.056 492.852 333.593 503.824 333.593V221.335C492.284 221.335 482.929 211.98 482.929 200.44H267.07C267.07 211.98 257.715 221.335 246.175 221.335Z" fill="#CFA935"/>
<path d="M363.623 343.203L361.652 337.573L355.686 337.535L368.666 319.362L376.604 325.032L363.623 343.203Z" fill="#CFA935"/>
<path d="M386.377 343.203L388.349 337.573L394.314 337.535L381.332 319.362L373.397 325.032L386.377 343.203Z" fill="#CFA935"/>
<path d="M392.681 316.675C392.681 318.472 390.392 319.884 389.867 321.504C389.32 323.185 390.321 325.669 389.305 327.067C388.276 328.481 385.599 328.292 384.185 329.318C382.789 330.336 382.147 332.949 380.466 333.493C378.843 334.02 376.798 332.302 375 332.302C373.202 332.302 371.155 334.02 369.535 333.493C367.855 332.949 367.213 330.336 365.815 329.318C364.404 328.292 361.724 328.479 360.696 327.067C359.679 325.667 360.681 323.185 360.135 321.504C359.609 319.884 357.32 318.472 357.32 316.675C357.32 314.878 359.608 313.466 360.135 311.844C360.681 310.164 359.679 307.678 360.696 306.28C361.724 304.869 364.403 305.06 365.815 304.031C367.213 303.012 367.855 300.401 369.535 299.856C371.155 299.33 373.202 301.048 375 301.048C376.797 301.048 378.843 299.33 380.466 299.856C382.146 300.402 382.789 303.012 384.185 304.031C385.598 305.06 388.276 304.868 389.305 306.281C390.321 307.68 389.32 310.164 389.867 311.844C390.392 313.466 392.681 314.878 392.681 316.675Z" fill="#CFA935"/>
<path d="M386.262 316.675C386.262 322.896 381.222 327.938 375.001 327.938C368.781 327.938 363.738 322.896 363.738 316.675C363.738 310.454 368.781 305.413 375.001 305.413C381.222 305.413 386.262 310.454 386.262 316.675Z" fill="#CFA935"/>
<path d="M451.55 220.81H298.451V235.921H451.55V220.81Z" fill="#CFA935"/>
<path opacity="0.5" d="M476.518 272.387H275.576V279.942H476.518V272.387Z" fill="#CFA935"/>
<path opacity="0.5" d="M476.518 259.86H275.576V267.415H476.518V259.86Z" fill="#CFA935"/>
<path opacity="0.5" d="M476.518 285.898H275.576V293.453H476.518V285.898Z" fill="#CFA935"/>
<path d="M291.557 339.147C294.101 332.044 296.894 325.034 299.937 318.13C299.556 317.969 299.175 317.809 298.795 317.648C298.068 319.451 297.34 321.254 296.613 323.057C295.872 324.893 294.972 326.734 294.376 328.621C294.093 329.518 294.166 330.605 295.244 330.872C296.478 331.177 298.068 330.1 298.989 329.414C298.683 329.179 298.377 328.944 298.071 328.708C297.61 330.111 297.762 331.933 299.156 332.764C300.308 333.451 301.802 333.14 302.512 332.005C302.774 331.586 302.428 331.084 301.972 331.064C300.801 331.013 299.984 332.169 300.28 333.293C300.665 334.757 302.581 335.395 303.866 335.713C305.164 336.034 312.329 336.348 310.74 333.361C310.597 333.093 310.305 333.036 310.034 333.074C308.403 333.303 308.426 335.614 309.8 336.207C312.542 337.39 313.365 333.288 315.511 332.888C315.247 332.687 314.984 332.486 314.72 332.285C314.653 332.992 315.161 333.527 315.845 333.652C316.88 333.842 317.344 332.882 318.26 332.727C319.141 332.578 320.039 333.498 320.694 333.961C321.433 334.482 322.165 334.862 323.078 334.934C323.88 334.997 323.876 333.747 323.078 333.684C321.682 333.574 320.736 332.22 319.496 331.702C318.996 331.493 318.465 331.399 317.928 331.522C317.683 331.578 317.447 331.69 317.228 331.81C317.194 331.829 315.93 332.705 315.97 332.285C316.011 331.848 315.54 331.615 315.179 331.682C314.247 331.856 313.579 332.379 312.981 333.101C312.645 333.506 312.372 333.966 312.011 334.35C311.802 334.598 311.556 334.802 311.272 334.962C310.602 335.36 310.3 335.132 310.367 334.279C310.132 334.183 309.896 334.088 309.661 333.992C309.813 334.277 307.493 334.702 307.375 334.715C306.682 334.792 305.968 334.789 305.275 334.707C304.568 334.624 303.861 334.448 303.195 334.197C302.826 334.058 302.426 333.913 302.106 333.674C301.836 333.473 300.863 332.266 301.973 332.315C301.793 332.002 301.613 331.688 301.433 331.375C300.96 332.131 299.929 331.962 299.438 331.338C298.918 330.677 299.032 329.785 299.277 329.041C299.437 328.554 298.801 328.007 298.359 328.335C297.935 328.65 297.5 328.942 297.027 329.18C296.54 329.425 295.437 330.082 295.527 329.108C295.576 328.579 295.985 327.939 296.183 327.447C296.456 326.771 296.729 326.095 297.001 325.419C298.001 322.94 299.001 320.461 300.001 317.981C300.264 317.33 299.144 316.852 298.859 317.499C295.772 324.502 292.933 331.61 290.353 338.815C290.08 339.574 291.288 339.9 291.557 339.147Z" fill="#CFA935"/>
<path d="M439.914 331.657C440.625 328.504 441.502 325.398 442.545 322.339C442.143 322.228 441.742 322.118 441.34 322.007C440.538 324.665 444.113 326.17 445.44 323.722C445.052 323.617 444.664 323.512 444.275 323.407C444.362 324.381 444.448 325.354 444.535 326.328C444.578 326.811 445.221 327.224 445.602 326.77C451.282 319.996 454.888 311.762 456.035 302.999C455.618 302.999 455.202 302.999 454.785 302.999C453.687 311.969 454.951 321.11 458.443 329.446C458.644 329.182 458.845 328.919 459.046 328.655C449.836 327.8 440.605 327.191 431.362 326.83C430.673 326.803 430.49 327.951 431.196 328.058C439.514 329.311 447.913 329.843 456.322 329.623C457.125 329.602 457.128 328.352 456.322 328.373C448.028 328.589 439.733 328.089 431.528 326.852C431.473 327.261 431.417 327.67 431.362 328.08C440.605 328.441 449.836 329.05 459.046 329.905C459.418 329.94 459.799 329.472 459.649 329.114C456.193 320.865 454.949 311.877 456.036 302.999C456.134 302.2 454.889 302.214 454.786 302.999C453.686 311.405 450.165 319.392 444.72 325.886C445.076 326.033 445.431 326.181 445.787 326.328C445.7 325.354 445.614 324.381 445.527 323.407C445.476 322.831 444.681 322.504 444.362 323.092C443.718 324.279 442.17 323.588 442.546 322.34C442.78 321.564 441.598 321.252 441.341 322.008C440.298 325.067 439.421 328.173 438.71 331.326C438.532 332.108 439.737 332.443 439.914 331.657Z" fill="#CFA935"/>
<path d="M169.979 209.637H111.893V215.765H169.979V209.637Z" fill="#EEEDEB"/>
<path d="M639.278 294.036H581.192V300.164H639.278V294.036Z" fill="#EEEDEB"/>
<path d="M149.21 220.941H91.124V227.069H149.21V220.941Z" fill="#EEEDEB"/>
</svg>
