<svg width="16" height="16" viewBox="0 0 16 16" fill="none" xmlns="http://www.w3.org/2000/svg">
<path d="M12.8808 3.70813C12.7795 3.6558 12.681 3.59843 12.5854 3.53625C12.3077 3.35264 12.0531 3.1363 11.827 2.89188C11.2614 2.24469 11.0501 1.58813 10.9723 1.12844H10.9754C10.9104 0.746875 10.9373 0.5 10.9414 0.5H8.36513V10.4619C8.36513 10.5956 8.36513 10.7278 8.35951 10.8584C8.35951 10.8747 8.35795 10.8897 8.35701 10.9072C8.35701 10.9144 8.35701 10.9219 8.35545 10.9294C8.35545 10.9312 8.35545 10.9331 8.35545 10.935C8.32829 11.2924 8.21371 11.6377 8.02179 11.9405C7.82987 12.2432 7.56649 12.4942 7.25482 12.6713C6.92999 12.856 6.5626 12.953 6.18888 12.9525C4.98857 12.9525 4.01576 11.9738 4.01576 10.765C4.01576 9.55625 4.98857 8.5775 6.18888 8.5775C6.4161 8.57729 6.64191 8.61304 6.85795 8.68344L6.86107 6.06031C6.20525 5.9756 5.53898 6.02772 4.90431 6.21339C4.26964 6.39906 3.68033 6.71424 3.17357 7.13906C2.72953 7.52488 2.35622 7.98522 2.07045 8.49938C1.9617 8.68688 1.55138 9.44031 1.5017 10.6631C1.47045 11.3572 1.67888 12.0763 1.77826 12.3734V12.3797C1.84076 12.5547 2.08295 13.1519 2.47763 13.6553C2.79589 14.0591 3.17191 14.4139 3.59357 14.7081V14.7019L3.59982 14.7081C4.84701 15.5556 6.22982 15.5 6.22982 15.5C6.4692 15.4903 7.27107 15.5 8.1817 15.0684C9.1917 14.59 9.7667 13.8772 9.7667 13.8772C10.134 13.4513 10.4261 12.9659 10.6304 12.4419C10.8636 11.8291 10.9414 11.0941 10.9414 10.8003V5.51531C10.9726 5.53406 11.3889 5.80937 11.3889 5.80937C11.3889 5.80937 11.9886 6.19375 12.9242 6.44406C13.5954 6.62219 14.4998 6.65969 14.4998 6.65969V4.10219C14.1829 4.13656 13.5395 4.03656 12.8808 3.70813Z" fill="#D4AB4C"/>
</svg>
