<svg width="40" height="40" viewBox="0 0 40 40" fill="none" xmlns="http://www.w3.org/2000/svg">
<path d="M20 35C17.0333 35 14.1332 34.1203 11.6665 32.472C9.19972 30.8238 7.27713 28.4811 6.14181 25.7403C5.0065 22.9994 4.70945 19.9834 5.28823 17.0737C5.86701 14.1639 7.29562 11.4912 9.3934 9.3934C11.4912 7.29562 14.1639 5.86701 17.0737 5.28823C19.9834 4.70945 22.9994 5.0065 25.7403 6.14181C28.4811 7.27713 30.8238 9.19972 32.472 11.6665C34.1203 14.1332 35 17.0333 35 20C35 23.9783 33.4197 27.7936 30.6066 30.6066C27.7936 33.4197 23.9783 35 20 35ZM20 7.50001C17.5277 7.50001 15.111 8.23312 13.0554 9.60664C10.9998 10.9802 9.39761 12.9324 8.45151 15.2165C7.50542 17.5005 7.25788 20.0139 7.74019 22.4386C8.22251 24.8634 9.41302 27.0907 11.1612 28.8388C12.9093 30.587 15.1366 31.7775 17.5614 32.2598C19.9861 32.7421 22.4995 32.4946 24.7836 31.5485C27.0676 30.6024 29.0199 29.0002 30.3934 26.9446C31.7669 24.889 32.5 22.4723 32.5 20C32.5 16.6848 31.183 13.5054 28.8388 11.1612C26.4946 8.81697 23.3152 7.50001 20 7.50001Z" fill="#CFA935"/>
<path d="M26.25 21.25H20C19.6685 21.25 19.3505 21.1183 19.1161 20.8839C18.8817 20.6495 18.75 20.3315 18.75 20V11.25C18.75 10.9185 18.8817 10.6005 19.1161 10.3661C19.3505 10.1317 19.6685 10 20 10C20.3315 10 20.6495 10.1317 20.8839 10.3661C21.1183 10.6005 21.25 10.9185 21.25 11.25V18.75H26.25C26.5815 18.75 26.8995 18.8817 27.1339 19.1161C27.3683 19.3505 27.5 19.6685 27.5 20C27.5 20.3315 27.3683 20.6495 27.1339 20.8839C26.8995 21.1183 26.5815 21.25 26.25 21.25Z" fill="#CFA935"/>
</svg>
