<svg width="150" height="151" viewBox="0 0 150 151" fill="none" xmlns="http://www.w3.org/2000/svg">
<g id="Frame" clip-path="url(#clip0_13621_9768)">
<g id="Group">
<path id="Vector" d="M0.500382 75.2589L0.500379 75.2579C0.499299 74.9206 0.500529 74.5836 0.504062 74.2468L0.00408969 74.2415C0.011213 73.5625 0.0276339 72.8843 0.0532926 72.2071L0.552934 72.2261C0.578477 71.5519 0.613237 70.8789 0.657154 70.207L0.158219 70.1744C0.202508 69.4968 0.256047 68.8204 0.318776 68.1455L0.81663 68.1917C0.87903 67.5203 0.950585 66.8503 1.03123 66.1818L0.534834 66.1219C0.616156 65.4479 0.706661 64.7754 0.806291 64.1047L1.30086 64.1782C1.39993 63.5112 1.50809 62.8461 1.62526 62.1828L1.13289 62.0958C1.25097 61.4275 1.37815 60.761 1.51437 60.0968L2.00418 60.1972C2.1396 59.5368 2.28402 58.8785 2.43737 58.2225L1.9505 58.1087C2.10498 57.4479 2.26847 56.7894 2.4409 56.1334L2.92447 56.2606C3.09581 55.6087 3.27604 54.9594 3.4651 54.3127L2.98519 54.1724C3.17559 53.5211 3.37488 52.8726 3.583 52.2269L4.05889 52.3803C4.26563 51.7389 4.48114 51.1004 4.70536 50.4649L4.23385 50.2985C4.45958 49.6588 4.69407 49.0221 4.93727 48.3887L5.40405 48.5679C5.64554 47.9389 5.89568 47.3132 6.1544 46.6908L5.6927 46.4989C5.95306 45.8726 6.22205 45.2497 6.49961 44.6304L6.95588 44.8349C7.23141 44.2202 7.51545 43.609 7.80792 43.0016L7.35743 42.7847C7.65162 42.1737 7.9543 41.5666 8.2654 40.9633L8.70978 41.1925C9.01849 40.5939 9.33555 39.9992 9.6609 39.4087L9.22296 39.1674C9.55015 38.5735 9.88566 37.9838 10.2294 37.3983L10.6606 37.6515C11.0015 37.0709 11.3507 36.4945 11.7079 35.9226L11.2838 35.6577C11.643 35.0827 12.0102 34.5123 12.3856 33.9464L12.8023 34.2229C13.1745 33.6618 13.5547 33.1053 13.9429 32.5536L13.534 32.2659C13.9239 31.7117 14.3218 31.1622 14.7277 30.6178L15.1286 30.9166C15.2306 30.7796 15.3332 30.6429 15.4363 30.5066L15.7011 30.7084L16.0042 30.3107L17.3293 31.3206L17.0262 31.7183L17.2913 31.9203C17.1952 32.0475 17.0996 32.1749 17.0044 32.3026L17.4053 32.6014C17.0175 33.1217 16.6372 33.6467 16.2646 34.1763L15.8557 33.8886C15.4796 34.4231 15.1113 34.9622 14.7506 35.5058L15.1673 35.7822C14.8086 36.3229 14.4576 36.868 14.1145 37.4174L13.6904 37.1525C13.3443 37.7066 13.0061 38.265 12.6758 38.8275L13.1069 39.0807C12.7784 39.6401 12.4578 40.2037 12.1452 40.7712L11.7073 40.5299C11.3921 41.102 11.0849 41.6782 10.7858 42.2581L11.2302 42.4873C10.9329 43.0637 10.6437 43.6439 10.3626 44.2277L9.91211 44.0108C9.62876 44.5992 9.35359 45.1913 9.08666 45.7869L9.54293 45.9914C9.27771 46.5831 9.02069 47.1783 8.77191 47.7768L8.31021 47.5849C8.05957 48.1878 7.81725 48.7941 7.58331 49.4035L8.05009 49.5827C7.81771 50.1879 7.59365 50.7963 7.37797 51.4076L6.90646 51.2413C6.68924 51.857 6.48047 52.4756 6.2802 53.0969L6.75609 53.2503C6.55724 53.8673 6.36683 54.4871 6.18491 55.1094L5.70499 54.9691C5.52185 55.5956 5.34727 56.2247 5.18129 56.8562L5.66487 56.9833C5.50013 57.6101 5.34394 58.2394 5.19634 58.8708L4.70947 58.757C4.56093 59.3925 4.42104 60.0303 4.28987 60.6701L4.77968 60.7705C4.64954 61.4053 4.52805 62.0421 4.41525 62.6808L3.92287 62.5938C3.80938 63.2364 3.70463 63.8808 3.60869 64.5269L4.10327 64.6004C4.0081 65.2413 3.92165 65.8839 3.84398 66.528L3.34758 66.4681C3.26949 67.1157 3.2002 67.7649 3.13979 68.4154L3.63765 68.4616C3.57775 69.1066 3.52663 69.7529 3.48435 70.4004L2.98542 70.3678C2.94291 71.0187 2.90928 71.6708 2.88458 72.3239L3.38423 72.3428C3.35975 72.9898 3.34411 73.6379 3.33735 74.2868L2.83738 74.2816C2.83398 74.6076 2.83281 74.9339 2.83388 75.2603C2.83392 75.5918 2.83621 75.9229 2.84075 76.2535L3.3407 76.2467C3.34971 76.9039 3.36765 77.5593 3.3944 78.2127L2.89481 78.2332C2.92194 78.8957 2.95806 79.5562 3.00308 80.2146L3.50191 80.1805C3.54674 80.8363 3.60046 81.4899 3.66294 82.1412L3.16523 82.189C3.22848 82.8483 3.30065 83.5052 3.38163 84.1598L3.87785 84.0984C3.95862 84.7512 4.04822 85.4015 4.14654 86.0493L3.6522 86.1243C3.75145 86.7783 3.85953 87.4297 3.97632 88.0783L4.46841 87.9897C4.58498 88.6371 4.71029 89.2817 4.84422 89.9235L4.35476 90.0256C4.48998 90.6736 4.63393 91.3185 4.78648 91.9604L5.27293 91.8448C5.42479 92.4838 5.58525 93.1197 5.75418 93.7524L5.2711 93.8814C5.44192 94.5212 5.62135 95.1577 5.80927 95.7908L6.2886 95.6485C6.47552 96.2783 6.67091 96.9047 6.87463 97.5275L6.3994 97.6829C6.60504 98.3116 6.81911 98.9367 7.04149 99.5581L7.51225 99.3896C7.73369 100.008 7.96344 100.623 8.20136 101.234L7.73543 101.416C7.97534 102.032 8.22352 102.644 8.47984 103.253L8.9406 103.058C9.19565 103.664 9.45882 104.265 9.72998 104.862L9.27474 105.069C9.54826 105.671 9.82986 106.269 10.1194 106.863L10.5688 106.643C10.8566 107.233 11.1524 107.819 11.4559 108.4L11.0127 108.632C11.3189 109.218 11.6329 109.799 11.9546 110.376L12.3913 110.133C12.7111 110.706 13.0387 111.275 13.3738 111.839L12.944 112.094C13.2817 112.662 13.627 113.226 13.9798 113.784L14.4025 113.517C14.7533 114.072 15.1115 114.622 15.4771 115.167L15.0619 115.445C15.4302 115.994 15.8059 116.538 16.189 117.076L16.5964 116.786C16.9769 117.321 17.3646 117.85 17.7595 118.374L17.3602 118.675C17.7579 119.203 18.1629 119.725 18.5748 120.242L18.9658 119.93C19.3749 120.443 19.7911 120.951 20.2141 121.453L19.8319 121.775C20.2578 122.28 20.6907 122.779 21.1304 123.273L21.5037 122.94C21.9402 123.43 22.3835 123.914 22.8334 124.392L22.4694 124.734C22.9223 125.215 23.3818 125.69 23.848 126.159L24.2025 125.806C24.6652 126.272 25.1343 126.73 25.6099 127.183L25.2652 127.545C25.7436 128.001 26.2284 128.45 26.7195 128.892L27.0541 128.52C27.5415 128.96 28.0351 129.392 28.5348 129.818L28.2105 130.199C28.7132 130.627 29.2221 131.049 29.7369 131.464L30.0507 131.074C30.5612 131.486 31.0777 131.891 31.5999 132.288L31.297 132.686C31.8224 133.086 32.3537 133.48 32.8907 133.866L33.1826 133.46C33.715 133.843 34.253 134.218 34.7966 134.587L34.516 135.001C35.0623 135.371 35.6142 135.734 36.1715 136.09L36.4406 135.669C36.9934 136.022 37.5515 136.368 38.1149 136.706L37.8575 137.135C38.4233 137.474 38.9944 137.807 39.5706 138.131L39.8161 137.696C40.387 138.017 40.963 138.332 41.544 138.638L41.3106 139.081C41.8947 139.389 42.4837 139.689 43.0777 139.982L43.2987 139.534C43.8861 139.823 44.4783 140.105 45.0752 140.379L44.8666 140.833C45.4662 141.109 46.0705 141.376 46.6794 141.636L46.8754 141.176C47.4785 141.433 48.0862 141.682 48.6983 141.923L48.515 142.388C49.1282 142.629 49.7458 142.863 50.3677 143.088L50.5381 142.618C51.1541 142.841 51.7743 143.057 52.3986 143.264L52.2413 143.738C52.8673 143.946 53.4974 144.145 54.1316 144.336L54.2758 143.857C54.9024 144.046 55.5328 144.227 56.1671 144.399L56.036 144.882C56.6729 145.055 57.3135 145.219 57.9579 145.376L58.0758 144.89C58.7113 145.044 59.3506 145.19 59.9933 145.327L59.8887 145.816C60.2123 145.886 60.5368 145.953 60.8621 146.018C61.1875 146.083 61.5128 146.145 61.8382 146.206L61.9295 145.714C62.5757 145.834 63.2219 145.945 63.8679 146.047L63.7901 146.541C64.4451 146.644 65.0999 146.738 65.7544 146.823L65.8187 146.327C66.4705 146.411 67.122 146.487 67.773 146.553L67.7222 147.051C68.3811 147.118 69.0395 147.176 69.6972 147.225L69.7343 146.726C70.3903 146.775 71.0456 146.814 71.7001 146.845L71.6768 147.344C72.3375 147.375 72.9974 147.397 73.6563 147.41L73.6659 146.91C74.3236 146.922 74.9803 146.926 75.6359 146.92L75.6402 147.42C76.302 147.414 76.9627 147.4 77.6221 147.376L77.604 146.876C78.2604 146.853 78.9154 146.82 79.569 146.778L79.6008 147.277C80.2616 147.235 80.921 147.184 81.5786 147.124L81.5331 146.626C82.1872 146.566 82.8398 146.497 83.4905 146.419L83.5498 146.916C84.2065 146.837 84.8615 146.75 85.5144 146.654L85.4414 146.159C86.0915 146.063 86.7396 145.958 87.3855 145.845L87.4721 146.337C88.1234 146.223 88.7725 146.099 89.4192 145.967L89.3191 145.477C89.9626 145.346 90.6038 145.206 91.2424 145.057L91.3559 145.544C92.0001 145.393 92.6416 145.234 93.2805 145.067L93.1536 144.583C93.7886 144.417 94.4209 144.241 95.0503 144.058L95.1904 144.538C95.8252 144.352 96.4571 144.158 97.0858 143.956L96.9325 143.48C97.5575 143.279 98.1794 143.069 98.7981 142.851L98.9643 143.322C99.5877 143.102 100.208 142.874 100.824 142.638L100.645 142.171C101.258 141.936 101.868 141.692 102.474 141.44L102.666 141.902C103.276 141.648 103.883 141.387 104.486 141.116L104.281 140.66C104.88 140.392 105.475 140.115 106.066 139.831L106.283 140.281C106.879 139.995 107.47 139.7 108.058 139.397L107.829 138.953C108.412 138.652 108.991 138.343 109.566 138.027L109.807 138.465C110.386 138.146 110.96 137.82 111.53 137.485L111.277 137.054C111.843 136.722 112.405 136.382 112.961 136.034L113.226 136.458C113.787 136.109 114.342 135.751 114.893 135.386L114.617 134.969C115.164 134.607 115.706 134.236 116.243 133.859L116.53 134.268C117.071 133.888 117.606 133.5 118.136 133.105L117.837 132.704C118.363 132.313 118.884 131.913 119.4 131.507L119.709 131.899C120.228 131.49 120.741 131.074 121.249 130.65L120.929 130.266C121.433 129.846 121.931 129.419 122.423 128.985L122.754 129.36C123.249 128.923 123.739 128.479 124.223 128.028L123.882 127.663C124.361 127.216 124.835 126.762 125.303 126.301L125.654 126.657C126.125 126.194 126.589 125.724 127.047 125.247L126.687 124.901C127.141 124.428 127.589 123.948 128.032 123.462L128.401 123.798C128.845 123.31 129.283 122.815 129.715 122.314L129.336 121.988C129.763 121.491 130.184 120.988 130.598 120.478L130.986 120.794C131.403 120.281 131.813 119.762 132.217 119.237L131.82 118.933C132.219 118.413 132.612 117.888 132.997 117.356L133.402 117.65C133.789 117.116 134.17 116.576 134.544 116.029L134.131 115.747C134.501 115.206 134.865 114.659 135.221 114.106L135.641 114.377C135.998 113.823 136.348 113.263 136.691 112.697L136.264 112.438C136.603 111.878 136.936 111.312 137.261 110.74L137.696 110.987C138.022 110.414 138.341 109.835 138.652 109.251L138.211 109.016C138.519 108.438 138.82 107.855 139.113 107.267L139.561 107.49C139.855 106.9 140.142 106.304 140.422 105.702L139.968 105.492C140.244 104.898 140.512 104.3 140.773 103.697L141.232 103.895C141.363 103.592 141.493 103.286 141.62 102.98C141.748 102.674 141.873 102.367 141.996 102.06L141.532 101.874C141.776 101.264 142.011 100.652 142.238 100.038L142.707 100.211C142.936 99.5894 143.157 98.9657 143.369 98.3406L142.895 98.1804C143.106 97.5577 143.307 96.9337 143.5 96.3084L143.978 96.4556C144.173 95.8226 144.359 95.1884 144.535 94.553L144.054 94.419C144.23 93.7853 144.397 93.1504 144.555 92.5146L145.041 92.6354C145.2 91.9935 145.351 91.3506 145.492 90.7069L145.004 90.5996C145.145 89.9571 145.277 89.3138 145.4 88.6699L145.891 88.7637C146.016 88.1136 146.131 87.4628 146.237 86.8116L145.743 86.7314C145.848 86.0831 145.945 85.4344 146.032 84.7853L146.527 84.8519C146.616 84.1956 146.695 83.539 146.765 82.8824L146.267 82.8295C146.337 82.1762 146.397 81.5229 146.448 80.8696L146.947 80.9087C146.999 80.2493 147.041 79.59 147.075 78.9309L146.575 78.9055C146.609 78.2492 146.633 77.5931 146.648 76.9375L147.148 76.9491C147.164 76.288 147.17 75.6273 147.167 74.9673L146.667 74.9694C146.664 74.3126 146.652 73.6565 146.631 73.0011L147.131 72.9851C147.11 72.3241 147.08 71.6638 147.041 71.0045L146.542 71.0342C146.503 70.3788 146.455 69.7244 146.398 69.0712L146.896 69.0279C146.839 68.3691 146.772 67.7115 146.697 67.0553L146.2 67.1123C146.125 66.46 146.041 65.8091 145.949 65.1597L146.444 65.089C146.35 64.4347 146.248 63.7819 146.137 63.1309L145.644 63.2151C145.534 62.5679 145.414 61.9225 145.286 61.279L145.776 61.1814C145.647 60.5331 145.509 59.8868 145.363 59.2427L144.875 59.3537C144.729 58.7138 144.575 58.076 144.412 57.4405L144.896 57.3162C144.732 56.6761 144.559 56.0383 144.377 55.403L143.896 55.5405C143.716 54.9096 143.526 54.2812 143.329 53.6555L143.805 53.5048C143.606 52.8747 143.399 52.2473 143.182 51.6229L142.71 51.7865C142.495 51.1666 142.272 50.5495 142.04 49.9354L142.508 49.7589C142.275 49.1408 142.033 48.5258 141.783 47.914L141.32 48.1033C141.072 47.496 140.815 46.8919 140.55 46.2913L141.007 46.0894C140.74 45.4852 140.465 44.8844 140.182 44.2873L139.73 44.5016C139.449 43.909 139.16 43.3199 138.862 42.7347L139.308 42.508C139.008 41.9193 138.701 41.3343 138.385 40.7534L137.945 40.9922C137.632 40.4161 137.311 39.844 136.982 39.2761L137.414 39.0253C137.083 38.4539 136.744 37.8867 136.396 37.3239L135.971 37.5864C135.626 37.0284 135.274 36.4747 134.914 35.9255L135.332 35.6513C134.97 35.0994 134.6 34.5519 134.222 34.0091L133.812 34.2948C133.437 33.7565 133.055 33.2228 132.665 32.694L133.067 32.3972C132.675 31.8661 132.276 31.3398 131.869 30.8186L131.475 31.1264C131.071 30.61 130.66 30.0985 130.242 29.5922L130.627 29.2736C130.206 28.7646 129.778 28.2607 129.342 27.7622L128.966 28.0913C128.535 27.5982 128.096 27.1104 127.651 26.6281L128.018 26.2887C127.57 25.8042 127.115 25.325 126.653 24.8515L126.295 25.2008C125.837 24.7318 125.371 24.2683 124.899 23.8105L125.247 23.4515C124.774 22.9928 124.293 22.5399 123.806 22.0929L123.468 22.4614C122.985 22.0186 122.495 21.5815 121.998 21.1505L122.326 20.7728C121.828 20.3406 121.323 19.9144 120.811 19.4942L120.493 19.8808C119.988 19.4657 119.475 19.0567 118.956 18.6538L119.262 18.2587C118.741 17.8542 118.212 17.4559 117.678 17.064L117.382 17.4673C116.855 17.0807 116.321 16.7003 115.78 16.3264L116.064 15.9152C115.792 15.7269 115.519 15.5403 115.243 15.3553C114.968 15.1702 114.692 14.9873 114.414 14.8065L114.141 15.2253C113.591 14.8661 113.037 14.5154 112.479 14.1732L112.741 13.7471C112.176 13.4001 111.608 13.0616 111.036 12.7317L110.786 13.1647C110.217 12.8362 109.645 12.5161 109.069 12.2047L109.307 11.765C108.725 11.4497 108.139 11.1431 107.551 10.8453L107.325 11.2913C106.738 10.9942 106.148 10.7058 105.556 10.4261L105.769 9.97397C105.171 9.69156 104.57 9.41793 103.967 9.15306L103.766 9.6109C103.163 9.34652 102.558 9.09093 101.951 8.84411L102.139 8.3809C101.526 8.13172 100.91 7.89142 100.293 7.65998L100.117 8.12821C99.5022 7.89782 98.8849 7.67628 98.2655 7.46357L98.4279 6.99068C97.8017 6.77559 97.1733 6.56946 96.543 6.37227L96.3937 6.84947C95.7667 6.65332 95.1379 6.46609 94.5073 6.28776L94.6434 5.80663C94.0069 5.62662 93.3687 5.45562 92.7289 5.2936L92.6061 5.7783C91.9691 5.61696 91.3305 5.4646 90.6906 5.32119L90.7999 4.83329C90.1546 4.68868 89.508 4.55311 88.8602 4.42656L88.7643 4.91728C88.1197 4.79135 87.4739 4.67442 86.8271 4.56646L86.9094 4.07328C86.257 3.96439 85.6036 3.86456 84.9494 3.77378L84.8807 4.26903C84.2304 4.17879 83.5794 4.09756 82.9277 4.02531L82.9828 3.52836C82.3255 3.45549 81.6677 3.39171 81.0094 3.33698L80.968 3.83526C80.3136 3.78086 79.6589 3.73547 79.0039 3.69908L79.0317 3.19985C78.3717 3.16318 77.7115 3.13558 77.0513 3.11702L77.0373 3.61683C76.381 3.59838 75.7247 3.58895 75.0686 3.5885L75.0689 3.0885C74.408 3.08804 73.7472 3.09665 73.0868 3.11429L73.1001 3.61411C72.444 3.63163 71.7883 3.65814 71.1332 3.69361L71.1061 3.19434C70.4462 3.23007 69.7868 3.27482 69.1282 3.32859L69.1689 3.82694C68.5149 3.88034 67.8616 3.94268 67.2092 4.01396L67.1549 3.51692C66.498 3.5887 65.8421 3.66947 65.1873 3.75921L65.2552 4.25458C64.6052 4.34368 63.9563 4.44168 63.3087 4.54857L63.2273 4.05524C62.5755 4.16284 61.925 4.27938 61.276 4.40485L61.3709 4.89576C60.7267 5.02031 60.0841 5.15371 59.4431 5.29596L59.3348 4.80783C58.69 4.95093 58.047 5.1029 57.4059 5.26374L57.5276 5.74872C56.8913 5.90834 56.257 6.07676 55.6247 6.25395L55.4898 5.7725C54.8538 5.95075 54.2199 6.13782 53.5883 6.33369L53.7364 6.81125C53.1101 7.00546 52.4861 7.20838 51.8647 7.42L51.7035 6.94669C51.0783 7.15957 50.4556 7.38119 49.8356 7.61153L50.0097 8.08023C49.395 8.30858 48.783 8.54556 48.1738 8.79114L47.9869 8.32741C47.3747 8.57422 46.7654 8.82966 46.1591 9.09372L46.3587 9.55213C45.7575 9.814 45.1592 10.0844 44.5642 10.3633L44.352 9.9106C43.7544 10.1907 43.1601 10.4794 42.5691 10.7765L42.7937 11.2232C42.2083 11.5176 41.6262 11.8204 41.0476 12.1316L40.8108 11.6913C40.2292 12.0041 39.6511 12.3254 39.0769 12.6551L39.3258 13.0887C38.7578 13.4147 38.1936 13.7491 37.6332 14.0916L37.3724 13.665C36.8095 14.0092 36.2505 14.3616 35.6955 14.7223L35.968 15.1415C35.4183 15.4988 34.8726 15.8642 34.3311 16.2377L34.0472 15.8262C33.5047 16.2004 32.9664 16.5828 32.4325 16.9732L32.7276 17.3768C32.1988 17.7636 31.6742 18.1584 31.1542 18.5611L30.848 18.1658C30.3266 18.5696 29.8096 18.9814 29.2973 19.4012L29.6142 19.7879C29.108 20.2026 28.6064 20.6252 28.1096 21.0555L27.7823 20.6775C27.2834 21.1096 26.7893 21.5495 26.3002 21.9972L26.6377 22.366C26.1553 22.8075 25.6777 23.2567 25.205 23.7135L24.8576 23.354C24.7397 23.4679 24.6221 23.5824 24.5048 23.6973L24.2725 23.4617L23.9165 23.8128L22.7498 22.6295L23.1059 22.2785L22.8735 22.0428C22.9876 21.9311 23.1019 21.8198 23.2165 21.709L22.8689 21.3496C23.3395 20.8943 23.815 20.4462 24.2951 20.0053L24.6333 20.3736C25.1132 19.9329 25.5978 19.4994 26.087 19.0731L25.7585 18.6962C26.2522 18.266 26.7505 17.8431 27.2532 17.4276L27.5717 17.813C28.0734 17.3984 28.5795 16.9911 29.0898 16.5913L28.7815 16.1977C29.2973 15.7936 29.8175 15.397 30.3419 15.0079L30.6398 15.4094C31.1619 15.022 31.6882 14.6422 32.2185 14.2698L31.9311 13.8606C32.4674 13.4841 33.0078 13.1152 33.5521 12.7539L33.8286 13.1706C34.3706 12.8109 34.9165 12.4589 35.4661 12.1145L35.2006 11.6908C35.7552 11.3434 36.3135 11.0038 36.8754 10.672L37.1297 11.1025C37.69 10.7716 38.254 10.4485 38.8214 10.1332L38.5785 9.69617C39.1507 9.37828 39.7263 9.06828 40.3053 8.76619L40.5366 9.20948C41.1129 8.90879 41.6926 8.61599 42.2754 8.3311L42.0558 7.8819C42.644 7.59437 43.2354 7.31485 43.8299 7.04335L44.0376 7.49816C44.6288 7.22816 45.223 6.96615 45.82 6.71216L45.6243 6.25206C46.2265 5.9959 46.8315 5.74783 47.4393 5.50789L47.6229 5.97296C48.2275 5.73424 48.8349 5.50362 49.4447 5.28111L49.2734 4.8114C49.8879 4.5872 50.505 4.37118 51.1244 4.16337L51.2834 4.63741C51.8996 4.4307 52.5182 4.23216 53.1389 4.04183L52.9923 3.56379C53.6178 3.37201 54.2455 3.18849 54.8752 3.01327L55.0092 3.49497C55.6351 3.3208 56.2631 3.15489 56.8928 2.99724L56.7714 2.51221C57.406 2.35336 58.0424 2.20285 58.6806 2.0607L58.7893 2.54874C59.4234 2.40748 60.0592 2.27454 60.6966 2.14992L60.6006 1.65921C61.2424 1.53373 61.8858 1.41664 62.5304 1.30797L62.6135 1.80102C63.2541 1.69303 63.896 1.59342 64.5391 1.50219L64.4689 1.00715C65.1163 0.915308 65.7649 0.831915 66.4145 0.756991L66.4717 1.2537C67.117 1.17927 67.7633 1.11326 68.4103 1.05568L68.366 0.557643C69.0172 0.499696 69.6692 0.450233 70.3219 0.409278L70.3532 0.908296C71.0013 0.867625 71.6501 0.8354 72.2993 0.811643L72.2811 0.311978C72.9344 0.288071 73.5882 0.272683 74.2423 0.265835L74.2476 0.765808C74.8967 0.759012 75.5462 0.760685 76.1958 0.770848L76.2036 0.270909C76.8572 0.281135 77.5109 0.299898 78.1645 0.327222L78.1436 0.826785C78.7923 0.853902 79.441 0.889507 80.0894 0.933621L80.1233 0.434774C80.7752 0.479122 81.4269 0.532013 82.0781 0.593469L82.0311 1.09126C82.6775 1.15225 83.3234 1.22173 83.9688 1.29973L84.0288 0.803342C84.6774 0.88174 85.3256 0.968682 85.9729 1.06419L85.9 1.55884C86.5419 1.65354 87.183 1.75671 87.8233 1.86839L87.9092 1.37583C88.553 1.48812 89.1959 1.60895 89.8377 1.73833L89.7389 2.22847C90.3748 2.35667 91.0097 2.49332 91.6433 2.63846L91.7549 2.15108C92.3915 2.29688 93.0268 2.45119 93.6608 2.61402L93.5364 3.0983C94.1651 3.25979 94.7925 3.42972 95.4183 3.60811L95.5553 3.12727C96.183 3.30617 96.809 3.49353 97.4334 3.68936L97.2837 4.16644C97.9026 4.36055 98.5198 4.56304 99.1351 4.77393L99.2972 4.30094C99.9152 4.51275 100.531 4.73297 101.145 4.96163L100.971 5.4302C101.578 5.6563 102.183 5.8907 102.786 6.13344L102.973 5.6696C103.579 5.9134 104.182 6.16554 104.784 6.42605L104.585 6.88484C105.18 7.14259 105.773 7.40859 106.363 7.68285L106.573 7.22942C107.165 7.50426 107.754 7.78735 108.34 8.0787L108.118 8.52648C108.699 8.81514 109.277 9.11197 109.853 9.41699L110.087 8.97515C110.663 9.28029 111.237 9.59357 111.807 9.915L111.562 10.3506C111.845 10.5103 112.128 10.6719 112.41 10.8357L112.661 10.4033L112.41 10.8357C112.692 10.9994 112.972 11.1647 113.251 11.3316L113.508 10.9025C114.07 11.2387 114.626 11.5813 115.177 11.9303L114.909 12.3526C115.46 12.7014 116.004 13.0567 116.543 13.4182L116.821 13.003C117.365 13.3679 117.903 13.7391 118.435 14.1165L118.146 14.5243C118.676 14.9009 119.201 15.2838 119.72 15.6727L120.02 15.2726C120.544 15.6656 121.062 16.0648 121.574 16.47L121.264 16.8621C121.774 17.2655 122.278 17.675 122.775 18.0902L123.095 17.7064C123.598 18.1264 124.095 18.5523 124.585 18.984L124.255 19.3593C124.743 19.7891 125.225 20.2247 125.7 20.6659L126.041 20.2995C126.52 20.7446 126.993 21.1955 127.46 21.6518L127.11 22.0092C127.575 22.4643 128.034 22.9249 128.486 23.3909L128.845 23.0427C129.301 23.5126 129.75 23.9879 130.192 24.4684L129.824 24.807C130.264 25.2853 130.697 25.7689 131.124 26.2576L131.501 25.9288C131.931 26.4221 132.355 26.9205 132.772 27.424L132.386 27.7428C132.801 28.2434 133.208 28.7491 133.609 29.2596L134.002 28.951C134.406 29.4659 134.803 29.9857 135.193 30.5102L134.791 30.8083C135.179 31.3302 135.559 31.8567 135.933 32.3878L136.342 32.1002C136.718 32.6353 137.087 33.175 137.449 33.7191L137.032 33.9959C137.392 34.5372 137.745 35.0829 138.09 35.6328L138.513 35.367C138.861 35.9211 139.201 36.4795 139.534 37.0421L139.104 37.2967C139.435 37.8558 139.758 38.419 140.074 38.9862L140.511 38.7429C140.829 39.3143 141.14 39.8898 141.443 40.469L141 40.7009C141.302 41.2765 141.595 41.8559 141.881 42.4389L142.33 42.2187C142.618 42.8058 142.898 43.3966 143.171 43.9909L142.717 44.1993C142.987 44.7898 143.25 45.3838 143.506 45.981L143.965 45.7846C144.222 46.3858 144.471 46.9904 144.713 47.5982L144.248 47.7826C144.488 48.3864 144.719 48.9933 144.943 49.6031L145.412 49.4309C145.638 50.0446 145.855 50.6613 146.064 51.2809L145.59 51.4409C145.798 52.0562 145.998 52.6743 146.19 53.295L146.667 53.1475C146.86 53.7721 147.045 54.3995 147.222 55.0293L146.74 55.1644C146.916 55.7895 147.083 56.417 147.242 57.047L147.727 56.9245C147.887 57.5583 148.039 58.1944 148.182 58.8327L147.694 58.9424C147.837 59.5758 147.971 60.2114 148.097 60.8491L148.587 60.7522C148.714 61.3931 148.832 62.0361 148.942 62.681L148.45 62.765C148.559 63.405 148.659 64.0468 148.752 64.6903L149.247 64.6191C149.34 65.2659 149.424 65.9144 149.5 66.5643L149.004 66.6224C149.079 67.2669 149.146 67.9128 149.205 68.5601L149.703 68.515C149.762 69.1659 149.812 69.8181 149.854 70.4715L149.355 70.5035C149.397 71.1508 149.43 71.7994 149.454 72.449L149.954 72.4301C149.979 73.0827 149.995 73.7363 150.002 74.3908L149.502 74.3966C149.51 75.0457 149.509 75.6956 149.499 76.3463L149.999 76.3536C149.99 77.0062 149.972 77.6595 149.945 78.3133L149.445 78.2928C149.419 78.9408 149.384 79.5894 149.34 80.2384L149.839 80.272C149.795 80.9238 149.742 81.576 149.681 82.2284L149.183 82.1818C149.123 82.8269 149.054 83.4723 148.976 84.1177L149.473 84.1774C149.395 84.8257 149.308 85.4741 149.213 86.1224L148.718 86.0498C148.624 86.6912 148.521 87.3327 148.41 87.9739L148.903 88.0595C148.791 88.702 148.671 89.3444 148.542 89.9865L148.052 89.8881C147.924 90.5242 147.788 91.16 147.643 91.7953L148.13 91.9064C147.986 92.542 147.832 93.177 147.67 93.8115L147.186 93.6878C147.105 94.0029 147.022 94.3178 146.938 94.6326C146.853 94.9474 146.766 95.2613 146.678 95.5742L147.159 95.7105C146.98 96.3406 146.794 96.9668 146.6 97.5892L146.123 97.4404C145.929 98.0625 145.727 98.6807 145.518 99.2949L145.992 99.456C145.781 100.076 145.562 100.692 145.336 101.304L144.867 101.13C144.641 101.741 144.408 102.347 144.167 102.949L144.631 103.135C144.388 103.743 144.137 104.347 143.879 104.947L143.42 104.749C143.163 105.346 142.899 105.939 142.627 106.527L143.081 106.737C142.806 107.332 142.524 107.922 142.234 108.508L141.786 108.286C141.498 108.869 141.203 109.448 140.9 110.022L141.342 110.255C141.037 110.834 140.725 111.408 140.405 111.977L139.969 111.732C139.651 112.3 139.325 112.862 138.993 113.42L139.422 113.676C139.087 114.238 138.745 114.795 138.396 115.347L137.973 115.08C137.626 115.629 137.271 116.173 136.91 116.712L137.326 116.991C136.961 117.534 136.59 118.073 136.212 118.606L135.804 118.317C135.429 118.848 135.046 119.372 134.658 119.892L135.058 120.192C134.666 120.715 134.267 121.234 133.862 121.746L133.469 121.436C133.066 121.946 132.657 122.451 132.241 122.949L132.625 123.269C132.206 123.772 131.781 124.268 131.349 124.759L130.974 124.429C130.545 124.917 130.11 125.399 129.668 125.876L130.035 126.215C129.59 126.695 129.14 127.169 128.683 127.637L128.325 127.287C127.871 127.752 127.412 128.211 126.946 128.664L127.295 129.022C126.825 129.478 126.351 129.928 125.87 130.371L125.531 130.003C125.053 130.444 124.57 130.878 124.082 131.306L124.411 131.682C123.919 132.113 123.421 132.537 122.918 132.955L122.599 132.57C122.099 132.985 121.594 133.393 121.084 133.795L121.393 134.188C120.879 134.592 120.36 134.99 119.836 135.381L119.537 134.98C119.016 135.369 118.49 135.75 117.96 136.125L118.248 136.533C117.714 136.91 117.175 137.28 116.631 137.643L116.353 137.228C115.813 137.588 115.268 137.942 114.719 138.288L114.985 138.711C114.432 139.06 113.875 139.401 113.312 139.736L113.057 139.306C112.499 139.638 111.936 139.962 111.369 140.279L111.614 140.716C111.043 141.035 110.468 141.347 109.889 141.652L109.657 141.209C109.082 141.511 108.503 141.806 107.92 142.093L108.141 142.542C107.555 142.831 106.965 143.112 106.371 143.386L106.162 142.932C105.572 143.204 104.979 143.468 104.381 143.724L104.579 144.184C103.978 144.442 103.374 144.692 102.766 144.934L102.581 144.47C101.978 144.71 101.372 144.943 100.762 145.168L100.935 145.637C100.322 145.863 99.7054 146.081 99.0854 146.291L98.9248 145.818C98.3104 146.026 97.6928 146.227 97.0719 146.419L97.22 146.897C96.5963 147.09 95.9694 147.276 95.3393 147.453L95.2038 146.972C94.579 147.148 93.9511 147.316 93.3203 147.476L93.4432 147.961C92.8106 148.121 92.175 148.273 91.5368 148.417L91.4267 147.93C90.794 148.072 90.1586 148.207 89.5205 148.334L89.6178 148.824C88.977 148.951 88.3336 149.07 87.6877 149.181L87.6033 148.688C86.9647 148.797 86.3236 148.898 85.6801 148.991L85.7516 149.486C85.1053 149.579 84.4567 149.664 83.8059 149.741L83.7475 149.244C83.1036 149.32 82.4575 149.387 81.8093 149.447L81.8548 149.944C81.2053 150.004 80.5537 150.055 79.9002 150.097L79.8678 149.598C79.2204 149.64 78.5711 149.674 77.92 149.699L77.9394 150.199C77.288 150.224 76.6349 150.241 75.9801 150.249L75.9737 149.75C75.6486 149.754 75.3231 149.756 74.9973 149.756C74.6591 149.755 74.3214 149.753 73.9843 149.748L73.9771 150.248C73.2985 150.238 72.622 150.219 71.9479 150.192L71.9684 149.692C71.2944 149.664 70.6227 149.628 69.9534 149.582L69.9195 150.081C69.243 150.035 68.5688 149.98 67.8973 149.916L67.9446 149.419C67.2729 149.355 66.6039 149.282 65.9375 149.201L65.8768 149.697C65.2043 149.615 64.5344 149.524 63.8675 149.424L63.9415 148.929C63.2742 148.829 62.6098 148.721 61.9484 148.603L61.861 149.095C61.1943 148.977 60.5306 148.85 59.8701 148.714L59.9709 148.224C59.31 148.088 58.6523 147.943 57.9979 147.79L57.8838 148.277C57.2243 148.122 56.568 147.959 55.9153 147.787L56.0426 147.304C55.3907 147.132 54.7424 146.952 54.0977 146.763L53.9572 147.243C53.3069 147.053 52.6601 146.854 52.0172 146.646L52.1706 146.171C51.5297 145.964 50.8925 145.749 50.2593 145.525L50.0929 145.997C49.4537 145.771 48.8185 145.537 48.1874 145.295L48.3665 144.828C47.7382 144.587 47.114 144.338 46.4941 144.08L46.3023 144.542C45.6762 144.282 45.0544 144.014 44.4371 143.737L44.6413 143.281C44.0275 143.006 43.418 142.723 42.813 142.433L42.5964 142.883C41.9853 142.59 41.3789 142.288 40.7772 141.978L41.0059 141.534C40.4078 141.226 39.8144 140.91 39.2259 140.587L38.9851 141.025C38.3912 140.699 37.8022 140.365 37.2181 140.023L37.4707 139.592C36.89 139.252 36.3144 138.905 35.7439 138.55L35.4798 138.974C34.9047 138.617 34.3348 138.251 33.7702 137.879L34.0456 137.461C33.4842 137.091 32.928 136.713 32.3773 136.327L32.0907 136.737C31.5359 136.349 30.9866 135.953 30.443 135.551L30.7405 135.149C30.1999 134.749 29.6649 134.341 29.1356 133.927L28.8273 134.32C28.2943 133.903 27.7671 133.478 27.2459 133.047L27.5646 132.662C27.0464 132.233 26.5341 131.797 26.0278 131.355L25.6988 131.731C25.189 131.286 24.6854 130.834 24.1879 130.375L24.5269 130.007C24.0326 129.551 23.5445 129.089 23.0627 128.62L22.7139 128.978C22.2289 128.506 21.7503 128.027 21.2781 127.542L21.6364 127.193C21.1674 126.712 20.7048 126.224 20.2488 125.729L19.8813 126.068C19.4224 125.571 18.9702 125.067 18.5248 124.557L18.9013 124.228C18.4588 123.722 18.0231 123.21 17.5943 122.692L17.2091 123.01C16.7777 122.489 16.3533 121.962 15.9359 121.429L16.3295 121.121C15.915 120.591 15.5075 120.056 15.1072 119.516L14.7053 119.813C14.3027 119.27 13.9073 118.72 13.5191 118.165L13.9288 117.879C13.5435 117.328 13.1655 116.772 12.7949 116.211L12.3776 116.486C12.0049 115.921 11.6396 115.351 11.2818 114.776L11.7064 114.512C11.3515 113.942 11.0042 113.366 10.6644 112.785L10.2329 113.038C9.89114 112.454 9.55708 111.865 9.23082 111.271L9.66905 111.03C9.34575 110.442 9.03016 109.848 8.72242 109.25L8.27782 109.479C7.9682 108.877 7.66648 108.271 7.37278 107.66L7.82343 107.443C7.53265 106.838 7.2498 106.229 6.975 105.615L6.51864 105.819C6.24228 105.202 5.97402 104.58 5.71399 103.954L6.17574 103.762C5.91824 103.142 5.66886 102.518 5.42774 101.89L4.96094 102.069C4.71872 101.438 4.48478 100.802 4.25925 100.163L4.73077 99.9968C4.50734 99.3636 4.29222 98.7264 4.08554 98.0855L3.60967 98.2389C3.40235 97.596 3.20346 96.9492 3.01313 96.2989L3.49301 96.1584C3.30434 95.5137 3.12415 94.8654 2.95255 94.2135L2.46903 94.3408C2.2972 93.6881 2.13393 93.0319 1.97936 92.3723L2.46618 92.2582C2.31282 91.6038 2.16808 90.9461 2.03208 90.2852L1.54234 90.386C1.40643 89.7255 1.2792 89.0618 1.16076 88.3951L1.65305 88.3077C1.53555 87.6463 1.42677 86.9819 1.32683 86.3145L0.83234 86.3886C0.73245 85.7216 0.641333 85.0518 0.559107 84.3792L1.05541 84.3186C0.97395 83.6522 0.901274 82.9832 0.837504 82.3115L0.339742 82.3588C0.275984 81.6872 0.221069 81.0131 0.175117 80.3365L0.673967 80.3027C0.628511 79.6334 0.591881 78.9617 0.564195 78.2877L0.0646161 78.3082C0.0369237 77.634 0.0181196 76.9576 0.00831791 76.2789L0.508266 76.2717C0.503397 75.9347 0.500764 75.597 0.500382 75.2589Z" fill="#CFA935" stroke="#CFA935" stroke-dasharray="2 2"/>
<path id="Vector_2" d="M133.327 53.5969H106.662C104.82 53.5969 103.328 52.1046 103.328 50.2634V23.5977H106.662V50.2634H133.327V53.5969Z" fill="#CFA935"/>
<path id="Vector_3" d="M134.993 120.254H131.66V52.6139L104.305 25.2593H18.3324V120.254H15V25.2593C15 23.418 16.4922 21.9258 18.3324 21.9258H104.995C105.437 21.9258 105.86 22.1009 106.173 22.4144L134.505 50.7463C134.818 51.0587 134.993 51.4821 134.993 51.9238V120.254Z" fill="#CFA935"/>
<path id="Vector_4" d="M35.0011 48.596C30.3986 48.596 26.668 44.8643 26.668 40.2629C26.668 35.6603 30.3986 31.9297 35.0011 31.9297C39.6026 31.9297 43.3343 35.6603 43.3343 40.2629C43.3286 44.862 39.6003 48.5903 35.0011 48.596ZM35.0011 35.2632C32.2398 35.2632 30.0015 37.5015 30.0015 40.2629C30.0015 43.0242 32.2398 45.2625 35.0011 45.2625C37.7625 45.2625 40.0008 43.0242 40.0008 40.2629C40.0008 37.5015 37.7625 35.2632 35.0011 35.2632Z" fill="#CFA935"/>
<path id="Vector_5" d="M49.9961 35.2617H71.6621V38.5941H49.9961V35.2617Z" fill="#CFA935"/>
<path id="Vector_6" d="M49.9961 41.9297H56.6619V45.2632H49.9961V41.9297Z" fill="#CFA935"/>
<path id="Vector_7" d="M61.6641 41.9297H79.9966V45.2632H61.6641V41.9297Z" fill="#CFA935"/>
<path id="Vector_8" d="M74.9999 133.592C54.7505 133.592 38.3359 117.176 38.3359 96.9268C38.3359 76.6775 54.7505 60.2617 74.9999 60.2617C95.2492 60.2617 111.665 76.6775 111.665 96.9268C111.642 117.167 95.24 133.569 74.9999 133.592ZM74.9999 63.5952C56.5918 63.5952 41.6683 78.5176 41.6683 96.9268C41.6683 115.335 56.5918 130.258 74.9999 130.258C93.4091 130.258 108.331 115.335 108.331 96.9268C108.311 78.5267 93.3999 63.6158 74.9999 63.5952Z" fill="#CFA935"/>
<path id="Vector_9" d="M74.9979 105.261C71.3165 105.261 68.332 102.276 68.332 98.5943V78.5955C68.332 74.9142 71.3165 71.9297 74.9979 71.9297C78.6804 71.9297 81.6649 74.9142 81.6649 78.5955V98.5943C81.6649 102.276 78.6804 105.261 74.9979 105.261ZM74.9979 75.262C73.1578 75.262 71.6655 76.7543 71.6655 78.5955V98.5943C71.6655 100.436 73.1578 101.928 74.9979 101.928C76.8392 101.928 78.3314 100.436 78.3314 98.5943V78.5955C78.3314 76.7543 76.8392 75.262 74.9979 75.262Z" fill="#CFA935"/>
<path id="Vector_10" d="M74.9979 121.923C71.3165 121.923 68.332 118.938 68.332 115.257C68.332 111.574 71.3165 108.59 74.9979 108.59C78.6804 108.59 81.6649 111.574 81.6649 115.257C81.6649 118.938 78.6804 121.923 74.9979 121.923ZM74.9979 111.923C73.1578 111.923 71.6655 113.416 71.6655 115.257C71.6655 117.097 73.1578 118.589 74.9979 118.589C76.8392 118.589 78.3314 117.097 78.3314 115.257C78.3314 113.416 76.8392 111.923 74.9979 111.923Z" fill="#CFA935"/>
<path id="Vector_11" d="M97.1125 114.633L94.5102 112.547C102.31 102.804 101.729 88.8019 93.1484 79.7386L95.571 77.4453C105.297 87.7182 105.955 103.591 97.1125 114.633Z" fill="#CFA935"/>
<path id="Vector_12" d="M52.8769 114.633C44.0345 103.591 44.6925 87.7182 54.4184 77.4453L56.8398 79.7386C48.2606 88.8019 47.6793 102.804 55.4781 112.547L52.8769 114.633Z" fill="#CFA935"/>
</g>
</g>
<defs>
<clipPath id="clip0_13621_9768">
<rect width="150" height="150" fill="white" transform="translate(0 0.253906)"/>
</clipPath>
</defs>
</svg>
