<svg width="143" height="151" viewBox="0 0 143 151" fill="none" xmlns="http://www.w3.org/2000/svg">
<g id="Icon">
<path id="Vector" d="M94.0962 20.4485C88.1933 17.4032 81.788 15.8594 75.0601 15.8594C72.8296 15.8594 70.6392 16.0333 68.5701 16.3732C49.1987 19.3739 34.3694 35.7721 33.3109 55.3667C33.2697 56.1334 33.2422 56.8979 33.2422 57.6772C33.2422 80.7359 52.0014 99.4951 75.0601 99.4951C98.1188 99.4951 116.878 80.7359 116.878 57.6772C116.878 56.4939 116.823 55.3083 116.726 54.1536C115.52 39.6746 107.058 27.0734 94.0962 20.4485ZM111.944 53.583L99.3284 67.9518H95.569L100.477 55.4972C100.762 54.775 100.671 53.9602 100.235 53.3193C99.7987 52.6773 99.0732 52.294 98.2973 52.294H92.9826V40.6897C92.9826 39.3953 91.9332 38.3459 90.6389 38.3459H85.338V33.5291L93.433 25.4341C103.825 31.3397 110.647 41.6956 111.944 53.583ZM66.5846 21.5484V30.0832H65.2307C63.9364 30.0832 62.887 31.1327 62.887 32.427V44.6493H55.3625C54.0681 44.6493 53.0187 45.6987 53.0187 46.993V52.1635C53.0187 52.6441 53.1664 53.1122 53.441 53.5058L58.8747 61.2833C59.313 61.9104 60.0305 62.2846 60.7961 62.2846H70.0453V66.6139L66.1463 71.2637C65.6668 71.8347 65.4882 72.5992 65.6645 73.3236L68.1696 83.6233H61.556L49.7446 68.8238H53.5074C54.3565 68.8238 55.1405 68.3637 55.5536 67.6222C55.9679 66.8806 55.9484 65.9731 55.5021 65.2498L48.7249 54.2623C48.2981 53.5699 47.5428 53.1488 46.7302 53.1488H38.2347C40.1144 37.7819 51.5267 25.0654 66.5846 21.5484ZM75.0601 94.8076C54.6402 94.8076 38.0247 78.2361 37.9377 57.8363H45.4221L49.3085 64.1363H44.8751C43.9745 64.1363 43.1539 64.6524 42.7637 65.4638C42.3723 66.2752 42.481 67.2388 43.0429 67.9426L58.5954 87.4296C59.0406 87.9858 59.7147 88.3108 60.4276 88.3108H71.1519C71.8706 88.3108 72.5503 87.9812 72.9944 87.4159C73.4384 86.8494 73.5986 86.1124 73.4293 85.4132L70.4996 73.3671L74.1846 68.9726C74.5393 68.5503 74.7328 68.017 74.7328 67.4665V59.9409C74.7328 58.6465 73.6833 57.5971 72.389 57.5971H62.0172L57.7062 51.4253V49.3368H65.2307C66.5251 49.3368 67.5745 48.2874 67.5745 46.993V34.7708H68.9283C70.2226 34.7708 71.2721 33.7214 71.2721 32.427V20.7653C72.5115 20.636 73.7706 20.5469 75.0601 20.5469C79.9151 20.5469 84.562 21.4983 88.9508 23.2879L81.3372 30.9015C80.8977 31.3409 80.6505 31.9372 80.6505 32.5586V40.6896C80.6505 41.984 81.6999 43.0334 82.9943 43.0334H88.2952V54.6377C88.2952 55.932 89.3446 56.9814 90.6389 56.9814H94.8549L89.9466 69.436C89.6616 70.1582 89.7531 70.973 90.1892 71.6138C90.6252 72.2559 91.3508 72.6392 92.1267 72.6392H100.389C101.063 72.6392 101.705 72.3486 102.151 71.8416L112.044 60.5732C110.557 79.6943 94.5561 94.8076 75.0601 94.8076Z" fill="#CFA935"/>
<path id="Vector_2" d="M143.82 129.603L119.533 90.1158C126.194 81.0094 130.139 69.7971 130.139 57.6758C130.139 49.7668 128.498 42.1313 125.26 34.9787C124.726 33.7988 123.333 33.2781 122.158 33.8103C120.979 34.3447 120.456 35.7329 120.989 36.9128C123.95 43.4531 125.451 50.4385 125.451 57.6758C125.451 85.4609 102.846 108.066 75.0605 108.066C47.2754 108.066 24.6699 85.4609 24.6699 57.6758C24.6699 29.8907 47.2754 7.28516 75.0605 7.28516C91.3912 7.28516 106.78 15.2548 116.225 28.6044C116.971 29.6606 118.436 29.9101 119.492 29.164C120.548 28.4167 120.799 26.953 120.052 25.8967C109.729 11.3078 92.9099 2.59766 75.0605 2.59766C44.6902 2.59766 19.9824 27.3054 19.9824 57.6758C19.9824 75.0276 28.0559 90.5212 40.6348 100.624L30.8211 116.58C30.1425 117.682 30.4869 119.126 31.589 119.803C31.9724 120.039 32.3958 120.151 32.8147 120.151C33.602 120.151 34.3711 119.755 34.8128 119.036L44.4183 103.419C47.0078 105.159 49.7581 106.675 52.6324 107.962L32.9234 140.006L28.8047 127.238C28.4499 126.14 27.3536 125.45 26.2103 125.642L12.958 127.725L30.2226 99.6551C30.9012 98.5518 30.5568 97.1087 29.4547 96.4312C28.3492 95.7503 26.9073 96.0959 26.2309 97.1992L6.30098 129.603C5.82147 130.382 5.83862 131.369 6.34675 132.13C6.85258 132.891 7.75438 133.294 8.66073 133.146L24.9583 130.584L30.0234 146.286C30.3038 147.156 31.066 147.784 31.9735 147.893C32.8708 148.005 33.7731 147.574 34.2497 146.794L57.0555 109.716C62.7017 111.675 68.7558 112.754 75.0605 112.754C81.3652 112.754 87.4191 111.675 93.0652 109.716L115.871 146.794C116.348 147.574 117.25 148.005 118.148 147.893C119.055 147.784 119.817 147.156 120.098 146.286L125.163 130.584L141.46 133.146C142.36 133.291 143.267 132.891 143.774 132.13C144.282 131.369 144.3 130.382 143.82 129.603ZM123.911 125.642C122.769 125.459 121.671 126.141 121.316 127.238L117.198 140.006L97.4884 107.962C100.363 106.675 103.113 105.159 105.703 103.419L115.308 119.036C115.75 119.755 116.519 120.151 117.306 120.151C117.725 120.151 118.149 120.039 118.532 119.803C119.634 119.126 119.979 117.682 119.3 116.58L109.486 100.624C111.984 98.6178 114.302 96.3985 116.416 93.9938L137.163 127.725L123.911 125.642Z" fill="#CFA935"/>
</g>
</svg>
