<svg width="150" height="151" viewBox="0 0 150 151" fill="none" xmlns="http://www.w3.org/2000/svg">
<g id="ICONS" clip-path="url(#clip0_13621_9748)">
<g id="Group">
<path id="Vector" d="M7.49277 58.0351L7.64805 57.5532L7.77871 57.153L7.91758 56.7446L8.05645 56.3444L8.19531 55.9442L8.34238 55.544L8.48945 55.1438L8.63652 54.7436L8.78359 54.3434L8.87354 54.1231C9.24092 53.1839 10.2455 52.653 11.2258 52.8897C12.4182 53.1839 13.0797 54.4498 12.6306 55.585L12.557 55.7892L12.41 56.1648L12.2711 56.5404L12.1322 56.9163L12.0016 57.2919L11.8627 57.6757L11.732 58.0512L11.6014 58.435L11.4789 58.8106L11.3318 59.2761C11.103 59.9459 10.5722 60.4442 9.88633 60.6156C8.35029 60.9839 7.00264 59.5381 7.49277 58.0351ZM48.3148 40.4016C48.2647 40.2235 48.2395 40.0398 48.2395 39.855V11.8899C48.2395 11.0541 48.7548 10.3047 49.5355 10.0058L74.2823 0.531812C74.747 0.353979 75.2603 0.353979 75.7249 0.531812L100.472 10.0058C101.252 10.3047 101.768 11.0541 101.768 11.8899V39.855C101.768 40.0398 101.743 40.2235 101.692 40.4016C98.2097 52.774 89.6922 61.1093 75.6531 65.8829C75.4428 65.9544 75.2234 65.9904 75.0036 65.9904C74.7842 65.9904 74.5648 65.9544 74.3541 65.8829C60.315 61.109 51.7976 52.774 48.3148 40.4016ZM52.2739 39.5728C55.3636 50.2372 62.8041 57.528 75.0036 61.8379C87.2031 57.5277 94.6437 50.2369 97.7333 39.5728V13.2777L75.0036 4.57595L52.2739 13.2777V39.5728ZM145.92 78.821L145.912 78.2576C145.887 76.6729 144.107 75.7419 142.784 76.6158C142.204 77.0078 141.869 77.6368 141.878 78.3308L141.894 78.8699V79.2783V79.6785V80.0869V80.4871L141.886 80.8955L141.878 81.2957L141.861 81.7041L141.845 82.2431C141.796 83.6479 143.119 84.6689 144.458 84.2523C145.275 83.9992 145.838 83.2723 145.871 82.4148L145.896 81.8268L145.904 81.3938L145.921 80.9693V80.5363L145.929 80.1115V79.6785V79.2537L145.92 78.821ZM37.2625 22.8097C37.9404 23.3652 38.8715 23.4387 39.6147 22.9732L40.0475 22.7119L40.4069 22.4913L40.7746 22.271L41.142 22.0504L41.5176 21.838L41.8853 21.6256L42.2608 21.4132L42.6364 21.2008L43.0041 21.0048C44.4417 20.2126 44.3925 18.1463 42.9224 17.4194C42.3344 17.1335 41.6564 17.1499 41.0767 17.4601L40.6847 17.6725L40.2845 17.8928L39.8925 18.1217L39.5005 18.342L39.1085 18.5708L38.7165 18.7993L38.3245 19.0363L37.9407 19.273L37.4916 19.5508C36.3232 20.2861 36.2008 21.9194 37.2625 22.8097ZM106.848 20.9148L107.322 21.1679L107.673 21.3639L108.024 21.5599L108.375 21.7641L108.718 21.9601L109.07 22.1643L109.413 22.3767L109.764 22.5809L110.238 22.8751C110.973 23.3242 111.896 23.2753 112.574 22.728C113.652 21.8459 113.546 20.188 112.369 19.4529L111.855 19.1344L111.487 18.9141L111.12 18.6935L110.752 18.4811L110.384 18.2687L110.009 18.0563L109.641 17.8439L109.266 17.6397L108.776 17.3702C108.049 16.9782 107.183 17.0599 106.546 17.5744C105.427 18.4893 105.582 20.2208 106.848 20.9148ZM57.4357 33.1984C57.4357 23.5114 65.3166 15.6305 75.0036 15.6305C84.6906 15.6305 92.5715 23.5114 92.5715 33.1984C92.5715 42.8854 84.6906 50.7663 75.0036 50.7663C65.3166 50.7663 57.4357 42.8854 57.4357 33.1984ZM61.4705 33.1984C61.4705 40.6606 67.5414 46.7315 75.0036 46.7315C82.4658 46.7315 88.5367 40.6606 88.5367 33.1984C88.5367 25.7362 82.4658 19.6653 75.0036 19.6653C67.5414 19.6653 61.4705 25.7362 61.4705 33.1984ZM137.5 55.9035L137.647 56.3037L137.794 56.6957L137.941 57.0959L138.08 57.4879L138.219 57.8881L138.358 58.2801L138.496 58.6802L138.627 59.0968C139.125 60.6323 141.118 60.9918 142.131 59.7338C142.547 59.1947 142.678 58.5168 142.474 57.8717L142.318 57.4061L142.18 56.9813L142.033 56.565L141.885 56.1402L141.738 55.7236L141.583 55.2988L141.428 54.8825L141.264 54.4659L141.068 53.9511C140.529 52.5792 138.741 52.2279 137.72 53.2978C137.189 53.8697 137.025 54.6944 137.311 55.4213L137.5 55.9035ZM8.1543 82.2106L8.13789 81.8022L8.12969 81.402L8.12148 80.9936L8.11328 80.5934L8.10508 80.185V79.7766V79.3764L8.11328 78.968L8.12148 78.5271C8.14609 76.9425 6.45537 75.9464 5.08311 76.7385C4.47871 77.0977 4.10312 77.7267 4.08672 78.4293L4.07852 78.9194V79.3524L4.07031 79.7772L4.07852 80.2102V80.6347L4.08672 81.0677L4.09492 81.5008L4.10312 81.9256L4.11953 82.3586L4.12773 82.5871C4.19307 84.1961 6.02266 85.0946 7.3293 84.1389C7.87656 83.7387 8.17861 83.1182 8.1625 82.4403L8.1543 82.2106ZM70.5827 40.5865C70.9653 41.0098 71.5094 41.2515 72.0798 41.2515C72.0854 41.2515 72.0906 41.2515 72.0962 41.2512C72.6725 41.2468 73.2194 40.9958 73.5988 40.5616L83.6283 29.0863C84.3613 28.2475 84.2758 26.9728 83.4367 26.2398C82.598 25.5062 81.3233 25.5921 80.5902 26.4311L72.0549 36.1967L68.7742 32.5647C68.0277 31.7383 66.7519 31.6732 65.9248 32.42C65.098 33.1668 65.0333 34.4421 65.7801 35.2691L70.5827 40.5865ZM131.142 108.331C131.447 109.403 130.827 110.519 129.755 110.825L114.27 115.243C114.089 115.295 113.902 115.321 113.717 115.321C113.376 115.321 113.039 115.235 112.736 115.066C112.268 114.807 111.923 114.371 111.776 113.857L111.269 112.078L106.015 112.88C106.231 113.521 106.358 114.194 106.381 114.88C106.442 116.691 105.791 118.373 104.55 119.614C101.838 122.337 97.7143 122.579 94.9601 120.172L94.554 119.818C94.2769 120.742 93.8037 121.603 93.1513 122.349C91.953 123.727 90.2802 124.556 88.4444 124.679C86.696 124.797 85.0076 124.26 83.6641 123.164C83.3937 124.074 82.9293 124.941 82.2675 125.702C79.7732 128.556 75.4296 128.852 72.5819 126.363L71.9072 125.775C71.6307 126.701 71.1569 127.564 70.5033 128.311C69.1829 129.829 67.5821 130.306 66.0165 130.306C64.3489 130.306 62.7209 129.765 61.5124 129.364C52.4421 126.342 47.1848 120.142 42.1006 114.145C40.8101 112.624 39.4905 111.069 38.1142 109.579C37.9355 109.959 37.6431 110.278 37.2716 110.485C36.9689 110.653 36.6312 110.739 36.291 110.739C36.1053 110.739 35.9189 110.714 35.7373 110.661L20.2521 106.243C19.1808 105.937 18.5603 104.821 18.8658 103.75C19.1714 102.678 20.2876 102.057 21.3593 102.363L34.9038 106.228L35.1956 105.204C35.2018 105.181 35.2085 105.157 35.2155 105.134L44.0641 74.0904L30.526 70.2253C29.4546 69.9194 28.8344 68.8029 29.1399 67.7318C29.4458 66.6604 30.5617 66.0399 31.6337 66.3458L47.1106 70.7643C48.1814 71.0702 48.8022 72.1858 48.4967 73.2569L48.1521 74.466L56.1127 74.0142C58.9853 73.8575 61.644 74.43 64.0422 75.7129C66.1738 73.3222 68.7347 71.8729 71.8715 71.2846C75.5216 70.5991 82.2473 70.0512 86.2738 74.0886C89.4763 77.2914 97.102 78.7058 101.891 79.2018L101.502 77.8392C101.197 76.7678 101.817 75.6516 102.889 75.3461L118.374 70.9275C119.446 70.6219 120.562 71.2425 120.867 72.3138C121.173 73.3849 120.552 74.5014 119.481 74.807L105.935 78.6721L115.103 110.81L128.648 106.945C129.721 106.638 130.836 107.26 131.142 108.331ZM102.348 115.015C102.321 114.206 101.942 113.405 101.332 112.872L79.0762 93.4665C79.0378 93.4331 79.0009 93.3982 78.9654 93.3622C77.7534 92.132 75.6104 90.6842 70.9053 92.0128L64.665 99.1685C61.7828 102.469 56.7578 102.811 53.4625 99.9338C50.1607 97.0489 49.8183 92.0201 52.6987 88.7239L61.2941 78.8611C59.7772 78.2134 58.1403 77.9426 56.3374 78.0423L46.9814 78.5734L39.4182 105.108C41.4792 107.175 43.3557 109.387 45.1776 111.536C50.1203 117.365 54.7888 122.871 62.7859 125.535C65.6298 126.48 66.7229 126.51 67.4623 125.659C67.9592 125.091 68.2026 124.362 68.1508 123.605C68.0989 122.848 67.7594 122.161 67.1948 121.669L64.5142 119.332C63.6745 118.6 63.5872 117.326 64.3193 116.486C65.0515 115.646 66.3256 115.559 67.1655 116.291L67.1699 116.294L75.2348 123.322C76.4093 124.349 78.199 124.226 79.2265 123.05C80.2451 121.879 80.1235 120.091 78.9528 119.069C78.9522 119.068 78.9517 119.068 78.9511 119.067L68.6383 110.069C67.7986 109.337 67.7119 108.062 68.4443 107.223C69.1768 106.383 70.4512 106.296 71.2908 107.029L81.6024 116.026C81.603 116.027 81.6033 116.027 81.6039 116.027L86.1285 119.964C86.6948 120.461 87.4193 120.707 88.1729 120.653C88.9302 120.602 89.6184 120.262 90.1103 119.697C90.6071 119.128 90.8509 118.4 90.7999 117.645C90.7489 116.891 90.4114 116.205 89.8495 115.713L89.8489 115.713C89.8486 115.713 89.8484 115.712 89.8481 115.712C89.8478 115.712 89.8475 115.712 89.8469 115.711L79.5259 106.713C78.6862 105.981 78.5989 104.706 79.3311 103.866C80.0632 103.027 81.3376 102.939 82.1773 103.671L92.5009 112.672L92.5012 112.672L97.6138 117.131C98.7464 118.121 100.5 117.962 101.694 116.763C102.265 116.194 102.365 115.498 102.348 115.015ZM110.153 108.167L103.075 83.3541C99.1126 83.0535 88.2813 81.8025 83.4186 76.9398C80.599 74.1127 74.9242 74.8167 72.6153 75.25C70.3217 75.6801 68.5319 76.7049 66.9818 78.4756L55.7386 91.3767C55.0536 92.1604 54.717 93.1662 54.7888 94.2109C54.8606 95.2565 55.3322 96.2098 56.1168 96.8951C57.736 98.3092 60.2072 98.1393 61.6252 96.5154L68.2481 88.9208C68.4924 88.6407 68.8091 88.4336 69.1636 88.3219C74.4514 86.6605 78.6959 87.3842 81.7829 90.4726L103.279 109.215L110.153 108.167ZM126.948 121.879L126.776 122.092L126.523 122.402L126.262 122.72L125.992 123.031L125.731 123.341L125.461 123.651L125.192 123.953L124.922 124.263L124.653 124.565L124.391 124.851C123.395 125.954 123.877 127.694 125.29 128.143C126.041 128.363 126.842 128.151 127.373 127.571L127.642 127.269L127.936 126.942L128.222 126.624L128.508 126.297L128.794 125.97L129.072 125.636L129.349 125.309L129.627 124.974L129.905 124.639L130.076 124.427C130.542 123.855 130.656 123.079 130.378 122.393C129.798 120.972 127.919 120.695 126.948 121.879ZM89.9825 144.927L89.6395 145.009L89.2311 145.099L88.8309 145.18L88.4307 145.262L88.0223 145.344L87.6221 145.426L87.2137 145.507L86.8135 145.581L86.4051 145.646L86.1438 145.695C84.6572 145.948 83.955 147.655 84.845 148.872C85.3024 149.493 86.0456 149.795 86.8053 149.673L87.0912 149.624L87.5242 149.55L87.9487 149.469L88.3818 149.387L88.8065 149.305L89.2396 149.215L89.6644 149.125L90.0971 149.036L90.5219 148.937L90.8732 148.864C92.4168 148.504 92.9723 146.618 91.8613 145.474C91.3709 144.984 90.6684 144.772 89.9825 144.927ZM111.152 137.07C110.531 136.792 109.846 136.825 109.265 137.168L108.857 137.405L108.489 137.626L108.114 137.838L107.746 138.05L107.362 138.255L106.987 138.467L106.611 138.671L106.227 138.875L105.844 139.071C104.569 139.741 104.373 141.481 105.476 142.412C106.113 142.935 106.971 143.033 107.706 142.649L108.114 142.436L108.514 142.224L108.914 142.012L109.315 141.791L109.715 141.57L110.115 141.342L110.507 141.113L110.899 140.884L111.332 140.631C112.72 139.798 112.614 137.765 111.152 137.07ZM12.9648 104.736L12.8096 104.344L12.6543 103.952L12.499 103.552L12.352 103.16L12.2049 102.768L12.0578 102.367L11.9189 101.975L11.7883 101.6C11.4862 100.734 10.653 100.187 9.74658 100.244C8.41533 100.342 7.54141 101.657 7.97441 102.915L8.11328 103.315L8.26856 103.74L8.42383 104.156L8.5791 104.581L8.73438 104.997L8.89785 105.414L9.06133 105.83L9.23272 106.247L9.45332 106.794C10.0659 108.264 12.0505 108.485 12.9733 107.186C13.3653 106.606 13.4471 105.904 13.1857 105.259L12.9648 104.736ZM130.606 35.7059L130.329 35.3547L130.059 35.0116L129.773 34.6685L129.496 34.3337L129.21 33.9906L128.924 33.6557L128.638 33.3209L128.352 32.9942L128.18 32.79C127.601 32.1364 126.694 31.9325 125.885 32.2592C124.611 32.7982 124.236 34.399 125.142 35.4525L125.313 35.6485L125.591 35.9591L125.861 36.2775L126.13 36.5878L126.392 36.9062L126.661 37.2329L126.922 37.5513L127.184 37.878L127.445 38.2047L127.649 38.466C128.303 39.2989 129.487 39.4952 130.361 38.899C131.333 38.2454 131.545 36.9062 130.826 35.9834L130.606 35.7059ZM139.631 100.146C138.994 100.317 138.488 100.791 138.267 101.42L138.137 101.787L138.006 102.163L137.867 102.539L137.728 102.923L137.589 103.299L137.451 103.674L137.303 104.042L137.156 104.417L137.009 104.793L136.887 105.095C136.331 106.459 137.361 107.929 138.831 107.88C139.623 107.84 140.317 107.366 140.619 106.631L140.75 106.304L140.905 105.904L141.06 105.512L141.216 105.112L141.371 104.72L141.518 104.32L141.665 103.919L141.804 103.519L141.951 103.119L142.074 102.751C142.604 101.216 141.208 99.7129 139.631 100.146ZM66.632 146.087L66.199 146.03L65.7988 145.981L65.4068 145.924L65.0066 145.867L64.6064 145.801L64.2145 145.736L63.8143 145.671L63.4223 145.605L63.0221 145.532L62.769 145.482C61.1518 145.189 59.8694 146.838 60.572 148.333C60.8497 148.913 61.3806 149.329 62.0175 149.452L62.2952 149.501L62.7197 149.574L63.1363 149.648L63.5608 149.721L63.9774 149.787L64.4023 149.852L64.8189 149.917L65.2437 149.975L65.6685 150.032L66.1258 150.089C66.828 150.178 67.506 149.901 67.9472 149.354C68.9354 148.121 68.2003 146.299 66.632 146.087ZM25.5098 124.737L25.232 124.435L24.9625 124.125L24.6848 123.815L24.4152 123.505L24.1457 123.186L23.8762 122.868L23.6066 122.549L23.3453 122.231L23.1739 122.018C22.7084 121.446 21.9733 121.177 21.2465 121.308C19.7356 121.585 19.0738 123.366 20.0377 124.558L20.2255 124.787L20.5114 125.13L20.7892 125.465L21.0751 125.808L21.361 126.135L21.647 126.47L21.9411 126.796L22.2353 127.131L22.5294 127.45L22.75 127.695C23.8281 128.879 25.7638 128.405 26.1883 126.87C26.3679 126.2 26.2047 125.506 25.7392 124.983L25.5098 124.737ZM20.2826 39.3487C21.0259 39.4794 21.7691 39.2016 22.2347 38.6136L22.4635 38.3195L22.7166 38.001L22.9697 37.6826L23.2229 37.3723L23.4842 37.0539L23.7455 36.7436L24.0068 36.4334L24.2682 36.1231L24.5377 35.8129L24.7337 35.5841C25.8118 34.3589 25.0604 32.4232 23.435 32.2518C22.7816 32.1865 22.1444 32.4314 21.7117 32.9216L21.4911 33.1665L21.2134 33.4931L20.9274 33.8198L20.6497 34.1547L20.372 34.4813L20.1024 34.8162L19.8329 35.1511L19.5634 35.4859L19.2938 35.829L19.065 36.1149C18.1349 37.3149 18.7882 39.0628 20.2826 39.3487ZM44.311 139.161L44.0986 139.047L43.7474 138.867L43.3879 138.671L43.0366 138.483L42.6854 138.287L42.3341 138.1L41.9828 137.895L41.6315 137.699L41.2803 137.495L40.8883 137.267C39.557 136.466 37.8502 137.43 37.8338 138.982C37.8338 139.7 38.2015 140.362 38.8138 140.73L39.2468 140.983L39.6224 141.195L39.99 141.408L40.3656 141.62L40.733 141.824L41.1086 142.028L41.4842 142.233L41.8598 142.429L42.2436 142.633L42.456 142.739C43.975 143.523 45.7229 142.184 45.3473 140.509C45.2175 139.92 44.8419 139.439 44.311 139.161Z" fill="#CFA935"/>
</g>
</g>
<defs>
<clipPath id="clip0_13621_9748">
<rect width="150" height="150" fill="white" transform="translate(0 0.253906)"/>
</clipPath>
</defs>
</svg>
