<svg width="70" height="70" viewBox="0 0 70 70" fill="none" xmlns="http://www.w3.org/2000/svg">
<g clip-path="url(#clip0_7644_2664)">
<path fill-rule="evenodd" clip-rule="evenodd" d="M35.0249 56.9526C22.9141 56.9526 13.0156 47.1187 13.0156 34.9919C13.0156 22.9457 22.8657 13.1118 34.9764 13.1118C47.0225 13.1118 56.8565 22.9457 56.8565 34.9919C56.921 47.1187 47.0871 56.9526 35.0249 56.9526ZM35.0249 15.098C23.996 15.098 15.0664 24.0276 15.0664 34.9919C15.0664 46.0368 23.996 54.9503 35.0249 54.9503C46.0052 54.9503 54.9349 46.0368 54.9349 34.9919C54.9349 24.0276 46.0052 15.098 35.0249 15.098Z" fill="#CFA935"/>
<path fill-rule="evenodd" clip-rule="evenodd" d="M18.1345 36.0254C17.5693 36.0254 17.1172 35.5733 17.1172 34.992C17.1172 25.1581 25.1264 17.1973 35.0249 17.1973C35.5901 17.1973 36.0584 17.6494 36.0584 18.2307C36.0584 18.7959 35.5901 19.248 35.0249 19.248C26.2729 19.248 19.1679 26.353 19.1679 35.0566C19.1033 35.5733 18.7158 36.0254 18.1345 36.0254Z" fill="#CFA935"/>
<path fill-rule="evenodd" clip-rule="evenodd" d="M35.0251 15.0979C34.4599 15.0979 34.0078 14.6457 34.0078 14.129V7.07248C34.0078 6.50731 34.4599 6.05518 35.0251 6.05518C35.5903 6.05518 36.0586 6.50731 36.0586 7.07248V14.0806C35.994 14.6457 35.5418 15.0979 35.0251 15.0979Z" fill="#CFA935"/>
<path fill-rule="evenodd" clip-rule="evenodd" d="M35.0213 8.10604C32.8091 8.10604 30.9844 6.28136 30.9844 4.06914C30.9844 1.84076 32.8091 0.0322266 35.0213 0.0322266C37.2497 0.0322266 39.0582 1.84076 39.0582 4.06914C39.0098 6.28136 37.2497 8.10604 35.0213 8.10604ZM35.0213 2.01839C33.8909 2.01839 32.9705 2.92265 32.9705 4.06914C32.9705 5.19947 33.8909 6.11989 35.0213 6.11989C36.1678 6.11989 37.072 5.19947 37.072 4.06914C37.0074 2.92265 36.1032 2.01839 35.0213 2.01839Z" fill="#CFA935"/>
<path fill-rule="evenodd" clip-rule="evenodd" d="M49.7544 21.234C49.5283 21.234 49.2538 21.121 49.0762 20.9595C48.6725 20.5558 48.6725 19.9261 49.0762 19.5385L54.0174 14.5812C54.4211 14.1936 55.0508 14.1936 55.4384 14.5812C55.8421 14.9849 55.8421 15.6146 55.4384 16.0022L50.4972 20.9595C50.2711 21.121 50.0451 21.234 49.7544 21.234Z" fill="#CFA935"/>
<path fill-rule="evenodd" clip-rule="evenodd" d="M56.857 17.1488C55.8397 17.1488 54.8224 16.7451 54.015 15.9539C52.4325 14.3553 52.4325 11.8039 54.015 10.2699C55.6136 8.73588 58.1649 8.73588 59.7151 10.2699C61.2491 11.8524 61.2491 14.3553 59.7151 15.9539C58.9723 16.7451 57.8904 17.1488 56.857 17.1488ZM56.857 11.1096C56.3564 11.1096 55.7912 11.2872 55.3875 11.6909C54.5963 12.4821 54.5963 13.7901 55.3875 14.5813C56.1788 15.3887 57.4867 15.3887 58.2941 14.5813C59.0207 13.7901 59.0207 12.4821 58.2941 11.6909C57.9389 11.2872 57.3737 11.1096 56.857 11.1096Z" fill="#CFA935"/>
<path fill-rule="evenodd" clip-rule="evenodd" d="M62.8926 36.0254H55.9006C55.3193 36.0254 54.8672 35.5732 54.8672 34.9919C54.8672 34.4267 55.3193 33.9746 55.9006 33.9746H62.8926C63.4577 33.9746 63.9099 34.4267 63.9099 34.9919C63.9099 35.5732 63.4577 36.0254 62.8926 36.0254Z" fill="#CFA935"/>
<path fill-rule="evenodd" clip-rule="evenodd" d="M65.9666 39.0287C63.7544 39.0287 61.9297 37.2201 61.9297 34.9917C61.9297 32.7795 63.7544 30.9548 65.9666 30.9548C68.1788 30.9548 70.0035 32.7795 70.0035 34.9917C70.0035 37.2201 68.1788 39.0287 65.9666 39.0287ZM65.9666 32.9571C64.8201 32.9571 63.9158 33.8614 63.9158 34.9917C63.9158 36.1382 64.8201 37.0425 65.9666 37.0425C67.0969 37.0425 68.0173 36.1382 68.0173 34.9917C68.0173 33.926 67.0485 32.9571 65.9666 32.9571Z" fill="#CFA935"/>
<path fill-rule="evenodd" clip-rule="evenodd" d="M54.7117 55.7578C54.4857 55.7578 54.195 55.6448 54.0174 55.4672L49.0762 50.526C48.6725 50.1223 48.6725 49.4926 49.0762 49.105C49.4799 48.7013 50.0935 48.7013 50.4972 49.105L55.4384 54.0462C55.8421 54.4499 55.8421 55.0796 55.4384 55.4672C55.2123 55.6932 54.9862 55.7578 54.7117 55.7578Z" fill="#CFA935"/>
<path fill-rule="evenodd" clip-rule="evenodd" d="M56.8572 60.9249C55.8399 60.9249 54.8226 60.5374 54.0152 59.73C53.224 58.9388 52.8203 57.9215 52.8203 56.8396C52.8203 55.7577 53.2886 54.7888 54.0152 54.046C55.5493 52.512 58.1167 52.512 59.7154 54.046C61.2494 55.5801 61.2494 58.1475 59.7154 59.6816C58.9726 60.5374 57.8907 60.9249 56.8572 60.9249ZM56.8572 54.9019C56.3566 54.9019 55.8399 55.1279 55.4362 55.5316C55.0487 55.9192 54.8711 56.3874 54.8226 56.888C54.8226 57.4532 55.0487 57.9699 55.4362 58.3736C56.2436 59.1648 57.5516 59.1648 58.3428 58.3736C59.0856 57.5662 59.0856 56.2583 58.3428 55.5316C57.9391 55.0795 57.3739 54.9019 56.8572 54.9019Z" fill="#CFA935"/>
<path fill-rule="evenodd" clip-rule="evenodd" d="M35.0251 63.9447C34.4599 63.9447 34.0078 63.4925 34.0078 62.9274V55.9839C34.0078 55.4187 34.4599 54.9504 35.0251 54.9504C35.5903 54.9504 36.0586 55.4187 36.0586 55.9839V62.9274C35.994 63.4925 35.5418 63.9447 35.0251 63.9447Z" fill="#CFA935"/>
<path fill-rule="evenodd" clip-rule="evenodd" d="M35.0213 69.9676C32.8091 69.9676 30.9844 68.1429 30.9844 65.9307C30.9844 63.7185 32.8091 61.8938 35.0213 61.8938C37.2497 61.8938 39.0582 63.7185 39.0582 65.9307C39.0098 68.1429 37.2497 69.9676 35.0213 69.9676ZM35.0213 63.9445C33.8909 63.9445 32.9705 64.8488 32.9705 65.9953C32.9705 67.1256 33.8909 68.0299 35.0213 68.0299C36.1678 68.0299 37.072 67.1256 37.072 65.9953C37.0074 64.8488 36.1032 63.9445 35.0213 63.9445Z" fill="#CFA935"/>
<path fill-rule="evenodd" clip-rule="evenodd" d="M15.2428 55.7578C15.0168 55.7578 14.7261 55.6448 14.5485 55.4672C14.1609 55.0796 14.1609 54.4499 14.5485 54.0462L19.5058 49.105C19.9095 48.7013 20.5231 48.7013 20.9268 49.105C21.3305 49.4926 21.3305 50.1223 20.9268 50.526L15.9856 55.4672C15.7434 55.6932 15.4689 55.7578 15.2428 55.7578Z" fill="#CFA935"/>
<path fill-rule="evenodd" clip-rule="evenodd" d="M13.1307 60.9249C12.0649 60.9249 11.0315 60.5373 10.2887 59.73C9.49744 58.9387 9.09375 57.9214 9.09375 56.8395C9.09375 55.7576 9.56203 54.7888 10.2887 54.046C11.0315 53.3032 12.1134 52.8511 13.1307 52.8511C14.2126 52.8511 15.1814 53.3032 15.9242 54.046C16.667 54.7242 17.0545 55.7576 17.1191 56.8395C17.1191 57.9214 16.7154 58.9387 15.9242 59.73C15.246 60.4728 14.2126 60.9249 13.1307 60.9249ZM11.6612 58.309C12.0649 58.7127 12.5655 58.8741 13.1307 58.9387C13.6474 58.9387 14.1641 58.7127 14.5032 58.3736C14.9069 57.9699 15.133 57.4532 15.133 56.888C15.133 56.3874 14.9069 55.8707 14.5517 55.5316C14.1641 55.1279 13.712 54.9018 13.1307 54.9018C12.5655 54.9018 12.0649 55.1279 11.6612 55.5316C11.2575 55.9191 11.0961 56.3874 11.0315 56.888C11.0961 57.4047 11.2575 57.9699 11.6612 58.309Z" fill="#CFA935"/>
<path fill-rule="evenodd" clip-rule="evenodd" d="M14.0467 36.0254H7.10324C6.53807 36.0254 6.08594 35.5732 6.08594 34.9919C6.08594 34.4267 6.53807 33.9746 7.10324 33.9746H14.0467C14.6119 33.9746 15.064 34.4267 15.064 34.9919C15.064 35.5732 14.6119 36.0254 14.0467 36.0254Z" fill="#CFA935"/>
<path fill-rule="evenodd" clip-rule="evenodd" d="M4.03691 39.0287C1.82468 39.0287 0 37.2201 0 34.9917C0 32.7795 1.82468 30.9548 4.03691 30.9548C6.24914 30.9548 8.07382 32.7795 8.07382 34.9917C8.07382 37.2201 6.24914 39.0287 4.03691 39.0287ZM4.03691 32.9571C2.90657 32.9571 1.98616 33.8614 1.98616 34.9917C1.98616 36.1382 2.90657 37.0425 4.03691 37.0425C5.16724 37.0425 6.08766 36.1382 6.08766 34.9917C6.08766 33.926 5.16724 32.9571 4.03691 32.9571Z" fill="#CFA935"/>
<path fill-rule="evenodd" clip-rule="evenodd" d="M20.184 21.234C19.9579 21.234 19.6673 21.121 19.5058 20.9595L14.5485 16.0022C14.1609 15.6146 14.1609 14.9849 14.5485 14.5812C14.9522 14.1936 15.5819 14.1936 15.9856 14.5812L20.9268 19.5385C21.3305 19.9261 21.3305 20.5558 20.9268 20.9595C20.7007 21.121 20.4101 21.234 20.184 21.234Z" fill="#CFA935"/>
<path fill-rule="evenodd" clip-rule="evenodd" d="M13.1304 17.1488C12.0647 17.1488 11.0312 16.7451 10.2884 15.9539C8.70595 14.3553 8.70595 11.8039 10.2884 10.2699C11.887 8.73588 14.3899 8.73588 15.9239 10.2699C17.5226 11.8524 17.5226 14.4198 15.9239 15.9539C15.2457 16.7451 14.2123 17.1488 13.1304 17.1488ZM11.661 11.6909C10.8697 12.4821 10.8697 13.7901 11.661 14.5813C12.0647 14.985 12.5652 15.2111 13.1304 15.2111C13.6471 15.2111 14.1638 14.985 14.5029 14.6459C15.2942 13.8385 15.2942 12.5306 14.5029 11.7393C13.7602 10.9481 12.4522 10.9481 11.661 11.6909Z" fill="#CFA935"/>
<path fill-rule="evenodd" clip-rule="evenodd" d="M37.0142 45.3426C36.6267 45.3426 36.223 45.068 36.0615 44.6644L29.7478 26.0138C29.5701 25.4971 29.8608 24.9319 30.3614 24.7705C30.8781 24.5928 31.4433 24.8835 31.6209 25.3841L37.9346 44.0346C38.0961 44.5513 37.8216 45.1165 37.3049 45.2941C37.2564 45.3426 37.1434 45.3426 37.0142 45.3426Z" fill="#CFA935"/>
<path fill-rule="evenodd" clip-rule="evenodd" d="M24.3353 45.3426C24.2223 45.3426 24.1093 45.3426 23.9962 45.2941C23.4795 45.1165 23.205 44.5513 23.3665 44.0346L29.7448 25.3841C29.9063 24.8835 30.4876 24.5928 30.9882 24.7705C31.5049 24.9319 31.7955 25.4971 31.6179 26.0138L25.3042 44.6644C25.1266 45.068 24.7875 45.3426 24.3353 45.3426Z" fill="#CFA935"/>
<path fill-rule="evenodd" clip-rule="evenodd" d="M34.3973 37.6078H27.0178C26.4365 37.6078 25.9844 37.1557 25.9844 36.5905C25.9844 36.0254 26.4365 35.5732 27.0178 35.5732H34.3973C34.9786 35.5732 35.4307 36.0254 35.4307 36.5905C35.4307 37.1557 34.914 37.6078 34.3973 37.6078Z" fill="#CFA935"/>
<path fill-rule="evenodd" clip-rule="evenodd" d="M43.1032 45.3426C42.5381 45.3426 42.0859 44.8905 42.0859 44.3253V25.7878C42.0859 25.2226 42.5381 24.7705 43.1032 24.7705C43.6684 24.7705 44.1367 25.2226 44.1367 25.7878V44.3737C44.1367 44.8905 43.6684 45.3426 43.1032 45.3426Z" fill="#CFA935"/>
<path fill-rule="evenodd" clip-rule="evenodd" d="M45.6033 26.7566H40.5491C39.9839 26.7566 39.5156 26.3044 39.5156 25.7231C39.5156 25.1579 39.9839 24.7058 40.5491 24.7058H45.6033C46.1685 24.7058 46.6367 25.1579 46.6367 25.7231C46.6367 26.3044 46.1685 26.7566 45.6033 26.7566Z" fill="#CFA935"/>
<path fill-rule="evenodd" clip-rule="evenodd" d="M45.6033 45.3425H40.5491C39.9839 45.3425 39.5156 44.8903 39.5156 44.3252C39.5156 43.76 39.9839 43.3079 40.5491 43.3079H45.6033C46.1685 43.3079 46.6367 43.76 46.6367 44.3252C46.6367 44.8903 46.1685 45.3425 45.6033 45.3425Z" fill="#CFA935"/>
</g>
<defs>
<clipPath id="clip0_7644_2664">
<rect width="70" height="70" fill="white"/>
</clipPath>
</defs>
</svg>
