<svg width="70" height="70" viewBox="0 0 70 70" fill="none" xmlns="http://www.w3.org/2000/svg">
<g clip-path="url(#clip0_7644_2629)">
<path fill-rule="evenodd" clip-rule="evenodd" d="M45.0022 23.7372C44.7277 23.7372 44.437 23.6242 44.2109 23.3335C41.9341 20.5561 38.5754 18.909 34.9906 18.909C31.422 18.909 28.0633 20.4915 25.8349 23.3335C25.4958 23.8018 24.8661 23.8502 24.4139 23.5111C23.9618 23.172 23.9134 22.5423 24.2525 22.0901C26.8684 18.796 30.7922 16.9067 34.9906 16.9067C39.2052 16.9067 43.129 18.796 45.745 22.0901C46.0841 22.5423 46.0356 23.172 45.5835 23.5111C45.4059 23.6242 45.2444 23.7372 45.0022 23.7372Z" fill="#CFA935"/>
<path fill-rule="evenodd" clip-rule="evenodd" d="M66.3958 64.5746C66.1051 64.5746 65.8306 64.4615 65.6045 64.187C63.4892 61.5711 60.4211 60.0855 57.0624 60.0855C53.7683 60.0855 50.7003 61.5711 48.5849 64.187C48.2458 64.6392 47.6161 64.6876 47.1639 64.3485C46.7118 64.0094 46.6634 63.3796 47.0025 62.9275C49.4407 59.8595 53.1386 58.0994 57.014 58.0994C60.9379 58.0994 64.6357 59.8595 67.074 62.9275C67.4131 63.3796 67.3646 64.0094 66.9125 64.3485C66.8479 64.5261 66.6218 64.5746 66.3958 64.5746Z" fill="#CFA935"/>
<path fill-rule="evenodd" clip-rule="evenodd" d="M3.6467 64.5746C3.42064 64.5746 3.19457 64.5261 3.03309 64.3485C2.58096 64.0094 2.51637 63.3796 2.85547 62.9275C5.30991 59.8595 9.00772 58.0994 12.9316 58.0994C16.8555 58.0994 20.4887 59.8595 22.9431 62.9275C23.2822 63.3796 23.2176 64.0094 22.7655 64.3485C22.3134 64.6876 21.6836 64.6392 21.3445 64.187C19.2453 61.5711 16.1611 60.0855 12.867 60.0855C9.57289 60.0855 6.44025 61.5711 4.34105 64.187C4.22802 64.4615 3.93736 64.5746 3.6467 64.5746Z" fill="#CFA935"/>
<path fill-rule="evenodd" clip-rule="evenodd" d="M12.9313 57.1789C10.0893 57.1789 7.8125 54.9021 7.8125 52.1247C7.8125 49.2827 10.0893 47.0059 12.9313 47.0059C15.7087 47.0059 17.9855 49.2827 17.9855 52.1247C18.0501 54.9021 15.7087 57.1789 12.9313 57.1789ZM12.9313 48.9436C11.2197 48.9436 9.79866 50.3646 9.79866 52.0601C9.79866 53.7717 11.2197 55.1281 12.9313 55.1281C14.6268 55.1281 15.9994 53.7717 15.9994 52.0601C16.0478 50.3646 14.6268 48.9436 12.9313 48.9436Z" fill="#CFA935"/>
<path fill-rule="evenodd" clip-rule="evenodd" d="M34.9922 28.5653C27.4351 28.5653 21.2344 22.3646 21.2344 14.7429C21.2344 7.1858 27.4351 0.985107 34.9922 0.985107C42.5654 0.985107 48.7661 7.1858 48.7661 14.7429C48.7661 22.3646 42.6138 28.5653 34.9922 28.5653ZM34.9922 2.97127C28.517 2.97127 23.2205 8.26769 23.2205 14.7429C23.2205 21.2988 28.517 26.5791 34.9922 26.5791C41.4835 26.5791 46.7799 21.2988 46.7799 14.7429C46.7799 8.26769 41.4835 2.97127 34.9922 2.97127Z" fill="#CFA935"/>
<path fill-rule="evenodd" clip-rule="evenodd" d="M34.9949 15.7117C31.9914 15.7117 29.6016 13.2734 29.6016 10.3184C29.6016 7.34723 32.0399 4.90894 34.9949 4.90894C38.0145 4.90894 40.4689 7.34723 40.4689 10.3184C40.4689 13.2734 38.0145 15.7117 34.9949 15.7117ZM34.9949 6.89509C33.1217 6.89509 31.5877 8.49371 31.5877 10.3184C31.5877 12.1915 33.1217 13.7255 34.9949 13.7255C36.9326 13.7255 38.4666 12.1915 38.4666 10.3184C38.4666 8.42912 36.9326 6.89509 34.9949 6.89509Z" fill="#CFA935"/>
<path fill-rule="evenodd" clip-rule="evenodd" d="M34.9885 47.3936C32.3726 47.3936 30.2734 45.2944 30.2734 42.6785C30.2734 40.0626 32.3726 37.9634 34.9885 37.9634C37.6206 37.9634 39.7198 40.0626 39.7198 42.6785C39.7198 45.2944 37.6691 47.3936 34.9885 47.3936ZM34.9885 39.9495C33.5191 39.9495 32.2596 41.1929 32.2596 42.6785C32.2596 44.1641 33.5191 45.4074 34.9885 45.4074C36.5387 45.4074 37.7336 44.2125 37.7336 42.6785C37.7336 41.1445 36.5387 39.9495 34.9885 39.9495Z" fill="#CFA935"/>
<path fill-rule="evenodd" clip-rule="evenodd" d="M34.9939 39.9494C34.4287 39.9494 33.9766 39.4973 33.9766 38.9321V27.5481C33.9766 26.9829 34.4287 26.5308 34.9939 26.5308C35.5752 26.5308 36.0273 26.9829 36.0273 27.5481V38.9321C36.0273 39.4973 35.5752 39.9494 34.9939 39.9494Z" fill="#CFA935"/>
<path fill-rule="evenodd" clip-rule="evenodd" d="M47.1694 50.7038C47.008 50.7038 46.8303 50.6392 46.6689 50.5908L37.7392 45.4074C37.2709 45.1167 37.1095 44.5031 37.384 44.051C37.6746 43.5827 38.3044 43.4212 38.7565 43.6957L47.6862 48.8791C48.1383 49.1698 48.3159 49.7834 48.0253 50.2517C47.8638 50.5262 47.5085 50.7038 47.1694 50.7038Z" fill="#CFA935"/>
<path fill-rule="evenodd" clip-rule="evenodd" d="M22.881 50.7039C22.5419 50.7039 22.2028 50.5262 22.0252 50.1871C21.7507 49.735 21.9122 49.1053 22.3643 48.8146L31.2939 43.6474C31.7622 43.3567 32.3758 43.5343 32.6665 43.9865C32.9571 44.4386 32.7795 45.0683 32.3274 45.359L23.3977 50.5908C23.2201 50.6393 23.0586 50.7039 22.881 50.7039Z" fill="#CFA935"/>
<path fill-rule="evenodd" clip-rule="evenodd" d="M57.127 69.0151C50.0058 69.0151 44.2734 63.2181 44.2734 56.1616C44.2734 49.1051 50.0058 43.3081 57.127 43.3081C64.2319 43.3081 69.9805 49.1051 69.9805 56.1616C69.9805 63.2181 64.2319 69.0151 57.127 69.0151ZM57.127 45.2943C51.1523 45.2943 46.2596 50.187 46.2596 56.1616C46.2596 62.1362 51.1523 67.029 57.127 67.029C63.1016 67.029 67.9943 62.1362 67.9943 56.1616C67.9943 50.187 63.1016 45.2943 57.127 45.2943Z" fill="#CFA935"/>
<path fill-rule="evenodd" clip-rule="evenodd" d="M57.1329 57.1789C54.3393 57.1789 52.0625 54.9021 52.0625 52.1247C52.0625 49.2827 54.3393 47.0059 57.1329 47.0059C59.9748 47.0059 62.2517 49.2827 62.2517 52.1247C62.2517 54.9021 59.9748 57.1789 57.1329 57.1789ZM57.1329 48.9436C55.4212 48.9436 54.0648 50.3646 54.0648 52.0601C54.0648 53.7717 55.4212 55.1281 57.1329 55.1281C58.8284 55.1281 60.2655 53.7717 60.2655 52.0601C60.2655 50.3646 58.8284 48.9436 57.1329 48.9436Z" fill="#CFA935"/>
<path fill-rule="evenodd" clip-rule="evenodd" d="M12.9337 69.0151C5.81263 69.0151 0.015625 63.2181 0.015625 56.1616C0.015625 49.1051 5.81263 43.3081 12.9337 43.3081C20.0387 43.3081 25.7873 49.1051 25.7873 56.1616C25.7873 63.2181 20.0387 69.0151 12.9337 69.0151ZM12.9337 45.2943C6.89452 45.2943 2.00178 50.187 2.00178 56.1616C2.00178 62.1362 6.89452 67.029 12.9337 67.029C18.9084 67.029 23.7849 62.1362 23.7849 56.1616C23.7849 50.187 18.9084 45.2943 12.9337 45.2943Z" fill="#CFA935"/>
</g>
<defs>
<clipPath id="clip0_7644_2629">
<rect width="70" height="70" fill="white"/>
</clipPath>
</defs>
</svg>
