<svg width="70" height="70" viewBox="0 0 70 70" fill="none" xmlns="http://www.w3.org/2000/svg">
<g clip-path="url(#clip0_7644_1826)">
<path d="M63.1094 26.1543V23.1602C63.1094 16.7617 58.4746 11.5391 52.7598 11.5391H47.4688C46.9219 7.64258 43.5586 4.63477 39.5117 4.63477C35.4648 4.63477 35.1914 5.57812 33.7285 7.0957V5.76953C33.7285 5.14062 33.2227 4.63477 32.5938 4.63477H25.1973C24.5684 4.63477 24.0625 5.14062 24.0625 5.76953V11.6758C22.0527 12.2227 20.1113 13.0156 18.3066 14.0684L14.1367 9.89844C13.9316 9.69336 13.6445 9.57031 13.3438 9.57031C13.043 9.57031 12.7559 9.69336 12.5508 9.89844L5.25 17.1992C4.8125 17.6367 4.8125 18.3613 5.25 18.7988L9.41992 22.9688C8.38086 24.7871 7.57422 26.7148 7.02734 28.7246H1.13477C0.505859 28.7246 0 29.2305 0 29.8594V40.1816C0 40.8105 0.505859 41.3164 1.13477 41.3164H7.04102C7.58789 43.3262 8.38086 45.2676 9.43359 47.0723L5.26367 51.2422C4.82617 51.6797 4.82617 52.4043 5.26367 52.8418L12.5645 60.1426C12.7695 60.3477 13.0566 60.4707 13.3574 60.4707C13.6582 60.4707 13.9453 60.3477 14.1504 60.1426L18.3203 55.9727C20.1387 57.0254 22.0664 57.8184 24.0762 58.3652V64.2715C24.0762 64.9004 24.582 65.4062 25.2109 65.4062H32.6074C33.2363 65.4062 33.7422 64.9004 33.7422 64.2715V62.9453C35.2051 64.4629 37.2559 65.4062 39.5254 65.4062C43.5723 65.4062 46.9355 62.3984 47.4824 58.502H52.7734C58.4746 58.502 63.123 53.293 63.123 46.8809V43.8867C67.0195 43.3398 70.0137 39.9902 70.0137 35.9434V34.1523C70.0137 30.1191 67.0059 26.7559 63.123 26.209L63.1094 26.1543ZM31.4727 46.6484C31.1035 46.6895 30.7344 46.7031 30.3652 46.7031C23.9121 46.7031 18.6621 41.4531 18.6621 35C18.6621 28.5469 23.9121 23.2969 30.3652 23.2969C36.8184 23.2969 31.1035 23.3105 31.4727 23.3516V46.6621V46.6484ZM31.4727 63.1094H26.332V57.4492C26.332 56.916 25.9629 56.4648 25.457 56.3555C23.0781 55.8086 20.8223 54.8789 18.7441 53.5664C18.293 53.293 17.7188 53.3477 17.3496 53.7305L13.3438 57.7363L7.64258 52.0352L11.6484 48.0293C12.0176 47.6602 12.0859 47.0723 11.8125 46.6348C10.5137 44.5566 9.57031 42.3008 9.02344 39.9219C8.90039 39.4023 8.44922 39.0469 7.92969 39.0469H2.25586V30.9805H7.91602C8.44922 30.9805 8.90039 30.6113 9.00977 30.1055C9.55664 27.7266 10.4863 25.4707 11.7988 23.3926C12.0723 22.9414 12.0176 22.3672 11.6348 21.998L7.62891 17.9922L13.3301 12.291L17.3359 16.2969C17.7051 16.666 18.293 16.7344 18.7305 16.4609C20.8086 15.1621 23.0645 14.2188 25.4434 13.6719C25.9629 13.5488 26.3184 13.0977 26.3184 12.5781V6.91797H31.459V21.0957C31.0898 21.0684 30.7207 21.0547 30.3516 21.0547C22.6543 21.0547 16.3926 27.3164 16.3926 35.0273C16.3926 42.7383 22.6543 48.9863 30.3516 48.9863C38.0488 48.9863 31.0898 48.9727 31.459 48.9453V63.1231L31.4727 63.1094ZM67.7441 35.9023C67.7441 39.0742 65.1602 41.6582 61.9883 41.6582C58.8164 41.6582 60.8535 42.1641 60.8535 42.793V46.8398C60.8535 51.9941 57.2305 56.1914 52.7734 56.1914H46.4297C45.8008 56.1914 45.2949 56.6973 45.2949 57.3262C45.2949 60.5117 42.6973 63.1094 39.5117 63.1094C36.3262 63.1094 33.7422 60.5254 33.7285 57.3398V12.6602C33.7285 9.47461 36.3262 6.89062 39.5117 6.89062C42.6973 6.89062 45.2949 9.48828 45.2949 12.6738C45.2949 15.8594 45.8008 13.8086 46.4297 13.8086H52.7734C57.2305 13.8086 60.8535 18.0059 60.8535 23.1602V27.207C60.8535 27.8359 61.3594 28.3418 61.9883 28.3418C65.1602 28.3418 67.7441 30.9258 67.7441 34.0977V35.8887V35.9023ZM53.8945 30.8711C52.0078 30.8711 50.4219 32.1426 49.9297 33.8652H40.6465V24.2813C42.3691 23.7891 43.6406 22.2031 43.6406 20.3164C43.6406 18.4297 41.7949 16.1875 39.5117 16.1875C37.2285 16.1875 35.3828 18.0332 35.3828 20.3164C35.3828 22.5996 36.6543 23.7891 38.377 24.2813V45.7051C36.6543 46.1973 35.3828 47.7832 35.3828 49.6699C35.3828 51.5566 37.2285 53.7988 39.5117 53.7988C41.7949 53.7988 43.6406 51.9531 43.6406 49.6699C43.6406 47.3867 42.3691 46.1973 40.6465 45.7051V36.1211H49.9297C50.4219 37.8438 52.0078 39.1152 53.8945 39.1152C55.7812 39.1152 58.0234 37.2695 58.0234 34.9863C58.0234 32.7031 56.1777 30.8574 53.8945 30.8574V30.8711ZM37.6387 20.3164C37.6387 19.291 38.4727 18.4434 39.5117 18.4434C40.5508 18.4434 41.3848 19.2773 41.3848 20.3164C41.3848 21.3555 40.5508 22.1895 39.5117 22.1895C38.4727 22.1895 37.6387 21.3555 37.6387 20.3164ZM41.3711 49.6836C41.3711 50.709 40.5371 51.5566 39.498 51.5566C38.459 51.5566 37.625 50.7227 37.625 49.6836C37.625 48.6445 38.459 47.8106 39.498 47.8106C40.5371 47.8106 41.3711 48.6445 41.3711 49.6836ZM53.8945 36.8731C52.8691 36.8731 52.0215 36.0391 52.0215 35C52.0215 33.9609 52.8555 33.127 53.8945 33.127C54.9336 33.127 55.7676 33.9609 55.7676 35C55.7676 36.0391 54.9336 36.8731 53.8945 36.8731Z" fill="#CFA935"/>
</g>
<defs>
<clipPath id="clip0_7644_1826">
<rect width="70" height="70" fill="white"/>
</clipPath>
</defs>
</svg>
