<svg width="70" height="70" viewBox="0 0 70 70" fill="none" xmlns="http://www.w3.org/2000/svg">
<path fill-rule="evenodd" clip-rule="evenodd" d="M59.7461 70H10.2539C9.70703 70 9.29688 69.5898 9.29688 69.043V0.957031C9.29688 0.410156 9.70703 0 10.2539 0H49.9023H50.3125C50.3125 0.136719 50.4492 0.136719 50.5859 0.273438L60.5664 10.1172C60.5664 10.2539 60.7031 10.2539 60.7031 10.3906V10.8008V69.043C60.7031 69.5898 60.293 70 59.7461 70ZM11.2109 67.9492H58.7891V11.8945H49.9023C49.3555 11.8945 48.8086 11.3477 48.8086 10.8008V2.05078H11.2109V67.9492ZM50.8594 9.84375H57.2852L50.8594 3.41797V9.84375Z" fill="#CFA935"/>
<path fill-rule="evenodd" clip-rule="evenodd" d="M23.6523 65.0781C23.3789 65.0781 22.9688 64.9414 22.832 64.668L21.0547 61.7969L17.6367 62.4805C17.3633 62.6172 16.9531 62.4805 16.8164 62.207C16.543 62.0703 16.4062 61.6602 16.543 61.3867L17.3633 58.1055L14.4922 56.1914C14.2188 56.0547 13.9453 55.6445 13.9453 55.3711C13.9453 54.9609 14.2188 54.6875 14.4922 54.5508L17.2266 52.7734L16.543 49.3555C16.4062 48.9453 16.543 48.6719 16.8164 48.3984C16.9531 48.125 17.3633 48.125 17.6367 48.125L20.918 48.9453L22.832 46.0742C22.9688 45.8008 23.2422 45.5273 23.6523 45.5273C24.0625 45.5273 24.3359 45.8008 24.4727 46.0742L26.25 48.8086L29.668 48.125C29.9414 48.125 30.3516 48.125 30.625 48.3984C30.7617 48.6719 30.8984 48.9453 30.8984 49.3555L30.0781 52.6367L32.9492 54.4141C33.2227 54.6875 33.3594 54.9609 33.3594 55.3711C33.3594 55.6445 33.2227 56.0547 32.9492 56.1914L30.0781 57.9688L30.7617 61.25C30.8984 61.6602 30.7617 61.9336 30.4883 62.207C30.2148 62.4805 29.9414 62.4805 29.5312 62.4805L26.3867 61.6602L24.4727 64.5312C24.3359 64.9414 24.0625 65.0781 23.6523 65.0781ZM21.6016 59.6094C21.875 59.6094 22.2852 59.7461 22.4219 60.1562L23.7891 62.207L25.1562 60.0195C25.4297 59.7461 25.8398 59.4727 26.25 59.6094L28.5742 60.1562L28.0273 57.6953C27.8906 57.2852 28.1641 56.7383 28.5742 56.6016L30.625 55.2344L28.4375 53.8672C28.1641 53.5938 27.8906 53.1836 28.0273 52.7734L28.5742 50.3125L26.1133 50.8594C25.7031 50.9961 25.1562 50.8594 25.0195 50.4492L23.6523 48.3984L22.2852 50.5859C22.0117 50.8594 21.6016 51.1328 21.1914 50.9961L18.7305 50.4492L19.2773 53.0469C19.4141 53.457 19.2773 53.8672 18.8672 54.1406L16.8164 55.3711L19.0039 56.7383C19.2773 57.0117 19.4141 57.4219 19.4141 57.832L18.8672 60.1562L21.3281 59.7461C21.4648 59.6094 21.4648 59.6094 21.6016 59.6094Z" fill="#CFA935"/>
<path fill-rule="evenodd" clip-rule="evenodd" d="M49.3573 60.1562C49.2206 60.1562 49.2206 60.1562 49.3573 60.1562C48.8104 60.1562 48.537 59.746 48.4002 59.4726C47.9901 58.5155 47.7166 56.0546 47.5799 55.5077L47.3065 53.3202C47.1698 52.4999 47.1698 51.6796 47.0331 50.8593C46.4862 52.3632 45.8026 54.0038 45.119 55.0976C44.9823 55.2343 44.9823 55.371 44.8456 55.5077C44.0252 57.1484 43.0682 58.6523 41.8377 58.6523C41.5643 58.6523 41.0174 58.6523 40.6073 58.2421C40.4706 58.2421 40.3338 58.2421 40.1971 58.3788C39.3768 58.6523 37.4627 59.3359 36.7791 57.4218C36.5057 57.0116 36.7791 56.328 37.326 56.1913C37.7362 55.9179 38.4198 56.1913 38.5565 56.7382C38.8299 56.7382 39.3768 56.4648 39.6502 56.328C40.1971 56.1913 41.1541 55.7812 41.8377 56.6015C42.1112 56.328 42.5213 55.6445 43.0682 54.6874C43.2049 54.414 43.3416 54.2773 43.3416 54.1405C44.162 52.7734 44.8456 50.8593 45.6659 48.9452C45.9393 47.9882 46.3495 47.1679 46.6229 46.3476C46.7596 46.0741 46.8963 45.9374 46.8963 45.8007C47.1698 45.5273 47.5799 45.3905 47.9901 45.5273C48.2635 45.664 48.537 45.9374 48.6737 46.2109C48.9471 47.3046 48.9471 48.6718 49.0838 50.039C49.0838 50.996 49.0838 52.0898 49.3573 52.9101L49.6307 55.2343V55.5077L50.0409 54.6874C50.3143 53.7304 50.7245 52.9101 51.5448 52.9101C52.3651 52.9101 52.6385 53.5937 52.7752 54.0038C52.912 54.0038 52.912 54.2773 53.0487 54.2773C53.4588 54.414 53.869 54.8241 53.869 55.371C53.869 55.9179 53.4588 56.328 52.7752 56.328C52.2284 56.328 51.8182 56.0546 51.5448 55.7812C50.9979 57.0116 50.5877 58.3788 50.0409 59.4726C50.0409 59.8827 49.6307 60.1562 49.3573 60.1562Z" fill="#CFA935"/>
<path fill-rule="evenodd" clip-rule="evenodd" d="M54.8242 62.6172H36.6406C36.0938 62.6172 35.5469 62.207 35.5469 61.5234C35.5469 60.9766 36.0938 60.5664 36.6406 60.5664H54.8242C55.5078 60.5664 55.918 60.9766 55.918 61.5234C55.918 62.207 55.5078 62.6172 54.8242 62.6172Z" fill="#CFA935"/>
<path fill-rule="evenodd" clip-rule="evenodd" d="M37.3242 18.0469H20.0977C18.457 18.0469 16.9531 16.6797 16.9531 14.9023V10.2539C16.9531 8.47656 18.457 7.10938 20.0977 7.10938H37.3242C39.1016 7.10938 40.4688 8.47656 40.4688 10.2539V14.9023C40.4688 16.6797 38.9648 18.0469 37.3242 18.0469ZM20.0977 9.02344C19.5508 9.02344 19.0039 9.57031 19.0039 10.2539V14.9023C19.0039 15.4492 19.5508 15.9961 20.0977 15.9961H37.3242C37.8711 15.9961 38.418 15.5859 38.418 14.9023V10.2539C38.418 9.57031 38.0078 9.02344 37.3242 9.02344H20.0977Z" fill="#CFA935"/>
<path fill-rule="evenodd" clip-rule="evenodd" d="M34.5859 25.5664H17.2227C16.6758 25.5664 16.2656 25.1562 16.2656 24.6094C16.2656 23.9258 16.6758 23.5156 17.2227 23.5156H34.5859C35.1328 23.5156 35.543 23.9258 35.543 24.6094C35.543 25.1562 35.1328 25.5664 34.5859 25.5664Z" fill="#CFA935"/>
<path fill-rule="evenodd" clip-rule="evenodd" d="M52.7695 30.8984H17.2227C16.6758 30.8984 16.2656 30.4883 16.2656 29.9414C16.2656 29.3945 16.6758 28.8477 17.2227 28.8477H52.7695C53.3164 28.8477 53.7266 29.3945 53.7266 29.9414C53.7266 30.4883 53.3164 30.8984 52.7695 30.8984Z" fill="#CFA935"/>
<path fill-rule="evenodd" clip-rule="evenodd" d="M52.7695 36.2305H17.2227C16.6758 36.2305 16.2656 35.8203 16.2656 35.2734C16.2656 34.7266 16.6758 34.1797 17.2227 34.1797H52.7695C53.3164 34.1797 53.7266 34.7266 53.7266 35.2734C53.7266 35.8203 53.3164 36.2305 52.7695 36.2305Z" fill="#CFA935"/>
<path fill-rule="evenodd" clip-rule="evenodd" d="M52.7695 41.5625H17.2227C16.6758 41.5625 16.2656 41.1523 16.2656 40.6055C16.2656 39.9219 16.6758 39.5117 17.2227 39.5117H52.7695C53.3164 39.5117 53.7266 39.9219 53.7266 40.6055C53.7266 41.1523 53.3164 41.5625 52.7695 41.5625Z" fill="#CFA935"/>
</svg>
