<svg width="16" height="16" viewBox="0 0 16 16" fill="none" xmlns="http://www.w3.org/2000/svg">
<path d="M14.3495 4.74323C14.3559 4.88389 14.3591 5.0252 14.3591 5.16714C14.3591 9.49657 11.0634 14.4885 5.038 14.4885C3.18772 14.4885 1.46544 13.9461 0.015625 13.0165C0.27225 13.0469 0.532688 13.0625 0.79725 13.0625C2.33228 13.0625 3.74469 12.5388 4.86628 11.6599C3.43231 11.6336 2.22266 10.6863 1.80572 9.38473C2.00597 9.42307 2.21097 9.44367 2.42228 9.44367C2.72072 9.44367 3.01028 9.40345 3.28531 9.32867C1.78672 9.02764 0.657188 7.70364 0.657188 6.11632C0.657188 6.10239 0.657188 6.08876 0.657531 6.07514C1.09919 6.32036 1.60422 6.4677 2.14153 6.48479C1.26234 5.89742 0.684125 4.89464 0.684125 3.75786C0.684125 3.15748 0.845375 2.59479 1.12766 2.11098C2.7435 4.09304 5.15706 5.39711 7.87991 5.53398C7.82416 5.29414 7.79497 5.04417 7.79497 4.78723C7.79497 2.97814 9.26188 1.51123 11.071 1.51123C12.0139 1.51123 12.8648 1.90917 13.4624 2.54567C14.2088 2.39898 14.9097 2.1262 15.5427 1.75073C15.2981 2.51589 14.7791 3.15776 14.1024 3.56329C14.7652 3.48407 15.3969 3.30795 15.9843 3.04751C15.5452 3.70432 14.9895 4.28126 14.3495 4.74323Z" fill="#D4AB4C"/>
</svg>
