<svg width="70" height="70" viewBox="0 0 70 70" fill="none" xmlns="http://www.w3.org/2000/svg">
<g clip-path="url(#clip0_2134_420)">
<path fill-rule="evenodd" clip-rule="evenodd" d="M6.01562 40.1953C5.46875 40.1953 5.05859 39.7852 5.05859 39.1016V35C5.05859 29.1211 9.84375 24.3359 15.7227 24.3359C16.2695 24.3359 16.6797 24.7461 16.6797 25.293C16.6797 25.8398 16.2695 26.3867 15.7227 26.3867C10.9375 26.3867 6.97266 30.2148 6.97266 35V39.2383C6.97266 39.7852 6.5625 40.1953 6.01562 40.1953ZM35 31.1719C34.5898 31.1719 34.3164 30.8984 34.043 30.625C32.6758 28.0273 29.9414 26.3867 26.9336 26.25C26.3867 26.25 25.9766 25.8398 25.9766 25.293C25.9766 24.7461 26.3867 24.3359 26.9336 24.3359C30.625 24.4727 34.043 26.5234 35.8203 29.668C36.0938 30.0781 35.957 30.7617 35.4102 31.0352C35.2734 31.0352 35.1367 31.1719 35 31.1719Z" fill="#CFA935"/>
<path fill-rule="evenodd" clip-rule="evenodd" d="M21.3281 34.7265C21.0547 34.7265 20.918 34.5898 20.7812 34.5898L15.1758 30.4882C14.9023 30.3515 14.7656 30.078 14.7656 29.6679L14.6289 25.2929C14.6289 24.8827 14.9023 24.4726 15.3125 24.3359C15.7227 24.1991 16.1328 24.3359 16.4062 24.6093L22.0117 30.4882C22.1484 30.6249 22.2852 30.8984 22.2852 31.1718V33.6327C22.2852 34.0429 22.1484 34.453 21.7383 34.5898C21.7383 34.7265 21.4648 34.7265 21.3281 34.7265ZM16.6797 29.2577L20.3711 31.8554V31.582L16.6797 27.8905V29.2577Z" fill="#CFA935"/>
<path fill-rule="evenodd" clip-rule="evenodd" d="M21.3281 34.7266C21.0547 34.7266 20.7812 34.5898 20.5078 34.3164C20.2344 33.9062 20.3711 33.2227 20.7812 32.9492L25.9766 29.2578V27.8906L22.1484 31.9922C21.7383 32.2656 21.0547 32.2656 20.6445 31.9922C20.2344 31.582 20.2344 30.8984 20.6445 30.625L26.25 24.6094C26.5234 24.3359 26.9336 24.1992 27.3438 24.4727C27.7539 24.6094 27.8906 24.8828 27.8906 25.293V29.668C27.8906 30.0781 27.7539 30.3516 27.4805 30.4883L21.875 34.5898C21.7383 34.5898 21.6016 34.7266 21.3281 34.7266Z" fill="#CFA935"/>
<path fill-rule="evenodd" clip-rule="evenodd" d="M13.9454 16.8164C13.2618 16.8164 12.5782 16.4062 12.168 15.8593C10.5274 13.9453 10.8008 8.88668 11.211 6.1523C11.4844 3.82808 13.3985 3.00777 15.1758 2.32418C15.4493 2.18746 15.7227 2.18746 15.9962 2.05074C16.2696 1.91402 16.543 1.64058 16.8165 1.36715C17.5001 0.820271 18.1837 0.273396 19.2774 0.136677C24.7462 -0.546917 30.7618 1.50386 31.3087 5.87886C31.4454 7.65621 32.129 13.6718 30.2149 15.8593C29.8047 16.4062 29.2579 16.6796 28.4376 16.8164C28.1641 16.8164 27.8907 16.6796 27.754 16.5429C27.6172 16.2695 27.3438 16.1328 27.3438 15.8593C27.3438 10.2539 26.3868 9.84371 24.8829 9.57027C21.8751 9.29683 18.4571 9.0234 16.6797 10.5273C15.586 11.6211 14.9024 13.2617 14.9024 15.8593C14.9024 16.1328 14.7657 16.4062 14.629 16.5429C14.3555 16.6796 14.2188 16.8164 13.9454 16.8164ZM21.0547 2.05074C20.5079 2.05074 19.961 2.18746 19.4141 2.18746C19.004 2.18746 18.5938 2.59761 18.0469 3.00777C17.6368 3.28121 17.2266 3.69136 16.6797 3.9648C16.4063 4.10152 16.1329 4.10152 15.8594 4.23824C14.0821 4.92183 13.2618 5.33199 12.9883 6.42574C12.7149 9.43355 12.7149 11.8945 13.1251 13.5351C13.3985 11.6211 14.2188 10.1171 15.3126 9.0234C17.7735 6.97261 21.4649 7.24605 25.1563 7.65621C28.0274 8.06636 28.9844 9.84371 29.2579 13.125C29.5313 11.3476 29.5313 8.61324 29.1212 6.1523C28.8477 3.55465 25.0196 2.05074 21.0547 2.05074Z" fill="#CFA935"/>
<path fill-rule="evenodd" clip-rule="evenodd" d="M21.0548 25.4297C17.6368 25.4297 13.672 22.4219 12.9884 15.9961C12.8517 15.4492 13.2618 15.0391 13.8087 14.9024C14.3556 14.7656 14.7658 15.1758 14.9025 15.7227C15.5861 21.0547 18.4572 23.3789 21.0548 23.3789C23.7892 23.3789 26.6603 21.0547 27.3439 15.7227C27.3439 15.1758 27.8908 14.7656 28.4376 14.9024C28.9845 14.9024 29.2579 15.4492 29.2579 15.9961C28.5744 22.4219 24.6095 25.4297 21.0548 25.4297Z" fill="#CFA935"/>
<path fill-rule="evenodd" clip-rule="evenodd" d="M26.9338 26.2499C26.5236 26.2499 26.1135 25.9765 25.9767 25.5663L25.0197 22.1484C24.883 21.6015 25.1564 21.0546 25.7033 20.9179C26.2502 20.7812 26.797 21.0546 26.9338 21.6015L27.8908 25.0195C28.1642 25.5663 27.7541 26.1132 27.2072 26.2499C27.2072 26.2499 27.0705 26.2499 26.9338 26.2499Z" fill="#CFA935"/>
<path fill-rule="evenodd" clip-rule="evenodd" d="M15.7228 26.2499C15.5861 26.2499 15.5861 26.2499 15.4494 26.2499C14.9025 26.1132 14.6291 25.5663 14.7658 25.0195L15.5861 21.8749C15.7228 21.3281 16.2697 21.0546 16.8166 21.1913C17.3635 21.3281 17.7736 21.8749 17.5002 22.4218L16.6799 25.5663C16.5431 25.9765 16.133 26.2499 15.7228 26.2499Z" fill="#CFA935"/>
<path fill-rule="evenodd" clip-rule="evenodd" d="M63.8477 40.1953C63.3008 40.1953 62.8906 39.7852 62.8906 39.1016V35C62.8906 30.3516 59.0625 26.5234 54.5508 26.25C54.0039 26.25 53.5938 25.8398 53.5938 25.293C53.5938 24.7461 54.0039 24.3359 54.5508 24.3359C60.293 24.4727 64.8047 29.2578 64.8047 35V39.1016C64.8047 39.7852 64.5312 40.1953 63.8477 40.1953ZM33.6328 40.1953C33.0859 40.1953 32.6758 39.7852 32.6758 39.1016V35C32.6758 29.1211 37.3242 24.3359 43.3398 24.3359C43.8867 24.3359 44.2969 24.7461 44.2969 25.293C44.2969 25.8398 43.8867 26.3867 43.3398 26.3867C38.5547 26.3867 34.5898 30.2148 34.5898 35V39.2383C34.7266 39.7852 34.1797 40.1953 33.6328 40.1953Z" fill="#CFA935"/>
<path fill-rule="evenodd" clip-rule="evenodd" d="M48.9453 34.7265C48.6719 34.7265 48.5352 34.5898 48.3984 34.5898L42.793 30.4882C42.5195 30.3515 42.3828 30.078 42.3828 29.6679V25.2929C42.3828 24.8827 42.5195 24.4726 42.9297 24.3359C43.3398 24.1991 43.75 24.3359 44.0234 24.6093L49.6289 30.4882C49.9023 30.6249 49.9023 30.8984 49.9023 31.1718V33.6327C49.9023 34.0429 49.7656 34.453 49.3555 34.5898C49.2188 34.7265 49.082 34.7265 48.9453 34.7265ZM44.4336 29.2577L47.9883 31.7187V31.582L44.4336 27.8905V29.2577Z" fill="#CFA935"/>
<path fill-rule="evenodd" clip-rule="evenodd" d="M48.9452 34.7266C48.6718 34.7266 48.2616 34.5898 48.1249 34.3164C47.8515 33.9062 47.8515 33.2227 48.3984 32.9492L53.5937 29.2578V27.8906L49.6288 31.9922C49.2187 32.2656 48.6718 32.2656 48.2616 31.9922C47.8515 31.582 47.8515 30.8984 48.2616 30.625L53.8671 24.6094C54.1405 24.3359 54.5507 24.1992 54.9609 24.4727C55.371 24.6094 55.5077 24.8828 55.5077 25.293V29.8047C55.5077 30.0781 55.371 30.3516 55.0976 30.625L49.4921 34.5898C49.3554 34.5898 49.2187 34.7266 48.9452 34.7266Z" fill="#CFA935"/>
<path fill-rule="evenodd" clip-rule="evenodd" d="M41.5626 16.8164C40.879 16.8164 40.1954 16.4062 39.7852 15.8594C38.1446 13.9453 38.418 8.88672 38.8282 6.15234C39.1016 3.82813 41.0157 3.14453 42.793 2.46094C43.0665 2.32422 43.3399 2.1875 43.4766 2.1875C43.8868 2.05078 44.1602 1.77734 44.4337 1.50391C45.1172 0.957032 45.8008 0.273438 46.8946 0.136719C52.3633 -0.410156 58.379 1.64063 58.7891 6.01562C59.1993 9.57031 59.4727 14.082 57.8321 15.9961C57.4219 16.543 56.7383 16.8164 56.0547 16.9531C55.7813 16.9531 55.5079 16.8164 55.3712 16.6797C55.0977 16.4062 54.961 16.1328 54.961 15.8594C54.961 10.2539 54.1407 9.84375 52.6368 9.70703C49.4922 9.16016 46.0743 9.02344 44.2969 10.5273C43.2032 11.6211 42.6563 13.2617 42.5196 15.8594C42.5196 16.1328 42.5196 16.4062 42.2462 16.543C42.1094 16.6797 41.836 16.8164 41.5626 16.8164ZM48.6719 2.05078C48.1251 2.05078 47.5782 2.1875 47.0313 2.1875C46.6212 2.1875 46.211 2.59766 45.6641 3.00781C45.254 3.28125 44.8438 3.69141 44.2969 3.96484C44.0235 4.10156 43.7501 4.10156 43.4766 4.23828C41.5626 5.05859 40.879 5.46875 40.7422 6.42578C40.4688 9.29688 40.4688 11.8945 40.7422 13.5352C41.1524 11.6211 41.836 10.1172 43.0665 9.16016C45.3907 6.97266 49.2188 7.24609 52.9102 7.65625C55.6446 8.06641 56.6016 9.84375 56.8751 13.2617C57.1485 11.6211 57.1485 9.16016 56.7383 6.15234C56.4649 3.55469 52.6368 2.05078 48.6719 2.05078Z" fill="#CFA935"/>
<path fill-rule="evenodd" clip-rule="evenodd" d="M48.8087 25.4297C45.254 25.4297 41.4259 22.4219 40.6056 15.9961C40.4689 15.4492 40.879 15.0391 41.4259 14.9024C41.9728 14.7656 42.5197 15.1758 42.5197 15.7227C43.2033 21.0547 46.2111 23.3789 48.8087 23.3789C51.4064 23.3789 54.2775 21.0547 54.9611 15.7227C54.9611 15.1758 55.5079 14.7656 56.0548 14.9024C56.7384 14.9024 57.0119 15.4492 57.0119 15.9961C56.0548 22.4219 52.2267 25.4297 48.8087 25.4297Z" fill="#CFA935"/>
<path fill-rule="evenodd" clip-rule="evenodd" d="M54.6875 26.2499C54.1406 26.2499 53.7304 25.9765 53.5937 25.5663L52.6367 22.1484C52.5 21.6015 52.9101 21.0546 53.3203 20.9179C53.8671 20.7812 54.414 21.0546 54.6875 21.6015L55.6445 25.0195C55.7812 25.5663 55.3711 26.1132 54.9609 26.2499C54.8242 26.2499 54.6875 26.2499 54.6875 26.2499Z" fill="#CFA935"/>
<path fill-rule="evenodd" clip-rule="evenodd" d="M43.34 26.2499C43.2033 26.2499 43.2033 26.2499 43.0666 26.2499C42.5197 26.1132 42.2463 25.5663 42.383 25.0195L43.2033 21.8749C43.4767 21.3281 43.8869 21.0546 44.4338 21.1913C44.9806 21.3281 45.3908 21.8749 45.1174 22.4218L44.297 25.5663C44.1603 25.9765 43.7502 26.2499 43.34 26.2499Z" fill="#CFA935"/>
<path fill-rule="evenodd" clip-rule="evenodd" d="M40.0584 70H29.9412C29.2576 70 28.7108 69.4531 28.7108 68.7695V61.1133C27.0701 60.7031 25.4295 60.0195 23.7889 59.0625L18.4569 64.3945C18.0467 64.9414 17.0897 64.9414 16.6795 64.3945L9.57014 57.4219C9.43342 57.1484 9.2967 56.875 9.2967 56.4648C9.2967 56.1914 9.43342 55.918 9.57014 55.6445L15.0389 50.1758C14.0819 48.6719 13.3983 47.0312 12.9881 45.3906H5.33186C4.64827 45.3906 4.23811 44.8438 4.23811 44.1602V39.1016C4.10139 38.6914 4.51155 38.1445 5.19514 38.1445H64.8045C65.3514 38.1445 65.8983 38.6914 65.8983 39.2383V44.1602C65.8983 44.8438 65.2147 45.5273 64.5311 45.5273H57.0115C56.4647 47.168 55.7811 48.8086 54.9608 50.3125L60.4295 55.7812C60.8397 56.1914 60.8397 57.0117 60.4295 57.4219L53.3201 64.5312C52.91 65.0781 51.953 65.0781 51.5428 64.5312L46.2108 59.1992C44.5701 60.0195 42.9295 60.7031 41.1522 61.25V68.9062C41.1522 69.4531 40.6053 70 40.0584 70ZM30.7615 67.9492H39.2381V60.4297C39.2381 59.8828 39.5115 59.4727 39.9217 59.3359C41.9725 58.9258 43.8865 58.1055 45.8006 57.0117C46.2108 56.7383 46.7576 56.875 47.0311 57.1484L52.3631 62.4805L58.3787 56.6016L52.91 51.1328C52.6365 50.8594 52.4998 50.3125 52.7733 49.9023C53.867 48.125 54.6873 46.2109 55.2342 44.1602C55.3709 43.75 55.7811 43.4766 56.1912 43.4766H63.8475V40.1953H6.15217V43.4766H13.6717C14.2186 43.4766 14.6287 43.75 14.6287 44.1602C15.1756 46.2109 15.9959 48.125 17.0897 49.9023C17.3631 50.3125 17.2264 50.8594 16.953 51.1328L11.6209 56.6016L17.4998 62.4805L22.9686 57.1484C23.242 56.875 23.7889 56.7383 24.199 57.0117C25.9764 58.1055 27.8905 58.9258 29.9412 59.3359C30.3514 59.4727 30.6248 59.8828 30.6248 60.4297V67.9492H30.7615Z" fill="#CFA935"/>
<path fill-rule="evenodd" clip-rule="evenodd" d="M35 52.0898C27.7539 52.0898 22.0117 46.3477 22.0117 39.1016C22.0117 38.5547 22.4219 38.1445 22.9688 38.1445C23.5156 38.1445 24.0625 38.5547 24.0625 39.1016C24.0625 45.1172 28.8477 50.1758 35 50.1758C41.1523 50.1758 45.9375 45.2539 45.9375 39.1016C45.9375 38.5547 46.4844 38.1445 47.0312 38.1445C47.5781 38.1445 47.9883 38.5547 47.9883 39.1016C47.8516 46.3477 42.1094 52.0898 35 52.0898Z" fill="#CFA935"/>
</g>
<defs>
<clipPath id="clip0_2134_420">
<rect width="70" height="70" fill="white"/>
</clipPath>
</defs>
</svg>
