<svg width="70" height="70" viewBox="0 0 70 70" fill="none" xmlns="http://www.w3.org/2000/svg">
<g clip-path="url(#clip0_2134_324)">
<path fill-rule="evenodd" clip-rule="evenodd" d="M31.992 65.4883C31.8553 65.4883 31.7186 65.4883 31.5819 65.3515L15.9959 58.9258C15.4491 58.6523 15.1756 58.1054 15.4491 57.5586C15.7225 57.0117 16.2694 56.875 16.6795 57.0117L32.4022 63.5742C32.9491 63.7109 33.0858 64.3945 32.9491 64.8047C32.6756 65.2148 32.4022 65.4883 31.992 65.4883ZM38.0077 65.4883C37.7342 65.4883 37.3241 65.2148 37.1873 64.8047C36.9139 64.2578 37.1873 63.7109 37.7342 63.4375L53.3202 57.0117C53.7303 56.7383 54.2772 57.0117 54.5506 57.5586C54.8241 57.9687 54.5506 58.6523 54.0038 58.789L38.4178 65.3515C38.4178 65.4883 38.1444 65.4883 38.0077 65.4883ZM12.0311 54.6875C11.6209 54.6875 11.3475 54.414 11.0741 54.0039L4.64829 38.4179C4.37485 38.0078 4.64829 37.3242 5.19516 37.1875C5.60532 36.914 6.28891 37.1875 6.42563 37.7343L12.9881 53.3203C13.1248 53.7304 12.8514 54.2773 12.4413 54.5508C12.3045 54.5508 12.1678 54.6875 12.0311 54.6875ZM57.9686 54.6875C57.8319 54.6875 57.6952 54.6875 57.5584 54.5508C57.0116 54.414 56.8748 53.8672 57.0116 53.3203L63.5741 37.7343C63.7108 37.1875 64.3944 37.0508 64.8045 37.1875C65.3514 37.4609 65.6248 38.0078 65.3514 38.5547L58.9256 54.1406C58.6522 54.414 58.3788 54.6875 57.9686 54.6875ZM5.60532 32.9492C5.4686 32.9492 5.33188 32.9492 5.19516 32.9492C4.64829 32.6758 4.37485 32.1289 4.64829 31.582L11.0741 15.9961C11.3475 15.4492 11.8944 15.1758 12.4413 15.4492C12.9881 15.7226 13.1248 16.2695 12.9881 16.6797L6.56235 32.2656C6.28891 32.6758 5.87876 32.9492 5.60532 32.9492ZM64.3944 32.9492C64.1209 32.9492 63.7108 32.6758 63.5741 32.2656L57.0116 16.6797C56.8748 16.1328 57.1483 15.5859 57.5584 15.4492C58.1053 15.1758 58.6522 15.4492 58.9256 15.8593L65.3514 31.582C65.6248 31.9922 65.3514 32.6758 64.8045 32.8125C64.6678 32.9492 64.5311 32.9492 64.3944 32.9492ZM53.5936 12.9883C53.5936 12.9883 53.4569 12.9883 53.3202 12.9883L37.7342 6.56247C37.1873 6.28903 36.9139 5.74216 37.1873 5.19528C37.3241 4.64841 38.0077 4.51169 38.4178 4.64841L54.0038 11.2109C54.5506 11.3476 54.8241 12.0312 54.5506 12.4414C54.4139 12.8515 54.0038 12.9883 53.5936 12.9883ZM16.4061 12.9883C15.9959 12.9883 15.5858 12.8515 15.4491 12.4414C15.1756 11.8945 15.4491 11.3476 15.9959 11.0742L31.5819 4.64841C32.1288 4.37497 32.6756 4.64841 32.9491 5.19528C33.0858 5.60544 32.8123 6.28903 32.4022 6.42575L16.6795 12.9883C16.5428 12.9883 16.4061 12.9883 16.4061 12.9883Z" fill="#CFA935"/>
<path fill-rule="evenodd" clip-rule="evenodd" d="M35 57.2852C22.832 57.2852 12.8516 47.3047 12.8516 35C12.8516 22.832 22.832 12.8516 35 12.8516C47.3047 12.8516 57.2852 22.832 57.2852 35C57.2852 47.3047 47.3047 57.2852 35 57.2852ZM35 14.7656C23.7891 14.7656 14.7656 23.7891 14.7656 35C14.7656 46.2109 23.7891 55.2344 35 55.2344C46.2109 55.2344 55.2344 46.2109 55.2344 35C55.2344 23.7891 46.2109 14.7656 35 14.7656Z" fill="#CFA935"/>
<path fill-rule="evenodd" clip-rule="evenodd" d="M35 57.2852C29.2578 57.2852 24.7461 47.4414 24.7461 35C24.7461 22.5586 29.2578 12.8516 35 12.8516C40.7422 12.8516 45.2539 22.5586 45.2539 35C45.2539 47.4414 40.7422 57.2852 35 57.2852ZM35 14.7656C31.0352 14.7656 26.7969 22.9688 26.7969 35C26.7969 47.168 31.0352 55.2344 35 55.2344C38.9648 55.2344 43.3398 47.168 43.3398 35C43.3398 22.832 39.1016 14.7656 35 14.7656Z" fill="#CFA935"/>
<path fill-rule="evenodd" clip-rule="evenodd" d="M35 45.2539C22.5586 45.2539 12.8516 40.7422 12.8516 35C12.8516 29.2578 22.5586 24.7461 35 24.7461C47.4414 24.7461 57.2852 29.2578 57.2852 35C57.2852 40.7422 47.4414 45.2539 35 45.2539ZM35 26.7969C22.832 26.7969 14.7656 31.0352 14.7656 35C14.7656 38.9648 22.9688 43.3398 35 43.3398C47.168 43.3398 55.2344 38.9648 55.2344 35C55.2344 31.0352 47.168 26.7969 35 26.7969Z" fill="#CFA935"/>
<path fill-rule="evenodd" clip-rule="evenodd" d="M35 8.61328C32.6758 8.61328 30.7617 6.69922 30.7617 4.375C30.7617 1.91406 32.6758 0 35 0C37.3242 0 39.375 1.91406 39.375 4.375C39.375 6.69922 37.3242 8.61328 35 8.61328ZM35 2.05078C33.7695 2.05078 32.6758 3.00781 32.6758 4.375C32.6758 5.60547 33.7695 6.5625 35 6.5625C36.3672 6.5625 37.3242 5.60547 37.3242 4.375C37.3242 3.00781 36.3672 2.05078 35 2.05078Z" fill="#CFA935"/>
<path fill-rule="evenodd" clip-rule="evenodd" d="M56.7383 17.6367C55.6445 17.6367 54.5508 17.0898 53.7305 16.4062C52.9102 15.5859 52.5 14.4922 52.5 13.3984C52.5 12.168 52.9102 11.0742 53.7305 10.2539C55.3711 8.61328 58.1055 8.61328 59.7461 10.2539C60.5664 11.0742 60.9766 12.168 60.9766 13.3984C60.9766 14.4922 60.5664 15.5859 59.7461 16.4062C58.9258 17.0898 57.832 17.6367 56.7383 17.6367ZM56.7383 10.9375C56.1914 10.9375 55.6445 11.2109 55.0977 11.6211C54.6875 12.168 54.4141 12.7148 54.4141 13.3984C54.4141 13.9453 54.6875 14.4922 55.0977 14.9023C55.6445 15.4492 56.1914 15.5859 56.7383 15.5859C57.2852 15.5859 57.9688 15.4492 58.3789 14.9023C58.7891 14.4922 59.0625 13.9453 59.0625 13.3984C59.0625 12.7148 58.7891 12.168 58.3789 11.6211C57.832 11.2109 57.2852 10.9375 56.7383 10.9375Z" fill="#CFA935"/>
<path fill-rule="evenodd" clip-rule="evenodd" d="M65.7617 39.375C63.4375 39.375 61.3867 37.3242 61.3867 35C61.3867 32.6758 63.4375 30.7617 65.7617 30.7617C68.0859 30.7617 70 32.6758 70 35C70 37.3242 68.0859 39.375 65.7617 39.375ZM65.7617 32.6758C64.3945 32.6758 63.4375 33.7695 63.4375 35C63.4375 36.3672 64.3945 37.3242 65.7617 37.3242C66.9922 37.3242 67.9492 36.3672 67.9492 35C67.9492 33.7695 66.9922 32.6758 65.7617 32.6758Z" fill="#CFA935"/>
<path fill-rule="evenodd" clip-rule="evenodd" d="M56.7383 60.9766C55.6445 60.9766 54.5508 60.5664 53.7305 59.7461C52.9102 58.9258 52.5 57.832 52.5 56.6016C52.5 55.5078 52.9102 54.4141 53.7305 53.5938C54.5508 52.9102 55.6445 52.3633 56.7383 52.3633C57.9688 52.3633 59.0625 52.9102 59.7461 53.7305C60.5664 54.5508 60.9766 55.6445 60.9766 56.7383C60.9766 57.832 60.5664 58.9258 59.7461 59.7461C58.9258 60.5664 57.832 60.9766 56.7383 60.9766ZM56.7383 54.4141C56.0547 54.4141 55.5078 54.5508 55.0977 55.0977C54.6875 55.5078 54.4141 56.0547 54.4141 56.6016C54.4141 57.2852 54.6875 57.832 55.0977 58.2422C55.6445 58.6523 56.1914 58.9258 56.7383 58.9258C57.2852 58.9258 57.9688 58.6523 58.3789 58.2422C58.7891 57.832 59.0625 57.2852 59.0625 56.6016C59.0625 56.0547 58.7891 55.5078 58.3789 55.0977C57.9688 54.6875 57.2852 54.4141 56.7383 54.4141Z" fill="#CFA935"/>
<path fill-rule="evenodd" clip-rule="evenodd" d="M35 70C32.6758 70 30.7617 68.0859 30.7617 65.7617C30.7617 63.4375 32.6758 61.3867 35 61.3867C37.3242 61.3867 39.375 63.4375 39.375 65.7617C39.375 68.0859 37.3242 70 35 70ZM35 63.4375C33.7695 63.4375 32.6758 64.3945 32.6758 65.7617C32.6758 66.9922 33.7695 67.9492 35 67.9492C36.3672 67.9492 37.3242 66.9922 37.3242 65.7617C37.3242 64.3945 36.3672 63.4375 35 63.4375Z" fill="#CFA935"/>
<path fill-rule="evenodd" clip-rule="evenodd" d="M13.3984 60.9765C12.168 60.9765 11.0742 60.5663 10.2539 59.746C8.61328 58.1054 8.61328 55.371 10.2539 53.7304C11.0742 52.9101 12.168 52.3632 13.3984 52.4999C14.4922 52.4999 15.5859 52.9101 16.4062 53.7304C18.0469 55.371 18.0469 58.1054 16.4062 59.746C15.5859 60.5663 14.4922 60.9765 13.3984 60.9765ZM13.3984 54.414C12.7148 54.414 12.168 54.5507 11.6211 55.0976C10.8008 55.9179 10.8008 57.4218 11.6211 58.3788C12.168 58.789 12.7148 59.0624 13.3984 59.0624C13.9453 59.0624 14.4922 58.789 14.9023 58.3788C15.8594 57.4218 15.8594 55.9179 14.9023 55.0976C14.4922 54.6874 13.9453 54.414 13.3984 54.414Z" fill="#CFA935"/>
<path fill-rule="evenodd" clip-rule="evenodd" d="M4.375 39.375C1.91406 39.375 0 37.3242 0 35C0 32.6758 1.91406 30.7617 4.375 30.7617C6.69922 30.7617 8.61328 32.6758 8.61328 35C8.61328 37.3242 6.69922 39.375 4.375 39.375ZM4.375 32.6758C3.00781 32.6758 2.05078 33.7695 2.05078 35C2.05078 36.3672 3.00781 37.3242 4.375 37.3242C5.60547 37.3242 6.5625 36.3672 6.5625 35C6.5625 33.7695 5.60547 32.6758 4.375 32.6758Z" fill="#CFA935"/>
<path fill-rule="evenodd" clip-rule="evenodd" d="M13.3984 17.6367C12.3047 17.6367 11.0742 17.2266 10.2539 16.4062C8.61328 14.7656 8.61328 12.0312 10.2539 10.2539C12.0312 8.61328 14.7656 8.61328 16.4062 10.2539C18.0469 12.0312 18.0469 14.7656 16.4062 16.4062C15.4492 17.0898 14.3555 17.6367 13.3984 17.6367ZM11.6211 11.6211C10.8008 12.5781 10.8008 14.082 11.6211 14.9023C12.5781 15.7227 14.082 15.8594 14.9023 14.9023C15.8594 14.082 15.7227 12.5781 14.9023 11.6211C14.082 10.8008 12.5781 10.8008 11.6211 11.6211Z" fill="#CFA935"/>
</g>
<defs>
<clipPath id="clip0_2134_324">
<rect width="70" height="70" fill="white"/>
</clipPath>
</defs>
</svg>
