<svg width="70" height="70" viewBox="0 0 70 70" fill="none" xmlns="http://www.w3.org/2000/svg">
<g clip-path="url(#clip0_2134_240)">
<path fill-rule="evenodd" clip-rule="evenodd" d="M35.0244 56.9528C22.9136 56.9528 13.0151 47.1189 13.0151 34.992C13.0151 22.9458 22.8652 13.1119 34.9759 13.1119C47.0221 13.1119 56.856 22.9458 56.856 34.992C56.9206 47.1189 47.0866 56.9528 35.0244 56.9528ZM35.0244 15.0981C23.9955 15.0981 15.0659 24.0277 15.0659 34.992C15.0659 46.037 23.9955 54.9505 35.0244 54.9505C46.0048 54.9505 54.9344 46.037 54.9344 34.992C54.9344 24.0277 46.0048 15.0981 35.0244 15.0981Z" fill="#CFA935"/>
<path fill-rule="evenodd" clip-rule="evenodd" d="M18.134 36.0254C17.5688 36.0254 17.1167 35.5733 17.1167 34.992C17.1167 25.1581 25.1259 17.1973 35.0244 17.1973C35.5896 17.1973 36.0579 17.6494 36.0579 18.2307C36.0579 18.7959 35.5896 19.248 35.0244 19.248C26.2724 19.248 19.1674 26.353 19.1674 35.0566C19.1029 35.5733 18.7153 36.0254 18.134 36.0254Z" fill="#CFA935"/>
<path fill-rule="evenodd" clip-rule="evenodd" d="M35.0241 15.0981C34.459 15.0981 34.0068 14.646 34.0068 14.1292V7.07272C34.0068 6.50755 34.459 6.05542 35.0241 6.05542C35.5893 6.05542 36.0576 6.50755 36.0576 7.07272V14.0808C35.993 14.646 35.5409 15.0981 35.0241 15.0981Z" fill="#CFA935"/>
<path fill-rule="evenodd" clip-rule="evenodd" d="M35.0242 8.10617C32.812 8.10617 30.9873 6.28148 30.9873 4.06926C30.9873 1.84088 32.812 0.0323486 35.0242 0.0323486C37.2526 0.0323486 39.0611 1.84088 39.0611 4.06926C39.0127 6.28148 37.2526 8.10617 35.0242 8.10617ZM35.0242 2.01851C33.8939 2.01851 32.9735 2.92278 32.9735 4.06926C32.9735 5.19959 33.8939 6.12001 35.0242 6.12001C36.1707 6.12001 37.075 5.19959 37.075 4.06926C37.0104 2.92278 36.1061 2.01851 35.0242 2.01851Z" fill="#CFA935"/>
<path fill-rule="evenodd" clip-rule="evenodd" d="M49.751 21.2343C49.5249 21.2343 49.2504 21.1212 49.0728 20.9597C48.6691 20.5561 48.6691 19.9263 49.0728 19.5388L54.014 14.5814C54.4177 14.1939 55.0474 14.1939 55.435 14.5814C55.8386 14.9851 55.8386 15.6149 55.435 16.0024L50.4938 20.9597C50.2677 21.1212 50.0416 21.2343 49.751 21.2343Z" fill="#CFA935"/>
<path fill-rule="evenodd" clip-rule="evenodd" d="M56.856 17.1488C55.8387 17.1488 54.8214 16.7451 54.014 15.9539C52.4315 14.3553 52.4315 11.8039 54.014 10.2699C55.6126 8.73588 58.1639 8.73588 59.7141 10.2699C61.2481 11.8524 61.2481 14.3553 59.7141 15.9539C58.9713 16.7451 57.8894 17.1488 56.856 17.1488ZM56.856 11.1096C56.3554 11.1096 55.7902 11.2872 55.3865 11.6909C54.5953 12.4821 54.5953 13.7901 55.3865 14.5813C56.1778 15.3887 57.4857 15.3887 58.2931 14.5813C59.0198 13.7901 59.0198 12.4821 58.2931 11.6909C57.9379 11.2872 57.3727 11.1096 56.856 11.1096Z" fill="#CFA935"/>
<path fill-rule="evenodd" clip-rule="evenodd" d="M62.895 36.0255H55.9031C55.3218 36.0255 54.8696 35.5733 54.8696 34.992C54.8696 34.4269 55.3218 33.9747 55.9031 33.9747H62.895C63.4602 33.9747 63.9123 34.4269 63.9123 34.992C63.9123 35.5733 63.4602 36.0255 62.895 36.0255Z" fill="#CFA935"/>
<path fill-rule="evenodd" clip-rule="evenodd" d="M65.9632 39.0289C63.751 39.0289 61.9263 37.2204 61.9263 34.992C61.9263 32.7798 63.751 30.9551 65.9632 30.9551C68.1754 30.9551 70.0001 32.7798 70.0001 34.992C70.0001 37.2204 68.1754 39.0289 65.9632 39.0289ZM65.9632 32.9574C64.8167 32.9574 63.9124 33.8617 63.9124 34.992C63.9124 36.1385 64.8167 37.0427 65.9632 37.0427C67.0935 37.0427 68.0139 36.1385 68.0139 34.992C68.0139 33.9262 67.0451 32.9574 65.9632 32.9574Z" fill="#CFA935"/>
<path fill-rule="evenodd" clip-rule="evenodd" d="M54.7083 55.7578C54.4822 55.7578 54.1916 55.6448 54.014 55.4672L49.0728 50.526C48.6691 50.1223 48.6691 49.4926 49.0728 49.105C49.4765 48.7013 50.0901 48.7013 50.4938 49.105L55.435 54.0462C55.8386 54.4499 55.8386 55.0796 55.435 55.4672C55.2089 55.6932 54.9828 55.7578 54.7083 55.7578Z" fill="#CFA935"/>
<path fill-rule="evenodd" clip-rule="evenodd" d="M56.8558 60.925C55.8385 60.925 54.8212 60.5375 54.0138 59.7301C53.2225 58.9389 52.8188 57.9216 52.8188 56.8397C52.8188 55.7578 53.2871 54.7889 54.0138 54.0461C55.5478 52.5121 58.1153 52.5121 59.7139 54.0461C61.2479 55.5802 61.2479 58.1476 59.7139 59.6817C58.9711 60.5375 57.8892 60.925 56.8558 60.925ZM56.8558 54.902C56.3552 54.902 55.8385 55.128 55.4348 55.5317C55.0472 55.9193 54.8696 56.3876 54.8212 56.8881C54.8212 57.4533 55.0472 57.97 55.4348 58.3737C56.2421 59.1649 57.5501 59.1649 58.3413 58.3737C59.0841 57.5663 59.0841 56.2584 58.3413 55.5317C57.9376 55.0796 57.3725 54.902 56.8558 54.902Z" fill="#CFA935"/>
<path fill-rule="evenodd" clip-rule="evenodd" d="M35.0241 63.9447C34.459 63.9447 34.0068 63.4925 34.0068 62.9274V55.9839C34.0068 55.4187 34.459 54.9504 35.0241 54.9504C35.5893 54.9504 36.0576 55.4187 36.0576 55.9839V62.9274C35.993 63.4925 35.5409 63.9447 35.0241 63.9447Z" fill="#CFA935"/>
<path fill-rule="evenodd" clip-rule="evenodd" d="M35.0242 69.9677C32.812 69.9677 30.9873 68.1431 30.9873 65.9308C30.9873 63.7186 32.812 61.8939 35.0242 61.8939C37.2526 61.8939 39.0611 63.7186 39.0611 65.9308C39.0127 68.1431 37.2526 69.9677 35.0242 69.9677ZM35.0242 63.9447C33.8939 63.9447 32.9735 64.8489 32.9735 65.9954C32.9735 67.1258 33.8939 68.03 35.0242 68.03C36.1707 68.03 37.075 67.1258 37.075 65.9954C37.0104 64.8489 36.1061 63.9447 35.0242 63.9447Z" fill="#CFA935"/>
<path fill-rule="evenodd" clip-rule="evenodd" d="M15.2433 55.7578C15.0172 55.7578 14.7266 55.6448 14.549 55.4672C14.1614 55.0796 14.1614 54.4499 14.549 54.0462L19.5063 49.105C19.91 48.7013 20.5236 48.7013 20.9273 49.105C21.331 49.4926 21.331 50.1223 20.9273 50.526L15.9861 55.4672C15.7439 55.6932 15.4694 55.7578 15.2433 55.7578Z" fill="#CFA935"/>
<path fill-rule="evenodd" clip-rule="evenodd" d="M13.1282 60.9251C12.0625 60.9251 11.029 60.5376 10.2862 59.7302C9.495 58.939 9.09131 57.9217 9.09131 56.8398C9.09131 55.7579 9.55959 54.789 10.2862 54.0462C11.029 53.3035 12.1109 52.8513 13.1282 52.8513C14.2101 52.8513 15.179 53.3035 15.9218 54.0462C16.6645 54.7244 17.0521 55.7579 17.1167 56.8398C17.1167 57.9217 16.713 58.939 15.9218 59.7302C15.2436 60.473 14.2101 60.9251 13.1282 60.9251ZM11.6588 58.3092C12.0625 58.7129 12.5631 58.8744 13.1282 58.939C13.6449 58.939 14.1617 58.7129 14.5008 58.3738C14.9045 57.9701 15.1305 57.4534 15.1305 56.8882C15.1305 56.3877 14.9045 55.8709 14.5492 55.5318C14.1617 55.1281 13.7095 54.9021 13.1282 54.9021C12.5631 54.9021 12.0625 55.1281 11.6588 55.5318C11.2551 55.9194 11.0936 56.3877 11.029 56.8882C11.0936 57.405 11.2551 57.9701 11.6588 58.3092Z" fill="#CFA935"/>
<path fill-rule="evenodd" clip-rule="evenodd" d="M14.0487 36.0255H7.10519C6.54002 36.0255 6.08789 35.5733 6.08789 34.992C6.08789 34.4269 6.54002 33.9747 7.10519 33.9747H14.0487C14.6138 33.9747 15.066 34.4269 15.066 34.992C15.066 35.5733 14.6138 36.0255 14.0487 36.0255Z" fill="#CFA935"/>
<path fill-rule="evenodd" clip-rule="evenodd" d="M4.03691 39.0289C1.82468 39.0289 0 37.2204 0 34.992C0 32.7798 1.82468 30.9551 4.03691 30.9551C6.24914 30.9551 8.07382 32.7798 8.07382 34.992C8.07382 37.2204 6.24914 39.0289 4.03691 39.0289ZM4.03691 32.9574C2.90657 32.9574 1.98616 33.8617 1.98616 34.992C1.98616 36.1385 2.90657 37.0427 4.03691 37.0427C5.16724 37.0427 6.08766 36.1385 6.08766 34.992C6.08766 33.9262 5.16724 32.9574 4.03691 32.9574Z" fill="#CFA935"/>
<path fill-rule="evenodd" clip-rule="evenodd" d="M20.1845 21.2343C19.9584 21.2343 19.6678 21.1212 19.5063 20.9597L14.549 16.0024C14.1614 15.6149 14.1614 14.9851 14.549 14.5814C14.9526 14.1939 15.5824 14.1939 15.9861 14.5814L20.9273 19.5388C21.331 19.9263 21.331 20.5561 20.9273 20.9597C20.7012 21.1212 20.4106 21.2343 20.1845 21.2343Z" fill="#CFA935"/>
<path fill-rule="evenodd" clip-rule="evenodd" d="M13.128 17.1488C12.0622 17.1488 11.0288 16.7451 10.286 15.9539C8.7035 14.3553 8.7035 11.8039 10.286 10.2699C11.8846 8.73588 14.3875 8.73588 15.9215 10.2699C17.5201 11.8524 17.5201 14.4198 15.9215 15.9539C15.2433 16.7451 14.2098 17.1488 13.128 17.1488ZM11.6585 11.6909C10.8673 12.4821 10.8673 13.7901 11.6585 14.5813C12.0622 14.985 12.5628 15.2111 13.128 15.2111C13.6447 15.2111 14.1614 14.985 14.5005 14.6459C15.2917 13.8385 15.2917 12.5306 14.5005 11.7393C13.7577 10.9481 12.4498 10.9481 11.6585 11.6909Z" fill="#CFA935"/>
<path fill-rule="evenodd" clip-rule="evenodd" d="M37.0103 45.3426C36.6227 45.3426 36.2191 45.068 36.0576 44.6644L29.7439 26.0138C29.5662 25.4971 29.8569 24.9319 30.3575 24.7705C30.8742 24.5928 31.4394 24.8835 31.617 25.3841L37.9307 44.0346C38.0922 44.5513 37.8177 45.1165 37.3009 45.2941C37.2525 45.3426 37.1395 45.3426 37.0103 45.3426Z" fill="#CFA935"/>
<path fill-rule="evenodd" clip-rule="evenodd" d="M24.3344 45.3426C24.2213 45.3426 24.1083 45.3426 23.9953 45.2941C23.4785 45.1165 23.204 44.5513 23.3655 44.0346L29.7438 25.3841C29.9053 24.8835 30.4866 24.5928 30.9872 24.7705C31.5039 24.9319 31.7946 25.4971 31.6169 26.0138L25.3032 44.6644C25.1256 45.068 24.7865 45.3426 24.3344 45.3426Z" fill="#CFA935"/>
<path fill-rule="evenodd" clip-rule="evenodd" d="M34.3944 37.6078H27.0149C26.4336 37.6078 25.9814 37.1557 25.9814 36.5905C25.9814 36.0254 26.4336 35.5732 27.0149 35.5732H34.3944C34.9757 35.5732 35.4278 36.0254 35.4278 36.5905C35.4278 37.1557 34.9111 37.6078 34.3944 37.6078Z" fill="#CFA935"/>
<path fill-rule="evenodd" clip-rule="evenodd" d="M43.0979 45.3426C42.5327 45.3426 42.0806 44.8905 42.0806 44.3253V25.7878C42.0806 25.2226 42.5327 24.7705 43.0979 24.7705C43.663 24.7705 44.1313 25.2226 44.1313 25.7878V44.3737C44.1313 44.8905 43.663 45.3426 43.0979 45.3426Z" fill="#CFA935"/>
<path fill-rule="evenodd" clip-rule="evenodd" d="M45.6008 26.7567H40.5466C39.9815 26.7567 39.5132 26.3045 39.5132 25.7232C39.5132 25.1581 39.9815 24.7059 40.5466 24.7059H45.6008C46.166 24.7059 46.6343 25.1581 46.6343 25.7232C46.6343 26.3045 46.166 26.7567 45.6008 26.7567Z" fill="#CFA935"/>
<path fill-rule="evenodd" clip-rule="evenodd" d="M45.6008 45.3426H40.5466C39.9815 45.3426 39.5132 44.8905 39.5132 44.3253C39.5132 43.7601 39.9815 43.308 40.5466 43.308H45.6008C46.166 43.308 46.6343 43.7601 46.6343 44.3253C46.6343 44.8905 46.166 45.3426 45.6008 45.3426Z" fill="#CFA935"/>
</g>
<defs>
<clipPath id="clip0_2134_240">
<rect width="70" height="70" fill="white"/>
</clipPath>
</defs>
</svg>
