<svg width="70" height="70" viewBox="0 0 70 70" fill="none" xmlns="http://www.w3.org/2000/svg">
<path fill-rule="evenodd" clip-rule="evenodd" d="M59.7461 70H10.2539C9.70703 70 9.29688 69.5898 9.29688 69.043V0.957031C9.29688 0.410156 9.70703 0 10.2539 0H49.9023H50.3125C50.3125 0.136719 50.4492 0.136719 50.5859 0.273438L60.5664 10.1172C60.5664 10.2539 60.7031 10.2539 60.7031 10.3906V10.8008V69.043C60.7031 69.5898 60.293 70 59.7461 70ZM11.2109 67.9492H58.7891V11.8945H49.9023C49.3555 11.8945 48.8086 11.3477 48.8086 10.8008V2.05078H11.2109V67.9492ZM50.8594 9.84375H57.2852L50.8594 3.41797V9.84375Z" fill="#CFA935"/>
<path fill-rule="evenodd" clip-rule="evenodd" d="M23.6523 65.0781C23.3789 65.0781 22.9688 64.9414 22.832 64.668L21.0547 61.7969L17.6367 62.4805C17.3633 62.6172 16.9531 62.4805 16.8164 62.207C16.543 62.0703 16.4062 61.6602 16.543 61.3867L17.3633 58.1055L14.4922 56.1914C14.2188 56.0547 13.9453 55.6445 13.9453 55.3711C13.9453 54.9609 14.2188 54.6875 14.4922 54.5508L17.2266 52.7734L16.543 49.3555C16.4062 48.9453 16.543 48.6719 16.8164 48.3984C16.9531 48.125 17.3633 48.125 17.6367 48.125L20.918 48.9453L22.832 46.0742C22.9688 45.8008 23.2422 45.5273 23.6523 45.5273C24.0625 45.5273 24.3359 45.8008 24.4727 46.0742L26.25 48.8086L29.668 48.125C29.9414 48.125 30.3516 48.125 30.625 48.3984C30.7617 48.6719 30.8984 48.9453 30.8984 49.3555L30.0781 52.6367L32.9492 54.4141C33.2227 54.6875 33.3594 54.9609 33.3594 55.3711C33.3594 55.6445 33.2227 56.0547 32.9492 56.1914L30.0781 57.9688L30.7617 61.25C30.8984 61.6602 30.7617 61.9336 30.4883 62.207C30.2148 62.4805 29.9414 62.4805 29.5312 62.4805L26.3867 61.6602L24.4727 64.5312C24.3359 64.9414 24.0625 65.0781 23.6523 65.0781ZM21.6016 59.6094C21.875 59.6094 22.2852 59.7461 22.4219 60.1562L23.7891 62.207L25.1562 60.0195C25.4297 59.7461 25.8398 59.4727 26.25 59.6094L28.5742 60.1562L28.0273 57.6953C27.8906 57.2852 28.1641 56.7383 28.5742 56.6016L30.625 55.2344L28.4375 53.8672C28.1641 53.5938 27.8906 53.1836 28.0273 52.7734L28.5742 50.3125L26.1133 50.8594C25.7031 50.9961 25.1562 50.8594 25.0195 50.4492L23.6523 48.3984L22.2852 50.5859C22.0117 50.8594 21.6016 51.1328 21.1914 50.9961L18.7305 50.4492L19.2773 53.0469C19.4141 53.457 19.2773 53.8672 18.8672 54.1406L16.8164 55.3711L19.0039 56.7383C19.2773 57.0117 19.4141 57.4219 19.4141 57.832L18.8672 60.1562L21.3281 59.7461C21.4648 59.6094 21.4648 59.6094 21.6016 59.6094Z" fill="#CFA935"/>
<path fill-rule="evenodd" clip-rule="evenodd" d="M49.3553 60.1563C49.2186 60.1563 49.2186 60.1563 49.3553 60.1563C48.8084 60.1563 48.535 59.7461 48.3983 59.4727C47.9881 58.5157 47.7147 56.0547 47.578 55.5079L47.3045 53.3204C47.1678 52.5 47.1678 51.6797 47.0311 50.8594C46.4842 52.3633 45.8006 54.004 45.117 55.0977C44.9803 55.2344 44.9803 55.3711 44.8436 55.5079C44.0233 57.1485 43.0663 58.6524 41.8358 58.6524C41.5623 58.6524 41.0155 58.6524 40.6053 58.2422C40.4686 58.2422 40.3319 58.2422 40.1952 58.379C39.3748 58.6524 37.4608 59.336 36.7772 57.4219C36.5038 57.0118 36.7772 56.3282 37.3241 56.1915C37.7342 55.918 38.4178 56.1915 38.5545 56.7383C38.828 56.7383 39.3748 56.4649 39.6483 56.3282C40.1952 56.1915 41.1522 55.7813 41.8358 56.6016C42.1092 56.3282 42.5194 55.6446 43.0663 54.6875C43.203 54.4141 43.3397 54.2774 43.3397 54.1407C44.16 52.7735 44.8436 50.8594 45.6639 48.9454C45.9373 47.9883 46.3475 47.168 46.6209 46.3477C46.7577 46.0743 46.8944 45.9375 46.8944 45.8008C47.1678 45.5274 47.578 45.3907 47.9881 45.5274C48.2616 45.6641 48.535 45.9375 48.6717 46.211C48.9452 47.3047 48.9452 48.6719 49.0819 50.0391C49.0819 50.9961 49.0819 52.0899 49.3553 52.9102L49.6288 55.2344V55.5079L50.0389 54.6875C50.3123 53.7305 50.7225 52.9102 51.5428 52.9102C52.3631 52.9102 52.6366 53.5938 52.7733 54.004C52.91 54.004 52.91 54.2774 53.0467 54.2774C53.4569 54.4141 53.867 54.8243 53.867 55.3711C53.867 55.918 53.4569 56.3282 52.7733 56.3282C52.2264 56.3282 51.8163 56.0547 51.5428 55.7813C50.9959 57.0118 50.5858 58.379 50.0389 59.4727C50.0389 59.8829 49.6288 60.1563 49.3553 60.1563Z" fill="#CFA935"/>
<path fill-rule="evenodd" clip-rule="evenodd" d="M54.8242 62.6172H36.6406C36.0938 62.6172 35.5469 62.207 35.5469 61.5234C35.5469 60.9766 36.0938 60.5664 36.6406 60.5664H54.8242C55.5078 60.5664 55.918 60.9766 55.918 61.5234C55.918 62.207 55.5078 62.6172 54.8242 62.6172Z" fill="#CFA935"/>
<path fill-rule="evenodd" clip-rule="evenodd" d="M37.3242 18.0469H20.0977C18.457 18.0469 16.9531 16.6797 16.9531 14.9023V10.2539C16.9531 8.47656 18.457 7.10938 20.0977 7.10938H37.3242C39.1016 7.10938 40.4688 8.47656 40.4688 10.2539V14.9023C40.4688 16.6797 38.9648 18.0469 37.3242 18.0469ZM20.0977 9.02344C19.5508 9.02344 19.0039 9.57031 19.0039 10.2539V14.9023C19.0039 15.4492 19.5508 15.9961 20.0977 15.9961H37.3242C37.8711 15.9961 38.418 15.5859 38.418 14.9023V10.2539C38.418 9.57031 38.0078 9.02344 37.3242 9.02344H20.0977Z" fill="#CFA935"/>
<path fill-rule="evenodd" clip-rule="evenodd" d="M34.5898 25.5664H17.2266C16.6797 25.5664 16.2695 25.1562 16.2695 24.6094C16.2695 23.9258 16.6797 23.5156 17.2266 23.5156H34.5898C35.1367 23.5156 35.5469 23.9258 35.5469 24.6094C35.5469 25.1562 35.1367 25.5664 34.5898 25.5664Z" fill="#CFA935"/>
<path fill-rule="evenodd" clip-rule="evenodd" d="M52.7734 30.8984H17.2266C16.6797 30.8984 16.2695 30.4883 16.2695 29.9414C16.2695 29.3945 16.6797 28.8477 17.2266 28.8477H52.7734C53.3203 28.8477 53.7305 29.3945 53.7305 29.9414C53.7305 30.4883 53.3203 30.8984 52.7734 30.8984Z" fill="#CFA935"/>
<path fill-rule="evenodd" clip-rule="evenodd" d="M52.7734 36.2305H17.2266C16.6797 36.2305 16.2695 35.8203 16.2695 35.2734C16.2695 34.7266 16.6797 34.1797 17.2266 34.1797H52.7734C53.3203 34.1797 53.7305 34.7266 53.7305 35.2734C53.7305 35.8203 53.3203 36.2305 52.7734 36.2305Z" fill="#CFA935"/>
<path fill-rule="evenodd" clip-rule="evenodd" d="M52.7734 41.5625H17.2266C16.6797 41.5625 16.2695 41.1523 16.2695 40.6055C16.2695 39.9219 16.6797 39.5117 17.2266 39.5117H52.7734C53.3203 39.5117 53.7305 39.9219 53.7305 40.6055C53.7305 41.1523 53.3203 41.5625 52.7734 41.5625Z" fill="#CFA935"/>
</svg>
