<svg width="70" height="70" viewBox="0 0 70 70" fill="none" xmlns="http://www.w3.org/2000/svg">
<g clip-path="url(#clip0_2134_154)">
<path fill-rule="evenodd" clip-rule="evenodd" d="M45.0036 23.7369C44.7291 23.7369 44.4385 23.6239 44.2124 23.3333C41.9356 20.5559 38.5769 18.9088 34.9921 18.9088C31.4235 18.9088 28.0648 20.4913 25.8364 23.3333C25.4973 23.8015 24.8675 23.85 24.4154 23.5109C23.9633 23.1718 23.9148 22.542 24.2539 22.0899C26.8698 18.7958 30.7937 16.9065 34.9921 16.9065C39.2066 16.9065 43.1305 18.7958 45.7464 22.0899C46.0855 22.542 46.0371 23.1718 45.5849 23.5109C45.4073 23.6239 45.2458 23.7369 45.0036 23.7369Z" fill="#CFA935"/>
<path fill-rule="evenodd" clip-rule="evenodd" d="M66.3992 64.5743C66.1085 64.5743 65.834 64.4613 65.6079 64.1868C63.4926 61.5709 60.4246 60.0853 57.0658 60.0853C53.7717 60.0853 50.7037 61.5709 48.5883 64.1868C48.2492 64.6389 47.6195 64.6874 47.1673 64.3483C46.7152 64.0092 46.6668 63.3794 47.0059 62.9273C49.4442 59.8592 53.142 58.0991 57.0174 58.0991C60.9413 58.0991 64.6391 59.8592 67.0774 62.9273C67.4165 63.3794 67.368 64.0092 66.9159 64.3483C66.8513 64.5259 66.6252 64.5743 66.3992 64.5743Z" fill="#CFA935"/>
<path fill-rule="evenodd" clip-rule="evenodd" d="M3.64915 64.5743C3.42308 64.5743 3.19701 64.5259 3.03554 64.3483C2.5834 64.0092 2.51881 63.3794 2.85791 62.9273C5.31235 59.8592 9.01016 58.0991 12.934 58.0991C16.8579 58.0991 20.4911 59.8592 22.9456 62.9273C23.2847 63.3794 23.2201 64.0092 22.7679 64.3483C22.3158 64.6874 21.6861 64.6389 21.347 64.1868C19.2478 61.5709 16.1636 60.0853 12.8694 60.0853C9.57533 60.0853 6.44269 61.5709 4.34349 64.1868C4.23046 64.4613 3.9398 64.5743 3.64915 64.5743Z" fill="#CFA935"/>
<path fill-rule="evenodd" clip-rule="evenodd" d="M12.9342 57.1787C10.0922 57.1787 7.81543 54.9019 7.81543 52.1245C7.81543 49.2826 10.0922 47.0057 12.9342 47.0057C15.7116 47.0057 17.9884 49.2826 17.9884 52.1245C18.053 54.9019 15.7116 57.1787 12.9342 57.1787ZM12.9342 48.9435C11.2226 48.9435 9.80159 50.3644 9.80159 52.0599C9.80159 53.7716 11.2226 55.128 12.9342 55.128C14.6297 55.128 16.0023 53.7716 16.0023 52.0599C16.0507 50.3644 14.6297 48.9435 12.9342 48.9435Z" fill="#CFA935"/>
<path fill-rule="evenodd" clip-rule="evenodd" d="M34.9917 28.5651C27.4346 28.5651 21.2339 22.3645 21.2339 14.7428C21.2339 7.18568 27.4346 0.984985 34.9917 0.984985C42.5649 0.984985 48.7656 7.18568 48.7656 14.7428C48.7656 22.3645 42.6134 28.5651 34.9917 28.5651ZM34.9917 2.97114C28.5165 2.97114 23.22 8.26757 23.22 14.7428C23.22 21.2987 28.5165 26.579 34.9917 26.579C41.483 26.579 46.7794 21.2987 46.7794 14.7428C46.7794 8.26757 41.483 2.97114 34.9917 2.97114Z" fill="#CFA935"/>
<path fill-rule="evenodd" clip-rule="evenodd" d="M34.9919 15.7116C31.9885 15.7116 29.5986 13.2733 29.5986 10.3183C29.5986 7.34711 32.0369 4.90881 34.9919 4.90881C38.0116 4.90881 40.466 7.34711 40.466 10.3183C40.466 13.2733 38.0116 15.7116 34.9919 15.7116ZM34.9919 6.89497C33.1188 6.89497 31.5848 8.49359 31.5848 10.3183C31.5848 12.1914 33.1188 13.7254 34.9919 13.7254C36.9297 13.7254 38.4637 12.1914 38.4637 10.3183C38.4637 8.429 36.9297 6.89497 34.9919 6.89497Z" fill="#CFA935"/>
<path fill-rule="evenodd" clip-rule="evenodd" d="M34.992 47.3932C32.376 47.3932 30.2769 45.294 30.2769 42.6781C30.2769 40.0622 32.376 37.963 34.992 37.963C37.624 37.963 39.7232 40.0622 39.7232 42.6781C39.7232 45.294 37.6725 47.3932 34.992 47.3932ZM34.992 39.9492C33.5225 39.9492 32.263 41.1925 32.263 42.6781C32.263 44.1637 33.5225 45.4071 34.992 45.4071C36.5421 45.4071 37.7371 44.2121 37.7371 42.6781C37.7371 41.1441 36.5421 39.9492 34.992 39.9492Z" fill="#CFA935"/>
<path fill-rule="evenodd" clip-rule="evenodd" d="M34.9919 39.9492C34.4267 39.9492 33.9746 39.4971 33.9746 38.9319V27.5478C33.9746 26.9827 34.4267 26.5305 34.9919 26.5305C35.5732 26.5305 36.0254 26.9827 36.0254 27.5478V38.9319C36.0254 39.4971 35.5732 39.9492 34.9919 39.9492Z" fill="#CFA935"/>
<path fill-rule="evenodd" clip-rule="evenodd" d="M47.167 50.7036C47.0055 50.7036 46.8279 50.639 46.6664 50.5905L37.7368 45.4071C37.2685 45.1165 37.107 44.5029 37.3815 44.0507C37.6722 43.5825 38.3019 43.421 38.7541 43.6955L47.6837 48.8789C48.1359 49.1695 48.3135 49.7832 48.0228 50.2514C47.8613 50.5259 47.5061 50.7036 47.167 50.7036Z" fill="#CFA935"/>
<path fill-rule="evenodd" clip-rule="evenodd" d="M22.881 50.7035C22.5419 50.7035 22.2028 50.5259 22.0252 50.1868C21.7507 49.7346 21.9122 49.1049 22.3643 48.8142L31.2939 43.647C31.7622 43.3563 32.3758 43.534 32.6665 43.9861C32.9571 44.4382 32.7795 45.068 32.3274 45.3586L23.3977 50.5905C23.2201 50.6389 23.0586 50.7035 22.881 50.7035Z" fill="#CFA935"/>
<path fill-rule="evenodd" clip-rule="evenodd" d="M57.1304 69.0149C50.0093 69.0149 44.2769 63.2179 44.2769 56.1614C44.2769 49.1049 50.0093 43.3079 57.1304 43.3079C64.2353 43.3079 69.9839 49.1049 69.9839 56.1614C69.9839 63.2179 64.2353 69.0149 57.1304 69.0149ZM57.1304 45.294C51.1557 45.294 46.263 50.1868 46.263 56.1614C46.263 62.136 51.1557 67.0287 57.1304 67.0287C63.105 67.0287 67.9977 62.136 67.9977 56.1614C67.9977 50.1868 63.105 45.294 57.1304 45.294Z" fill="#CFA935"/>
<path fill-rule="evenodd" clip-rule="evenodd" d="M57.1304 57.1787C54.3369 57.1787 52.0601 54.9019 52.0601 52.1245C52.0601 49.2826 54.3369 47.0057 57.1304 47.0057C59.9724 47.0057 62.2492 49.2826 62.2492 52.1245C62.2492 54.9019 59.9724 57.1787 57.1304 57.1787ZM57.1304 48.9435C55.4188 48.9435 54.0624 50.3644 54.0624 52.0599C54.0624 53.7716 55.4188 55.128 57.1304 55.128C58.8259 55.128 60.2631 53.7716 60.2631 52.0599C60.2631 50.3644 58.8259 48.9435 57.1304 48.9435Z" fill="#CFA935"/>
<path fill-rule="evenodd" clip-rule="evenodd" d="M12.9342 69.015C5.81311 69.015 0.0161133 63.218 0.0161133 56.1615C0.0161133 49.105 5.81311 43.308 12.9342 43.308C20.0392 43.308 25.7877 49.105 25.7877 56.1615C25.7877 63.218 20.0392 69.015 12.9342 69.015ZM12.9342 45.2941C6.89501 45.2941 2.00227 50.1869 2.00227 56.1615C2.00227 62.1361 6.89501 67.0289 12.9342 67.0289C18.9088 67.0289 23.7854 62.1361 23.7854 56.1615C23.7854 50.1869 18.9088 45.2941 12.9342 45.2941Z" fill="#CFA935"/>
</g>
<defs>
<clipPath id="clip0_2134_154">
<rect width="70" height="70" fill="white"/>
</clipPath>
</defs>
</svg>
