<svg width="70" height="70" viewBox="0 0 70 70" fill="none" xmlns="http://www.w3.org/2000/svg">
<g clip-path="url(#clip0_2134_57)">
<path fill-rule="evenodd" clip-rule="evenodd" d="M49.6292 28.1641C49.0824 28.1641 48.5355 27.7539 48.5355 27.0703V18.1836L35.2738 23.2422C34.8636 23.3789 34.18 23.1055 34.0433 22.6953C33.7699 22.1484 34.0433 21.6016 34.5902 21.3281L49.2191 15.7226C49.4925 15.5859 49.766 15.7226 50.0394 15.8594C50.4496 15.9961 50.5863 16.4062 50.5863 16.6797V27.0703C50.5863 27.7539 50.1761 28.1641 49.6292 28.1641Z" fill="#CFA935"/>
<path fill-rule="evenodd" clip-rule="evenodd" d="M35 38.1445C34.4531 38.1445 33.9062 37.7344 33.9062 37.1875V22.9688L21.3281 18.1836V27.0703C21.3281 27.7539 20.918 28.1641 20.2344 28.1641C19.6875 28.1641 19.4141 27.7539 19.4141 27.207V16.6797C19.4141 16.4062 19.5508 16.1328 19.8242 15.8594C20.0977 15.7227 20.5078 15.7227 20.7812 15.8594L35.2734 21.3281C35.6836 21.6016 35.957 21.875 35.957 22.2852V37.1875C35.957 37.7344 35.5469 38.1445 35 38.1445Z" fill="#CFA935"/>
<path fill-rule="evenodd" clip-rule="evenodd" d="M49.6289 17.6367C49.4922 17.6367 49.3555 17.6367 49.2187 17.6367L35 12.168L20.6445 17.6367C20.2344 17.7734 19.5508 17.6367 19.4141 17.0898C19.2773 16.543 19.4141 15.9961 19.9609 15.7227L34.5898 10.1172H35.2734L49.9023 15.7227C50.4492 15.8594 50.7227 16.543 50.4492 17.0898C50.4492 17.5 50.0391 17.6367 49.6289 17.6367Z" fill="#CFA935"/>
<path fill-rule="evenodd" clip-rule="evenodd" d="M15.5863 55.0976C15.1762 55.0976 14.9028 54.8242 14.766 54.4141C14.4926 54.0039 14.766 53.457 15.3129 53.1836L20.0981 51.4062C20.6449 51.1328 21.1918 51.4062 21.3285 51.9531C21.602 52.3633 21.3285 53.0469 20.7817 53.1836L15.9965 55.0976C15.8598 55.0976 15.7231 55.0976 15.5863 55.0976ZM30.2153 39.9219C29.6684 39.9219 29.2582 39.5117 29.2582 38.9648V32.4023L15.9965 37.4609C15.4496 37.5976 14.9028 37.3242 14.6293 36.9141C14.4926 36.3672 14.766 35.8203 15.1762 35.5469L29.8051 29.9414C30.0785 29.8047 30.4887 29.9414 30.7621 30.0781C31.0356 30.2148 31.1723 30.625 31.1723 30.8984V38.9648C31.1723 39.5117 30.7621 39.9219 30.2153 39.9219Z" fill="#CFA935"/>
<path fill-rule="evenodd" clip-rule="evenodd" d="M15.5859 55.0977C15.5859 55.0977 15.4492 55.0977 15.3125 55.0977L0.683594 49.4922C0.273438 49.3555 0 48.9453 0 48.5352V30.8984C0 30.625 0.136719 30.3516 0.410156 30.0781C0.683594 29.9414 1.09375 29.9414 1.36719 30.0781L15.9961 35.5469C16.4062 35.6836 16.543 36.0938 16.543 36.5039V54.1406C16.543 54.4141 16.4062 54.6875 16.1328 54.8242C15.9961 55.0977 15.8594 55.0977 15.5859 55.0977ZM2.05078 47.8516L14.6289 52.6367V37.1875L2.05078 32.4023V47.8516Z" fill="#CFA935"/>
<path fill-rule="evenodd" clip-rule="evenodd" d="M30.215 31.8555C30.0783 31.8555 30.0783 31.8555 29.9416 31.8555L15.5861 26.3867L1.36736 31.8555C0.820485 31.9922 0.27361 31.7188 0.000172615 31.3086C-0.136546 30.7617 0.136891 30.2148 0.683766 29.9414L15.176 24.3359H15.8595L30.4885 29.9414C31.0353 30.0781 31.3088 30.7617 31.172 31.3086C31.0353 31.7188 30.6252 31.8555 30.215 31.8555Z" fill="#CFA935"/>
<path fill-rule="evenodd" clip-rule="evenodd" d="M54.4141 55.0976C54.0039 55.0976 53.5937 54.8242 53.457 54.4141C53.3203 54.0039 53.457 53.457 54.0039 53.1836L67.9492 47.8516V32.4023L54.8242 37.4609C54.2773 37.5976 53.7305 37.3242 53.457 36.9141C53.3203 36.3672 53.457 35.8203 54.0039 35.5469L68.6328 29.9414C68.9062 29.8047 69.3164 29.9414 69.5898 30.0781C69.8633 30.2148 70 30.625 70 30.8984V48.5351C70 48.9453 69.7266 49.3555 69.3164 49.3555L54.8242 54.9609C54.5508 55.0976 54.4141 55.0976 54.4141 55.0976Z" fill="#CFA935"/>
<path fill-rule="evenodd" clip-rule="evenodd" d="M54.4141 55.0977C54.2773 55.0977 54.1406 55.0977 54.0039 55.0977L49.2188 53.1836C48.6719 53.0469 48.3984 52.3633 48.6719 51.9531C48.8086 51.4062 49.4922 51.1328 50.0391 51.4062L53.457 52.6367V37.1875L40.7422 32.4023V38.9648C40.7422 39.5117 40.332 39.9219 39.7852 39.9219C39.2383 39.9219 38.6914 39.5117 38.6914 38.9648V30.8984C38.6914 30.625 38.8281 30.3516 39.2383 30.0781C39.5117 29.9414 39.7852 29.9414 40.0586 30.0781L54.6875 35.5469C55.0977 35.8203 55.3711 36.0938 55.3711 36.5039V54.1406C55.3711 54.4141 55.0977 54.8242 54.8242 54.9609C54.8242 55.0977 54.5508 55.0977 54.4141 55.0977Z" fill="#CFA935"/>
<path fill-rule="evenodd" clip-rule="evenodd" d="M69.0433 31.8555C68.9066 31.8555 68.7699 31.8555 68.6332 31.8555L54.4144 26.3867L40.0589 31.8555C39.5121 31.9922 38.9652 31.7188 38.8285 31.3086C38.555 30.7617 38.8285 30.2148 39.3753 29.9414L54.0042 24.3359H54.6878L69.3167 29.9414C69.7269 30.0781 70.0003 30.7617 69.8636 31.3086C69.7269 31.7188 69.3167 31.8555 69.0433 31.8555Z" fill="#CFA935"/>
<path fill-rule="evenodd" clip-rule="evenodd" d="M35.0003 66.9922C34.5902 66.9922 34.18 66.7187 34.0433 66.3086C33.9066 65.7617 34.18 65.2148 34.5902 64.9414L48.6722 59.6094V44.1601L35.2738 49.2187C34.8636 49.3555 34.18 49.082 34.0433 48.6719C33.7699 48.125 34.0433 47.5781 34.5902 47.3047L49.2191 41.6992C49.4925 41.5625 49.766 41.6992 50.0394 41.8359C50.4496 41.9726 50.5863 42.3828 50.5863 42.6562V60.293C50.5863 60.7031 50.3128 61.1133 49.9027 61.25L35.2738 66.8555C35.1371 66.8555 35.1371 66.9922 35.0003 66.9922Z" fill="#CFA935"/>
<path fill-rule="evenodd" clip-rule="evenodd" d="M35 66.9921C34.8633 66.9921 34.7266 66.9921 34.5898 66.8554L19.9609 61.25C19.5508 61.1132 19.4141 60.8398 19.4141 60.4296V42.6562C19.4141 42.3828 19.5508 42.1093 19.8242 41.9726C20.0977 41.6992 20.5078 41.6992 20.7812 41.8359L35.2734 47.3046C35.6836 47.5781 35.957 47.8515 35.957 48.2617V65.8984C35.957 66.3086 35.8203 66.582 35.5469 66.7187C35.4102 66.8554 35.1367 66.9921 35 66.9921ZM21.3281 59.6093L34.043 64.5312V48.9453L21.3281 44.1601V59.6093Z" fill="#CFA935"/>
<path fill-rule="evenodd" clip-rule="evenodd" d="M49.6289 43.75C49.4922 43.75 49.3555 43.75 49.2187 43.6133L35 38.1445L20.6445 43.6133C20.2344 43.8867 19.5508 43.6133 19.4141 43.0664C19.2773 42.6562 19.4141 41.9727 19.9609 41.8359L34.5898 36.2305C34.8633 36.0938 35 36.0938 35.2734 36.2305L49.9023 41.8359C50.4492 41.9727 50.7227 42.6562 50.4492 43.0664C50.4492 43.4766 50.0391 43.75 49.6289 43.75Z" fill="#CFA935"/>
<path fill-rule="evenodd" clip-rule="evenodd" d="M4.10156 15.3125C2.05078 15.3125 0.273438 13.6719 0.273438 11.4844C0.273438 9.43359 2.05078 7.79297 4.10156 7.79297C6.15234 7.79297 7.92969 9.43359 7.92969 11.4844C7.92969 13.6719 6.15234 15.3125 4.10156 15.3125ZM4.10156 9.70703C3.00781 9.70703 2.32422 10.5273 2.32422 11.4844C2.32422 12.5781 3.00781 13.3984 4.10156 13.3984C5.05859 13.3984 6.01562 12.5781 6.01562 11.4844C5.87891 10.5273 5.05859 9.70703 4.10156 9.70703Z" fill="#CFA935"/>
<path fill-rule="evenodd" clip-rule="evenodd" d="M65.8984 15.3125C63.8477 15.3125 62.0703 13.6719 62.0703 11.4844C62.0703 9.43359 63.8477 7.79297 65.8984 7.79297C67.9492 7.79297 69.7266 9.43359 69.7266 11.4844C69.7266 13.6719 67.9492 15.3125 65.8984 15.3125ZM65.8984 9.70703C64.9414 9.70703 64.1211 10.5273 64.1211 11.4844C64.1211 12.5781 64.9414 13.3984 65.8984 13.3984C66.9922 13.3984 67.8125 12.5781 67.8125 11.4844C67.8125 10.5273 66.9922 9.70703 65.8984 9.70703Z" fill="#CFA935"/>
<path fill-rule="evenodd" clip-rule="evenodd" d="M53.7305 14.4922C51.6797 14.4922 50.0391 12.7148 50.0391 10.6641C50.0391 8.47656 51.6797 6.69922 53.7305 6.69922C55.918 6.69922 57.6953 8.47656 57.6953 10.6641C57.6953 12.7148 55.918 14.4922 53.7305 14.4922ZM53.7305 8.75C52.7734 8.75 51.9531 9.57031 51.9531 10.6641C51.9531 11.6211 52.7734 12.4414 53.7305 12.4414C54.8242 12.4414 55.6445 11.6211 55.6445 10.6641C55.6445 9.57031 54.8242 8.75 53.7305 8.75Z" fill="#CFA935"/>
<path fill-rule="evenodd" clip-rule="evenodd" d="M16.1328 14.4922C14.082 14.4922 12.3047 12.7148 12.3047 10.6641C12.3047 8.47656 14.082 6.69922 16.1328 6.69922C18.3203 6.69922 19.9609 8.47656 19.9609 10.6641C19.9609 12.7148 18.3203 14.4922 16.1328 14.4922ZM16.1328 8.75C15.1758 8.75 14.3555 9.57031 14.3555 10.6641C14.3555 11.6211 15.1758 12.4414 16.1328 12.4414C17.2266 12.4414 18.0469 11.6211 18.0469 10.6641C18.0469 9.57031 17.2266 8.75 16.1328 8.75Z" fill="#CFA935"/>
<path fill-rule="evenodd" clip-rule="evenodd" d="M35 12.168C34.4531 12.168 33.9062 11.7578 33.9062 11.2109V4.10156C33.9062 3.55469 34.4531 3.00781 35 3.00781C35.5469 3.00781 35.957 3.55469 35.957 4.10156V11.2109C35.957 11.7578 35.5469 12.168 35 12.168Z" fill="#CFA935"/>
<path fill-rule="evenodd" clip-rule="evenodd" d="M8.61345 47.0312C8.20329 47.0312 7.92986 46.8945 7.79314 46.6211L4.37517 40.6054C4.10173 40.1953 4.23845 39.5117 4.64861 39.2382C5.05876 38.9648 5.74236 39.2382 6.01579 39.6484L9.43376 45.5273C9.7072 45.9375 9.57048 46.6211 9.16033 46.8945C8.88689 47.0312 8.75017 47.0312 8.61345 47.0312Z" fill="#CFA935"/>
<path fill-rule="evenodd" clip-rule="evenodd" d="M11.3479 45.8008C11.0744 45.8008 10.6643 45.6641 10.5275 45.2539L7.10958 39.375C6.83614 38.9648 7.10958 38.2812 7.51973 38.0078C7.92989 37.7344 8.61348 37.8711 8.88692 38.418L12.1682 44.2969C12.5783 44.707 12.3049 45.2539 11.8947 45.6641C11.758 45.8008 11.4846 45.8008 11.3479 45.8008Z" fill="#CFA935"/>
<path fill-rule="evenodd" clip-rule="evenodd" d="M61.3869 47.0312C61.2502 47.0312 60.9768 47.0312 60.84 47.0312C60.4299 46.6211 60.1565 46.0742 60.4299 45.6641L63.8479 39.6484C64.1213 39.2383 64.6682 39.1016 65.215 39.2383C65.6252 39.5117 65.7619 40.1953 65.6252 40.6055L62.2072 46.6211C62.0705 46.8945 61.6604 47.0312 61.3869 47.0312Z" fill="#CFA935"/>
<path fill-rule="evenodd" clip-rule="evenodd" d="M58.5156 45.8008C58.3789 45.8008 58.2422 45.6641 58.1055 45.6641C57.5586 45.3907 57.4219 44.7071 57.6953 44.2969L61.1133 38.418C61.3867 38.0079 62.0703 37.8711 62.4805 38.1446C62.8906 38.418 63.1641 38.9649 62.8906 39.5118L59.4727 45.254C59.1992 45.6641 58.9258 45.8008 58.5156 45.8008Z" fill="#CFA935"/>
<path fill-rule="evenodd" clip-rule="evenodd" d="M58.7891 32.2656C58.2422 32.2656 57.832 31.8555 57.832 31.3086V22.5586C57.832 22.0117 58.2422 21.6016 58.7891 21.6016H64.9414V11.4844C64.9414 10.9375 65.3516 10.5273 65.8984 10.5273C66.4453 10.5273 66.9922 10.9375 66.9922 11.4844V22.5586C66.9922 23.1055 66.4453 23.6523 65.8984 23.6523H59.7461V31.3086C59.7461 31.8555 59.3359 32.2656 58.7891 32.2656Z" fill="#CFA935"/>
<path fill-rule="evenodd" clip-rule="evenodd" d="M37.0509 16.2695C36.7775 16.2695 36.3674 16.1328 36.2306 15.7227C35.9572 15.3125 36.0939 14.6289 36.5041 14.3555L44.7072 9.70703C44.8439 9.57031 44.9806 9.57031 45.2541 9.57031H53.7306C54.4142 9.57031 54.8244 10.1172 54.8244 10.6641C54.8244 11.2109 54.4142 11.6211 53.7306 11.6211H45.5275L37.5978 16.2695C37.4611 16.2695 37.1877 16.2695 37.0509 16.2695Z" fill="#CFA935"/>
<path fill-rule="evenodd" clip-rule="evenodd" d="M32.8125 16.2695C32.6758 16.2695 32.5391 16.2695 32.4023 16.1328L24.4727 11.6211H16.1328C15.5859 11.6211 15.1758 11.2109 15.1758 10.5273C15.1758 9.98047 15.5859 9.57031 16.1328 9.57031H24.7461C24.8828 9.57031 25.0195 9.57031 25.293 9.70703L33.3594 14.3555C33.7695 14.6289 34.043 15.1758 33.7695 15.7227C33.4961 16.1328 33.2227 16.2695 32.8125 16.2695Z" fill="#CFA935"/>
<path fill-rule="evenodd" clip-rule="evenodd" d="M11.2109 32.2656C10.6641 32.2656 10.1172 31.8555 10.1172 31.3086V23.5156H4.10156C3.55469 23.5156 3.00781 23.1055 3.00781 22.5586V11.4844C3.00781 10.9375 3.55469 10.5273 4.10156 10.5273C4.64844 10.5273 5.05859 10.9375 5.05859 11.4844V21.6016H11.2109C11.8945 21.6016 12.3047 22.0117 12.3047 22.5586V31.3086C12.168 31.8555 11.7578 32.2656 11.2109 32.2656Z" fill="#CFA935"/>
</g>
<defs>
<clipPath id="clip0_2134_57">
<rect width="70" height="70" fill="white"/>
</clipPath>
</defs>
</svg>
