<svg width="48" height="48" viewBox="0 0 48 48" fill="none" xmlns="http://www.w3.org/2000/svg">
<path d="M42.75 1.5H5.25C3.18237 1.5 1.5 3.18237 1.5 5.25V42.75C1.5 44.8176 3.18237 46.5 5.25 46.5H42.75C44.8176 46.5 46.5 44.8176 46.5 42.75V5.25C46.5 3.18237 44.8176 1.5 42.75 1.5ZM5.25 3H42.75C43.9907 3 45 4.00927 45 5.25V34.1287H3V5.25C3 4.00927 4.00927 3 5.25 3ZM42.75 45H5.25C4.00927 45 3 43.9907 3 42.75V35.6287H45V42.75C45 43.9907 43.9907 45 42.75 45Z" fill="#A9A7B0"/>
<path d="M40.5 39.5645H18.3132C17.9779 38.2741 16.8137 37.3145 15.4197 37.3145C14.0257 37.3145 12.8615 38.2741 12.5262 39.5645H7.5C7.08545 39.5645 6.75 39.8999 6.75 40.3145C6.75 40.729 7.08545 41.0645 7.5 41.0645H12.5262C12.8615 42.3548 14.0257 43.3145 15.4197 43.3145C16.8137 43.3145 17.9779 42.3548 18.3132 41.0645H40.5C40.9145 41.0645 41.25 40.729 41.25 40.3145C41.25 39.8999 40.9145 39.5645 40.5 39.5645ZM15.4197 41.8145C14.5928 41.8145 13.9197 41.1414 13.9197 40.3145C13.9197 39.4875 14.5928 38.8145 15.4197 38.8145C16.2466 38.8145 16.9197 39.4875 16.9197 40.3145C16.9197 41.1414 16.2466 41.8145 15.4197 41.8145Z" fill="#A9A7B0"/>
<path d="M24 30.5645C30.6167 30.5645 36 25.1812 36 18.5645C36 11.9478 30.6167 6.56445 24 6.56445C17.3833 6.56445 12 11.9478 12 18.5645C12 25.1812 17.3833 30.5645 24 30.5645ZM24 8.06445C29.7898 8.06445 34.5 12.7747 34.5 18.5645C34.5 24.3542 29.7898 29.0645 24 29.0645C18.2102 29.0645 13.5 24.3542 13.5 18.5645C13.5 12.7747 18.2102 8.06445 24 8.06445Z" fill="#A9A7B0"/>
<path d="M20.7927 24.2996C21.0262 24.4327 21.3129 24.4316 21.5449 24.2952L30.2139 19.2107C30.4431 19.076 30.5845 18.8299 30.5845 18.564C30.5845 18.2981 30.4438 18.052 30.2139 17.9173L21.5449 12.8321C21.312 12.6951 21.0256 12.6944 20.7927 12.8277C20.5598 12.9617 20.4155 13.21 20.4155 13.4788V23.6485C20.4155 23.9173 20.5598 24.1656 20.7927 24.2996ZM21.9155 14.7884L28.3521 18.564L21.9155 22.3389V14.7884Z" fill="#A9A7B0"/>
</svg>
