<svg width="90" height="90" viewBox="0 0 90 90" fill="none" xmlns="http://www.w3.org/2000/svg">
<g clip-path="url(#clip0_11403_13599)">
<mask id="path-1-outside-1_11403_13599" maskUnits="userSpaceOnUse" x="-0.742188" y="-0.113281" width="92" height="90" fill="black">
<rect fill="white" x="-0.742188" y="-0.113281" width="92" height="90"/>
<path d="M36.1423 70.5928C35.3688 69.6787 34.0856 69.4502 33.0661 69.96L31.7477 67.1299C30.9743 65.4775 29.5856 64.1416 27.9508 63.4561L16.9821 58.6924C15.5055 58.042 13.818 58.2881 12.7809 59.4307L7.38444 43.2939C6.73405 41.1318 4.04459 39.6729 2.09342 40.6221C0.775063 41.2197 0.0719378 42.6084 0.300453 44.1553L3.25358 64.4053C3.51725 66.1631 4.44889 67.8506 5.83756 69.0635L12.0251 74.5127L19.988 81.0869C19.4079 82.001 19.443 83.2314 20.1813 84.1104L23.6618 88.2061C24.5231 89.2783 26.2458 89.4189 27.2829 88.5049L39.3239 78.292C39.8512 77.8525 40.1676 77.2373 40.2204 76.5518C40.2731 75.8662 40.0622 75.1982 39.6227 74.6885L36.1423 70.5928ZM13.238 73.0889L7.06803 67.6572C6.01334 66.7256 5.29264 65.4424 5.09928 64.124L2.14616 43.8916C2.04069 43.1885 2.32194 42.5908 2.86686 42.3447C3.81608 41.8701 5.27506 42.7842 5.59147 43.9092L11.8317 62.6475C11.8493 62.7002 11.8844 62.7529 11.902 62.8232C12.2184 64.2119 13.2907 65.4951 14.609 66.0576L21.113 68.9229C22.2204 69.415 22.9938 67.71 21.8688 67.2002L15.3473 64.3174C14.9606 64.1416 14.609 63.8779 14.3278 63.5439C12.9567 62.0147 13.9411 59.4482 16.1735 60.3975C18.5114 61.417 24.8922 64.2119 27.1598 65.1611C29.5153 65.9697 30.4997 69.0811 31.484 71.1025L21.2887 79.751L13.238 73.0889ZM38.0934 76.8682L26.0524 87.0811C25.9118 87.2041 25.736 87.2568 25.5426 87.2393C25.3669 87.2217 25.1911 87.1338 25.068 86.9932L21.6227 82.8975C21.3942 82.6162 21.4118 82.2119 21.6755 81.9658C21.7985 81.9307 21.9391 81.8779 22.0446 81.79L33.3298 72.1396C33.4001 72.0693 33.4704 71.999 33.5055 71.9287C33.8219 71.5772 34.3493 71.4014 34.7008 71.8057L38.1637 75.9014C38.4274 76.1826 38.3922 76.6221 38.0934 76.8682ZM87.9098 40.6221C85.9587 39.6729 83.2692 41.1318 82.6188 43.2939L77.2399 59.4307C76.1852 58.2881 74.5153 58.042 73.0387 58.6924L65.5329 61.9619L62.07 63.4561C60.4352 64.1416 59.0465 65.4775 58.2731 67.1475L56.9547 69.96C55.9176 69.4502 54.652 69.6787 53.8786 70.5928L50.4157 74.6885C49.5016 75.7256 49.6422 77.4307 50.7145 78.3096L62.7555 88.5225C63.8278 89.4365 65.445 89.3135 66.3766 88.2236L69.8395 84.1279C70.5602 83.3018 70.6481 82.0186 70.0505 81.1045L78.0309 74.5127L84.1833 69.0811C85.5719 67.8682 86.5036 66.1631 86.7673 64.4229L89.738 44.1729C89.9313 42.6084 89.2282 41.2197 87.9098 40.6221ZM68.3805 82.8975L64.9176 86.9932C64.6715 87.2744 64.2321 87.3271 63.9508 87.0811L51.9098 76.8682C51.7692 76.7451 51.6813 76.5869 51.6637 76.3936C51.6462 76.2178 51.6989 76.0244 51.8219 75.9014L55.2848 71.8057C55.7419 71.2783 56.3395 71.7002 56.6735 72.1396L67.9587 81.79C68.0641 81.8779 68.2048 81.9307 68.3278 81.9658C68.5915 82.2119 68.6266 82.6338 68.3805 82.8975ZM87.8571 43.8916L84.8864 64.124C84.693 65.4424 83.9723 66.7256 82.9176 67.6572C79.5602 70.7334 72.2301 76.8857 68.6618 79.7861L58.4665 71.1377C59.4684 69.0986 60.4176 66.0049 62.7907 65.1963L73.777 60.4326C76.8356 59.3076 76.9762 63.4385 74.6032 64.335L68.0993 67.2002C66.9743 67.6924 67.7301 69.415 68.8551 68.9229L75.359 66.0576C76.7829 65.4775 77.7673 64.0713 78.154 62.6299L84.3942 43.9092C84.9215 41.9932 88.0856 41.3779 87.8571 43.8916ZM53.3512 64.3701C56.1462 64.0889 57.359 60.3799 55.2672 58.5166C57.4997 56.4951 55.9352 52.5225 52.8942 52.6279C52.6481 48.8838 53.9313 45.1748 56.902 42.6963C65.0758 35.9639 65.5329 22.7451 57.7985 15.5205C46.1618 4.05957 26.3688 12.9893 26.6501 29.1436C26.7731 34.3467 29.111 39.251 33.0485 42.626C36.1422 45.2275 37.3903 48.8838 37.1266 52.6279C34.068 52.5225 32.5036 56.4951 34.736 58.5166C32.6442 60.3799 33.8571 64.0889 36.652 64.3701C36.863 68.2373 40.0622 71.3311 43.9997 71.3311H46.0036C49.9235 71.3311 53.1403 68.2373 53.3512 64.3701ZM34.279 41.2021C30.7458 38.1787 28.6364 33.7666 28.5309 29.0908C28.32 20.2139 35.6501 12.4795 44.527 12.2158C53.5622 11.7588 61.6833 19.6514 61.4899 28.7041C61.4899 33.5381 59.3805 38.1084 55.6891 41.2725C52.3141 44.1025 50.7497 48.3564 51.0133 52.6279H39.0075C39.2887 48.3389 37.7594 44.1553 34.279 41.2021ZM35.5446 60.9951C35.5446 60.1514 36.2301 59.4482 37.0739 59.4482H41.8903C43.1208 59.4482 43.1208 57.585 41.8903 57.5674H37.0739C35.0524 57.5322 35.0524 54.5264 37.0739 54.4912H52.9118C53.7555 54.4912 54.4587 55.1768 54.4587 56.0381C54.4587 56.8994 53.7731 57.585 52.9118 57.585H50.0114C48.7809 57.585 48.7809 59.4482 50.0114 59.4658H52.9118C53.7555 59.4658 54.4587 60.1514 54.4587 61.0127C54.4587 61.8564 53.7731 62.5596 52.9118 62.5596H37.0915C36.2301 62.5244 35.5446 61.8389 35.5446 60.9951ZM46.0036 69.4502H43.9997C41.1169 69.4502 38.7614 67.2178 38.5329 64.4053H51.4704C51.2419 67.2178 48.8864 69.4502 46.0036 69.4502ZM57.9743 30.7607C58.2028 30.4443 58.2028 30.0049 57.9743 29.6885C55.0036 25.4346 50.152 22.9033 45.0016 22.9033C39.8337 22.9033 34.9821 25.4346 32.029 29.6885C31.8005 30.0049 31.8005 30.4443 32.029 30.7607C38.1286 39.7432 51.8747 39.7432 57.9743 30.7607ZM51.1012 26.208C53.0173 27.1396 54.7047 28.5107 56.0407 30.2334C54.7047 31.9561 53.0173 33.3271 51.1012 34.2588C52.7008 31.9912 52.7008 28.4756 51.1012 26.208ZM38.902 34.2588C36.986 33.3271 35.2985 31.9561 33.9626 30.2334C35.2985 28.5107 36.986 27.1396 38.902 26.208C37.3024 28.4756 37.3024 31.9912 38.902 34.2588ZM39.5524 30.2334C39.7809 23.0439 50.2047 23.0439 50.4333 30.2334C50.2047 37.4229 39.7985 37.4229 39.5524 30.2334ZM42.3649 30.2334C42.4528 33.7139 47.5505 33.7139 47.6383 30.2334C47.5505 26.7529 42.4528 26.7529 42.3649 30.2334ZM44.2458 30.2334C44.2458 29.2314 45.7575 29.2314 45.7575 30.2334C45.7575 31.2178 44.2458 31.2178 44.2458 30.2334ZM24.2419 49.6748L26.8962 47.0205C27.2653 46.6514 27.863 46.6514 28.2145 47.0205C28.5837 47.3897 28.5837 47.9873 28.2145 48.3389L25.5602 50.9932C25.1911 51.3623 24.5934 51.3623 24.2419 50.9932C23.8727 50.624 23.8727 50.0264 24.2419 49.6748ZM61.7887 13.4463C61.4196 13.0771 61.4196 12.4795 61.7887 12.1279L64.443 9.47363C64.8122 9.10449 65.4098 9.10449 65.7614 9.47363C66.113 9.84277 66.1305 10.4404 65.7614 10.792L63.1071 13.4463C62.738 13.8154 62.1579 13.8154 61.7887 13.4463ZM16.5778 29.2842H20.3219C21.5524 29.2842 21.5524 31.1475 20.3219 31.165H16.5778C15.3473 31.165 15.3473 29.3018 16.5778 29.2842ZM69.6813 29.2842H73.4255C74.6559 29.2842 74.6559 31.1475 73.4255 31.165H69.6813C68.4508 31.165 68.4508 29.3018 69.6813 29.2842ZM24.2419 10.792C23.3805 9.91309 24.6989 8.59473 25.5602 9.47363L28.2145 12.1279C29.0758 13.0068 27.7575 14.3252 26.8962 13.4639C26.8962 13.4463 24.2419 10.792 24.2419 10.792ZM65.7614 49.6748C66.6227 50.5537 65.3044 51.8721 64.443 51.0107L61.7887 48.3564C60.9274 47.4775 62.2458 46.1592 63.1071 47.0381C63.1071 47.0205 65.7614 49.6748 65.7614 49.6748ZM44.07 5.55371V1.80957C44.07 0.579102 45.9508 0.579102 45.9508 1.80957V5.55371C45.9333 6.78418 44.07 6.78418 44.07 5.55371Z"/>
</mask>
<path d="M36.1423 70.5928C35.3688 69.6787 34.0856 69.4502 33.0661 69.96L31.7477 67.1299C30.9743 65.4775 29.5856 64.1416 27.9508 63.4561L16.9821 58.6924C15.5055 58.042 13.818 58.2881 12.7809 59.4307L7.38444 43.2939C6.73405 41.1318 4.04459 39.6729 2.09342 40.6221C0.775063 41.2197 0.0719378 42.6084 0.300453 44.1553L3.25358 64.4053C3.51725 66.1631 4.44889 67.8506 5.83756 69.0635L12.0251 74.5127L19.988 81.0869C19.4079 82.001 19.443 83.2314 20.1813 84.1104L23.6618 88.2061C24.5231 89.2783 26.2458 89.4189 27.2829 88.5049L39.3239 78.292C39.8512 77.8525 40.1676 77.2373 40.2204 76.5518C40.2731 75.8662 40.0622 75.1982 39.6227 74.6885L36.1423 70.5928ZM13.238 73.0889L7.06803 67.6572C6.01334 66.7256 5.29264 65.4424 5.09928 64.124L2.14616 43.8916C2.04069 43.1885 2.32194 42.5908 2.86686 42.3447C3.81608 41.8701 5.27506 42.7842 5.59147 43.9092L11.8317 62.6475C11.8493 62.7002 11.8844 62.7529 11.902 62.8232C12.2184 64.2119 13.2907 65.4951 14.609 66.0576L21.113 68.9229C22.2204 69.415 22.9938 67.71 21.8688 67.2002L15.3473 64.3174C14.9606 64.1416 14.609 63.8779 14.3278 63.5439C12.9567 62.0147 13.9411 59.4482 16.1735 60.3975C18.5114 61.417 24.8922 64.2119 27.1598 65.1611C29.5153 65.9697 30.4997 69.0811 31.484 71.1025L21.2887 79.751L13.238 73.0889ZM38.0934 76.8682L26.0524 87.0811C25.9118 87.2041 25.736 87.2568 25.5426 87.2393C25.3669 87.2217 25.1911 87.1338 25.068 86.9932L21.6227 82.8975C21.3942 82.6162 21.4118 82.2119 21.6755 81.9658C21.7985 81.9307 21.9391 81.8779 22.0446 81.79L33.3298 72.1396C33.4001 72.0693 33.4704 71.999 33.5055 71.9287C33.8219 71.5772 34.3493 71.4014 34.7008 71.8057L38.1637 75.9014C38.4274 76.1826 38.3922 76.6221 38.0934 76.8682ZM87.9098 40.6221C85.9587 39.6729 83.2692 41.1318 82.6188 43.2939L77.2399 59.4307C76.1852 58.2881 74.5153 58.042 73.0387 58.6924L65.5329 61.9619L62.07 63.4561C60.4352 64.1416 59.0465 65.4775 58.2731 67.1475L56.9547 69.96C55.9176 69.4502 54.652 69.6787 53.8786 70.5928L50.4157 74.6885C49.5016 75.7256 49.6422 77.4307 50.7145 78.3096L62.7555 88.5225C63.8278 89.4365 65.445 89.3135 66.3766 88.2236L69.8395 84.1279C70.5602 83.3018 70.6481 82.0186 70.0505 81.1045L78.0309 74.5127L84.1833 69.0811C85.5719 67.8682 86.5036 66.1631 86.7673 64.4229L89.738 44.1729C89.9313 42.6084 89.2282 41.2197 87.9098 40.6221ZM68.3805 82.8975L64.9176 86.9932C64.6715 87.2744 64.2321 87.3271 63.9508 87.0811L51.9098 76.8682C51.7692 76.7451 51.6813 76.5869 51.6637 76.3936C51.6462 76.2178 51.6989 76.0244 51.8219 75.9014L55.2848 71.8057C55.7419 71.2783 56.3395 71.7002 56.6735 72.1396L67.9587 81.79C68.0641 81.8779 68.2048 81.9307 68.3278 81.9658C68.5915 82.2119 68.6266 82.6338 68.3805 82.8975ZM87.8571 43.8916L84.8864 64.124C84.693 65.4424 83.9723 66.7256 82.9176 67.6572C79.5602 70.7334 72.2301 76.8857 68.6618 79.7861L58.4665 71.1377C59.4684 69.0986 60.4176 66.0049 62.7907 65.1963L73.777 60.4326C76.8356 59.3076 76.9762 63.4385 74.6032 64.335L68.0993 67.2002C66.9743 67.6924 67.7301 69.415 68.8551 68.9229L75.359 66.0576C76.7829 65.4775 77.7673 64.0713 78.154 62.6299L84.3942 43.9092C84.9215 41.9932 88.0856 41.3779 87.8571 43.8916ZM53.3512 64.3701C56.1462 64.0889 57.359 60.3799 55.2672 58.5166C57.4997 56.4951 55.9352 52.5225 52.8942 52.6279C52.6481 48.8838 53.9313 45.1748 56.902 42.6963C65.0758 35.9639 65.5329 22.7451 57.7985 15.5205C46.1618 4.05957 26.3688 12.9893 26.6501 29.1436C26.7731 34.3467 29.111 39.251 33.0485 42.626C36.1422 45.2275 37.3903 48.8838 37.1266 52.6279C34.068 52.5225 32.5036 56.4951 34.736 58.5166C32.6442 60.3799 33.8571 64.0889 36.652 64.3701C36.863 68.2373 40.0622 71.3311 43.9997 71.3311H46.0036C49.9235 71.3311 53.1403 68.2373 53.3512 64.3701ZM34.279 41.2021C30.7458 38.1787 28.6364 33.7666 28.5309 29.0908C28.32 20.2139 35.6501 12.4795 44.527 12.2158C53.5622 11.7588 61.6833 19.6514 61.4899 28.7041C61.4899 33.5381 59.3805 38.1084 55.6891 41.2725C52.3141 44.1025 50.7497 48.3564 51.0133 52.6279H39.0075C39.2887 48.3389 37.7594 44.1553 34.279 41.2021ZM35.5446 60.9951C35.5446 60.1514 36.2301 59.4482 37.0739 59.4482H41.8903C43.1208 59.4482 43.1208 57.585 41.8903 57.5674H37.0739C35.0524 57.5322 35.0524 54.5264 37.0739 54.4912H52.9118C53.7555 54.4912 54.4587 55.1768 54.4587 56.0381C54.4587 56.8994 53.7731 57.585 52.9118 57.585H50.0114C48.7809 57.585 48.7809 59.4482 50.0114 59.4658H52.9118C53.7555 59.4658 54.4587 60.1514 54.4587 61.0127C54.4587 61.8564 53.7731 62.5596 52.9118 62.5596H37.0915C36.2301 62.5244 35.5446 61.8389 35.5446 60.9951ZM46.0036 69.4502H43.9997C41.1169 69.4502 38.7614 67.2178 38.5329 64.4053H51.4704C51.2419 67.2178 48.8864 69.4502 46.0036 69.4502ZM57.9743 30.7607C58.2028 30.4443 58.2028 30.0049 57.9743 29.6885C55.0036 25.4346 50.152 22.9033 45.0016 22.9033C39.8337 22.9033 34.9821 25.4346 32.029 29.6885C31.8005 30.0049 31.8005 30.4443 32.029 30.7607C38.1286 39.7432 51.8747 39.7432 57.9743 30.7607ZM51.1012 26.208C53.0173 27.1396 54.7047 28.5107 56.0407 30.2334C54.7047 31.9561 53.0173 33.3271 51.1012 34.2588C52.7008 31.9912 52.7008 28.4756 51.1012 26.208ZM38.902 34.2588C36.986 33.3271 35.2985 31.9561 33.9626 30.2334C35.2985 28.5107 36.986 27.1396 38.902 26.208C37.3024 28.4756 37.3024 31.9912 38.902 34.2588ZM39.5524 30.2334C39.7809 23.0439 50.2047 23.0439 50.4333 30.2334C50.2047 37.4229 39.7985 37.4229 39.5524 30.2334ZM42.3649 30.2334C42.4528 33.7139 47.5505 33.7139 47.6383 30.2334C47.5505 26.7529 42.4528 26.7529 42.3649 30.2334ZM44.2458 30.2334C44.2458 29.2314 45.7575 29.2314 45.7575 30.2334C45.7575 31.2178 44.2458 31.2178 44.2458 30.2334ZM24.2419 49.6748L26.8962 47.0205C27.2653 46.6514 27.863 46.6514 28.2145 47.0205C28.5837 47.3897 28.5837 47.9873 28.2145 48.3389L25.5602 50.9932C25.1911 51.3623 24.5934 51.3623 24.2419 50.9932C23.8727 50.624 23.8727 50.0264 24.2419 49.6748ZM61.7887 13.4463C61.4196 13.0771 61.4196 12.4795 61.7887 12.1279L64.443 9.47363C64.8122 9.10449 65.4098 9.10449 65.7614 9.47363C66.113 9.84277 66.1305 10.4404 65.7614 10.792L63.1071 13.4463C62.738 13.8154 62.1579 13.8154 61.7887 13.4463ZM16.5778 29.2842H20.3219C21.5524 29.2842 21.5524 31.1475 20.3219 31.165H16.5778C15.3473 31.165 15.3473 29.3018 16.5778 29.2842ZM69.6813 29.2842H73.4255C74.6559 29.2842 74.6559 31.1475 73.4255 31.165H69.6813C68.4508 31.165 68.4508 29.3018 69.6813 29.2842ZM24.2419 10.792C23.3805 9.91309 24.6989 8.59473 25.5602 9.47363L28.2145 12.1279C29.0758 13.0068 27.7575 14.3252 26.8962 13.4639C26.8962 13.4463 24.2419 10.792 24.2419 10.792ZM65.7614 49.6748C66.6227 50.5537 65.3044 51.8721 64.443 51.0107L61.7887 48.3564C60.9274 47.4775 62.2458 46.1592 63.1071 47.0381C63.1071 47.0205 65.7614 49.6748 65.7614 49.6748ZM44.07 5.55371V1.80957C44.07 0.579102 45.9508 0.579102 45.9508 1.80957V5.55371C45.9333 6.78418 44.07 6.78418 44.07 5.55371Z" fill="#CFA935"/>
<path d="M36.1423 70.5928C35.3688 69.6787 34.0856 69.4502 33.0661 69.96L31.7477 67.1299C30.9743 65.4775 29.5856 64.1416 27.9508 63.4561L16.9821 58.6924C15.5055 58.042 13.818 58.2881 12.7809 59.4307L7.38444 43.2939C6.73405 41.1318 4.04459 39.6729 2.09342 40.6221C0.775063 41.2197 0.0719378 42.6084 0.300453 44.1553L3.25358 64.4053C3.51725 66.1631 4.44889 67.8506 5.83756 69.0635L12.0251 74.5127L19.988 81.0869C19.4079 82.001 19.443 83.2314 20.1813 84.1104L23.6618 88.2061C24.5231 89.2783 26.2458 89.4189 27.2829 88.5049L39.3239 78.292C39.8512 77.8525 40.1676 77.2373 40.2204 76.5518C40.2731 75.8662 40.0622 75.1982 39.6227 74.6885L36.1423 70.5928ZM13.238 73.0889L7.06803 67.6572C6.01334 66.7256 5.29264 65.4424 5.09928 64.124L2.14616 43.8916C2.04069 43.1885 2.32194 42.5908 2.86686 42.3447C3.81608 41.8701 5.27506 42.7842 5.59147 43.9092L11.8317 62.6475C11.8493 62.7002 11.8844 62.7529 11.902 62.8232C12.2184 64.2119 13.2907 65.4951 14.609 66.0576L21.113 68.9229C22.2204 69.415 22.9938 67.71 21.8688 67.2002L15.3473 64.3174C14.9606 64.1416 14.609 63.8779 14.3278 63.5439C12.9567 62.0147 13.9411 59.4482 16.1735 60.3975C18.5114 61.417 24.8922 64.2119 27.1598 65.1611C29.5153 65.9697 30.4997 69.0811 31.484 71.1025L21.2887 79.751L13.238 73.0889ZM38.0934 76.8682L26.0524 87.0811C25.9118 87.2041 25.736 87.2568 25.5426 87.2393C25.3669 87.2217 25.1911 87.1338 25.068 86.9932L21.6227 82.8975C21.3942 82.6162 21.4118 82.2119 21.6755 81.9658C21.7985 81.9307 21.9391 81.8779 22.0446 81.79L33.3298 72.1396C33.4001 72.0693 33.4704 71.999 33.5055 71.9287C33.8219 71.5772 34.3493 71.4014 34.7008 71.8057L38.1637 75.9014C38.4274 76.1826 38.3922 76.6221 38.0934 76.8682ZM87.9098 40.6221C85.9587 39.6729 83.2692 41.1318 82.6188 43.2939L77.2399 59.4307C76.1852 58.2881 74.5153 58.042 73.0387 58.6924L65.5329 61.9619L62.07 63.4561C60.4352 64.1416 59.0465 65.4775 58.2731 67.1475L56.9547 69.96C55.9176 69.4502 54.652 69.6787 53.8786 70.5928L50.4157 74.6885C49.5016 75.7256 49.6422 77.4307 50.7145 78.3096L62.7555 88.5225C63.8278 89.4365 65.445 89.3135 66.3766 88.2236L69.8395 84.1279C70.5602 83.3018 70.6481 82.0186 70.0505 81.1045L78.0309 74.5127L84.1833 69.0811C85.5719 67.8682 86.5036 66.1631 86.7673 64.4229L89.738 44.1729C89.9313 42.6084 89.2282 41.2197 87.9098 40.6221ZM68.3805 82.8975L64.9176 86.9932C64.6715 87.2744 64.2321 87.3271 63.9508 87.0811L51.9098 76.8682C51.7692 76.7451 51.6813 76.5869 51.6637 76.3936C51.6462 76.2178 51.6989 76.0244 51.8219 75.9014L55.2848 71.8057C55.7419 71.2783 56.3395 71.7002 56.6735 72.1396L67.9587 81.79C68.0641 81.8779 68.2048 81.9307 68.3278 81.9658C68.5915 82.2119 68.6266 82.6338 68.3805 82.8975ZM87.8571 43.8916L84.8864 64.124C84.693 65.4424 83.9723 66.7256 82.9176 67.6572C79.5602 70.7334 72.2301 76.8857 68.6618 79.7861L58.4665 71.1377C59.4684 69.0986 60.4176 66.0049 62.7907 65.1963L73.777 60.4326C76.8356 59.3076 76.9762 63.4385 74.6032 64.335L68.0993 67.2002C66.9743 67.6924 67.7301 69.415 68.8551 68.9229L75.359 66.0576C76.7829 65.4775 77.7673 64.0713 78.154 62.6299L84.3942 43.9092C84.9215 41.9932 88.0856 41.3779 87.8571 43.8916ZM53.3512 64.3701C56.1462 64.0889 57.359 60.3799 55.2672 58.5166C57.4997 56.4951 55.9352 52.5225 52.8942 52.6279C52.6481 48.8838 53.9313 45.1748 56.902 42.6963C65.0758 35.9639 65.5329 22.7451 57.7985 15.5205C46.1618 4.05957 26.3688 12.9893 26.6501 29.1436C26.7731 34.3467 29.111 39.251 33.0485 42.626C36.1422 45.2275 37.3903 48.8838 37.1266 52.6279C34.068 52.5225 32.5036 56.4951 34.736 58.5166C32.6442 60.3799 33.8571 64.0889 36.652 64.3701C36.863 68.2373 40.0622 71.3311 43.9997 71.3311H46.0036C49.9235 71.3311 53.1403 68.2373 53.3512 64.3701ZM34.279 41.2021C30.7458 38.1787 28.6364 33.7666 28.5309 29.0908C28.32 20.2139 35.6501 12.4795 44.527 12.2158C53.5622 11.7588 61.6833 19.6514 61.4899 28.7041C61.4899 33.5381 59.3805 38.1084 55.6891 41.2725C52.3141 44.1025 50.7497 48.3564 51.0133 52.6279H39.0075C39.2887 48.3389 37.7594 44.1553 34.279 41.2021ZM35.5446 60.9951C35.5446 60.1514 36.2301 59.4482 37.0739 59.4482H41.8903C43.1208 59.4482 43.1208 57.585 41.8903 57.5674H37.0739C35.0524 57.5322 35.0524 54.5264 37.0739 54.4912H52.9118C53.7555 54.4912 54.4587 55.1768 54.4587 56.0381C54.4587 56.8994 53.7731 57.585 52.9118 57.585H50.0114C48.7809 57.585 48.7809 59.4482 50.0114 59.4658H52.9118C53.7555 59.4658 54.4587 60.1514 54.4587 61.0127C54.4587 61.8564 53.7731 62.5596 52.9118 62.5596H37.0915C36.2301 62.5244 35.5446 61.8389 35.5446 60.9951ZM46.0036 69.4502H43.9997C41.1169 69.4502 38.7614 67.2178 38.5329 64.4053H51.4704C51.2419 67.2178 48.8864 69.4502 46.0036 69.4502ZM57.9743 30.7607C58.2028 30.4443 58.2028 30.0049 57.9743 29.6885C55.0036 25.4346 50.152 22.9033 45.0016 22.9033C39.8337 22.9033 34.9821 25.4346 32.029 29.6885C31.8005 30.0049 31.8005 30.4443 32.029 30.7607C38.1286 39.7432 51.8747 39.7432 57.9743 30.7607ZM51.1012 26.208C53.0173 27.1396 54.7047 28.5107 56.0407 30.2334C54.7047 31.9561 53.0173 33.3271 51.1012 34.2588C52.7008 31.9912 52.7008 28.4756 51.1012 26.208ZM38.902 34.2588C36.986 33.3271 35.2985 31.9561 33.9626 30.2334C35.2985 28.5107 36.986 27.1396 38.902 26.208C37.3024 28.4756 37.3024 31.9912 38.902 34.2588ZM39.5524 30.2334C39.7809 23.0439 50.2047 23.0439 50.4333 30.2334C50.2047 37.4229 39.7985 37.4229 39.5524 30.2334ZM42.3649 30.2334C42.4528 33.7139 47.5505 33.7139 47.6383 30.2334C47.5505 26.7529 42.4528 26.7529 42.3649 30.2334ZM44.2458 30.2334C44.2458 29.2314 45.7575 29.2314 45.7575 30.2334C45.7575 31.2178 44.2458 31.2178 44.2458 30.2334ZM24.2419 49.6748L26.8962 47.0205C27.2653 46.6514 27.863 46.6514 28.2145 47.0205C28.5837 47.3897 28.5837 47.9873 28.2145 48.3389L25.5602 50.9932C25.1911 51.3623 24.5934 51.3623 24.2419 50.9932C23.8727 50.624 23.8727 50.0264 24.2419 49.6748ZM61.7887 13.4463C61.4196 13.0771 61.4196 12.4795 61.7887 12.1279L64.443 9.47363C64.8122 9.10449 65.4098 9.10449 65.7614 9.47363C66.113 9.84277 66.1305 10.4404 65.7614 10.792L63.1071 13.4463C62.738 13.8154 62.1579 13.8154 61.7887 13.4463ZM16.5778 29.2842H20.3219C21.5524 29.2842 21.5524 31.1475 20.3219 31.165H16.5778C15.3473 31.165 15.3473 29.3018 16.5778 29.2842ZM69.6813 29.2842H73.4255C74.6559 29.2842 74.6559 31.1475 73.4255 31.165H69.6813C68.4508 31.165 68.4508 29.3018 69.6813 29.2842ZM24.2419 10.792C23.3805 9.91309 24.6989 8.59473 25.5602 9.47363L28.2145 12.1279C29.0758 13.0068 27.7575 14.3252 26.8962 13.4639C26.8962 13.4463 24.2419 10.792 24.2419 10.792ZM65.7614 49.6748C66.6227 50.5537 65.3044 51.8721 64.443 51.0107L61.7887 48.3564C60.9274 47.4775 62.2458 46.1592 63.1071 47.0381C63.1071 47.0205 65.7614 49.6748 65.7614 49.6748ZM44.07 5.55371V1.80957C44.07 0.579102 45.9508 0.579102 45.9508 1.80957V5.55371C45.9333 6.78418 44.07 6.78418 44.07 5.55371Z" stroke="#CFA935" mask="url(#path-1-outside-1_11403_13599)"/>
</g>
<defs>
<clipPath id="clip0_11403_13599">
<rect width="90" height="90" fill="white"/>
</clipPath>
</defs>
</svg>
