<svg width="20" height="21" viewBox="0 0 20 21" fill="none" xmlns="http://www.w3.org/2000/svg">
<g clip-path="url(#clip0_19983_26722)">
<path d="M19.6691 10.4674C19.6691 16.0114 15.0057 20.4631 9.38641 20.1151C4.57174 19.8168 0.653077 15.8981 0.355077 11.0834C0.00674388 5.46411 4.45841 0.800781 10.0024 0.800781C11.5251 0.800781 12.9667 1.15211 14.2491 1.78111C14.5927 1.94978 14.7187 2.37778 14.5291 2.71045L14.5277 2.71278C14.3524 3.02011 13.9697 3.13445 13.6524 2.97811C12.3797 2.35145 10.9247 2.04645 9.38908 2.15611C5.35574 2.44378 2.06174 5.67878 1.70274 9.70645C1.25608 14.7194 5.27341 18.9271 10.2237 18.7978C14.4631 18.6871 18.0017 15.3251 18.3121 11.0958C18.3927 9.99712 18.2604 8.93345 17.9457 7.95278C17.8461 7.64178 17.9911 7.30611 18.2831 7.16011C18.6477 6.97778 19.0947 7.16011 19.2184 7.54845C19.5111 8.46878 19.6691 9.44945 19.6691 10.4674Z" fill="#CFA935" fill-opacity="0.5"/>
<path d="M5.13678 7.95811L10.4081 15.0904C10.8061 15.6291 11.6161 15.5824 11.9518 15.0018L19.5691 1.81578C19.9658 1.12911 19.0608 0.438776 18.5211 1.01678L10.5851 9.51744L5.98045 6.96878C5.35811 6.62444 4.71145 7.38244 5.13678 7.95811Z" fill="#CFA935"/>
</g>
<defs>
<clipPath id="clip0_19983_26722">
<rect width="20" height="20" fill="white" transform="translate(0 0.234375)"/>
</clipPath>
</defs>
</svg>
