<svg width="48" height="48" viewBox="0 0 48 48" fill="none" xmlns="http://www.w3.org/2000/svg">
<g clip-path="url(#clip0_7816_21287)">
<path fill-rule="evenodd" clip-rule="evenodd" d="M34.0311 19.3123C33.6561 19.3123 33.2811 19.031 33.2811 18.5623V12.4685L24.1873 15.9373C23.9061 16.031 23.4373 15.8435 23.3436 15.5623C23.1561 15.1873 23.3436 14.8123 23.7186 14.6248L33.7498 10.781C33.9373 10.6873 34.1248 10.781 34.3123 10.8748C34.5936 10.9685 34.6873 11.2498 34.6873 11.4373V18.5623C34.6873 19.031 34.4061 19.3123 34.0311 19.3123Z" fill="#A9A7B0"/>
<path fill-rule="evenodd" clip-rule="evenodd" d="M24 26.1562C23.625 26.1562 23.25 25.875 23.25 25.5V15.75L14.625 12.4688V18.5625C14.625 19.0312 14.3438 19.3125 13.875 19.3125C13.5 19.3125 13.3125 19.0312 13.3125 18.6562V11.4375C13.3125 11.25 13.4062 11.0625 13.5938 10.875C13.7812 10.7812 14.0625 10.7812 14.25 10.875L24.1875 14.625C24.4688 14.8125 24.6562 15 24.6562 15.2812V25.5C24.6562 25.875 24.375 26.1562 24 26.1562Z" fill="#A9A7B0"/>
<path fill-rule="evenodd" clip-rule="evenodd" d="M34.0314 12.0937C33.9376 12.0937 33.8439 12.0937 33.7501 12.0937L24.0001 8.34375L14.1564 12.0937C13.8751 12.1875 13.4064 12.0937 13.3126 11.7187C13.2189 11.3437 13.3126 10.9687 13.6876 10.7812L23.7189 6.9375H24.1876L34.2189 10.7812C34.5939 10.875 34.7814 11.3437 34.5939 11.7187C34.5939 12 34.3126 12.0937 34.0314 12.0937Z" fill="#A9A7B0"/>
<path fill-rule="evenodd" clip-rule="evenodd" d="M10.6875 37.781C10.4062 37.781 10.2187 37.5935 10.125 37.3123C9.93747 37.031 10.125 36.656 10.5 36.4685L13.7812 35.2498C14.1562 35.0623 14.5312 35.2498 14.625 35.6248C14.8125 35.906 14.625 36.3748 14.25 36.4685L10.9687 37.781C10.875 37.781 10.7812 37.781 10.6875 37.781ZM20.7187 27.3748C20.3437 27.3748 20.0625 27.0935 20.0625 26.7185V22.2185L10.9687 25.6873C10.5937 25.781 10.2187 25.5935 10.0312 25.3123C9.93747 24.9373 10.125 24.5623 10.4062 24.3748L20.4375 20.531C20.625 20.4373 20.9062 20.531 21.0937 20.6248C21.2812 20.7185 21.375 20.9998 21.375 21.1873V26.7185C21.375 27.0935 21.0937 27.3748 20.7187 27.3748Z" fill="#A9A7B0"/>
<path fill-rule="evenodd" clip-rule="evenodd" d="M10.6875 37.7812C10.6875 37.7812 10.5938 37.7812 10.5 37.7812L0.46875 33.9375C0.1875 33.8438 0 33.5625 0 33.2812V21.1875C0 21 0.09375 20.8125 0.28125 20.625C0.46875 20.5312 0.75 20.5312 0.9375 20.625L10.9688 24.375C11.25 24.4688 11.3438 24.75 11.3438 25.0312V37.125C11.3438 37.3125 11.25 37.5 11.0625 37.5938C10.9688 37.7812 10.875 37.7812 10.6875 37.7812ZM1.40625 32.8125L10.0312 36.0938V25.5L1.40625 22.2188V32.8125Z" fill="#A9A7B0"/>
<path fill-rule="evenodd" clip-rule="evenodd" d="M20.7187 21.8438C20.625 21.8438 20.625 21.8438 20.5312 21.8438L10.6875 18.0938L0.937465 21.8438C0.562465 21.9375 0.187465 21.75 -3.50922e-05 21.4688C-0.0937851 21.0938 0.0937149 20.7188 0.468715 20.5312L10.4062 16.6875H10.875L20.9062 20.5312C21.2812 20.625 21.4687 21.0938 21.375 21.4688C21.2812 21.75 21 21.8438 20.7187 21.8438Z" fill="#A9A7B0"/>
<path fill-rule="evenodd" clip-rule="evenodd" d="M37.3126 37.781C37.0314 37.781 36.7501 37.5935 36.6564 37.3123C36.5626 37.031 36.6564 36.656 37.0314 36.4685L46.5939 32.8123V22.2185L37.5939 25.6873C37.2189 25.781 36.8439 25.5935 36.6564 25.3123C36.5626 24.9373 36.6564 24.5623 37.0314 24.3748L47.0626 20.531C47.2501 20.4373 47.5314 20.531 47.7189 20.6248C47.9064 20.7185 48.0001 20.9998 48.0001 21.1873V33.281C48.0001 33.5623 47.8126 33.8435 47.5314 33.8435L37.5939 37.6873C37.4064 37.781 37.3126 37.781 37.3126 37.781Z" fill="#A9A7B0"/>
<path fill-rule="evenodd" clip-rule="evenodd" d="M37.3125 37.7812C37.2188 37.7812 37.125 37.7812 37.0312 37.7812L33.75 36.4688C33.375 36.375 33.1875 35.9062 33.375 35.625C33.4688 35.25 33.9375 35.0625 34.3125 35.25L36.6562 36.0938V25.5L27.9375 22.2188V26.7188C27.9375 27.0938 27.6562 27.375 27.2812 27.375C26.9062 27.375 26.5312 27.0938 26.5312 26.7188V21.1875C26.5312 21 26.625 20.8125 26.9062 20.625C27.0938 20.5312 27.2812 20.5312 27.4688 20.625L37.5 24.375C37.7812 24.5625 37.9688 24.75 37.9688 25.0312V37.125C37.9688 37.3125 37.7812 37.5938 37.5938 37.6875C37.5938 37.7812 37.4062 37.7812 37.3125 37.7812Z" fill="#A9A7B0"/>
<path fill-rule="evenodd" clip-rule="evenodd" d="M47.3436 21.8438C47.2498 21.8438 47.1561 21.8438 47.0623 21.8438L37.3123 18.0938L27.4686 21.8438C27.0936 21.9375 26.7186 21.75 26.6248 21.4688C26.4373 21.0938 26.6248 20.7188 26.9998 20.5312L37.0311 16.6875H37.4998L47.5311 20.5312C47.8123 20.625 47.9998 21.0938 47.9061 21.4688C47.8123 21.75 47.5311 21.8438 47.3436 21.8438Z" fill="#A9A7B0"/>
<path fill-rule="evenodd" clip-rule="evenodd" d="M23.9998 45.9373C23.7186 45.9373 23.4373 45.7498 23.3436 45.4685C23.2498 45.0935 23.4373 44.7185 23.7186 44.531L33.3748 40.8748V30.281L24.1873 33.7498C23.9061 33.8435 23.4373 33.656 23.3436 33.3748C23.1561 32.9998 23.3436 32.6248 23.7186 32.4373L33.7498 28.5935C33.9373 28.4998 34.1248 28.5935 34.3123 28.6873C34.5936 28.781 34.6873 29.0623 34.6873 29.2498V41.3435C34.6873 41.6248 34.4998 41.906 34.2186 41.9998L24.1873 45.8435C24.0936 45.8435 24.0936 45.9373 23.9998 45.9373Z" fill="#A9A7B0"/>
<path fill-rule="evenodd" clip-rule="evenodd" d="M24 45.9376C23.9062 45.9376 23.8125 45.9376 23.7188 45.8438L13.6875 42.0001C13.4062 41.9063 13.3125 41.7188 13.3125 41.4376V29.2501C13.3125 29.0626 13.4062 28.8751 13.5938 28.7813C13.7812 28.5938 14.0625 28.5938 14.25 28.6876L24.1875 32.4376C24.4688 32.6251 24.6562 32.8126 24.6562 33.0938V45.1876C24.6562 45.4688 24.5625 45.6563 24.375 45.7501C24.2812 45.8438 24.0938 45.9376 24 45.9376ZM14.625 40.8751L23.3438 44.2501V33.5626L14.625 30.2813V40.8751Z" fill="#A9A7B0"/>
<path fill-rule="evenodd" clip-rule="evenodd" d="M34.0314 30C33.9376 30 33.8439 30 33.7501 29.9062L24.0001 26.1562L14.1564 29.9062C13.8751 30.0938 13.4064 29.9062 13.3126 29.5312C13.2189 29.25 13.3126 28.7812 13.6876 28.6875L23.7189 24.8438C23.9064 24.75 24.0001 24.75 24.1876 24.8438L34.2189 28.6875C34.5939 28.7812 34.7814 29.25 34.5939 29.5312C34.5939 29.8125 34.3126 30 34.0314 30Z" fill="#A9A7B0"/>
<path fill-rule="evenodd" clip-rule="evenodd" d="M2.8125 10.5C1.40625 10.5 0.1875 9.375 0.1875 7.875C0.1875 6.46875 1.40625 5.34375 2.8125 5.34375C4.21875 5.34375 5.4375 6.46875 5.4375 7.875C5.4375 9.375 4.21875 10.5 2.8125 10.5ZM2.8125 6.65625C2.0625 6.65625 1.59375 7.21875 1.59375 7.875C1.59375 8.625 2.0625 9.1875 2.8125 9.1875C3.46875 9.1875 4.125 8.625 4.125 7.875C4.03125 7.21875 3.46875 6.65625 2.8125 6.65625Z" fill="#A9A7B0"/>
<path fill-rule="evenodd" clip-rule="evenodd" d="M45.1875 10.5C43.7812 10.5 42.5625 9.375 42.5625 7.875C42.5625 6.46875 43.7812 5.34375 45.1875 5.34375C46.5938 5.34375 47.8125 6.46875 47.8125 7.875C47.8125 9.375 46.5938 10.5 45.1875 10.5ZM45.1875 6.65625C44.5312 6.65625 43.9688 7.21875 43.9688 7.875C43.9688 8.625 44.5312 9.1875 45.1875 9.1875C45.9375 9.1875 46.5 8.625 46.5 7.875C46.5 7.21875 45.9375 6.65625 45.1875 6.65625Z" fill="#A9A7B0"/>
<path fill-rule="evenodd" clip-rule="evenodd" d="M36.8438 9.9375C35.4375 9.9375 34.3125 8.71875 34.3125 7.3125C34.3125 5.8125 35.4375 4.59375 36.8438 4.59375C38.3438 4.59375 39.5625 5.8125 39.5625 7.3125C39.5625 8.71875 38.3438 9.9375 36.8438 9.9375ZM36.8438 6C36.1875 6 35.625 6.5625 35.625 7.3125C35.625 7.96875 36.1875 8.53125 36.8438 8.53125C37.5938 8.53125 38.1562 7.96875 38.1562 7.3125C38.1562 6.5625 37.5938 6 36.8438 6Z" fill="#A9A7B0"/>
<path fill-rule="evenodd" clip-rule="evenodd" d="M11.0625 9.9375C9.65625 9.9375 8.4375 8.71875 8.4375 7.3125C8.4375 5.8125 9.65625 4.59375 11.0625 4.59375C12.5625 4.59375 13.6875 5.8125 13.6875 7.3125C13.6875 8.71875 12.5625 9.9375 11.0625 9.9375ZM11.0625 6C10.4062 6 9.84375 6.5625 9.84375 7.3125C9.84375 7.96875 10.4062 8.53125 11.0625 8.53125C11.8125 8.53125 12.375 7.96875 12.375 7.3125C12.375 6.5625 11.8125 6 11.0625 6Z" fill="#A9A7B0"/>
<path fill-rule="evenodd" clip-rule="evenodd" d="M24 8.34375C23.625 8.34375 23.25 8.0625 23.25 7.6875V2.8125C23.25 2.4375 23.625 2.0625 24 2.0625C24.375 2.0625 24.6562 2.4375 24.6562 2.8125V7.6875C24.6562 8.0625 24.375 8.34375 24 8.34375Z" fill="#A9A7B0"/>
<path fill-rule="evenodd" clip-rule="evenodd" d="M5.90614 32.2503C5.62489 32.2503 5.43739 32.1565 5.34364 31.969L2.99989 27.844C2.81239 27.5628 2.90614 27.094 3.18739 26.9065C3.46864 26.719 3.93739 26.9065 4.12489 27.1878L6.46864 31.219C6.65614 31.5003 6.56239 31.969 6.28114 32.1565C6.09364 32.2503 5.99989 32.2503 5.90614 32.2503Z" fill="#A9A7B0"/>
<path fill-rule="evenodd" clip-rule="evenodd" d="M7.78104 31.4062C7.59354 31.4062 7.31229 31.3125 7.21854 31.0312L4.87479 27C4.68729 26.7188 4.87479 26.25 5.15604 26.0625C5.43729 25.875 5.90604 25.9688 6.09354 26.3438L8.34354 30.375C8.62479 30.6562 8.43729 31.0312 8.15604 31.3125C8.06229 31.4062 7.87479 31.4062 7.78104 31.4062Z" fill="#A9A7B0"/>
<path fill-rule="evenodd" clip-rule="evenodd" d="M42.0935 32.25C41.9998 32.25 41.8123 32.25 41.7185 32.25C41.4373 31.9688 41.2498 31.5938 41.4373 31.3125L43.781 27.1875C43.9685 26.9062 44.3435 26.8125 44.7185 26.9062C44.9998 27.0938 45.0935 27.5625 44.9998 27.8438L42.656 31.9688C42.5623 32.1562 42.281 32.25 42.0935 32.25Z" fill="#A9A7B0"/>
<path fill-rule="evenodd" clip-rule="evenodd" d="M40.125 31.4061C40.0312 31.4061 39.9375 31.3124 39.8438 31.3124C39.4688 31.1249 39.375 30.6561 39.5625 30.3749L41.9062 26.3436C42.0938 26.0624 42.5625 25.9686 42.8438 26.1561C43.125 26.3436 43.3125 26.7186 43.125 27.0936L40.7812 31.0311C40.5938 31.3124 40.4062 31.4061 40.125 31.4061Z" fill="#A9A7B0"/>
<path fill-rule="evenodd" clip-rule="evenodd" d="M40.3125 22.125C39.9375 22.125 39.6562 21.8438 39.6562 21.4688V15.4688C39.6562 15.0938 39.9375 14.8125 40.3125 14.8125H44.5312V7.875C44.5312 7.5 44.8125 7.21875 45.1875 7.21875C45.5625 7.21875 45.9375 7.5 45.9375 7.875V15.4688C45.9375 15.8438 45.5625 16.2188 45.1875 16.2188H40.9688V21.4688C40.9688 21.8438 40.6875 22.125 40.3125 22.125Z" fill="#A9A7B0"/>
<path fill-rule="evenodd" clip-rule="evenodd" d="M25.4061 11.1562C25.2186 11.1562 24.9374 11.0625 24.8436 10.7812C24.6561 10.5 24.7499 10.0312 25.0311 9.84375L30.6561 6.65625C30.7499 6.5625 30.8436 6.5625 31.0311 6.5625H36.8436C37.3124 6.5625 37.5936 6.9375 37.5936 7.3125C37.5936 7.6875 37.3124 7.96875 36.8436 7.96875H31.2186L25.7811 11.1562C25.6874 11.1562 25.4999 11.1562 25.4061 11.1562Z" fill="#A9A7B0"/>
<path fill-rule="evenodd" clip-rule="evenodd" d="M22.5 11.1562C22.4062 11.1562 22.3125 11.1562 22.2188 11.0625L16.7812 7.96875H11.0625C10.6875 7.96875 10.4062 7.6875 10.4062 7.21875C10.4062 6.84375 10.6875 6.5625 11.0625 6.5625H16.9688C17.0625 6.5625 17.1562 6.5625 17.3438 6.65625L22.875 9.84375C23.1562 10.0312 23.3438 10.4062 23.1562 10.7812C22.9688 11.0625 22.7812 11.1562 22.5 11.1562Z" fill="#A9A7B0"/>
<path fill-rule="evenodd" clip-rule="evenodd" d="M7.6875 22.125C7.3125 22.125 6.9375 21.8438 6.9375 21.4688V16.125H2.8125C2.4375 16.125 2.0625 15.8438 2.0625 15.4688V7.875C2.0625 7.5 2.4375 7.21875 2.8125 7.21875C3.1875 7.21875 3.46875 7.5 3.46875 7.875V14.8125H7.6875C8.15625 14.8125 8.4375 15.0938 8.4375 15.4688V21.4688C8.34375 21.8438 8.0625 22.125 7.6875 22.125Z" fill="#A9A7B0"/>
</g>
<defs>
<clipPath id="clip0_7816_21287">
<rect width="48" height="48" fill="white"/>
</clipPath>
</defs>
</svg>
