<svg width="48" height="48" viewBox="0 0 48 48" fill="none" xmlns="http://www.w3.org/2000/svg">
<g clip-path="url(#clip0_7816_21233)">
<path fill-rule="evenodd" clip-rule="evenodd" d="M24.0168 39.0535C15.7123 39.0535 8.9248 32.3102 8.9248 23.9947C8.9248 15.7345 15.6791 8.99121 23.9836 8.99121C32.2438 8.99121 38.9871 15.7345 38.9871 23.9947C39.0314 32.3102 32.2881 39.0535 24.0168 39.0535ZM24.0168 10.3531C16.4542 10.3531 10.331 16.4763 10.331 23.9947C10.331 31.5684 16.4542 37.6805 24.0168 37.6805C31.5463 37.6805 37.6694 31.5684 37.6694 23.9947C37.6694 16.4763 31.5463 10.3531 24.0168 10.3531Z" fill="#A9A7B0"/>
<path fill-rule="evenodd" clip-rule="evenodd" d="M12.4344 24.7037C12.0469 24.7037 11.7368 24.3937 11.7368 23.995C11.7368 17.2518 17.2289 11.793 24.0164 11.793C24.4039 11.793 24.7251 12.103 24.7251 12.5016C24.7251 12.8892 24.4039 13.1992 24.0164 13.1992C18.015 13.1992 13.143 18.0712 13.143 24.0393C13.0988 24.3937 12.833 24.7037 12.4344 24.7037Z" fill="#A9A7B0"/>
<path fill-rule="evenodd" clip-rule="evenodd" d="M24.0164 10.353C23.6289 10.353 23.3188 10.043 23.3188 9.68868V4.84992C23.3188 4.46238 23.6289 4.15234 24.0164 4.15234C24.404 4.15234 24.7251 4.46238 24.7251 4.84992V9.65546C24.6808 10.043 24.3708 10.353 24.0164 10.353Z" fill="#A9A7B0"/>
<path fill-rule="evenodd" clip-rule="evenodd" d="M24.0167 5.55879C22.4997 5.55879 21.2485 4.30758 21.2485 2.79063C21.2485 1.2626 22.4997 0.0224609 24.0167 0.0224609C25.5447 0.0224609 26.7849 1.2626 26.7849 2.79063C26.7516 4.30758 25.5447 5.55879 24.0167 5.55879ZM24.0167 1.3844C23.2416 1.3844 22.6105 2.00447 22.6105 2.79063C22.6105 3.56571 23.2416 4.19686 24.0167 4.19686C24.8029 4.19686 25.4229 3.56571 25.4229 2.79063C25.3786 2.00447 24.7586 1.3844 24.0167 1.3844Z" fill="#A9A7B0"/>
<path fill-rule="evenodd" clip-rule="evenodd" d="M34.115 14.5611C33.96 14.5611 33.7718 14.4835 33.65 14.3728C33.3732 14.096 33.3732 13.6642 33.65 13.3984L37.0382 9.99911C37.315 9.73337 37.7469 9.73337 38.0126 9.99911C38.2894 10.2759 38.2894 10.7078 38.0126 10.9735L34.6244 14.3728C34.4694 14.4835 34.3144 14.5611 34.115 14.5611Z" fill="#A9A7B0"/>
<path fill-rule="evenodd" clip-rule="evenodd" d="M38.9868 11.7598C38.2892 11.7598 37.5916 11.483 37.038 10.9404C35.9528 9.84422 35.9528 8.09474 37.038 7.04283C38.1342 5.99093 39.8836 5.99093 40.9466 7.04283C41.9985 8.12795 41.9985 9.84422 40.9466 10.9404C40.4373 11.483 39.6954 11.7598 38.9868 11.7598ZM38.9868 7.61861C38.6435 7.61861 38.256 7.74041 37.9791 8.01723C37.4366 8.55979 37.4366 9.45667 37.9791 9.99923C38.5217 10.5529 39.4186 10.5529 39.9722 9.99923C40.4705 9.45667 40.4705 8.55979 39.9722 8.01723C39.7286 7.74041 39.3411 7.61861 38.9868 7.61861Z" fill="#A9A7B0"/>
<path fill-rule="evenodd" clip-rule="evenodd" d="M43.1281 24.7031H38.3337C37.935 24.7031 37.625 24.3931 37.625 23.9945C37.625 23.6069 37.935 23.2969 38.3337 23.2969H43.1281C43.5157 23.2969 43.8257 23.6069 43.8257 23.9945C43.8257 24.3931 43.5157 24.7031 43.1281 24.7031Z" fill="#A9A7B0"/>
<path fill-rule="evenodd" clip-rule="evenodd" d="M45.232 26.7629C43.7151 26.7629 42.4639 25.5228 42.4639 23.9947C42.4639 22.4778 43.7151 21.2266 45.232 21.2266C46.749 21.2266 48.0002 22.4778 48.0002 23.9947C48.0002 25.5228 46.749 26.7629 45.232 26.7629ZM45.232 22.5996C44.4459 22.5996 43.8258 23.2196 43.8258 23.9947C43.8258 24.7809 44.4459 25.401 45.232 25.401C46.0071 25.401 46.6383 24.7809 46.6383 23.9947C46.6383 23.2639 45.9739 22.5996 45.232 22.5996Z" fill="#A9A7B0"/>
<path fill-rule="evenodd" clip-rule="evenodd" d="M37.5144 38.2344C37.3593 38.2344 37.16 38.1569 37.0382 38.0351L33.65 34.6469C33.3732 34.37 33.3732 33.9382 33.65 33.6725C33.9268 33.3956 34.3476 33.3956 34.6244 33.6725L38.0126 37.0607C38.2894 37.3375 38.2894 37.7693 38.0126 38.0351C37.8576 38.1901 37.7026 38.2344 37.5144 38.2344Z" fill="#A9A7B0"/>
<path fill-rule="evenodd" clip-rule="evenodd" d="M38.9869 41.7774C38.2893 41.7774 37.5918 41.5116 37.0381 40.958C36.4956 40.4154 36.2188 39.7179 36.2188 38.976C36.2188 38.2341 36.5399 37.5698 37.0381 37.0604C38.09 36.0085 39.8506 36.0085 40.9468 37.0604C41.9987 38.1123 41.9987 39.8729 40.9468 40.9248C40.4374 41.5116 39.6956 41.7774 38.9869 41.7774ZM38.9869 37.6473C38.6437 37.6473 38.2893 37.8023 38.0125 38.0791C37.7468 38.3448 37.625 38.6659 37.5918 39.0092C37.5918 39.3967 37.7468 39.7511 38.0125 40.0279C38.5662 40.5704 39.463 40.5704 40.0056 40.0279C40.5149 39.4743 40.5149 38.5774 40.0056 38.0791C39.7288 37.7691 39.3412 37.6473 38.9869 37.6473Z" fill="#A9A7B0"/>
<path fill-rule="evenodd" clip-rule="evenodd" d="M24.0164 43.8481C23.6289 43.8481 23.3188 43.5381 23.3188 43.1506V38.3893C23.3188 38.0018 23.6289 37.6807 24.0164 37.6807C24.404 37.6807 24.7251 38.0018 24.7251 38.3893V43.1506C24.6808 43.5381 24.3708 43.8481 24.0164 43.8481Z" fill="#A9A7B0"/>
<path fill-rule="evenodd" clip-rule="evenodd" d="M24.0167 47.9777C22.4997 47.9777 21.2485 46.7265 21.2485 45.2096C21.2485 43.6926 22.4997 42.4414 24.0167 42.4414C25.5447 42.4414 26.7849 43.6926 26.7849 45.2096C26.7516 46.7265 25.5447 47.9777 24.0167 47.9777ZM24.0167 43.8476C23.2416 43.8476 22.6105 44.4677 22.6105 45.2539C22.6105 46.0289 23.2416 46.649 24.0167 46.649C24.8029 46.649 25.4229 46.0289 25.4229 45.2539C25.3786 44.4677 24.7586 43.8476 24.0167 43.8476Z" fill="#A9A7B0"/>
<path fill-rule="evenodd" clip-rule="evenodd" d="M10.4528 38.2344C10.2978 38.2344 10.0985 38.1569 9.97665 38.0351C9.71091 37.7693 9.71091 37.3375 9.97665 37.0607L13.376 33.6725C13.6528 33.3956 14.0735 33.3956 14.3504 33.6725C14.6272 33.9382 14.6272 34.37 14.3504 34.6469L10.9621 38.0351C10.796 38.1901 10.6078 38.2344 10.4528 38.2344Z" fill="#A9A7B0"/>
<path fill-rule="evenodd" clip-rule="evenodd" d="M9.00205 41.7775C8.27126 41.7775 7.56261 41.5118 7.05326 40.9582C6.5107 40.4156 6.23389 39.718 6.23389 38.9762C6.23389 38.2343 6.55499 37.5699 7.05326 37.0606C7.56261 36.5512 8.30448 36.2412 9.00205 36.2412C9.74392 36.2412 10.4083 36.5512 10.9176 37.0606C11.427 37.5256 11.6927 38.2343 11.737 38.9762C11.737 39.718 11.4602 40.4156 10.9176 40.9582C10.4526 41.4675 9.74392 41.7775 9.00205 41.7775ZM7.99444 39.9838C8.27126 40.2606 8.61451 40.3713 9.00205 40.4156C9.35638 40.4156 9.7107 40.2606 9.94323 40.0281C10.22 39.7512 10.3751 39.3969 10.3751 39.0094C10.3751 38.6661 10.22 38.3118 9.97645 38.0793C9.7107 37.8025 9.40067 37.6474 9.00205 37.6474C8.61451 37.6474 8.27126 37.8025 7.99444 38.0793C7.71762 38.345 7.6069 38.6661 7.56261 39.0094C7.6069 39.3637 7.71762 39.7512 7.99444 39.9838Z" fill="#A9A7B0"/>
<path fill-rule="evenodd" clip-rule="evenodd" d="M9.63314 24.7031H4.87189C4.48435 24.7031 4.17432 24.3931 4.17432 23.9945C4.17432 23.6069 4.48435 23.2969 4.87189 23.2969H9.63314C10.0207 23.2969 10.3307 23.6069 10.3307 23.9945C10.3307 24.3931 10.0207 24.7031 9.63314 24.7031Z" fill="#A9A7B0"/>
<path fill-rule="evenodd" clip-rule="evenodd" d="M2.76817 26.7629C1.25121 26.7629 0 25.5228 0 23.9947C0 22.4778 1.25121 21.2266 2.76817 21.2266C4.28512 21.2266 5.53633 22.4778 5.53633 23.9947C5.53633 25.5228 4.28512 26.7629 2.76817 26.7629ZM2.76817 22.5996C1.99308 22.5996 1.36194 23.2196 1.36194 23.9947C1.36194 24.7809 1.99308 25.401 2.76817 25.401C3.54325 25.401 4.1744 24.7809 4.1744 23.9947C4.1744 23.2639 3.54325 22.5996 2.76817 22.5996Z" fill="#A9A7B0"/>
<path fill-rule="evenodd" clip-rule="evenodd" d="M13.841 14.5611C13.686 14.5611 13.4867 14.4835 13.376 14.3728L9.97665 10.9735C9.71091 10.7078 9.71091 10.2759 9.97665 9.99911C10.2535 9.73337 10.6853 9.73337 10.9621 9.99911L14.3504 13.3984C14.6272 13.6642 14.6272 14.096 14.3504 14.3728C14.1953 14.4835 13.996 14.5611 13.841 14.5611Z" fill="#A9A7B0"/>
<path fill-rule="evenodd" clip-rule="evenodd" d="M9.00189 11.7598C8.27109 11.7598 7.56244 11.483 7.0531 10.9404C5.96798 9.84422 5.96798 8.09474 7.0531 7.04283C8.14929 5.99093 9.86556 5.99093 10.9175 7.04283C12.0137 8.12795 12.0137 9.88851 10.9175 10.9404C10.4524 11.483 9.74376 11.7598 9.00189 11.7598ZM7.99427 8.01723C7.45171 8.55979 7.45171 9.45667 7.99427 9.99923C8.27109 10.2761 8.61434 10.4311 9.00189 10.4311C9.35621 10.4311 9.71054 10.2761 9.94306 10.0435C10.4856 9.48989 10.4856 8.59301 9.94306 8.05045C9.43372 7.50789 8.53684 7.50789 7.99427 8.01723Z" fill="#A9A7B0"/>
<path fill-rule="evenodd" clip-rule="evenodd" d="M25.379 31.0927C25.1133 31.0927 24.8365 30.9045 24.7257 30.6277L20.3963 17.8388C20.2745 17.4844 20.4738 17.0969 20.8171 16.9862C21.1714 16.8644 21.5589 17.0637 21.6807 17.4069L26.0102 30.1958C26.1209 30.5502 25.9326 30.9377 25.5783 31.0595C25.5451 31.0927 25.4676 31.0927 25.379 31.0927Z" fill="#A9A7B0"/>
<path fill-rule="evenodd" clip-rule="evenodd" d="M16.6867 31.0927C16.6092 31.0927 16.5317 31.0927 16.4542 31.0595C16.0999 30.9377 15.9117 30.5502 16.0224 30.1958L20.3961 17.4069C20.5068 17.0637 20.9054 16.8644 21.2487 16.9862C21.603 17.0969 21.8023 17.4844 21.6805 17.8388L17.3511 30.6277C17.2293 30.9045 16.9968 31.0927 16.6867 31.0927Z" fill="#A9A7B0"/>
<path fill-rule="evenodd" clip-rule="evenodd" d="M23.5848 25.7887H18.5246C18.126 25.7887 17.8159 25.4787 17.8159 25.0911C17.8159 24.7036 18.126 24.3936 18.5246 24.3936H23.5848C23.9834 24.3936 24.2934 24.7036 24.2934 25.0911C24.2934 25.4787 23.9391 25.7887 23.5848 25.7887Z" fill="#A9A7B0"/>
<path fill-rule="evenodd" clip-rule="evenodd" d="M29.553 31.0919C29.1655 31.0919 28.8555 30.7819 28.8555 30.3943V17.6829C28.8555 17.2954 29.1655 16.9854 29.553 16.9854C29.9406 16.9854 30.2617 17.2954 30.2617 17.6829V30.4276C30.2617 30.7819 29.9406 31.0919 29.553 31.0919Z" fill="#A9A7B0"/>
<path fill-rule="evenodd" clip-rule="evenodd" d="M31.2691 18.3476H27.8034C27.4158 18.3476 27.0947 18.0376 27.0947 17.639C27.0947 17.2514 27.4158 16.9414 27.8034 16.9414H31.2691C31.6567 16.9414 31.9778 17.2514 31.9778 17.639C31.9778 18.0376 31.6567 18.3476 31.2691 18.3476Z" fill="#A9A7B0"/>
<path fill-rule="evenodd" clip-rule="evenodd" d="M31.2691 31.0924H27.8034C27.4158 31.0924 27.0947 30.7824 27.0947 30.3948C27.0947 30.0073 27.4158 29.6973 27.8034 29.6973H31.2691C31.6567 29.6973 31.9778 30.0073 31.9778 30.3948C31.9778 30.7824 31.6567 31.0924 31.2691 31.0924Z" fill="#A9A7B0"/>
</g>
<defs>
<clipPath id="clip0_7816_21233">
<rect width="48" height="48" fill="white"/>
</clipPath>
</defs>
</svg>
