<svg width="48" height="48" viewBox="0 0 48 48" fill="none" xmlns="http://www.w3.org/2000/svg">
<g clip-path="url(#clip0_7816_21369)">
<path fill-rule="evenodd" clip-rule="evenodd" d="M4.125 27.5625C3.75 27.5625 3.46875 27.2812 3.46875 26.8125V24C3.46875 19.9688 6.75 16.6875 10.7812 16.6875C11.1562 16.6875 11.4375 16.9688 11.4375 17.3438C11.4375 17.7188 11.1562 18.0938 10.7812 18.0938C7.5 18.0938 4.78125 20.7188 4.78125 24V26.9062C4.78125 27.2812 4.5 27.5625 4.125 27.5625ZM24 21.375C23.7188 21.375 23.5312 21.1875 23.3438 21C22.4062 19.2188 20.5312 18.0938 18.4688 18C18.0938 18 17.8125 17.7188 17.8125 17.3438C17.8125 16.9688 18.0938 16.6875 18.4688 16.6875C21 16.7812 23.3438 18.1875 24.5625 20.3438C24.75 20.625 24.6562 21.0938 24.2812 21.2812C24.1875 21.2812 24.0938 21.375 24 21.375Z" fill="#A9A7B0"/>
<path fill-rule="evenodd" clip-rule="evenodd" d="M14.625 23.8122C14.4375 23.8122 14.3438 23.7184 14.25 23.7184L10.4062 20.9059C10.2188 20.8122 10.125 20.6247 10.125 20.3434L10.0312 17.3434C10.0312 17.0622 10.2188 16.7809 10.5 16.6872C10.7812 16.5934 11.0625 16.6872 11.25 16.8747L15.0938 20.9059C15.1875 20.9997 15.2812 21.1872 15.2812 21.3747V23.0622C15.2812 23.3434 15.1875 23.6247 14.9062 23.7184C14.9062 23.8122 14.7188 23.8122 14.625 23.8122ZM11.4375 20.0622L13.9688 21.8434V21.6559L11.4375 19.1247V20.0622Z" fill="#A9A7B0"/>
<path fill-rule="evenodd" clip-rule="evenodd" d="M14.625 23.8122C14.4375 23.8122 14.25 23.7184 14.0625 23.5309C13.875 23.2497 13.9688 22.7809 14.25 22.5934L17.8125 20.0622V19.1247L15.1875 21.9372C14.9062 22.1247 14.4375 22.1247 14.1562 21.9372C13.875 21.6559 13.875 21.1872 14.1562 20.9997L18 16.8747C18.1875 16.6872 18.4688 16.5934 18.75 16.7809C19.0312 16.8747 19.125 17.0622 19.125 17.3434V20.3434C19.125 20.6247 19.0312 20.8122 18.8438 20.9059L15 23.7184C14.9062 23.7184 14.8125 23.8122 14.625 23.8122Z" fill="#A9A7B0"/>
<path fill-rule="evenodd" clip-rule="evenodd" d="M9.56232 11.5308C9.09357 11.5308 8.62482 11.2496 8.34357 10.8746C7.21857 9.56208 7.40607 6.09333 7.68732 4.21833C7.87482 2.62458 9.18732 2.06208 10.4061 1.59333C10.5936 1.49958 10.7811 1.49958 10.9686 1.40583C11.1561 1.31208 11.3436 1.12458 11.5311 0.937081C11.9998 0.562081 12.4686 0.187081 13.2186 0.0933306C16.9686 -0.375419 21.0936 1.03083 21.4686 4.03083C21.5623 5.24958 22.0311 9.37458 20.7186 10.8746C20.4373 11.2496 20.0623 11.4371 19.4998 11.5308C19.3123 11.5308 19.1248 11.4371 19.0311 11.3433C18.9373 11.1558 18.7498 11.0621 18.7498 10.8746C18.7498 7.03083 18.0936 6.74958 17.0623 6.56208C14.9998 6.37458 12.6561 6.18708 11.4373 7.21833C10.6873 7.96833 10.2186 9.09333 10.2186 10.8746C10.2186 11.0621 10.1248 11.2496 10.0311 11.3433C9.84357 11.4371 9.74982 11.5308 9.56232 11.5308ZM14.4373 1.40583C14.0623 1.40583 13.6873 1.49958 13.3123 1.49958C13.0311 1.49958 12.7498 1.78083 12.3748 2.06208C12.0936 2.24958 11.8123 2.53083 11.4373 2.71833C11.2498 2.81208 11.0623 2.81208 10.8748 2.90583C9.65607 3.37458 9.09357 3.65583 8.90607 4.40583C8.71857 6.46833 8.71857 8.15583 8.99982 9.28083C9.18732 7.96833 9.74982 6.93708 10.4998 6.18708C12.1873 4.78083 14.7186 4.96833 17.2498 5.24958C19.2186 5.53083 19.8748 6.74958 20.0623 8.99958C20.2498 7.78083 20.2498 5.90583 19.9686 4.21833C19.7811 2.43708 17.1561 1.40583 14.4373 1.40583Z" fill="#A9A7B0"/>
<path fill-rule="evenodd" clip-rule="evenodd" d="M14.4376 17.4371C12.0939 17.4371 9.3751 15.3746 8.90635 10.9684C8.8126 10.5934 9.09385 10.3121 9.46885 10.2184C9.84385 10.1246 10.1251 10.4059 10.2189 10.7809C10.6876 14.4371 12.6564 16.0309 14.4376 16.0309C16.3126 16.0309 18.2814 14.4371 18.7501 10.7809C18.7501 10.4059 19.1251 10.1246 19.5001 10.2184C19.8751 10.2184 20.0626 10.5934 20.0626 10.9684C19.5939 15.3746 16.8751 17.4371 14.4376 17.4371Z" fill="#A9A7B0"/>
<path fill-rule="evenodd" clip-rule="evenodd" d="M18.4687 17.9995C18.1875 17.9995 17.9062 17.812 17.8125 17.5307L17.1562 15.187C17.0625 14.812 17.25 14.437 17.625 14.3432C18 14.2495 18.375 14.437 18.4687 14.812L19.125 17.1557C19.3125 17.5307 19.0312 17.9057 18.6562 17.9995C18.6562 17.9995 18.5625 17.9995 18.4687 17.9995Z" fill="#A9A7B0"/>
<path fill-rule="evenodd" clip-rule="evenodd" d="M10.7812 17.9995C10.6875 17.9995 10.6875 17.9995 10.5937 17.9995C10.2187 17.9057 10.0312 17.5307 10.125 17.1557L10.6875 14.9995C10.7812 14.6245 11.1562 14.437 11.5312 14.5307C11.9062 14.6245 12.1875 14.9995 12 15.3745L11.4375 17.5307C11.3437 17.812 11.0625 17.9995 10.7812 17.9995Z" fill="#A9A7B0"/>
<path fill-rule="evenodd" clip-rule="evenodd" d="M43.7812 27.5625C43.4062 27.5625 43.125 27.2812 43.125 26.8125V24C43.125 20.8125 40.5 18.1875 37.4062 18C37.0312 18 36.75 17.7188 36.75 17.3438C36.75 16.9688 37.0312 16.6875 37.4062 16.6875C41.3438 16.7812 44.4375 20.0625 44.4375 24V26.8125C44.4375 27.2812 44.25 27.5625 43.7812 27.5625ZM23.0625 27.5625C22.6875 27.5625 22.4062 27.2812 22.4062 26.8125V24C22.4062 19.9688 25.5938 16.6875 29.7188 16.6875C30.0938 16.6875 30.375 16.9688 30.375 17.3438C30.375 17.7188 30.0938 18.0938 29.7188 18.0938C26.4375 18.0938 23.7188 20.7188 23.7188 24V26.9062C23.8125 27.2812 23.4375 27.5625 23.0625 27.5625Z" fill="#A9A7B0"/>
<path fill-rule="evenodd" clip-rule="evenodd" d="M33.5625 23.8122C33.375 23.8122 33.2812 23.7184 33.1875 23.7184L29.3438 20.9059C29.1562 20.8122 29.0625 20.6247 29.0625 20.3434V17.3434C29.0625 17.0622 29.1562 16.7809 29.4375 16.6872C29.7188 16.5934 30 16.6872 30.1875 16.8747L34.0312 20.9059C34.2188 20.9997 34.2188 21.1872 34.2188 21.3747V23.0622C34.2188 23.3434 34.125 23.6247 33.8438 23.7184C33.75 23.8122 33.6562 23.8122 33.5625 23.8122ZM30.4688 20.0622L32.9062 21.7497V21.6559L30.4688 19.1247V20.0622Z" fill="#A9A7B0"/>
<path fill-rule="evenodd" clip-rule="evenodd" d="M33.5626 23.8122C33.3751 23.8122 33.0939 23.7184 33.0001 23.5309C32.8126 23.2497 32.8126 22.7809 33.1876 22.5934L36.7501 20.0622V19.1247L34.0314 21.9372C33.7501 22.1247 33.3751 22.1247 33.0939 21.9372C32.8126 21.6559 32.8126 21.1872 33.0939 20.9997L36.9376 16.8747C37.1251 16.6872 37.4064 16.5934 37.6876 16.7809C37.9689 16.8747 38.0626 17.0622 38.0626 17.3434V20.4372C38.0626 20.6247 37.9689 20.8122 37.7814 20.9997L33.9376 23.7184C33.8439 23.7184 33.7501 23.8122 33.5626 23.8122Z" fill="#A9A7B0"/>
<path fill-rule="evenodd" clip-rule="evenodd" d="M28.4998 11.5311C28.0311 11.5311 27.5623 11.2499 27.2811 10.8749C26.1561 9.56236 26.3436 6.09361 26.6248 4.21861C26.8123 2.62486 28.1248 2.15611 29.3436 1.68736C29.5311 1.59361 29.7186 1.49986 29.8123 1.49986C30.0936 1.40611 30.2811 1.21861 30.4686 1.03111C30.9373 0.656111 31.4061 0.187361 32.1561 0.0936107C35.9061 -0.281389 40.0311 1.12486 40.3123 4.12486C40.5936 6.56236 40.7811 9.65611 39.6561 10.9686C39.3748 11.3436 38.9061 11.5311 38.4373 11.6249C38.2498 11.6249 38.0623 11.5311 37.9686 11.4374C37.7811 11.2499 37.6873 11.0624 37.6873 10.8749C37.6873 7.03111 37.1248 6.74986 36.0936 6.65611C33.9373 6.28111 31.5936 6.18736 30.3748 7.21861C29.6248 7.96861 29.2498 9.09361 29.1561 10.8749C29.1561 11.0624 29.1561 11.2499 28.9686 11.3436C28.8748 11.4374 28.6873 11.5311 28.4998 11.5311ZM33.3748 1.40611C32.9998 1.40611 32.6248 1.49986 32.2498 1.49986C31.9686 1.49986 31.6873 1.78111 31.3123 2.06236C31.0311 2.24986 30.7498 2.53111 30.3748 2.71861C30.1873 2.81236 29.9998 2.81236 29.8123 2.90611C28.4998 3.46861 28.0311 3.74986 27.9373 4.40611C27.7498 6.37486 27.7498 8.15611 27.9373 9.28111C28.2186 7.96861 28.6873 6.93736 29.5311 6.28111C31.1248 4.78111 33.7498 4.96861 36.2811 5.24986C38.1561 5.53111 38.8123 6.74986 38.9998 9.09361C39.1873 7.96861 39.1873 6.28111 38.9061 4.21861C38.7186 2.43736 36.0936 1.40611 33.3748 1.40611Z" fill="#A9A7B0"/>
<path fill-rule="evenodd" clip-rule="evenodd" d="M33.4689 17.4371C31.0314 17.4371 28.4064 15.3746 27.8439 10.9684C27.7501 10.5934 28.0314 10.3121 28.4064 10.2184C28.7814 10.1246 29.1564 10.4059 29.1564 10.7809C29.6251 14.4371 31.6876 16.0309 33.4689 16.0309C35.2501 16.0309 37.2189 14.4371 37.6876 10.7809C37.6876 10.4059 38.0626 10.1246 38.4376 10.2184C38.9064 10.2184 39.0939 10.5934 39.0939 10.9684C38.4376 15.3746 35.8126 17.4371 33.4689 17.4371Z" fill="#A9A7B0"/>
<path fill-rule="evenodd" clip-rule="evenodd" d="M37.4998 17.9995C37.1248 17.9995 36.8436 17.812 36.7498 17.5307L36.0936 15.187C35.9998 14.812 36.2811 14.437 36.5623 14.3432C36.9373 14.2495 37.3123 14.437 37.4998 14.812L38.1561 17.1557C38.2498 17.5307 37.9686 17.9057 37.6873 17.9995C37.5936 17.9995 37.4998 17.9995 37.4998 17.9995Z" fill="#A9A7B0"/>
<path fill-rule="evenodd" clip-rule="evenodd" d="M29.7187 17.9995C29.625 17.9995 29.625 17.9995 29.5312 17.9995C29.1562 17.9057 28.9687 17.5307 29.0625 17.1557L29.625 14.9995C29.8125 14.6245 30.0937 14.437 30.4687 14.5307C30.8437 14.6245 31.125 14.9995 30.9375 15.3745L30.375 17.5307C30.2812 17.812 30 17.9995 29.7187 17.9995Z" fill="#A9A7B0"/>
<path fill-rule="evenodd" clip-rule="evenodd" d="M27.4686 48H20.5311C20.0624 48 19.6874 47.625 19.6874 47.1562V41.9062C18.5624 41.625 17.4374 41.1562 16.3124 40.5L12.6561 44.1562C12.3749 44.5312 11.7186 44.5312 11.4374 44.1562L6.5624 39.375C6.46865 39.1875 6.3749 39 6.3749 38.7188C6.3749 38.5312 6.46865 38.3438 6.5624 38.1562L10.3124 34.4062C9.65615 33.375 9.1874 32.25 8.90615 31.125H3.65615C3.1874 31.125 2.90615 30.75 2.90615 30.2812V26.8125C2.8124 26.5312 3.09365 26.1562 3.5624 26.1562H44.4374C44.8124 26.1562 45.1874 26.5312 45.1874 26.9062V30.2812C45.1874 30.75 44.7186 31.2188 44.2499 31.2188H39.0936C38.7186 32.3438 38.2499 33.4688 37.6874 34.5L41.4374 38.25C41.7186 38.5312 41.7186 39.0938 41.4374 39.375L36.5624 44.25C36.2811 44.625 35.6249 44.625 35.3436 44.25L31.6874 40.5938C30.5624 41.1562 29.4374 41.625 28.2186 42V47.25C28.2186 47.625 27.8436 48 27.4686 48ZM21.0936 46.5938H26.9061V41.4375C26.9061 41.0625 27.0936 40.7812 27.3749 40.6875C28.7811 40.4062 30.0936 39.8438 31.4061 39.0938C31.6874 38.9062 32.0624 39 32.2499 39.1875L35.9061 42.8438L40.0311 38.8125L36.2811 35.0625C36.0936 34.875 35.9999 34.5 36.1874 34.2188C36.9374 33 37.4999 31.6875 37.8749 30.2812C37.9686 30 38.2499 29.8125 38.5311 29.8125H43.7811V27.5625H4.21865V29.8125H9.3749C9.7499 29.8125 10.0311 30 10.0311 30.2812C10.4061 31.6875 10.9686 33 11.7186 34.2188C11.9061 34.5 11.8124 34.875 11.6249 35.0625L7.96865 38.8125L11.9999 42.8438L15.7499 39.1875C15.9374 39 16.3124 38.9062 16.5936 39.0938C17.8124 39.8438 19.1249 40.4062 20.5311 40.6875C20.8124 40.7812 20.9999 41.0625 20.9999 41.4375V46.5938H21.0936Z" fill="#A9A7B0"/>
<path fill-rule="evenodd" clip-rule="evenodd" d="M24 35.7188C19.0312 35.7188 15.0938 31.7812 15.0938 26.8125C15.0938 26.4375 15.375 26.1562 15.75 26.1562C16.125 26.1562 16.5 26.4375 16.5 26.8125C16.5 30.9375 19.7812 34.4062 24 34.4062C28.2188 34.4062 31.5 31.0312 31.5 26.8125C31.5 26.4375 31.875 26.1562 32.25 26.1562C32.625 26.1562 32.9062 26.4375 32.9062 26.8125C32.8125 31.7812 28.875 35.7188 24 35.7188Z" fill="#A9A7B0"/>
</g>
<defs>
<clipPath id="clip0_7816_21369">
<rect width="48" height="48" fill="white"/>
</clipPath>
</defs>
</svg>
