<svg width="48" height="48" viewBox="0 0 48 48" fill="none" xmlns="http://www.w3.org/2000/svg">
<g clip-path="url(#clip0_7816_21388)">
<path fill-rule="evenodd" clip-rule="evenodd" d="M30.8595 16.2775C30.6713 16.2775 30.472 16.2 30.317 16.0007C28.7557 14.0962 26.4526 12.9668 23.9945 12.9668C21.5474 12.9668 19.2443 14.0519 17.7163 16.0007C17.4838 16.3218 17.0519 16.355 16.7419 16.1225C16.4319 15.8899 16.3986 15.4581 16.6312 15.1481C18.4249 12.8893 21.1156 11.5938 23.9945 11.5938C26.8845 11.5938 29.5751 12.8893 31.3689 15.1481C31.6014 15.4581 31.5682 15.8899 31.2582 16.1225C31.1364 16.2 31.0256 16.2775 30.8595 16.2775Z" fill="#A9A7B0"/>
<path fill-rule="evenodd" clip-rule="evenodd" d="M45.531 44.28C45.3317 44.28 45.1435 44.2025 44.9884 44.0142C43.5379 42.2205 41.4341 41.2018 39.131 41.2018C36.8722 41.2018 34.7684 42.2205 33.3179 44.0142C33.0853 44.3243 32.6535 44.3575 32.3435 44.125C32.0334 43.8924 32.0002 43.4606 32.2327 43.1506C33.9047 41.0468 36.4403 39.8398 39.0978 39.8398C41.7884 39.8398 44.3241 41.0468 45.9961 43.1506C46.2286 43.4606 46.1954 43.8924 45.8853 44.125C45.841 44.2468 45.686 44.28 45.531 44.28Z" fill="#A9A7B0"/>
<path fill-rule="evenodd" clip-rule="evenodd" d="M2.50238 44.28C2.34737 44.28 2.19235 44.2468 2.08162 44.125C1.77159 43.8924 1.7273 43.4606 1.95982 43.1506C3.64287 41.0468 6.17851 39.8398 8.86916 39.8398C11.5598 39.8398 14.0512 41.0468 15.7342 43.1506C15.9667 43.4606 15.9225 43.8924 15.6124 44.125C15.3024 44.3575 14.8705 44.3243 14.638 44.0142C13.1986 42.2205 11.0837 41.2018 8.82487 41.2018C6.56605 41.2018 4.41795 42.2205 2.97851 44.0142C2.901 44.2025 2.70169 44.28 2.50238 44.28Z" fill="#A9A7B0"/>
<path fill-rule="evenodd" clip-rule="evenodd" d="M8.86941 39.2082C6.92062 39.2082 5.35938 37.647 5.35938 35.7425C5.35938 33.7937 6.92062 32.2324 8.86941 32.2324C10.7739 32.2324 12.3352 33.7937 12.3352 35.7425C12.3794 37.647 10.7739 39.2082 8.86941 39.2082ZM8.86941 33.5611C7.69571 33.5611 6.72131 34.5355 6.72131 35.6982C6.72131 36.8719 7.69571 37.802 8.86941 37.802C10.032 37.802 10.9732 36.8719 10.9732 35.6982C11.0064 34.5355 10.032 33.5611 8.86941 33.5611Z" fill="#A9A7B0"/>
<path fill-rule="evenodd" clip-rule="evenodd" d="M23.9945 19.5879C18.8125 19.5879 14.5605 15.336 14.5605 10.1097C14.5605 4.92768 18.8125 0.675781 23.9945 0.675781C29.1875 0.675781 33.4394 4.92768 33.4394 10.1097C33.4394 15.336 29.2208 19.5879 23.9945 19.5879ZM23.9945 2.03772C19.5543 2.03772 15.9225 5.66955 15.9225 10.1097C15.9225 14.6052 19.5543 18.226 23.9945 18.226C28.4457 18.226 32.0775 14.6052 32.0775 10.1097C32.0775 5.66955 28.4457 2.03772 23.9945 2.03772Z" fill="#A9A7B0"/>
<path fill-rule="evenodd" clip-rule="evenodd" d="M23.9947 10.7738C21.9351 10.7738 20.2964 9.10185 20.2964 7.07555C20.2964 5.03818 21.9684 3.36621 23.9947 3.36621C26.0652 3.36621 27.7483 5.03818 27.7483 7.07555C27.7483 9.10185 26.0652 10.7738 23.9947 10.7738ZM23.9947 4.72815C22.7102 4.72815 21.6583 5.82434 21.6583 7.07555C21.6583 8.35998 22.7102 9.41189 23.9947 9.41189C25.3234 9.41189 26.3753 8.35998 26.3753 7.07555C26.3753 5.78005 25.3234 4.72815 23.9947 4.72815Z" fill="#A9A7B0"/>
<path fill-rule="evenodd" clip-rule="evenodd" d="M23.9949 32.4987C22.2012 32.4987 20.7617 31.0592 20.7617 29.2654C20.7617 27.4717 22.2012 26.0322 23.9949 26.0322C25.7998 26.0322 27.2392 27.4717 27.2392 29.2654C27.2392 31.0592 25.833 32.4987 23.9949 32.4987ZM23.9949 27.3942C22.9873 27.3942 22.1237 28.2468 22.1237 29.2654C22.1237 30.2841 22.9873 31.1367 23.9949 31.1367C25.0579 31.1367 25.8773 30.3173 25.8773 29.2654C25.8773 28.2135 25.0579 27.3942 23.9949 27.3942Z" fill="#A9A7B0"/>
<path fill-rule="evenodd" clip-rule="evenodd" d="M23.9949 27.3938C23.6074 27.3938 23.2974 27.0837 23.2974 26.6962V18.89C23.2974 18.5024 23.6074 18.1924 23.9949 18.1924C24.3936 18.1924 24.7036 18.5024 24.7036 18.89V26.6962C24.7036 27.0837 24.3936 27.3938 23.9949 27.3938Z" fill="#A9A7B0"/>
<path fill-rule="evenodd" clip-rule="evenodd" d="M32.3434 34.7685C32.2327 34.7685 32.1109 34.7242 32.0002 34.691L25.877 31.1367C25.5559 30.9374 25.4451 30.5166 25.6334 30.2066C25.8327 29.8855 26.2645 29.7747 26.5745 29.963L32.6977 33.5173C33.0078 33.7166 33.1296 34.1374 32.9303 34.4585C32.8195 34.6467 32.5759 34.7685 32.3434 34.7685Z" fill="#A9A7B0"/>
<path fill-rule="evenodd" clip-rule="evenodd" d="M15.6904 34.768C15.4578 34.768 15.2253 34.6462 15.1035 34.4137C14.9153 34.1036 15.026 33.6718 15.336 33.4725L21.4592 29.9292C21.7803 29.7299 22.2011 29.8517 22.4004 30.1618C22.5997 30.4718 22.4779 30.9036 22.1679 31.1029L16.0447 34.6905C15.9229 34.7237 15.8122 34.768 15.6904 34.768Z" fill="#A9A7B0"/>
<path fill-rule="evenodd" clip-rule="evenodd" d="M39.1757 47.3249C34.2926 47.3249 30.3618 43.3499 30.3618 38.5111C30.3618 33.6724 34.2926 29.6973 39.1757 29.6973C44.0476 29.6973 47.9895 33.6724 47.9895 38.5111C47.9895 43.3499 44.0476 47.3249 39.1757 47.3249ZM39.1757 31.0592C35.0788 31.0592 31.7238 34.4142 31.7238 38.5111C31.7238 42.608 35.0788 45.963 39.1757 45.963C43.2725 45.963 46.6276 42.608 46.6276 38.5111C46.6276 34.4142 43.2725 31.0592 39.1757 31.0592Z" fill="#A9A7B0"/>
<path fill-rule="evenodd" clip-rule="evenodd" d="M39.1751 39.2082C37.2595 39.2082 35.6982 37.647 35.6982 35.7425C35.6982 33.7937 37.2595 32.2324 39.1751 32.2324C41.1238 32.2324 42.6851 33.7937 42.6851 35.7425C42.6851 37.647 41.1238 39.2082 39.1751 39.2082ZM39.1751 33.5611C38.0014 33.5611 37.0713 34.5355 37.0713 35.6982C37.0713 36.8719 38.0014 37.802 39.1751 37.802C40.3377 37.802 41.3232 36.8719 41.3232 35.6982C41.3232 34.5355 40.3377 33.5611 39.1751 33.5611Z" fill="#A9A7B0"/>
<path fill-rule="evenodd" clip-rule="evenodd" d="M8.86936 47.3249C3.98632 47.3249 0.0112305 43.3499 0.0112305 38.5111C0.0112305 33.6724 3.98632 29.6973 8.86936 29.6973C13.7413 29.6973 17.6832 33.6724 17.6832 38.5111C17.6832 43.3499 13.7413 47.3249 8.86936 47.3249ZM8.86936 31.0592C4.72819 31.0592 1.37317 34.4142 1.37317 38.5111C1.37317 42.608 4.72819 45.963 8.86936 45.963C12.9662 45.963 16.3102 42.608 16.3102 38.5111C16.3102 34.4142 12.9662 31.0592 8.86936 31.0592Z" fill="#A9A7B0"/>
</g>
<defs>
<clipPath id="clip0_7816_21388">
<rect width="48" height="48" fill="white"/>
</clipPath>
</defs>
</svg>
