<svg width="48" height="48" viewBox="0 0 48 48" fill="none" xmlns="http://www.w3.org/2000/svg">
<g clip-path="url(#clip0_7816_21315)">
<path fill-rule="evenodd" clip-rule="evenodd" d="M21.9373 44.9066C21.8436 44.9066 21.7498 44.9066 21.6561 44.8128L10.9686 40.4066C10.5936 40.2191 10.4061 39.8441 10.5936 39.4691C10.7811 39.0941 11.1561 39.0003 11.4373 39.0941L22.2186 43.5941C22.5936 43.6878 22.6873 44.1566 22.5936 44.4378C22.4061 44.7191 22.2186 44.9066 21.9373 44.9066ZM26.0623 44.9066C25.8748 44.9066 25.5936 44.7191 25.4998 44.4378C25.3123 44.0628 25.4998 43.6878 25.8748 43.5003L36.5623 39.0941C36.8436 38.9066 37.2186 39.0941 37.4061 39.4691C37.5936 39.7503 37.4061 40.2191 37.0311 40.3128L26.3436 44.8128C26.3436 44.9066 26.1561 44.9066 26.0623 44.9066ZM8.24983 37.5003C7.96858 37.5003 7.78108 37.3128 7.59358 37.0316L3.18733 26.3441C2.99983 26.0628 3.18733 25.5941 3.56233 25.5003C3.84358 25.3128 4.31233 25.5003 4.40608 25.8753L8.90608 36.5628C8.99983 36.8441 8.81233 37.2191 8.53108 37.4066C8.43733 37.4066 8.34358 37.5003 8.24983 37.5003ZM39.7498 37.5003C39.6561 37.5003 39.5623 37.5003 39.4686 37.4066C39.0936 37.3128 38.9998 36.9378 39.0936 36.5628L43.5936 25.8753C43.6873 25.5003 44.1561 25.4066 44.4373 25.5003C44.8123 25.6878 44.9998 26.0628 44.8123 26.4378L40.4061 37.1253C40.2186 37.3128 40.0311 37.5003 39.7498 37.5003ZM3.84358 22.5941C3.74983 22.5941 3.65608 22.5941 3.56233 22.5941C3.18733 22.4066 2.99983 22.0316 3.18733 21.6566L7.59358 10.9691C7.78108 10.5941 8.15608 10.4066 8.53108 10.5941C8.90608 10.7816 8.99983 11.1566 8.90608 11.4378L4.49983 22.1253C4.31233 22.4066 4.03108 22.5941 3.84358 22.5941ZM44.1561 22.5941C43.9686 22.5941 43.6873 22.4066 43.5936 22.1253L39.0936 11.4378C38.9998 11.0628 39.1873 10.6878 39.4686 10.5941C39.8436 10.4066 40.2186 10.5941 40.4061 10.8753L44.8123 21.6566C44.9998 21.9378 44.8123 22.4066 44.4373 22.5003C44.3436 22.5941 44.2498 22.5941 44.1561 22.5941ZM36.7498 8.90656C36.7498 8.90656 36.6561 8.90656 36.5623 8.90656L25.8748 4.50031C25.4998 4.31281 25.3123 3.93781 25.4998 3.56281C25.5936 3.18781 26.0623 3.09406 26.3436 3.18781L37.0311 7.68781C37.4061 7.78156 37.5936 8.25031 37.4061 8.53156C37.3123 8.81281 37.0311 8.90656 36.7498 8.90656ZM11.2498 8.90656C10.9686 8.90656 10.6873 8.81281 10.5936 8.53156C10.4061 8.15656 10.5936 7.78156 10.9686 7.59406L21.6561 3.18781C22.0311 3.00031 22.4061 3.18781 22.5936 3.56281C22.6873 3.84406 22.4998 4.31281 22.2186 4.40656L11.4373 8.90656C11.3436 8.90656 11.2498 8.90656 11.2498 8.90656Z" fill="#A9A7B0"/>
<path fill-rule="evenodd" clip-rule="evenodd" d="M24 39.2812C15.6562 39.2812 8.8125 32.4375 8.8125 24C8.8125 15.6562 15.6562 8.8125 24 8.8125C32.4375 8.8125 39.2812 15.6562 39.2812 24C39.2812 32.4375 32.4375 39.2812 24 39.2812ZM24 10.125C16.3125 10.125 10.125 16.3125 10.125 24C10.125 31.6875 16.3125 37.875 24 37.875C31.6875 37.875 37.875 31.6875 37.875 24C37.875 16.3125 31.6875 10.125 24 10.125Z" fill="#A9A7B0"/>
<path fill-rule="evenodd" clip-rule="evenodd" d="M24 39.2812C20.0625 39.2812 16.9688 32.5312 16.9688 24C16.9688 15.4688 20.0625 8.8125 24 8.8125C27.9375 8.8125 31.0312 15.4688 31.0312 24C31.0312 32.5312 27.9375 39.2812 24 39.2812ZM24 10.125C21.2812 10.125 18.375 15.75 18.375 24C18.375 32.3438 21.2812 37.875 24 37.875C26.7188 37.875 29.7188 32.3438 29.7188 24C29.7188 15.6562 26.8125 10.125 24 10.125Z" fill="#A9A7B0"/>
<path fill-rule="evenodd" clip-rule="evenodd" d="M24 31.0312C15.4688 31.0312 8.8125 27.9375 8.8125 24C8.8125 20.0625 15.4688 16.9688 24 16.9688C32.5312 16.9688 39.2812 20.0625 39.2812 24C39.2812 27.9375 32.5312 31.0312 24 31.0312ZM24 18.375C15.6562 18.375 10.125 21.2812 10.125 24C10.125 26.7188 15.75 29.7188 24 29.7188C32.3438 29.7188 37.875 26.7188 37.875 24C37.875 21.2812 32.3438 18.375 24 18.375Z" fill="#A9A7B0"/>
<path fill-rule="evenodd" clip-rule="evenodd" d="M24 5.90625C22.4062 5.90625 21.0938 4.59375 21.0938 3C21.0938 1.3125 22.4062 0 24 0C25.5938 0 27 1.3125 27 3C27 4.59375 25.5938 5.90625 24 5.90625ZM24 1.40625C23.1562 1.40625 22.4062 2.0625 22.4062 3C22.4062 3.84375 23.1562 4.5 24 4.5C24.9375 4.5 25.5938 3.84375 25.5938 3C25.5938 2.0625 24.9375 1.40625 24 1.40625Z" fill="#A9A7B0"/>
<path fill-rule="evenodd" clip-rule="evenodd" d="M38.9062 12.0938C38.1562 12.0938 37.4062 11.7188 36.8438 11.25C36.2812 10.6875 36 9.9375 36 9.1875C36 8.34375 36.2812 7.59375 36.8438 7.03125C37.9688 5.90625 39.8438 5.90625 40.9688 7.03125C41.5312 7.59375 41.8125 8.34375 41.8125 9.1875C41.8125 9.9375 41.5312 10.6875 40.9688 11.25C40.4062 11.7188 39.6562 12.0938 38.9062 12.0938ZM38.9062 7.5C38.5312 7.5 38.1562 7.6875 37.7812 7.96875C37.5 8.34375 37.3125 8.71875 37.3125 9.1875C37.3125 9.5625 37.5 9.9375 37.7812 10.2188C38.1562 10.5938 38.5312 10.6875 38.9062 10.6875C39.2812 10.6875 39.75 10.5938 40.0312 10.2188C40.3125 9.9375 40.5 9.5625 40.5 9.1875C40.5 8.71875 40.3125 8.34375 40.0312 7.96875C39.6562 7.6875 39.2812 7.5 38.9062 7.5Z" fill="#A9A7B0"/>
<path fill-rule="evenodd" clip-rule="evenodd" d="M45.0938 27C43.5 27 42.0938 25.5938 42.0938 24C42.0938 22.4062 43.5 21.0938 45.0938 21.0938C46.6875 21.0938 48 22.4062 48 24C48 25.5938 46.6875 27 45.0938 27ZM45.0938 22.4062C44.1562 22.4062 43.5 23.1562 43.5 24C43.5 24.9375 44.1562 25.5938 45.0938 25.5938C45.9375 25.5938 46.5938 24.9375 46.5938 24C46.5938 23.1562 45.9375 22.4062 45.0938 22.4062Z" fill="#A9A7B0"/>
<path fill-rule="evenodd" clip-rule="evenodd" d="M38.9062 41.8125C38.1562 41.8125 37.4062 41.5312 36.8438 40.9688C36.2812 40.4062 36 39.6562 36 38.8125C36 38.0625 36.2812 37.3125 36.8438 36.75C37.4062 36.2812 38.1562 35.9062 38.9062 35.9062C39.75 35.9062 40.5 36.2812 40.9688 36.8438C41.5312 37.4062 41.8125 38.1562 41.8125 38.9062C41.8125 39.6562 41.5312 40.4062 40.9688 40.9688C40.4062 41.5312 39.6562 41.8125 38.9062 41.8125ZM38.9062 37.3125C38.4375 37.3125 38.0625 37.4062 37.7812 37.7812C37.5 38.0625 37.3125 38.4375 37.3125 38.8125C37.3125 39.2812 37.5 39.6562 37.7812 39.9375C38.1562 40.2188 38.5312 40.4062 38.9062 40.4062C39.2812 40.4062 39.75 40.2188 40.0312 39.9375C40.3125 39.6562 40.5 39.2812 40.5 38.8125C40.5 38.4375 40.3125 38.0625 40.0312 37.7812C39.75 37.5 39.2812 37.3125 38.9062 37.3125Z" fill="#A9A7B0"/>
<path fill-rule="evenodd" clip-rule="evenodd" d="M24 48C22.4062 48 21.0938 46.6875 21.0938 45.0938C21.0938 43.5 22.4062 42.0938 24 42.0938C25.5938 42.0938 27 43.5 27 45.0938C27 46.6875 25.5938 48 24 48ZM24 43.5C23.1562 43.5 22.4062 44.1562 22.4062 45.0938C22.4062 45.9375 23.1562 46.5938 24 46.5938C24.9375 46.5938 25.5938 45.9375 25.5938 45.0938C25.5938 44.1562 24.9375 43.5 24 43.5Z" fill="#A9A7B0"/>
<path fill-rule="evenodd" clip-rule="evenodd" d="M9.1875 41.8122C8.34375 41.8122 7.59375 41.531 7.03125 40.9685C5.90625 39.8435 5.90625 37.9685 7.03125 36.8435C7.59375 36.281 8.34375 35.906 9.1875 35.9997C9.9375 35.9997 10.6875 36.281 11.25 36.8435C12.375 37.9685 12.375 39.8435 11.25 40.9685C10.6875 41.531 9.9375 41.8122 9.1875 41.8122ZM9.1875 37.3122C8.71875 37.3122 8.34375 37.406 7.96875 37.781C7.40625 38.3435 7.40625 39.3747 7.96875 40.031C8.34375 40.3122 8.71875 40.4997 9.1875 40.4997C9.5625 40.4997 9.9375 40.3122 10.2188 40.031C10.875 39.3747 10.875 38.3435 10.2188 37.781C9.9375 37.4997 9.5625 37.3122 9.1875 37.3122Z" fill="#A9A7B0"/>
<path fill-rule="evenodd" clip-rule="evenodd" d="M3 27C1.3125 27 0 25.5938 0 24C0 22.4062 1.3125 21.0938 3 21.0938C4.59375 21.0938 5.90625 22.4062 5.90625 24C5.90625 25.5938 4.59375 27 3 27ZM3 22.4062C2.0625 22.4062 1.40625 23.1562 1.40625 24C1.40625 24.9375 2.0625 25.5938 3 25.5938C3.84375 25.5938 4.5 24.9375 4.5 24C4.5 23.1562 3.84375 22.4062 3 22.4062Z" fill="#A9A7B0"/>
<path fill-rule="evenodd" clip-rule="evenodd" d="M9.1875 12.0938C8.4375 12.0938 7.59375 11.8125 7.03125 11.25C5.90625 10.125 5.90625 8.25 7.03125 7.03125C8.25 5.90625 10.125 5.90625 11.25 7.03125C12.375 8.25 12.375 10.125 11.25 11.25C10.5938 11.7188 9.84375 12.0938 9.1875 12.0938ZM7.96875 7.96875C7.40625 8.625 7.40625 9.65625 7.96875 10.2188C8.625 10.7812 9.65625 10.875 10.2188 10.2188C10.875 9.65625 10.7812 8.625 10.2188 7.96875C9.65625 7.40625 8.625 7.40625 7.96875 7.96875Z" fill="#A9A7B0"/>
</g>
<defs>
<clipPath id="clip0_7816_21315">
<rect width="48" height="48" fill="white"/>
</clipPath>
</defs>
</svg>
