<svg width="48" height="48" viewBox="0 0 48 48" fill="none" xmlns="http://www.w3.org/2000/svg">
<g clip-path="url(#clip0_7816_21353)">
<path fill-rule="evenodd" clip-rule="evenodd" d="M36 45.2812H5.625C5.25 45.2812 4.875 44.9062 4.875 44.5312V6.46875C4.875 6.09375 5.25 5.71875 5.625 5.71875H28.7812C29.25 5.71875 29.5312 6.09375 29.5312 6.46875C29.5312 6.84375 29.25 7.125 28.7812 7.125H6.28125V43.9688H35.25V38.625C35.25 38.1562 35.625 37.875 36 37.875C36.375 37.875 36.6562 38.1562 36.6562 38.625V44.625C36.6562 44.9062 36.375 45.2812 36 45.2812ZM36 22.5938C35.5312 22.5938 35.25 22.3125 35.25 21.9375V13.5938C35.25 13.2188 35.5312 12.9375 36 12.9375C36.375 12.9375 36.6562 13.2188 36.6562 13.5938V21.9375C36.6562 22.3125 36.375 22.5938 36 22.5938Z" fill="#A9A7B0"/>
<path fill-rule="evenodd" clip-rule="evenodd" d="M36 14.2497H28.7812C28.4062 14.2497 28.125 13.9684 28.125 13.5934V6.46842C28.125 6.18717 28.3125 5.90592 28.5938 5.81217C28.7812 5.71842 29.0625 5.81217 29.25 5.99967L36.4688 13.1247C36.6562 13.3122 36.75 13.6872 36.6562 13.8747C36.4688 14.1559 36.2812 14.2497 36 14.2497ZM29.5312 12.9372H34.3125L29.5312 8.06217V12.9372Z" fill="#A9A7B0"/>
<path fill-rule="evenodd" clip-rule="evenodd" d="M5.625 38.4375H0.65625C0.28125 38.4375 0 38.0625 0 37.6875V1.59375C0 1.21875 0.28125 0.84375 0.65625 0.84375H26.3438C26.7188 0.84375 27 1.21875 27 1.59375V6.46875C27 6.84375 26.7188 7.125 26.3438 7.125C25.9688 7.125 25.5938 6.84375 25.5938 6.46875V2.25H1.40625V37.0312H5.625C6 37.0312 6.28125 37.3125 6.28125 37.6875C6.28125 38.0625 6 38.4375 5.625 38.4375Z" fill="#A9A7B0"/>
<path fill-rule="evenodd" clip-rule="evenodd" d="M27.8438 37.2188C25.125 37.2188 22.5938 36.1875 20.625 34.2188C18.6562 32.25 17.625 29.7188 17.625 27C17.625 24.1875 18.6562 21.6562 20.625 19.6875C24.6562 15.75 31.125 15.75 35.0625 19.6875C39.0938 23.7188 39.0938 30.2812 35.0625 34.2188C33.1875 36.1875 30.6562 37.2188 27.8438 37.2188ZM27.8438 18.0938C25.5938 18.0938 23.3438 18.9375 21.5625 20.7188C18.0938 24.1875 18.0938 29.8125 21.5625 33.2812C23.25 34.875 25.5 35.8125 27.8438 35.8125C30.2812 35.8125 32.5312 34.875 34.125 33.2812C37.5938 29.8125 37.5938 24.1875 34.125 20.7188C32.4375 18.9375 30.1875 18.0938 27.8438 18.0938Z" fill="#A9A7B0"/>
<path fill-rule="evenodd" clip-rule="evenodd" d="M44.25 47.1562C43.7812 47.1562 43.4062 46.9688 43.0312 46.5938L35.3438 38.9062C35.0625 38.625 34.875 38.1562 34.875 37.6875C34.875 37.2188 35.0625 36.8438 35.3438 36.5625L37.4062 34.4062C38.0625 33.75 39.1875 33.75 39.8438 34.4062L47.5312 42.0938C48.1875 42.8438 48.1875 43.875 47.5312 44.5312L45.4688 46.5938C45.1875 46.9688 44.7188 47.1562 44.25 47.1562ZM38.625 35.3438C38.5312 35.3438 38.5312 35.3438 38.4375 35.4375L36.375 37.5C36.1875 37.5938 36.1875 37.875 36.375 37.9688L44.0625 45.6562C44.1562 45.75 44.3438 45.75 44.5312 45.6562L46.5938 43.5938C46.6875 43.5 46.6875 43.2188 46.5938 43.125L38.9062 35.4375C38.8125 35.3438 38.7188 35.3438 38.625 35.3438Z" fill="#A9A7B0"/>
<path fill-rule="evenodd" clip-rule="evenodd" d="M36.9375 36.6562C36.75 36.6562 36.5625 36.5625 36.4688 36.4688L34.125 34.2188C33.9375 33.9375 33.9375 33.5625 34.125 33.2812C34.4062 33 34.875 33 35.1562 33.2812L37.4062 35.5312C37.6875 35.8125 37.6875 36.1875 37.4062 36.4688C37.2188 36.5625 37.0312 36.6562 36.9375 36.6562Z" fill="#A9A7B0"/>
<path fill-rule="evenodd" clip-rule="evenodd" d="M28.7812 40.6875H9.75C9.375 40.6875 9.09375 40.3125 9.09375 39.9375C9.09375 39.5625 9.375 39.2812 9.75 39.2812H28.7812C29.1562 39.2812 29.5312 39.5625 29.5312 39.9375C29.5312 40.3125 29.1562 40.6875 28.7812 40.6875Z" fill="#A9A7B0"/>
<path fill-rule="evenodd" clip-rule="evenodd" d="M16.125 35.4375H9.75C9.375 35.4375 9.09375 35.1562 9.09375 34.7812C9.09375 34.4062 9.375 34.0312 9.75 34.0312H16.125C16.5 34.0312 16.7812 34.4062 16.7812 34.7812C16.7812 35.1562 16.5 35.4375 16.125 35.4375Z" fill="#A9A7B0"/>
<path fill-rule="evenodd" clip-rule="evenodd" d="M16.125 30.2812H9.75C9.375 30.2812 9.09375 30 9.09375 29.5312C9.09375 29.1562 9.375 28.875 9.75 28.875H16.125C16.5 28.875 16.7812 29.1562 16.7812 29.5312C16.7812 30 16.5 30.2812 16.125 30.2812Z" fill="#A9A7B0"/>
<path fill-rule="evenodd" clip-rule="evenodd" d="M16.125 25.125H9.75C9.375 25.125 9.09375 24.75 9.09375 24.375C9.09375 24 9.375 23.7188 9.75 23.7188H16.125C16.5 23.7188 16.7812 24 16.7812 24.375C16.7812 24.75 16.5 25.125 16.125 25.125Z" fill="#A9A7B0"/>
<path fill-rule="evenodd" clip-rule="evenodd" d="M16.125 19.875H9.75C9.375 19.875 9.09375 19.5938 9.09375 19.125C9.09375 18.75 9.375 18.4688 9.75 18.4688H16.125C16.5 18.4688 16.7812 18.75 16.7812 19.125C16.7812 19.5938 16.5 19.875 16.125 19.875Z" fill="#A9A7B0"/>
<path fill-rule="evenodd" clip-rule="evenodd" d="M25.0312 14.625H9.75C9.375 14.625 9.09375 14.25 9.09375 13.875C9.09375 13.5 9.375 13.2188 9.75 13.2188H25.0312C25.5 13.2188 25.7812 13.5 25.7812 13.875C25.7812 14.25 25.5 14.625 25.0312 14.625Z" fill="#A9A7B0"/>
<path fill-rule="evenodd" clip-rule="evenodd" d="M24.5627 31.312C24.469 31.312 24.3752 31.312 24.3752 31.312H24.2815C24.1877 31.312 24.1877 31.312 24.094 31.2183C24.0002 31.2183 23.9065 31.2183 23.9065 31.2183C23.8127 31.1245 23.719 31.1245 23.719 31.0308H23.6252C23.5315 30.937 23.5315 30.937 23.4377 30.937C23.4377 30.8433 23.344 30.8433 23.344 30.8433L23.2502 30.7495H23.1565C23.0627 30.6558 23.0627 30.6558 22.969 30.562C22.969 30.4683 22.8752 30.4683 22.8752 30.3745L21.0002 27.187C20.5315 26.2495 20.8127 25.1245 21.6565 24.6558H21.7502C22.594 24.0933 23.719 24.4683 24.2815 25.312L25.219 26.9995L32.2502 22.9683C33.094 22.4058 34.219 22.687 34.7815 23.6245C35.2502 24.4683 34.969 25.5933 34.1252 26.1558L25.5002 31.0308C25.4065 31.1245 25.3127 31.1245 25.3127 31.2183C25.219 31.2183 25.1252 31.2183 25.1252 31.2183C25.0315 31.2183 25.0315 31.312 25.0315 31.312C24.9377 31.312 24.844 31.312 24.7502 31.312C24.6565 31.312 24.6565 31.312 24.5627 31.312ZM24.3752 29.9058H24.469H24.5627H24.6565H24.7502C24.7502 29.9058 24.7502 29.812 24.844 29.812L33.3752 24.937C33.6565 24.7495 33.6565 24.4683 33.5627 24.187C33.469 23.9995 33.1877 23.9058 32.9065 24.0933L25.3127 28.4995C24.9377 28.687 24.5627 28.5933 24.3752 28.2183L22.969 25.9683C22.8752 25.7808 22.594 25.687 22.3127 25.7808C22.1252 25.9683 22.0315 26.2495 22.219 26.437L24.094 29.7183C24.1877 29.812 24.1877 29.812 24.1877 29.812C24.2815 29.812 24.2815 29.9058 24.2815 29.9058C24.2815 29.9058 24.3752 29.9058 24.3752 29.9995C24.3752 29.9058 24.3752 29.9058 24.3752 29.9058Z" fill="#A9A7B0"/>
</g>
<defs>
<clipPath id="clip0_7816_21353">
<rect width="48" height="48" fill="white"/>
</clipPath>
</defs>
</svg>
