<svg width="48" height="48" viewBox="0 0 48 48" fill="none" xmlns="http://www.w3.org/2000/svg">
<path fill-rule="evenodd" clip-rule="evenodd" d="M40.9688 48H7.03125C6.65625 48 6.375 47.7188 6.375 47.3438V0.65625C6.375 0.28125 6.65625 0 7.03125 0H34.2188H34.5C34.5 0.09375 34.5938 0.09375 34.6875 0.1875L41.5312 6.9375C41.5312 7.03125 41.625 7.03125 41.625 7.125V7.40625V47.3438C41.625 47.7188 41.3438 48 40.9688 48ZM7.6875 46.5938H40.3125V8.15625H34.2188C33.8438 8.15625 33.4688 7.78125 33.4688 7.40625V1.40625H7.6875V46.5938ZM34.875 6.75H39.2812L34.875 2.34375V6.75Z" fill="#A9A7B0"/>
<path fill-rule="evenodd" clip-rule="evenodd" d="M16.2188 44.625C16.0312 44.625 15.75 44.5312 15.6562 44.3438L14.4375 42.375L12.0938 42.8438C11.9062 42.9375 11.625 42.8438 11.5312 42.6562C11.3438 42.5625 11.25 42.2812 11.3438 42.0938L11.9062 39.8438L9.9375 38.5312C9.75 38.4375 9.5625 38.1562 9.5625 37.9688C9.5625 37.6875 9.75 37.5 9.9375 37.4062L11.8125 36.1875L11.3438 33.8438C11.25 33.5625 11.3438 33.375 11.5312 33.1875C11.625 33 11.9062 33 12.0938 33L14.3438 33.5625L15.6562 31.5938C15.75 31.4062 15.9375 31.2188 16.2188 31.2188C16.5 31.2188 16.6875 31.4062 16.7812 31.5938L18 33.4688L20.3438 33C20.5312 33 20.8125 33 21 33.1875C21.0938 33.375 21.1875 33.5625 21.1875 33.8438L20.625 36.0938L22.5938 37.3125C22.7812 37.5 22.875 37.6875 22.875 37.9688C22.875 38.1562 22.7812 38.4375 22.5938 38.5312L20.625 39.75L21.0938 42C21.1875 42.2812 21.0938 42.4688 20.9062 42.6562C20.7188 42.8438 20.5312 42.8438 20.25 42.8438L18.0938 42.2812L16.7812 44.25C16.6875 44.5312 16.5 44.625 16.2188 44.625ZM14.8125 40.875C15 40.875 15.2812 40.9688 15.375 41.25L16.3125 42.6562L17.25 41.1562C17.4375 40.9688 17.7188 40.7812 18 40.875L19.5938 41.25L19.2188 39.5625C19.125 39.2812 19.3125 38.9062 19.5938 38.8125L21 37.875L19.5 36.9375C19.3125 36.75 19.125 36.4688 19.2188 36.1875L19.5938 34.5L17.9062 34.875C17.625 34.9688 17.25 34.875 17.1562 34.5938L16.2188 33.1875L15.2812 34.6875C15.0938 34.875 14.8125 35.0625 14.5312 34.9688L12.8438 34.5938L13.2188 36.375C13.3125 36.6562 13.2188 36.9375 12.9375 37.125L11.5312 37.9688L13.0312 38.9062C13.2188 39.0938 13.3125 39.375 13.3125 39.6562L12.9375 41.25L14.625 40.9688C14.7188 40.875 14.7188 40.875 14.8125 40.875Z" fill="#A9A7B0"/>
<path fill-rule="evenodd" clip-rule="evenodd" d="M33.8436 41.2497C33.7498 41.2497 33.7498 41.2497 33.8436 41.2497C33.4686 41.2497 33.2811 40.9684 33.1873 40.7809C32.9061 40.1247 32.7186 38.4372 32.6248 38.0622L32.4373 36.5622C32.3436 35.9997 32.3436 35.4372 32.2498 34.8747C31.8748 35.9059 31.4061 37.0309 30.9373 37.7809C30.8436 37.8747 30.8436 37.9684 30.7498 38.0622C30.1873 39.1872 29.5311 40.2184 28.6873 40.2184C28.4998 40.2184 28.1248 40.2184 27.8436 39.9372C27.7498 39.9372 27.6561 39.9372 27.5623 40.0309C26.9998 40.2184 25.6873 40.6872 25.2186 39.3747C25.0311 39.0934 25.2186 38.6247 25.5936 38.5309C25.8748 38.3434 26.3436 38.5309 26.4373 38.9059C26.6248 38.9059 26.9998 38.7184 27.1873 38.6247C27.5623 38.5309 28.2186 38.2497 28.6873 38.8122C28.8748 38.6247 29.1561 38.1559 29.5311 37.4997C29.6248 37.3122 29.7186 37.2184 29.7186 37.1247C30.2811 36.1872 30.7498 34.8747 31.3123 33.5622C31.4998 32.9059 31.7811 32.3434 31.9686 31.7809C32.0623 31.5934 32.1561 31.4997 32.1561 31.4059C32.3436 31.2184 32.6248 31.1247 32.9061 31.2184C33.0936 31.3122 33.2811 31.4997 33.3748 31.6872C33.5623 32.4372 33.5623 33.3747 33.6561 34.3122C33.6561 34.9684 33.6561 35.7184 33.8436 36.2809L34.0311 37.8747V38.0622L34.3123 37.4997C34.4998 36.8434 34.7811 36.2809 35.3436 36.2809C35.9061 36.2809 36.0936 36.7497 36.1873 37.0309C36.2811 37.0309 36.2811 37.2184 36.3748 37.2184C36.6561 37.3122 36.9373 37.5934 36.9373 37.9684C36.9373 38.3434 36.6561 38.6247 36.1873 38.6247C35.8123 38.6247 35.5311 38.4372 35.3436 38.2497C34.9686 39.0934 34.6873 40.0309 34.3123 40.7809C34.3123 41.0622 34.0311 41.2497 33.8436 41.2497Z" fill="#A9A7B0"/>
<path fill-rule="evenodd" clip-rule="evenodd" d="M37.5938 42.9375H25.125C24.75 42.9375 24.375 42.6562 24.375 42.1875C24.375 41.8125 24.75 41.5312 25.125 41.5312H37.5938C38.0625 41.5312 38.3438 41.8125 38.3438 42.1875C38.3438 42.6562 38.0625 42.9375 37.5938 42.9375Z" fill="#A9A7B0"/>
<path fill-rule="evenodd" clip-rule="evenodd" d="M25.5938 12.375H13.7812C12.6562 12.375 11.625 11.4375 11.625 10.2188V7.03125C11.625 5.8125 12.6562 4.875 13.7812 4.875H25.5938C26.8125 4.875 27.75 5.8125 27.75 7.03125V10.2188C27.75 11.4375 26.7188 12.375 25.5938 12.375ZM13.7812 6.1875C13.4062 6.1875 13.0312 6.5625 13.0312 7.03125V10.2188C13.0312 10.5938 13.4062 10.9688 13.7812 10.9688H25.5938C25.9688 10.9688 26.3438 10.6875 26.3438 10.2188V7.03125C26.3438 6.5625 26.0625 6.1875 25.5938 6.1875H13.7812Z" fill="#A9A7B0"/>
<path fill-rule="evenodd" clip-rule="evenodd" d="M23.7188 17.5312H11.8125C11.4375 17.5312 11.1562 17.25 11.1562 16.875C11.1562 16.4062 11.4375 16.125 11.8125 16.125H23.7188C24.0938 16.125 24.375 16.4062 24.375 16.875C24.375 17.25 24.0938 17.5312 23.7188 17.5312Z" fill="#A9A7B0"/>
<path fill-rule="evenodd" clip-rule="evenodd" d="M36.1875 21.1875H11.8125C11.4375 21.1875 11.1562 20.9062 11.1562 20.5312C11.1562 20.1562 11.4375 19.7812 11.8125 19.7812H36.1875C36.5625 19.7812 36.8438 20.1562 36.8438 20.5312C36.8438 20.9062 36.5625 21.1875 36.1875 21.1875Z" fill="#A9A7B0"/>
<path fill-rule="evenodd" clip-rule="evenodd" d="M36.1875 24.8438H11.8125C11.4375 24.8438 11.1562 24.5625 11.1562 24.1875C11.1562 23.8125 11.4375 23.4375 11.8125 23.4375H36.1875C36.5625 23.4375 36.8438 23.8125 36.8438 24.1875C36.8438 24.5625 36.5625 24.8438 36.1875 24.8438Z" fill="#A9A7B0"/>
<path fill-rule="evenodd" clip-rule="evenodd" d="M36.1875 28.5H11.8125C11.4375 28.5 11.1562 28.2188 11.1562 27.8438C11.1562 27.375 11.4375 27.0938 11.8125 27.0938H36.1875C36.5625 27.0938 36.8438 27.375 36.8438 27.8438C36.8438 28.2188 36.5625 28.5 36.1875 28.5Z" fill="#A9A7B0"/>
</svg>
