<svg width="48" height="48" viewBox="0 0 48 48" fill="none" xmlns="http://www.w3.org/2000/svg">
<path d="M22.1091 13.8183C21.9636 13.6001 21.7454 13.5273 21.4545 13.5273C20.0727 13.6728 18.8363 13.891 17.7454 14.2546C16.5818 14.6183 15.7091 15.5637 15.5636 16.5819L14.0363 24.4364C13.9636 24.6546 14.0363 24.8728 14.1818 25.0183C14.3273 25.1637 14.5454 25.3092 14.7636 25.3092H33.3818C33.6 25.3092 33.8182 25.2364 33.9636 25.0183C34.1091 24.8728 34.1818 24.6546 34.1091 24.4364L32.5818 16.6546C32.4363 15.5637 31.5636 14.6183 30.3273 14.2546C29.1636 13.891 27.9273 13.6728 26.6182 13.5273C26.4 13.5273 26.1091 13.6001 25.9636 13.8183C25.8182 14.0364 25.7454 14.2546 25.8182 14.4728C26.1818 15.7819 26.6182 17.2364 24.0727 19.9273C22.3273 18.0364 21.7454 16.291 22.3273 14.4728C22.3273 14.2546 22.2545 14.0364 22.1091 13.8183ZM23.4909 21.4546C23.7818 21.7455 24.2182 21.7455 24.5091 21.4546C27.4182 18.691 27.7091 16.8001 27.4182 15.1273C28.2909 15.2728 29.0909 15.4183 29.8182 15.6364C30.4727 15.8546 30.9818 16.291 31.0545 16.8728L32.4363 23.7819H15.5636L16.9454 16.8001C17.0182 16.291 17.5273 15.7819 18.1091 15.6364C18.8363 15.4183 19.7091 15.2001 20.5818 15.1273C20.2909 17.3092 21.3091 19.3455 23.4909 21.4546Z" fill="#A9A7B0"/>
<path d="M20.4367 8.29118C21.0912 9.67299 22.2548 11.5639 24.0003 11.5639C25.673 11.5639 26.9094 9.67299 27.5639 8.29118C28.873 7.78208 29.0185 5.09118 27.9276 4.14572C27.4185 2.10936 25.8185 0.727539 24.0003 0.727539C22.1821 0.727539 20.5821 2.10936 20.073 4.14572C18.9821 5.1639 19.1276 7.78208 20.4367 8.29118ZM21.0185 5.23663C21.2367 5.1639 21.3821 4.94572 21.3821 4.72754C21.7457 3.27299 22.7639 2.18208 24.0003 2.18208C25.3821 2.18208 26.3276 3.49118 26.6185 4.72754C26.6912 4.94572 26.8367 5.09118 26.9821 5.23663C27.273 5.45481 27.273 6.61845 26.9821 6.90936C26.6912 6.90936 26.473 7.12754 26.3276 7.34572C25.6003 9.01845 24.6548 10.0366 23.9276 10.0366C23.2003 10.0366 22.2548 8.94572 21.5276 7.34572C21.4548 7.12754 21.1639 6.90936 20.873 6.90936C20.7276 6.61845 20.7276 5.52754 21.0185 5.23663Z" fill="#A9A7B0"/>
<path d="M40.2183 35.4908C39.5637 34.8362 38.691 34.4726 37.6728 34.4726C36.9456 34.4726 36.291 34.6908 35.7092 35.0544L32.0001 31.3453C35.2728 28.8726 37.2365 24.9453 37.2365 20.7999C37.2365 15.8544 34.5456 11.3453 30.1819 9.09079C29.8183 8.87261 29.3819 9.01807 29.1637 9.3817C28.9456 9.74534 29.091 10.1817 29.4546 10.3999C33.3092 12.4362 35.7819 16.4362 35.7819 20.8726C35.7819 27.4181 30.4728 32.7272 23.9274 32.7272C17.4546 32.7272 12.0728 27.4908 12.0728 20.8726C12.0728 16.4362 14.5456 12.3635 18.4728 10.3272C18.8365 10.109 18.9819 9.67261 18.7637 9.3817C18.5456 9.01807 18.1092 8.87261 17.8183 9.09079C13.3819 11.3453 10.6183 15.9272 10.6183 20.9453C10.6183 25.0908 12.5819 29.0181 15.8546 31.4908L12.1456 35.1999C10.7637 34.3272 8.87282 34.3999 7.63646 35.6362C6.25464 37.0181 6.25464 39.2726 7.63646 40.6544C9.01828 42.0363 11.2728 42.0363 12.6546 40.6544C13.891 39.4181 14.0365 37.5272 13.091 36.2181L17.0183 32.2908C18.8365 33.3817 20.9456 34.0362 23.1274 34.1817V40.3635C21.5274 40.7272 20.291 42.109 20.291 43.8544C20.291 45.8181 21.891 47.4181 23.8546 47.4181C25.8183 47.4181 27.4183 45.8181 27.4183 43.8544C27.4183 42.109 26.1819 40.7272 24.5819 40.3635V34.1817C26.7637 34.0362 28.8001 33.4544 30.691 32.2908L34.6183 36.2181C33.091 38.5453 34.7637 41.7453 37.6001 41.7453C40.8728 41.5999 42.4728 37.7453 40.2183 35.4908ZM11.7819 39.4908C10.9819 40.2908 9.6001 40.2908 8.8001 39.4908C8.0001 38.6908 8.0001 37.309 8.8001 36.509C9.6001 35.709 10.9819 35.709 11.7819 36.509C12.5819 37.3817 12.5819 38.6908 11.7819 39.4908ZM26.1092 43.709C26.1092 44.8726 25.1637 45.8181 24.0001 45.8181C22.8365 45.8181 21.891 44.8726 21.891 43.709C21.891 42.5453 22.8365 41.5999 24.0001 41.5999C25.1637 41.5999 26.1092 42.5453 26.1092 43.709ZM37.7456 40.1453C34.9819 40.1453 34.9092 35.9272 37.7456 35.9272C38.3274 35.9272 38.8365 36.1453 39.2001 36.5817C40.5092 37.8908 39.5637 40.1453 37.7456 40.1453Z" fill="#A9A7B0"/>
</svg>
