<svg width="46" height="56" viewBox="0 0 46 56" fill="none" xmlns="http://www.w3.org/2000/svg">
<path d="M5 54H8.05V56H5C3.67392 56 2.40215 55.4732 1.46447 54.5355C0.526784 53.5979 0 52.3261 0 51V9C0 7.67392 0.526784 6.40215 1.46447 5.46447C2.40215 4.52678 3.67392 4 5 4H10V6H5C4.20435 6 3.44129 6.31607 2.87868 6.87868C2.31607 7.44129 2 8.20435 2 9V51C2 51.7957 2.31607 52.5587 2.87868 53.1213C3.44129 53.6839 4.20435 54 5 54ZM40 9V32H42V9C42 7.67392 41.4732 6.40215 40.5355 5.46447C39.5979 4.52678 38.3261 4 37 4H32V6H37C37.7957 6 38.5587 6.31607 39.1213 6.87868C39.6839 7.44129 40 8.20435 40 9ZM10 10V8H5C4.73478 8 4.48043 8.10536 4.29289 8.29289C4.10536 8.48043 4 8.73478 4 9V51C4 51.2652 4.10536 51.5196 4.29289 51.7071C4.48043 51.8946 4.73478 52 5 52H7.94V50H6V10H10ZM36 32H38V9C38 8.73478 37.8946 8.48043 37.7071 8.29289C37.5196 8.10536 37.2652 8 37 8H32V10H36V32ZM12 13V5C12 4.73478 12.1054 4.48043 12.2929 4.29289C12.4804 4.10536 12.7348 4 13 4H17C17 2.93913 17.4214 1.92172 18.1716 1.17157C18.9217 0.421427 19.9391 0 21 0C22.0609 0 23.0783 0.421427 23.8284 1.17157C24.5786 1.92172 25 2.93913 25 4H29C29.2652 4 29.5196 4.10536 29.7071 4.29289C29.8946 4.48043 30 4.73478 30 5V13C30 13.2652 29.8946 13.5196 29.7071 13.7071C29.5196 13.8946 29.2652 14 29 14H13C12.7348 14 12.4804 13.8946 12.2929 13.7071C12.1054 13.5196 12 13.2652 12 13ZM14 12H28V6H24C23.7348 6 23.4804 5.89464 23.2929 5.70711C23.1054 5.51957 23 5.26522 23 5V4C23 3.46957 22.7893 2.96086 22.4142 2.58579C22.0391 2.21071 21.5304 2 21 2C20.4696 2 19.9609 2.21071 19.5858 2.58579C19.2107 2.96086 19 3.46957 19 4V5C19 5.26522 18.8946 5.51957 18.7071 5.70711C18.5196 5.89464 18.2652 6 18 6H14V12ZM18 10H24V8H18V10ZM32 18H22V20H32V18ZM32 24H22V26H32V24ZM22 32H32V30H22V32ZM12.45 23.83C12.6104 23.944 12.8032 24.0036 13 24C13.1316 24.0008 13.2621 23.9755 13.3839 23.9258C13.5057 23.876 13.6166 23.8027 13.71 23.71L17.71 19.71L16.29 18.29L12.87 21.71L10.55 20.17L9.45 21.83L12.45 23.83ZM13 32C13.1316 32.0008 13.2621 31.9755 13.3839 31.9258C13.5057 31.876 13.6166 31.8027 13.71 31.71L17.71 27.71L16.29 26.29L12.87 29.71L10.55 28.17L9.45 29.83L12.45 31.83C12.6104 31.944 12.8032 32.0036 13 32ZM46 54V56H10V54H13V45C13 44.7348 13.1054 44.4804 13.2929 44.2929C13.4804 44.1054 13.7348 44 14 44H20C20.2652 44 20.5196 44.1054 20.7071 44.2929C20.8946 44.4804 21 44.7348 21 45V54H24V41C24 40.7348 24.1054 40.4804 24.2929 40.2929C24.4804 40.1054 24.7348 40 25 40H31C31.2652 40 31.5196 40.1054 31.7071 40.2929C31.8946 40.4804 32 40.7348 32 41V54H35V35C35 34.7348 35.1054 34.4804 35.2929 34.2929C35.4804 34.1054 35.7348 34 36 34H42C42.2652 34 42.5196 34.1054 42.7071 34.2929C42.8946 34.4804 43 34.7348 43 35V54H46ZM19 54V46H15V54H19ZM30 54V42H26V54H30ZM41 54V36H37V54H41Z" fill="#CFA935"/>
</svg>
