<svg width="56" height="62" viewBox="0 0 56 62" fill="none" xmlns="http://www.w3.org/2000/svg">
<path fill-rule="evenodd" clip-rule="evenodd" d="M8.19708 27.4078H5.02924C4.48996 27.4078 4.0528 26.9707 4.0528 26.4314V11.5706H2.65002C1.20579 11.5706 0.412309 9.9133 1.29563 8.79147L1.29587 8.79122L7.03391 1.50987C7.72381 0.627162 9.04247 0.627162 9.73237 1.50987L15.4705 8.79147C16.3538 9.9133 15.5605 11.5706 14.1163 11.5706H12.7134V15.6616L12.8081 15.5669C13.0926 15.2823 13.5231 15.2024 13.8909 15.3659L17.2814 16.8735C18.9333 15.9103 20.703 15.1771 22.5493 14.6906L23.8867 11.2248C24.0315 10.8497 24.3921 10.6024 24.7941 10.6024H31.2124C31.615 10.6024 31.9759 10.8504 32.1202 11.2261C32.1202 11.2261 33.4515 14.6908 33.4514 14.6907C35.2975 15.1773 37.067 15.9104 38.7186 16.8735L42.1091 15.3659C42.4769 15.2024 42.9074 15.2823 43.1919 15.5669L43.2866 15.6616C43.2866 13.8208 43.2866 11.5706 43.2866 11.5706H41.8837C40.4395 11.5706 39.6462 9.9133 40.5295 8.79147L40.5297 8.79122L46.2676 1.50987C46.9575 0.627162 48.2762 0.627162 48.9661 1.50987L54.7044 8.79147C55.5877 9.9133 54.7942 11.5706 53.35 11.5706H51.9472V26.4314C51.9472 26.9707 51.51 27.4078 50.9708 27.4078H47.8084C48.1252 28.2038 48.3937 29.0195 48.6124 29.8518L52.0707 31.1827C52.4461 31.3273 52.6939 31.6879 52.6939 32.0903V38.5087C52.6939 38.9109 52.4461 39.2718 52.0707 39.4163C52.0707 39.4163 48.612 40.7475 48.612 40.7474C48.1247 42.5935 47.3873 44.3629 46.4282 46.0143L47.9309 49.4067C48.0937 49.7742 48.0136 50.2039 47.7294 50.4882L43.1919 55.0256C42.9077 55.3099 42.478 55.3899 42.1103 55.2272L39.7379 54.1763C39.7308 55.114 39.7118 55.8908 39.6741 56.2904C39.5302 57.8132 38.9876 58.6493 38.7712 58.9436C38.5249 59.2786 37.7922 60.0405 37.1642 60.3977C36.5003 60.7754 35.6628 61.1522 34.8015 61.1522H22.4353C21.5091 61.1522 20.8199 60.8732 20.192 60.4127C19.395 59.8279 19.0048 59.4559 18.5091 58.7161C18.08 58.0756 17.797 57.5012 17.5355 56.1443C17.4543 55.723 17.417 54.8443 17.4055 53.7958C17.3642 53.7721 17.323 53.7484 17.2819 53.7246L13.8896 55.2272C13.522 55.3899 13.0923 55.3099 12.8081 55.0256L8.27063 50.4882C7.98603 50.2036 7.90616 49.7731 8.06967 49.4054L9.57688 46.0155C8.61406 44.3683 7.88063 42.5946 7.3895 40.748L3.92929 39.4163C3.55389 39.2718 3.30613 38.9109 3.30613 38.5087V32.0903C3.30613 31.6879 3.55389 31.3273 3.92929 31.1827C3.92929 31.1827 7.38913 29.8512 7.38901 29.8512C7.6099 29.0192 7.87954 28.2037 8.19708 27.4078ZM10.7606 17.6143V10.5943C10.7606 10.0551 11.1978 9.61789 11.737 9.61789H13.6354L8.38308 2.95265L3.1307 9.61789H5.02924C5.5684 9.61789 6.00556 10.0551 6.00556 10.5943V25.455H9.09292C9.24731 25.1591 9.40875 24.8666 9.57725 24.5778L8.06967 21.1871C7.90616 20.8193 7.98603 20.3889 8.27063 20.1043L10.7606 17.6143ZM45.2394 17.6143L47.7294 20.1043C48.0136 20.3885 48.0937 20.8184 47.9309 21.1859L46.4288 24.5769C46.5974 24.8661 46.759 25.1589 46.9134 25.455H49.9944V10.5943C49.9944 10.0551 50.4316 9.61789 50.9708 9.61789H52.8693L47.6169 2.95265L42.3645 9.61789H44.263C44.8022 9.61789 45.2394 10.0551 45.2394 10.5943V17.6143ZM39.7383 52.0491C40.6402 52.4486 42.2882 53.1786 42.2882 53.1786L45.8824 49.5845L44.446 46.3421C44.3167 46.0499 44.3391 45.7127 44.506 45.4402C45.577 43.6921 46.3713 41.7904 46.8453 39.7962C46.9195 39.4841 47.1428 39.2287 47.4421 39.1135L50.7488 37.8409V32.7581L47.4421 31.4855C47.1426 31.3702 46.9191 31.1145 46.8451 30.8021C46.3714 28.8026 45.5839 26.9017 44.5073 25.1545C44.3392 24.8817 44.3163 24.5435 44.446 24.2504L45.8824 21.008L42.2889 17.4147L39.0471 18.8561C38.7538 18.9865 38.415 18.9637 38.1417 18.7954C36.3944 17.7187 34.4933 16.9312 32.5 16.4575C32.1877 16.3832 31.9321 16.1597 31.817 15.8601L30.5442 12.5475H25.4613L24.1825 15.8614C24.0671 16.1604 23.8118 16.3833 23.5 16.4575C21.5067 16.9312 19.6056 17.7187 17.8583 18.7954C17.585 18.9637 17.2462 18.9865 16.9529 18.8561L13.7111 17.4147L10.1183 21.0073L11.5598 24.2492C11.6902 24.5425 11.6675 24.8812 11.4991 25.1545C10.422 26.9025 9.63426 28.8045 9.15419 30.8049C9.07954 31.116 8.85647 31.3705 8.55789 31.4855L5.25123 32.7581V37.8409L8.55789 39.1135C8.85634 39.2284 9.07918 39.4826 9.15407 39.7935C9.63402 41.7874 10.4214 43.6952 11.4983 45.4368C11.6674 45.7102 11.6905 46.0496 11.5598 46.3434L10.1183 49.5853L13.7118 53.1786L16.9542 51.7424C17.0995 51.678 17.256 51.6511 17.41 51.6611C17.435 49.6025 17.5055 47.5857 17.5171 47.2649C17.4812 46.4759 17.6193 45.7663 17.8834 45.1327C15.4119 42.5903 13.8904 39.1191 13.8904 35.2925C13.8904 27.4984 20.2021 21.1866 27.9962 21.1866C35.7901 21.1866 42.1096 27.4986 42.1096 35.2925C42.1096 38.7393 40.8736 41.8978 38.8207 44.3488C39.3513 45.1669 39.6764 46.1302 39.6784 47.2468C39.6814 47.4092 39.7258 49.7516 39.7383 52.0491ZM18.9907 43.4709C20.1414 42.2684 21.7696 41.5051 23.1528 41.1251C24.0821 40.8698 25.0518 40.6968 26.0215 40.5886C24.3848 39.445 23.2304 37.1872 23.2304 34.1237C23.2304 31.7807 23.9452 30.4352 24.9495 29.6446C25.9362 28.8677 27.2753 28.6163 28.7373 28.6163C30.2158 28.6163 31.5116 28.8763 32.4533 29.662C33.397 30.4494 34.0574 31.7899 34.0574 34.1237C34.0574 37.1642 32.9202 39.4111 31.303 40.5627C32.2759 40.6662 33.2386 40.845 34.1669 41.1344C35.3198 41.494 36.5184 42.0727 37.5022 42.8889C39.1683 40.8069 40.1645 38.1659 40.1645 35.2925C40.1645 28.573 34.7157 23.1317 27.9962 23.1317C21.2769 23.1317 15.8355 28.5731 15.8355 35.2925C15.8355 38.4408 17.0299 41.3101 18.9907 43.4709ZM28.6438 39.4858C30.6671 39.4858 32.1123 37.31 32.1123 34.1237C32.1123 32.5963 31.8248 31.6708 31.2071 31.1555C30.5875 30.6384 29.7102 30.5614 28.7373 30.5614C27.748 30.5614 26.8204 30.6472 26.1526 31.1729C25.502 31.6852 25.1755 32.6057 25.1755 34.1237C25.1755 37.31 26.6207 39.4858 28.6438 39.4858ZM35.6101 59.015C35.8222 58.9227 36.0215 58.81 36.2026 58.7069C36.5959 58.4834 37.0499 58.001 37.2042 57.7912C37.3406 57.6058 37.647 57.0671 37.7375 56.1074C37.8832 54.5667 37.7335 47.2767 37.7335 47.2767C37.7334 47.2702 37.7333 47.2637 37.7333 47.2572C37.7333 44.851 35.4913 43.585 33.5878 42.9913C32.0467 42.5107 30.3972 42.3854 28.7829 42.3854C27.1222 42.3854 25.3239 42.5457 23.6681 43.0006C22.7182 43.2616 21.5891 43.7322 20.7195 44.4812C19.9557 45.1392 19.3983 46.0262 19.4616 47.2051C19.4632 47.2352 19.4634 47.2654 19.4622 47.2955C19.4622 47.2955 19.1684 54.3384 19.4455 55.7763C19.6334 56.7521 19.8165 57.1729 20.125 57.6334C20.4812 58.165 20.7697 58.4242 21.3425 58.8442C21.4494 58.9227 21.5599 58.9906 21.6777 59.0458V48.3556C21.6777 47.8188 22.1135 47.3831 22.6502 47.3831C23.187 47.3831 23.6228 47.8188 23.6228 48.3556V59.2071H33.665V48.3556C33.665 47.8188 34.1008 47.3831 34.6375 47.3831C35.1742 47.3831 35.6101 47.8188 35.6101 48.3556V59.015Z" fill="#CFA935"/>
</svg>
