<svg width="64" height="64" viewBox="0 0 64 64" fill="none" xmlns="http://www.w3.org/2000/svg">
<path d="M63.029 61.6261H60.025V26.4091C60.025 26.3781 60.009 26.3521 60.007 26.3221C60.003 26.2721 59.989 26.2251 59.978 26.1761C59.958 26.1001 59.937 26.0281 59.902 25.9601C59.892 25.9411 59.892 25.9221 59.882 25.9041C59.862 25.8731 59.833 25.8561 59.814 25.8291C59.771 25.7731 59.728 25.7231 59.675 25.6781C59.624 25.6351 59.571 25.6021 59.515 25.5711C59.466 25.5441 59.421 25.5201 59.367 25.5021C59.293 25.4761 59.219 25.4641 59.138 25.4561C59.109 25.4531 59.085 25.4381 59.054 25.4381C59.038 25.4381 59.023 25.4481 59.005 25.4481C58.921 25.4521 58.841 25.4711 58.759 25.4991C58.718 25.5131 58.677 25.5221 58.638 25.5421C58.611 25.5561 58.579 25.5561 58.55 25.5731L50.888 30.1701L49.242 8.48406C49.248 8.44406 49.265 8.40906 49.265 8.36906C49.265 8.27806 49.238 8.19806 49.214 8.11406L48.698 1.33106C48.661 0.826059 48.239 0.435059 47.731 0.435059H38.28C37.764 0.435059 37.341 0.837059 37.311 1.35106L36.541 15.1131C36.521 15.1871 36.494 15.2591 36.494 15.3401C36.494 15.3871 36.515 15.4261 36.521 15.4691L35.777 28.7461L30.55 31.8391L29.35 15.9421C29.354 15.9051 29.371 15.8721 29.371 15.8341C29.371 15.7491 29.344 15.6731 29.323 15.5951L28.881 9.74906C28.842 9.24306 28.421 8.85306 27.914 8.85306H19.755C19.24 8.85306 18.815 9.25506 18.787 9.76906L18.124 21.6521C18.109 21.7181 18.084 21.7811 18.084 21.8511C18.084 21.8921 18.102 21.9251 18.106 21.9641L17.754 28.2631L4.544 34.3551C4.501 34.3751 4.473 34.4101 4.435 34.4331C4.371 34.4761 4.304 34.5131 4.251 34.5681C4.208 34.6131 4.183 34.6681 4.149 34.7191C4.114 34.7731 4.075 34.8201 4.05 34.8801C4.023 34.9481 4.018 35.0231 4.006 35.0971C3.999 35.1441 3.979 35.1861 3.979 35.2351V61.6271H0.969C0.435 61.6261 0 62.0601 0 62.5951C0 63.1321 0.435 63.5661 0.971 63.5661H4.95H59.054H63.029C63.566 63.5661 64 63.1321 64 62.5951C64 62.0601 63.566 61.6261 63.029 61.6261ZM39.197 2.37406H46.834L47.215 7.39906H38.916L39.197 2.37406ZM38.809 9.33906H47.364L47.745 14.3701H38.528L38.809 9.33906ZM38.418 16.3101H47.893L49.03 31.2871L42.091 35.4501L42.609 26.4611C42.629 26.1041 42.451 25.7631 42.144 25.5761C41.837 25.3901 41.455 25.3881 41.146 25.5701L37.791 27.5561L38.418 16.3101ZM20.673 10.7921H27.015L27.324 14.8641H20.446L20.673 10.7921ZM20.338 16.8041H27.471L27.78 20.8821H20.11L20.338 16.8041ZM20.002 22.8211H27.926L28.692 32.9391L24.452 35.4491L25.071 26.4701C25.094 26.1301 24.936 25.8001 24.655 25.6061C24.372 25.4121 24.009 25.3801 23.698 25.5241L19.75 27.3441L20.002 22.8211ZM11.566 61.6261H5.92V58.2761H11.566V61.6261ZM28.735 61.6261H13.506V53.3021H28.735V61.6261ZM58.086 61.6261H30.674V58.2761H58.086V61.6261ZM58.086 56.3381H30.674V52.3321C30.674 51.7961 30.24 51.3621 29.705 51.3621H12.537C12.001 51.3621 11.566 51.7961 11.566 52.3321V56.3381H5.92V35.8541L19.004 29.8231C19.018 29.8171 19.029 29.8091 19.043 29.8041L23.023 27.9691L22.389 37.1571C22.364 37.5161 22.54 37.8601 22.847 38.0501C23.003 38.1461 23.179 38.1951 23.357 38.1951C23.527 38.1951 23.698 38.1491 23.85 38.0581L30.134 34.3391C30.147 34.3331 30.157 34.3251 30.169 34.3181L40.565 28.1651L40.047 37.1681C40.026 37.5261 40.205 37.8681 40.514 38.0541C40.821 38.2421 41.205 38.2401 41.514 38.0561L58.084 28.1141V56.3381H58.086Z" fill="#CFA935"/>
</svg>
