<svg width="62" height="58" viewBox="0 0 62 58" fill="none" xmlns="http://www.w3.org/2000/svg">
<path d="M54.382 13.647C55.339 13.145 56 12.153 56 11C56 9.346 54.654 8 53 8C51.698 8 50.598 8.839 50.184 10H41.949C41.442 4.402 36.728 0 31 0C25.272 0 20.558 4.402 20.051 10H11.816C11.402 8.839 10.302 8 9 8C7.346 8 6 9.346 6 11C6 12.153 6.661 13.145 7.618 13.647L0.086 30.594C0.029 30.722 0 30.86 0 31C0 35.962 4.038 40 9 40C13.962 40 18 35.962 18 31C18 30.86 17.971 30.722 17.914 30.594L10.382 13.647C11.047 13.298 11.561 12.715 11.816 12H20.051C20.325 15.021 21.821 17.692 24.044 19.512L26.902 50H11C8.794 50 7 51.794 7 54C7 56.206 8.794 58 11 58H51C53.206 58 55 56.206 55 54C55 51.794 53.206 50 51 50H35.098L37.956 19.512C40.179 17.692 41.675 15.02 41.949 12H50.184C50.439 12.715 50.953 13.298 51.618 13.647L44.086 30.594C44.029 30.722 44 30.86 44 31C44 35.962 48.038 40 53 40C57.962 40 62 35.962 62 31C62 30.86 61.971 30.722 61.914 30.594L54.382 13.647ZM53 10C53.551 10 54 10.449 54 11C54 11.551 53.551 12 53 12C52.449 12 52 11.551 52 11C52 10.449 52.449 10 53 10ZM9 10C9.551 10 10 10.449 10 11C10 11.551 9.551 12 9 12C8.449 12 8 11.551 8 11C8 10.449 8.449 10 9 10ZM9 15.462L15.461 30H2.539L9 15.462ZM9 38C5.48 38 2.563 35.387 2.075 32H15.924C15.437 35.387 12.52 38 9 38ZM26.18 20.872C27.354 21.447 28.639 21.825 30 21.949V50H28.911L26.18 20.872ZM53 54C53 55.103 52.103 56 51 56H11C9.897 56 9 55.103 9 54C9 52.897 9.897 52 11 52H51C52.103 52 53 52.897 53 54ZM33.089 50H32V21.949C33.361 21.826 34.647 21.448 35.82 20.872L33.089 50ZM31 20C26.038 20 22 15.962 22 11C22 6.038 26.038 2 31 2C35.962 2 40 6.038 40 11C40 15.962 35.962 20 31 20ZM59.461 30H46.539L53 15.462L59.461 30ZM53 38C49.48 38 46.563 35.387 46.075 32H59.924C59.437 35.387 56.52 38 53 38Z" fill="#CFA935"/>
</svg>
