<svg width="58" height="62" viewBox="0 0 58 62" fill="none" xmlns="http://www.w3.org/2000/svg">
<path d="M22.8691 57.918C22.7545 58.3524 22.3622 58.6396 21.9332 58.6396C21.8513 58.6396 21.7682 58.6292 21.6852 58.6072C15.7927 57.0509 10.6461 53.7184 6.80206 48.9697C2.00214 43.0405 -0.201522 35.5968 0.597091 28.0102C1.3957 20.4235 5.10093 13.602 11.0303 8.80206C14.9465 5.63183 19.5611 3.57808 24.4854 2.7963L22.7214 1.81556C22.2539 1.55557 22.0855 0.965601 22.3455 0.498058C22.6056 0.0305149 23.1955 -0.137805 23.663 0.122183L28.1118 2.59589C28.372 2.74059 28.5513 2.99707 28.5978 3.29121C28.6445 3.58534 28.553 3.88444 28.3502 4.10253L24.8823 7.82871C24.6915 8.03372 24.4325 8.1375 24.173 8.1375C23.9367 8.1375 23.6998 8.05152 23.5132 7.87787C23.1216 7.51326 23.0996 6.90041 23.4641 6.50867L25.1945 4.64927C20.4537 5.32764 16.0069 7.26611 12.2493 10.3079C6.72225 14.7822 3.26842 21.141 2.52394 28.2129C1.77957 35.2849 3.83356 42.2236 8.30798 47.7508C11.8913 52.1772 16.6882 55.2835 22.1801 56.7341C22.6972 56.8707 23.0059 57.4009 22.8691 57.918ZM51.1981 13.0303C47.3536 8.281 42.207 4.9485 36.3147 3.39268C35.7972 3.25621 35.2673 3.56476 35.1307 4.08207C34.9943 4.59926 35.3028 5.12941 35.8201 5.266C41.3117 6.71586 46.1085 9.82215 49.6922 14.2492C54.1665 19.7764 56.2207 26.7149 55.4763 33.787C54.7318 40.859 51.2779 47.2178 45.7509 51.6921C41.9953 54.7324 37.5453 56.6731 32.805 57.3515L34.5362 55.4912C34.9006 55.0996 34.8786 54.4865 34.487 54.122C34.0955 53.7574 33.4824 53.7795 33.1178 54.1712L29.65 57.8973C29.4472 58.1154 29.3558 58.4145 29.4024 58.7087C29.4489 59.0029 29.6281 59.2593 29.8885 59.404L34.3371 61.8777C34.4861 61.9606 34.6477 61.9999 34.807 61.9999C35.1473 61.9999 35.4774 61.8203 35.6546 61.5018C35.9144 61.0343 35.7462 60.4444 35.2787 60.1843L33.514 59.2031C38.4379 58.4212 43.0558 56.3665 46.9699 53.1978C52.8993 48.3979 56.6045 41.5763 57.4031 33.9896C58.2015 26.4032 55.9978 18.9595 51.1981 13.0303ZM29.3897 44.5942L27.775 46.209C27.4918 46.4925 27.0631 46.5723 26.6968 46.4094L25.2959 45.7871C24.3962 46.3277 23.4309 46.728 22.4144 46.9817L21.8643 48.411C21.7204 48.7849 21.361 49.0317 20.9602 49.0317H18.6766C18.2758 49.0317 17.9165 48.7849 17.7725 48.411L17.2222 46.9812C16.2064 46.7274 15.2413 46.3273 14.3416 45.7869L12.9402 46.4094C12.5741 46.5721 12.1454 46.4925 11.8621 46.2091L10.2473 44.5945C9.96381 44.3111 9.88426 43.8824 10.0469 43.5162L10.6692 42.1154C10.1287 41.216 9.72841 40.2506 9.47472 39.2339L8.04533 38.6838C7.67127 38.5399 7.42448 38.1805 7.42448 37.7797V35.4962C7.42448 35.0954 7.67127 34.7361 8.04521 34.5921L9.47496 34.0418C9.72865 33.0259 10.1287 32.0607 10.6693 31.1608L10.0469 29.7596C9.88426 29.3934 9.96381 28.9649 10.2472 28.6815L11.8618 27.0668C12.1452 26.7832 12.5739 26.7036 12.9401 26.8663L14.3416 27.4889C15.2413 26.9484 16.2064 26.5482 17.2222 26.2947L17.7725 24.8648C17.9164 24.4908 18.2758 24.2441 18.6766 24.2441H20.9601C21.3609 24.2441 21.7202 24.4908 21.8642 24.8648L22.4147 26.2947C23.4303 26.5484 24.3955 26.9484 25.2953 27.4889L26.6967 26.8663C27.0631 26.7038 27.4914 26.7833 27.7749 27.0666L29.3897 28.6814C29.673 28.9649 29.7526 29.3934 29.59 29.7596L28.9677 31.1603C29.5082 32.0599 29.9084 33.0253 30.1621 34.0419L31.5914 34.592C31.9655 34.7359 32.2122 35.0953 32.2122 35.4961V37.7797C32.2122 38.1805 31.9655 38.5398 31.5915 38.6838L30.1618 39.2341C29.908 40.2499 29.5079 41.215 28.9674 42.1147L29.59 43.5161C29.7526 43.8823 29.673 44.3109 29.3897 44.5942ZM28.9816 37.6122L30.2749 37.1144V36.1611L28.9821 35.6636C28.6712 35.544 28.4436 35.273 28.3794 34.9462C28.1561 33.81 27.7148 32.7452 27.0676 31.7814C26.8818 31.505 26.8512 31.1526 26.9863 30.8481L27.5492 29.5809L26.8752 28.9069L25.6073 29.47C25.3029 29.605 24.9505 29.5745 24.6742 29.3888C23.7096 28.7414 22.6452 28.3001 21.5102 28.0772C21.1834 28.0131 20.9124 27.7854 20.7927 27.4746L20.2949 26.1812H19.3417L18.8439 27.4746C18.7242 27.7853 18.4532 28.013 18.1264 28.0772C16.9914 28.3001 15.927 28.7414 14.9624 29.3888C14.6861 29.5744 14.3335 29.6049 14.0293 29.47L12.7614 28.9069L12.0874 29.5809L12.6504 30.8486C12.7855 31.1531 12.7549 31.5054 12.5693 31.7819C11.9217 32.7462 11.4804 33.8107 11.2575 34.946C11.1934 35.2728 10.9657 35.5438 10.6549 35.6634L9.36161 36.1613V37.1144L10.6544 37.612C10.9653 37.7315 11.1928 38.0025 11.2571 38.3292C11.4805 39.4657 11.9218 40.5304 12.569 41.494C12.7548 41.7704 12.7854 42.1229 12.6503 42.4274L12.0874 43.6947L12.7614 44.3686L14.0293 43.8055C14.3337 43.6704 14.6861 43.7012 14.9624 43.8867C15.9268 44.5342 16.9914 44.9754 18.1265 45.1985C18.4533 45.2627 18.7242 45.4902 18.8439 45.801L19.3417 47.0943H20.2949L20.7925 45.8015C20.912 45.4908 21.183 45.2631 21.5099 45.199C22.646 44.9758 23.7106 44.5344 24.6744 43.887C24.9507 43.7013 25.3034 43.6706 25.6078 43.8058L26.8752 44.3686L27.5492 43.6946L26.9861 42.4268C26.8509 42.1225 26.8816 41.7701 27.0672 41.4936C27.7147 40.5292 28.156 39.4647 28.379 38.3296C28.4432 38.0027 28.6707 37.732 28.9816 37.6122ZM25.602 36.6379C25.602 39.827 23.0073 42.4216 19.8182 42.4216C16.6291 42.4216 14.0345 39.827 14.0345 36.6379C14.0345 33.4488 16.6291 30.8541 19.8182 30.8541C23.0073 30.8541 25.602 33.4488 25.602 36.6379ZM23.6645 36.6379C23.6645 34.517 21.939 32.7916 19.8182 32.7916C17.6973 32.7916 15.972 34.517 15.972 36.6379C15.972 38.7587 17.6973 40.4841 19.8182 40.4841C21.939 40.4841 23.6645 38.7586 23.6645 36.6379ZM28.5368 15.9849C28.7197 15.6282 29.1032 15.4206 29.5016 15.4632L30.5005 15.5695C30.9773 15.0412 31.5185 14.5813 32.1178 14.195L32.1736 13.1911C32.1958 12.7909 32.4621 12.4459 32.8434 12.3229L34.4522 11.804C34.8339 11.6809 35.2516 11.8054 35.5033 12.1172L36.1353 12.8996C36.8475 12.8629 37.5555 12.9201 38.2508 13.07L38.9997 12.4001C39.2983 12.1329 39.7306 12.0773 40.0872 12.2599L41.5918 13.0307C41.9484 13.2134 42.1557 13.5969 42.1135 13.9953L42.0072 14.9944C42.5352 15.4712 42.9952 16.0123 43.3815 16.6116L44.3857 16.6675C44.7858 16.6897 45.1308 16.9559 45.2538 17.3372L45.7727 18.9461C45.8958 19.3275 45.7712 19.7454 45.4594 19.9972L44.6774 20.6288C44.7142 21.3407 44.6571 22.049 44.5069 22.7449L45.1765 23.4933C45.4437 23.792 45.4995 24.2243 45.3168 24.5809L44.546 26.0857C44.3632 26.4425 43.9783 26.6491 43.5813 26.6073L42.5822 26.501C42.1055 27.0289 41.5643 27.4889 40.965 27.8752L40.9092 28.8793C40.887 29.2794 40.6208 29.6245 40.2394 29.7475L38.6306 30.2665C38.5327 30.2981 38.4325 30.3134 38.3333 30.3134C38.0457 30.3135 37.7667 30.1852 37.5795 29.9533L36.9479 29.1712C36.2358 29.2082 35.5275 29.1509 34.8317 29.0006L34.0833 29.6704C33.7845 29.9375 33.3522 29.9932 32.9956 29.8106L31.491 29.0399C31.1344 28.8571 30.9271 28.4736 30.9693 28.0752L31.0757 27.0761C30.5478 26.5993 30.0879 26.0582 29.7014 25.4589L28.6973 25.403C28.297 25.3809 27.952 25.1146 27.829 24.7333L27.3101 23.1244C27.187 22.743 27.3116 22.3251 27.6234 22.0733L28.4054 21.4417C28.3686 20.7297 28.4258 20.0214 28.576 19.3256L27.9063 18.5771C27.639 18.2784 27.5833 17.8461 27.766 17.4894L28.5368 15.9849ZM29.3582 23.1626L29.4687 23.5053L30.3216 23.5527C30.654 23.5711 30.9537 23.759 31.1151 24.0501C31.5161 24.7731 32.0468 25.3978 32.6929 25.9069C32.9543 26.113 33.0918 26.4391 33.0565 26.7702L32.9663 27.6187L33.2868 27.7828L33.9223 27.2141C34.1706 26.9923 34.5155 26.913 34.8356 27.0049C35.6272 27.2322 36.4445 27.2984 37.2644 27.2007C37.3025 27.1962 37.3408 27.1939 37.3786 27.1939C37.6691 27.1939 37.9469 27.3247 38.1322 27.554L38.6686 28.2182L39.0114 28.1076L39.0589 27.2547C39.0773 26.9222 39.2652 26.6225 39.5565 26.461C40.2793 26.0603 40.9039 25.5297 41.4131 24.8836C41.6191 24.622 41.9449 24.4846 42.2765 24.5198L43.1249 24.6101L43.2891 24.2895L42.7204 23.6541C42.4983 23.4058 42.4194 23.0611 42.5111 22.7409C42.7382 21.9492 42.8041 21.1321 42.7068 20.312C42.6676 19.9813 42.801 19.6535 43.0602 19.4443L43.7244 18.9077L43.6138 18.5649L42.7608 18.5174C42.4284 18.499 42.1287 18.3111 41.9673 18.02C41.5667 17.2973 41.036 16.6727 40.3897 16.1634C40.1283 15.9572 39.9908 15.6311 40.0261 15.3001L40.1163 14.4516L39.7957 14.2874L39.1599 14.8563C38.9119 15.0781 38.567 15.1577 38.2468 15.0655C37.4556 14.8385 36.6382 14.7727 35.8182 14.8698C35.4877 14.9093 35.1599 14.7757 34.9507 14.5165L34.4139 13.852L34.0712 13.9626L34.0237 14.8153C34.0053 15.1479 33.8173 15.4477 33.526 15.6091C32.8034 16.0094 32.1788 16.5401 31.6694 17.1866C31.4633 17.4482 31.1378 17.5852 30.806 17.5504L29.9577 17.4601L29.7936 17.7807L30.3623 18.4162C30.5844 18.6644 30.6633 19.0093 30.5715 19.3295C30.3444 20.1209 30.2785 20.9381 30.3757 21.7582C30.415 22.089 30.2815 22.4168 30.0224 22.626L29.3582 23.1626ZM32.2269 22.4266C31.8553 21.2741 31.9547 20.046 32.5067 18.9682C33.6462 16.7436 36.3831 15.8609 38.6083 17.0006C39.6859 17.5528 40.4842 18.4914 40.8559 19.6437C41.2274 20.7963 41.1281 22.0243 40.576 23.102C40.0239 24.1796 39.0852 24.9779 37.9328 25.3496C37.4747 25.4974 37.0044 25.5708 36.5366 25.5708C35.8276 25.5708 35.1239 25.4024 34.4746 25.0698C33.3969 24.5179 32.5987 23.579 32.2269 22.4266ZM34.0709 21.8319C34.2837 22.4918 34.7407 23.0294 35.3579 23.3454C35.975 23.6614 36.6779 23.7188 37.3381 23.5056C37.998 23.2929 38.5355 22.8359 38.8516 22.2186C39.1678 21.6016 39.2247 20.8984 39.0119 20.2384C38.799 19.5786 38.342 19.041 37.7249 18.725C37.3472 18.5315 36.9435 18.4398 36.5457 18.4398C35.6018 18.4398 34.6903 18.9555 34.2312 19.8516C33.9151 20.4687 33.858 21.172 34.0709 21.8319ZM47.662 35.336L47.3381 36.0652C47.6239 36.5697 47.8452 37.1037 47.9998 37.6617L48.744 37.9481C49.118 38.092 49.3648 38.4514 49.3648 38.8522V40.3086C49.3648 40.7094 49.1181 41.0687 48.7441 41.2127L47.9997 41.4992C47.8451 42.0567 47.6238 42.5906 47.3379 43.0951L47.6621 43.8248C47.8247 44.191 47.7452 44.6195 47.4618 44.9029L46.432 45.9328C46.1487 46.2164 45.7199 46.2957 45.3538 46.1332L44.6245 45.8092C44.1199 46.0949 43.586 46.3163 43.0281 46.4711L42.7417 47.2152C42.5979 47.5891 42.2384 47.8359 41.8376 47.8359H40.3812C39.9804 47.8359 39.6211 47.5892 39.4771 47.2152L39.1906 46.4708C38.6331 46.3162 38.0992 46.0949 37.5946 45.8092L36.865 46.1333C36.499 46.2958 36.0703 46.2164 35.7868 45.933L34.7569 44.9031C34.4735 44.6197 34.394 44.1911 34.5566 43.8249L34.8806 43.0957C34.5949 42.5912 34.3734 42.0572 34.2188 41.4992L33.4746 41.2128C33.1006 41.0689 32.8538 40.7095 32.8538 40.3087V38.8523C32.8538 38.4515 33.1006 38.0922 33.4746 37.9482L34.2189 37.6617C34.3734 37.1042 34.5948 36.5702 34.8806 36.0657L34.5565 35.3361C34.3939 34.9699 34.4734 34.5414 34.7568 34.2579L35.7866 33.2281C36.0698 32.9446 36.4985 32.865 36.8648 33.0278L37.5945 33.3519C38.099 33.0662 38.6329 32.8449 39.1905 32.6902L39.477 31.9459C39.6209 31.5718 39.9803 31.3251 40.3811 31.3251H41.8374C42.2382 31.3251 42.5975 31.5718 42.7415 31.9459L43.028 32.6902C43.5855 32.8449 44.1194 33.0661 44.6239 33.3519L45.3536 33.0278C45.7199 32.8652 46.1484 32.9448 46.4317 33.2281L47.4616 34.2579C47.7451 34.541 47.8246 34.9697 47.662 35.336ZM46.8277 39.2866C46.5168 39.167 46.2892 38.8959 46.225 38.5692C46.0916 37.8906 45.828 37.2546 45.4413 36.6788C45.2556 36.4024 45.225 36.05 45.3601 35.7455L45.6212 35.1576L45.5321 35.0684L44.9437 35.3297C44.6391 35.4648 44.287 35.4341 44.0107 35.2487C43.4342 34.8619 42.7984 34.5982 42.1206 34.465C41.7939 34.4008 41.5229 34.1733 41.4033 33.8624L41.1723 33.2624H41.0462L40.8152 33.8624C40.6956 34.1731 40.4246 34.4007 40.0979 34.465C39.4199 34.5982 38.7839 34.8618 38.2077 35.2487C37.9314 35.434 37.5791 35.4647 37.2747 35.3297L36.6864 35.0685L36.5973 35.1576L36.8585 35.7459C36.9936 36.0503 36.963 36.4027 36.7774 36.6792C36.3906 37.2552 36.127 37.8911 35.9939 38.569C35.9297 38.8958 35.702 39.1668 35.3911 39.2864L34.7912 39.5174V39.6434L35.3908 39.8742C35.7017 39.9938 35.9293 40.2649 35.9935 40.5916C36.1268 41.2702 36.3905 41.9062 36.7772 42.4819C36.963 42.7583 36.9936 43.1108 36.8585 43.4153L36.5973 44.0033L36.6864 44.0924L37.2747 43.8311C37.579 43.6961 37.9313 43.7266 38.2077 43.9121C38.7842 44.2989 39.4201 44.5626 40.0979 44.6958C40.4246 44.76 40.6956 44.9875 40.8152 45.2984L41.0462 45.8984H41.1723L41.4031 45.2987C41.5227 44.988 41.7938 44.7604 42.1205 44.6962C42.7989 44.5629 43.4349 44.2992 44.0109 43.9123C44.2872 43.7268 44.6399 43.6961 44.9442 43.8312L45.5321 44.0924L45.6212 44.0033L45.3599 43.4149C45.2247 43.1106 45.2554 42.7582 45.441 42.4817C45.8278 41.9055 46.0915 41.2696 46.2247 40.5918C46.2889 40.2651 46.5164 39.9941 46.8273 39.8745L47.4273 39.6435V39.5174L46.8277 39.2866ZM45.1488 39.5803C45.1488 41.8079 43.3366 43.6199 41.1092 43.6199C38.8818 43.6199 37.0696 41.8077 37.0696 39.5803C37.0696 37.3529 38.8818 35.5408 41.1092 35.5408C43.3366 35.5408 45.1488 37.3529 45.1488 39.5803ZM43.2113 39.5803C43.2113 38.4212 42.2684 37.4783 41.1092 37.4783C39.9501 37.4783 39.0071 38.4212 39.0071 39.5803C39.0071 40.7394 39.9501 41.6824 41.1092 41.6824C42.2684 41.6824 43.2113 40.7396 43.2113 39.5803Z" fill="#CFA935"/>
</svg>
