<svg width="144" height="21" viewBox="0 0 144 21" fill="none" xmlns="http://www.w3.org/2000/svg">
<path d="M57.4247 16.5256C56.5552 17.0225 55.5614 17.271 54.3191 17.271C53.0769 17.271 52.4558 17.1468 51.7105 16.7741C50.9651 16.4014 50.2198 15.9045 49.5987 15.2834C48.9775 14.6623 48.6049 13.9169 48.2322 13.0474C47.8595 12.1778 47.7353 11.3083 47.7353 10.3145C47.7353 9.32067 47.8595 8.45111 48.2322 7.58154C48.6049 6.71198 48.9775 5.96664 49.5987 5.34552C50.2198 4.7244 50.8409 4.22751 51.7105 3.85484C52.4558 3.48217 53.3254 3.35794 54.3191 3.35794C55.3129 3.35794 56.4309 3.60639 57.3005 3.97906C58.1701 4.47596 59.0396 4.97285 59.785 5.71819L62.021 3.1095C61.5241 2.6126 61.0272 2.23993 60.5303 1.86726C60.0334 1.49459 59.4123 1.12192 58.7912 0.873472C58.1701 0.625025 57.549 0.376578 56.8036 0.252354C56.0583 0.128131 55.1887 0.00390625 54.3191 0.00390625C52.8285 0.00390625 51.462 0.252354 50.2198 0.749248C48.9775 1.24614 47.8595 1.99148 46.99 2.98527C46.1204 3.97906 45.3751 4.97285 44.8782 6.21508C44.3813 7.45732 44.1328 8.82378 44.1328 10.1902C44.1328 11.5567 44.3813 12.9232 44.8782 14.1654C45.3751 15.4076 46.1204 16.5256 46.99 17.3952C47.8595 18.2648 48.9775 19.0101 50.0955 19.507C51.3378 20.0039 52.7042 20.2523 54.0707 20.2523C55.4372 20.2523 55.8098 20.2523 56.5552 20.0039C57.3005 19.8797 58.0459 19.6312 58.667 19.2586C59.2881 19.0101 59.9092 18.6374 60.4061 18.1405C60.903 17.7679 61.5241 17.271 62.021 16.6499L59.785 14.4138C58.9154 15.1592 58.0459 15.7803 57.1763 16.2772L57.4247 16.5256Z" fill="black"/>
<path d="M69.9548 11.6715H79.7685V8.44172H69.9548V3.47278H81.0107V0.367188H66.4766V19.9945H81.1349V16.8889H69.9548V11.6715Z" fill="black"/>
<path d="M99.2677 11.8028C99.8888 11.4301 100.386 11.0575 100.758 10.5606C101.131 10.0637 101.504 9.44255 101.752 8.82143C102.001 8.20031 102.125 7.45497 102.125 6.58541C102.125 5.71584 102.001 4.72205 101.628 3.97671C101.255 3.23137 100.758 2.48602 100.137 1.98913C99.5162 1.49224 98.7708 0.995341 97.777 0.746894C96.9075 0.498447 95.7894 0.25 94.6714 0.25H85.8516V19.8773H89.3298V13.045H93.6776L98.5224 19.8773H102.622L97.2801 12.4239C98.0255 12.1755 98.6466 11.927 99.1435 11.6786L99.2677 11.8028ZM89.454 10.1879V3.60404H94.5472C95.7894 3.60404 96.9075 3.85248 97.5286 4.4736C98.2739 4.9705 98.6466 5.84006 98.6466 6.95808C98.6466 8.07609 98.2739 8.82143 97.5286 9.44255C96.7832 10.0637 95.7894 10.3121 94.5472 10.3121H89.454V10.1879Z" fill="black"/>
<path d="M105.609 3.47278H111.821V19.9945H115.299V3.47278H121.51V0.367188H105.609V3.47278Z" fill="black"/>
<path d="M131.825 12.6776C131.328 12.305 130.831 12.0565 130.334 11.8081C129.837 11.5596 129.216 11.4354 128.719 11.187C128.346 11.0627 127.849 10.9385 127.477 10.8143C127.104 10.6901 126.731 10.5659 126.359 10.3174C126.11 10.1932 125.862 9.94473 125.613 9.82051C125.365 9.57206 125.365 9.44784 125.365 9.07517C125.365 8.57827 125.489 8.2056 125.862 7.95715C126.235 7.70871 126.731 7.58448 127.353 7.58448C127.974 7.58448 128.595 7.70871 129.34 7.95715C130.086 8.2056 130.831 8.57827 131.452 8.95094L132.818 6.59069C132.073 6.0938 131.204 5.59691 130.21 5.34846C129.216 5.10001 128.346 4.85156 127.353 4.85156C126.359 4.85156 125.986 4.85156 125.241 5.10001C124.62 5.34846 123.999 5.59691 123.502 5.96958C123.005 6.34225 122.632 6.83914 122.384 7.46026C122.135 8.08138 122.011 8.70249 122.011 9.32361C122.011 10.069 122.135 10.6901 122.384 11.187C122.632 11.6839 123.005 12.0565 123.502 12.4292C123.999 12.8019 124.495 13.0503 124.992 13.1745C125.489 13.423 126.11 13.5472 126.607 13.7957C126.98 13.9199 127.477 14.0441 127.849 14.1683C128.222 14.1683 128.595 14.4168 128.967 14.541C129.216 14.6652 129.464 14.9137 129.713 15.0379C129.837 15.2863 129.961 15.5348 129.961 15.7832C129.961 16.2801 129.713 16.777 129.34 17.0255C128.967 17.2739 128.346 17.5224 127.601 17.5224C126.856 17.5224 125.986 17.3981 125.241 17.0255C124.371 16.777 123.626 16.2801 122.756 15.659L121.266 18.0193C122.259 18.7646 123.253 19.2615 124.371 19.6342C125.489 20.0068 126.607 20.2553 127.601 20.2553C128.595 20.2553 129.092 20.2553 129.713 20.0068C130.334 19.7584 130.955 19.5099 131.452 19.1373C131.949 18.7646 132.322 18.2677 132.57 17.6466C132.818 17.0255 132.943 16.4044 132.943 15.5348C132.943 14.7895 132.818 14.2926 132.57 13.7957C132.322 13.2988 131.949 12.9261 131.452 12.5534L131.825 12.6776Z" fill="black"/>
<path d="M15.792 0.523438L12.8107 7.60418H7.59327L2.99699 3.00791C3.24544 2.75946 3.24544 2.38679 3.24544 2.13835C3.24544 1.26878 2.5001 0.523438 1.63053 0.523438C0.760968 0.523438 0.015625 1.26878 0.015625 2.13835C0.015625 3.00791 0.760968 3.75325 1.63053 3.75325C2.5001 3.75325 2.0032 3.75325 2.25165 3.75325L7.09637 8.59797H12.3138L11.6926 10.2129H3.24544C2.99699 9.59176 2.5001 9.09487 1.75476 9.09487C1.00942 9.09487 0.139849 9.84021 0.139849 10.7098C0.139849 11.5793 0.885192 12.3247 1.75476 12.3247C2.62432 12.3247 3.12122 11.8278 3.24544 11.2067H11.4442L10.8231 12.8216H7.2206L2.37588 17.6663C2.25165 17.6663 2.0032 17.6663 1.75476 17.6663C0.885192 17.6663 0.139849 18.4116 0.139849 19.2812C0.139849 20.1508 0.885192 20.8961 1.75476 20.8961C2.62432 20.8961 3.36966 20.1508 3.36966 19.2812C3.36966 18.4116 3.36966 18.6601 3.12122 18.4116L7.71749 13.8154H10.5746L7.59327 20.8961H12.0653L13.8044 16.4241H22.1274L23.8666 20.8961H28.3386L19.8914 1.02033H15.9162L15.792 0.523438ZM15.1709 12.0762L17.7796 5.74083L20.3883 12.0762H15.1709Z" fill="#C8A94C"/>
<path d="M36.5431 0.625H32.1953V20.2523H36.5431V0.625Z" fill="#C8A94C"/>
<path d="M133.305 1.36098H134.92V5.46035H136.038V1.36098H137.653V0.367188H133.305V1.36098Z" fill="black"/>
<path d="M142.741 0.367188L141.374 2.47899L140.008 0.367188H138.766V5.46035H139.884V2.10632L141.25 4.34234H141.374L142.741 2.10632V5.46035H143.983V0.367188H142.741Z" fill="black"/>
</svg>
