<svg width="171" height="24" viewBox="0 0 171 24" fill="none" xmlns="http://www.w3.org/2000/svg">
<g clip-path="url(#clip0_6183_1226)">
<path d="M68.0997 19.4216C67.0692 19.9757 65.8621 20.2381 64.4194 20.2381C62.9768 20.2381 62.2702 20.034 61.328 19.5966C60.3859 19.1592 59.5615 18.5759 58.8843 17.8177C58.2071 17.0595 57.6477 16.1847 57.2944 15.1932C56.9117 14.2017 56.735 13.1227 56.735 11.9563C56.735 10.7898 56.9117 9.73997 57.2944 8.74848C57.6772 7.75699 58.2071 6.88214 58.8843 6.1531C59.5615 5.42406 60.3859 4.84083 61.328 4.4034C62.2702 3.96598 63.3006 3.76185 64.4194 3.76185C65.5382 3.76185 66.9515 4.0243 67.9819 4.54921C69.0419 5.07412 70.0134 5.774 70.9556 6.61968L73.6054 3.61604C73.046 3.09113 72.4571 2.59538 71.8389 2.15796C71.2206 1.72053 70.5434 1.34143 69.8074 1.02066C69.0713 0.699878 68.2764 0.466586 67.3931 0.262454C66.5098 0.0874848 65.5382 0 64.4783 0C62.6824 0 61.063 0.320778 59.5909 0.933171C58.1188 1.57473 56.8528 2.42041 55.7929 3.52855C54.733 4.63669 53.8792 5.89064 53.2903 7.34872C52.7015 8.8068 52.407 10.3524 52.407 12.0146C52.407 13.6768 52.7015 15.2515 53.3198 16.7096C53.9086 18.1677 54.7624 19.4216 55.8223 20.5006C56.8823 21.5796 58.1188 22.4253 59.5909 23.0377C61.0336 23.6501 62.6235 23.9708 64.3311 23.9708C66.0388 23.9708 66.4215 23.8833 67.3342 23.6792C68.2469 23.5042 69.0713 23.2126 69.8368 22.8627C70.6023 22.5128 71.3089 22.0753 71.9566 21.5796C72.6044 21.0838 73.2521 20.5298 73.8409 19.8882L71.1911 17.2345C70.1901 18.1677 69.1891 18.8967 68.1586 19.4216H68.0997Z" fill="black"/>
<path d="M82.9974 13.7059H94.7154V10.0315H82.9974V4.08257H96.217V0.408203H78.9344V23.5625H96.3936V19.8882H82.9974V13.7059Z" fill="black"/>
<path d="M117.945 13.8517C118.622 13.4434 119.211 12.9477 119.712 12.3645C120.212 11.7812 120.595 11.1105 120.86 10.3523C121.125 9.59411 121.272 8.71926 121.272 7.75693C121.272 6.79459 121.066 5.59897 120.683 4.69496C120.271 3.79095 119.712 3.00359 118.976 2.39119C118.24 1.74964 117.327 1.28305 116.238 0.933112C115.148 0.583173 113.941 0.408203 112.616 0.408203H102.194V23.5625H106.257V15.4848H111.409L117.18 23.5625H122.038L115.708 14.7849C116.532 14.5516 117.298 14.26 117.975 13.8517H117.945ZM106.227 11.8687V4.08257H112.233C113.764 4.08257 114.972 4.40334 115.825 5.07406C116.679 5.71561 117.091 6.70711 117.091 7.99022C117.091 9.27333 116.65 10.1482 115.796 10.8481C114.913 11.5479 113.764 11.8979 112.263 11.8979H106.227V11.8687Z" fill="black"/>
<path d="M125.365 4.17005H132.784V23.5625H136.935V4.17005H144.355V0.408203H125.365V4.17005Z" fill="black"/>
<path d="M156.603 14.9015C156.073 14.5224 155.484 14.2016 154.836 13.9392C154.189 13.6767 153.541 13.4434 152.893 13.2393C152.393 13.0935 151.892 12.9185 151.392 12.7727C150.891 12.6269 150.479 12.4228 150.125 12.2478C149.772 12.0728 149.448 11.8395 149.242 11.6062C149.007 11.373 148.918 11.1105 148.918 10.7897V10.7314C148.918 10.2357 149.124 9.79823 149.566 9.47745C150.008 9.15667 150.597 8.9817 151.392 8.9817C152.186 8.9817 152.923 9.12751 153.806 9.41913C154.689 9.71074 155.543 10.119 156.367 10.6148L157.957 7.75692C157.015 7.14452 155.984 6.64877 154.836 6.29883C153.688 5.9489 152.569 5.77393 151.45 5.77393C150.332 5.77393 149.772 5.89057 149.007 6.12387C148.241 6.35716 147.564 6.7071 147.005 7.17368C146.445 7.64027 146.004 8.19434 145.68 8.86506C145.356 9.53577 145.209 10.2648 145.209 11.0813V11.1397C145.209 11.9853 145.385 12.6852 145.709 13.2393C146.033 13.7934 146.475 14.2891 147.005 14.6682C147.535 15.0473 148.123 15.3681 148.771 15.6014C149.419 15.8347 150.067 16.068 150.714 16.2721C151.215 16.4179 151.715 16.5637 152.216 16.7095C152.687 16.8553 153.129 17.0303 153.482 17.2053C153.835 17.3802 154.13 17.6135 154.365 17.8468C154.571 18.0801 154.689 18.3717 154.689 18.7217V18.78C154.689 19.3632 154.453 19.8007 153.982 20.1506C153.511 20.5005 152.834 20.6755 151.951 20.6755C151.068 20.6755 150.096 20.5005 149.095 20.1214C148.094 19.7715 147.122 19.2174 146.18 18.5175L144.384 21.2296C145.503 22.1044 146.71 22.746 148.006 23.1834C149.301 23.6208 150.597 23.8541 151.863 23.8541C153.129 23.8541 153.629 23.7375 154.424 23.5042C155.219 23.2709 155.926 22.9209 156.514 22.4835C157.103 22.0461 157.574 21.4629 157.898 20.7922C158.222 20.1214 158.399 19.3049 158.399 18.3717V18.3134C158.399 17.5261 158.222 16.8553 157.898 16.3013C157.574 15.7472 157.133 15.2806 156.603 14.9015Z" fill="black"/>
<path d="M18.6367 0.670898L15.0742 8.95279H8.92081L3.5329 3.61622C3.76844 3.3246 3.8862 2.9455 3.8862 2.53724C3.8862 1.51658 3.06182 0.70006 2.03135 0.70006C1.00087 0.70006 0.176493 1.51658 0.176493 2.50808C0.176493 3.49957 1.00087 4.34526 2.03135 4.34526C3.06182 4.34526 2.50242 4.28694 2.70852 4.22861L8.50862 9.97345H14.6326L13.8377 11.8398H3.73899C3.50346 11.0816 2.79684 10.4984 1.94302 10.4984C1.0892 10.4984 0.0881666 11.3149 0.0881666 12.3355C0.0881666 13.3562 0.912547 14.1727 1.94302 14.1727C2.9735 14.1727 3.50346 13.6187 3.73899 12.8313H13.396L12.6011 14.6976H8.30253L2.50242 20.4425C2.29633 20.355 2.06079 20.3258 1.82525 20.3258C0.794778 20.3258 -0.0296021 21.1423 -0.0296021 22.163C-0.0296021 23.1837 0.794778 24.0002 1.82525 24.0002C2.85573 24.0002 3.68011 23.1837 3.68011 22.163C3.68011 21.1423 3.5329 21.3756 3.3268 21.084L8.71472 15.7474H12.13L8.56751 24.0293H13.8082L15.9575 18.8386H25.85L27.9993 24.0293H33.3872L23.3769 0.670898H18.6367ZM17.8418 14.2894L20.9627 6.76567L24.0835 14.2894H17.8712H17.8418Z" fill="#CFA935"/>
<path d="M43.3094 0.729004H38.157V23.8833H43.3094V0.729004Z" fill="#CFA935"/>
<path d="M158.428 1.63299H160.313V6.53214H161.667V1.63299H163.551V0.408203H158.428V1.63299Z" fill="black"/>
<path d="M169.528 0.408203L167.909 2.97442L166.26 0.408203H164.817V6.53214H166.142V2.537L167.85 5.13238H167.909L169.646 2.50784V6.53214H171V0.408203H169.528Z" fill="black"/>
</g>
<defs>
<clipPath id="clip0_6183_1226">
<rect width="171" height="24" fill="white"/>
</clipPath>
</defs>
</svg>
