<svg width="76" height="77" viewBox="0 0 76 77" fill="none" xmlns="http://www.w3.org/2000/svg">
<path d="M27.0794 28.7191C27.2246 30.122 27.8925 31.4187 28.9502 32.3516C30.0079 33.2845 31.3779 33.7851 32.7879 33.7539C33.6617 33.7605 34.5257 33.5691 35.3149 33.194C36.1041 32.8189 36.7981 32.2699 37.3448 31.5882C37.5127 31.3779 37.6041 31.1168 37.604 30.8477V10.5524C37.6041 10.2833 37.5127 10.0222 37.3448 9.81193C36.7981 9.13019 36.1041 8.58116 35.3149 8.20607C34.5257 7.83098 33.6617 7.63959 32.7879 7.64625C31.3103 7.60963 29.8784 8.16002 28.8057 9.17691C27.7331 10.1938 27.1071 11.5943 27.0649 13.0718C27.065 13.2255 27.0731 13.3792 27.0893 13.5321C26.2617 13.9893 25.571 14.659 25.0884 15.472C24.6058 16.285 24.3488 17.212 24.3438 18.1575C24.3437 19.2184 24.6691 20.2538 25.2761 21.1239C24.6691 21.994 24.3437 23.0294 24.3438 24.0903C24.3517 25.0345 24.6089 25.9597 25.0892 26.7725C25.5696 27.5854 26.2562 28.2569 27.0794 28.7191ZM27.6517 20.264C27.3606 19.9952 27.1277 19.6696 26.9672 19.3073C26.8067 18.945 26.7222 18.5537 26.7188 18.1575C26.7342 17.5469 26.9337 16.9553 27.2912 16.4602C27.6487 15.965 28.1475 15.5895 28.7222 15.3828C28.9792 15.4413 29.2086 15.5856 29.3727 15.7919C29.5367 15.9982 29.6257 16.2541 29.6249 16.5177H31.9999C32.0001 15.7495 31.751 15.0019 31.29 14.3873C30.8289 13.7728 30.1809 13.3244 29.4433 13.1097C29.4431 13.0976 29.4399 13.0837 29.4399 13.0718C29.4821 12.2242 29.8578 11.4278 30.485 10.8563C31.1123 10.2848 31.9401 9.98461 32.7879 10.0212C33.6995 10.013 34.5773 10.3664 35.229 11.0041V17.5002C34.4879 17.6732 33.8011 18.0269 33.2299 18.5298C32.6587 19.0327 32.2208 19.6691 31.9552 20.3823L31.9117 20.5041L34.1487 21.3031L34.1922 21.1808C34.383 20.6827 34.7527 20.2737 35.2289 20.0336V30.3961C34.5773 31.0337 33.6995 31.3871 32.7879 31.3789C32.0542 31.4003 31.3346 31.175 30.7441 30.7391C30.1537 30.3031 29.7265 29.6816 29.5311 28.9742C30.1782 28.7016 30.7304 28.2439 31.1184 27.6587C31.5063 27.0734 31.7127 26.3865 31.7117 25.6843H29.3367C29.3376 25.9296 29.2613 26.169 29.1188 26.3686C28.9762 26.5682 28.7746 26.7179 28.5423 26.7967C28.0117 26.5666 27.5581 26.1896 27.235 25.71C26.9119 25.2304 26.7327 24.6684 26.7188 24.0903C26.7222 23.6941 26.8067 23.3028 26.9672 22.9405C27.1277 22.5782 27.3606 22.2526 27.6517 21.9838C27.7682 21.8729 27.861 21.7395 27.9244 21.5917C27.9878 21.4439 28.0205 21.2847 28.0205 21.1239C28.0205 20.9631 27.9878 20.8039 27.9244 20.6561C27.861 20.5083 27.7682 20.3749 27.6517 20.264Z" fill="#007EB9"/>
<path d="M40.7686 23.9449C40.5157 23.945 40.2641 23.908 40.0218 23.8353C39.8445 23.7819 39.6571 23.7707 39.4746 23.8026C39.2922 23.8345 39.1197 23.9087 38.971 24.0192C38.8224 24.1297 38.7017 24.2735 38.6185 24.439C38.5354 24.6045 38.4921 24.7872 38.4922 24.9724V32.4917C38.4921 32.7852 38.6009 33.0684 38.7974 33.2866C38.9939 33.5047 39.2642 33.6423 39.5562 33.6728C39.9599 33.715 40.3656 33.7363 40.7715 33.7366C40.8237 33.7366 40.8765 33.736 40.9287 33.7354C42.0036 33.7164 43.0711 33.5522 44.1021 33.2471C44.3488 33.1752 44.5655 33.0252 44.7197 32.8197C44.8739 32.6141 44.9573 32.3641 44.9574 32.1071V30.6768C44.9526 30.6126 44.9636 30.5481 44.9896 30.4892C45.0156 30.4302 45.0557 30.3786 45.1064 30.3388C45.6381 30.0769 46.1457 29.7686 46.6232 29.4174C46.6605 29.398 46.7024 29.3894 46.7443 29.3925C46.7861 29.3956 46.8263 29.4102 46.8604 29.4348L48.0363 30.1509C48.2668 30.291 48.5382 30.3486 48.8057 30.314C49.0733 30.2794 49.3211 30.1548 49.5085 29.9607C51.12 28.2792 52.258 26.2013 52.8071 23.9379C52.8674 23.6929 52.8479 23.435 52.7515 23.2017C52.6552 22.9685 52.487 22.772 52.2713 22.6409L50.9 21.8059C50.9797 21.0593 50.9797 20.3063 50.9 19.5597L52.2708 18.7247C52.4864 18.5936 52.6546 18.3971 52.7509 18.1638C52.8473 17.9306 52.8668 17.6727 52.8065 17.4276C52.2596 15.1637 51.1238 13.0847 49.5142 11.4014C49.3269 11.2072 49.0791 11.0826 48.8115 11.048C48.5439 11.0134 48.2726 11.071 48.0421 11.2112L46.8604 11.9308C46.8264 11.9557 46.7862 11.9705 46.7443 11.9736C46.7023 11.9767 46.6604 11.9679 46.6232 11.9482C46.1458 11.5969 45.6382 11.2886 45.1064 11.0269C45.0557 10.9869 45.0156 10.9352 44.9896 10.8761C44.9636 10.8171 44.9526 10.7526 44.9573 10.6882V9.25255C44.9573 8.99567 44.874 8.74572 44.7199 8.54019C44.5658 8.33465 44.3492 8.18461 44.1027 8.11255C42.9694 7.77538 41.7914 7.61272 40.6092 7.63018C40.252 7.63481 39.9006 7.65685 39.5521 7.69454C39.2609 7.72592 38.9916 7.86383 38.796 8.08175C38.6003 8.29967 38.4921 8.58222 38.4922 8.87508V16.3926C38.4921 16.5777 38.5354 16.7602 38.6184 16.9256C38.7014 17.091 38.822 17.2346 38.9704 17.3452C39.1188 17.4557 39.291 17.53 39.4733 17.5621C39.6555 17.5942 39.8428 17.5833 40.0201 17.5302C40.2629 17.4576 40.5151 17.4207 40.7686 17.4207C41.5837 17.4731 42.345 17.8453 42.887 18.4562C43.4291 19.0671 43.708 19.8673 43.6632 20.6828C43.708 21.4983 43.4291 22.2985 42.887 22.9094C42.345 23.5203 41.5836 23.8925 40.7686 23.9449ZM40.8672 15.0468V10.0046C41.4432 10.0117 42.0173 10.0717 42.5823 10.1837V10.6882C42.5754 11.1961 42.7098 11.696 42.9703 12.132C43.2309 12.568 43.6075 12.9231 44.058 13.1577C44.4643 13.3576 44.8519 13.5932 45.2165 13.8616C45.6323 14.1623 46.1283 14.3322 46.6411 14.3496C47.1539 14.3669 47.6603 14.2309 48.0954 13.959L48.4271 13.7572C49.2387 14.7743 49.8608 15.9292 50.2634 17.1666L48.9976 17.9372C48.7936 18.0614 48.6318 18.2441 48.5333 18.4617C48.4348 18.6792 48.4043 18.9214 48.4456 19.1566C48.6312 20.1656 48.6312 21.1999 48.4456 22.2089C48.4043 22.4441 48.4348 22.6863 48.5333 22.9038C48.6318 23.1214 48.7936 23.3041 48.9976 23.4283L50.2634 24.1989C49.8591 25.4356 49.2353 26.5893 48.4218 27.6048L48.0954 27.4065C47.6605 27.1338 47.1541 26.9974 46.6411 27.0148C46.1281 27.0321 45.632 27.2025 45.2165 27.5039C44.8514 27.7723 44.4633 28.008 44.0569 28.2084C43.6066 28.4429 43.2304 28.7979 42.97 29.2337C42.7097 29.6696 42.5755 30.1691 42.5823 30.6767V31.1777C42.0269 31.2904 41.4623 31.3515 40.8956 31.3604L40.8672 31.3609V26.3188C42.294 26.2396 43.6333 25.6059 44.5994 24.5529C45.5655 23.5 46.0818 22.1111 46.0382 20.6828C46.0818 19.2545 45.5655 17.8656 44.5994 16.8127C43.6333 15.7597 42.294 15.126 40.8672 15.0468Z" fill="#007EB9"/>
<path d="M19.3828 24.4915C20.2592 28.783 22.5911 32.64 25.9839 35.41C29.3768 38.18 33.6224 39.693 38.0024 39.693C42.3825 39.693 46.6281 38.18 50.0209 35.41C53.4138 32.64 55.7457 28.783 56.6221 24.4915L54.2946 24.0195C53.527 27.774 51.4864 31.1481 48.5177 33.5713C45.549 35.9945 41.8345 37.318 38.0024 37.318C34.1703 37.318 30.4558 35.9945 27.4871 33.5713C24.5184 31.1481 22.4778 27.774 21.7102 24.0195L19.3828 24.4915Z" fill="#007EB9"/>
<path d="M54.6225 20.6904C54.6225 21.0632 54.6103 21.4334 54.5859 21.8008L56.9563 21.955C56.9836 21.537 56.9973 21.1154 56.9975 20.6904C56.9975 20.2654 56.9837 19.8438 56.9563 19.4258L54.5859 19.58C54.6097 19.947 54.6219 20.3172 54.6225 20.6904Z" fill="#007EB9"/>
<path d="M38.0024 4.06642C41.8326 4.07373 45.5433 5.39992 48.5105 7.82189C51.4777 10.2439 53.5203 13.6138 54.2946 17.3649L56.6221 16.8929C55.7457 12.6015 53.4138 8.74446 50.0209 5.97443C46.6281 3.2044 42.3825 1.69141 38.0024 1.69141C33.6224 1.69141 29.3768 3.2044 25.9839 5.97443C22.5911 8.74446 20.2592 12.6015 19.3828 16.8929L21.7103 17.3649C22.4846 13.6138 24.5271 10.2439 27.4943 7.82192C30.4615 5.39995 34.1723 4.07375 38.0024 4.06642Z" fill="#007EB9"/>
<path d="M21.4115 21.8008C21.3878 21.4337 21.3756 21.0636 21.375 20.6904C21.375 20.3176 21.3872 19.9474 21.4115 19.58L19.0412 19.4258C19.0139 19.8438 19.0002 20.2654 19 20.6904C19 21.1154 19.0137 21.537 19.0412 21.955L21.4115 21.8008Z" fill="#007EB9"/>
<path d="M59.3755 52.7556C59.56 52.7559 59.7421 52.7131 59.9072 52.6307C60.0723 52.5482 60.2158 52.4284 60.3264 52.2807L67.4514 42.7807L65.5519 41.3555L59.1389 49.9057L55.3393 47.0558L53.9141 48.9554L58.6641 52.5179C58.8691 52.6723 59.1188 52.7558 59.3755 52.7556Z" fill="#007EB9"/>
<path d="M11.2416 52.6938L15.4406 48.4948L19.6396 52.6938L21.3188 51.0146L17.1197 46.8156L21.3188 42.6166L19.6396 40.9375L15.4406 45.1365L11.2416 40.9375L9.5625 42.6166L13.7615 46.8156L9.5625 51.0146L11.2416 52.6938Z" fill="#007EB9"/>
<path d="M73.625 56.3155H67.6574C69.6586 54.8244 71.1392 52.7409 71.8889 50.3606C72.6387 47.9803 72.6195 45.4243 71.834 43.0556C71.0486 40.6868 69.5369 38.6257 67.5135 37.165C65.4902 35.7042 63.0581 34.918 60.5625 34.918C58.0669 34.918 55.6348 35.7042 53.6115 37.165C51.5881 38.6257 50.0764 40.6868 49.291 43.0556C48.5055 45.4243 48.4863 47.9803 49.2361 50.3606C49.9858 52.7409 51.4664 54.8244 53.4676 56.3155H44.1395L43.9334 53.8419C43.9087 53.545 43.7733 53.2683 43.5541 53.0666C43.3349 52.8649 43.0479 52.753 42.75 52.753H33.25C32.9521 52.753 32.6651 52.8649 32.4459 53.0666C32.2267 53.2683 32.0913 53.545 32.0666 53.8419L31.8605 56.3155H22.5324C24.5336 54.8244 26.0142 52.7409 26.7639 50.3606C27.5137 47.9803 27.4945 45.4243 26.709 43.0556C25.9236 40.6868 24.4119 38.6257 22.3885 37.165C20.3652 35.7042 17.9331 34.918 15.4375 34.918C12.9419 34.918 10.5098 35.7042 8.48645 37.165C6.4631 38.6257 4.95138 40.6868 4.16596 43.0556C3.38054 45.4243 3.36134 47.9803 4.11108 50.3606C4.86083 52.7409 6.3414 54.8244 8.34258 56.3155H2.375C2.06006 56.3155 1.75801 56.4406 1.53531 56.6633C1.31261 56.886 1.1875 57.188 1.1875 57.503V62.253C1.1875 62.5679 1.31261 62.8699 1.53531 63.0926C1.75801 63.3153 2.06006 63.4405 2.375 63.4405H31.2669L30.9701 67.003H27.3125C26.9976 67.003 26.6955 67.1281 26.4728 67.3508C26.2501 67.5735 26.125 67.8755 26.125 68.1905V74.128C26.125 74.4429 26.2501 74.7449 26.4728 74.9676C26.6955 75.1903 26.9976 75.3155 27.3125 75.3155H48.6875C49.0024 75.3155 49.3045 75.1903 49.5272 74.9676C49.7499 74.7449 49.875 74.4429 49.875 74.128V68.1905C49.875 67.8755 49.7499 67.5735 49.5272 67.3508C49.3045 67.1281 49.0024 67.003 48.6875 67.003H45.0299L44.7331 63.4405H73.625C73.9399 63.4405 74.242 63.3153 74.4647 63.0926C74.6874 62.8699 74.8125 62.5679 74.8125 62.253V57.503C74.8125 57.188 74.6874 56.886 74.4647 56.6633C74.242 56.4406 73.9399 56.3155 73.625 56.3155ZM51.0625 46.8155C51.0625 44.9365 51.6197 43.0998 52.6635 41.5375C53.7074 39.9753 55.1911 38.7576 56.927 38.0386C58.6629 37.3196 60.573 37.1314 62.4159 37.498C64.2587 37.8646 65.9514 38.7693 67.28 40.0979C68.6086 41.4265 69.5134 43.1193 69.88 44.9621C70.2465 46.8049 70.0584 48.715 69.3394 50.4509C68.6203 52.1868 67.4027 53.6705 65.8404 54.7144C64.2781 55.7583 62.4414 56.3155 60.5625 56.3155C58.0438 56.3126 55.6291 55.3108 53.8482 53.5298C52.0672 51.7488 51.0654 49.3341 51.0625 46.8155ZM5.9375 46.8155C5.9375 44.9365 6.49467 43.0998 7.53854 41.5375C8.58241 39.9753 10.0661 38.7576 11.802 38.0386C13.5379 37.3196 15.448 37.1314 17.2909 37.498C19.1337 37.8646 20.8264 38.7693 22.155 40.0979C23.4836 41.4265 24.3884 43.1193 24.755 44.9621C25.1215 46.8049 24.9334 48.715 24.2144 50.4509C23.4953 52.1868 22.2777 53.6705 20.7154 54.7144C19.1531 55.7583 17.3164 56.3155 15.4375 56.3155C12.9188 56.3126 10.5041 55.3108 8.72317 53.5298C6.9422 51.7488 5.94038 49.3341 5.9375 46.8155ZM3.5625 61.0655V58.6905H31.6626L31.4648 61.0655H3.5625ZM47.5 69.378V72.9405H28.5V69.378H32.0625C32.3604 69.3779 32.6474 69.266 32.8666 69.0643C33.0858 68.8626 33.2212 68.5859 33.2459 68.289L34.3424 55.128H41.6576L42.7541 68.289C42.7788 68.5859 42.9142 68.8626 43.1334 69.0643C43.3526 69.266 43.6396 69.3779 43.9375 69.378H47.5ZM72.4375 61.0655H44.5352L44.3374 58.6905H72.4375V61.0655Z" fill="#007EB9"/>
</svg>
