<svg width="76" height="77" viewBox="0 0 76 77" fill="none" xmlns="http://www.w3.org/2000/svg">
<path d="M38 21.8789C34.0073 21.8789 30.1043 23.0629 26.7844 25.2811C23.4646 27.4993 20.8771 30.6522 19.3492 34.341C17.8212 38.0298 17.4215 42.0888 18.2004 46.0048C18.9793 49.9208 20.902 53.5179 23.7253 56.3411C26.5486 59.1644 30.1456 61.0871 34.0616 61.866C37.9776 62.645 42.0366 62.2452 45.7254 60.7172C49.4142 59.1893 52.5671 56.6018 54.7853 53.282C57.0035 49.9622 58.1875 46.0591 58.1875 42.0664C58.1815 36.7142 56.0527 31.5829 52.2681 27.7983C48.4835 24.0137 43.3522 21.8849 38 21.8789ZM26.9491 28.1228L29.5521 31.5938L27.3731 38.1251C27.2735 38.4237 27.2966 38.7496 27.4372 39.0312L29.8122 43.7812C29.8933 43.9431 30.0104 44.0843 30.1545 44.194C30.2985 44.3037 30.4658 44.379 30.6434 44.4141L35.6309 45.4104V49.5192L33.1598 50.3433L26.3269 49.2045C26.029 49.1553 25.7236 49.2206 25.4719 49.3873L22.7406 51.2042C20.5054 47.5053 19.6995 43.1168 20.4746 38.865C21.2498 34.6132 23.5524 30.7915 26.9491 28.1192V28.1228ZM24.0896 53.1624L26.3934 51.6282L33.0541 52.7373C33.2453 52.7691 33.4414 52.7536 33.6253 52.6922L37.1878 51.5047C37.4241 51.4259 37.6297 51.2749 37.7755 51.0728C37.9213 50.8708 37.9998 50.628 38 50.3789V44.4414C38.0001 44.1677 37.9055 43.9023 37.7324 43.6902C37.5593 43.4781 37.3182 43.3324 37.05 43.2777L31.6825 42.203L29.7825 38.4125L32.0019 31.7542C32.0626 31.572 32.0781 31.378 32.0473 31.1885C32.0165 30.9991 31.9402 30.8199 31.825 30.6664L28.9073 26.7773C31.3099 25.3414 34.0195 24.4972 36.8125 24.3145V27.4602L34.637 30.7234C34.5212 30.8973 34.4533 31.0986 34.4401 31.3071C34.427 31.5156 34.4691 31.7239 34.5622 31.9109L36.9372 36.6609C37.0528 36.8947 37.2427 37.0837 37.4771 37.1982C37.7115 37.3127 37.9772 37.3463 38.2328 37.2938L43.1431 36.3118L43.8425 38.4137L41.6813 42.7231C41.5519 42.982 41.5216 43.2792 41.5959 43.5588C41.6703 43.8385 41.8442 44.0814 42.085 44.2419L45.6475 46.6169C45.8444 46.7482 46.0759 46.8176 46.3125 46.8164C46.4401 46.8165 46.5669 46.7956 46.6878 46.7547L50.0674 45.6289H55.4563C54.9963 47.8771 54.1042 50.0146 52.8295 51.9227L52.1918 50.0084C52.1137 49.7706 51.9625 49.5635 51.7596 49.4168C51.5568 49.2701 51.3128 49.1912 51.0625 49.1914H45.125C44.8905 49.1918 44.6613 49.2612 44.4659 49.3909L40.9034 51.7659C40.7732 51.8528 40.6614 51.9646 40.5745 52.0948L38.1995 55.6573C38.0837 55.8312 38.0158 56.0325 38.0026 56.241C37.9895 56.4495 38.0316 56.6578 38.1247 56.8448L39.6008 59.7958C39.0688 59.8457 38.5403 59.8789 38 59.8789C35.3255 59.8779 32.6856 59.2734 30.2772 58.1105C27.8687 56.9476 25.7537 55.2562 24.0896 53.1624ZM42.0541 59.3956L40.5579 56.4019L42.4187 53.6101L45.4813 51.5664H50.2028L51.0625 54.135C48.6529 56.7493 45.5151 58.5816 42.0541 59.3956ZM55.7519 43.2539H49.875C49.7474 43.2542 49.6207 43.275 49.4998 43.3157L46.4883 44.3179L44.2807 42.8466L46.1878 39.0347C46.3284 38.7531 46.3515 38.4272 46.2519 38.1287L45.0644 34.5662C44.9743 34.2896 44.7851 34.0561 44.5333 33.9105C44.2814 33.765 43.9846 33.7176 43.7 33.7777L38.6519 34.7858L36.9894 31.4608L38.9821 28.4719C39.1132 28.2782 39.1847 28.0503 39.1875 27.8164V24.3145C43.6919 24.6171 47.9134 26.6181 50.9994 29.9132C54.0853 33.2083 55.8055 37.5519 55.8125 42.0664C55.8125 42.4678 55.7781 42.8597 55.7519 43.2539Z" fill="#007EB9"/>
<path d="M63.056 8.81455C63.3503 10.2562 64.1694 11.5373 65.3545 12.4093C66.5396 13.2814 68.0064 13.6824 69.4703 13.5345C70.9343 13.3866 72.2912 12.7004 73.2779 11.6089C74.2647 10.5174 74.811 9.09845 74.811 7.62705C74.811 6.15564 74.2647 4.73665 73.2779 3.64518C72.2912 2.5537 70.9343 1.8675 69.4703 1.71961C68.0064 1.57172 66.5396 1.97268 65.3545 2.84475C64.1694 3.71682 63.3503 4.99787 63.056 6.43955H43.8185C43.546 5.09733 42.8178 3.89061 41.7573 3.02385C40.6969 2.15709 39.3694 1.68359 37.9997 1.68359C36.6301 1.68359 35.3026 2.15709 34.2422 3.02385C33.1817 3.89061 32.4535 5.09733 32.181 6.43955H12.9435C12.6492 4.99787 11.8301 3.71682 10.645 2.84475C9.45986 1.97268 7.99314 1.57172 6.52919 1.71961C5.06523 1.8675 3.70834 2.5537 2.72157 3.64518C1.7348 4.73665 1.18846 6.15564 1.18846 7.62705C1.18846 9.09845 1.7348 10.5174 2.72157 11.6089C3.70834 12.7004 5.06523 13.3866 6.52919 13.5345C7.99314 13.6824 9.45986 13.2814 10.645 12.4093C11.8301 11.5373 12.6492 10.2562 12.9435 8.81455H32.181C32.2166 8.99148 32.2867 9.15417 32.3377 9.32398C25.3478 10.5077 18.9228 13.9053 14.0097 19.0163C9.09648 24.1272 5.9549 30.6811 5.04781 37.7124L1.53518 41.225C1.36916 41.3911 1.2561 41.6026 1.2103 41.8329C1.16451 42.0633 1.18802 42.302 1.27788 42.519C1.36774 42.7359 1.5199 42.9213 1.71514 43.0518C1.91038 43.1823 2.13992 43.252 2.37475 43.252H4.77112C5.07464 51.5817 8.4956 59.4936 14.3564 65.4204C20.2171 71.3473 28.0901 74.8567 36.4159 75.2536C44.7416 75.6504 52.9128 72.9058 59.3107 67.5633C65.7087 62.2209 69.8667 54.6703 70.9612 46.4072L74.4643 42.9041C74.6303 42.738 74.7434 42.5265 74.7892 42.2961C74.835 42.0658 74.8115 41.8271 74.7216 41.6101C74.6318 41.3932 74.4796 41.2077 74.2844 41.0773C74.0891 40.9468 73.8596 40.8771 73.6248 40.877H71.2284C70.9519 33.2512 68.0629 25.952 63.0455 20.2026C58.0281 14.4532 51.1871 10.6028 43.6689 9.29667C43.7164 9.13517 43.7876 8.98198 43.8173 8.81455H63.056ZM68.8748 4.06455C69.5793 4.06455 70.2681 4.27348 70.854 4.66494C71.4398 5.05639 71.8964 5.61277 72.1661 6.26374C72.4357 6.9147 72.5063 7.631 72.3688 8.32206C72.2313 9.01311 71.892 9.64789 71.3938 10.1461C70.8956 10.6443 70.2608 10.9836 69.5698 11.1211C68.8787 11.2586 68.1624 11.188 67.5114 10.9184C66.8605 10.6487 66.3041 10.1921 65.9126 9.60627C65.5212 9.02042 65.3123 8.33164 65.3123 7.62705C65.3123 6.68221 65.6876 5.77608 66.3557 5.10798C67.0238 4.43988 67.9299 4.06455 68.8748 4.06455ZM7.12475 11.1895C6.42015 11.1895 5.73138 10.9806 5.14553 10.5892C4.55968 10.1977 4.10306 9.64132 3.83343 8.99036C3.56379 8.33939 3.49324 7.62309 3.6307 6.93204C3.76816 6.24098 4.10745 5.6062 4.60568 5.10798C5.1039 4.60975 5.73868 4.27046 6.42974 4.133C7.1208 3.99554 7.8371 4.06609 8.48806 4.33573C9.13902 4.60536 9.69541 5.06198 10.0869 5.64783C10.4783 6.23368 10.6872 6.92245 10.6872 7.62705C10.6872 8.57188 10.3119 9.47802 9.64382 10.1461C8.97572 10.8142 8.06958 11.1895 7.12475 11.1895ZM37.9997 4.06455C38.7043 4.06455 39.3931 4.27348 39.979 4.66494C40.5648 5.05639 41.0214 5.61277 41.2911 6.26374C41.5607 6.9147 41.6313 7.631 41.4938 8.32206C41.3563 9.01311 41.017 9.64789 40.5188 10.1461C40.0206 10.6443 39.3858 10.9836 38.6948 11.1211C38.0037 11.2586 37.2874 11.188 36.6364 10.9184C35.9855 10.6487 35.4291 10.1921 35.0376 9.60627C34.6462 9.02042 34.4372 8.33164 34.4372 7.62705C34.4372 6.68221 34.8126 5.77608 35.4807 5.10798C36.1488 4.43988 37.0549 4.06455 37.9997 4.06455ZM37.9997 72.9395C29.814 72.9304 21.9661 69.6746 16.1779 63.8864C10.3897 58.0982 7.13386 50.2503 7.12475 42.0645C7.12475 41.7496 6.99964 41.4476 6.77694 41.2249C6.55424 41.0022 6.25219 40.877 5.93725 40.877H5.24137L9.49975 36.6187L13.7581 40.877H13.0622C12.7473 40.877 12.4453 41.0022 12.2226 41.2249C11.9999 41.4476 11.8747 41.7496 11.8747 42.0645C11.874 48.4901 14.2414 54.6906 18.5242 59.4807C22.8071 64.2708 28.7051 67.3145 35.0907 68.03C41.4764 68.7455 47.9017 67.0826 53.1385 63.3591C58.3753 59.6357 62.0562 54.1129 63.4776 47.8465L65.6602 50.0291C65.8829 50.2517 66.1849 50.3768 66.4998 50.3768C66.8146 50.3768 67.1166 50.2517 67.3393 50.0291L67.9996 49.3689C66.364 56.0914 62.5174 62.0695 57.0772 66.3439C51.6369 70.6183 44.9184 72.9411 37.9997 72.9395ZM59.3748 40.877C59.1399 40.8771 58.9104 40.9468 58.7151 41.0773C58.5199 41.2077 58.3677 41.3932 58.2779 41.6101C58.188 41.8271 58.1645 42.0658 58.2103 42.2961C58.2561 42.5265 58.3692 42.738 58.5352 42.9041L61.4363 45.8064C60.5136 51.6043 57.4753 56.8547 52.9082 60.5438C48.3411 64.2328 42.569 66.0987 36.7067 65.7811C30.8444 65.4636 25.3077 62.9851 21.1657 58.8244C17.0238 54.6636 14.5704 49.1157 14.2794 43.252H16.6247C16.8596 43.252 17.0891 43.1823 17.2844 43.0518C17.4796 42.9213 17.6318 42.7359 17.7216 42.519C17.8115 42.302 17.835 42.0633 17.7892 41.8329C17.7434 41.6026 17.6303 41.3911 17.4643 41.225L14.5632 38.3227C15.4859 32.5248 18.5242 27.2743 23.0913 23.5853C27.6584 19.8963 33.4305 18.0304 39.2928 18.348C45.1551 18.6655 50.6918 21.144 54.8338 25.3047C58.9757 29.4655 61.4291 35.0134 61.7201 40.877H59.3748ZM68.8748 42.0645C68.8748 42.3795 68.9999 42.6815 69.2226 42.9042C69.4453 43.1269 69.7473 43.252 70.0623 43.252H70.7581L66.4998 47.5104L62.2414 43.252H62.9373C63.2522 43.252 63.5542 43.1269 63.7769 42.9042C63.9996 42.6815 64.1248 42.3795 64.1248 42.0645C64.1255 35.639 61.7581 29.4385 57.4753 24.6484C53.1924 19.8583 47.2944 16.8146 40.9088 16.0991C34.5231 15.3836 28.0978 17.0465 22.861 20.77C17.6242 24.4934 13.9433 30.0162 12.5219 36.2826L10.3393 34.1C10.1166 33.8774 9.81463 33.7523 9.49975 33.7523C9.18487 33.7523 8.88287 33.8774 8.66019 34.1L8.0225 34.7365C9.46449 28.7551 12.6697 23.3447 17.2228 19.2064C21.7759 15.0681 27.467 12.3926 33.5585 11.5268C34.1093 12.167 34.792 12.6805 35.5598 13.0322C36.3276 13.384 37.1624 13.5655 38.007 13.5645C38.8515 13.5635 39.6858 13.3799 40.4528 13.0264C41.2198 12.6728 41.9012 12.1576 42.4505 11.5161C49.7884 12.5883 56.4957 16.2645 61.3472 21.8732C66.1987 27.4819 68.8706 34.6487 68.8748 42.0645Z" fill="#007EB9"/>
</svg>
