<svg width="76" height="77" viewBox="0 0 76 77" fill="none" xmlns="http://www.w3.org/2000/svg">
<path fill-rule="evenodd" clip-rule="evenodd" d="M5.42466 11.2537H3.01189C2.43578 11.2537 1.96875 10.7867 1.96875 10.2106V2.75407C1.96875 2.17796 2.43578 1.71094 3.01189 1.71094H73.0019C73.578 1.71094 74.045 2.17796 74.045 2.75407V10.2106C74.045 10.7867 73.578 11.2537 73.0019 11.2537H70.5891V60.4828C70.5891 60.994 70.386 61.4843 70.0245 61.8458C69.663 62.2075 69.1725 62.4105 68.6613 62.4105H39.05V65.491C41.2944 65.9708 42.9795 67.9671 42.9795 70.354C42.9795 73.0985 40.7514 75.3266 38.0069 75.3266C35.2624 75.3266 33.0343 73.0985 33.0343 70.354C33.0343 67.9671 34.7194 65.9708 36.9638 65.491V62.4105H7.35253C6.84124 62.4105 6.35082 62.2075 5.9893 61.8458C5.62778 61.4843 5.42466 60.994 5.42466 60.4828V11.2537ZM71.9588 3.79721H4.05502V9.16743H71.9588V3.79721ZM7.51094 11.2537V60.3242H68.5028V11.2537H7.51094ZM38.0069 67.4675C36.4139 67.4675 35.1205 68.7608 35.1205 70.354C35.1205 71.947 36.4139 73.2403 38.0069 73.2403C39.5999 73.2403 40.8932 71.947 40.8932 70.354C40.8932 68.7608 39.5999 67.4675 38.0069 67.4675ZM27.2817 52.1016C27.3647 52.301 27.4478 52.5005 27.5308 52.6999L27.5313 52.701C27.791 53.3292 27.7916 53.9623 27.5347 54.5948L27.5329 54.5993C27.2732 55.2225 26.8257 55.6721 26.195 55.9377L26.1923 55.9387L22.8349 57.3305C21.5772 57.8554 20.1208 57.2529 19.5993 55.9964C17.7052 51.445 15.8083 46.8937 13.9156 42.3459C13.6491 41.717 13.6476 41.0785 13.9095 40.4448C14.1703 39.8143 14.621 39.3642 15.2473 39.1032L18.6086 37.7083C19.8654 37.1865 21.3169 37.7834 21.8438 39.0414L21.8442 39.0424L22.0338 39.498C23.5927 38.7603 25.149 38.0176 26.6988 37.2597C28.979 36.1441 30.7802 35.418 32.8738 35.7008C34.2303 35.8841 35.7258 36.4928 37.5586 37.7695L43.7139 39.4184C44.7681 39.7008 45.6137 40.3845 46.1305 41.2615L54.5993 38.7772C58.5063 37.6309 60.658 38.5235 61.6079 39.8073C62.2585 40.6869 62.4348 41.8245 62.1913 42.9503C61.8543 44.5076 60.7018 46.017 59.1343 46.6217L46.0234 51.6739C43.771 52.5406 40.7575 53.7301 38.3404 53.0282L31.3557 51.002L31.3539 51.0015C30.5967 50.7805 29.8701 50.8419 29.1599 51.1878L27.2817 52.1016ZM25.603 53.4988C25.3952 52.9996 20.1207 40.3317 19.9186 39.8461C19.8353 39.648 19.6067 39.5531 19.4085 39.6355L16.0492 41.0297C15.9501 41.071 15.8791 41.1426 15.8378 41.2422C15.7981 41.3387 15.7964 41.4358 15.8383 41.5349L15.8398 41.5382C17.7341 46.0903 19.6313 50.6424 21.5259 55.195L21.5261 55.1954C21.6077 55.3921 21.8353 55.487 22.0336 55.4039L25.3893 54.0128L25.3931 54.0111C25.4913 53.9684 25.563 53.8985 25.6061 53.7979C25.6445 53.6983 25.6441 53.5982 25.603 53.4988ZM26.4784 50.1718L28.2463 49.3118C29.4414 48.7297 30.6643 48.6265 31.937 48.998L38.9219 51.0242C39.858 51.296 40.9052 51.1555 41.9374 50.891C43.1171 50.5886 44.2772 50.11 45.2735 49.7265L58.3832 44.6749C59.3006 44.3208 59.9545 43.4205 60.1518 42.5091C60.2643 41.9888 60.2311 41.4549 59.9303 41.0485C59.6715 40.6986 59.2265 40.4706 58.5978 40.3739C57.7475 40.2431 56.6272 40.3569 55.1866 40.7794L46.6909 43.2717C46.6938 43.6237 46.6502 43.9814 46.5549 44.3368C45.9836 46.4701 43.7683 47.7496 41.6366 47.175L33.2187 44.9209C32.6625 44.7719 32.3318 44.1994 32.4808 43.6433C32.6297 43.087 33.2022 42.7563 33.7585 42.9053L42.1763 45.1594L42.1781 45.1598C43.202 45.4358 44.265 44.821 44.5393 43.7969C44.8137 42.7722 44.1987 41.7085 43.1741 41.434L36.8401 39.7373C36.7203 39.7053 36.6072 39.6521 36.5061 39.5804C34.9596 38.4827 33.7271 37.9218 32.5944 37.7688C30.8973 37.5394 29.464 38.2298 27.6158 39.1341C26.0283 39.9106 24.4336 40.6712 22.8367 41.4266C24.0503 44.3416 25.2647 47.2565 26.4784 50.1718ZM59.4793 31.407C59.4346 31.5038 59.3744 31.5953 59.2985 31.6774C57.4904 34.3012 54.5013 36.3186 50.9078 37.2157C50.8698 37.2274 50.8314 37.2368 50.7925 37.2441C49.5 37.557 48.1307 37.7252 46.7111 37.7252C41.9435 37.7252 37.743 35.8272 35.1153 32.9274C35.0782 32.897 35.0427 32.8639 35.0094 32.8277C34.9633 32.7782 34.9232 32.7255 34.8887 32.6702C33.2262 30.7304 32.2531 28.371 32.2531 25.845C32.2531 19.3547 38.6772 13.9647 46.7111 13.9647C54.7451 13.9647 61.1691 19.3547 61.1691 25.845C61.1691 27.8454 60.5588 29.7412 59.4793 31.407ZM57.1726 31.086L51.6487 25.5621C51.559 25.4724 51.414 25.4703 51.3203 25.5573L46.304 30.8016L50.8922 35.066C53.4963 34.3271 55.7068 32.9165 57.1726 31.086ZM35.882 30.5957L39.4947 27.2453C40.3162 26.4835 41.6562 26.4835 42.4778 27.2453L42.4785 27.246L44.7758 29.3812L49.8238 24.1035C49.8292 24.098 49.8346 24.0925 49.8401 24.087C50.7445 23.1826 52.2196 23.1826 53.124 24.087L58.3095 29.2724C58.8091 28.2091 59.0829 27.0551 59.0829 25.845C59.0829 20.3722 53.4855 16.0509 46.7111 16.0509C39.9367 16.0509 34.3394 20.3722 34.3394 25.845C34.3394 27.5775 34.9003 29.1946 35.882 30.5957ZM42.4495 18.0499C44.1756 18.0499 45.5748 19.4492 45.5748 21.1751C45.5748 22.9012 44.1756 24.3005 42.4495 24.3005C40.7235 24.3005 39.3242 22.9012 39.3242 21.1751C39.3242 19.4492 40.7235 18.0499 42.4495 18.0499ZM42.4495 20.1362C41.8757 20.1362 41.4105 20.6014 41.4105 21.1751C41.4105 21.749 41.8757 22.2142 42.4495 22.2142C43.0233 22.2142 43.4884 21.749 43.4884 21.1751C43.4884 20.6014 43.0233 20.1362 42.4495 20.1362ZM48.3521 35.5534L41.059 28.775C41.0189 28.7379 40.9535 28.7379 40.9134 28.775L37.2543 32.1683C39.5334 34.2999 42.9399 35.639 46.7111 35.639C47.2668 35.639 47.8148 35.6099 48.3521 35.5534Z" fill="#007EB9"/>
</svg>
