<svg width="25" height="25" viewBox="0 0 25 25" fill="none" xmlns="http://www.w3.org/2000/svg">
<path d="M12.0565 6.1413C12.2563 6.1413 12.448 6.22069 12.5893 6.362C12.7306 6.50332 12.81 6.69498 12.81 6.89483V11.416H17.3312C17.531 11.416 17.7227 11.4954 17.864 11.6367C18.0053 11.778 18.0847 11.9697 18.0847 12.1696C18.0847 12.3694 18.0053 12.5611 17.864 12.7024C17.7227 12.8437 17.531 12.9231 17.3312 12.9231H12.81V17.4443C12.81 17.6441 12.7306 17.8358 12.5893 17.9771C12.448 18.1184 12.2563 18.1978 12.0565 18.1978C11.8566 18.1978 11.6649 18.1184 11.5236 17.9771C11.3823 17.8358 11.3029 17.6441 11.3029 17.4443V12.9231H6.78173C6.58188 12.9231 6.39022 12.8437 6.2489 12.7024C6.10759 12.5611 6.0282 12.3694 6.0282 12.1696C6.0282 11.9697 6.10759 11.778 6.2489 11.6367C6.39022 11.4954 6.58188 11.416 6.78173 11.416H11.3029V6.89483C11.3029 6.69498 11.3823 6.50332 11.5236 6.362C11.6649 6.22069 11.8566 6.1413 12.0565 6.1413Z" fill="#CFA935"/>
</svg>
